ply
format ascii 1.0
comment Dominant contour extracted from bimodal image.
comment scale factor = 1.000000
comment kernel width = 3
comment decimate eps = 1.000000
comment orig shape   = (362, 1647)
comment threshold    = 199.000000
comment Written with hapPLY (https://github.com/nmwsharp/happly)
element flags 0
property uchar closed
element vertex 156
property double x
property double y
end_header
9.000 197.000
11.000 198.000
14.000 196.000
35.000 196.000
36.000 198.000
38.000 196.000
42.000 198.000
45.000 195.000
50.000 196.000
60.000 193.000
64.000 194.000
67.000 192.000
81.000 193.000
111.000 210.000
128.000 217.000
132.000 217.000
144.000 224.000
157.000 228.000
168.000 234.000
195.000 244.000
218.000 249.000
223.000 253.000
224.000 252.000
227.000 254.000
236.000 255.000
264.000 263.000
274.000 264.000
285.000 268.000
313.000 271.000
316.000 273.000
349.000 278.000
390.000 287.000
399.000 287.000
421.000 291.000
445.000 291.000
459.000 294.000
467.000 294.000
493.000 299.000
508.000 304.000
527.000 307.000
539.000 307.000
554.000 310.000
608.000 310.000
617.000 312.000
644.000 312.000
667.000 308.000
676.000 310.000
693.000 309.000
715.000 313.000
745.000 312.000
786.000 306.000
808.000 305.000
816.000 303.000
857.000 302.000
865.000 304.000
886.000 305.000
930.000 297.000
957.000 297.000
988.000 291.000
1003.000 292.000
1011.000 290.000
1034.000 290.000
1053.000 287.000
1085.000 286.000
1123.000 280.000
1135.000 280.000
1150.000 277.000
1169.000 276.000
1177.000 273.000
1213.000 267.000
1249.000 264.000
1285.000 253.000
1320.000 246.000
1355.000 233.000
1413.000 220.000
1423.000 215.000
1447.000 208.000
1460.000 202.000
1470.000 200.000
1516.000 180.000
1549.000 161.000
1582.000 129.000
1583.000 126.000
1593.000 115.000
1609.000 108.000
1607.000 104.000
1594.000 105.000
1573.000 98.000
1562.000 92.000
1530.000 84.000
1508.000 82.000
1494.000 79.000
1469.000 77.000
1443.000 77.000
1423.000 74.000
1305.000 74.000
1277.000 77.000
1210.000 78.000
1164.000 73.000
1095.000 71.000
1071.000 68.000
1018.000 68.000
992.000 71.000
976.000 71.000
957.000 74.000
943.000 73.000
913.000 75.000
890.000 72.000
857.000 71.000
800.000 76.000
735.000 76.000
708.000 80.000
646.000 76.000
611.000 76.000
571.000 80.000
565.000 82.000
543.000 83.000
470.000 80.000
457.000 81.000
437.000 86.000
414.000 89.000
371.000 88.000
351.000 90.000
325.000 96.000
300.000 98.000
289.000 101.000
276.000 102.000
263.000 106.000
256.000 105.000
253.000 108.000
229.000 111.000
208.000 119.000
187.000 123.000
171.000 130.000
151.000 134.000
138.000 140.000
127.000 143.000
116.000 150.000
105.000 154.000
85.000 169.000
80.000 171.000
63.000 172.000
61.000 174.000
54.000 175.000
38.000 173.000
36.000 175.000
25.000 174.000
24.000 175.000
29.000 178.000
22.000 179.000
19.000 182.000
22.000 185.000
22.000 187.000
16.000 188.000
15.000 190.000
17.000 193.000
