ply
format ascii 1.0
comment Dominant contour extracted from bimodal image.
comment scale factor = 1.000000
comment kernel width = 3
comment decimate eps = 1.000000
comment orig shape   = (343, 1717)
comment threshold    = 232.500000
comment Written with hapPLY (https://github.com/nmwsharp/happly)
element flags 0
property uchar closed
element vertex 192
property double x
property double y
end_header
1653.000 181.000
1647.000 180.000
1641.000 184.000
1633.000 185.000
1625.000 181.000
1622.000 181.000
1611.000 174.000
1591.000 168.000
1580.000 162.000
1577.000 162.000
1576.000 160.000
1575.000 161.000
1557.000 152.000
1537.000 145.000
1492.000 138.000
1473.000 132.000
1469.000 132.000
1468.000 130.000
1466.000 131.000
1446.000 125.000
1428.000 123.000
1425.000 121.000
1423.000 122.000
1391.000 114.000
1388.000 112.000
1375.000 111.000
1344.000 103.000
1319.000 100.000
1317.000 98.000
1316.000 99.000
1305.000 96.000
1299.000 96.000
1229.000 78.000
1216.000 77.000
1202.000 72.000
1189.000 71.000
1177.000 67.000
1158.000 64.000
1151.000 61.000
1117.000 60.000
1101.000 57.000
1044.000 58.000
1036.000 56.000
1035.000 57.000
998.000 54.000
975.000 50.000
894.000 50.000
828.000 46.000
811.000 49.000
796.000 49.000
747.000 54.000
725.000 54.000
715.000 56.000
698.000 56.000
692.000 58.000
637.000 57.000
616.000 63.000
593.000 65.000
580.000 68.000
570.000 68.000
545.000 77.000
506.000 80.000
474.000 88.000
458.000 87.000
446.000 91.000
428.000 92.000
420.000 94.000
413.000 98.000
394.000 99.000
381.000 103.000
361.000 106.000
355.000 109.000
345.000 110.000
312.000 121.000
301.000 130.000
293.000 134.000
274.000 136.000
267.000 139.000
263.000 143.000
257.000 145.000
242.000 145.000
230.000 151.000
220.000 154.000
207.000 163.000
191.000 166.000
175.000 177.000
161.000 184.000
143.000 189.000
126.000 198.000
124.000 197.000
120.000 200.000
99.000 205.000
81.000 207.000
66.000 212.000
58.000 212.000
42.000 216.000
25.000 216.000
22.000 218.000
22.000 225.000
25.000 226.000
23.000 227.000
25.000 231.000
29.000 233.000
35.000 233.000
47.000 230.000
53.000 231.000
59.000 227.000
74.000 222.000
96.000 218.000
102.000 219.000
107.000 215.000
109.000 215.000
108.000 217.000
110.000 218.000
114.000 215.000
116.000 216.000
122.000 214.000
122.000 216.000
147.000 221.000
163.000 221.000
171.000 225.000
172.000 227.000
173.000 226.000
193.000 234.000
194.000 236.000
196.000 235.000
205.000 238.000
216.000 237.000
239.000 251.000
261.000 254.000
266.000 257.000
281.000 260.000
287.000 263.000
289.000 262.000
309.000 267.000
330.000 268.000
340.000 271.000
353.000 270.000
359.000 275.000
397.000 275.000
403.000 277.000
414.000 277.000
430.000 281.000
438.000 285.000
463.000 285.000
471.000 287.000
485.000 287.000
512.000 293.000
544.000 292.000
569.000 297.000
632.000 299.000
643.000 302.000
661.000 304.000
723.000 303.000
730.000 305.000
780.000 303.000
816.000 305.000
855.000 302.000
930.000 302.000
976.000 307.000
977.000 306.000
1005.000 308.000
1050.000 304.000
1089.000 304.000
1120.000 299.000
1156.000 296.000
1176.000 292.000
1188.000 292.000
1197.000 290.000
1203.000 291.000
1214.000 288.000
1243.000 285.000
1266.000 280.000
1290.000 279.000
1311.000 275.000
1321.000 275.000
1339.000 271.000
1352.000 271.000
1492.000 243.000
1532.000 240.000
1562.000 231.000
1580.000 220.000
1592.000 215.000
1599.000 209.000
1606.000 206.000
1607.000 207.000
1615.000 201.000
1616.000 202.000
1618.000 199.000
1649.000 186.000
1647.000 185.000
1652.000 183.000
