ply
format ascii 1.0
comment Dominant contour extracted from bimodal image.
comment scale factor = 0.843882
comment kernel width = 3
comment decimate eps = 1.000000
comment orig shape   = (474, 1669)
comment threshold    = 207.500000
comment Written with hapPLY (https://github.com/nmwsharp/happly)
element flags 0
property uchar closed
element vertex 158
property double x
property double y
end_header
1371.000 217.000
1369.000 214.000
1367.000 214.000
1362.000 222.000
1348.000 222.000
1342.000 219.000
1334.000 218.000
1322.000 212.000
1307.000 212.000
1299.000 206.000
1291.000 203.000
1270.000 199.000
1261.000 199.000
1228.000 190.000
1221.000 190.000
1189.000 179.000
1178.000 179.000
1166.000 174.000
1118.000 162.000
1106.000 161.000
1096.000 157.000
1081.000 155.000
1073.000 152.000
1065.000 152.000
1057.000 149.000
1026.000 145.000
1013.000 141.000
998.000 140.000
991.000 138.000
979.000 138.000
954.000 131.000
944.000 130.000
930.000 125.000
922.000 125.000
904.000 120.000
870.000 118.000
801.000 108.000
777.000 107.000
764.000 104.000
667.000 100.000
633.000 93.000
617.000 93.000
604.000 90.000
591.000 90.000
579.000 88.000
547.000 88.000
523.000 86.000
463.000 86.000
440.000 87.000
418.000 91.000
367.000 95.000
346.000 100.000
315.000 104.000
282.000 113.000
257.000 115.000
241.000 120.000
236.000 120.000
216.000 125.000
207.000 130.000
203.000 130.000
196.000 133.000
189.000 133.000
167.000 142.000
144.000 147.000
122.000 155.000
87.000 161.000
69.000 161.000
64.000 158.000
58.000 159.000
45.000 155.000
28.000 156.000
24.000 158.000
26.000 160.000
20.000 159.000
18.000 161.000
18.000 172.000
20.000 174.000
34.000 173.000
37.000 175.000
50.000 174.000
53.000 177.000
60.000 176.000
63.000 185.000
75.000 182.000
87.000 184.000
116.000 195.000
128.000 205.000
145.000 214.000
167.000 222.000
175.000 227.000
192.000 232.000
201.000 237.000
219.000 243.000
227.000 243.000
239.000 248.000
259.000 250.000
269.000 254.000
305.000 260.000
314.000 264.000
332.000 267.000
345.000 271.000
374.000 274.000
388.000 277.000
401.000 277.000
404.000 279.000
420.000 281.000
456.000 291.000
482.000 294.000
492.000 297.000
526.000 300.000
539.000 300.000
543.000 298.000
550.000 302.000
558.000 302.000
587.000 308.000
598.000 308.000
604.000 310.000
625.000 310.000
636.000 313.000
643.000 313.000
659.000 319.000
741.000 325.000
757.000 329.000
776.000 330.000
782.000 332.000
836.000 331.000
876.000 335.000
890.000 333.000
908.000 334.000
931.000 333.000
939.000 331.000
980.000 331.000
991.000 330.000
996.000 328.000
1044.000 326.000
1052.000 324.000
1064.000 325.000
1071.000 323.000
1094.000 323.000
1134.000 318.000
1144.000 313.000
1175.000 308.000
1187.000 302.000
1202.000 299.000
1210.000 295.000
1230.000 292.000
1239.000 288.000
1247.000 287.000
1265.000 281.000
1272.000 281.000
1295.000 272.000
1304.000 265.000
1314.000 264.000
1321.000 258.000
1328.000 256.000
1345.000 244.000
1353.000 241.000
1367.000 227.000
