ply
format ascii 1.0
comment Dominant contour extracted from bimodal image.
comment scale factor = 1.000000
comment kernel width = 3
comment decimate eps = 1.000000
comment orig shape   = (243, 1122)
comment threshold    = 198.000000
comment Written with hapPLY (https://github.com/nmwsharp/happly)
element flags 0
property uchar closed
element vertex 214
property double x
property double y
end_header
1096.000 123.000
1076.000 119.000
1057.000 119.000
1055.000 118.000
1058.000 118.000
1058.000 116.000
1054.000 116.000
1051.000 114.000
1049.000 116.000
1053.000 118.000
1046.000 118.000
1045.000 116.000
1043.000 118.000
1042.000 116.000
1038.000 118.000
1038.000 116.000
1040.000 117.000
1042.000 114.000
1038.000 114.000
1042.000 110.000
1024.000 101.000
1002.000 94.000
989.000 93.000
979.000 89.000
966.000 87.000
952.000 81.000
932.000 80.000
925.000 77.000
914.000 76.000
905.000 72.000
900.000 72.000
892.000 69.000
862.000 65.000
855.000 62.000
846.000 62.000
838.000 59.000
828.000 59.000
818.000 56.000
794.000 55.000
764.000 51.000
744.000 51.000
720.000 46.000
690.000 48.000
663.000 44.000
650.000 45.000
617.000 41.000
591.000 40.000
553.000 44.000
467.000 43.000
441.000 46.000
403.000 44.000
395.000 46.000
367.000 46.000
357.000 49.000
332.000 48.000
321.000 52.000
301.000 55.000
274.000 55.000
251.000 59.000
227.000 59.000
214.000 62.000
214.000 65.000
213.000 63.000
203.000 65.000
189.000 65.000
173.000 69.000
157.000 68.000
151.000 70.000
143.000 70.000
116.000 76.000
113.000 78.000
115.000 79.000
115.000 81.000
113.000 82.000
112.000 81.000
115.000 80.000
112.000 78.000
105.000 81.000
105.000 84.000
104.000 82.000
94.000 83.000
85.000 89.000
67.000 95.000
60.000 96.000
51.000 93.000
46.000 94.000
45.000 91.000
35.000 93.000
21.000 91.000
18.000 97.000
21.000 101.000
29.000 102.000
34.000 107.000
40.000 107.000
42.000 105.000
43.000 107.000
52.000 108.000
67.000 117.000
75.000 124.000
80.000 125.000
89.000 130.000
96.000 136.000
103.000 138.000
111.000 143.000
114.000 143.000
114.000 141.000
115.000 144.000
118.000 144.000
128.000 150.000
142.000 152.000
156.000 158.000
170.000 161.000
179.000 166.000
181.000 166.000
182.000 163.000
184.000 163.000
184.000 165.000
183.000 164.000
181.000 166.000
196.000 171.000
201.000 170.000
199.000 171.000
200.000 172.000
206.000 171.000
206.000 174.000
231.000 182.000
246.000 184.000
281.000 196.000
312.000 199.000
321.000 201.000
322.000 199.000
322.000 202.000
341.000 205.000
426.000 205.000
441.000 206.000
455.000 209.000
478.000 209.000
520.000 214.000
541.000 213.000
564.000 216.000
603.000 214.000
617.000 211.000
640.000 210.000
645.000 208.000
693.000 208.000
702.000 205.000
766.000 199.000
779.000 195.000
793.000 195.000
803.000 192.000
840.000 188.000
852.000 184.000
860.000 184.000
866.000 181.000
897.000 174.000
914.000 168.000
925.000 167.000
950.000 158.000
954.000 158.000
954.000 156.000
957.000 157.000
962.000 154.000
975.000 152.000
987.000 146.000
996.000 143.000
993.000 141.000
995.000 139.000
997.000 139.000
994.000 141.000
996.000 143.000
1000.000 143.000
1001.000 142.000
999.000 140.000
1001.000 142.000
1004.000 142.000
1013.000 137.000
1025.000 135.000
1030.000 132.000
1028.000 129.000
1027.000 131.000
1024.000 128.000
1023.000 130.000
1024.000 128.000
1021.000 124.000
1023.000 126.000
1025.000 123.000
1026.000 125.000
1023.000 127.000
1024.000 128.000
1027.000 127.000
1029.000 130.000
1036.000 130.000
1042.000 127.000
1037.000 127.000
1040.000 125.000
1036.000 123.000
1038.000 121.000
1041.000 121.000
1041.000 123.000
1038.000 123.000
1042.000 125.000
1042.000 127.000
1048.000 124.000
1044.000 123.000
1044.000 121.000
1049.000 121.000
1047.000 122.000
1048.000 124.000
1052.000 124.000
1053.000 123.000
1051.000 121.000
1053.000 123.000
1068.000 122.000
1075.000 124.000
