ply
format ascii 1.0
comment Dominant contour extracted from bimodal image.
comment scale factor = 1.000000
comment kernel width = 3
comment decimate eps = 1.000000
comment orig shape   = (365, 1354)
comment threshold    = 243.000000
comment Written with hapPLY (https://github.com/nmwsharp/happly)
element flags 0
property uchar closed
element vertex 377
property double x
property double y
end_header
1308.000 262.000
1306.000 260.000
1305.000 263.000
1305.000 261.000
1302.000 259.000
1305.000 259.000
1301.000 255.000
1300.000 256.000
1299.000 254.000
1298.000 255.000
1292.000 252.000
1287.000 245.000
1273.000 235.000
1266.000 224.000
1265.000 225.000
1258.000 218.000
1246.000 212.000
1242.000 208.000
1241.000 209.000
1229.000 201.000
1223.000 199.000
1223.000 197.000
1221.000 198.000
1220.000 196.000
1215.000 196.000
1209.000 192.000
1203.000 191.000
1202.000 189.000
1201.000 190.000
1200.000 187.000
1198.000 189.000
1190.000 184.000
1189.000 185.000
1188.000 183.000
1186.000 184.000
1184.000 181.000
1183.000 183.000
1177.000 179.000
1176.000 180.000
1168.000 176.000
1166.000 177.000
1164.000 175.000
1152.000 173.000
1151.000 171.000
1149.000 172.000
1142.000 168.000
1141.000 169.000
1136.000 165.000
1124.000 161.000
1119.000 161.000
1104.000 155.000
1100.000 155.000
1095.000 152.000
1092.000 152.000
1091.000 150.000
1089.000 151.000
1082.000 149.000
1080.000 147.000
1079.000 148.000
1071.000 146.000
1069.000 144.000
1068.000 145.000
1066.000 143.000
1062.000 143.000
1060.000 141.000
1055.000 141.000
1047.000 137.000
1044.000 137.000
1043.000 135.000
1041.000 136.000
1036.000 133.000
1031.000 133.000
1028.000 130.000
1027.000 131.000
1017.000 126.000
1011.000 126.000
1011.000 124.000
1007.000 125.000
1005.000 123.000
1001.000 123.000
990.000 119.000
965.000 115.000
959.000 112.000
957.000 113.000
955.000 111.000
944.000 109.000
942.000 107.000
941.000 108.000
922.000 105.000
918.000 103.000
917.000 104.000
916.000 102.000
903.000 102.000
902.000 99.000
901.000 101.000
894.000 101.000
890.000 98.000
888.000 99.000
875.000 97.000
874.000 95.000
870.000 96.000
868.000 94.000
860.000 95.000
856.000 92.000
855.000 94.000
848.000 93.000
842.000 90.000
840.000 91.000
824.000 87.000
816.000 87.000
811.000 85.000
809.000 86.000
808.000 84.000
806.000 86.000
792.000 83.000
789.000 84.000
777.000 82.000
756.000 82.000
754.000 80.000
750.000 82.000
744.000 82.000
740.000 80.000
740.000 78.000
738.000 78.000
737.000 80.000
730.000 80.000
729.000 78.000
627.000 79.000
626.000 77.000
625.000 79.000
615.000 79.000
614.000 77.000
613.000 79.000
600.000 77.000
589.000 79.000
537.000 79.000
536.000 77.000
535.000 79.000
513.000 78.000
512.000 80.000
511.000 79.000
506.000 81.000
489.000 82.000
482.000 84.000
478.000 83.000
475.000 85.000
446.000 86.000
444.000 88.000
431.000 88.000
429.000 90.000
417.000 92.000
406.000 91.000
404.000 93.000
389.000 93.000
387.000 95.000
365.000 95.000
361.000 97.000
356.000 96.000
354.000 98.000
337.000 100.000
335.000 99.000
320.000 100.000
313.000 102.000
312.000 101.000
309.000 103.000
289.000 103.000
286.000 105.000
271.000 104.000
265.000 107.000
263.000 106.000
255.000 109.000
236.000 109.000
235.000 111.000
231.000 110.000
226.000 112.000
219.000 111.000
218.000 113.000
208.000 115.000
205.000 114.000
203.000 116.000
201.000 115.000
194.000 118.000
192.000 117.000
188.000 119.000
175.000 119.000
172.000 121.000
170.000 119.000
165.000 123.000
151.000 123.000
149.000 125.000
135.000 127.000
123.000 133.000
119.000 133.000
109.000 137.000
102.000 137.000
96.000 140.000
95.000 139.000
88.000 143.000
80.000 143.000
79.000 145.000
74.000 144.000
69.000 146.000
31.000 147.000
29.000 145.000
23.000 147.000
21.000 145.000
18.000 149.000
19.000 155.000
23.000 158.000
24.000 163.000
32.000 162.000
32.000 164.000
35.000 164.000
37.000 162.000
43.000 162.000
45.000 160.000
46.000 162.000
47.000 159.000
49.000 160.000
50.000 158.000
64.000 157.000
72.000 159.000
74.000 158.000
84.000 162.000
90.000 166.000
90.000 168.000
93.000 168.000
100.000 174.000
101.000 173.000
116.000 182.000
117.000 181.000
125.000 188.000
142.000 195.000
149.000 196.000
162.000 203.000
163.000 202.000
175.000 208.000
188.000 212.000
189.000 214.000
190.000 213.000
195.000 215.000
200.000 219.000
202.000 218.000
212.000 224.000
213.000 223.000
218.000 225.000
224.000 225.000
225.000 227.000
233.000 227.000
238.000 230.000
245.000 231.000
247.000 234.000
249.000 232.000
260.000 237.000
263.000 240.000
264.000 239.000
289.000 249.000
291.000 248.000
317.000 256.000
319.000 255.000
329.000 257.000
332.000 260.000
333.000 258.000
340.000 260.000
346.000 259.000
377.000 267.000
380.000 266.000
386.000 268.000
402.000 269.000
404.000 271.000
408.000 270.000
428.000 276.000
437.000 276.000
450.000 279.000
451.000 281.000
454.000 280.000
455.000 282.000
464.000 282.000
465.000 284.000
468.000 283.000
471.000 285.000
477.000 284.000
484.000 286.000
489.000 285.000
497.000 286.000
499.000 288.000
507.000 287.000
515.000 290.000
524.000 289.000
524.000 291.000
539.000 290.000
554.000 293.000
569.000 292.000
578.000 294.000
601.000 294.000
609.000 296.000
632.000 297.000
672.000 296.000
675.000 298.000
684.000 297.000
685.000 299.000
710.000 298.000
711.000 300.000
718.000 299.000
737.000 301.000
772.000 302.000
776.000 304.000
794.000 303.000
797.000 305.000
825.000 305.000
848.000 310.000
865.000 311.000
873.000 313.000
937.000 313.000
945.000 315.000
963.000 314.000
968.000 316.000
972.000 314.000
990.000 315.000
1008.000 312.000
1015.000 313.000
1016.000 311.000
1021.000 311.000
1022.000 313.000
1023.000 311.000
1033.000 312.000
1042.000 309.000
1073.000 306.000
1076.000 307.000
1078.000 305.000
1088.000 304.000
1114.000 304.000
1114.000 302.000
1118.000 303.000
1120.000 301.000
1130.000 299.000
1132.000 300.000
1136.000 298.000
1138.000 299.000
1141.000 297.000
1148.000 298.000
1152.000 296.000
1154.000 298.000
1155.000 296.000
1162.000 295.000
1163.000 297.000
1165.000 294.000
1179.000 293.000
1186.000 291.000
1190.000 292.000
1192.000 290.000
1200.000 291.000
1202.000 289.000
1206.000 290.000
1221.000 286.000
1224.000 287.000
1236.000 283.000
1242.000 283.000
1247.000 280.000
1250.000 280.000
1250.000 282.000
1252.000 283.000
1252.000 279.000
1258.000 277.000
1261.000 278.000
1273.000 272.000
1277.000 268.000
1284.000 266.000
1282.000 264.000
1281.000 265.000
1288.000 259.000
1297.000 259.000
1301.000 263.000
1301.000 267.000
1298.000 271.000
1300.000 273.000
1305.000 268.000
