ply
format ascii 1.0
comment Dominant contour extracted from bimodal image.
comment scale factor = 1.000000
comment kernel width = 3
comment decimate eps = 1.000000
comment orig shape   = (203, 911)
comment threshold    = 232.000000
comment Written with hapPLY (https://github.com/nmwsharp/happly)
element flags 0
property uchar closed
element vertex 102
property double x
property double y
end_header
900.000 172.000
887.000 171.000
875.000 159.000
873.000 159.000
853.000 142.000
833.000 131.000
812.000 123.000
808.000 123.000
777.000 107.000
755.000 102.000
753.000 100.000
734.000 94.000
696.000 72.000
676.000 66.000
658.000 55.000
645.000 50.000
624.000 46.000
611.000 40.000
598.000 39.000
583.000 35.000
570.000 35.000
553.000 30.000
501.000 31.000
478.000 28.000
470.000 25.000
435.000 27.000
430.000 26.000
409.000 29.000
376.000 28.000
369.000 30.000
351.000 30.000
327.000 33.000
303.000 33.000
289.000 30.000
278.000 30.000
272.000 32.000
258.000 33.000
240.000 31.000
223.000 36.000
205.000 37.000
183.000 46.000
164.000 47.000
153.000 51.000
127.000 56.000
119.000 59.000
109.000 59.000
100.000 61.000
88.000 66.000
73.000 69.000
65.000 75.000
58.000 75.000
53.000 72.000
43.000 73.000
36.000 69.000
32.000 72.000
35.000 76.000
46.000 83.000
52.000 85.000
51.000 86.000
53.000 88.000
61.000 88.000
68.000 95.000
77.000 101.000
126.000 119.000
145.000 131.000
162.000 135.000
171.000 140.000
197.000 146.000
210.000 151.000
231.000 151.000
252.000 158.000
268.000 160.000
270.000 159.000
280.000 164.000
305.000 167.000
309.000 169.000
322.000 168.000
324.000 170.000
331.000 169.000
348.000 173.000
378.000 173.000
402.000 177.000
416.000 181.000
432.000 181.000
456.000 184.000
486.000 181.000
509.000 182.000
528.000 180.000
585.000 181.000
648.000 176.000
658.000 177.000
659.000 179.000
664.000 177.000
713.000 177.000
719.000 180.000
752.000 183.000
762.000 186.000
796.000 186.000
818.000 189.000
844.000 189.000
862.000 184.000
880.000 182.000
