ply
format ascii 1.0
comment Dominant contour extracted from bimodal image.
comment scale factor = 0.925926
comment kernel width = 3
comment decimate eps = 1.000000
comment orig shape   = (432, 1947)
comment threshold    = 213.500000
comment Written with hapPLY (https://github.com/nmwsharp/happly)
element flags 0
property uchar closed
element vertex 197
property double x
property double y
end_header
1770.000 188.000
1759.000 181.000
1752.000 180.000
1739.000 175.000
1724.000 166.000
1695.000 153.000
1684.000 151.000
1674.000 147.000
1664.000 147.000
1657.000 142.000
1649.000 140.000
1640.000 140.000
1633.000 136.000
1625.000 134.000
1612.000 133.000
1602.000 130.000
1594.000 130.000
1586.000 127.000
1578.000 127.000
1571.000 125.000
1557.000 125.000
1550.000 122.000
1539.000 122.000
1528.000 118.000
1487.000 113.000
1477.000 110.000
1469.000 110.000
1451.000 106.000
1448.000 107.000
1444.000 105.000
1402.000 103.000
1399.000 101.000
1382.000 97.000
1353.000 93.000
1343.000 93.000
1323.000 86.000
1314.000 85.000
1300.000 80.000
1285.000 77.000
1265.000 77.000
1247.000 73.000
1236.000 73.000
1208.000 68.000
1178.000 68.000
1153.000 65.000
1135.000 65.000
1115.000 61.000
1084.000 58.000
1024.000 63.000
989.000 58.000
978.000 59.000
960.000 57.000
928.000 57.000
909.000 52.000
864.000 49.000
791.000 50.000
758.000 46.000
723.000 45.000
695.000 47.000
649.000 44.000
627.000 47.000
572.000 47.000
490.000 65.000
485.000 65.000
481.000 63.000
470.000 63.000
443.000 66.000
418.000 72.000
410.000 72.000
399.000 77.000
389.000 78.000
380.000 81.000
372.000 81.000
345.000 87.000
326.000 88.000
323.000 90.000
317.000 90.000
301.000 95.000
283.000 97.000
270.000 101.000
248.000 104.000
236.000 110.000
212.000 115.000
189.000 123.000
182.000 127.000
172.000 129.000
134.000 148.000
103.000 149.000
95.000 148.000
92.000 146.000
81.000 146.000
60.000 143.000
34.000 144.000
34.000 148.000
23.000 154.000
23.000 159.000
25.000 162.000
42.000 162.000
42.000 164.000
48.000 164.000
52.000 169.000
57.000 171.000
69.000 172.000
70.000 175.000
74.000 172.000
85.000 173.000
106.000 184.000
118.000 188.000
155.000 207.000
181.000 226.000
197.000 234.000
209.000 238.000
230.000 249.000
283.000 269.000
292.000 270.000
303.000 275.000
348.000 288.000
357.000 293.000
369.000 297.000
381.000 299.000
395.000 305.000
424.000 311.000
461.000 323.000
475.000 324.000
518.000 333.000
535.000 334.000
575.000 344.000
585.000 348.000
593.000 348.000
604.000 352.000
624.000 355.000
635.000 355.000
642.000 357.000
662.000 357.000
701.000 363.000
725.000 365.000
799.000 365.000
812.000 367.000
885.000 370.000
895.000 373.000
916.000 373.000
928.000 375.000
933.000 374.000
941.000 376.000
955.000 376.000
974.000 380.000
1027.000 379.000
1031.000 377.000
1047.000 376.000
1071.000 369.000
1094.000 366.000
1115.000 361.000
1116.000 362.000
1153.000 357.000
1162.000 354.000
1170.000 354.000
1178.000 351.000
1212.000 348.000
1232.000 343.000
1240.000 343.000
1244.000 341.000
1277.000 336.000
1287.000 332.000
1293.000 332.000
1310.000 327.000
1316.000 327.000
1318.000 325.000
1342.000 320.000
1350.000 316.000
1361.000 316.000
1379.000 309.000
1395.000 307.000
1413.000 302.000
1425.000 301.000
1464.000 288.000
1474.000 287.000
1479.000 284.000
1496.000 279.000
1501.000 274.000
1509.000 275.000
1534.000 270.000
1559.000 261.000
1575.000 258.000
1587.000 252.000
1608.000 249.000
1613.000 246.000
1619.000 246.000
1640.000 239.000
1660.000 235.000
1672.000 230.000
1676.000 226.000
1687.000 223.000
1696.000 216.000
1713.000 209.000
1730.000 198.000
1758.000 190.000
1767.000 190.000
