ply
format ascii 1.0
comment Dominant contour extracted from bimodal image.
comment scale factor = 1.000000
comment kernel width = 3
comment decimate eps = 1.000000
comment orig shape   = (274, 1493)
comment threshold    = 229.000000
comment Written with hapPLY (https://github.com/nmwsharp/happly)
element flags 0
property uchar closed
element vertex 208
property double x
property double y
end_header
1452.000 149.000
1450.000 147.000
1434.000 146.000
1414.000 136.000
1407.000 134.000
1399.000 134.000
1395.000 136.000
1390.000 131.000
1383.000 128.000
1373.000 129.000
1366.000 126.000
1351.000 124.000
1338.000 119.000
1323.000 122.000
1301.000 111.000
1287.000 109.000
1281.000 105.000
1257.000 99.000
1232.000 97.000
1200.000 85.000
1186.000 84.000
1181.000 86.000
1175.000 86.000
1170.000 83.000
1147.000 78.000
1139.000 78.000
1133.000 75.000
1109.000 75.000
1104.000 72.000
1093.000 69.000
1079.000 68.000
1075.000 66.000
1059.000 66.000
1053.000 63.000
1037.000 59.000
1011.000 59.000
1007.000 57.000
992.000 58.000
969.000 56.000
962.000 53.000
946.000 52.000
936.000 48.000
932.000 49.000
921.000 47.000
899.000 47.000
891.000 45.000
881.000 46.000
872.000 42.000
859.000 39.000
847.000 39.000
828.000 35.000
811.000 36.000
806.000 34.000
781.000 34.000
770.000 31.000
755.000 31.000
751.000 29.000
744.000 29.000
731.000 26.000
712.000 26.000
705.000 24.000
670.000 24.000
639.000 26.000
614.000 25.000
598.000 28.000
578.000 28.000
559.000 32.000
524.000 31.000
505.000 33.000
484.000 33.000
474.000 36.000
464.000 36.000
455.000 39.000
445.000 39.000
421.000 45.000
409.000 45.000
397.000 49.000
394.000 48.000
393.000 50.000
384.000 50.000
372.000 54.000
355.000 56.000
347.000 60.000
342.000 59.000
327.000 62.000
303.000 72.000
289.000 73.000
274.000 79.000
269.000 79.000
258.000 83.000
250.000 84.000
244.000 87.000
218.000 93.000
200.000 102.000
184.000 105.000
181.000 107.000
155.000 114.000
145.000 115.000
138.000 118.000
132.000 118.000
122.000 123.000
112.000 124.000
109.000 126.000
108.000 129.000
101.000 126.000
94.000 128.000
92.000 121.000
86.000 123.000
85.000 125.000
83.000 122.000
81.000 123.000
81.000 125.000
62.000 123.000
58.000 128.000
55.000 129.000
55.000 135.000
57.000 137.000
69.000 138.000
70.000 139.000
68.000 141.000
73.000 147.000
112.000 148.000
121.000 151.000
122.000 148.000
125.000 146.000
129.000 147.000
129.000 149.000
125.000 151.000
126.000 153.000
135.000 153.000
149.000 158.000
157.000 158.000
170.000 161.000
207.000 163.000
216.000 165.000
217.000 168.000
219.000 165.000
229.000 166.000
239.000 169.000
275.000 175.000
279.000 177.000
304.000 179.000
313.000 183.000
344.000 188.000
383.000 198.000
443.000 208.000
468.000 215.000
505.000 222.000
525.000 222.000
539.000 225.000
552.000 224.000
586.000 229.000
607.000 229.000
644.000 236.000
693.000 238.000
705.000 240.000
709.000 239.000
722.000 241.000
750.000 239.000
763.000 241.000
800.000 242.000
831.000 238.000
896.000 238.000
905.000 236.000
907.000 238.000
919.000 240.000
929.000 239.000
931.000 241.000
933.000 239.000
952.000 238.000
955.000 240.000
971.000 242.000
987.000 236.000
1035.000 237.000
1056.000 233.000
1075.000 233.000
1087.000 230.000
1092.000 227.000
1125.000 228.000
1143.000 222.000
1149.000 222.000
1154.000 224.000
1172.000 222.000
1174.000 223.000
1175.000 221.000
1183.000 219.000
1192.000 214.000
1198.000 216.000
1208.000 212.000
1222.000 210.000
1230.000 206.000
1249.000 203.000
1272.000 202.000
1283.000 198.000
1293.000 198.000
1306.000 191.000
1341.000 185.000
1347.000 181.000
1369.000 181.000
1381.000 175.000
1387.000 176.000
1398.000 171.000
1402.000 171.000
1418.000 159.000
1428.000 158.000
1437.000 153.000
1441.000 153.000
1446.000 150.000
