ply
format ascii 1.0
comment Dominant contour extracted from bimodal image.
comment scale factor = 0.743494
comment kernel width = 3
comment decimate eps = 1.000000
comment orig shape   = (538, 2224)
comment threshold    = 234.000000
comment Written with hapPLY (https://github.com/nmwsharp/happly)
element flags 0
property uchar closed
element vertex 174
property double x
property double y
end_header
1615.000 243.000
1607.000 240.000
1598.000 239.000
1595.000 236.000
1593.000 237.000
1588.000 234.000
1567.000 212.000
1543.000 200.000
1536.000 194.000
1521.000 187.000
1517.000 187.000
1512.000 184.000
1504.000 182.000
1490.000 175.000
1472.000 171.000
1469.000 168.000
1462.000 166.000
1456.000 162.000
1450.000 162.000
1442.000 157.000
1435.000 156.000
1429.000 153.000
1421.000 154.000
1415.000 151.000
1408.000 151.000
1402.000 148.000
1398.000 148.000
1389.000 143.000
1384.000 144.000
1371.000 139.000
1364.000 139.000
1344.000 130.000
1337.000 130.000
1319.000 124.000
1300.000 121.000
1289.000 116.000
1285.000 116.000
1281.000 113.000
1272.000 111.000
1240.000 110.000
1204.000 101.000
1192.000 101.000
1189.000 99.000
1174.000 97.000
1141.000 95.000
1136.000 93.000
1124.000 92.000
1120.000 90.000
1080.000 87.000
1075.000 85.000
1032.000 84.000
1013.000 81.000
989.000 81.000
939.000 75.000
900.000 75.000
890.000 72.000
822.000 67.000
811.000 70.000
778.000 71.000
753.000 75.000
673.000 73.000
667.000 75.000
655.000 75.000
638.000 78.000
620.000 78.000
586.000 84.000
545.000 87.000
507.000 95.000
487.000 95.000
477.000 98.000
421.000 104.000
386.000 116.000
366.000 119.000
359.000 122.000
335.000 125.000
289.000 148.000
264.000 154.000
252.000 159.000
242.000 168.000
221.000 177.000
204.000 188.000
188.000 195.000
178.000 202.000
167.000 206.000
129.000 226.000
87.000 258.000
56.000 270.000
42.000 270.000
34.000 274.000
27.000 275.000
25.000 279.000
16.000 283.000
14.000 287.000
20.000 295.000
29.000 294.000
32.000 291.000
39.000 288.000
43.000 289.000
44.000 292.000
47.000 292.000
56.000 285.000
66.000 280.000
85.000 274.000
110.000 273.000
129.000 274.000
133.000 276.000
142.000 276.000
167.000 280.000
196.000 287.000
207.000 287.000
218.000 291.000
222.000 291.000
227.000 294.000
243.000 294.000
255.000 297.000
264.000 297.000
284.000 302.000
303.000 303.000
318.000 306.000
352.000 306.000
372.000 309.000
431.000 308.000
452.000 314.000
496.000 314.000
508.000 317.000
549.000 317.000
556.000 315.000
565.000 315.000
593.000 319.000
647.000 321.000
676.000 325.000
703.000 325.000
709.000 323.000
744.000 323.000
768.000 325.000
787.000 323.000
816.000 323.000
835.000 326.000
850.000 326.000
857.000 324.000
875.000 324.000
892.000 329.000
913.000 331.000
986.000 323.000
994.000 320.000
1011.000 320.000
1021.000 318.000
1047.000 319.000
1073.000 314.000
1076.000 312.000
1123.000 309.000
1135.000 305.000
1190.000 305.000
1224.000 300.000
1244.000 294.000
1277.000 294.000
1312.000 285.000
1330.000 286.000
1346.000 284.000
1350.000 282.000
1384.000 279.000
1388.000 277.000
1415.000 277.000
1427.000 274.000
1441.000 274.000
1456.000 271.000
1527.000 270.000
1557.000 265.000
1566.000 262.000
1570.000 259.000
1582.000 256.000
1592.000 248.000
1599.000 245.000
1613.000 245.000
