ply
format ascii 1.0
comment Dominant contour extracted from bimodal image.
comment scale factor = 1.000000
comment kernel width = 3
comment decimate eps = 1.000000
comment orig shape   = (248, 895)
comment threshold    = 191.000000
comment Written with hapPLY (https://github.com/nmwsharp/happly)
element flags 0
property uchar closed
element vertex 423
property double x
property double y
end_header
870.000 118.000
867.000 116.000
853.000 116.000
847.000 118.000
852.000 117.000
852.000 115.000
837.000 111.000
832.000 112.000
831.000 110.000
818.000 107.000
805.000 101.000
802.000 102.000
806.000 104.000
805.000 105.000
800.000 102.000
802.000 102.000
802.000 100.000
779.000 98.000
778.000 100.000
772.000 100.000
776.000 100.000
779.000 98.000
773.000 97.000
761.000 101.000
751.000 95.000
749.000 95.000
746.000 99.000
744.000 98.000
744.000 96.000
748.000 96.000
748.000 94.000
728.000 88.000
722.000 88.000
710.000 83.000
686.000 80.000
671.000 81.000
633.000 73.000
593.000 73.000
586.000 71.000
584.000 72.000
566.000 71.000
560.000 69.000
547.000 69.000
515.000 73.000
477.000 75.000
470.000 79.000
467.000 77.000
457.000 77.000
451.000 79.000
425.000 79.000
421.000 81.000
415.000 79.000
394.000 79.000
385.000 82.000
372.000 82.000
371.000 83.000
373.000 85.000
371.000 83.000
367.000 83.000
358.000 88.000
350.000 85.000
341.000 85.000
320.000 88.000
306.000 88.000
303.000 90.000
276.000 90.000
266.000 93.000
268.000 94.000
268.000 96.000
262.000 97.000
267.000 94.000
264.000 93.000
248.000 98.000
225.000 99.000
215.000 103.000
203.000 104.000
188.000 109.000
164.000 110.000
154.000 114.000
140.000 117.000
90.000 118.000
66.000 122.000
56.000 120.000
52.000 123.000
47.000 122.000
46.000 123.000
49.000 124.000
36.000 124.000
19.000 120.000
17.000 122.000
17.000 128.000
19.000 131.000
25.000 132.000
32.000 130.000
40.000 130.000
43.000 132.000
61.000 134.000
77.000 139.000
80.000 138.000
80.000 140.000
88.000 144.000
94.000 144.000
92.000 145.000
93.000 146.000
102.000 147.000
106.000 151.000
128.000 159.000
131.000 158.000
132.000 159.000
129.000 159.000
131.000 161.000
141.000 165.000
166.000 170.000
178.000 174.000
184.000 174.000
188.000 176.000
190.000 175.000
188.000 173.000
191.000 174.000
189.000 176.000
193.000 178.000
210.000 182.000
216.000 182.000
232.000 187.000
244.000 189.000
264.000 188.000
272.000 190.000
274.000 192.000
276.000 191.000
275.000 189.000
275.000 192.000
278.000 195.000
281.000 194.000
279.000 192.000
280.000 190.000
281.000 193.000
283.000 191.000
286.000 194.000
289.000 193.000
287.000 195.000
281.000 194.000
281.000 196.000
299.000 201.000
308.000 201.000
317.000 204.000
341.000 206.000
345.000 208.000
346.000 204.000
343.000 203.000
345.000 202.000
348.000 205.000
350.000 203.000
345.000 199.000
352.000 202.000
353.000 200.000
356.000 201.000
358.000 196.000
367.000 196.000
367.000 198.000
361.000 201.000
356.000 201.000
357.000 204.000
359.000 203.000
359.000 207.000
353.000 205.000
353.000 207.000
351.000 208.000
348.000 205.000
345.000 208.000
358.000 212.000
373.000 212.000
378.000 209.000
388.000 209.000
394.000 212.000
419.000 215.000
449.000 215.000
453.000 213.000
461.000 213.000
471.000 218.000
490.000 219.000
503.000 218.000
506.000 216.000
520.000 217.000
537.000 211.000
546.000 214.000
580.000 213.000
602.000 206.000
634.000 206.000
636.000 204.000
635.000 203.000
630.000 203.000
636.000 203.000
637.000 202.000
635.000 201.000
635.000 196.000
640.000 194.000
644.000 198.000
649.000 197.000
651.000 199.000
648.000 199.000
643.000 202.000
643.000 200.000
648.000 199.000
643.000 197.000
640.000 200.000
640.000 202.000
638.000 201.000
636.000 203.000
637.000 205.000
642.000 205.000
650.000 201.000
658.000 203.000
666.000 202.000
667.000 201.000
664.000 200.000
664.000 197.000
661.000 200.000
659.000 196.000
665.000 196.000
666.000 195.000
663.000 192.000
667.000 188.000
678.000 190.000
678.000 195.000
672.000 191.000
671.000 192.000
669.000 189.000
665.000 191.000
668.000 192.000
665.000 196.000
667.000 197.000
666.000 200.000
669.000 201.000
672.000 200.000
672.000 198.000
676.000 198.000
673.000 196.000
669.000 197.000
670.000 194.000
677.000 198.000
685.000 194.000
681.000 193.000
680.000 191.000
682.000 189.000
691.000 189.000
689.000 189.000
688.000 191.000
686.000 191.000
686.000 189.000
682.000 191.000
685.000 194.000
694.000 190.000
695.000 188.000
691.000 186.000
694.000 182.000
698.000 183.000
695.000 183.000
693.000 185.000
696.000 187.000
702.000 184.000
716.000 184.000
716.000 182.000
721.000 183.000
728.000 180.000
728.000 178.000
731.000 179.000
747.000 172.000
747.000 170.000
742.000 172.000
741.000 171.000
750.000 171.000
765.000 161.000
778.000 161.000
786.000 158.000
783.000 154.000
782.000 157.000
780.000 156.000
779.000 158.000
772.000 158.000
775.000 156.000
772.000 152.000
771.000 155.000
769.000 154.000
772.000 151.000
777.000 153.000
774.000 155.000
779.000 157.000
779.000 154.000
782.000 150.000
781.000 149.000
778.000 151.000
778.000 148.000
776.000 148.000
775.000 150.000
773.000 149.000
773.000 147.000
770.000 145.000
771.000 140.000
766.000 134.000
766.000 131.000
769.000 130.000
765.000 129.000
771.000 129.000
767.000 132.000
769.000 135.000
773.000 132.000
773.000 130.000
778.000 130.000
778.000 133.000
775.000 135.000
779.000 135.000
779.000 138.000
781.000 140.000
772.000 140.000
771.000 142.000
774.000 143.000
772.000 145.000
773.000 147.000
780.000 147.000
782.000 145.000
781.000 142.000
783.000 142.000
784.000 146.000
780.000 147.000
782.000 150.000
788.000 146.000
793.000 146.000
794.000 148.000
798.000 147.000
797.000 151.000
796.000 150.000
793.000 153.000
788.000 153.000
788.000 155.000
785.000 157.000
787.000 158.000
801.000 152.000
803.000 150.000
800.000 149.000
802.000 148.000
800.000 147.000
801.000 145.000
804.000 146.000
802.000 149.000
803.000 150.000
808.000 147.000
806.000 146.000
806.000 144.000
808.000 143.000
804.000 142.000
799.000 143.000
797.000 145.000
796.000 142.000
800.000 140.000
800.000 138.000
797.000 138.000
793.000 142.000
794.000 144.000
786.000 143.000
780.000 130.000
787.000 128.000
789.000 130.000
789.000 132.000
786.000 133.000
788.000 135.000
790.000 134.000
792.000 136.000
798.000 134.000
801.000 137.000
801.000 140.000
799.000 141.000
806.000 142.000
807.000 141.000
803.000 139.000
808.000 135.000
805.000 133.000
803.000 136.000
801.000 134.000
804.000 132.000
802.000 130.000
799.000 132.000
799.000 127.000
804.000 127.000
802.000 129.000
805.000 131.000
807.000 130.000
807.000 127.000
809.000 129.000
811.000 127.000
813.000 131.000
816.000 132.000
818.000 135.000
812.000 141.000
809.000 140.000
807.000 142.000
811.000 146.000
813.000 144.000
811.000 143.000
813.000 144.000
832.000 135.000
832.000 133.000
828.000 133.000
830.000 130.000
832.000 130.000
832.000 133.000
834.000 134.000
839.000 132.000
841.000 130.000
840.000 129.000
841.000 130.000
846.000 127.000
843.000 124.000
841.000 125.000
841.000 127.000
841.000 123.000
834.000 125.000
834.000 123.000
844.000 123.000
845.000 121.000
851.000 120.000
853.000 123.000
859.000 120.000
866.000 120.000
