ply
format ascii 1.0
comment Dominant contour extracted from bimodal image.
comment scale factor = 1.000000
comment kernel width = 3
comment decimate eps = 1.000000
comment orig shape   = (320, 1398)
comment threshold    = 242.000000
comment Written with hapPLY (https://github.com/nmwsharp/happly)
element flags 0
property uchar closed
element vertex 343
property double x
property double y
end_header
1352.000 216.000
1350.000 214.000
1343.000 214.000
1332.000 217.000
1324.000 217.000
1321.000 215.000
1313.000 213.000
1312.000 214.000
1308.000 211.000
1306.000 212.000
1297.000 203.000
1283.000 193.000
1282.000 194.000
1269.000 187.000
1267.000 188.000
1265.000 186.000
1263.000 187.000
1260.000 185.000
1256.000 185.000
1243.000 177.000
1242.000 178.000
1240.000 176.000
1236.000 176.000
1235.000 174.000
1233.000 175.000
1221.000 169.000
1206.000 158.000
1200.000 158.000
1189.000 155.000
1187.000 156.000
1185.000 154.000
1179.000 155.000
1168.000 151.000
1149.000 148.000
1140.000 142.000
1136.000 141.000
1128.000 134.000
1127.000 135.000
1120.000 131.000
1112.000 131.000
1110.000 129.000
1109.000 130.000
1102.000 127.000
1092.000 127.000
1080.000 124.000
1077.000 125.000
1072.000 123.000
1069.000 124.000
1052.000 120.000
1050.000 118.000
1047.000 119.000
1041.000 116.000
1031.000 115.000
1026.000 113.000
1025.000 111.000
1023.000 112.000
1013.000 107.000
1007.000 109.000
999.000 103.000
998.000 100.000
996.000 102.000
990.000 100.000
987.000 97.000
983.000 97.000
982.000 95.000
974.000 95.000
972.000 93.000
970.000 94.000
969.000 92.000
951.000 92.000
943.000 90.000
936.000 86.000
935.000 87.000
931.000 84.000
929.000 85.000
924.000 83.000
912.000 83.000
906.000 85.000
898.000 78.000
896.000 79.000
889.000 75.000
885.000 76.000
874.000 71.000
869.000 70.000
861.000 72.000
858.000 69.000
841.000 65.000
807.000 64.000
797.000 60.000
795.000 61.000
790.000 59.000
770.000 61.000
754.000 54.000
750.000 55.000
748.000 53.000
738.000 53.000
733.000 51.000
729.000 53.000
698.000 51.000
696.000 53.000
685.000 53.000
679.000 55.000
646.000 51.000
629.000 52.000
601.000 48.000
588.000 48.000
574.000 52.000
566.000 56.000
558.000 56.000
552.000 59.000
550.000 58.000
541.000 61.000
539.000 60.000
532.000 62.000
502.000 62.000
501.000 60.000
498.000 63.000
482.000 65.000
435.000 65.000
415.000 70.000
406.000 70.000
392.000 73.000
389.000 72.000
387.000 74.000
379.000 76.000
377.000 75.000
374.000 78.000
367.000 78.000
365.000 80.000
358.000 80.000
356.000 82.000
348.000 81.000
338.000 84.000
336.000 83.000
334.000 85.000
326.000 85.000
320.000 88.000
314.000 88.000
309.000 90.000
298.000 89.000
297.000 91.000
292.000 91.000
285.000 94.000
268.000 94.000
266.000 92.000
254.000 94.000
237.000 93.000
234.000 95.000
231.000 94.000
209.000 97.000
206.000 96.000
196.000 99.000
179.000 99.000
177.000 101.000
171.000 102.000
150.000 102.000
142.000 105.000
132.000 105.000
128.000 107.000
112.000 107.000
108.000 109.000
95.000 109.000
90.000 107.000
74.000 105.000
61.000 105.000
54.000 107.000
46.000 99.000
42.000 99.000
40.000 97.000
34.000 102.000
30.000 100.000
20.000 108.000
22.000 113.000
24.000 114.000
24.000 117.000
32.000 122.000
36.000 122.000
40.000 125.000
43.000 125.000
46.000 128.000
52.000 128.000
52.000 132.000
55.000 135.000
62.000 130.000
63.000 127.000
66.000 126.000
74.000 126.000
82.000 130.000
85.000 129.000
87.000 131.000
89.000 130.000
91.000 132.000
92.000 131.000
96.000 133.000
101.000 133.000
102.000 135.000
103.000 134.000
109.000 138.000
114.000 139.000
115.000 141.000
116.000 140.000
118.000 142.000
128.000 144.000
128.000 146.000
133.000 145.000
140.000 149.000
148.000 150.000
151.000 153.000
153.000 152.000
162.000 156.000
194.000 175.000
202.000 182.000
203.000 181.000
207.000 183.000
214.000 189.000
229.000 195.000
234.000 199.000
237.000 198.000
251.000 202.000
252.000 204.000
254.000 203.000
283.000 212.000
284.000 214.000
286.000 213.000
292.000 216.000
293.000 218.000
294.000 217.000
295.000 219.000
297.000 218.000
309.000 224.000
313.000 224.000
322.000 230.000
329.000 231.000
330.000 233.000
338.000 233.000
347.000 236.000
348.000 235.000
372.000 237.000
373.000 239.000
387.000 241.000
402.000 248.000
404.000 247.000
420.000 249.000
433.000 255.000
445.000 266.000
452.000 269.000
489.000 270.000
491.000 268.000
498.000 267.000
501.000 268.000
503.000 271.000
504.000 269.000
510.000 272.000
512.000 271.000
521.000 273.000
526.000 271.000
538.000 272.000
541.000 270.000
547.000 271.000
549.000 269.000
565.000 268.000
570.000 270.000
586.000 272.000
605.000 280.000
607.000 279.000
627.000 284.000
632.000 283.000
644.000 285.000
683.000 285.000
685.000 287.000
691.000 285.000
714.000 284.000
737.000 288.000
741.000 287.000
742.000 289.000
744.000 287.000
746.000 289.000
752.000 288.000
765.000 290.000
775.000 287.000
777.000 288.000
781.000 285.000
792.000 286.000
798.000 283.000
864.000 284.000
873.000 280.000
888.000 279.000
893.000 281.000
924.000 281.000
946.000 275.000
952.000 275.000
954.000 273.000
974.000 275.000
975.000 273.000
996.000 270.000
1006.000 265.000
1009.000 266.000
1012.000 264.000
1016.000 266.000
1025.000 266.000
1030.000 264.000
1038.000 265.000
1041.000 263.000
1063.000 263.000
1071.000 261.000
1073.000 262.000
1075.000 260.000
1080.000 261.000
1082.000 259.000
1094.000 255.000
1096.000 257.000
1099.000 256.000
1104.000 258.000
1116.000 259.000
1124.000 256.000
1137.000 256.000
1149.000 252.000
1157.000 255.000
1181.000 252.000
1190.000 254.000
1197.000 250.000
1206.000 250.000
1209.000 252.000
1242.000 252.000
1249.000 248.000
1258.000 248.000
1276.000 242.000
1285.000 242.000
1304.000 232.000
1305.000 233.000
1309.000 230.000
1307.000 229.000
1310.000 226.000
1311.000 227.000
1308.000 229.000
1311.000 231.000
1312.000 229.000
1313.000 231.000
1315.000 228.000
1325.000 223.000
1329.000 223.000
1331.000 221.000
1340.000 220.000
