ply
format ascii 1.0
comment Dominant contour extracted from bimodal image.
comment scale factor = 1.000000
comment kernel width = 3
comment decimate eps = 1.000000
comment orig shape   = (385, 2024)
comment threshold    = 207.000000
comment Written with hapPLY (https://github.com/nmwsharp/happly)
element flags 0
property uchar closed
element vertex 177
property double x
property double y
end_header
50.000 323.000
55.000 326.000
55.000 329.000
60.000 327.000
81.000 326.000
105.000 330.000
114.000 333.000
127.000 334.000
137.000 337.000
157.000 338.000
172.000 341.000
217.000 343.000
261.000 349.000
303.000 349.000
311.000 351.000
355.000 354.000
386.000 360.000
453.000 360.000
461.000 362.000
487.000 364.000
531.000 365.000
572.000 368.000
626.000 368.000
657.000 364.000
685.000 363.000
736.000 364.000
765.000 361.000
799.000 353.000
811.000 353.000
834.000 350.000
850.000 350.000
865.000 353.000
885.000 354.000
933.000 350.000
958.000 350.000
1004.000 345.000
1013.000 342.000
1024.000 341.000
1045.000 336.000
1075.000 333.000
1134.000 334.000
1165.000 331.000
1196.000 332.000
1226.000 328.000
1240.000 324.000
1246.000 324.000
1255.000 321.000
1292.000 315.000
1302.000 312.000
1368.000 307.000
1404.000 298.000
1453.000 292.000
1481.000 283.000
1503.000 279.000
1528.000 276.000
1543.000 276.000
1570.000 268.000
1595.000 265.000
1623.000 255.000
1628.000 255.000
1649.000 249.000
1654.000 246.000
1666.000 247.000
1692.000 243.000
1701.000 239.000
1707.000 239.000
1734.000 231.000
1750.000 229.000
1758.000 226.000
1803.000 217.000
1810.000 214.000
1825.000 211.000
1835.000 206.000
1860.000 202.000
1878.000 195.000
1882.000 195.000
1891.000 190.000
1894.000 190.000
1901.000 184.000
1923.000 173.000
1935.000 163.000
1941.000 161.000
1951.000 154.000
1958.000 159.000
1960.000 159.000
1961.000 156.000
1949.000 145.000
1946.000 145.000
1939.000 141.000
1928.000 131.000
1914.000 127.000
1909.000 124.000
1885.000 119.000
1882.000 117.000
1864.000 114.000
1823.000 114.000
1819.000 112.000
1820.000 108.000
1815.000 103.000
1814.000 120.000
1811.000 123.000
1802.000 122.000
1799.000 119.000
1796.000 119.000
1787.000 125.000
1783.000 123.000
1784.000 116.000
1780.000 115.000
1771.000 103.000
1754.000 99.000
1740.000 92.000
1701.000 86.000
1689.000 82.000
1678.000 82.000
1666.000 79.000
1654.000 79.000
1641.000 76.000
1620.000 75.000
1588.000 69.000
1584.000 67.000
1556.000 66.000
1545.000 63.000
1532.000 63.000
1522.000 60.000
1509.000 60.000
1494.000 57.000
1484.000 57.000
1450.000 50.000
1423.000 49.000
1407.000 45.000
1354.000 42.000
1322.000 37.000
1300.000 38.000
1287.000 35.000
1252.000 33.000
1239.000 30.000
1196.000 32.000
1132.000 31.000
1101.000 32.000
1086.000 34.000
1022.000 31.000
982.000 38.000
959.000 39.000
940.000 43.000
920.000 44.000
902.000 49.000
876.000 52.000
828.000 62.000
817.000 62.000
801.000 65.000
787.000 65.000
777.000 68.000
736.000 71.000
672.000 91.000
666.000 91.000
645.000 96.000
603.000 100.000
502.000 119.000
445.000 142.000
441.000 142.000
428.000 147.000
402.000 151.000
388.000 157.000
337.000 173.000
319.000 183.000
285.000 198.000
278.000 203.000
241.000 216.000
173.000 248.000
157.000 259.000
132.000 271.000
100.000 295.000
79.000 304.000
54.000 309.000
50.000 312.000
51.000 313.000
49.000 315.000
