ply
format ascii 1.0
comment Dominant contour extracted from bimodal image.
comment scale factor = 0.877193
comment kernel width = 3
comment decimate eps = 1.000000
comment orig shape   = (456, 1901)
comment threshold    = 203.500000
comment Written with hapPLY (https://github.com/nmwsharp/happly)
element flags 0
property uchar closed
element vertex 174
property double x
property double y
end_header
1641.000 211.000
1641.000 209.000
1638.000 208.000
1634.000 213.000
1632.000 213.000
1628.000 217.000
1623.000 218.000
1600.000 207.000
1584.000 197.000
1554.000 184.000
1540.000 180.000
1520.000 177.000
1509.000 170.000
1486.000 165.000
1472.000 160.000
1462.000 159.000
1454.000 155.000
1430.000 148.000
1420.000 147.000
1412.000 144.000
1404.000 144.000
1388.000 137.000
1376.000 134.000
1368.000 134.000
1359.000 130.000
1333.000 127.000
1326.000 124.000
1306.000 120.000
1291.000 119.000
1286.000 117.000
1243.000 111.000
1224.000 107.000
1206.000 101.000
1185.000 99.000
1163.000 94.000
1154.000 94.000
1138.000 90.000
1098.000 86.000
1069.000 80.000
1013.000 76.000
983.000 78.000
940.000 77.000
915.000 78.000
910.000 80.000
724.000 80.000
698.000 83.000
691.000 82.000
676.000 85.000
653.000 83.000
615.000 84.000
609.000 82.000
598.000 82.000
587.000 85.000
566.000 84.000
562.000 86.000
533.000 90.000
510.000 90.000
493.000 94.000
461.000 98.000
423.000 99.000
397.000 103.000
389.000 107.000
355.000 110.000
338.000 116.000
337.000 115.000
312.000 117.000
306.000 119.000
288.000 120.000
278.000 123.000
259.000 125.000
234.000 132.000
206.000 143.000
190.000 146.000
170.000 157.000
161.000 159.000
136.000 172.000
106.000 173.000
100.000 171.000
93.000 164.000
83.000 164.000
78.000 161.000
71.000 162.000
68.000 165.000
61.000 163.000
58.000 164.000
55.000 168.000
64.000 170.000
66.000 173.000
58.000 170.000
53.000 180.000
53.000 182.000
56.000 185.000
75.000 188.000
91.000 196.000
99.000 197.000
102.000 199.000
108.000 199.000
109.000 195.000
110.000 199.000
119.000 197.000
139.000 210.000
159.000 219.000
169.000 221.000
207.000 235.000
214.000 236.000
245.000 248.000
265.000 252.000
276.000 257.000
284.000 258.000
295.000 263.000
308.000 266.000
313.000 269.000
318.000 269.000
344.000 278.000
370.000 283.000
394.000 290.000
419.000 293.000
436.000 298.000
456.000 301.000
471.000 306.000
494.000 310.000
498.000 312.000
520.000 314.000
549.000 320.000
572.000 321.000
579.000 323.000
625.000 324.000
631.000 322.000
647.000 322.000
652.000 325.000
664.000 327.000
705.000 327.000
727.000 329.000
743.000 328.000
751.000 331.000
779.000 332.000
786.000 334.000
829.000 335.000
846.000 338.000
865.000 337.000
879.000 341.000
934.000 341.000
968.000 337.000
980.000 337.000
1021.000 331.000
1094.000 328.000
1125.000 323.000
1166.000 320.000
1179.000 316.000
1232.000 313.000
1247.000 308.000
1265.000 306.000
1266.000 307.000
1279.000 303.000
1282.000 304.000
1292.000 303.000
1301.000 300.000
1324.000 299.000
1379.000 286.000
1396.000 285.000
1415.000 278.000
1430.000 276.000
1435.000 274.000
1442.000 267.000
1452.000 269.000
1459.000 267.000
1493.000 267.000
1509.000 264.000
1518.000 264.000
1540.000 258.000
1565.000 255.000
1588.000 248.000
1621.000 233.000
1633.000 223.000
