ply
format ascii 1.0
comment Dominant contour extracted from bimodal image.
comment scale factor = 0.769231
comment kernel width = 3
comment decimate eps = 1.000000
comment orig shape   = (520, 1923)
comment threshold    = 200.500000
comment Written with hapPLY (https://github.com/nmwsharp/happly)
element flags 0
property uchar closed
element vertex 180
property double x
property double y
end_header
1430.000 320.000
1430.000 315.000
1428.000 313.000
1428.000 309.000
1425.000 303.000
1418.000 297.000
1418.000 291.000
1420.000 289.000
1419.000 286.000
1421.000 285.000
1417.000 280.000
1392.000 267.000
1388.000 267.000
1371.000 261.000
1361.000 261.000
1353.000 254.000
1343.000 251.000
1332.000 250.000
1312.000 241.000
1305.000 241.000
1299.000 237.000
1285.000 234.000
1275.000 229.000
1265.000 229.000
1249.000 226.000
1247.000 224.000
1229.000 217.000
1217.000 214.000
1212.000 211.000
1208.000 211.000
1201.000 207.000
1185.000 204.000
1169.000 197.000
1164.000 197.000
1146.000 191.000
1139.000 191.000
1125.000 186.000
1117.000 186.000
1105.000 182.000
1080.000 177.000
1072.000 173.000
1062.000 172.000
1051.000 167.000
1036.000 165.000
1026.000 161.000
1007.000 159.000
984.000 151.000
980.000 152.000
973.000 147.000
963.000 144.000
958.000 144.000
946.000 140.000
940.000 140.000
929.000 137.000
920.000 137.000
896.000 130.000
886.000 129.000
883.000 127.000
870.000 127.000
856.000 124.000
847.000 124.000
836.000 121.000
820.000 120.000
768.000 107.000
742.000 106.000
737.000 104.000
728.000 104.000
715.000 101.000
707.000 101.000
702.000 99.000
676.000 97.000
665.000 94.000
636.000 91.000
617.000 91.000
609.000 89.000
571.000 87.000
562.000 85.000
517.000 88.000
491.000 87.000
456.000 79.000
425.000 77.000
407.000 74.000
384.000 74.000
363.000 72.000
323.000 74.000
225.000 74.000
207.000 76.000
193.000 80.000
185.000 80.000
178.000 82.000
161.000 82.000
154.000 84.000
110.000 84.000
92.000 87.000
74.000 87.000
66.000 90.000
54.000 85.000
45.000 85.000
42.000 90.000
31.000 88.000
23.000 88.000
21.000 90.000
22.000 92.000
30.000 93.000
41.000 98.000
56.000 109.000
104.000 138.000
110.000 144.000
123.000 152.000
151.000 174.000
186.000 190.000
207.000 202.000
213.000 207.000
239.000 220.000
253.000 224.000
266.000 230.000
273.000 231.000
322.000 247.000
326.000 250.000
352.000 260.000
386.000 267.000
407.000 268.000
430.000 274.000
452.000 283.000
461.000 284.000
480.000 290.000
486.000 290.000
533.000 304.000
540.000 304.000
545.000 306.000
571.000 310.000
642.000 330.000
658.000 330.000
667.000 333.000
697.000 337.000
742.000 338.000
770.000 342.000
789.000 347.000
879.000 347.000
891.000 344.000
914.000 344.000
931.000 348.000
937.000 347.000
946.000 350.000
957.000 350.000
963.000 347.000
969.000 351.000
1010.000 350.000
1022.000 346.000
1036.000 345.000
1041.000 349.000
1059.000 351.000
1093.000 351.000
1105.000 348.000
1113.000 350.000
1149.000 351.000
1158.000 349.000
1171.000 350.000
1188.000 345.000
1206.000 346.000
1214.000 343.000
1237.000 345.000
1261.000 340.000
1289.000 340.000
1295.000 342.000
1319.000 340.000
1322.000 341.000
1326.000 338.000
1340.000 339.000
1353.000 336.000
1356.000 337.000
1369.000 332.000
1372.000 334.000
1381.000 334.000
1393.000 330.000
1402.000 330.000
1407.000 327.000
1413.000 327.000
1415.000 325.000
1426.000 323.000
