ply
format ascii 1.0
comment Dominant contour extracted from bimodal image.
comment scale factor = 1.000000
comment kernel width = 3
comment decimate eps = 1.000000
comment orig shape   = (344, 1197)
comment threshold    = 237.500000
comment Written with hapPLY (https://github.com/nmwsharp/happly)
element flags 0
property uchar closed
element vertex 216
property double x
property double y
end_header
1176.000 196.000
1176.000 186.000
1172.000 182.000
1170.000 192.000
1168.000 193.000
1169.000 194.000
1167.000 194.000
1168.000 191.000
1161.000 185.000
1162.000 184.000
1153.000 174.000
1136.000 168.000
1129.000 163.000
1113.000 158.000
1108.000 158.000
1103.000 155.000
1092.000 152.000
1088.000 152.000
1069.000 144.000
1064.000 144.000
1061.000 142.000
1054.000 141.000
1052.000 139.000
1051.000 140.000
1030.000 133.000
1024.000 133.000
1022.000 131.000
1019.000 132.000
1008.000 128.000
1007.000 129.000
989.000 126.000
978.000 122.000
970.000 121.000
965.000 118.000
962.000 119.000
948.000 114.000
946.000 115.000
923.000 108.000
906.000 105.000
892.000 101.000
890.000 99.000
880.000 99.000
865.000 94.000
816.000 88.000
775.000 80.000
749.000 78.000
721.000 72.000
692.000 71.000
682.000 69.000
643.000 69.000
634.000 67.000
603.000 66.000
598.000 64.000
591.000 65.000
534.000 63.000
495.000 65.000
490.000 64.000
472.000 66.000
450.000 66.000
434.000 64.000
431.000 66.000
425.000 65.000
419.000 67.000
392.000 65.000
384.000 67.000
381.000 66.000
369.000 70.000
359.000 68.000
327.000 71.000
326.000 70.000
323.000 72.000
306.000 72.000
295.000 76.000
278.000 77.000
272.000 79.000
271.000 78.000
267.000 81.000
256.000 85.000
232.000 88.000
208.000 97.000
204.000 96.000
202.000 98.000
188.000 100.000
184.000 102.000
178.000 102.000
165.000 106.000
162.000 105.000
149.000 110.000
138.000 112.000
131.000 116.000
128.000 115.000
123.000 118.000
105.000 121.000
98.000 124.000
84.000 124.000
75.000 122.000
69.000 124.000
68.000 128.000
64.000 128.000
55.000 133.000
54.000 132.000
49.000 139.000
52.000 141.000
50.000 142.000
52.000 144.000
56.000 144.000
60.000 141.000
62.000 142.000
65.000 140.000
70.000 140.000
78.000 137.000
86.000 137.000
88.000 138.000
84.000 137.000
84.000 141.000
82.000 142.000
82.000 140.000
79.000 137.000
78.000 138.000
79.000 144.000
83.000 146.000
92.000 138.000
99.000 139.000
100.000 137.000
108.000 135.000
106.000 139.000
105.000 138.000
101.000 140.000
102.000 142.000
119.000 147.000
129.000 152.000
142.000 162.000
156.000 166.000
164.000 171.000
167.000 171.000
188.000 181.000
193.000 182.000
208.000 189.000
220.000 197.000
233.000 200.000
244.000 206.000
245.000 205.000
261.000 212.000
259.000 213.000
260.000 214.000
264.000 212.000
273.000 218.000
280.000 219.000
293.000 224.000
297.000 227.000
321.000 232.000
337.000 238.000
355.000 241.000
359.000 244.000
360.000 243.000
376.000 247.000
399.000 256.000
410.000 257.000
430.000 265.000
441.000 266.000
470.000 273.000
481.000 273.000
509.000 279.000
525.000 280.000
535.000 282.000
537.000 284.000
539.000 283.000
546.000 285.000
555.000 285.000
560.000 287.000
561.000 286.000
564.000 288.000
568.000 287.000
605.000 291.000
632.000 291.000
640.000 292.000
643.000 294.000
655.000 293.000
659.000 295.000
679.000 294.000
685.000 296.000
699.000 295.000
712.000 297.000
731.000 297.000
746.000 293.000
817.000 292.000
832.000 289.000
845.000 289.000
855.000 286.000
860.000 287.000
865.000 285.000
869.000 286.000
875.000 284.000
904.000 282.000
921.000 277.000
934.000 276.000
942.000 273.000
956.000 272.000
965.000 269.000
978.000 269.000
996.000 265.000
1015.000 264.000
1044.000 257.000
1053.000 257.000
1071.000 249.000
1081.000 249.000
1087.000 246.000
1089.000 247.000
1090.000 245.000
1124.000 235.000
1129.000 231.000
1139.000 228.000
1160.000 209.000
1170.000 205.000
1174.000 200.000
1174.000 197.000
