ply
format ascii 1.0
comment Dominant contour extracted from bimodal image.
comment scale factor = 1.000000
comment kernel width = 3
comment decimate eps = 1.000000
comment orig shape   = (351, 1453)
comment threshold    = 240.000000
comment Written with hapPLY (https://github.com/nmwsharp/happly)
element flags 0
property uchar closed
element vertex 307
property double x
property double y
end_header
1398.000 252.000
1388.000 247.000
1385.000 243.000
1371.000 235.000
1365.000 228.000
1357.000 224.000
1354.000 220.000
1350.000 219.000
1349.000 217.000
1348.000 218.000
1336.000 205.000
1334.000 205.000
1331.000 202.000
1307.000 194.000
1298.000 188.000
1297.000 189.000
1293.000 186.000
1290.000 186.000
1279.000 178.000
1272.000 177.000
1264.000 173.000
1262.000 174.000
1232.000 160.000
1212.000 155.000
1204.000 151.000
1202.000 152.000
1192.000 147.000
1188.000 147.000
1165.000 138.000
1156.000 138.000
1150.000 135.000
1146.000 135.000
1144.000 133.000
1142.000 134.000
1132.000 131.000
1130.000 129.000
1121.000 128.000
1114.000 124.000
1108.000 124.000
1104.000 121.000
1102.000 122.000
1099.000 120.000
1081.000 117.000
1078.000 118.000
1072.000 115.000
1068.000 116.000
1061.000 113.000
1028.000 110.000
1017.000 106.000
1013.000 107.000
980.000 99.000
973.000 96.000
972.000 97.000
963.000 93.000
942.000 90.000
935.000 87.000
934.000 88.000
914.000 84.000
891.000 82.000
888.000 80.000
887.000 82.000
884.000 82.000
882.000 80.000
860.000 81.000
844.000 77.000
831.000 77.000
825.000 75.000
824.000 76.000
822.000 74.000
820.000 75.000
813.000 72.000
800.000 74.000
798.000 72.000
790.000 71.000
788.000 69.000
775.000 70.000
772.000 68.000
762.000 69.000
753.000 67.000
726.000 67.000
719.000 69.000
705.000 69.000
701.000 71.000
667.000 72.000
656.000 69.000
635.000 70.000
620.000 68.000
617.000 70.000
596.000 69.000
594.000 71.000
583.000 72.000
557.000 71.000
543.000 73.000
541.000 71.000
521.000 71.000
518.000 73.000
510.000 72.000
509.000 74.000
488.000 74.000
472.000 78.000
455.000 80.000
447.000 79.000
446.000 81.000
435.000 81.000
426.000 84.000
414.000 84.000
398.000 88.000
390.000 88.000
379.000 91.000
377.000 90.000
375.000 92.000
354.000 94.000
345.000 97.000
340.000 96.000
339.000 98.000
331.000 99.000
330.000 97.000
329.000 99.000
321.000 99.000
319.000 101.000
316.000 100.000
314.000 102.000
295.000 106.000
264.000 110.000
261.000 113.000
247.000 113.000
216.000 118.000
213.000 117.000
205.000 121.000
180.000 126.000
168.000 131.000
158.000 132.000
147.000 136.000
136.000 136.000
135.000 138.000
130.000 137.000
128.000 139.000
125.000 138.000
118.000 141.000
109.000 141.000
108.000 143.000
95.000 145.000
75.000 152.000
60.000 151.000
58.000 148.000
56.000 149.000
47.000 142.000
41.000 141.000
38.000 144.000
31.000 142.000
29.000 140.000
25.000 141.000
25.000 143.000
22.000 144.000
19.000 148.000
19.000 153.000
22.000 157.000
33.000 157.000
42.000 162.000
57.000 167.000
64.000 167.000
72.000 171.000
73.000 173.000
87.000 177.000
88.000 179.000
94.000 179.000
95.000 181.000
97.000 180.000
104.000 183.000
105.000 182.000
107.000 186.000
112.000 187.000
115.000 190.000
116.000 189.000
118.000 191.000
127.000 191.000
138.000 197.000
156.000 201.000
169.000 207.000
170.000 206.000
179.000 208.000
199.000 216.000
208.000 216.000
224.000 222.000
237.000 224.000
239.000 226.000
241.000 225.000
245.000 227.000
263.000 230.000
264.000 229.000
268.000 231.000
276.000 231.000
302.000 239.000
304.000 238.000
315.000 240.000
316.000 242.000
317.000 241.000
324.000 243.000
339.000 244.000
340.000 246.000
344.000 245.000
360.000 247.000
375.000 252.000
379.000 252.000
380.000 254.000
385.000 253.000
389.000 255.000
394.000 254.000
408.000 256.000
417.000 259.000
425.000 259.000
426.000 261.000
431.000 260.000
444.000 263.000
460.000 263.000
486.000 267.000
489.000 266.000
495.000 268.000
517.000 268.000
547.000 272.000
570.000 273.000
574.000 275.000
581.000 274.000
614.000 276.000
618.000 278.000
630.000 275.000
643.000 278.000
660.000 278.000
668.000 276.000
673.000 279.000
709.000 281.000
718.000 283.000
722.000 282.000
738.000 285.000
752.000 284.000
763.000 285.000
767.000 287.000
782.000 286.000
792.000 288.000
794.000 290.000
799.000 289.000
803.000 291.000
836.000 291.000
848.000 289.000
851.000 290.000
855.000 287.000
891.000 290.000
892.000 288.000
899.000 289.000
910.000 286.000
918.000 286.000
923.000 288.000
937.000 287.000
944.000 289.000
977.000 289.000
1012.000 285.000
1016.000 286.000
1023.000 283.000
1037.000 283.000
1039.000 285.000
1049.000 284.000
1061.000 286.000
1076.000 283.000
1079.000 284.000
1106.000 282.000
1126.000 278.000
1143.000 278.000
1145.000 276.000
1158.000 277.000
1160.000 275.000
1165.000 276.000
1169.000 274.000
1178.000 275.000
1183.000 272.000
1192.000 271.000
1230.000 271.000
1231.000 269.000
1242.000 270.000
1244.000 268.000
1250.000 267.000
1266.000 267.000
1268.000 265.000
1288.000 264.000
1294.000 262.000
1301.000 263.000
1302.000 261.000
1305.000 262.000
1310.000 259.000
1319.000 257.000
1322.000 258.000
1324.000 256.000
1328.000 256.000
1336.000 252.000
1338.000 253.000
1342.000 250.000
1350.000 249.000
1362.000 241.000
1371.000 242.000
1381.000 248.000
1383.000 247.000
1387.000 249.000
1388.000 251.000
1393.000 253.000
1391.000 257.000
1394.000 260.000
1396.000 259.000
1396.000 255.000
