ply
format ascii 1.0
comment Dominant contour extracted from bimodal image.
comment scale factor = 1.000000
comment kernel width = 3
comment decimate eps = 1.000000
comment orig shape   = (340, 1564)
comment threshold    = 185.500000
comment Written with hapPLY (https://github.com/nmwsharp/happly)
element flags 0
property uchar closed
element vertex 1111
property double x
property double y
end_header
33.000 187.000
34.000 189.000
36.000 187.000
35.000 192.000
37.000 195.000
44.000 192.000
69.000 192.000
79.000 198.000
83.000 196.000
85.000 198.000
83.000 196.000
80.000 198.000
87.000 203.000
93.000 202.000
91.000 203.000
99.000 208.000
101.000 206.000
103.000 208.000
106.000 207.000
100.000 208.000
104.000 211.000
109.000 208.000
111.000 210.000
105.000 211.000
117.000 220.000
124.000 223.000
125.000 222.000
123.000 220.000
126.000 218.000
129.000 221.000
125.000 222.000
125.000 224.000
132.000 226.000
133.000 225.000
131.000 222.000
134.000 222.000
138.000 224.000
139.000 227.000
140.000 225.000
143.000 225.000
148.000 230.000
142.000 229.000
141.000 226.000
139.000 227.000
140.000 228.000
136.000 228.000
147.000 235.000
149.000 234.000
148.000 232.000
155.000 235.000
161.000 235.000
150.000 234.000
149.000 235.000
153.000 237.000
173.000 238.000
195.000 245.000
199.000 244.000
196.000 243.000
198.000 243.000
198.000 241.000
201.000 242.000
198.000 243.000
200.000 244.000
198.000 245.000
208.000 248.000
218.000 253.000
225.000 254.000
227.000 251.000
221.000 251.000
220.000 248.000
218.000 249.000
219.000 251.000
215.000 248.000
215.000 246.000
221.000 249.000
224.000 248.000
227.000 251.000
231.000 252.000
227.000 252.000
225.000 254.000
226.000 255.000
230.000 255.000
235.000 258.000
237.000 256.000
233.000 252.000
236.000 252.000
238.000 256.000
239.000 253.000
241.000 254.000
244.000 252.000
248.000 252.000
248.000 255.000
251.000 255.000
254.000 258.000
252.000 260.000
250.000 260.000
250.000 257.000
247.000 255.000
246.000 252.000
242.000 256.000
247.000 257.000
248.000 260.000
245.000 258.000
243.000 259.000
242.000 257.000
237.000 257.000
237.000 259.000
255.000 265.000
257.000 264.000
255.000 261.000
256.000 260.000
259.000 264.000
261.000 262.000
265.000 266.000
266.000 264.000
275.000 266.000
275.000 269.000
271.000 269.000
271.000 271.000
296.000 274.000
296.000 272.000
290.000 270.000
288.000 267.000
292.000 265.000
297.000 266.000
298.000 264.000
294.000 261.000
298.000 258.000
300.000 259.000
301.000 257.000
305.000 257.000
307.000 261.000
304.000 263.000
304.000 266.000
306.000 264.000
313.000 264.000
314.000 262.000
309.000 261.000
307.000 256.000
323.000 257.000
323.000 259.000
319.000 261.000
320.000 264.000
322.000 262.000
323.000 264.000
318.000 266.000
314.000 263.000
313.000 264.000
316.000 267.000
311.000 269.000
304.000 269.000
303.000 265.000
301.000 267.000
298.000 265.000
297.000 266.000
299.000 269.000
302.000 270.000
302.000 273.000
304.000 271.000
306.000 273.000
309.000 271.000
314.000 272.000
314.000 270.000
324.000 266.000
327.000 266.000
330.000 269.000
332.000 267.000
329.000 265.000
334.000 264.000
332.000 262.000
326.000 263.000
325.000 260.000
326.000 258.000
333.000 257.000
333.000 254.000
331.000 254.000
331.000 256.000
326.000 255.000
331.000 254.000
327.000 253.000
330.000 252.000
330.000 249.000
335.000 246.000
335.000 241.000
337.000 239.000
348.000 242.000
349.000 241.000
351.000 242.000
348.000 243.000
347.000 241.000
345.000 243.000
350.000 247.000
353.000 243.000
363.000 246.000
360.000 247.000
363.000 251.000
365.000 248.000
367.000 248.000
368.000 251.000
378.000 251.000
376.000 255.000
378.000 257.000
380.000 256.000
379.000 254.000
381.000 252.000
390.000 257.000
387.000 263.000
384.000 264.000
381.000 268.000
380.000 266.000
379.000 268.000
376.000 268.000
375.000 263.000
381.000 264.000
382.000 260.000
381.000 259.000
379.000 261.000
376.000 261.000
368.000 254.000
366.000 255.000
366.000 259.000
370.000 259.000
373.000 262.000
371.000 264.000
374.000 267.000
369.000 269.000
372.000 271.000
382.000 271.000
383.000 274.000
380.000 275.000
381.000 276.000
379.000 279.000
376.000 279.000
374.000 275.000
372.000 276.000
369.000 271.000
370.000 270.000
367.000 267.000
365.000 268.000
365.000 270.000
358.000 272.000
357.000 270.000
360.000 270.000
362.000 268.000
361.000 267.000
356.000 268.000
358.000 266.000
357.000 265.000
349.000 266.000
349.000 268.000
355.000 270.000
355.000 273.000
351.000 273.000
351.000 269.000
349.000 270.000
349.000 272.000
344.000 270.000
349.000 270.000
345.000 268.000
346.000 264.000
349.000 263.000
347.000 262.000
348.000 260.000
352.000 260.000
355.000 262.000
357.000 261.000
354.000 257.000
352.000 258.000
350.000 256.000
349.000 258.000
345.000 259.000
339.000 258.000
342.000 256.000
339.000 254.000
341.000 251.000
346.000 252.000
346.000 254.000
349.000 257.000
350.000 256.000
349.000 250.000
351.000 249.000
349.000 246.000
344.000 247.000
347.000 249.000
346.000 250.000
342.000 249.000
341.000 247.000
339.000 248.000
338.000 246.000
335.000 246.000
334.000 247.000
338.000 251.000
337.000 253.000
334.000 252.000
333.000 254.000
337.000 255.000
337.000 258.000
332.000 258.000
334.000 264.000
337.000 263.000
335.000 260.000
339.000 260.000
340.000 262.000
345.000 261.000
342.000 265.000
342.000 270.000
338.000 269.000
337.000 265.000
336.000 269.000
333.000 267.000
331.000 268.000
333.000 272.000
337.000 271.000
337.000 273.000
344.000 273.000
344.000 276.000
338.000 276.000
336.000 275.000
336.000 272.000
327.000 273.000
326.000 272.000
331.000 270.000
329.000 268.000
325.000 268.000
324.000 270.000
321.000 269.000
320.000 270.000
323.000 273.000
319.000 273.000
318.000 270.000
317.000 273.000
315.000 271.000
314.000 274.000
310.000 271.000
309.000 273.000
311.000 274.000
299.000 272.000
296.000 274.000
297.000 275.000
332.000 276.000
352.000 282.000
373.000 281.000
389.000 282.000
402.000 285.000
420.000 284.000
458.000 289.000
470.000 289.000
471.000 287.000
474.000 287.000
472.000 289.000
473.000 290.000
505.000 290.000
512.000 293.000
517.000 291.000
514.000 288.000
513.000 290.000
509.000 287.000
506.000 287.000
505.000 285.000
503.000 286.000
502.000 284.000
501.000 287.000
504.000 288.000
499.000 288.000
498.000 285.000
496.000 286.000
494.000 284.000
500.000 280.000
503.000 280.000
505.000 277.000
501.000 277.000
498.000 274.000
497.000 271.000
499.000 270.000
495.000 266.000
502.000 262.000
504.000 264.000
505.000 260.000
513.000 257.000
520.000 264.000
521.000 262.000
515.000 256.000
515.000 254.000
517.000 255.000
520.000 251.000
522.000 253.000
524.000 252.000
525.000 255.000
530.000 255.000
528.000 257.000
529.000 259.000
524.000 263.000
525.000 264.000
531.000 261.000
532.000 256.000
538.000 258.000
536.000 263.000
531.000 263.000
536.000 265.000
534.000 269.000
531.000 269.000
530.000 264.000
528.000 266.000
529.000 269.000
525.000 266.000
524.000 263.000
521.000 263.000
519.000 265.000
522.000 266.000
530.000 275.000
531.000 272.000
529.000 271.000
533.000 271.000
537.000 275.000
538.000 274.000
535.000 271.000
537.000 269.000
542.000 269.000
543.000 271.000
544.000 270.000
543.000 267.000
538.000 266.000
540.000 260.000
553.000 265.000
555.000 268.000
552.000 272.000
549.000 273.000
550.000 274.000
545.000 279.000
546.000 281.000
542.000 286.000
533.000 286.000
531.000 284.000
532.000 281.000
534.000 283.000
537.000 280.000
536.000 279.000
539.000 278.000
537.000 276.000
533.000 279.000
532.000 275.000
530.000 280.000
528.000 278.000
526.000 281.000
529.000 283.000
528.000 284.000
530.000 287.000
520.000 287.000
516.000 281.000
515.000 283.000
513.000 283.000
510.000 280.000
504.000 281.000
506.000 286.000
509.000 283.000
512.000 286.000
516.000 286.000
517.000 291.000
519.000 289.000
523.000 289.000
524.000 291.000
526.000 290.000
528.000 293.000
528.000 290.000
532.000 288.000
537.000 288.000
538.000 291.000
539.000 288.000
544.000 288.000
549.000 294.000
540.000 297.000
540.000 294.000
542.000 293.000
539.000 291.000
538.000 296.000
532.000 295.000
530.000 297.000
531.000 298.000
543.000 300.000
567.000 299.000
576.000 302.000
591.000 302.000
601.000 300.000
627.000 301.000
637.000 298.000
676.000 298.000
691.000 300.000
747.000 300.000
756.000 298.000
756.000 295.000
759.000 295.000
757.000 295.000
757.000 297.000
764.000 295.000
772.000 297.000
792.000 295.000
793.000 294.000
790.000 292.000
786.000 294.000
781.000 293.000
779.000 295.000
780.000 292.000
783.000 292.000
784.000 294.000
788.000 292.000
789.000 293.000
794.000 290.000
796.000 285.000
803.000 284.000
805.000 288.000
809.000 289.000
807.000 288.000
806.000 290.000
804.000 290.000
805.000 288.000
802.000 287.000
802.000 290.000
800.000 290.000
800.000 288.000
802.000 287.000
799.000 284.000
797.000 287.000
798.000 290.000
795.000 289.000
795.000 291.000
792.000 293.000
795.000 294.000
812.000 290.000
827.000 290.000
842.000 284.000
848.000 285.000
849.000 284.000
847.000 281.000
846.000 283.000
845.000 282.000
847.000 281.000
849.000 283.000
851.000 282.000
849.000 283.000
850.000 284.000
872.000 286.000
872.000 282.000
870.000 284.000
867.000 282.000
869.000 279.000
875.000 282.000
875.000 285.000
872.000 286.000
873.000 287.000
899.000 287.000
912.000 283.000
934.000 283.000
946.000 280.000
962.000 280.000
974.000 282.000
993.000 279.000
1016.000 279.000
1022.000 277.000
1041.000 276.000
1058.000 271.000
1093.000 273.000
1109.000 270.000
1129.000 270.000
1142.000 265.000
1131.000 264.000
1130.000 265.000
1132.000 267.000
1131.000 266.000
1126.000 268.000
1126.000 266.000
1131.000 264.000
1131.000 256.000
1133.000 257.000
1136.000 254.000
1142.000 252.000
1149.000 257.000
1151.000 256.000
1145.000 250.000
1149.000 248.000
1147.000 247.000
1149.000 243.000
1151.000 245.000
1152.000 243.000
1160.000 243.000
1161.000 247.000
1163.000 246.000
1162.000 243.000
1165.000 243.000
1166.000 246.000
1170.000 246.000
1171.000 245.000
1167.000 243.000
1171.000 243.000
1172.000 248.000
1167.000 248.000
1165.000 245.000
1162.000 247.000
1161.000 250.000
1158.000 249.000
1158.000 247.000
1160.000 246.000
1157.000 245.000
1156.000 243.000
1151.000 245.000
1155.000 246.000
1156.000 249.000
1152.000 248.000
1151.000 245.000
1149.000 249.000
1154.000 250.000
1154.000 252.000
1150.000 251.000
1149.000 253.000
1155.000 256.000
1156.000 252.000
1158.000 251.000
1160.000 252.000
1161.000 255.000
1159.000 256.000
1162.000 257.000
1162.000 259.000
1155.000 258.000
1152.000 255.000
1150.000 257.000
1152.000 260.000
1148.000 261.000
1151.000 259.000
1145.000 258.000
1145.000 262.000
1144.000 259.000
1142.000 261.000
1143.000 258.000
1140.000 255.000
1136.000 257.000
1140.000 259.000
1140.000 261.000
1138.000 262.000
1136.000 260.000
1137.000 258.000
1134.000 256.000
1133.000 260.000
1137.000 265.000
1177.000 263.000
1186.000 261.000
1204.000 261.000
1204.000 259.000
1201.000 259.000
1201.000 256.000
1198.000 259.000
1195.000 253.000
1195.000 259.000
1192.000 259.000
1192.000 254.000
1201.000 253.000
1203.000 256.000
1204.000 252.000
1207.000 252.000
1206.000 250.000
1198.000 250.000
1197.000 245.000
1196.000 250.000
1194.000 250.000
1191.000 246.000
1189.000 248.000
1192.000 252.000
1189.000 253.000
1186.000 249.000
1183.000 249.000
1182.000 251.000
1186.000 254.000
1183.000 254.000
1182.000 251.000
1181.000 254.000
1175.000 249.000
1177.000 247.000
1174.000 246.000
1174.000 243.000
1182.000 239.000
1183.000 240.000
1184.000 238.000
1190.000 238.000
1192.000 239.000
1190.000 241.000
1195.000 243.000
1196.000 241.000
1194.000 239.000
1198.000 237.000
1200.000 238.000
1201.000 236.000
1202.000 238.000
1200.000 239.000
1203.000 241.000
1203.000 243.000
1201.000 242.000
1199.000 244.000
1201.000 246.000
1204.000 245.000
1207.000 251.000
1210.000 250.000
1211.000 254.000
1214.000 255.000
1212.000 256.000
1213.000 257.000
1247.000 256.000
1275.000 251.000
1307.000 251.000
1308.000 246.000
1314.000 246.000
1312.000 244.000
1313.000 240.000
1314.000 241.000
1316.000 238.000
1317.000 239.000
1318.000 237.000
1322.000 236.000
1324.000 239.000
1325.000 236.000
1330.000 234.000
1328.000 232.000
1329.000 230.000
1330.000 231.000
1331.000 229.000
1336.000 229.000
1333.000 227.000
1333.000 224.000
1337.000 224.000
1336.000 225.000
1338.000 226.000
1335.000 231.000
1329.000 233.000
1332.000 235.000
1332.000 240.000
1329.000 242.000
1325.000 242.000
1323.000 244.000
1321.000 244.000
1320.000 242.000
1318.000 244.000
1314.000 244.000
1314.000 247.000
1317.000 248.000
1346.000 240.000
1364.000 238.000
1389.000 238.000
1397.000 236.000
1400.000 234.000
1397.000 232.000
1395.000 233.000
1396.000 234.000
1394.000 233.000
1388.000 236.000
1383.000 236.000
1386.000 235.000
1380.000 232.000
1377.000 235.000
1378.000 236.000
1381.000 236.000
1376.000 235.000
1374.000 231.000
1374.000 235.000
1365.000 236.000
1365.000 234.000
1376.000 229.000
1379.000 233.000
1381.000 230.000
1378.000 228.000
1385.000 221.000
1387.000 221.000
1385.000 223.000
1389.000 226.000
1392.000 226.000
1394.000 224.000
1390.000 224.000
1389.000 222.000
1396.000 224.000
1396.000 228.000
1392.000 231.000
1392.000 229.000
1389.000 228.000
1389.000 232.000
1385.000 233.000
1386.000 235.000
1397.000 231.000
1399.000 229.000
1399.000 225.000
1405.000 225.000
1401.000 227.000
1404.000 228.000
1404.000 231.000
1397.000 231.000
1398.000 233.000
1403.000 234.000
1411.000 231.000
1406.000 229.000
1410.000 229.000
1412.000 231.000
1434.000 226.000
1435.000 223.000
1432.000 221.000
1436.000 220.000
1435.000 221.000
1437.000 222.000
1438.000 217.000
1437.000 216.000
1432.000 218.000
1433.000 211.000
1435.000 212.000
1433.000 214.000
1435.000 216.000
1436.000 214.000
1438.000 217.000
1441.000 216.000
1441.000 221.000
1443.000 222.000
1451.000 219.000
1456.000 219.000
1458.000 213.000
1462.000 212.000
1463.000 213.000
1457.000 217.000
1460.000 218.000
1464.000 216.000
1465.000 213.000
1468.000 214.000
1473.000 211.000
1471.000 209.000
1473.000 209.000
1472.000 210.000
1474.000 211.000
1482.000 205.000
1487.000 205.000
1488.000 204.000
1486.000 203.000
1488.000 204.000
1492.000 202.000
1498.000 202.000
1506.000 205.000
1508.000 203.000
1506.000 201.000
1495.000 198.000
1487.000 198.000
1479.000 194.000
1474.000 196.000
1475.000 198.000
1478.000 197.000
1478.000 200.000
1474.000 200.000
1475.000 198.000
1471.000 196.000
1469.000 197.000
1472.000 200.000
1468.000 200.000
1467.000 199.000
1470.000 195.000
1469.000 194.000
1466.000 196.000
1465.000 199.000
1463.000 197.000
1460.000 198.000
1459.000 196.000
1462.000 198.000
1462.000 195.000
1466.000 195.000
1468.000 191.000
1466.000 190.000
1464.000 193.000
1462.000 190.000
1458.000 189.000
1463.000 186.000
1463.000 184.000
1442.000 176.000
1440.000 177.000
1441.000 176.000
1438.000 174.000
1437.000 176.000
1437.000 173.000
1425.000 169.000
1415.000 163.000
1398.000 158.000
1372.000 147.000
1369.000 148.000
1373.000 150.000
1372.000 152.000
1368.000 153.000
1373.000 156.000
1370.000 156.000
1369.000 154.000
1368.000 156.000
1363.000 157.000
1363.000 153.000
1361.000 156.000
1360.000 154.000
1358.000 155.000
1361.000 153.000
1365.000 153.000
1364.000 155.000
1366.000 156.000
1367.000 153.000
1371.000 151.000
1370.000 149.000
1368.000 150.000
1370.000 147.000
1369.000 146.000
1364.000 147.000
1366.000 146.000
1352.000 140.000
1350.000 140.000
1349.000 142.000
1351.000 142.000
1351.000 144.000
1354.000 147.000
1355.000 144.000
1359.000 146.000
1357.000 146.000
1356.000 148.000
1353.000 146.000
1350.000 147.000
1352.000 145.000
1351.000 144.000
1344.000 146.000
1340.000 144.000
1341.000 143.000
1338.000 140.000
1338.000 135.000
1328.000 131.000
1322.000 130.000
1322.000 132.000
1320.000 132.000
1322.000 130.000
1321.000 129.000
1298.000 129.000
1289.000 127.000
1279.000 122.000
1256.000 116.000
1242.000 114.000
1235.000 115.000
1219.000 111.000
1173.000 109.000
1145.000 103.000
1144.000 105.000
1147.000 106.000
1144.000 106.000
1142.000 108.000
1145.000 110.000
1144.000 113.000
1134.000 117.000
1133.000 115.000
1130.000 116.000
1126.000 114.000
1126.000 111.000
1129.000 110.000
1126.000 109.000
1125.000 104.000
1123.000 106.000
1119.000 106.000
1118.000 103.000
1115.000 107.000
1118.000 108.000
1117.000 111.000
1116.000 110.000
1114.000 112.000
1118.000 114.000
1118.000 116.000
1116.000 113.000
1115.000 117.000
1113.000 116.000
1114.000 114.000
1112.000 109.000
1116.000 108.000
1112.000 107.000
1112.000 104.000
1117.000 101.000
1118.000 103.000
1121.000 100.000
1125.000 101.000
1126.000 105.000
1127.000 103.000
1134.000 103.000
1133.000 104.000
1135.000 106.000
1136.000 104.000
1139.000 104.000
1143.000 107.000
1143.000 104.000
1145.000 103.000
1144.000 102.000
1126.000 99.000
1114.000 95.000
1086.000 93.000
1064.000 87.000
1052.000 87.000
1040.000 84.000
1023.000 85.000
1020.000 83.000
996.000 83.000
989.000 81.000
955.000 82.000
939.000 78.000
902.000 78.000
894.000 76.000
872.000 76.000
859.000 73.000
843.000 73.000
835.000 75.000
811.000 73.000
805.000 71.000
784.000 72.000
763.000 69.000
688.000 72.000
678.000 74.000
678.000 76.000
673.000 75.000
655.000 78.000
638.000 78.000
626.000 76.000
578.000 76.000
571.000 78.000
556.000 78.000
541.000 83.000
519.000 84.000
512.000 87.000
474.000 93.000
467.000 92.000
443.000 95.000
413.000 95.000
402.000 99.000
410.000 99.000
410.000 102.000
408.000 104.000
405.000 104.000
405.000 100.000
403.000 101.000
403.000 103.000
401.000 103.000
401.000 101.000
403.000 100.000
398.000 99.000
389.000 102.000
381.000 102.000
359.000 106.000
348.000 106.000
344.000 108.000
315.000 108.000
307.000 111.000
311.000 114.000
315.000 114.000
312.000 118.000
310.000 115.000
309.000 116.000
310.000 120.000
308.000 123.000
299.000 122.000
296.000 119.000
294.000 120.000
293.000 118.000
290.000 120.000
289.000 118.000
297.000 117.000
296.000 119.000
298.000 120.000
305.000 116.000
305.000 119.000
303.000 120.000
306.000 122.000
308.000 116.000
311.000 114.000
307.000 113.000
307.000 111.000
302.000 113.000
304.000 114.000
299.000 117.000
303.000 114.000
300.000 113.000
281.000 118.000
249.000 121.000
233.000 128.000
204.000 136.000
207.000 137.000
207.000 139.000
205.000 140.000
205.000 137.000
202.000 136.000
202.000 141.000
200.000 141.000
200.000 139.000
202.000 138.000
201.000 137.000
195.000 139.000
198.000 140.000
198.000 143.000
196.000 143.000
195.000 141.000
194.000 144.000
191.000 143.000
196.000 140.000
194.000 139.000
181.000 144.000
170.000 146.000
146.000 156.000
148.000 157.000
144.000 156.000
121.000 165.000
121.000 167.000
118.000 166.000
112.000 169.000
95.000 172.000
81.000 179.000
65.000 179.000
60.000 181.000
46.000 182.000
37.000 184.000
