ply
format ascii 1.0
comment Dominant contour extracted from bimodal image.
comment scale factor = 1.000000
comment kernel width = 3
comment decimate eps = 1.000000
comment orig shape   = (222, 921)
comment threshold    = 226.500000
comment Written with hapPLY (https://github.com/nmwsharp/happly)
element flags 0
property uchar closed
element vertex 120
property double x
property double y
end_header
41.000 203.000
45.000 206.000
58.000 205.000
66.000 201.000
113.000 201.000
129.000 198.000
144.000 198.000
153.000 195.000
161.000 195.000
168.000 197.000
182.000 196.000
190.000 198.000
221.000 195.000
229.000 197.000
236.000 196.000
248.000 198.000
262.000 198.000
268.000 200.000
294.000 200.000
295.000 202.000
302.000 200.000
324.000 202.000
330.000 200.000
359.000 200.000
370.000 197.000
422.000 194.000
435.000 190.000
453.000 190.000
466.000 187.000
503.000 187.000
507.000 185.000
521.000 185.000
528.000 182.000
541.000 180.000
552.000 181.000
563.000 178.000
578.000 177.000
594.000 171.000
610.000 169.000
618.000 166.000
652.000 159.000
681.000 149.000
696.000 146.000
733.000 131.000
749.000 129.000
765.000 122.000
774.000 116.000
783.000 114.000
794.000 108.000
815.000 101.000
827.000 94.000
838.000 90.000
843.000 85.000
857.000 78.000
867.000 68.000
872.000 65.000
882.000 54.000
892.000 49.000
890.000 47.000
879.000 47.000
871.000 41.000
856.000 38.000
844.000 33.000
816.000 31.000
812.000 32.000
786.000 29.000
756.000 33.000
745.000 33.000
725.000 37.000
694.000 36.000
687.000 38.000
666.000 37.000
656.000 39.000
612.000 38.000
605.000 41.000
593.000 41.000
584.000 39.000
573.000 42.000
557.000 41.000
549.000 44.000
505.000 46.000
496.000 50.000
485.000 51.000
476.000 54.000
461.000 55.000
452.000 58.000
444.000 57.000
421.000 63.000
391.000 65.000
356.000 73.000
345.000 73.000
335.000 77.000
322.000 78.000
310.000 82.000
303.000 82.000
296.000 85.000
286.000 86.000
278.000 90.000
253.000 96.000
244.000 101.000
221.000 106.000
206.000 113.000
194.000 116.000
180.000 125.000
161.000 133.000
145.000 143.000
121.000 154.000
110.000 162.000
105.000 163.000
96.000 169.000
86.000 173.000
74.000 182.000
71.000 186.000
58.000 189.000
58.000 191.000
54.000 191.000
54.000 193.000
52.000 192.000
48.000 195.000
42.000 196.000
