ply
format ascii 1.0
comment Dominant contour extracted from bimodal image.
comment scale factor = 1.000000
comment kernel width = 3
comment decimate eps = 1.000000
comment orig shape   = (266, 1076)
comment threshold    = 242.000000
comment Written with hapPLY (https://github.com/nmwsharp/happly)
element flags 0
property uchar closed
element vertex 267
property double x
property double y
end_header
1051.000 153.000
1048.000 149.000
1046.000 150.000
1042.000 146.000
1037.000 144.000
1029.000 144.000
1028.000 142.000
1027.000 143.000
1022.000 141.000
1015.000 135.000
1012.000 135.000
1000.000 127.000
994.000 126.000
990.000 123.000
988.000 124.000
986.000 122.000
978.000 122.000
973.000 119.000
963.000 118.000
953.000 112.000
950.000 112.000
947.000 108.000
946.000 110.000
939.000 108.000
937.000 104.000
936.000 107.000
934.000 107.000
933.000 104.000
932.000 106.000
923.000 105.000
922.000 103.000
918.000 104.000
908.000 100.000
896.000 100.000
894.000 98.000
892.000 99.000
891.000 96.000
890.000 98.000
878.000 98.000
874.000 96.000
869.000 96.000
868.000 94.000
861.000 95.000
855.000 93.000
848.000 93.000
846.000 91.000
845.000 92.000
838.000 89.000
836.000 90.000
833.000 88.000
830.000 90.000
824.000 86.000
814.000 83.000
806.000 84.000
801.000 83.000
799.000 81.000
795.000 82.000
788.000 80.000
775.000 81.000
773.000 79.000
769.000 79.000
766.000 77.000
760.000 78.000
754.000 77.000
752.000 75.000
750.000 76.000
748.000 74.000
739.000 74.000
734.000 72.000
724.000 72.000
718.000 75.000
711.000 72.000
704.000 72.000
697.000 69.000
694.000 70.000
681.000 66.000
678.000 67.000
674.000 65.000
664.000 67.000
664.000 65.000
661.000 66.000
654.000 63.000
648.000 64.000
639.000 61.000
620.000 58.000
599.000 60.000
593.000 62.000
552.000 62.000
532.000 59.000
523.000 60.000
497.000 58.000
468.000 62.000
463.000 61.000
462.000 63.000
418.000 63.000
416.000 65.000
414.000 64.000
412.000 66.000
411.000 65.000
403.000 68.000
401.000 67.000
397.000 69.000
387.000 69.000
379.000 71.000
376.000 70.000
367.000 73.000
325.000 76.000
320.000 75.000
317.000 77.000
300.000 77.000
292.000 79.000
288.000 78.000
283.000 80.000
277.000 79.000
275.000 81.000
272.000 80.000
262.000 82.000
239.000 81.000
222.000 83.000
217.000 85.000
205.000 85.000
189.000 88.000
184.000 87.000
177.000 89.000
152.000 89.000
139.000 87.000
133.000 89.000
88.000 89.000
82.000 91.000
65.000 90.000
60.000 92.000
50.000 92.000
44.000 89.000
35.000 89.000
22.000 85.000
19.000 89.000
18.000 95.000
21.000 101.000
25.000 101.000
26.000 103.000
29.000 102.000
27.000 104.000
28.000 106.000
32.000 106.000
34.000 104.000
34.000 107.000
44.000 104.000
46.000 105.000
44.000 106.000
46.000 108.000
51.000 106.000
55.000 106.000
56.000 108.000
59.000 105.000
66.000 107.000
68.000 109.000
71.000 108.000
81.000 111.000
104.000 122.000
110.000 128.000
111.000 127.000
125.000 135.000
134.000 143.000
147.000 146.000
151.000 149.000
152.000 148.000
166.000 157.000
180.000 159.000
194.000 164.000
210.000 167.000
212.000 170.000
214.000 168.000
223.000 173.000
224.000 172.000
231.000 175.000
235.000 175.000
242.000 177.000
244.000 179.000
246.000 178.000
250.000 181.000
251.000 180.000
269.000 187.000
270.000 189.000
271.000 188.000
274.000 190.000
289.000 190.000
310.000 195.000
316.000 194.000
317.000 196.000
326.000 195.000
358.000 201.000
370.000 201.000
373.000 203.000
376.000 202.000
384.000 205.000
389.000 205.000
399.000 209.000
401.000 208.000
425.000 213.000
445.000 213.000
454.000 215.000
455.000 217.000
458.000 216.000
470.000 220.000
471.000 219.000
476.000 221.000
491.000 222.000
493.000 224.000
499.000 223.000
501.000 225.000
506.000 224.000
551.000 233.000
579.000 232.000
596.000 234.000
597.000 233.000
598.000 235.000
617.000 235.000
620.000 233.000
651.000 233.000
660.000 235.000
663.000 234.000
664.000 236.000
665.000 234.000
685.000 235.000
694.000 232.000
713.000 232.000
732.000 225.000
739.000 225.000
748.000 222.000
758.000 222.000
764.000 220.000
772.000 221.000
793.000 217.000
812.000 217.000
830.000 212.000
840.000 212.000
844.000 210.000
850.000 211.000
869.000 205.000
877.000 205.000
879.000 203.000
885.000 203.000
888.000 201.000
889.000 202.000
893.000 199.000
906.000 198.000
909.000 196.000
917.000 195.000
921.000 196.000
934.000 193.000
935.000 194.000
949.000 187.000
951.000 189.000
952.000 186.000
953.000 187.000
959.000 185.000
968.000 180.000
985.000 175.000
988.000 176.000
998.000 171.000
999.000 172.000
1002.000 169.000
1006.000 168.000
1016.000 158.000
1030.000 150.000
1043.000 151.000
1047.000 154.000
