ply
format ascii 1.0
comment Dominant contour extracted from bimodal image.
comment scale factor = 0.851064
comment kernel width = 3
comment decimate eps = 1.000000
comment orig shape   = (470, 1911)
comment threshold    = 218.500000
comment Written with hapPLY (https://github.com/nmwsharp/happly)
element flags 0
property uchar closed
element vertex 194
property double x
property double y
end_header
64.000 197.000
66.000 200.000
73.000 202.000
108.000 207.000
113.000 209.000
153.000 213.000
201.000 224.000
218.000 234.000
243.000 262.000
245.000 261.000
244.000 259.000
247.000 258.000
249.000 261.000
247.000 263.000
245.000 261.000
244.000 263.000
251.000 271.000
260.000 278.000
303.000 303.000
321.000 309.000
328.000 313.000
353.000 319.000
368.000 326.000
381.000 328.000
403.000 336.000
413.000 337.000
425.000 343.000
432.000 343.000
442.000 348.000
463.000 354.000
473.000 352.000
489.000 353.000
501.000 350.000
515.000 350.000
534.000 345.000
550.000 345.000
564.000 342.000
575.000 342.000
589.000 344.000
609.000 344.000
615.000 346.000
633.000 346.000
646.000 349.000
661.000 349.000
676.000 352.000
697.000 352.000
702.000 354.000
708.000 354.000
714.000 357.000
721.000 355.000
745.000 353.000
753.000 350.000
773.000 349.000
803.000 343.000
820.000 342.000
828.000 339.000
854.000 339.000
857.000 341.000
861.000 339.000
888.000 338.000
896.000 336.000
914.000 337.000
921.000 334.000
950.000 328.000
959.000 322.000
972.000 325.000
984.000 325.000
1004.000 322.000
1091.000 320.000
1141.000 309.000
1149.000 309.000
1153.000 307.000
1185.000 303.000
1195.000 299.000
1241.000 287.000
1270.000 285.000
1294.000 278.000
1315.000 269.000
1346.000 262.000
1355.000 258.000
1365.000 257.000
1389.000 247.000
1412.000 240.000
1433.000 228.000
1452.000 223.000
1480.000 208.000
1493.000 204.000
1499.000 200.000
1510.000 196.000
1521.000 189.000
1526.000 183.000
1533.000 182.000
1536.000 178.000
1531.000 177.000
1526.000 170.000
1525.000 173.000
1524.000 172.000
1526.000 169.000
1516.000 148.000
1508.000 140.000
1490.000 127.000
1478.000 125.000
1474.000 122.000
1467.000 121.000
1463.000 118.000
1449.000 113.000
1443.000 113.000
1433.000 110.000
1422.000 109.000
1414.000 106.000
1409.000 106.000
1391.000 99.000
1379.000 98.000
1365.000 93.000
1346.000 92.000
1337.000 89.000
1283.000 86.000
1277.000 84.000
1252.000 81.000
1211.000 81.000
1193.000 78.000
1180.000 79.000
1172.000 77.000
1132.000 78.000
1116.000 75.000
1086.000 75.000
1080.000 77.000
1065.000 77.000
1059.000 75.000
1033.000 75.000
1027.000 73.000
1016.000 74.000
1007.000 71.000
970.000 71.000
961.000 74.000
945.000 75.000
928.000 80.000
895.000 81.000
882.000 75.000
870.000 73.000
866.000 70.000
834.000 65.000
824.000 61.000
809.000 61.000
801.000 59.000
793.000 59.000
790.000 61.000
786.000 61.000
776.000 58.000
761.000 61.000
746.000 68.000
741.000 67.000
736.000 69.000
721.000 70.000
697.000 75.000
686.000 75.000
655.000 87.000
638.000 89.000
594.000 101.000
574.000 100.000
566.000 103.000
554.000 103.000
541.000 98.000
504.000 96.000
501.000 98.000
485.000 98.000
474.000 103.000
464.000 103.000
444.000 110.000
435.000 110.000
425.000 118.000
408.000 120.000
393.000 119.000
379.000 122.000
324.000 148.000
314.000 156.000
313.000 161.000
305.000 161.000
286.000 168.000
243.000 195.000
240.000 195.000
230.000 200.000
220.000 201.000
211.000 206.000
201.000 208.000
188.000 208.000
166.000 205.000
144.000 200.000
132.000 195.000
98.000 189.000
84.000 184.000
73.000 184.000
71.000 188.000
66.000 187.000
