ply
format ascii 1.0
comment Dominant contour extracted from bimodal image.
comment scale factor = 0.705467
comment kernel width = 3
comment decimate eps = 1.000000
comment orig shape   = (567, 2428)
comment threshold    = 248.000000
comment Written with hapPLY (https://github.com/nmwsharp/happly)
element flags 0
property uchar closed
element vertex 1018
property double x
property double y
end_header
1631.000 201.000
1630.000 200.000
1628.000 202.000
1629.000 201.000
1623.000 197.000
1625.000 196.000
1621.000 194.000
1618.000 196.000
1614.000 196.000
1614.000 190.000
1613.000 189.000
1611.000 192.000
1610.000 190.000
1608.000 190.000
1609.000 185.000
1606.000 184.000
1606.000 187.000
1605.000 183.000
1603.000 185.000
1603.000 181.000
1600.000 181.000
1597.000 177.000
1597.000 173.000
1593.000 173.000
1592.000 171.000
1591.000 172.000
1589.000 168.000
1588.000 170.000
1587.000 169.000
1589.000 168.000
1586.000 166.000
1586.000 164.000
1583.000 161.000
1581.000 162.000
1582.000 164.000
1580.000 160.000
1577.000 161.000
1576.000 160.000
1577.000 161.000
1578.000 159.000
1574.000 158.000
1574.000 155.000
1571.000 157.000
1567.000 155.000
1565.000 152.000
1564.000 153.000
1564.000 151.000
1562.000 152.000
1558.000 150.000
1557.000 146.000
1555.000 146.000
1554.000 148.000
1552.000 144.000
1550.000 144.000
1549.000 146.000
1547.000 143.000
1546.000 144.000
1543.000 141.000
1542.000 142.000
1535.000 140.000
1531.000 136.000
1530.000 137.000
1531.000 136.000
1528.000 133.000
1525.000 135.000
1521.000 132.000
1519.000 133.000
1519.000 131.000
1515.000 127.000
1515.000 131.000
1511.000 127.000
1506.000 128.000
1505.000 124.000
1503.000 125.000
1503.000 127.000
1502.000 124.000
1497.000 124.000
1487.000 115.000
1479.000 117.000
1476.000 113.000
1461.000 110.000
1460.000 108.000
1451.000 108.000
1449.000 104.000
1448.000 107.000
1445.000 104.000
1443.000 106.000
1436.000 102.000
1434.000 103.000
1435.000 104.000
1435.000 100.000
1426.000 101.000
1432.000 101.000
1432.000 99.000
1418.000 100.000
1414.000 97.000
1417.000 95.000
1416.000 94.000
1412.000 97.000
1410.000 93.000
1408.000 95.000
1405.000 93.000
1400.000 93.000
1398.000 91.000
1393.000 91.000
1393.000 89.000
1387.000 90.000
1387.000 87.000
1384.000 90.000
1373.000 85.000
1370.000 82.000
1368.000 83.000
1364.000 80.000
1361.000 80.000
1359.000 76.000
1355.000 78.000
1346.000 74.000
1348.000 73.000
1346.000 71.000
1344.000 72.000
1344.000 74.000
1343.000 71.000
1340.000 72.000
1342.000 73.000
1340.000 73.000
1335.000 70.000
1332.000 71.000
1331.000 69.000
1327.000 70.000
1324.000 69.000
1326.000 68.000
1325.000 66.000
1322.000 68.000
1321.000 66.000
1317.000 65.000
1317.000 67.000
1312.000 62.000
1311.000 64.000
1304.000 63.000
1305.000 61.000
1303.000 60.000
1300.000 63.000
1301.000 62.000
1298.000 62.000
1297.000 59.000
1288.000 60.000
1272.000 56.000
1278.000 56.000
1279.000 58.000
1282.000 57.000
1280.000 56.000
1280.000 54.000
1264.000 55.000
1257.000 53.000
1256.000 51.000
1255.000 53.000
1244.000 48.000
1236.000 48.000
1235.000 45.000
1219.000 45.000
1216.000 42.000
1212.000 42.000
1210.000 39.000
1208.000 41.000
1207.000 38.000
1206.000 40.000
1202.000 38.000
1200.000 39.000
1202.000 38.000
1201.000 37.000
1196.000 38.000
1195.000 36.000
1194.000 38.000
1180.000 36.000
1179.000 34.000
1178.000 36.000
1175.000 34.000
1167.000 34.000
1165.000 36.000
1136.000 36.000
1129.000 35.000
1126.000 33.000
1120.000 34.000
1117.000 32.000
1110.000 34.000
1109.000 32.000
1105.000 33.000
1105.000 31.000
1103.000 33.000
1097.000 33.000
1096.000 31.000
1091.000 32.000
1074.000 29.000
1073.000 30.000
1069.000 28.000
1055.000 28.000
1054.000 26.000
1053.000 28.000
1049.000 29.000
1052.000 28.000
1052.000 26.000
1047.000 26.000
1047.000 28.000
1045.000 29.000
1045.000 27.000
1043.000 26.000
1042.000 30.000
1041.000 27.000
1039.000 28.000
1039.000 30.000
1028.000 30.000
1024.000 29.000
1026.000 28.000
1025.000 27.000
1018.000 28.000
1022.000 27.000
1020.000 25.000
1013.000 27.000
1011.000 25.000
989.000 26.000
980.000 24.000
970.000 24.000
969.000 22.000
967.000 24.000
965.000 20.000
963.000 23.000
964.000 24.000
958.000 24.000
950.000 21.000
924.000 21.000
923.000 19.000
922.000 22.000
921.000 20.000
920.000 22.000
918.000 20.000
917.000 23.000
915.000 21.000
915.000 23.000
911.000 25.000
909.000 24.000
908.000 26.000
889.000 26.000
887.000 24.000
880.000 24.000
875.000 21.000
871.000 23.000
874.000 24.000
868.000 24.000
867.000 22.000
866.000 24.000
865.000 22.000
863.000 24.000
860.000 23.000
859.000 25.000
841.000 26.000
838.000 24.000
835.000 26.000
819.000 26.000
811.000 24.000
810.000 26.000
809.000 24.000
806.000 26.000
801.000 25.000
800.000 27.000
790.000 29.000
787.000 28.000
786.000 30.000
780.000 28.000
779.000 29.000
781.000 30.000
779.000 31.000
774.000 30.000
771.000 32.000
770.000 30.000
769.000 32.000
764.000 31.000
763.000 33.000
753.000 33.000
737.000 38.000
735.000 36.000
731.000 38.000
733.000 39.000
728.000 37.000
728.000 40.000
723.000 39.000
722.000 42.000
718.000 43.000
696.000 43.000
695.000 45.000
687.000 44.000
687.000 46.000
684.000 46.000
683.000 44.000
682.000 46.000
680.000 45.000
680.000 47.000
679.000 46.000
677.000 48.000
672.000 47.000
671.000 51.000
672.000 50.000
669.000 48.000
666.000 49.000
665.000 53.000
662.000 55.000
660.000 54.000
654.000 56.000
652.000 54.000
648.000 60.000
645.000 59.000
645.000 61.000
621.000 61.000
618.000 63.000
615.000 60.000
615.000 64.000
612.000 65.000
608.000 64.000
601.000 66.000
600.000 64.000
598.000 67.000
594.000 65.000
591.000 68.000
587.000 69.000
584.000 67.000
581.000 71.000
572.000 70.000
566.000 72.000
562.000 70.000
561.000 72.000
564.000 73.000
561.000 73.000
560.000 70.000
559.000 72.000
554.000 73.000
553.000 76.000
547.000 76.000
545.000 79.000
535.000 78.000
530.000 80.000
529.000 79.000
527.000 81.000
520.000 80.000
511.000 84.000
507.000 83.000
507.000 85.000
506.000 81.000
503.000 85.000
501.000 82.000
496.000 85.000
491.000 84.000
491.000 86.000
485.000 85.000
480.000 88.000
475.000 88.000
471.000 91.000
461.000 91.000
451.000 95.000
445.000 94.000
444.000 95.000
446.000 96.000
436.000 96.000
435.000 97.000
437.000 98.000
424.000 99.000
410.000 105.000
386.000 108.000
383.000 110.000
375.000 111.000
371.000 114.000
372.000 115.000
360.000 115.000
357.000 117.000
356.000 115.000
355.000 117.000
347.000 117.000
346.000 119.000
341.000 120.000
340.000 118.000
338.000 118.000
337.000 121.000
334.000 121.000
334.000 123.000
332.000 124.000
329.000 123.000
325.000 126.000
322.000 123.000
320.000 126.000
322.000 127.000
320.000 126.000
319.000 128.000
316.000 127.000
315.000 129.000
309.000 130.000
305.000 129.000
301.000 132.000
294.000 134.000
291.000 133.000
288.000 136.000
286.000 136.000
285.000 134.000
283.000 137.000
278.000 139.000
270.000 138.000
267.000 141.000
268.000 139.000
266.000 138.000
265.000 142.000
262.000 141.000
261.000 143.000
259.000 142.000
255.000 145.000
251.000 144.000
250.000 146.000
248.000 145.000
243.000 147.000
242.000 145.000
236.000 148.000
232.000 147.000
227.000 151.000
225.000 149.000
224.000 152.000
223.000 149.000
222.000 152.000
221.000 149.000
215.000 150.000
215.000 153.000
213.000 155.000
208.000 156.000
204.000 154.000
203.000 156.000
206.000 157.000
204.000 158.000
199.000 156.000
198.000 159.000
197.000 158.000
192.000 161.000
191.000 160.000
189.000 163.000
184.000 163.000
183.000 165.000
182.000 163.000
179.000 165.000
181.000 166.000
175.000 166.000
172.000 169.000
173.000 168.000
170.000 167.000
168.000 169.000
170.000 170.000
165.000 169.000
162.000 172.000
157.000 172.000
153.000 175.000
151.000 173.000
149.000 175.000
150.000 176.000
146.000 177.000
143.000 180.000
142.000 178.000
141.000 182.000
139.000 184.000
137.000 183.000
136.000 186.000
134.000 185.000
133.000 187.000
123.000 190.000
119.000 189.000
117.000 191.000
119.000 192.000
115.000 195.000
114.000 194.000
113.000 196.000
105.000 193.000
102.000 195.000
101.000 194.000
100.000 196.000
94.000 196.000
93.000 198.000
92.000 197.000
91.000 199.000
85.000 201.000
84.000 199.000
82.000 199.000
80.000 201.000
81.000 202.000
68.000 209.000
67.000 206.000
63.000 204.000
60.000 205.000
62.000 204.000
59.000 203.000
56.000 206.000
51.000 206.000
49.000 208.000
51.000 209.000
49.000 209.000
46.000 212.000
45.000 210.000
43.000 212.000
44.000 213.000
39.000 212.000
38.000 213.000
42.000 215.000
35.000 215.000
35.000 217.000
33.000 216.000
30.000 219.000
33.000 220.000
31.000 223.000
31.000 226.000
33.000 228.000
29.000 225.000
28.000 227.000
38.000 234.000
41.000 238.000
40.000 237.000
38.000 239.000
42.000 242.000
44.000 240.000
47.000 245.000
50.000 244.000
52.000 247.000
55.000 246.000
55.000 244.000
57.000 247.000
64.000 243.000
67.000 247.000
68.000 242.000
76.000 241.000
84.000 243.000
85.000 246.000
93.000 246.000
91.000 247.000
92.000 248.000
99.000 246.000
103.000 249.000
109.000 249.000
110.000 252.000
112.000 250.000
113.000 252.000
118.000 252.000
118.000 254.000
127.000 254.000
130.000 258.000
133.000 257.000
132.000 255.000
134.000 258.000
136.000 256.000
140.000 259.000
141.000 257.000
151.000 259.000
152.000 258.000
157.000 263.000
159.000 262.000
159.000 260.000
160.000 262.000
165.000 262.000
166.000 264.000
169.000 264.000
170.000 261.000
173.000 261.000
170.000 261.000
170.000 263.000
175.000 262.000
186.000 265.000
186.000 269.000
189.000 266.000
195.000 266.000
203.000 270.000
209.000 270.000
210.000 271.000
209.000 270.000
208.000 272.000
211.000 275.000
212.000 272.000
213.000 274.000
214.000 272.000
219.000 272.000
222.000 274.000
224.000 273.000
226.000 275.000
230.000 274.000
231.000 276.000
241.000 276.000
244.000 282.000
246.000 282.000
246.000 285.000
252.000 284.000
253.000 286.000
255.000 285.000
261.000 288.000
263.000 287.000
266.000 291.000
268.000 289.000
268.000 291.000
270.000 290.000
273.000 292.000
277.000 292.000
278.000 294.000
285.000 294.000
286.000 296.000
289.000 295.000
295.000 299.000
299.000 298.000
304.000 303.000
305.000 301.000
309.000 301.000
312.000 303.000
316.000 303.000
317.000 305.000
323.000 305.000
325.000 306.000
325.000 308.000
328.000 308.000
329.000 307.000
327.000 306.000
329.000 306.000
330.000 309.000
332.000 307.000
331.000 306.000
334.000 308.000
338.000 307.000
348.000 310.000
352.000 313.000
356.000 312.000
357.000 314.000
364.000 314.000
368.000 317.000
369.000 315.000
371.000 315.000
371.000 317.000
382.000 317.000
383.000 320.000
387.000 320.000
389.000 318.000
393.000 318.000
394.000 320.000
412.000 320.000
412.000 322.000
419.000 322.000
420.000 326.000
421.000 322.000
422.000 325.000
423.000 322.000
426.000 322.000
429.000 326.000
433.000 324.000
440.000 326.000
444.000 325.000
450.000 327.000
457.000 327.000
455.000 329.000
456.000 330.000
462.000 328.000
460.000 330.000
461.000 331.000
464.000 329.000
467.000 329.000
468.000 331.000
485.000 330.000
492.000 332.000
508.000 333.000
510.000 335.000
526.000 335.000
530.000 333.000
533.000 336.000
536.000 334.000
546.000 334.000
548.000 337.000
548.000 334.000
556.000 334.000
555.000 335.000
557.000 336.000
558.000 334.000
575.000 334.000
576.000 332.000
581.000 332.000
584.000 334.000
586.000 333.000
587.000 336.000
588.000 334.000
589.000 336.000
590.000 334.000
593.000 336.000
594.000 334.000
596.000 337.000
598.000 335.000
599.000 337.000
605.000 336.000
611.000 339.000
612.000 337.000
618.000 339.000
625.000 339.000
628.000 343.000
629.000 341.000
637.000 343.000
639.000 345.000
649.000 344.000
658.000 347.000
660.000 346.000
661.000 349.000
663.000 347.000
672.000 349.000
682.000 349.000
681.000 351.000
684.000 353.000
685.000 350.000
686.000 353.000
688.000 351.000
693.000 351.000
696.000 354.000
698.000 353.000
697.000 352.000
699.000 352.000
700.000 355.000
703.000 353.000
713.000 353.000
714.000 355.000
725.000 354.000
730.000 356.000
739.000 356.000
740.000 358.000
744.000 357.000
746.000 359.000
759.000 358.000
761.000 360.000
761.000 358.000
771.000 358.000
772.000 360.000
776.000 358.000
796.000 359.000
801.000 357.000
802.000 360.000
805.000 356.000
805.000 359.000
810.000 357.000
808.000 356.000
818.000 356.000
821.000 359.000
821.000 356.000
839.000 358.000
840.000 357.000
840.000 359.000
846.000 357.000
847.000 360.000
849.000 359.000
848.000 357.000
852.000 360.000
853.000 358.000
859.000 358.000
861.000 360.000
863.000 358.000
867.000 361.000
868.000 358.000
889.000 359.000
889.000 357.000
896.000 357.000
897.000 359.000
901.000 359.000
905.000 356.000
911.000 356.000
910.000 358.000
912.000 358.000
913.000 360.000
915.000 356.000
919.000 357.000
920.000 359.000
926.000 356.000
936.000 356.000
937.000 358.000
940.000 358.000
944.000 355.000
959.000 354.000
961.000 352.000
965.000 353.000
965.000 351.000
968.000 351.000
966.000 352.000
967.000 354.000
973.000 352.000
971.000 351.000
979.000 351.000
978.000 352.000
980.000 353.000
981.000 351.000
988.000 352.000
989.000 351.000
987.000 350.000
1005.000 349.000
1026.000 350.000
1034.000 348.000
1032.000 350.000
1033.000 351.000
1038.000 351.000
1039.000 350.000
1036.000 348.000
1062.000 342.000
1063.000 344.000
1065.000 342.000
1087.000 343.000
1092.000 345.000
1095.000 343.000
1111.000 343.000
1114.000 341.000
1120.000 342.000
1123.000 340.000
1123.000 342.000
1129.000 342.000
1130.000 341.000
1126.000 339.000
1134.000 340.000
1139.000 338.000
1142.000 339.000
1143.000 337.000
1144.000 339.000
1145.000 336.000
1149.000 336.000
1151.000 339.000
1153.000 336.000
1152.000 335.000
1169.000 336.000
1170.000 335.000
1167.000 334.000
1178.000 334.000
1186.000 331.000
1187.000 333.000
1188.000 330.000
1195.000 331.000
1196.000 329.000
1201.000 331.000
1202.000 330.000
1199.000 328.000
1201.000 329.000
1202.000 327.000
1212.000 325.000
1213.000 326.000
1216.000 323.000
1220.000 322.000
1224.000 323.000
1224.000 320.000
1229.000 320.000
1231.000 318.000
1236.000 318.000
1236.000 320.000
1262.000 320.000
1264.000 318.000
1263.000 317.000
1267.000 316.000
1265.000 317.000
1268.000 318.000
1270.000 316.000
1269.000 315.000
1275.000 313.000
1276.000 315.000
1277.000 313.000
1278.000 314.000
1282.000 312.000
1284.000 315.000
1286.000 312.000
1285.000 311.000
1286.000 312.000
1287.000 310.000
1300.000 308.000
1302.000 309.000
1307.000 307.000
1318.000 309.000
1319.000 308.000
1316.000 306.000
1320.000 308.000
1321.000 305.000
1326.000 304.000
1328.000 306.000
1328.000 303.000
1333.000 302.000
1334.000 304.000
1337.000 301.000
1341.000 301.000
1338.000 303.000
1339.000 304.000
1347.000 304.000
1347.000 301.000
1350.000 302.000
1353.000 299.000
1354.000 300.000
1355.000 298.000
1359.000 298.000
1361.000 296.000
1366.000 297.000
1368.000 295.000
1368.000 298.000
1374.000 297.000
1374.000 295.000
1370.000 294.000
1373.000 295.000
1374.000 293.000
1379.000 291.000
1383.000 292.000
1386.000 290.000
1387.000 293.000
1388.000 289.000
1390.000 289.000
1390.000 291.000
1393.000 292.000
1394.000 289.000
1392.000 289.000
1392.000 287.000
1401.000 286.000
1401.000 284.000
1403.000 286.000
1405.000 285.000
1406.000 287.000
1409.000 285.000
1407.000 283.000
1415.000 280.000
1416.000 281.000
1417.000 279.000
1420.000 281.000
1422.000 279.000
1430.000 279.000
1431.000 281.000
1432.000 279.000
1434.000 280.000
1435.000 278.000
1436.000 279.000
1442.000 276.000
1437.000 278.000
1444.000 280.000
1444.000 275.000
1452.000 273.000
1449.000 272.000
1455.000 272.000
1458.000 268.000
1465.000 266.000
1467.000 269.000
1469.000 265.000
1468.000 267.000
1470.000 269.000
1471.000 266.000
1472.000 269.000
1472.000 264.000
1483.000 262.000
1484.000 264.000
1487.000 264.000
1489.000 261.000
1490.000 262.000
1492.000 260.000
1496.000 261.000
1503.000 258.000
1504.000 260.000
1505.000 258.000
1506.000 259.000
1508.000 257.000
1511.000 257.000
1512.000 255.000
1513.000 257.000
1514.000 254.000
1514.000 256.000
1516.000 257.000
1521.000 250.000
1521.000 252.000
1525.000 249.000
1529.000 251.000
1530.000 248.000
1531.000 249.000
1534.000 246.000
1538.000 247.000
1541.000 245.000
1541.000 242.000
1545.000 242.000
1546.000 240.000
1547.000 242.000
1549.000 240.000
1548.000 239.000
1552.000 241.000
1555.000 238.000
1555.000 241.000
1557.000 241.000
1558.000 239.000
1559.000 241.000
1562.000 239.000
1561.000 236.000
1562.000 237.000
1566.000 234.000
1567.000 235.000
1571.000 231.000
1571.000 234.000
1573.000 236.000
1575.000 233.000
1573.000 230.000
1576.000 228.000
1582.000 229.000
1583.000 227.000
1581.000 226.000
1583.000 226.000
1583.000 224.000
1584.000 225.000
1586.000 223.000
1589.000 223.000
1590.000 225.000
1592.000 221.000
1590.000 220.000
1593.000 218.000
1594.000 219.000
1596.000 215.000
1598.000 217.000
1600.000 213.000
1603.000 214.000
1605.000 212.000
1605.000 209.000
1608.000 208.000
1606.000 207.000
1610.000 207.000
1612.000 203.000
1619.000 202.000
1619.000 204.000
1622.000 206.000
1624.000 205.000
1628.000 209.000
