ply
format ascii 1.0
comment Dominant contour extracted from bimodal image.
comment scale factor = 0.705467
comment kernel width = 3
comment decimate eps = 1.000000
comment orig shape   = (567, 2044)
comment threshold    = 245.500000
comment Written with hapPLY (https://github.com/nmwsharp/happly)
element flags 0
property uchar closed
element vertex 430
property double x
property double y
end_header
74.000 285.000
78.000 289.000
76.000 290.000
80.000 293.000
79.000 294.000
81.000 296.000
93.000 296.000
95.000 291.000
124.000 291.000
126.000 293.000
127.000 292.000
132.000 294.000
136.000 298.000
138.000 296.000
152.000 302.000
151.000 303.000
154.000 305.000
154.000 308.000
155.000 309.000
156.000 307.000
160.000 311.000
158.000 313.000
159.000 314.000
163.000 313.000
165.000 315.000
172.000 317.000
176.000 321.000
178.000 320.000
181.000 322.000
185.000 322.000
187.000 325.000
195.000 325.000
201.000 328.000
205.000 328.000
211.000 331.000
214.000 330.000
216.000 332.000
217.000 331.000
221.000 333.000
228.000 330.000
239.000 335.000
240.000 338.000
241.000 336.000
265.000 344.000
281.000 345.000
284.000 348.000
286.000 346.000
290.000 348.000
315.000 351.000
318.000 355.000
319.000 353.000
326.000 355.000
335.000 355.000
345.000 359.000
347.000 358.000
348.000 361.000
349.000 359.000
352.000 361.000
364.000 361.000
368.000 362.000
369.000 364.000
373.000 363.000
379.000 365.000
387.000 365.000
391.000 367.000
401.000 367.000
406.000 369.000
431.000 368.000
438.000 370.000
440.000 368.000
453.000 367.000
485.000 370.000
486.000 372.000
494.000 372.000
502.000 374.000
504.000 376.000
516.000 375.000
518.000 377.000
519.000 376.000
541.000 378.000
552.000 381.000
582.000 380.000
591.000 377.000
603.000 378.000
604.000 376.000
608.000 377.000
609.000 375.000
616.000 375.000
628.000 370.000
637.000 371.000
638.000 370.000
636.000 369.000
639.000 370.000
640.000 368.000
654.000 367.000
661.000 365.000
669.000 366.000
689.000 360.000
691.000 358.000
705.000 356.000
715.000 351.000
727.000 349.000
729.000 347.000
728.000 348.000
731.000 349.000
731.000 346.000
733.000 346.000
734.000 344.000
739.000 344.000
749.000 340.000
751.000 343.000
752.000 339.000
758.000 336.000
764.000 338.000
766.000 336.000
769.000 337.000
782.000 332.000
786.000 333.000
790.000 330.000
802.000 330.000
816.000 325.000
818.000 327.000
819.000 324.000
836.000 320.000
852.000 313.000
855.000 313.000
857.000 315.000
858.000 312.000
864.000 310.000
876.000 310.000
877.000 308.000
883.000 307.000
887.000 303.000
892.000 303.000
907.000 298.000
911.000 299.000
916.000 297.000
919.000 298.000
922.000 296.000
926.000 297.000
928.000 294.000
930.000 297.000
931.000 294.000
934.000 292.000
946.000 292.000
949.000 289.000
951.000 290.000
955.000 287.000
975.000 281.000
976.000 282.000
978.000 279.000
986.000 277.000
990.000 274.000
1012.000 270.000
1021.000 265.000
1025.000 265.000
1028.000 262.000
1041.000 258.000
1047.000 258.000
1049.000 256.000
1065.000 251.000
1069.000 248.000
1073.000 248.000
1075.000 246.000
1076.000 247.000
1081.000 243.000
1082.000 246.000
1083.000 243.000
1087.000 243.000
1092.000 240.000
1093.000 241.000
1094.000 239.000
1114.000 235.000
1115.000 236.000
1122.000 232.000
1130.000 231.000
1132.000 229.000
1139.000 227.000
1141.000 224.000
1150.000 224.000
1170.000 219.000
1172.000 220.000
1178.000 217.000
1186.000 218.000
1187.000 216.000
1195.000 214.000
1199.000 211.000
1200.000 212.000
1202.000 210.000
1206.000 210.000
1213.000 205.000
1215.000 207.000
1217.000 205.000
1216.000 206.000
1218.000 207.000
1225.000 201.000
1235.000 197.000
1239.000 197.000
1239.000 195.000
1247.000 195.000
1251.000 191.000
1257.000 190.000
1259.000 188.000
1261.000 189.000
1268.000 183.000
1271.000 184.000
1291.000 174.000
1298.000 174.000
1299.000 172.000
1302.000 172.000
1304.000 169.000
1307.000 169.000
1308.000 167.000
1313.000 166.000
1342.000 151.000
1343.000 152.000
1344.000 150.000
1346.000 150.000
1347.000 148.000
1356.000 143.000
1357.000 144.000
1360.000 140.000
1364.000 139.000
1365.000 135.000
1369.000 131.000
1370.000 132.000
1377.000 124.000
1381.000 123.000
1385.000 119.000
1387.000 120.000
1390.000 117.000
1402.000 116.000
1398.000 112.000
1389.000 112.000
1386.000 109.000
1385.000 110.000
1380.000 104.000
1379.000 105.000
1374.000 103.000
1370.000 98.000
1369.000 100.000
1356.000 91.000
1349.000 91.000
1346.000 88.000
1345.000 89.000
1342.000 85.000
1341.000 87.000
1339.000 87.000
1338.000 85.000
1324.000 86.000
1317.000 83.000
1308.000 83.000
1307.000 81.000
1304.000 82.000
1279.000 78.000
1276.000 79.000
1273.000 77.000
1260.000 77.000
1256.000 74.000
1233.000 74.000
1229.000 72.000
1219.000 72.000
1215.000 70.000
1212.000 71.000
1200.000 68.000
1186.000 69.000
1185.000 67.000
1153.000 67.000
1146.000 65.000
1131.000 65.000
1128.000 63.000
1118.000 63.000
1116.000 65.000
1107.000 63.000
1092.000 64.000
1088.000 62.000
1085.000 63.000
1084.000 61.000
980.000 61.000
978.000 63.000
967.000 63.000
959.000 65.000
957.000 67.000
933.000 67.000
929.000 69.000
928.000 67.000
926.000 69.000
918.000 69.000
917.000 67.000
916.000 69.000
897.000 68.000
891.000 70.000
864.000 70.000
860.000 72.000
845.000 71.000
826.000 74.000
809.000 73.000
807.000 75.000
800.000 77.000
772.000 76.000
757.000 79.000
750.000 78.000
745.000 79.000
743.000 81.000
728.000 81.000
708.000 85.000
701.000 84.000
694.000 86.000
685.000 86.000
666.000 91.000
654.000 91.000
653.000 93.000
647.000 95.000
637.000 95.000
636.000 97.000
629.000 100.000
625.000 100.000
611.000 105.000
605.000 105.000
603.000 107.000
596.000 107.000
585.000 111.000
567.000 113.000
561.000 112.000
555.000 115.000
554.000 113.000
552.000 115.000
551.000 114.000
540.000 118.000
530.000 118.000
529.000 120.000
526.000 119.000
516.000 124.000
508.000 124.000
498.000 129.000
489.000 129.000
485.000 131.000
481.000 130.000
480.000 132.000
475.000 134.000
469.000 134.000
461.000 137.000
460.000 136.000
459.000 138.000
447.000 142.000
443.000 146.000
438.000 146.000
437.000 147.000
439.000 148.000
432.000 150.000
428.000 154.000
423.000 152.000
419.000 155.000
418.000 154.000
417.000 156.000
410.000 158.000
395.000 157.000
394.000 159.000
389.000 159.000
388.000 161.000
377.000 165.000
374.000 165.000
373.000 163.000
371.000 167.000
370.000 166.000
367.000 169.000
358.000 169.000
351.000 172.000
350.000 171.000
348.000 173.000
347.000 172.000
344.000 176.000
340.000 176.000
337.000 174.000
334.000 177.000
322.000 181.000
321.000 180.000
314.000 184.000
312.000 183.000
305.000 187.000
299.000 194.000
287.000 193.000
278.000 197.000
277.000 196.000
276.000 198.000
268.000 198.000
255.000 203.000
252.000 202.000
242.000 208.000
235.000 208.000
230.000 211.000
228.000 210.000
227.000 212.000
221.000 213.000
213.000 218.000
212.000 217.000
205.000 224.000
204.000 222.000
203.000 225.000
198.000 229.000
193.000 230.000
189.000 233.000
187.000 231.000
186.000 234.000
182.000 234.000
180.000 238.000
178.000 237.000
173.000 242.000
166.000 244.000
166.000 246.000
155.000 251.000
152.000 251.000
137.000 260.000
136.000 259.000
135.000 261.000
125.000 266.000
121.000 270.000
114.000 270.000
109.000 273.000
104.000 273.000
105.000 272.000
103.000 270.000
102.000 271.000
100.000 266.000
95.000 266.000
90.000 270.000
89.000 275.000
84.000 277.000
78.000 277.000
75.000 280.000
