ply
format ascii 1.0
comment Dominant contour extracted from bimodal image.
comment scale factor = 0.535475
comment kernel width = 3
comment decimate eps = 1.000000
comment orig shape   = (747, 2908)
comment threshold    = 242.500000
comment Written with hapPLY (https://github.com/nmwsharp/happly)
element flags 0
property uchar closed
element vertex 207
property double x
property double y
end_header
1531.000 254.000
1530.000 251.000
1526.000 253.000
1517.000 251.000
1507.000 241.000
1499.000 237.000
1492.000 231.000
1416.000 194.000
1392.000 185.000
1377.000 182.000
1361.000 176.000
1336.000 173.000
1309.000 167.000
1289.000 166.000
1269.000 159.000
1242.000 156.000
1226.000 152.000
1209.000 152.000
1189.000 148.000
1158.000 148.000
1137.000 146.000
1117.000 141.000
1106.000 141.000
1100.000 144.000
1097.000 140.000
1053.000 125.000
1033.000 121.000
1022.000 117.000
1008.000 116.000
990.000 111.000
966.000 109.000
939.000 101.000
925.000 99.000
897.000 99.000
874.000 94.000
873.000 92.000
868.000 93.000
856.000 90.000
832.000 89.000
811.000 86.000
807.000 84.000
791.000 84.000
785.000 82.000
777.000 83.000
776.000 81.000
766.000 80.000
731.000 81.000
726.000 79.000
708.000 78.000
701.000 80.000
686.000 80.000
669.000 77.000
632.000 75.000
566.000 76.000
556.000 78.000
543.000 78.000
538.000 80.000
522.000 80.000
518.000 82.000
500.000 84.000
499.000 86.000
445.000 85.000
431.000 88.000
416.000 89.000
411.000 92.000
410.000 89.000
395.000 89.000
377.000 93.000
354.000 92.000
337.000 95.000
307.000 95.000
294.000 99.000
272.000 100.000
258.000 106.000
234.000 105.000
219.000 108.000
212.000 111.000
207.000 111.000
201.000 114.000
187.000 114.000
180.000 117.000
178.000 121.000
175.000 123.000
159.000 122.000
146.000 127.000
133.000 129.000
131.000 128.000
126.000 130.000
109.000 129.000
101.000 131.000
91.000 137.000
87.000 137.000
82.000 133.000
76.000 133.000
58.000 119.000
51.000 116.000
44.000 117.000
43.000 115.000
39.000 114.000
39.000 118.000
24.000 118.000
12.000 113.000
8.000 113.000
4.000 110.000
0.000 110.000
1.000 114.000
21.000 126.000
35.000 140.000
39.000 138.000
39.000 141.000
46.000 140.000
64.000 144.000
87.000 162.000
96.000 167.000
101.000 173.000
115.000 180.000
120.000 185.000
137.000 196.000
139.000 199.000
155.000 209.000
159.000 210.000
164.000 215.000
175.000 218.000
189.000 228.000
222.000 245.000
239.000 250.000
249.000 256.000
274.000 265.000
283.000 270.000
293.000 272.000
300.000 276.000
321.000 283.000
339.000 285.000
367.000 292.000
383.000 298.000
393.000 299.000
417.000 306.000
424.000 306.000
432.000 309.000
450.000 312.000
464.000 312.000
473.000 316.000
486.000 318.000
494.000 322.000
515.000 325.000
535.000 330.000
547.000 330.000
593.000 338.000
635.000 340.000
654.000 344.000
674.000 344.000
699.000 347.000
737.000 347.000
741.000 344.000
762.000 347.000
770.000 352.000
788.000 356.000
795.000 359.000
808.000 361.000
814.000 360.000
817.000 362.000
825.000 363.000
830.000 362.000
863.000 368.000
886.000 368.000
903.000 371.000
929.000 369.000
932.000 371.000
956.000 371.000
961.000 373.000
968.000 372.000
978.000 374.000
1023.000 373.000
1041.000 375.000
1068.000 375.000
1098.000 371.000
1149.000 374.000
1160.000 373.000
1175.000 369.000
1186.000 369.000
1203.000 366.000
1240.000 366.000
1250.000 363.000
1285.000 360.000
1296.000 361.000
1331.000 356.000
1339.000 353.000
1350.000 352.000
1364.000 346.000
1373.000 345.000
1396.000 338.000
1424.000 326.000
1425.000 327.000
1426.000 325.000
1437.000 321.000
1451.000 311.000
1456.000 311.000
1457.000 309.000
1468.000 306.000
1483.000 296.000
1484.000 297.000
1486.000 294.000
1504.000 282.000
1516.000 269.000
1521.000 261.000
1521.000 258.000
1524.000 258.000
