ply
format ascii 1.0
comment Dominant contour extracted from bimodal image.
comment scale factor = 0.692042
comment kernel width = 3
comment decimate eps = 1.000000
comment orig shape   = (578, 1959)
comment threshold    = 245.000000
comment Written with hapPLY (https://github.com/nmwsharp/happly)
element flags 0
property uchar closed
element vertex 328
property double x
property double y
end_header
47.000 263.000
50.000 265.000
48.000 266.000
49.000 270.000
60.000 273.000
84.000 274.000
92.000 271.000
144.000 271.000
148.000 274.000
149.000 273.000
158.000 276.000
169.000 286.000
172.000 291.000
179.000 294.000
186.000 302.000
189.000 303.000
188.000 305.000
190.000 307.000
192.000 305.000
205.000 309.000
210.000 313.000
221.000 318.000
222.000 320.000
228.000 321.000
237.000 326.000
238.000 325.000
254.000 329.000
256.000 332.000
258.000 332.000
259.000 335.000
260.000 333.000
279.000 341.000
292.000 340.000
298.000 343.000
299.000 345.000
302.000 345.000
304.000 348.000
305.000 347.000
314.000 351.000
327.000 351.000
331.000 353.000
331.000 355.000
340.000 354.000
350.000 357.000
371.000 357.000
371.000 355.000
382.000 355.000
383.000 353.000
384.000 356.000
385.000 353.000
393.000 350.000
398.000 350.000
401.000 352.000
435.000 352.000
445.000 349.000
452.000 349.000
458.000 351.000
488.000 350.000
498.000 353.000
508.000 353.000
512.000 351.000
546.000 352.000
556.000 351.000
568.000 345.000
600.000 345.000
605.000 343.000
625.000 343.000
628.000 345.000
643.000 345.000
648.000 343.000
656.000 343.000
659.000 341.000
674.000 341.000
679.000 339.000
690.000 338.000
695.000 339.000
713.000 335.000
738.000 335.000
738.000 333.000
752.000 334.000
759.000 332.000
772.000 332.000
788.000 327.000
792.000 323.000
799.000 320.000
803.000 321.000
811.000 318.000
826.000 318.000
827.000 316.000
828.000 317.000
851.000 313.000
858.000 310.000
860.000 311.000
860.000 309.000
862.000 310.000
865.000 307.000
880.000 302.000
890.000 302.000
907.000 299.000
908.000 300.000
909.000 298.000
911.000 299.000
915.000 296.000
920.000 296.000
921.000 294.000
941.000 289.000
954.000 282.000
955.000 284.000
957.000 282.000
979.000 278.000
988.000 275.000
995.000 269.000
1002.000 267.000
1004.000 268.000
1013.000 264.000
1019.000 264.000
1023.000 262.000
1025.000 263.000
1029.000 260.000
1043.000 255.000
1044.000 256.000
1048.000 253.000
1051.000 254.000
1054.000 251.000
1059.000 251.000
1079.000 242.000
1088.000 240.000
1093.000 237.000
1094.000 238.000
1096.000 235.000
1112.000 226.000
1119.000 227.000
1120.000 225.000
1125.000 225.000
1136.000 221.000
1138.000 222.000
1139.000 220.000
1146.000 217.000
1153.000 217.000
1153.000 215.000
1167.000 212.000
1168.000 213.000
1180.000 205.000
1187.000 204.000
1193.000 201.000
1195.000 202.000
1197.000 200.000
1198.000 201.000
1201.000 197.000
1223.000 188.000
1241.000 176.000
1250.000 174.000
1262.000 168.000
1263.000 169.000
1264.000 167.000
1269.000 164.000
1270.000 165.000
1271.000 163.000
1272.000 164.000
1276.000 160.000
1278.000 163.000
1278.000 159.000
1287.000 150.000
1292.000 151.000
1293.000 149.000
1300.000 147.000
1307.000 148.000
1316.000 145.000
1321.000 146.000
1322.000 144.000
1320.000 142.000
1297.000 143.000
1295.000 139.000
1286.000 136.000
1274.000 128.000
1266.000 126.000
1265.000 124.000
1263.000 125.000
1256.000 122.000
1246.000 121.000
1243.000 118.000
1242.000 119.000
1237.000 116.000
1235.000 117.000
1225.000 114.000
1207.000 114.000
1188.000 107.000
1171.000 107.000
1166.000 106.000
1164.000 104.000
1161.000 105.000
1148.000 101.000
1147.000 99.000
1146.000 100.000
1139.000 98.000
1128.000 98.000
1106.000 92.000
1090.000 92.000
1080.000 89.000
1080.000 87.000
1076.000 88.000
1049.000 86.000
1040.000 87.000
1036.000 89.000
1033.000 87.000
1026.000 86.000
1000.000 88.000
998.000 86.000
997.000 88.000
988.000 88.000
969.000 85.000
965.000 82.000
961.000 83.000
943.000 80.000
942.000 82.000
936.000 80.000
935.000 82.000
934.000 81.000
930.000 83.000
913.000 83.000
896.000 86.000
870.000 86.000
869.000 88.000
858.000 89.000
848.000 85.000
814.000 85.000
813.000 87.000
808.000 87.000
796.000 92.000
781.000 94.000
780.000 96.000
758.000 95.000
747.000 98.000
740.000 97.000
738.000 99.000
726.000 99.000
724.000 101.000
720.000 101.000
717.000 103.000
713.000 102.000
712.000 105.000
708.000 105.000
694.000 111.000
689.000 111.000
685.000 114.000
675.000 113.000
674.000 115.000
671.000 114.000
669.000 116.000
646.000 118.000
641.000 121.000
629.000 121.000
627.000 119.000
615.000 122.000
588.000 121.000
583.000 123.000
574.000 123.000
570.000 125.000
569.000 124.000
562.000 128.000
561.000 127.000
540.000 133.000
506.000 132.000
500.000 136.000
498.000 136.000
495.000 133.000
476.000 135.000
443.000 134.000
429.000 135.000
425.000 137.000
419.000 136.000
412.000 138.000
410.000 136.000
408.000 139.000
403.000 139.000
399.000 141.000
396.000 140.000
390.000 143.000
382.000 142.000
347.000 149.000
341.000 153.000
338.000 152.000
337.000 155.000
334.000 154.000
332.000 157.000
328.000 159.000
326.000 157.000
325.000 161.000
318.000 166.000
317.000 165.000
300.000 178.000
295.000 180.000
291.000 179.000
290.000 181.000
283.000 176.000
265.000 177.000
255.000 180.000
242.000 191.000
234.000 195.000
225.000 206.000
220.000 206.000
199.000 218.000
192.000 219.000
181.000 228.000
180.000 227.000
177.000 231.000
176.000 229.000
174.000 233.000
173.000 230.000
171.000 232.000
172.000 235.000
142.000 258.000
124.000 261.000
96.000 263.000
88.000 261.000
87.000 259.000
86.000 260.000
86.000 258.000
84.000 259.000
75.000 252.000
72.000 252.000
68.000 256.000
66.000 254.000
60.000 254.000
57.000 256.000
53.000 256.000
51.000 258.000
50.000 257.000
