ply
format ascii 1.0
comment Dominant contour extracted from bimodal image.
comment scale factor = 0.966184
comment kernel width = 3
comment decimate eps = 1.000000
comment orig shape   = (414, 1633)
comment threshold    = 213.000000
comment Written with hapPLY (https://github.com/nmwsharp/happly)
element flags 0
property uchar closed
element vertex 375
property double x
property double y
end_header
38.000 224.000
38.000 226.000
40.000 227.000
38.000 232.000
41.000 233.000
42.000 231.000
44.000 231.000
49.000 238.000
51.000 236.000
50.000 235.000
51.000 236.000
53.000 234.000
61.000 239.000
70.000 239.000
72.000 241.000
75.000 239.000
80.000 239.000
93.000 245.000
103.000 247.000
129.000 260.000
146.000 265.000
160.000 273.000
170.000 273.000
189.000 279.000
218.000 296.000
223.000 296.000
221.000 292.000
219.000 292.000
225.000 295.000
222.000 297.000
228.000 300.000
247.000 304.000
277.000 313.000
277.000 311.000
290.000 315.000
292.000 313.000
294.000 314.000
294.000 316.000
290.000 316.000
281.000 312.000
277.000 313.000
292.000 319.000
309.000 320.000
322.000 325.000
326.000 324.000
326.000 326.000
337.000 326.000
358.000 330.000
366.000 330.000
367.000 329.000
365.000 327.000
367.000 327.000
367.000 329.000
388.000 330.000
396.000 334.000
405.000 334.000
418.000 337.000
426.000 336.000
431.000 338.000
449.000 339.000
453.000 337.000
450.000 338.000
450.000 340.000
458.000 340.000
471.000 344.000
513.000 345.000
531.000 343.000
551.000 348.000
587.000 350.000
609.000 350.000
614.000 348.000
627.000 347.000
669.000 347.000
679.000 345.000
689.000 345.000
701.000 349.000
708.000 349.000
713.000 347.000
730.000 347.000
741.000 344.000
744.000 345.000
759.000 341.000
776.000 342.000
782.000 340.000
808.000 342.000
815.000 344.000
833.000 342.000
893.000 340.000
903.000 338.000
952.000 339.000
961.000 336.000
984.000 336.000
1009.000 331.000
1019.000 331.000
1030.000 327.000
1053.000 327.000
1069.000 321.000
1085.000 322.000
1107.000 320.000
1142.000 310.000
1167.000 309.000
1170.000 307.000
1178.000 307.000
1183.000 305.000
1179.000 304.000
1180.000 303.000
1184.000 303.000
1182.000 304.000
1186.000 305.000
1197.000 300.000
1218.000 300.000
1241.000 295.000
1272.000 294.000
1293.000 291.000
1310.000 286.000
1310.000 284.000
1304.000 284.000
1305.000 281.000
1309.000 281.000
1311.000 285.000
1332.000 285.000
1332.000 283.000
1329.000 283.000
1331.000 283.000
1331.000 281.000
1319.000 281.000
1322.000 279.000
1324.000 275.000
1333.000 277.000
1333.000 280.000
1331.000 281.000
1333.000 282.000
1333.000 284.000
1340.000 284.000
1352.000 280.000
1365.000 278.000
1373.000 274.000
1398.000 272.000
1398.000 270.000
1393.000 269.000
1393.000 265.000
1395.000 265.000
1400.000 258.000
1408.000 261.000
1408.000 264.000
1406.000 265.000
1407.000 267.000
1402.000 270.000
1405.000 271.000
1412.000 268.000
1413.000 266.000
1410.000 265.000
1410.000 261.000
1418.000 262.000
1419.000 260.000
1425.000 257.000
1429.000 261.000
1431.000 258.000
1438.000 258.000
1441.000 256.000
1427.000 256.000
1423.000 252.000
1423.000 256.000
1417.000 259.000
1414.000 259.000
1413.000 257.000
1411.000 259.000
1408.000 259.000
1406.000 257.000
1400.000 256.000
1394.000 248.000
1395.000 246.000
1392.000 246.000
1388.000 242.000
1385.000 233.000
1386.000 230.000
1384.000 228.000
1385.000 227.000
1386.000 229.000
1388.000 226.000
1390.000 226.000
1391.000 230.000
1393.000 226.000
1398.000 226.000
1399.000 229.000
1400.000 226.000
1406.000 226.000
1410.000 232.000
1409.000 233.000
1413.000 236.000
1414.000 233.000
1410.000 227.000
1420.000 227.000
1417.000 229.000
1418.000 230.000
1421.000 230.000
1423.000 227.000
1433.000 228.000
1435.000 233.000
1434.000 235.000
1437.000 237.000
1438.000 240.000
1437.000 242.000
1442.000 245.000
1443.000 243.000
1437.000 234.000
1436.000 228.000
1445.000 228.000
1447.000 230.000
1449.000 228.000
1454.000 229.000
1455.000 231.000
1464.000 230.000
1466.000 232.000
1470.000 231.000
1473.000 234.000
1475.000 232.000
1485.000 234.000
1491.000 233.000
1505.000 235.000
1506.000 237.000
1511.000 235.000
1513.000 236.000
1517.000 232.000
1515.000 231.000
1507.000 233.000
1497.000 227.000
1496.000 231.000
1491.000 231.000
1491.000 228.000
1488.000 231.000
1486.000 231.000
1485.000 229.000
1481.000 230.000
1483.000 227.000
1482.000 226.000
1479.000 230.000
1474.000 229.000
1473.000 226.000
1471.000 228.000
1453.000 226.000
1455.000 218.000
1457.000 217.000
1456.000 214.000
1463.000 213.000
1463.000 210.000
1469.000 211.000
1469.000 209.000
1460.000 206.000
1447.000 194.000
1424.000 182.000
1408.000 179.000
1401.000 175.000
1385.000 170.000
1377.000 165.000
1358.000 161.000
1352.000 157.000
1350.000 158.000
1354.000 161.000
1352.000 163.000
1347.000 160.000
1350.000 159.000
1348.000 156.000
1332.000 151.000
1329.000 152.000
1311.000 148.000
1308.000 149.000
1311.000 151.000
1308.000 150.000
1304.000 152.000
1309.000 154.000
1302.000 155.000
1301.000 152.000
1304.000 151.000
1302.000 148.000
1304.000 150.000
1307.000 150.000
1309.000 148.000
1283.000 141.000
1275.000 141.000
1265.000 136.000
1255.000 134.000
1252.000 132.000
1240.000 131.000
1226.000 128.000
1220.000 125.000
1214.000 125.000
1209.000 122.000
1197.000 120.000
1183.000 114.000
1174.000 114.000
1158.000 109.000
1145.000 109.000
1136.000 106.000
1121.000 105.000
1112.000 101.000
1085.000 100.000
1080.000 98.000
1078.000 99.000
1076.000 97.000
1069.000 97.000
1058.000 93.000
1034.000 93.000
1015.000 86.000
996.000 85.000
990.000 82.000
975.000 81.000
967.000 78.000
938.000 79.000
926.000 77.000
910.000 81.000
903.000 78.000
867.000 77.000
846.000 81.000
838.000 78.000
819.000 76.000
800.000 76.000
788.000 80.000
775.000 77.000
766.000 77.000
761.000 79.000
734.000 78.000
718.000 82.000
711.000 81.000
685.000 83.000
661.000 82.000
658.000 80.000
631.000 81.000
618.000 79.000
605.000 82.000
590.000 83.000
587.000 85.000
541.000 85.000
528.000 86.000
520.000 89.000
514.000 87.000
504.000 87.000
500.000 89.000
491.000 89.000
484.000 91.000
471.000 90.000
462.000 93.000
461.000 92.000
452.000 96.000
433.000 95.000
414.000 98.000
406.000 102.000
383.000 102.000
359.000 109.000
346.000 109.000
329.000 114.000
313.000 115.000
299.000 119.000
294.000 119.000
273.000 126.000
264.000 127.000
258.000 130.000
253.000 130.000
245.000 134.000
207.000 145.000
174.000 161.000
158.000 172.000
130.000 183.000
117.000 193.000
100.000 201.000
85.000 215.000
77.000 218.000
59.000 212.000
55.000 214.000
60.000 216.000
59.000 215.000
55.000 218.000
54.000 212.000
51.000 219.000
40.000 222.000
