ply
format ascii 1.0
comment Dominant contour extracted from bimodal image.
comment scale factor = 0.770713
comment kernel width = 3
comment decimate eps = 1.000000
comment orig shape   = (519, 1875)
comment threshold    = 227.000000
comment Written with hapPLY (https://github.com/nmwsharp/happly)
element flags 0
property uchar closed
element vertex 198
property double x
property double y
end_header
14.000 228.000
17.000 232.000
22.000 230.000
26.000 232.000
31.000 229.000
41.000 228.000
58.000 223.000
66.000 223.000
78.000 219.000
91.000 219.000
109.000 216.000
128.000 216.000
134.000 219.000
142.000 226.000
151.000 229.000
168.000 244.000
176.000 246.000
192.000 256.000
202.000 270.000
206.000 270.000
206.000 272.000
210.000 273.000
213.000 276.000
220.000 279.000
224.000 279.000
235.000 285.000
256.000 291.000
270.000 292.000
273.000 290.000
283.000 290.000
294.000 295.000
315.000 298.000
331.000 304.000
351.000 304.000
363.000 310.000
369.000 310.000
375.000 313.000
386.000 315.000
394.000 315.000
397.000 317.000
415.000 320.000
420.000 323.000
435.000 327.000
441.000 326.000
447.000 330.000
461.000 333.000
483.000 332.000
500.000 335.000
520.000 334.000
529.000 337.000
547.000 336.000
559.000 339.000
589.000 336.000
602.000 337.000
607.000 339.000
617.000 339.000
620.000 337.000
632.000 337.000
638.000 334.000
677.000 333.000
689.000 330.000
698.000 330.000
705.000 332.000
712.000 330.000
724.000 330.000
761.000 318.000
803.000 317.000
810.000 315.000
830.000 315.000
861.000 311.000
877.000 311.000
895.000 307.000
911.000 300.000
941.000 297.000
963.000 297.000
977.000 293.000
985.000 293.000
993.000 290.000
1014.000 287.000
1024.000 283.000
1042.000 279.000
1058.000 272.000
1081.000 269.000
1099.000 263.000
1109.000 262.000
1123.000 256.000
1170.000 250.000
1186.000 246.000
1213.000 244.000
1237.000 236.000
1254.000 233.000
1271.000 226.000
1283.000 223.000
1304.000 213.000
1309.000 212.000
1313.000 209.000
1324.000 207.000
1337.000 202.000
1378.000 177.000
1388.000 176.000
1398.000 178.000
1401.000 175.000
1389.000 172.000
1381.000 172.000
1372.000 165.000
1367.000 164.000
1351.000 153.000
1320.000 141.000
1260.000 128.000
1239.000 121.000
1233.000 121.000
1223.000 118.000
1206.000 117.000
1202.000 115.000
1178.000 112.000
1175.000 110.000
1173.000 111.000
1164.000 108.000
1146.000 107.000
1117.000 102.000
1103.000 102.000
1098.000 104.000
1059.000 104.000
1056.000 101.000
943.000 101.000
938.000 103.000
880.000 106.000
872.000 108.000
791.000 108.000
785.000 106.000
776.000 109.000
764.000 109.000
753.000 113.000
725.000 111.000
695.000 111.000
686.000 115.000
683.000 110.000
680.000 112.000
676.000 112.000
667.000 109.000
659.000 104.000
649.000 103.000
640.000 100.000
602.000 100.000
590.000 99.000
585.000 97.000
573.000 97.000
552.000 102.000
518.000 102.000
501.000 107.000
483.000 108.000
468.000 113.000
464.000 112.000
459.000 114.000
446.000 115.000
442.000 117.000
413.000 120.000
397.000 128.000
394.000 125.000
390.000 125.000
379.000 129.000
367.000 129.000
362.000 131.000
355.000 131.000
352.000 133.000
340.000 132.000
314.000 140.000
302.000 139.000
295.000 141.000
286.000 141.000
271.000 145.000
240.000 148.000
212.000 148.000
200.000 155.000
184.000 158.000
176.000 162.000
158.000 180.000
145.000 189.000
133.000 202.000
118.000 205.000
99.000 205.000
86.000 208.000
63.000 210.000
48.000 207.000
46.000 208.000
38.000 205.000
30.000 206.000
27.000 208.000
25.000 207.000
24.000 209.000
19.000 208.000
16.000 211.000
17.000 215.000
21.000 213.000
27.000 213.000
18.000 215.000
16.000 217.000
17.000 220.000
