ply
format ascii 1.0
comment Dominant contour extracted from bimodal image.
comment scale factor = 0.823045
comment kernel width = 3
comment decimate eps = 1.000000
comment orig shape   = (486, 1786)
comment threshold    = 244.500000
comment Written with hapPLY (https://github.com/nmwsharp/happly)
element flags 0
property uchar closed
element vertex 325
property double x
property double y
end_header
1402.000 184.000
1398.000 176.000
1398.000 173.000
1401.000 171.000
1400.000 164.000
1398.000 165.000
1393.000 175.000
1387.000 176.000
1381.000 170.000
1377.000 170.000
1372.000 166.000
1372.000 164.000
1367.000 159.000
1366.000 160.000
1352.000 153.000
1349.000 153.000
1348.000 150.000
1347.000 152.000
1341.000 149.000
1341.000 147.000
1336.000 148.000
1325.000 146.000
1320.000 148.000
1314.000 146.000
1310.000 141.000
1307.000 142.000
1302.000 138.000
1300.000 139.000
1294.000 135.000
1263.000 130.000
1253.000 125.000
1243.000 123.000
1219.000 123.000
1214.000 121.000
1200.000 123.000
1197.000 120.000
1176.000 118.000
1168.000 114.000
1157.000 114.000
1151.000 116.000
1142.000 107.000
1139.000 107.000
1134.000 104.000
1121.000 102.000
1097.000 93.000
1090.000 93.000
1072.000 89.000
1070.000 90.000
1055.000 84.000
1037.000 83.000
1032.000 81.000
1028.000 82.000
1016.000 80.000
1011.000 77.000
1006.000 77.000
1004.000 75.000
986.000 73.000
982.000 74.000
975.000 71.000
958.000 70.000
957.000 68.000
955.000 69.000
956.000 70.000
948.000 68.000
935.000 69.000
923.000 66.000
909.000 66.000
903.000 64.000
898.000 65.000
884.000 62.000
879.000 63.000
855.000 60.000
835.000 60.000
820.000 62.000
819.000 61.000
808.000 65.000
800.000 65.000
775.000 61.000
748.000 61.000
729.000 65.000
726.000 64.000
725.000 66.000
709.000 64.000
673.000 64.000
634.000 70.000
624.000 69.000
596.000 77.000
594.000 74.000
593.000 77.000
563.000 81.000
548.000 86.000
525.000 86.000
513.000 90.000
501.000 88.000
474.000 93.000
468.000 92.000
456.000 94.000
444.000 100.000
430.000 103.000
428.000 106.000
406.000 106.000
398.000 109.000
397.000 107.000
394.000 110.000
390.000 110.000
380.000 115.000
361.000 120.000
356.000 123.000
344.000 124.000
337.000 127.000
322.000 129.000
316.000 132.000
305.000 130.000
294.000 135.000
290.000 134.000
277.000 141.000
275.000 140.000
272.000 144.000
264.000 145.000
259.000 149.000
255.000 148.000
255.000 150.000
242.000 153.000
230.000 153.000
224.000 155.000
219.000 154.000
218.000 156.000
208.000 160.000
198.000 162.000
197.000 161.000
181.000 167.000
174.000 167.000
163.000 175.000
154.000 176.000
150.000 178.000
142.000 185.000
137.000 184.000
115.000 190.000
113.000 189.000
110.000 191.000
100.000 193.000
90.000 199.000
80.000 200.000
70.000 205.000
63.000 205.000
57.000 209.000
48.000 208.000
45.000 211.000
43.000 211.000
41.000 209.000
38.000 210.000
36.000 207.000
31.000 206.000
30.000 208.000
26.000 209.000
24.000 212.000
13.000 218.000
13.000 223.000
17.000 225.000
12.000 229.000
19.000 230.000
20.000 234.000
18.000 240.000
23.000 242.000
33.000 242.000
34.000 244.000
42.000 243.000
44.000 241.000
50.000 242.000
56.000 239.000
57.000 240.000
58.000 238.000
65.000 240.000
73.000 240.000
82.000 243.000
90.000 248.000
94.000 248.000
103.000 252.000
118.000 254.000
121.000 256.000
128.000 256.000
132.000 258.000
148.000 257.000
153.000 260.000
160.000 259.000
168.000 265.000
179.000 269.000
188.000 270.000
199.000 275.000
200.000 274.000
204.000 276.000
210.000 276.000
216.000 280.000
229.000 280.000
235.000 282.000
238.000 285.000
239.000 284.000
251.000 286.000
257.000 289.000
268.000 290.000
274.000 294.000
292.000 294.000
294.000 296.000
298.000 294.000
304.000 294.000
308.000 297.000
320.000 297.000
331.000 302.000
338.000 302.000
355.000 308.000
376.000 309.000
382.000 312.000
393.000 312.000
395.000 314.000
398.000 313.000
408.000 318.000
429.000 318.000
433.000 320.000
444.000 320.000
445.000 322.000
458.000 322.000
474.000 326.000
491.000 325.000
506.000 328.000
553.000 326.000
582.000 327.000
585.000 329.000
650.000 329.000
652.000 327.000
677.000 324.000
683.000 325.000
684.000 323.000
704.000 322.000
714.000 319.000
716.000 320.000
717.000 318.000
723.000 318.000
726.000 316.000
730.000 317.000
730.000 315.000
735.000 315.000
749.000 310.000
763.000 310.000
765.000 308.000
768.000 308.000
775.000 312.000
805.000 313.000
813.000 317.000
819.000 316.000
822.000 318.000
829.000 319.000
853.000 319.000
857.000 325.000
858.000 324.000
861.000 326.000
870.000 327.000
872.000 330.000
873.000 329.000
873.000 331.000
877.000 330.000
884.000 332.000
901.000 332.000
910.000 336.000
926.000 339.000
953.000 338.000
957.000 340.000
985.000 341.000
994.000 344.000
1009.000 345.000
1025.000 341.000
1059.000 341.000
1073.000 340.000
1090.000 336.000
1093.000 337.000
1102.000 334.000
1125.000 332.000
1131.000 329.000
1137.000 329.000
1138.000 327.000
1145.000 327.000
1154.000 324.000
1156.000 325.000
1159.000 322.000
1197.000 322.000
1202.000 318.000
1212.000 317.000
1227.000 311.000
1241.000 308.000
1257.000 301.000
1272.000 299.000
1280.000 295.000
1288.000 294.000
1301.000 288.000
1303.000 285.000
1304.000 286.000
1305.000 284.000
1313.000 280.000
1314.000 281.000
1317.000 278.000
1329.000 274.000
1332.000 271.000
1339.000 268.000
1340.000 266.000
1343.000 266.000
1344.000 264.000
1345.000 265.000
1347.000 262.000
1348.000 263.000
1354.000 257.000
1359.000 255.000
1372.000 242.000
1373.000 243.000
1375.000 239.000
1381.000 235.000
1381.000 233.000
1388.000 227.000
1387.000 226.000
1393.000 218.000
1396.000 211.000
1396.000 207.000
1399.000 205.000
1399.000 203.000
1401.000 203.000
1400.000 201.000
1402.000 198.000
