ply
format ascii 1.0
comment Dominant contour extracted from bimodal image.
comment scale factor = 0.947867
comment kernel width = 3
comment decimate eps = 1.000000
comment orig shape   = (422, 1704)
comment threshold    = 242.000000
comment Written with hapPLY (https://github.com/nmwsharp/happly)
element flags 0
property uchar closed
element vertex 296
property double x
property double y
end_header
1545.000 200.000
1544.000 198.000
1539.000 198.000
1524.000 205.000
1511.000 205.000
1509.000 203.000
1507.000 204.000
1495.000 200.000
1494.000 201.000
1492.000 199.000
1487.000 199.000
1462.000 189.000
1452.000 182.000
1451.000 183.000
1440.000 181.000
1436.000 178.000
1433.000 178.000
1432.000 176.000
1424.000 176.000
1412.000 170.000
1402.000 169.000
1387.000 164.000
1378.000 164.000
1375.000 162.000
1372.000 163.000
1369.000 161.000
1336.000 154.000
1309.000 153.000
1296.000 147.000
1294.000 148.000
1288.000 145.000
1287.000 146.000
1279.000 144.000
1278.000 142.000
1270.000 142.000
1254.000 138.000
1252.000 136.000
1250.000 137.000
1222.000 135.000
1217.000 133.000
1200.000 131.000
1171.000 131.000
1170.000 133.000
1165.000 133.000
1160.000 131.000
1143.000 129.000
1127.000 124.000
1109.000 124.000
1097.000 120.000
1079.000 118.000
1070.000 115.000
1060.000 115.000
1032.000 109.000
996.000 110.000
981.000 106.000
963.000 106.000
945.000 100.000
915.000 101.000
909.000 99.000
891.000 99.000
887.000 101.000
879.000 101.000
869.000 98.000
868.000 99.000
826.000 97.000
819.000 95.000
815.000 95.000
809.000 98.000
801.000 93.000
789.000 92.000
781.000 89.000
780.000 90.000
754.000 86.000
723.000 87.000
712.000 83.000
692.000 84.000
689.000 82.000
668.000 81.000
655.000 84.000
639.000 83.000
635.000 85.000
624.000 81.000
611.000 82.000
600.000 79.000
582.000 79.000
578.000 81.000
568.000 82.000
562.000 86.000
549.000 86.000
531.000 89.000
519.000 88.000
506.000 93.000
504.000 92.000
503.000 94.000
494.000 87.000
473.000 88.000
464.000 91.000
453.000 90.000
441.000 93.000
435.000 91.000
434.000 92.000
433.000 90.000
422.000 90.000
418.000 92.000
414.000 92.000
411.000 90.000
385.000 90.000
380.000 92.000
356.000 90.000
352.000 92.000
350.000 91.000
348.000 93.000
325.000 95.000
313.000 100.000
295.000 98.000
283.000 103.000
265.000 101.000
260.000 103.000
244.000 105.000
237.000 109.000
235.000 108.000
230.000 110.000
214.000 108.000
208.000 110.000
206.000 109.000
194.000 112.000
185.000 121.000
178.000 125.000
178.000 127.000
174.000 131.000
156.000 141.000
148.000 150.000
146.000 155.000
128.000 170.000
129.000 171.000
126.000 177.000
120.000 183.000
118.000 182.000
118.000 184.000
112.000 187.000
96.000 189.000
63.000 190.000
51.000 186.000
40.000 186.000
34.000 189.000
36.000 187.000
32.000 184.000
31.000 185.000
34.000 195.000
32.000 196.000
33.000 204.000
42.000 208.000
39.000 210.000
40.000 213.000
45.000 213.000
53.000 208.000
59.000 208.000
64.000 206.000
102.000 202.000
125.000 203.000
136.000 208.000
152.000 226.000
164.000 233.000
166.000 236.000
169.000 236.000
175.000 243.000
192.000 251.000
197.000 256.000
199.000 255.000
208.000 260.000
216.000 262.000
232.000 272.000
244.000 276.000
261.000 276.000
272.000 272.000
294.000 273.000
297.000 272.000
302.000 266.000
310.000 273.000
320.000 273.000
345.000 284.000
370.000 285.000
383.000 290.000
385.000 289.000
388.000 291.000
399.000 293.000
408.000 298.000
420.000 299.000
432.000 303.000
454.000 303.000
461.000 305.000
462.000 307.000
472.000 309.000
478.000 313.000
498.000 317.000
508.000 321.000
539.000 323.000
544.000 325.000
554.000 325.000
556.000 327.000
578.000 329.000
586.000 327.000
586.000 329.000
595.000 327.000
612.000 328.000
618.000 326.000
638.000 327.000
646.000 325.000
649.000 322.000
655.000 326.000
664.000 327.000
674.000 323.000
688.000 323.000
704.000 319.000
716.000 319.000
727.000 322.000
728.000 324.000
731.000 322.000
735.000 323.000
736.000 321.000
751.000 321.000
757.000 316.000
761.000 319.000
765.000 319.000
772.000 317.000
778.000 318.000
794.000 315.000
806.000 318.000
826.000 320.000
833.000 323.000
855.000 322.000
881.000 324.000
886.000 322.000
898.000 326.000
916.000 325.000
921.000 328.000
931.000 329.000
977.000 329.000
980.000 327.000
991.000 327.000
1006.000 324.000
1021.000 324.000
1033.000 321.000
1045.000 323.000
1088.000 319.000
1102.000 315.000
1130.000 315.000
1145.000 313.000
1162.000 314.000
1165.000 312.000
1179.000 309.000
1190.000 309.000
1191.000 307.000
1199.000 305.000
1208.000 305.000
1213.000 303.000
1240.000 299.000
1272.000 297.000
1292.000 299.000
1302.000 297.000
1322.000 289.000
1340.000 286.000
1341.000 287.000
1344.000 285.000
1349.000 285.000
1359.000 280.000
1365.000 280.000
1370.000 278.000
1371.000 279.000
1380.000 275.000
1388.000 275.000
1391.000 273.000
1404.000 271.000
1412.000 268.000
1414.000 269.000
1417.000 266.000
1422.000 265.000
1436.000 257.000
1446.000 254.000
1460.000 246.000
1469.000 244.000
1481.000 236.000
1486.000 235.000
1488.000 233.000
1490.000 234.000
1493.000 229.000
1505.000 224.000
1508.000 220.000
1509.000 221.000
1517.000 215.000
1519.000 216.000
1519.000 214.000
1526.000 211.000
1527.000 208.000
1537.000 202.000
1542.000 203.000
