ply
format ascii 1.0
comment Dominant contour extracted from bimodal image.
comment scale factor = 1.000000
comment kernel width = 3
comment decimate eps = 1.000000
comment orig shape   = (301, 1364)
comment threshold    = 236.500000
comment Written with hapPLY (https://github.com/nmwsharp/happly)
element flags 0
property uchar closed
element vertex 327
property double x
property double y
end_header
30.000 203.000
33.000 205.000
38.000 202.000
51.000 203.000
68.000 199.000
100.000 200.000
105.000 202.000
126.000 205.000
134.000 208.000
162.000 210.000
165.000 212.000
168.000 211.000
179.000 217.000
181.000 216.000
184.000 219.000
195.000 219.000
202.000 226.000
224.000 225.000
241.000 229.000
246.000 233.000
250.000 234.000
259.000 233.000
263.000 234.000
264.000 236.000
271.000 235.000
280.000 242.000
282.000 241.000
289.000 244.000
305.000 247.000
321.000 253.000
333.000 252.000
335.000 254.000
337.000 253.000
342.000 255.000
358.000 254.000
367.000 257.000
380.000 257.000
383.000 256.000
386.000 252.000
396.000 251.000
398.000 253.000
411.000 257.000
429.000 258.000
432.000 260.000
435.000 258.000
439.000 258.000
444.000 261.000
456.000 261.000
459.000 263.000
499.000 262.000
502.000 264.000
512.000 263.000
519.000 265.000
520.000 263.000
526.000 263.000
536.000 265.000
540.000 262.000
548.000 263.000
555.000 262.000
561.000 259.000
564.000 261.000
578.000 263.000
594.000 261.000
601.000 266.000
614.000 266.000
617.000 268.000
630.000 267.000
636.000 264.000
646.000 268.000
658.000 268.000
670.000 265.000
683.000 266.000
690.000 264.000
739.000 265.000
746.000 261.000
758.000 263.000
763.000 262.000
768.000 258.000
770.000 259.000
772.000 257.000
778.000 259.000
803.000 256.000
807.000 254.000
817.000 254.000
830.000 250.000
837.000 251.000
838.000 253.000
847.000 254.000
849.000 252.000
859.000 252.000
876.000 249.000
887.000 243.000
894.000 243.000
895.000 245.000
906.000 240.000
908.000 241.000
910.000 239.000
923.000 238.000
927.000 240.000
942.000 239.000
950.000 236.000
961.000 238.000
963.000 236.000
966.000 237.000
967.000 235.000
986.000 233.000
1006.000 225.000
1008.000 226.000
1018.000 224.000
1023.000 221.000
1034.000 218.000
1042.000 213.000
1049.000 212.000
1051.000 209.000
1052.000 210.000
1056.000 207.000
1080.000 206.000
1100.000 197.000
1101.000 198.000
1102.000 196.000
1104.000 197.000
1108.000 194.000
1112.000 194.000
1118.000 191.000
1120.000 192.000
1134.000 182.000
1148.000 178.000
1156.000 173.000
1165.000 171.000
1167.000 169.000
1170.000 170.000
1172.000 168.000
1181.000 167.000
1187.000 164.000
1193.000 164.000
1204.000 159.000
1218.000 156.000
1225.000 153.000
1232.000 145.000
1238.000 142.000
1247.000 140.000
1249.000 141.000
1252.000 137.000
1260.000 133.000
1270.000 124.000
1276.000 116.000
1281.000 113.000
1286.000 113.000
1307.000 91.000
1321.000 85.000
1323.000 82.000
1330.000 80.000
1340.000 73.000
1343.000 67.000
1342.000 66.000
1334.000 74.000
1333.000 73.000
1331.000 76.000
1321.000 80.000
1320.000 79.000
1317.000 82.000
1309.000 84.000
1296.000 84.000
1293.000 82.000
1286.000 81.000
1283.000 78.000
1281.000 79.000
1263.000 75.000
1256.000 71.000
1248.000 71.000
1247.000 73.000
1241.000 72.000
1240.000 74.000
1228.000 73.000
1220.000 70.000
1217.000 67.000
1207.000 66.000
1198.000 62.000
1186.000 60.000
1184.000 58.000
1172.000 58.000
1169.000 60.000
1161.000 59.000
1154.000 54.000
1146.000 54.000
1123.000 47.000
1109.000 47.000
1092.000 43.000
1074.000 43.000
1069.000 46.000
1065.000 46.000
1050.000 40.000
1026.000 40.000
1012.000 38.000
1000.000 42.000
982.000 39.000
953.000 40.000
939.000 44.000
938.000 43.000
934.000 47.000
928.000 47.000
927.000 45.000
919.000 41.000
906.000 39.000
886.000 40.000
881.000 38.000
868.000 38.000
863.000 42.000
859.000 42.000
852.000 39.000
834.000 41.000
826.000 38.000
820.000 40.000
818.000 39.000
813.000 42.000
808.000 39.000
801.000 41.000
791.000 40.000
789.000 42.000
784.000 40.000
776.000 41.000
772.000 44.000
767.000 44.000
766.000 42.000
763.000 44.000
753.000 44.000
747.000 47.000
742.000 46.000
737.000 48.000
726.000 46.000
720.000 48.000
714.000 45.000
702.000 46.000
696.000 42.000
675.000 42.000
671.000 44.000
658.000 43.000
654.000 46.000
645.000 46.000
637.000 43.000
629.000 45.000
612.000 45.000
604.000 41.000
592.000 42.000
591.000 40.000
590.000 41.000
584.000 39.000
579.000 39.000
572.000 42.000
562.000 42.000
559.000 40.000
551.000 39.000
549.000 41.000
539.000 41.000
520.000 46.000
506.000 45.000
500.000 47.000
493.000 44.000
454.000 44.000
441.000 47.000
439.000 46.000
437.000 48.000
433.000 48.000
432.000 50.000
430.000 49.000
429.000 51.000
415.000 50.000
405.000 52.000
400.000 55.000
392.000 55.000
384.000 63.000
383.000 62.000
382.000 64.000
377.000 66.000
372.000 66.000
365.000 63.000
364.000 65.000
362.000 64.000
359.000 66.000
351.000 65.000
345.000 67.000
338.000 67.000
315.000 75.000
313.000 74.000
306.000 79.000
293.000 83.000
287.000 89.000
283.000 89.000
277.000 93.000
269.000 93.000
261.000 98.000
256.000 98.000
250.000 102.000
239.000 105.000
238.000 107.000
231.000 109.000
227.000 112.000
221.000 113.000
217.000 116.000
209.000 117.000
200.000 123.000
193.000 125.000
187.000 130.000
187.000 132.000
183.000 134.000
175.000 134.000
166.000 140.000
160.000 141.000
159.000 143.000
155.000 143.000
145.000 147.000
144.000 146.000
143.000 148.000
134.000 153.000
127.000 153.000
126.000 155.000
118.000 158.000
106.000 167.000
103.000 167.000
95.000 175.000
88.000 177.000
78.000 184.000
67.000 187.000
55.000 194.000
52.000 193.000
51.000 195.000
38.000 197.000
