ply
format ascii 1.0
comment Dominant contour extracted from bimodal image.
comment scale factor = 0.603318
comment kernel width = 3
comment decimate eps = 1.000000
comment orig shape   = (663, 2236)
comment threshold    = 247.000000
comment Written with hapPLY (https://github.com/nmwsharp/happly)
element flags 0
property uchar closed
element vertex 544
property double x
property double y
end_header
1311.000 179.000
1310.000 174.000
1308.000 174.000
1304.000 180.000
1299.000 179.000
1295.000 172.000
1296.000 171.000
1293.000 169.000
1293.000 166.000
1291.000 164.000
1288.000 164.000
1287.000 160.000
1284.000 161.000
1282.000 157.000
1276.000 155.000
1273.000 151.000
1272.000 152.000
1268.000 149.000
1267.000 150.000
1265.000 146.000
1263.000 147.000
1264.000 148.000
1256.000 144.000
1248.000 143.000
1246.000 141.000
1244.000 143.000
1241.000 140.000
1239.000 141.000
1237.000 139.000
1233.000 139.000
1233.000 137.000
1229.000 135.000
1226.000 137.000
1220.000 134.000
1208.000 135.000
1205.000 132.000
1203.000 133.000
1200.000 131.000
1198.000 132.000
1194.000 130.000
1182.000 130.000
1181.000 127.000
1178.000 129.000
1176.000 128.000
1178.000 127.000
1177.000 126.000
1163.000 126.000
1162.000 122.000
1156.000 124.000
1153.000 122.000
1152.000 123.000
1151.000 121.000
1150.000 123.000
1138.000 119.000
1133.000 119.000
1132.000 117.000
1122.000 117.000
1120.000 119.000
1108.000 118.000
1103.000 116.000
1100.000 117.000
1095.000 115.000
1095.000 113.000
1092.000 115.000
1088.000 113.000
1077.000 114.000
1075.000 112.000
1074.000 113.000
1062.000 111.000
1062.000 109.000
1060.000 110.000
1058.000 108.000
1055.000 109.000
1057.000 108.000
1056.000 107.000
1030.000 108.000
1026.000 106.000
1017.000 106.000
1009.000 102.000
1003.000 103.000
998.000 100.000
993.000 101.000
986.000 98.000
985.000 99.000
981.000 97.000
970.000 96.000
969.000 94.000
968.000 96.000
958.000 92.000
937.000 92.000
929.000 88.000
927.000 89.000
913.000 88.000
907.000 86.000
893.000 86.000
893.000 83.000
889.000 83.000
889.000 85.000
878.000 82.000
856.000 82.000
858.000 81.000
855.000 78.000
854.000 81.000
852.000 82.000
849.000 80.000
849.000 82.000
842.000 79.000
830.000 80.000
826.000 78.000
824.000 79.000
819.000 77.000
806.000 76.000
802.000 74.000
800.000 76.000
793.000 76.000
780.000 73.000
773.000 76.000
766.000 76.000
766.000 73.000
764.000 73.000
764.000 75.000
761.000 75.000
759.000 73.000
739.000 74.000
732.000 71.000
696.000 71.000
696.000 69.000
694.000 71.000
670.000 71.000
665.000 70.000
663.000 68.000
661.000 70.000
655.000 70.000
654.000 68.000
651.000 71.000
647.000 70.000
645.000 72.000
638.000 74.000
622.000 74.000
622.000 76.000
608.000 75.000
568.000 79.000
555.000 78.000
548.000 80.000
546.000 78.000
544.000 81.000
540.000 82.000
530.000 82.000
521.000 84.000
505.000 83.000
504.000 85.000
499.000 84.000
498.000 86.000
489.000 86.000
478.000 89.000
472.000 87.000
471.000 89.000
465.000 88.000
464.000 90.000
459.000 89.000
458.000 91.000
428.000 91.000
420.000 92.000
417.000 94.000
402.000 94.000
390.000 98.000
360.000 97.000
357.000 99.000
348.000 100.000
347.000 98.000
342.000 100.000
337.000 97.000
336.000 99.000
338.000 100.000
323.000 100.000
315.000 103.000
310.000 103.000
310.000 105.000
309.000 104.000
302.000 108.000
290.000 106.000
276.000 106.000
271.000 108.000
265.000 107.000
264.000 109.000
262.000 108.000
260.000 111.000
251.000 113.000
243.000 112.000
242.000 114.000
238.000 114.000
234.000 117.000
231.000 115.000
226.000 115.000
225.000 113.000
218.000 113.000
218.000 115.000
204.000 113.000
201.000 115.000
194.000 115.000
191.000 117.000
189.000 116.000
187.000 118.000
185.000 117.000
183.000 119.000
182.000 117.000
175.000 121.000
168.000 121.000
167.000 123.000
163.000 124.000
161.000 123.000
162.000 124.000
163.000 122.000
160.000 121.000
157.000 127.000
150.000 126.000
149.000 128.000
147.000 127.000
147.000 129.000
141.000 131.000
120.000 131.000
119.000 133.000
117.000 132.000
115.000 134.000
102.000 136.000
101.000 137.000
104.000 138.000
96.000 138.000
92.000 141.000
85.000 141.000
84.000 142.000
87.000 143.000
78.000 144.000
77.000 142.000
76.000 144.000
71.000 146.000
63.000 145.000
62.000 147.000
49.000 147.000
41.000 141.000
24.000 140.000
23.000 152.000
19.000 153.000
20.000 155.000
43.000 159.000
44.000 163.000
47.000 162.000
49.000 165.000
51.000 165.000
59.000 173.000
58.000 172.000
57.000 174.000
61.000 175.000
63.000 180.000
66.000 179.000
74.000 182.000
79.000 182.000
81.000 185.000
84.000 185.000
83.000 187.000
86.000 188.000
89.000 192.000
96.000 195.000
97.000 197.000
100.000 197.000
102.000 200.000
103.000 199.000
104.000 201.000
106.000 201.000
106.000 203.000
112.000 202.000
112.000 204.000
120.000 204.000
123.000 208.000
125.000 207.000
129.000 210.000
135.000 211.000
135.000 214.000
137.000 213.000
141.000 216.000
138.000 216.000
141.000 220.000
142.000 218.000
155.000 225.000
156.000 224.000
159.000 226.000
170.000 226.000
170.000 228.000
173.000 227.000
180.000 233.000
178.000 235.000
179.000 237.000
180.000 236.000
180.000 238.000
183.000 236.000
183.000 238.000
188.000 239.000
191.000 242.000
198.000 243.000
196.000 244.000
198.000 245.000
198.000 247.000
201.000 245.000
204.000 249.000
205.000 248.000
205.000 250.000
207.000 249.000
208.000 251.000
211.000 249.000
211.000 252.000
213.000 250.000
217.000 252.000
218.000 251.000
219.000 253.000
221.000 253.000
223.000 257.000
226.000 256.000
230.000 258.000
237.000 258.000
242.000 262.000
245.000 261.000
248.000 264.000
250.000 263.000
251.000 266.000
263.000 267.000
265.000 269.000
272.000 271.000
273.000 273.000
274.000 272.000
275.000 274.000
276.000 273.000
287.000 276.000
295.000 275.000
299.000 277.000
298.000 279.000
300.000 282.000
301.000 279.000
302.000 281.000
305.000 281.000
311.000 286.000
313.000 285.000
315.000 287.000
326.000 287.000
332.000 291.000
334.000 291.000
334.000 289.000
345.000 294.000
347.000 293.000
358.000 297.000
360.000 296.000
365.000 300.000
366.000 299.000
367.000 301.000
375.000 300.000
385.000 305.000
405.000 306.000
410.000 311.000
411.000 310.000
415.000 313.000
420.000 313.000
427.000 317.000
429.000 316.000
432.000 319.000
440.000 319.000
445.000 323.000
448.000 322.000
450.000 324.000
458.000 324.000
465.000 328.000
475.000 328.000
477.000 330.000
484.000 331.000
485.000 333.000
489.000 332.000
508.000 337.000
512.000 336.000
514.000 338.000
517.000 337.000
527.000 340.000
528.000 339.000
532.000 341.000
533.000 340.000
535.000 342.000
541.000 341.000
549.000 343.000
550.000 342.000
550.000 344.000
554.000 343.000
584.000 346.000
585.000 348.000
591.000 347.000
613.000 351.000
627.000 349.000
648.000 351.000
668.000 350.000
673.000 351.000
674.000 353.000
677.000 350.000
686.000 352.000
687.000 350.000
695.000 350.000
699.000 352.000
704.000 351.000
709.000 353.000
720.000 352.000
728.000 354.000
740.000 354.000
747.000 357.000
759.000 357.000
760.000 355.000
780.000 356.000
787.000 354.000
822.000 354.000
828.000 352.000
833.000 353.000
836.000 351.000
843.000 351.000
841.000 352.000
844.000 353.000
845.000 351.000
856.000 352.000
867.000 348.000
874.000 348.000
877.000 345.000
881.000 344.000
913.000 344.000
913.000 342.000
919.000 342.000
921.000 344.000
921.000 342.000
926.000 341.000
940.000 341.000
950.000 338.000
952.000 339.000
954.000 337.000
955.000 339.000
957.000 337.000
956.000 336.000
957.000 337.000
960.000 335.000
966.000 335.000
969.000 333.000
972.000 334.000
975.000 332.000
986.000 332.000
999.000 328.000
1002.000 329.000
1004.000 327.000
1006.000 328.000
1022.000 322.000
1026.000 324.000
1026.000 321.000
1028.000 322.000
1029.000 320.000
1032.000 320.000
1034.000 318.000
1036.000 319.000
1039.000 316.000
1040.000 317.000
1042.000 315.000
1045.000 315.000
1046.000 313.000
1055.000 313.000
1054.000 314.000
1056.000 315.000
1057.000 312.000
1061.000 312.000
1068.000 309.000
1070.000 310.000
1073.000 308.000
1074.000 309.000
1075.000 307.000
1080.000 307.000
1083.000 305.000
1086.000 306.000
1088.000 303.000
1089.000 306.000
1093.000 302.000
1097.000 305.000
1101.000 302.000
1100.000 301.000
1106.000 298.000
1108.000 299.000
1110.000 296.000
1117.000 295.000
1129.000 290.000
1133.000 291.000
1136.000 288.000
1135.000 287.000
1137.000 288.000
1138.000 286.000
1145.000 284.000
1146.000 286.000
1149.000 283.000
1151.000 284.000
1153.000 281.000
1162.000 280.000
1164.000 276.000
1171.000 276.000
1173.000 274.000
1172.000 272.000
1175.000 272.000
1178.000 269.000
1181.000 270.000
1181.000 268.000
1185.000 266.000
1186.000 267.000
1187.000 265.000
1189.000 266.000
1189.000 264.000
1190.000 265.000
1192.000 262.000
1204.000 261.000
1215.000 255.000
1214.000 256.000
1216.000 258.000
1217.000 254.000
1220.000 254.000
1221.000 252.000
1231.000 247.000
1235.000 243.000
1241.000 242.000
1248.000 236.000
1251.000 236.000
1251.000 234.000
1257.000 231.000
1258.000 232.000
1260.000 228.000
1265.000 227.000
1270.000 223.000
1274.000 223.000
1275.000 220.000
1278.000 219.000
1286.000 210.000
1293.000 207.000
1292.000 205.000
1298.000 198.000
1299.000 190.000
1302.000 190.000
1302.000 187.000
1307.000 185.000
1309.000 182.000
1308.000 181.000
1309.000 182.000
