ply
format ascii 1.0
comment Dominant contour extracted from bimodal image.
comment scale factor = 0.873362
comment kernel width = 3
comment decimate eps = 1.000000
comment orig shape   = (458, 1851)
comment threshold    = 248.000000
comment Written with hapPLY (https://github.com/nmwsharp/happly)
element flags 0
property uchar closed
element vertex 1044
property double x
property double y
end_header
50.000 245.000
53.000 245.000
53.000 251.000
58.000 257.000
60.000 257.000
58.000 258.000
63.000 260.000
60.000 262.000
61.000 263.000
64.000 263.000
67.000 260.000
73.000 262.000
81.000 262.000
78.000 262.000
78.000 264.000
83.000 264.000
83.000 262.000
86.000 264.000
89.000 261.000
90.000 263.000
94.000 260.000
108.000 261.000
109.000 259.000
114.000 260.000
118.000 258.000
164.000 258.000
167.000 260.000
168.000 263.000
171.000 262.000
172.000 265.000
174.000 265.000
173.000 267.000
171.000 263.000
169.000 266.000
172.000 270.000
176.000 268.000
173.000 270.000
175.000 272.000
178.000 270.000
179.000 271.000
178.000 270.000
176.000 272.000
178.000 276.000
179.000 274.000
181.000 276.000
183.000 273.000
182.000 275.000
184.000 277.000
185.000 275.000
191.000 277.000
191.000 283.000
193.000 285.000
193.000 279.000
200.000 284.000
203.000 284.000
204.000 286.000
203.000 285.000
202.000 287.000
206.000 289.000
206.000 292.000
209.000 290.000
212.000 292.000
212.000 295.000
214.000 294.000
216.000 297.000
219.000 297.000
216.000 297.000
216.000 299.000
221.000 298.000
226.000 302.000
227.000 306.000
228.000 304.000
233.000 306.000
233.000 308.000
235.000 308.000
232.000 310.000
233.000 312.000
235.000 312.000
237.000 309.000
240.000 309.000
241.000 313.000
243.000 311.000
246.000 313.000
250.000 312.000
251.000 314.000
252.000 313.000
255.000 315.000
261.000 315.000
268.000 319.000
269.000 318.000
270.000 320.000
274.000 321.000
275.000 323.000
273.000 323.000
273.000 325.000
280.000 327.000
282.000 325.000
281.000 323.000
284.000 326.000
285.000 324.000
286.000 326.000
290.000 326.000
291.000 329.000
293.000 329.000
293.000 327.000
295.000 328.000
295.000 330.000
297.000 329.000
304.000 334.000
302.000 337.000
303.000 338.000
307.000 336.000
307.000 339.000
314.000 339.000
316.000 342.000
318.000 342.000
318.000 344.000
320.000 343.000
317.000 345.000
319.000 347.000
323.000 345.000
323.000 342.000
323.000 344.000
325.000 342.000
331.000 342.000
332.000 344.000
335.000 342.000
337.000 343.000
339.000 341.000
342.000 342.000
345.000 339.000
349.000 341.000
360.000 340.000
362.000 337.000
365.000 337.000
363.000 338.000
365.000 340.000
369.000 340.000
370.000 338.000
367.000 337.000
380.000 338.000
381.000 336.000
382.000 337.000
387.000 334.000
401.000 334.000
403.000 332.000
405.000 334.000
411.000 333.000
412.000 337.000
413.000 334.000
417.000 337.000
419.000 336.000
419.000 338.000
431.000 338.000
432.000 340.000
434.000 339.000
433.000 338.000
437.000 340.000
441.000 339.000
451.000 341.000
453.000 343.000
467.000 342.000
468.000 344.000
477.000 341.000
480.000 343.000
485.000 343.000
486.000 345.000
492.000 344.000
494.000 345.000
492.000 346.000
494.000 348.000
496.000 347.000
496.000 344.000
515.000 346.000
520.000 345.000
530.000 347.000
530.000 345.000
539.000 345.000
537.000 346.000
538.000 347.000
548.000 346.000
550.000 348.000
552.000 348.000
554.000 346.000
553.000 345.000
563.000 345.000
567.000 347.000
569.000 345.000
568.000 343.000
572.000 341.000
574.000 338.000
576.000 340.000
586.000 340.000
586.000 338.000
580.000 338.000
578.000 336.000
589.000 336.000
590.000 338.000
598.000 337.000
596.000 338.000
597.000 339.000
603.000 337.000
617.000 337.000
628.000 340.000
639.000 340.000
641.000 342.000
645.000 341.000
646.000 343.000
653.000 342.000
654.000 345.000
657.000 341.000
704.000 341.000
704.000 339.000
707.000 339.000
707.000 342.000
710.000 338.000
712.000 338.000
710.000 339.000
712.000 341.000
720.000 338.000
718.000 337.000
723.000 337.000
723.000 339.000
725.000 338.000
729.000 341.000
731.000 339.000
737.000 340.000
737.000 338.000
740.000 337.000
742.000 338.000
740.000 337.000
738.000 339.000
743.000 341.000
747.000 339.000
744.000 338.000
749.000 337.000
747.000 336.000
767.000 337.000
775.000 334.000
777.000 335.000
780.000 333.000
787.000 334.000
787.000 332.000
792.000 334.000
793.000 333.000
789.000 331.000
798.000 329.000
799.000 326.000
807.000 323.000
817.000 323.000
818.000 325.000
819.000 323.000
824.000 324.000
825.000 322.000
833.000 321.000
834.000 324.000
835.000 321.000
838.000 322.000
841.000 320.000
855.000 319.000
856.000 321.000
862.000 318.000
871.000 319.000
872.000 318.000
869.000 317.000
882.000 317.000
887.000 312.000
890.000 312.000
896.000 307.000
898.000 308.000
900.000 306.000
903.000 306.000
904.000 309.000
905.000 306.000
912.000 305.000
913.000 307.000
914.000 303.000
916.000 302.000
924.000 302.000
928.000 306.000
933.000 306.000
934.000 305.000
932.000 304.000
936.000 302.000
933.000 304.000
935.000 306.000
939.000 306.000
943.000 304.000
938.000 303.000
938.000 301.000
939.000 303.000
942.000 302.000
940.000 301.000
942.000 300.000
941.000 301.000
943.000 303.000
945.000 300.000
948.000 303.000
949.000 299.000
960.000 299.000
963.000 301.000
965.000 299.000
990.000 299.000
994.000 301.000
992.000 300.000
989.000 304.000
992.000 306.000
993.000 303.000
995.000 306.000
997.000 303.000
996.000 301.000
1005.000 303.000
1006.000 301.000
1021.000 300.000
1022.000 302.000
1024.000 299.000
1031.000 299.000
1040.000 296.000
1041.000 299.000
1044.000 295.000
1051.000 294.000
1052.000 296.000
1058.000 291.000
1059.000 292.000
1061.000 290.000
1060.000 291.000
1062.000 292.000
1065.000 289.000
1068.000 289.000
1069.000 287.000
1070.000 289.000
1076.000 285.000
1077.000 287.000
1079.000 284.000
1083.000 284.000
1085.000 287.000
1087.000 286.000
1088.000 282.000
1090.000 284.000
1091.000 281.000
1093.000 284.000
1095.000 284.000
1096.000 282.000
1093.000 280.000
1097.000 278.000
1099.000 279.000
1100.000 277.000
1102.000 278.000
1103.000 276.000
1106.000 277.000
1106.000 275.000
1111.000 277.000
1115.000 277.000
1118.000 275.000
1118.000 277.000
1126.000 278.000
1128.000 275.000
1131.000 276.000
1131.000 273.000
1130.000 274.000
1128.000 272.000
1125.000 275.000
1121.000 274.000
1125.000 274.000
1126.000 272.000
1131.000 272.000
1135.000 270.000
1141.000 271.000
1142.000 268.000
1146.000 267.000
1153.000 268.000
1154.000 266.000
1162.000 266.000
1163.000 268.000
1164.000 266.000
1170.000 266.000
1177.000 263.000
1180.000 264.000
1180.000 262.000
1184.000 263.000
1184.000 261.000
1192.000 260.000
1190.000 260.000
1189.000 262.000
1193.000 263.000
1197.000 259.000
1204.000 257.000
1205.000 258.000
1206.000 256.000
1224.000 257.000
1225.000 256.000
1221.000 254.000
1211.000 254.000
1220.000 253.000
1223.000 255.000
1241.000 250.000
1253.000 250.000
1259.000 248.000
1259.000 251.000
1262.000 247.000
1269.000 249.000
1270.000 246.000
1273.000 248.000
1273.000 245.000
1275.000 246.000
1276.000 244.000
1280.000 245.000
1281.000 243.000
1292.000 243.000
1294.000 241.000
1292.000 243.000
1294.000 244.000
1298.000 239.000
1300.000 240.000
1300.000 243.000
1305.000 243.000
1306.000 242.000
1302.000 240.000
1302.000 237.000
1304.000 236.000
1303.000 235.000
1305.000 236.000
1303.000 239.000
1305.000 240.000
1306.000 238.000
1309.000 242.000
1310.000 238.000
1324.000 238.000
1326.000 236.000
1336.000 236.000
1337.000 234.000
1338.000 236.000
1349.000 231.000
1350.000 233.000
1352.000 231.000
1366.000 231.000
1369.000 229.000
1374.000 230.000
1375.000 228.000
1379.000 228.000
1380.000 230.000
1382.000 227.000
1387.000 225.000
1389.000 226.000
1399.000 221.000
1401.000 223.000
1404.000 221.000
1403.000 220.000
1407.000 222.000
1407.000 219.000
1411.000 217.000
1412.000 218.000
1411.000 217.000
1410.000 219.000
1414.000 222.000
1414.000 220.000
1417.000 218.000
1412.000 215.000
1413.000 216.000
1414.000 214.000
1417.000 215.000
1416.000 217.000
1418.000 218.000
1419.000 216.000
1421.000 217.000
1422.000 215.000
1439.000 214.000
1439.000 212.000
1444.000 212.000
1447.000 215.000
1448.000 213.000
1446.000 211.000
1448.000 211.000
1448.000 213.000
1450.000 213.000
1451.000 211.000
1452.000 215.000
1454.000 211.000
1456.000 211.000
1457.000 213.000
1459.000 211.000
1459.000 213.000
1461.000 214.000
1464.000 212.000
1464.000 210.000
1468.000 213.000
1470.000 208.000
1480.000 208.000
1481.000 206.000
1483.000 208.000
1485.000 206.000
1484.000 205.000
1488.000 206.000
1489.000 204.000
1493.000 204.000
1494.000 202.000
1496.000 203.000
1497.000 201.000
1498.000 202.000
1507.000 200.000
1509.000 197.000
1510.000 199.000
1512.000 197.000
1511.000 196.000
1517.000 193.000
1521.000 194.000
1523.000 192.000
1519.000 192.000
1523.000 192.000
1530.000 186.000
1534.000 187.000
1535.000 183.000
1538.000 183.000
1546.000 176.000
1550.000 176.000
1551.000 178.000
1552.000 176.000
1558.000 176.000
1558.000 178.000
1556.000 176.000
1550.000 179.000
1561.000 181.000
1561.000 174.000
1583.000 174.000
1591.000 179.000
1591.000 176.000
1594.000 173.000
1588.000 170.000
1586.000 171.000
1585.000 169.000
1584.000 170.000
1584.000 168.000
1569.000 169.000
1570.000 168.000
1567.000 165.000
1565.000 166.000
1567.000 168.000
1563.000 166.000
1556.000 167.000
1553.000 165.000
1555.000 164.000
1554.000 163.000
1549.000 163.000
1551.000 159.000
1550.000 158.000
1545.000 160.000
1547.000 161.000
1544.000 161.000
1544.000 158.000
1539.000 159.000
1535.000 157.000
1534.000 154.000
1531.000 155.000
1530.000 152.000
1520.000 149.000
1514.000 144.000
1504.000 141.000
1502.000 142.000
1495.000 139.000
1502.000 139.000
1496.000 136.000
1490.000 137.000
1490.000 139.000
1487.000 137.000
1480.000 138.000
1471.000 135.000
1461.000 135.000
1460.000 130.000
1458.000 131.000
1459.000 133.000
1457.000 133.000
1459.000 132.000
1456.000 130.000
1449.000 131.000
1449.000 128.000
1447.000 130.000
1442.000 129.000
1440.000 127.000
1439.000 128.000
1439.000 125.000
1437.000 123.000
1434.000 124.000
1436.000 125.000
1436.000 127.000
1434.000 125.000
1424.000 125.000
1421.000 121.000
1420.000 124.000
1415.000 120.000
1410.000 122.000
1408.000 120.000
1406.000 123.000
1402.000 123.000
1399.000 120.000
1401.000 120.000
1399.000 116.000
1397.000 117.000
1398.000 118.000
1386.000 116.000
1383.000 114.000
1383.000 112.000
1380.000 112.000
1379.000 114.000
1376.000 113.000
1378.000 113.000
1378.000 111.000
1373.000 112.000
1367.000 110.000
1364.000 107.000
1360.000 107.000
1362.000 105.000
1359.000 103.000
1358.000 107.000
1357.000 102.000
1355.000 104.000
1356.000 106.000
1350.000 104.000
1349.000 102.000
1344.000 103.000
1337.000 96.000
1336.000 97.000
1329.000 95.000
1329.000 98.000
1334.000 99.000
1324.000 96.000
1311.000 96.000
1310.000 93.000
1308.000 95.000
1308.000 92.000
1306.000 94.000
1303.000 93.000
1302.000 89.000
1300.000 93.000
1299.000 88.000
1297.000 89.000
1298.000 92.000
1293.000 92.000
1290.000 89.000
1287.000 90.000
1286.000 87.000
1285.000 89.000
1283.000 89.000
1283.000 86.000
1280.000 88.000
1272.000 86.000
1271.000 84.000
1270.000 85.000
1267.000 83.000
1257.000 81.000
1250.000 82.000
1242.000 78.000
1237.000 78.000
1240.000 78.000
1240.000 76.000
1236.000 76.000
1234.000 78.000
1230.000 78.000
1229.000 76.000
1226.000 77.000
1224.000 75.000
1208.000 77.000
1209.000 76.000
1205.000 74.000
1205.000 77.000
1199.000 76.000
1198.000 74.000
1188.000 75.000
1178.000 72.000
1171.000 72.000
1169.000 71.000
1171.000 69.000
1170.000 68.000
1167.000 70.000
1166.000 68.000
1164.000 69.000
1165.000 70.000
1160.000 70.000
1159.000 68.000
1155.000 69.000
1153.000 67.000
1138.000 67.000
1138.000 64.000
1134.000 64.000
1134.000 66.000
1130.000 66.000
1128.000 64.000
1115.000 65.000
1112.000 62.000
1111.000 65.000
1111.000 63.000
1109.000 62.000
1108.000 65.000
1098.000 65.000
1103.000 64.000
1097.000 63.000
1096.000 65.000
1081.000 66.000
1064.000 63.000
1067.000 63.000
1067.000 61.000
1054.000 63.000
1050.000 60.000
1048.000 62.000
1047.000 60.000
1041.000 60.000
1040.000 58.000
1037.000 59.000
1033.000 56.000
1031.000 58.000
1027.000 58.000
1026.000 56.000
1025.000 58.000
1014.000 58.000
1013.000 56.000
1003.000 56.000
1001.000 53.000
999.000 55.000
988.000 55.000
987.000 52.000
985.000 55.000
961.000 56.000
957.000 53.000
955.000 54.000
956.000 55.000
952.000 55.000
951.000 53.000
948.000 55.000
943.000 55.000
941.000 53.000
937.000 54.000
936.000 52.000
906.000 54.000
903.000 53.000
902.000 55.000
897.000 54.000
896.000 56.000
895.000 53.000
891.000 55.000
890.000 53.000
889.000 55.000
875.000 53.000
873.000 55.000
866.000 55.000
862.000 53.000
861.000 56.000
859.000 55.000
856.000 57.000
855.000 56.000
845.000 59.000
840.000 57.000
839.000 58.000
841.000 60.000
829.000 60.000
828.000 63.000
827.000 62.000
823.000 65.000
815.000 65.000
813.000 67.000
806.000 68.000
788.000 68.000
786.000 70.000
786.000 67.000
783.000 70.000
779.000 67.000
778.000 69.000
774.000 69.000
773.000 67.000
771.000 69.000
765.000 68.000
763.000 64.000
762.000 66.000
757.000 61.000
753.000 60.000
753.000 62.000
750.000 64.000
747.000 64.000
747.000 61.000
743.000 65.000
744.000 67.000
741.000 69.000
736.000 68.000
727.000 71.000
715.000 71.000
713.000 69.000
711.000 71.000
713.000 72.000
694.000 72.000
672.000 76.000
669.000 74.000
667.000 76.000
666.000 74.000
663.000 76.000
657.000 76.000
656.000 73.000
655.000 76.000
640.000 76.000
638.000 74.000
636.000 74.000
635.000 76.000
632.000 74.000
629.000 76.000
630.000 75.000
628.000 73.000
626.000 76.000
621.000 74.000
620.000 76.000
622.000 77.000
615.000 77.000
607.000 80.000
599.000 79.000
587.000 82.000
577.000 82.000
572.000 85.000
567.000 85.000
565.000 89.000
563.000 86.000
562.000 89.000
558.000 88.000
557.000 86.000
556.000 88.000
541.000 88.000
537.000 91.000
538.000 90.000
535.000 88.000
530.000 88.000
528.000 90.000
529.000 91.000
535.000 91.000
530.000 93.000
526.000 91.000
525.000 92.000
527.000 93.000
524.000 95.000
523.000 94.000
508.000 96.000
505.000 93.000
503.000 95.000
504.000 96.000
497.000 94.000
495.000 95.000
496.000 96.000
494.000 94.000
493.000 96.000
488.000 95.000
483.000 98.000
482.000 97.000
475.000 103.000
473.000 101.000
475.000 100.000
474.000 97.000
471.000 100.000
470.000 105.000
468.000 103.000
468.000 106.000
464.000 102.000
460.000 104.000
456.000 103.000
453.000 106.000
454.000 108.000
457.000 106.000
461.000 106.000
463.000 104.000
466.000 107.000
464.000 107.000
463.000 105.000
461.000 107.000
462.000 109.000
455.000 109.000
452.000 111.000
450.000 110.000
449.000 112.000
443.000 111.000
442.000 113.000
419.000 114.000
419.000 111.000
415.000 110.000
413.000 112.000
417.000 113.000
417.000 115.000
415.000 114.000
414.000 116.000
405.000 117.000
404.000 115.000
403.000 117.000
397.000 119.000
395.000 117.000
393.000 120.000
391.000 119.000
389.000 121.000
386.000 118.000
385.000 122.000
383.000 123.000
377.000 123.000
373.000 125.000
372.000 123.000
369.000 126.000
368.000 124.000
363.000 128.000
358.000 128.000
350.000 131.000
346.000 129.000
346.000 133.000
347.000 132.000
344.000 129.000
341.000 132.000
342.000 134.000
339.000 132.000
337.000 133.000
340.000 136.000
338.000 135.000
337.000 137.000
329.000 137.000
327.000 139.000
325.000 137.000
323.000 140.000
320.000 137.000
319.000 141.000
317.000 141.000
319.000 140.000
318.000 139.000
315.000 139.000
311.000 143.000
312.000 140.000
307.000 137.000
306.000 139.000
309.000 142.000
307.000 144.000
301.000 143.000
299.000 145.000
295.000 144.000
292.000 146.000
292.000 144.000
289.000 144.000
288.000 145.000
290.000 147.000
285.000 148.000
280.000 152.000
277.000 151.000
275.000 155.000
274.000 153.000
272.000 155.000
270.000 153.000
269.000 155.000
271.000 157.000
265.000 160.000
263.000 158.000
261.000 160.000
263.000 161.000
261.000 165.000
258.000 166.000
257.000 169.000
254.000 169.000
255.000 170.000
253.000 174.000
251.000 175.000
249.000 173.000
247.000 179.000
244.000 178.000
242.000 180.000
243.000 181.000
240.000 179.000
239.000 181.000
241.000 182.000
238.000 184.000
235.000 182.000
233.000 184.000
233.000 187.000
231.000 187.000
227.000 193.000
221.000 193.000
219.000 195.000
221.000 199.000
218.000 199.000
218.000 201.000
215.000 202.000
216.000 204.000
215.000 202.000
214.000 205.000
212.000 205.000
213.000 208.000
211.000 211.000
211.000 209.000
213.000 208.000
212.000 207.000
209.000 208.000
207.000 206.000
205.000 208.000
205.000 210.000
209.000 212.000
206.000 214.000
207.000 216.000
206.000 214.000
202.000 215.000
201.000 217.000
203.000 219.000
200.000 219.000
201.000 222.000
197.000 223.000
197.000 227.000
195.000 227.000
194.000 225.000
193.000 228.000
195.000 229.000
194.000 231.000
192.000 230.000
190.000 232.000
192.000 234.000
189.000 235.000
189.000 237.000
185.000 240.000
163.000 243.000
134.000 243.000
117.000 240.000
114.000 241.000
105.000 238.000
100.000 239.000
97.000 238.000
97.000 236.000
95.000 236.000
95.000 238.000
91.000 236.000
89.000 237.000
88.000 235.000
84.000 236.000
82.000 234.000
81.000 236.000
80.000 234.000
76.000 236.000
73.000 234.000
72.000 236.000
69.000 236.000
69.000 234.000
67.000 233.000
67.000 236.000
64.000 234.000
58.000 236.000
56.000 238.000
56.000 240.000
58.000 240.000
56.000 242.000
57.000 241.000
55.000 239.000
53.000 241.000
54.000 242.000
