ply
format ascii 1.0
comment Dominant contour extracted from bimodal image.
comment scale factor = 0.747664
comment kernel width = 3
comment decimate eps = 1.000000
comment orig shape   = (535, 1376)
comment threshold    = 245.000000
comment Written with hapPLY (https://github.com/nmwsharp/happly)
element flags 0
property uchar closed
element vertex 315
property double x
property double y
end_header
19.000 354.000
26.000 360.000
33.000 355.000
33.000 352.000
40.000 343.000
41.000 344.000
43.000 341.000
57.000 338.000
77.000 338.000
79.000 336.000
84.000 339.000
105.000 339.000
108.000 336.000
117.000 336.000
123.000 339.000
162.000 339.000
163.000 337.000
171.000 336.000
176.000 333.000
184.000 331.000
185.000 332.000
192.000 328.000
208.000 325.000
209.000 326.000
210.000 324.000
214.000 323.000
215.000 324.000
217.000 321.000
224.000 318.000
237.000 316.000
238.000 317.000
239.000 315.000
242.000 315.000
244.000 313.000
251.000 313.000
252.000 311.000
256.000 310.000
257.000 311.000
276.000 307.000
284.000 309.000
286.000 307.000
294.000 305.000
297.000 307.000
301.000 305.000
311.000 306.000
313.000 304.000
321.000 304.000
337.000 298.000
371.000 292.000
386.000 292.000
399.000 289.000
408.000 289.000
409.000 291.000
410.000 289.000
411.000 290.000
418.000 287.000
433.000 286.000
443.000 281.000
445.000 282.000
447.000 280.000
450.000 281.000
458.000 278.000
470.000 277.000
474.000 274.000
476.000 275.000
484.000 273.000
486.000 271.000
496.000 269.000
498.000 270.000
498.000 268.000
501.000 268.000
506.000 265.000
508.000 267.000
510.000 263.000
515.000 262.000
519.000 259.000
521.000 261.000
522.000 258.000
528.000 256.000
538.000 255.000
550.000 250.000
557.000 250.000
564.000 247.000
566.000 248.000
575.000 246.000
585.000 239.000
587.000 240.000
587.000 238.000
590.000 236.000
591.000 237.000
592.000 235.000
593.000 236.000
598.000 232.000
603.000 230.000
604.000 231.000
623.000 222.000
641.000 221.000
646.000 218.000
651.000 219.000
661.000 212.000
687.000 201.000
697.000 199.000
710.000 200.000
720.000 196.000
722.000 197.000
723.000 195.000
728.000 194.000
730.000 192.000
731.000 195.000
733.000 192.000
732.000 191.000
742.000 187.000
743.000 188.000
746.000 185.000
748.000 186.000
750.000 183.000
753.000 183.000
766.000 173.000
778.000 169.000
780.000 167.000
785.000 167.000
798.000 163.000
799.000 164.000
803.000 161.000
820.000 160.000
824.000 158.000
829.000 159.000
830.000 156.000
836.000 152.000
837.000 153.000
838.000 151.000
844.000 151.000
845.000 149.000
854.000 149.000
878.000 138.000
886.000 132.000
887.000 134.000
890.000 130.000
889.000 129.000
895.000 123.000
897.000 125.000
898.000 122.000
903.000 120.000
905.000 117.000
932.000 102.000
945.000 106.000
947.000 104.000
951.000 105.000
954.000 102.000
960.000 103.000
960.000 105.000
963.000 105.000
972.000 116.000
976.000 117.000
977.000 114.000
974.000 110.000
973.000 111.000
970.000 108.000
966.000 100.000
955.000 91.000
957.000 90.000
951.000 87.000
951.000 83.000
949.000 83.000
949.000 85.000
944.000 82.000
941.000 83.000
927.000 78.000
906.000 74.000
901.000 68.000
892.000 62.000
876.000 61.000
873.000 59.000
868.000 59.000
866.000 61.000
861.000 59.000
852.000 60.000
851.000 58.000
842.000 59.000
837.000 55.000
832.000 56.000
823.000 54.000
806.000 54.000
802.000 55.000
797.000 59.000
777.000 59.000
772.000 56.000
754.000 52.000
744.000 54.000
743.000 53.000
739.000 56.000
735.000 56.000
733.000 53.000
726.000 53.000
716.000 50.000
661.000 50.000
649.000 53.000
646.000 52.000
642.000 54.000
629.000 52.000
604.000 52.000
598.000 56.000
574.000 56.000
573.000 58.000
537.000 62.000
530.000 65.000
529.000 64.000
526.000 66.000
524.000 65.000
523.000 68.000
522.000 67.000
517.000 71.000
512.000 71.000
511.000 73.000
507.000 73.000
494.000 79.000
491.000 78.000
490.000 80.000
476.000 84.000
473.000 83.000
471.000 85.000
457.000 86.000
446.000 91.000
445.000 89.000
440.000 93.000
438.000 92.000
437.000 94.000
428.000 96.000
426.000 95.000
425.000 97.000
419.000 100.000
399.000 105.000
391.000 109.000
385.000 109.000
382.000 112.000
380.000 111.000
375.000 115.000
365.000 119.000
364.000 118.000
356.000 124.000
355.000 122.000
353.000 126.000
336.000 137.000
335.000 136.000
334.000 138.000
332.000 137.000
331.000 139.000
328.000 139.000
323.000 142.000
320.000 141.000
317.000 144.000
307.000 145.000
300.000 148.000
294.000 148.000
283.000 154.000
278.000 153.000
277.000 154.000
279.000 155.000
277.000 157.000
260.000 163.000
256.000 167.000
239.000 175.000
237.000 174.000
234.000 176.000
226.000 177.000
221.000 180.000
220.000 179.000
215.000 183.000
211.000 184.000
200.000 195.000
192.000 195.000
191.000 197.000
182.000 201.000
176.000 209.000
172.000 210.000
170.000 213.000
164.000 216.000
162.000 214.000
159.000 217.000
157.000 216.000
157.000 218.000
153.000 221.000
149.000 221.000
144.000 231.000
142.000 231.000
137.000 236.000
136.000 235.000
135.000 237.000
132.000 237.000
131.000 240.000
124.000 244.000
105.000 261.000
103.000 259.000
102.000 261.000
100.000 261.000
99.000 263.000
102.000 263.000
79.000 280.000
79.000 284.000
72.000 291.000
73.000 293.000
67.000 297.000
64.000 304.000
60.000 307.000
61.000 308.000
55.000 313.000
49.000 322.000
45.000 326.000
44.000 325.000
34.000 337.000
31.000 338.000
30.000 341.000
28.000 341.000
28.000 345.000
23.000 352.000
