ply
format ascii 1.0
comment Dominant contour extracted from bimodal image.
comment scale factor = 1.000000
comment kernel width = 3
comment decimate eps = 1.000000
comment orig shape   = (387, 1719)
comment threshold    = 200.000000
comment Written with hapPLY (https://github.com/nmwsharp/happly)
element flags 0
property uchar closed
element vertex 656
property double x
property double y
end_header
733.000 274.000
730.000 280.000
725.000 277.000
723.000 279.000
730.000 282.000
727.000 287.000
720.000 293.000
714.000 294.000
710.000 290.000
712.000 288.000
716.000 291.000
720.000 290.000
715.000 287.000
714.000 283.000
713.000 286.000
710.000 287.000
710.000 284.000
705.000 282.000
704.000 283.000
707.000 286.000
702.000 287.000
699.000 291.000
703.000 293.000
703.000 290.000
707.000 288.000
707.000 291.000
710.000 293.000
709.000 294.000
699.000 295.000
697.000 292.000
698.000 291.000
695.000 288.000
690.000 288.000
689.000 289.000
691.000 291.000
694.000 291.000
697.000 296.000
693.000 299.000
690.000 299.000
685.000 304.000
679.000 304.000
679.000 302.000
681.000 301.000
678.000 300.000
678.000 298.000
682.000 296.000
677.000 295.000
673.000 292.000
672.000 293.000
676.000 299.000
672.000 299.000
670.000 301.000
670.000 306.000
666.000 305.000
666.000 299.000
664.000 303.000
661.000 303.000
656.000 299.000
656.000 297.000
660.000 294.000
657.000 293.000
656.000 295.000
652.000 295.000
648.000 291.000
647.000 292.000
642.000 287.000
645.000 284.000
644.000 282.000
638.000 286.000
636.000 278.000
634.000 279.000
635.000 286.000
629.000 286.000
628.000 284.000
630.000 283.000
625.000 279.000
622.000 281.000
626.000 283.000
626.000 286.000
621.000 285.000
623.000 283.000
622.000 282.000
619.000 285.000
608.000 285.000
609.000 282.000
611.000 285.000
612.000 284.000
611.000 281.000
614.000 278.000
618.000 279.000
619.000 281.000
623.000 280.000
616.000 276.000
616.000 274.000
622.000 276.000
626.000 275.000
621.000 272.000
617.000 272.000
621.000 269.000
618.000 267.000
620.000 258.000
625.000 255.000
624.000 254.000
617.000 258.000
618.000 259.000
616.000 262.000
616.000 267.000
614.000 267.000
612.000 264.000
611.000 266.000
608.000 266.000
608.000 263.000
611.000 257.000
615.000 256.000
613.000 254.000
606.000 254.000
605.000 252.000
603.000 253.000
604.000 248.000
611.000 247.000
611.000 250.000
613.000 252.000
616.000 247.000
615.000 243.000
614.000 246.000
605.000 245.000
605.000 242.000
602.000 239.000
601.000 241.000
603.000 246.000
602.000 248.000
598.000 249.000
601.000 250.000
601.000 252.000
596.000 252.000
593.000 249.000
590.000 250.000
594.000 254.000
598.000 254.000
600.000 257.000
601.000 255.000
609.000 256.000
605.000 264.000
606.000 266.000
603.000 267.000
608.000 268.000
610.000 270.000
611.000 268.000
612.000 270.000
615.000 269.000
612.000 277.000
610.000 275.000
606.000 276.000
610.000 279.000
605.000 279.000
604.000 281.000
606.000 282.000
606.000 284.000
601.000 283.000
599.000 280.000
597.000 281.000
593.000 278.000
591.000 279.000
590.000 277.000
589.000 279.000
581.000 275.000
580.000 273.000
582.000 271.000
588.000 273.000
590.000 270.000
583.000 269.000
580.000 263.000
572.000 264.000
579.000 265.000
578.000 266.000
581.000 269.000
578.000 272.000
574.000 272.000
572.000 269.000
571.000 271.000
554.000 269.000
543.000 257.000
544.000 254.000
541.000 254.000
536.000 249.000
539.000 250.000
540.000 248.000
535.000 247.000
528.000 242.000
527.000 240.000
532.000 238.000
529.000 236.000
527.000 238.000
522.000 236.000
523.000 235.000
517.000 231.000
519.000 229.000
516.000 229.000
511.000 225.000
514.000 223.000
513.000 222.000
509.000 223.000
501.000 216.000
503.000 215.000
503.000 218.000
506.000 215.000
507.000 216.000
512.000 214.000
512.000 216.000
508.000 218.000
511.000 220.000
514.000 216.000
515.000 218.000
518.000 217.000
516.000 215.000
518.000 213.000
521.000 217.000
522.000 214.000
523.000 216.000
524.000 214.000
525.000 216.000
526.000 214.000
529.000 214.000
525.000 217.000
518.000 217.000
516.000 219.000
517.000 220.000
524.000 220.000
532.000 215.000
535.000 220.000
541.000 224.000
542.000 222.000
539.000 220.000
540.000 219.000
537.000 218.000
532.000 211.000
535.000 212.000
536.000 209.000
540.000 210.000
541.000 209.000
537.000 207.000
544.000 207.000
540.000 210.000
541.000 217.000
545.000 219.000
548.000 217.000
543.000 216.000
543.000 211.000
546.000 210.000
549.000 215.000
553.000 218.000
554.000 216.000
558.000 214.000
560.000 215.000
562.000 213.000
557.000 212.000
552.000 214.000
548.000 207.000
549.000 208.000
550.000 206.000
551.000 209.000
552.000 207.000
554.000 207.000
550.000 210.000
555.000 212.000
556.000 208.000
559.000 206.000
560.000 207.000
558.000 210.000
559.000 211.000
563.000 209.000
563.000 211.000
567.000 214.000
567.000 219.000
570.000 224.000
568.000 225.000
571.000 226.000
575.000 232.000
569.000 235.000
576.000 235.000
580.000 241.000
580.000 245.000
573.000 250.000
563.000 250.000
562.000 252.000
567.000 252.000
568.000 254.000
569.000 252.000
572.000 252.000
574.000 256.000
575.000 251.000
582.000 246.000
589.000 250.000
591.000 249.000
583.000 243.000
582.000 241.000
584.000 240.000
581.000 239.000
577.000 233.000
580.000 230.000
575.000 229.000
569.000 213.000
571.000 212.000
567.000 211.000
565.000 207.000
567.000 208.000
574.000 206.000
576.000 208.000
570.000 211.000
575.000 211.000
577.000 213.000
578.000 209.000
583.000 210.000
587.000 208.000
589.000 211.000
587.000 212.000
590.000 214.000
591.000 219.000
586.000 220.000
593.000 222.000
588.000 224.000
596.000 226.000
596.000 228.000
595.000 227.000
592.000 229.000
595.000 231.000
599.000 229.000
598.000 226.000
605.000 225.000
606.000 223.000
605.000 222.000
597.000 224.000
594.000 220.000
595.000 217.000
593.000 216.000
593.000 212.000
591.000 211.000
590.000 207.000
592.000 205.000
593.000 208.000
594.000 206.000
597.000 206.000
597.000 210.000
593.000 211.000
599.000 212.000
600.000 207.000
603.000 207.000
603.000 205.000
606.000 204.000
609.000 208.000
608.000 209.000
613.000 213.000
615.000 217.000
615.000 221.000
618.000 225.000
619.000 231.000
604.000 234.000
602.000 230.000
599.000 229.000
598.000 231.000
601.000 235.000
594.000 237.000
592.000 239.000
593.000 241.000
591.000 242.000
594.000 244.000
595.000 239.000
599.000 238.000
601.000 240.000
603.000 236.000
610.000 236.000
611.000 239.000
608.000 240.000
612.000 242.000
614.000 239.000
612.000 235.000
620.000 233.000
625.000 239.000
624.000 240.000
628.000 243.000
627.000 245.000
630.000 247.000
628.000 251.000
629.000 252.000
633.000 251.000
637.000 253.000
637.000 255.000
639.000 254.000
641.000 256.000
642.000 255.000
647.000 258.000
651.000 258.000
645.000 258.000
646.000 260.000
650.000 261.000
646.000 263.000
648.000 264.000
647.000 267.000
643.000 265.000
636.000 265.000
637.000 268.000
643.000 268.000
639.000 270.000
640.000 272.000
643.000 272.000
645.000 269.000
647.000 269.000
646.000 274.000
641.000 274.000
636.000 271.000
638.000 270.000
636.000 267.000
633.000 268.000
633.000 270.000
626.000 269.000
625.000 267.000
624.000 269.000
620.000 270.000
621.000 272.000
628.000 272.000
628.000 275.000
625.000 276.000
627.000 279.000
631.000 276.000
630.000 273.000
633.000 272.000
636.000 273.000
639.000 277.000
646.000 277.000
647.000 279.000
644.000 282.000
647.000 283.000
649.000 280.000
655.000 280.000
655.000 285.000
657.000 283.000
657.000 280.000
663.000 280.000
664.000 275.000
669.000 275.000
670.000 272.000
669.000 271.000
668.000 273.000
665.000 273.000
662.000 269.000
661.000 278.000
649.000 278.000
648.000 275.000
654.000 274.000
649.000 273.000
649.000 269.000
656.000 270.000
658.000 268.000
655.000 266.000
650.000 267.000
654.000 259.000
658.000 260.000
658.000 263.000
655.000 263.000
654.000 260.000
652.000 263.000
654.000 266.000
661.000 265.000
661.000 260.000
664.000 263.000
662.000 264.000
663.000 265.000
666.000 265.000
667.000 267.000
674.000 269.000
680.000 275.000
680.000 282.000
683.000 275.000
688.000 273.000
689.000 274.000
691.000 271.000
699.000 271.000
698.000 268.000
694.000 268.000
695.000 265.000
704.000 263.000
707.000 260.000
705.000 259.000
703.000 261.000
698.000 261.000
696.000 263.000
692.000 255.000
692.000 248.000
694.000 246.000
686.000 246.000
685.000 244.000
680.000 245.000
680.000 243.000
684.000 239.000
690.000 239.000
689.000 237.000
687.000 237.000
686.000 234.000
679.000 241.000
675.000 241.000
677.000 244.000
671.000 244.000
668.000 247.000
671.000 248.000
678.000 246.000
679.000 247.000
676.000 252.000
668.000 253.000
667.000 251.000
666.000 254.000
661.000 257.000
654.000 256.000
654.000 253.000
652.000 255.000
645.000 254.000
644.000 252.000
647.000 251.000
645.000 249.000
642.000 252.000
636.000 250.000
636.000 248.000
633.000 248.000
632.000 245.000
642.000 242.000
640.000 240.000
633.000 243.000
630.000 242.000
624.000 233.000
626.000 231.000
622.000 229.000
622.000 227.000
627.000 226.000
629.000 224.000
632.000 227.000
636.000 227.000
636.000 231.000
632.000 235.000
630.000 234.000
628.000 237.000
629.000 238.000
633.000 237.000
637.000 233.000
641.000 233.000
638.000 231.000
638.000 227.000
646.000 226.000
646.000 238.000
641.000 241.000
649.000 241.000
653.000 244.000
659.000 243.000
662.000 247.000
663.000 246.000
661.000 240.000
654.000 241.000
653.000 239.000
648.000 239.000
648.000 234.000
656.000 233.000
655.000 231.000
648.000 232.000
648.000 225.000
657.000 225.000
647.000 223.000
647.000 221.000
649.000 220.000
654.000 222.000
655.000 220.000
662.000 219.000
660.000 216.000
659.000 218.000
656.000 218.000
655.000 215.000
653.000 219.000
648.000 218.000
647.000 215.000
651.000 210.000
656.000 211.000
656.000 216.000
658.000 217.000
660.000 215.000
658.000 214.000
659.000 213.000
661.000 217.000
665.000 217.000
661.000 220.000
663.000 223.000
667.000 219.000
670.000 219.000
670.000 222.000
673.000 221.000
675.000 223.000
673.000 224.000
679.000 226.000
678.000 228.000
675.000 228.000
675.000 230.000
672.000 232.000
669.000 232.000
667.000 230.000
666.000 232.000
668.000 235.000
664.000 238.000
662.000 237.000
662.000 241.000
668.000 237.000
670.000 237.000
672.000 241.000
675.000 241.000
676.000 239.000
671.000 235.000
677.000 233.000
678.000 230.000
681.000 228.000
684.000 228.000
687.000 230.000
685.000 231.000
687.000 232.000
687.000 235.000
690.000 231.000
699.000 238.000
696.000 241.000
697.000 243.000
701.000 240.000
706.000 246.000
707.000 245.000
710.000 249.000
712.000 249.000
713.000 252.000
711.000 252.000
710.000 255.000
706.000 257.000
707.000 260.000
715.000 253.000
723.000 259.000
722.000 262.000
716.000 264.000
713.000 268.000
714.000 269.000
718.000 266.000
721.000 267.000
724.000 263.000
726.000 263.000
728.000 267.000
731.000 269.000
731.000 271.000
727.000 270.000
723.000 272.000
724.000 270.000
729.000 268.000
727.000 266.000
724.000 267.000
721.000 272.000
717.000 274.000
719.000 276.000
722.000 274.000
