ply
format ascii 1.0
comment Dominant contour extracted from bimodal image.
comment scale factor = 0.919540
comment kernel width = 3
comment decimate eps = 1.000000
comment orig shape   = (435, 1608)
comment threshold    = 245.000000
comment Written with hapPLY (https://github.com/nmwsharp/happly)
element flags 0
property uchar closed
element vertex 528
property double x
property double y
end_header
60.000 207.000
63.000 209.000
64.000 212.000
70.000 216.000
71.000 215.000
75.000 217.000
86.000 218.000
88.000 220.000
91.000 219.000
110.000 223.000
148.000 223.000
165.000 225.000
165.000 227.000
171.000 226.000
178.000 228.000
180.000 230.000
181.000 229.000
182.000 232.000
184.000 230.000
185.000 232.000
193.000 236.000
193.000 240.000
195.000 238.000
195.000 241.000
200.000 244.000
201.000 250.000
204.000 248.000
208.000 252.000
208.000 255.000
211.000 256.000
217.000 267.000
219.000 267.000
222.000 270.000
222.000 272.000
225.000 275.000
224.000 277.000
233.000 285.000
233.000 287.000
237.000 287.000
238.000 290.000
240.000 289.000
239.000 288.000
241.000 291.000
242.000 290.000
243.000 292.000
264.000 302.000
272.000 302.000
281.000 309.000
287.000 311.000
295.000 311.000
296.000 316.000
298.000 312.000
305.000 318.000
318.000 322.000
320.000 324.000
341.000 327.000
351.000 326.000
352.000 328.000
354.000 325.000
379.000 325.000
392.000 331.000
398.000 331.000
399.000 334.000
400.000 332.000
403.000 334.000
404.000 333.000
405.000 335.000
409.000 335.000
420.000 340.000
421.000 342.000
423.000 341.000
434.000 344.000
436.000 346.000
442.000 346.000
443.000 348.000
450.000 347.000
452.000 349.000
466.000 348.000
471.000 350.000
492.000 350.000
499.000 348.000
564.000 346.000
571.000 348.000
582.000 348.000
583.000 352.000
585.000 349.000
588.000 352.000
590.000 351.000
591.000 353.000
608.000 353.000
623.000 356.000
625.000 354.000
630.000 353.000
657.000 354.000
671.000 350.000
674.000 351.000
675.000 349.000
676.000 351.000
677.000 349.000
692.000 348.000
693.000 350.000
695.000 350.000
696.000 348.000
698.000 349.000
705.000 346.000
711.000 346.000
712.000 344.000
749.000 339.000
777.000 339.000
782.000 341.000
795.000 338.000
798.000 339.000
800.000 337.000
816.000 338.000
820.000 335.000
822.000 336.000
825.000 334.000
829.000 335.000
832.000 333.000
844.000 333.000
851.000 330.000
853.000 331.000
855.000 329.000
856.000 331.000
861.000 326.000
862.000 327.000
868.000 325.000
870.000 327.000
880.000 323.000
882.000 324.000
888.000 320.000
889.000 321.000
895.000 318.000
904.000 311.000
905.000 312.000
915.000 306.000
919.000 306.000
920.000 304.000
922.000 305.000
922.000 303.000
946.000 298.000
959.000 298.000
959.000 296.000
969.000 293.000
970.000 294.000
974.000 291.000
978.000 291.000
983.000 287.000
987.000 287.000
1003.000 281.000
1005.000 282.000
1010.000 278.000
1015.000 278.000
1017.000 276.000
1022.000 276.000
1024.000 274.000
1027.000 275.000
1028.000 274.000
1026.000 273.000
1028.000 273.000
1029.000 271.000
1033.000 272.000
1034.000 269.000
1035.000 271.000
1038.000 267.000
1040.000 268.000
1044.000 265.000
1056.000 263.000
1062.000 260.000
1064.000 261.000
1065.000 258.000
1072.000 254.000
1075.000 255.000
1075.000 253.000
1080.000 252.000
1081.000 250.000
1086.000 250.000
1092.000 247.000
1098.000 247.000
1110.000 243.000
1112.000 241.000
1116.000 242.000
1116.000 240.000
1120.000 241.000
1120.000 239.000
1129.000 236.000
1136.000 236.000
1137.000 234.000
1157.000 226.000
1160.000 227.000
1160.000 225.000
1165.000 223.000
1167.000 224.000
1169.000 221.000
1176.000 219.000
1179.000 220.000
1182.000 217.000
1187.000 217.000
1187.000 215.000
1188.000 216.000
1189.000 214.000
1204.000 211.000
1206.000 208.000
1213.000 205.000
1225.000 197.000
1227.000 197.000
1226.000 198.000
1228.000 199.000
1231.000 196.000
1229.000 195.000
1236.000 193.000
1244.000 186.000
1255.000 184.000
1255.000 182.000
1257.000 181.000
1259.000 182.000
1262.000 178.000
1264.000 178.000
1263.000 176.000
1268.000 172.000
1266.000 171.000
1268.000 170.000
1269.000 172.000
1270.000 170.000
1276.000 168.000
1278.000 169.000
1281.000 165.000
1285.000 166.000
1288.000 163.000
1286.000 162.000
1292.000 160.000
1302.000 153.000
1304.000 150.000
1308.000 150.000
1308.000 148.000
1310.000 148.000
1317.000 139.000
1321.000 139.000
1321.000 137.000
1323.000 137.000
1329.000 129.000
1331.000 130.000
1336.000 123.000
1349.000 115.000
1350.000 116.000
1359.000 107.000
1361.000 103.000
1365.000 101.000
1363.000 100.000
1375.000 85.000
1377.000 85.000
1378.000 83.000
1379.000 84.000
1380.000 82.000
1386.000 79.000
1388.000 80.000
1388.000 78.000
1389.000 79.000
1391.000 77.000
1391.000 74.000
1393.000 72.000
1392.000 71.000
1395.000 68.000
1395.000 62.000
1393.000 62.000
1392.000 65.000
1389.000 67.000
1390.000 68.000
1386.000 69.000
1388.000 71.000
1389.000 70.000
1384.000 75.000
1383.000 74.000
1381.000 77.000
1369.000 81.000
1360.000 80.000
1357.000 78.000
1348.000 78.000
1346.000 76.000
1344.000 77.000
1331.000 75.000
1325.000 73.000
1323.000 70.000
1321.000 71.000
1317.000 69.000
1311.000 71.000
1303.000 71.000
1301.000 67.000
1300.000 70.000
1293.000 68.000
1291.000 69.000
1288.000 67.000
1288.000 69.000
1285.000 69.000
1283.000 71.000
1282.000 69.000
1270.000 69.000
1268.000 66.000
1267.000 68.000
1261.000 68.000
1258.000 66.000
1230.000 66.000
1224.000 63.000
1209.000 64.000
1203.000 62.000
1199.000 65.000
1195.000 65.000
1192.000 67.000
1171.000 67.000
1165.000 65.000
1152.000 65.000
1145.000 68.000
1135.000 68.000
1130.000 66.000
1112.000 66.000
1112.000 68.000
1110.000 66.000
1106.000 69.000
1098.000 69.000
1094.000 71.000
1085.000 71.000
1082.000 69.000
1081.000 71.000
1074.000 71.000
1063.000 74.000
1028.000 72.000
1020.000 73.000
1009.000 78.000
1002.000 78.000
1000.000 76.000
988.000 76.000
987.000 73.000
986.000 77.000
970.000 77.000
969.000 79.000
958.000 82.000
952.000 80.000
947.000 83.000
946.000 81.000
945.000 83.000
942.000 83.000
940.000 85.000
935.000 84.000
934.000 85.000
936.000 87.000
934.000 88.000
929.000 87.000
924.000 90.000
924.000 88.000
922.000 90.000
911.000 90.000
910.000 88.000
909.000 90.000
908.000 89.000
905.000 91.000
862.000 91.000
847.000 93.000
821.000 91.000
819.000 93.000
812.000 93.000
808.000 91.000
796.000 91.000
792.000 89.000
787.000 90.000
786.000 88.000
784.000 91.000
782.000 88.000
781.000 91.000
778.000 91.000
777.000 93.000
777.000 91.000
775.000 91.000
776.000 90.000
774.000 88.000
767.000 88.000
765.000 90.000
757.000 89.000
755.000 91.000
754.000 90.000
735.000 92.000
720.000 92.000
721.000 91.000
719.000 90.000
709.000 94.000
699.000 94.000
693.000 92.000
692.000 94.000
685.000 94.000
684.000 92.000
668.000 93.000
668.000 91.000
662.000 93.000
650.000 91.000
625.000 91.000
618.000 95.000
608.000 93.000
601.000 93.000
595.000 95.000
594.000 94.000
591.000 96.000
586.000 96.000
583.000 99.000
580.000 97.000
567.000 98.000
560.000 101.000
559.000 98.000
556.000 102.000
545.000 102.000
544.000 99.000
543.000 101.000
537.000 101.000
533.000 99.000
525.000 100.000
523.000 98.000
513.000 98.000
510.000 100.000
493.000 100.000
492.000 98.000
491.000 100.000
478.000 100.000
471.000 103.000
466.000 102.000
458.000 105.000
457.000 104.000
456.000 106.000
454.000 105.000
450.000 109.000
442.000 113.000
434.000 113.000
433.000 116.000
425.000 116.000
424.000 118.000
417.000 117.000
405.000 122.000
403.000 120.000
379.000 121.000
375.000 124.000
366.000 124.000
362.000 126.000
359.000 126.000
358.000 124.000
355.000 126.000
355.000 128.000
348.000 130.000
347.000 129.000
342.000 133.000
335.000 134.000
334.000 136.000
332.000 135.000
332.000 137.000
328.000 136.000
327.000 138.000
325.000 137.000
321.000 140.000
320.000 138.000
318.000 141.000
311.000 140.000
309.000 143.000
308.000 141.000
307.000 143.000
305.000 142.000
301.000 145.000
298.000 144.000
298.000 146.000
288.000 146.000
285.000 148.000
283.000 146.000
279.000 149.000
274.000 148.000
274.000 150.000
268.000 150.000
262.000 156.000
254.000 159.000
253.000 157.000
252.000 160.000
245.000 161.000
244.000 164.000
240.000 164.000
239.000 166.000
238.000 164.000
235.000 168.000
231.000 170.000
230.000 169.000
228.000 171.000
227.000 169.000
225.000 172.000
222.000 172.000
219.000 176.000
215.000 176.000
211.000 180.000
208.000 178.000
205.000 183.000
202.000 183.000
202.000 185.000
199.000 187.000
198.000 185.000
195.000 185.000
194.000 188.000
197.000 188.000
191.000 193.000
192.000 194.000
189.000 194.000
189.000 196.000
184.000 200.000
181.000 198.000
181.000 201.000
179.000 201.000
178.000 199.000
175.000 202.000
176.000 203.000
171.000 206.000
155.000 210.000
152.000 208.000
151.000 211.000
131.000 212.000
122.000 210.000
115.000 211.000
92.000 208.000
91.000 209.000
89.000 207.000
86.000 208.000
74.000 205.000
72.000 202.000
70.000 203.000
71.000 204.000
69.000 202.000
65.000 203.000
63.000 206.000
