ply
format ascii 1.0
comment Dominant contour extracted from bimodal image.
comment scale factor = 1.000000
comment kernel width = 3
comment decimate eps = 1.000000
comment orig shape   = (379, 1109)
comment threshold    = 241.500000
comment Written with hapPLY (https://github.com/nmwsharp/happly)
element flags 0
property uchar closed
element vertex 296
property double x
property double y
end_header
1043.000 206.000
1040.000 201.000
1040.000 197.000
1043.000 194.000
1038.000 192.000
1037.000 190.000
1029.000 190.000
1025.000 186.000
1021.000 185.000
1019.000 182.000
1018.000 183.000
1016.000 175.000
1014.000 178.000
1015.000 181.000
1006.000 178.000
1002.000 174.000
997.000 178.000
995.000 176.000
991.000 176.000
991.000 178.000
988.000 177.000
987.000 179.000
985.000 178.000
982.000 181.000
981.000 176.000
977.000 179.000
974.000 176.000
972.000 178.000
972.000 181.000
970.000 182.000
967.000 180.000
962.000 181.000
967.000 184.000
968.000 183.000
967.000 185.000
966.000 183.000
964.000 186.000
961.000 186.000
960.000 184.000
954.000 186.000
951.000 190.000
949.000 189.000
950.000 184.000
952.000 182.000
959.000 181.000
962.000 177.000
964.000 179.000
970.000 174.000
976.000 174.000
974.000 173.000
974.000 166.000
976.000 165.000
971.000 165.000
973.000 164.000
967.000 161.000
966.000 158.000
967.000 159.000
970.000 157.000
966.000 154.000
959.000 154.000
956.000 150.000
960.000 152.000
970.000 151.000
950.000 147.000
949.000 144.000
948.000 146.000
941.000 144.000
939.000 145.000
919.000 137.000
904.000 137.000
897.000 132.000
891.000 132.000
888.000 130.000
887.000 131.000
882.000 127.000
874.000 127.000
871.000 125.000
855.000 123.000
843.000 119.000
841.000 121.000
833.000 119.000
824.000 121.000
810.000 121.000
808.000 119.000
807.000 120.000
797.000 116.000
776.000 112.000
773.000 110.000
765.000 110.000
757.000 105.000
746.000 102.000
737.000 102.000
735.000 100.000
733.000 101.000
730.000 99.000
726.000 99.000
723.000 96.000
722.000 97.000
713.000 94.000
709.000 95.000
689.000 91.000
676.000 94.000
662.000 95.000
657.000 92.000
656.000 93.000
640.000 89.000
631.000 91.000
565.000 91.000
557.000 93.000
528.000 93.000
507.000 91.000
504.000 93.000
488.000 95.000
415.000 99.000
409.000 101.000
408.000 100.000
405.000 102.000
397.000 102.000
394.000 104.000
392.000 103.000
391.000 105.000
381.000 105.000
379.000 107.000
372.000 106.000
368.000 108.000
359.000 107.000
331.000 111.000
330.000 110.000
328.000 112.000
321.000 114.000
299.000 116.000
296.000 118.000
291.000 118.000
282.000 121.000
281.000 120.000
278.000 122.000
265.000 124.000
259.000 127.000
258.000 126.000
247.000 130.000
244.000 129.000
239.000 132.000
232.000 132.000
228.000 135.000
220.000 137.000
219.000 136.000
215.000 139.000
211.000 139.000
206.000 142.000
196.000 144.000
163.000 159.000
158.000 159.000
127.000 171.000
125.000 170.000
124.000 172.000
123.000 171.000
122.000 173.000
113.000 177.000
88.000 178.000
81.000 176.000
17.000 176.000
19.000 182.000
48.000 184.000
58.000 187.000
61.000 186.000
62.000 188.000
65.000 187.000
70.000 189.000
77.000 189.000
86.000 191.000
88.000 193.000
90.000 192.000
92.000 194.000
97.000 194.000
104.000 199.000
108.000 204.000
111.000 204.000
120.000 211.000
137.000 218.000
142.000 222.000
154.000 227.000
157.000 230.000
208.000 255.000
224.000 265.000
225.000 264.000
233.000 267.000
238.000 267.000
243.000 269.000
244.000 271.000
247.000 271.000
248.000 273.000
249.000 272.000
253.000 275.000
254.000 274.000
264.000 279.000
272.000 281.000
277.000 285.000
292.000 291.000
301.000 290.000
310.000 295.000
331.000 300.000
341.000 300.000
342.000 302.000
344.000 301.000
345.000 303.000
346.000 302.000
355.000 305.000
360.000 305.000
362.000 307.000
366.000 306.000
372.000 308.000
385.000 308.000
397.000 311.000
405.000 310.000
417.000 312.000
422.000 315.000
432.000 317.000
443.000 316.000
448.000 317.000
449.000 319.000
451.000 318.000
478.000 323.000
495.000 324.000
508.000 322.000
509.000 323.000
518.000 320.000
528.000 320.000
537.000 322.000
541.000 320.000
542.000 322.000
544.000 319.000
586.000 320.000
601.000 322.000
604.000 321.000
612.000 324.000
642.000 324.000
653.000 327.000
670.000 326.000
691.000 322.000
709.000 326.000
711.000 324.000
716.000 325.000
722.000 322.000
728.000 323.000
736.000 321.000
737.000 322.000
739.000 320.000
755.000 318.000
758.000 315.000
770.000 315.000
775.000 312.000
782.000 312.000
787.000 310.000
791.000 311.000
804.000 306.000
806.000 307.000
809.000 304.000
816.000 304.000
823.000 301.000
830.000 302.000
837.000 299.000
846.000 300.000
848.000 298.000
860.000 294.000
861.000 295.000
862.000 293.000
867.000 291.000
879.000 291.000
885.000 286.000
889.000 286.000
896.000 281.000
903.000 279.000
909.000 274.000
915.000 274.000
920.000 270.000
926.000 270.000
927.000 268.000
930.000 268.000
932.000 266.000
933.000 268.000
934.000 266.000
945.000 263.000
957.000 257.000
961.000 253.000
964.000 254.000
965.000 252.000
969.000 251.000
985.000 241.000
993.000 239.000
995.000 235.000
1001.000 233.000
1008.000 223.000
1020.000 211.000
1023.000 212.000
1034.000 207.000
1039.000 209.000
