ply
format ascii 1.0
comment Dominant contour extracted from bimodal image.
comment scale factor = 1.000000
comment kernel width = 3
comment decimate eps = 1.000000
comment orig shape   = (235, 677)
comment threshold    = 226.000000
comment Written with hapPLY (https://github.com/nmwsharp/happly)
element flags 0
property uchar closed
element vertex 216
property double x
property double y
end_header
0.000 167.000
13.000 168.000
47.000 162.000
64.000 162.000
77.000 165.000
97.000 173.000
108.000 175.000
118.000 179.000
130.000 180.000
135.000 183.000
143.000 185.000
160.000 185.000
168.000 181.000
179.000 182.000
190.000 190.000
197.000 193.000
209.000 195.000
221.000 194.000
237.000 198.000
250.000 196.000
259.000 197.000
272.000 193.000
277.000 194.000
287.000 192.000
294.000 187.000
305.000 186.000
310.000 188.000
337.000 188.000
346.000 186.000
370.000 185.000
382.000 180.000
389.000 174.000
400.000 171.000
406.000 173.000
413.000 173.000
433.000 169.000
438.000 166.000
434.000 163.000
433.000 166.000
431.000 166.000
431.000 160.000
433.000 159.000
438.000 160.000
434.000 163.000
438.000 163.000
438.000 166.000
443.000 165.000
453.000 159.000
462.000 160.000
472.000 156.000
488.000 146.000
496.000 145.000
499.000 142.000
512.000 137.000
517.000 132.000
524.000 130.000
536.000 122.000
546.000 112.000
557.000 111.000
571.000 105.000
581.000 103.000
587.000 99.000
596.000 99.000
599.000 101.000
599.000 95.000
589.000 87.000
590.000 84.000
588.000 81.000
598.000 73.000
580.000 64.000
576.000 60.000
575.000 62.000
571.000 62.000
573.000 60.000
570.000 59.000
569.000 62.000
566.000 62.000
566.000 60.000
575.000 59.000
573.000 56.000
570.000 57.000
570.000 54.000
566.000 54.000
562.000 51.000
558.000 51.000
555.000 49.000
553.000 50.000
553.000 53.000
546.000 49.000
545.000 50.000
548.000 53.000
560.000 57.000
563.000 61.000
560.000 63.000
557.000 61.000
556.000 63.000
555.000 61.000
557.000 60.000
560.000 63.000
563.000 61.000
561.000 59.000
560.000 60.000
559.000 57.000
556.000 57.000
554.000 59.000
552.000 58.000
551.000 60.000
553.000 61.000
554.000 65.000
545.000 68.000
542.000 67.000
540.000 69.000
543.000 70.000
536.000 73.000
534.000 77.000
530.000 75.000
528.000 76.000
528.000 74.000
529.000 76.000
533.000 73.000
532.000 71.000
530.000 72.000
531.000 69.000
534.000 67.000
533.000 65.000
529.000 67.000
529.000 64.000
526.000 66.000
530.000 57.000
533.000 54.000
535.000 55.000
533.000 55.000
532.000 57.000
535.000 59.000
537.000 56.000
541.000 56.000
540.000 54.000
537.000 54.000
534.000 51.000
540.000 49.000
545.000 50.000
546.000 47.000
551.000 47.000
537.000 40.000
534.000 41.000
540.000 44.000
541.000 46.000
542.000 45.000
543.000 47.000
539.000 47.000
539.000 45.000
534.000 42.000
533.000 46.000
531.000 43.000
535.000 40.000
522.000 35.000
509.000 27.000
497.000 27.000
483.000 18.000
466.000 11.000
458.000 11.000
451.000 8.000
441.000 9.000
427.000 4.000
420.000 4.000
414.000 6.000
401.000 2.000
371.000 4.000
362.000 7.000
351.000 7.000
345.000 9.000
336.000 7.000
325.000 8.000
306.000 13.000
300.000 18.000
288.000 18.000
281.000 20.000
277.000 23.000
279.000 24.000
283.000 22.000
280.000 24.000
280.000 28.000
280.000 25.000
276.000 23.000
272.000 29.000
262.000 28.000
254.000 30.000
246.000 35.000
241.000 35.000
236.000 39.000
225.000 43.000
215.000 54.000
200.000 52.000
197.000 54.000
186.000 56.000
173.000 64.000
171.000 69.000
166.000 69.000
155.000 75.000
144.000 86.000
132.000 89.000
119.000 103.000
112.000 106.000
101.000 107.000
91.000 112.000
87.000 116.000
80.000 118.000
64.000 132.000
61.000 133.000
55.000 141.000
50.000 145.000
46.000 146.000
41.000 152.000
15.000 160.000
2.000 161.000
0.000 163.000
