ply
format ascii 1.0
comment Dominant contour extracted from bimodal image.
comment scale factor = 0.909091
comment kernel width = 3
comment decimate eps = 1.000000
comment orig shape   = (440, 1696)
comment threshold    = 243.500000
comment Written with hapPLY (https://github.com/nmwsharp/happly)
element flags 0
property uchar closed
element vertex 328
property double x
property double y
end_header
82.000 246.000
100.000 246.000
120.000 251.000
132.000 257.000
153.000 272.000
154.000 271.000
170.000 278.000
172.000 281.000
174.000 280.000
176.000 282.000
179.000 282.000
214.000 300.000
239.000 307.000
240.000 309.000
241.000 308.000
250.000 311.000
273.000 322.000
289.000 328.000
290.000 330.000
292.000 329.000
315.000 336.000
328.000 337.000
331.000 339.000
356.000 345.000
366.000 345.000
375.000 348.000
376.000 350.000
378.000 349.000
384.000 351.000
403.000 353.000
424.000 359.000
447.000 362.000
447.000 364.000
451.000 363.000
468.000 365.000
479.000 363.000
485.000 366.000
505.000 367.000
525.000 363.000
529.000 364.000
531.000 362.000
537.000 364.000
572.000 365.000
584.000 368.000
592.000 368.000
598.000 366.000
612.000 368.000
620.000 366.000
625.000 367.000
652.000 359.000
670.000 359.000
680.000 355.000
687.000 355.000
690.000 353.000
697.000 353.000
700.000 351.000
722.000 352.000
723.000 351.000
721.000 350.000
724.000 349.000
735.000 349.000
748.000 344.000
749.000 345.000
757.000 342.000
774.000 340.000
793.000 335.000
800.000 335.000
802.000 333.000
825.000 333.000
828.000 331.000
837.000 331.000
841.000 327.000
847.000 326.000
849.000 324.000
854.000 324.000
858.000 321.000
867.000 319.000
869.000 320.000
874.000 318.000
877.000 319.000
895.000 314.000
899.000 311.000
902.000 312.000
903.000 310.000
912.000 309.000
925.000 303.000
938.000 301.000
940.000 302.000
966.000 293.000
989.000 290.000
1008.000 282.000
1010.000 284.000
1011.000 282.000
1020.000 282.000
1028.000 279.000
1030.000 280.000
1032.000 278.000
1040.000 277.000
1047.000 274.000
1048.000 275.000
1050.000 272.000
1051.000 273.000
1053.000 271.000
1061.000 269.000
1062.000 270.000
1070.000 266.000
1075.000 266.000
1079.000 264.000
1080.000 265.000
1081.000 263.000
1089.000 260.000
1091.000 261.000
1096.000 258.000
1101.000 258.000
1115.000 251.000
1122.000 251.000
1137.000 246.000
1138.000 248.000
1139.000 245.000
1155.000 239.000
1156.000 240.000
1157.000 238.000
1165.000 235.000
1168.000 232.000
1169.000 233.000
1170.000 231.000
1180.000 228.000
1182.000 229.000
1185.000 226.000
1199.000 222.000
1214.000 220.000
1235.000 211.000
1240.000 212.000
1241.000 210.000
1242.000 211.000
1251.000 206.000
1252.000 207.000
1254.000 205.000
1257.000 205.000
1262.000 201.000
1269.000 200.000
1280.000 194.000
1281.000 196.000
1283.000 193.000
1287.000 191.000
1293.000 191.000
1294.000 188.000
1295.000 189.000
1303.000 185.000
1305.000 182.000
1310.000 181.000
1322.000 173.000
1323.000 175.000
1326.000 171.000
1332.000 168.000
1348.000 164.000
1349.000 162.000
1351.000 162.000
1351.000 160.000
1353.000 161.000
1354.000 158.000
1360.000 155.000
1361.000 156.000
1365.000 153.000
1366.000 155.000
1368.000 151.000
1378.000 146.000
1379.000 147.000
1384.000 141.000
1387.000 141.000
1394.000 137.000
1400.000 131.000
1403.000 131.000
1405.000 129.000
1406.000 130.000
1425.000 111.000
1429.000 110.000
1437.000 101.000
1441.000 101.000
1448.000 91.000
1450.000 91.000
1453.000 88.000
1462.000 88.000
1467.000 84.000
1464.000 82.000
1450.000 84.000
1442.000 81.000
1429.000 80.000
1427.000 78.000
1422.000 78.000
1411.000 74.000
1398.000 73.000
1386.000 70.000
1340.000 70.000
1339.000 68.000
1338.000 70.000
1304.000 70.000
1300.000 73.000
1296.000 72.000
1291.000 73.000
1289.000 75.000
1280.000 76.000
1241.000 75.000
1234.000 78.000
1233.000 77.000
1231.000 79.000
1228.000 79.000
1227.000 76.000
1226.000 78.000
1214.000 80.000
1205.000 79.000
1168.000 81.000
1150.000 87.000
1145.000 87.000
1140.000 90.000
1124.000 90.000
1120.000 92.000
1118.000 91.000
1117.000 93.000
1113.000 93.000
1109.000 96.000
1051.000 101.000
1043.000 105.000
1034.000 107.000
1027.000 106.000
1021.000 109.000
989.000 108.000
983.000 110.000
981.000 109.000
980.000 111.000
929.000 111.000
922.000 113.000
909.000 113.000
902.000 115.000
897.000 114.000
891.000 116.000
890.000 115.000
888.000 117.000
886.000 116.000
885.000 118.000
871.000 118.000
869.000 116.000
858.000 116.000
854.000 114.000
852.000 115.000
840.000 111.000
836.000 112.000
830.000 110.000
785.000 111.000
779.000 109.000
728.000 110.000
722.000 112.000
711.000 112.000
707.000 114.000
701.000 113.000
700.000 115.000
687.000 115.000
681.000 113.000
680.000 114.000
678.000 112.000
635.000 112.000
626.000 115.000
615.000 115.000
613.000 113.000
610.000 114.000
601.000 112.000
584.000 113.000
579.000 116.000
550.000 120.000
530.000 119.000
513.000 122.000
507.000 122.000
506.000 120.000
497.000 120.000
490.000 122.000
479.000 121.000
478.000 123.000
451.000 126.000
437.000 130.000
430.000 129.000
422.000 134.000
397.000 135.000
393.000 137.000
391.000 136.000
389.000 138.000
383.000 138.000
364.000 146.000
341.000 147.000
334.000 149.000
333.000 148.000
330.000 150.000
321.000 149.000
321.000 151.000
324.000 151.000
302.000 158.000
300.000 160.000
299.000 158.000
298.000 160.000
290.000 162.000
273.000 171.000
263.000 171.000
259.000 175.000
258.000 174.000
252.000 179.000
234.000 183.000
219.000 190.000
216.000 189.000
215.000 191.000
205.000 194.000
196.000 200.000
189.000 202.000
187.000 201.000
186.000 203.000
183.000 202.000
183.000 204.000
152.000 216.000
128.000 232.000
110.000 233.000
105.000 231.000
90.000 230.000
89.000 232.000
84.000 231.000
83.000 233.000
86.000 237.000
84.000 237.000
83.000 240.000
88.000 243.000
84.000 243.000
