ply
format ascii 1.0
comment Dominant contour extracted from bimodal image.
comment scale factor = 0.775194
comment kernel width = 3
comment decimate eps = 1.000000
comment orig shape   = (516, 1431)
comment threshold    = 228.500000
comment Written with hapPLY (https://github.com/nmwsharp/happly)
element flags 0
property uchar closed
element vertex 113
property double x
property double y
end_header
1036.000 225.000
1034.000 221.000
1034.000 215.000
1028.000 190.000
1023.000 180.000
1018.000 175.000
1007.000 158.000
972.000 125.000
961.000 120.000
948.000 110.000
939.000 107.000
935.000 104.000
917.000 100.000
896.000 90.000
850.000 77.000
834.000 77.000
819.000 74.000
802.000 74.000
775.000 68.000
769.000 68.000
747.000 62.000
725.000 62.000
713.000 59.000
683.000 56.000
672.000 59.000
628.000 58.000
578.000 62.000
559.000 67.000
535.000 69.000
525.000 72.000
507.000 74.000
482.000 83.000
453.000 90.000
434.000 97.000
409.000 111.000
392.000 117.000
379.000 124.000
375.000 128.000
360.000 134.000
347.000 142.000
317.000 153.000
309.000 158.000
297.000 162.000
277.000 172.000
263.000 176.000
259.000 179.000
208.000 198.000
160.000 221.000
135.000 228.000
115.000 238.000
105.000 241.000
71.000 244.000
50.000 242.000
47.000 244.000
44.000 243.000
42.000 246.000
43.000 252.000
41.000 255.000
45.000 259.000
56.000 257.000
64.000 257.000
66.000 259.000
103.000 259.000
126.000 266.000
130.000 266.000
136.000 269.000
191.000 281.000
199.000 284.000
235.000 289.000
260.000 294.000
268.000 297.000
289.000 299.000
312.000 306.000
329.000 308.000
356.000 315.000
365.000 315.000
377.000 318.000
388.000 318.000
427.000 329.000
439.000 331.000
491.000 335.000
500.000 338.000
519.000 339.000
530.000 342.000
558.000 342.000
584.000 346.000
595.000 346.000
606.000 349.000
615.000 349.000
620.000 351.000
657.000 356.000
764.000 356.000
776.000 358.000
789.000 363.000
795.000 363.000
806.000 366.000
845.000 366.000
852.000 368.000
872.000 368.000
916.000 363.000
929.000 360.000
937.000 356.000
941.000 356.000
951.000 351.000
966.000 349.000
988.000 338.000
999.000 329.000
1010.000 317.000
1021.000 296.000
1025.000 277.000
1028.000 270.000
1029.000 256.000
1036.000 239.000
