ply
format ascii 1.0
comment Dominant contour extracted from bimodal image.
comment scale factor = 0.449944
comment kernel width = 3
comment decimate eps = 1.000000
comment orig shape   = (889, 1852)
comment threshold    = 231.000000
comment Written with hapPLY (https://github.com/nmwsharp/happly)
element flags 0
property uchar closed
element vertex 97
property double x
property double y
end_header
819.000 214.000
810.000 203.000
802.000 196.000
780.000 168.000
762.000 154.000
748.000 147.000
724.000 127.000
668.000 95.000
647.000 85.000
623.000 68.000
611.000 62.000
601.000 60.000
590.000 53.000
570.000 45.000
547.000 40.000
536.000 40.000
526.000 38.000
492.000 41.000
474.000 45.000
444.000 45.000
435.000 47.000
421.000 47.000
407.000 51.000
397.000 51.000
357.000 57.000
349.000 61.000
322.000 69.000
307.000 76.000
288.000 81.000
273.000 89.000
265.000 91.000
255.000 99.000
229.000 112.000
210.000 126.000
199.000 130.000
189.000 136.000
177.000 140.000
159.000 152.000
135.000 158.000
122.000 165.000
107.000 169.000
86.000 178.000
56.000 183.000
38.000 182.000
31.000 180.000
29.000 178.000
17.000 178.000
14.000 182.000
14.000 185.000
17.000 186.000
14.000 188.000
14.000 192.000
16.000 196.000
20.000 199.000
24.000 197.000
33.000 199.000
35.000 197.000
34.000 195.000
40.000 194.000
45.000 197.000
48.000 195.000
65.000 195.000
87.000 202.000
106.000 211.000
118.000 221.000
128.000 227.000
190.000 257.000
226.000 279.000
261.000 296.000
282.000 302.000
288.000 306.000
339.000 319.000
357.000 326.000
373.000 330.000
398.000 333.000
413.000 338.000
422.000 338.000
431.000 342.000
462.000 348.000
520.000 367.000
528.000 367.000
543.000 370.000
586.000 369.000
594.000 376.000
605.000 382.000
629.000 387.000
663.000 385.000
684.000 374.000
698.000 360.000
712.000 337.000
732.000 276.000
744.000 267.000
752.000 263.000
772.000 257.000
780.000 251.000
789.000 247.000
812.000 224.000
