ply
format ascii 1.0
comment Dominant contour extracted from bimodal image.
comment scale factor = 0.435730
comment kernel width = 3
comment decimate eps = 1.000000
comment orig shape   = (918, 2417)
comment threshold    = 246.000000
comment Written with hapPLY (https://github.com/nmwsharp/happly)
element flags 0
property uchar closed
element vertex 210
property double x
property double y
end_header
16.000 162.000
20.000 167.000
43.000 167.000
61.000 169.000
75.000 173.000
82.000 173.000
83.000 175.000
85.000 174.000
91.000 178.000
93.000 181.000
94.000 180.000
103.000 185.000
104.000 187.000
117.000 193.000
121.000 197.000
135.000 201.000
147.000 212.000
157.000 218.000
163.000 224.000
164.000 227.000
165.000 225.000
175.000 233.000
188.000 240.000
195.000 248.000
202.000 253.000
207.000 261.000
214.000 267.000
215.000 271.000
218.000 271.000
231.000 283.000
232.000 282.000
234.000 286.000
236.000 285.000
239.000 289.000
256.000 297.000
265.000 304.000
266.000 303.000
278.000 313.000
281.000 313.000
286.000 317.000
290.000 317.000
309.000 329.000
322.000 333.000
328.000 336.000
329.000 338.000
331.000 337.000
352.000 344.000
370.000 347.000
376.000 350.000
385.000 351.000
387.000 353.000
392.000 352.000
394.000 354.000
411.000 357.000
421.000 362.000
447.000 362.000
461.000 369.000
463.000 368.000
470.000 370.000
472.000 369.000
503.000 371.000
531.000 369.000
538.000 366.000
551.000 367.000
588.000 363.000
608.000 357.000
610.000 355.000
614.000 356.000
639.000 351.000
655.000 345.000
666.000 344.000
673.000 340.000
675.000 341.000
676.000 339.000
683.000 337.000
685.000 338.000
698.000 333.000
706.000 333.000
712.000 330.000
733.000 327.000
758.000 320.000
761.000 321.000
768.000 317.000
774.000 316.000
779.000 313.000
780.000 314.000
781.000 312.000
782.000 313.000
783.000 311.000
788.000 310.000
805.000 300.000
808.000 300.000
814.000 296.000
833.000 289.000
849.000 279.000
868.000 272.000
875.000 265.000
880.000 264.000
900.000 253.000
901.000 254.000
909.000 247.000
912.000 247.000
913.000 245.000
924.000 240.000
925.000 241.000
926.000 239.000
941.000 231.000
979.000 202.000
998.000 176.000
1008.000 165.000
1015.000 161.000
1020.000 154.000
1024.000 154.000
1025.000 152.000
1031.000 150.000
1022.000 150.000
1006.000 142.000
1005.000 139.000
999.000 139.000
985.000 132.000
961.000 132.000
939.000 128.000
879.000 128.000
863.000 130.000
843.000 130.000
836.000 128.000
828.000 128.000
789.000 115.000
768.000 111.000
728.000 95.000
708.000 92.000
698.000 88.000
687.000 86.000
634.000 84.000
625.000 85.000
605.000 82.000
579.000 82.000
569.000 81.000
560.000 78.000
547.000 79.000
537.000 77.000
526.000 77.000
515.000 73.000
513.000 76.000
506.000 73.000
497.000 73.000
492.000 71.000
453.000 70.000
447.000 67.000
438.000 67.000
427.000 64.000
420.000 65.000
406.000 62.000
363.000 62.000
357.000 65.000
341.000 64.000
332.000 67.000
331.000 66.000
329.000 68.000
323.000 67.000
314.000 72.000
308.000 70.000
303.000 71.000
299.000 69.000
277.000 71.000
266.000 75.000
261.000 75.000
252.000 79.000
249.000 82.000
244.000 82.000
238.000 85.000
237.000 84.000
236.000 86.000
220.000 93.000
209.000 102.000
206.000 108.000
197.000 111.000
190.000 117.000
181.000 120.000
174.000 118.000
173.000 120.000
167.000 120.000
165.000 123.000
161.000 124.000
157.000 128.000
150.000 127.000
135.000 134.000
132.000 133.000
130.000 136.000
126.000 137.000
120.000 142.000
108.000 146.000
105.000 149.000
96.000 152.000
72.000 152.000
68.000 149.000
66.000 151.000
53.000 152.000
50.000 150.000
49.000 151.000
47.000 149.000
29.000 149.000
22.000 151.000
18.000 150.000
17.000 152.000
20.000 154.000
16.000 157.000
20.000 161.000
18.000 161.000
17.000 159.000
