ply
format ascii 1.0
comment Dominant contour extracted from bimodal image.
comment scale factor = 0.539811
comment kernel width = 3
comment decimate eps = 1.000000
comment orig shape   = (741, 1853)
comment threshold    = 235.000000
comment Written with hapPLY (https://github.com/nmwsharp/happly)
element flags 0
property uchar closed
element vertex 102
property double x
property double y
end_header
963.000 280.000
963.000 276.000
959.000 268.000
959.000 265.000
948.000 246.000
935.000 231.000
927.000 226.000
919.000 218.000
916.000 212.000
883.000 185.000
860.000 172.000
847.000 160.000
828.000 147.000
816.000 141.000
790.000 124.000
774.000 118.000
738.000 100.000
712.000 84.000
683.000 70.000
668.000 65.000
648.000 61.000
633.000 55.000
603.000 49.000
552.000 48.000
538.000 46.000
485.000 49.000
463.000 54.000
455.000 54.000
388.000 71.000
378.000 76.000
334.000 90.000
314.000 101.000
302.000 104.000
271.000 122.000
239.000 137.000
219.000 150.000
208.000 161.000
179.000 184.000
153.000 199.000
148.000 200.000
129.000 210.000
93.000 221.000
59.000 223.000
53.000 221.000
52.000 223.000
54.000 226.000
47.000 231.000
49.000 235.000
56.000 239.000
75.000 237.000
80.000 235.000
98.000 235.000
122.000 238.000
133.000 242.000
150.000 245.000
208.000 268.000
222.000 272.000
229.000 276.000
241.000 280.000
247.000 280.000
269.000 289.000
281.000 291.000
291.000 296.000
311.000 300.000
314.000 302.000
323.000 303.000
353.000 311.000
387.000 316.000
472.000 338.000
488.000 338.000
500.000 342.000
521.000 344.000
524.000 347.000
529.000 345.000
537.000 345.000
542.000 347.000
559.000 349.000
560.000 348.000
610.000 350.000
619.000 348.000
626.000 351.000
642.000 351.000
645.000 353.000
676.000 350.000
695.000 345.000
717.000 344.000
727.000 340.000
745.000 337.000
779.000 325.000
827.000 317.000
841.000 317.000
861.000 312.000
872.000 312.000
894.000 306.000
899.000 306.000
921.000 299.000
934.000 297.000
943.000 291.000
949.000 291.000
957.000 286.000
960.000 281.000
961.000 282.000
