ply
format ascii 1.0
comment Dominant contour extracted from bimodal image.
comment scale factor = 0.535475
comment kernel width = 3
comment decimate eps = 1.000000
comment orig shape   = (747, 2132)
comment threshold    = 246.000000
comment Written with hapPLY (https://github.com/nmwsharp/happly)
element flags 0
property uchar closed
element vertex 261
property double x
property double y
end_header
1069.000 189.000
1066.000 178.000
1060.000 167.000
1061.000 165.000
1059.000 165.000
1055.000 157.000
1050.000 152.000
1050.000 150.000
1046.000 148.000
1042.000 141.000
1041.000 142.000
1038.000 139.000
1037.000 140.000
1032.000 134.000
1013.000 122.000
1008.000 116.000
1007.000 117.000
1000.000 114.000
998.000 111.000
984.000 106.000
962.000 89.000
961.000 90.000
949.000 85.000
935.000 74.000
928.000 71.000
925.000 68.000
924.000 69.000
923.000 67.000
921.000 68.000
909.000 62.000
891.000 58.000
888.000 55.000
885.000 56.000
877.000 54.000
871.000 51.000
861.000 49.000
859.000 47.000
857.000 48.000
839.000 42.000
833.000 42.000
819.000 38.000
814.000 35.000
794.000 30.000
764.000 26.000
753.000 23.000
745.000 23.000
738.000 20.000
736.000 21.000
721.000 19.000
719.000 17.000
712.000 18.000
709.000 16.000
700.000 17.000
674.000 14.000
658.000 14.000
638.000 17.000
588.000 16.000
586.000 18.000
574.000 21.000
573.000 20.000
567.000 24.000
552.000 27.000
546.000 30.000
543.000 29.000
542.000 30.000
544.000 31.000
534.000 32.000
515.000 38.000
507.000 39.000
498.000 44.000
497.000 42.000
496.000 45.000
489.000 46.000
488.000 48.000
487.000 47.000
474.000 55.000
458.000 59.000
456.000 61.000
455.000 60.000
452.000 63.000
431.000 71.000
410.000 82.000
409.000 81.000
395.000 92.000
387.000 96.000
386.000 95.000
384.000 98.000
374.000 103.000
372.000 102.000
369.000 106.000
359.000 111.000
358.000 110.000
355.000 114.000
348.000 117.000
347.000 116.000
343.000 120.000
336.000 124.000
335.000 123.000
327.000 129.000
325.000 129.000
326.000 128.000
324.000 127.000
323.000 131.000
318.000 134.000
317.000 133.000
309.000 140.000
305.000 140.000
305.000 143.000
303.000 142.000
302.000 145.000
299.000 144.000
298.000 147.000
288.000 154.000
287.000 153.000
282.000 158.000
272.000 162.000
259.000 170.000
254.000 171.000
233.000 181.000
214.000 185.000
207.000 188.000
206.000 187.000
204.000 189.000
188.000 193.000
187.000 192.000
174.000 198.000
169.000 198.000
141.000 206.000
127.000 208.000
117.000 212.000
115.000 211.000
112.000 213.000
97.000 215.000
88.000 218.000
86.000 217.000
85.000 219.000
75.000 221.000
56.000 221.000
42.000 219.000
27.000 220.000
23.000 219.000
22.000 217.000
19.000 220.000
19.000 231.000
21.000 237.000
26.000 234.000
35.000 236.000
40.000 235.000
43.000 237.000
72.000 237.000
98.000 244.000
103.000 247.000
104.000 246.000
124.000 254.000
125.000 256.000
128.000 255.000
137.000 257.000
140.000 260.000
143.000 259.000
162.000 266.000
164.000 268.000
173.000 269.000
174.000 271.000
175.000 270.000
187.000 276.000
188.000 275.000
196.000 278.000
223.000 292.000
241.000 297.000
243.000 299.000
247.000 299.000
248.000 301.000
249.000 300.000
257.000 303.000
262.000 307.000
264.000 306.000
281.000 314.000
287.000 315.000
290.000 318.000
292.000 317.000
336.000 332.000
348.000 333.000
362.000 340.000
366.000 339.000
381.000 343.000
396.000 344.000
404.000 347.000
414.000 347.000
428.000 351.000
445.000 353.000
447.000 355.000
448.000 354.000
458.000 356.000
470.000 356.000
471.000 358.000
477.000 357.000
483.000 359.000
546.000 358.000
554.000 360.000
559.000 359.000
564.000 361.000
576.000 361.000
581.000 363.000
639.000 360.000
650.000 361.000
652.000 363.000
665.000 361.000
666.000 363.000
673.000 361.000
692.000 361.000
696.000 359.000
730.000 359.000
742.000 355.000
772.000 350.000
776.000 348.000
777.000 349.000
785.000 346.000
795.000 346.000
816.000 341.000
817.000 342.000
822.000 338.000
849.000 338.000
858.000 335.000
860.000 336.000
861.000 334.000
865.000 333.000
875.000 333.000
876.000 331.000
879.000 332.000
881.000 330.000
906.000 323.000
916.000 318.000
922.000 318.000
926.000 315.000
932.000 313.000
933.000 314.000
934.000 312.000
940.000 310.000
943.000 311.000
944.000 309.000
970.000 297.000
988.000 290.000
992.000 290.000
994.000 288.000
995.000 289.000
1001.000 284.000
1008.000 282.000
1009.000 280.000
1011.000 281.000
1016.000 276.000
1020.000 275.000
1023.000 272.000
1024.000 273.000
1028.000 267.000
1036.000 262.000
1038.000 263.000
1038.000 261.000
1047.000 253.000
1048.000 250.000
1061.000 236.000
1068.000 213.000
