ply
format ascii 1.0
comment Dominant contour extracted from bimodal image.
comment scale factor = 1.000000
comment kernel width = 3
comment decimate eps = 1.000000
comment orig shape   = (301, 839)
comment threshold    = 227.000000
comment Written with hapPLY (https://github.com/nmwsharp/happly)
element flags 0
property uchar closed
element vertex 134
property double x
property double y
end_header
0.000 197.000
5.000 199.000
16.000 200.000
25.000 206.000
30.000 207.000
45.000 205.000
51.000 206.000
64.000 211.000
93.000 218.000
118.000 227.000
151.000 234.000
178.000 243.000
208.000 243.000
234.000 246.000
260.000 256.000
280.000 268.000
317.000 272.000
346.000 270.000
355.000 268.000
361.000 263.000
366.000 262.000
376.000 256.000
380.000 256.000
383.000 258.000
400.000 257.000
416.000 263.000
427.000 269.000
444.000 269.000
460.000 261.000
470.000 250.000
482.000 246.000
486.000 243.000
495.000 242.000
497.000 240.000
504.000 239.000
520.000 233.000
524.000 233.000
533.000 228.000
542.000 227.000
545.000 225.000
573.000 219.000
580.000 216.000
586.000 216.000
590.000 214.000
594.000 215.000
612.000 208.000
631.000 204.000
639.000 198.000
642.000 198.000
646.000 194.000
660.000 197.000
661.000 199.000
667.000 200.000
676.000 205.000
683.000 205.000
690.000 200.000
699.000 197.000
709.000 189.000
726.000 179.000
736.000 168.000
738.000 159.000
742.000 151.000
746.000 148.000
748.000 144.000
766.000 127.000
770.000 127.000
776.000 121.000
777.000 115.000
780.000 110.000
780.000 98.000
774.000 85.000
770.000 82.000
762.000 80.000
754.000 73.000
754.000 70.000
751.000 67.000
742.000 65.000
718.000 64.000
707.000 66.000
698.000 72.000
689.000 74.000
677.000 74.000
673.000 71.000
639.000 71.000
621.000 75.000
613.000 81.000
607.000 81.000
598.000 87.000
593.000 87.000
582.000 83.000
572.000 77.000
564.000 75.000
545.000 75.000
541.000 77.000
540.000 76.000
535.000 80.000
531.000 80.000
524.000 83.000
521.000 83.000
516.000 79.000
507.000 76.000
466.000 77.000
441.000 81.000
432.000 86.000
428.000 91.000
422.000 90.000
415.000 93.000
399.000 93.000
390.000 91.000
382.000 85.000
373.000 85.000
359.000 88.000
351.000 92.000
337.000 92.000
320.000 96.000
299.000 104.000
288.000 115.000
283.000 115.000
278.000 112.000
272.000 112.000
253.000 117.000
238.000 124.000
228.000 126.000
213.000 134.000
204.000 136.000
145.000 166.000
111.000 176.000
86.000 186.000
64.000 191.000
38.000 193.000
35.000 191.000
30.000 191.000
26.000 194.000
1.000 193.000
