ply
format ascii 1.0
comment Dominant contour extracted from bimodal image.
comment scale factor = 0.538358
comment kernel width = 3
comment decimate eps = 1.000000
comment orig shape   = (743, 1891)
comment threshold    = 243.000000
comment Written with hapPLY (https://github.com/nmwsharp/happly)
element flags 0
property uchar closed
element vertex 143
property double x
property double y
end_header
20.000 292.000
26.000 298.000
28.000 298.000
29.000 300.000
27.000 304.000
29.000 305.000
32.000 304.000
38.000 297.000
42.000 281.000
49.000 274.000
57.000 276.000
60.000 274.000
60.000 272.000
67.000 270.000
69.000 268.000
67.000 266.000
81.000 267.000
94.000 271.000
114.000 267.000
131.000 274.000
134.000 278.000
135.000 277.000
137.000 279.000
148.000 282.000
153.000 285.000
174.000 288.000
179.000 291.000
189.000 293.000
195.000 293.000
227.000 305.000
253.000 312.000
300.000 319.000
315.000 323.000
326.000 324.000
334.000 327.000
384.000 329.000
409.000 334.000
440.000 337.000
475.000 347.000
500.000 342.000
532.000 340.000
540.000 338.000
605.000 338.000
615.000 341.000
651.000 342.000
664.000 344.000
677.000 342.000
700.000 342.000
717.000 337.000
745.000 334.000
766.000 327.000
774.000 326.000
777.000 324.000
788.000 323.000
795.000 318.000
806.000 316.000
817.000 309.000
824.000 308.000
833.000 303.000
836.000 305.000
836.000 302.000
843.000 299.000
857.000 289.000
870.000 285.000
876.000 279.000
886.000 274.000
888.000 275.000
896.000 268.000
907.000 262.000
913.000 256.000
931.000 246.000
941.000 238.000
963.000 215.000
970.000 211.000
972.000 208.000
974.000 208.000
976.000 205.000
973.000 203.000
969.000 193.000
965.000 191.000
964.000 188.000
948.000 173.000
962.000 160.000
961.000 159.000
957.000 161.000
947.000 171.000
945.000 171.000
940.000 167.000
939.000 163.000
933.000 154.000
924.000 148.000
919.000 142.000
901.000 131.000
891.000 127.000
873.000 115.000
864.000 112.000
861.000 109.000
854.000 106.000
847.000 105.000
828.000 98.000
793.000 92.000
786.000 88.000
773.000 85.000
761.000 80.000
710.000 70.000
693.000 65.000
682.000 60.000
664.000 57.000
658.000 54.000
644.000 50.000
639.000 50.000
636.000 48.000
632.000 49.000
618.000 45.000
591.000 44.000
566.000 39.000
517.000 38.000
498.000 40.000
498.000 36.000
496.000 35.000
492.000 38.000
493.000 40.000
486.000 42.000
447.000 45.000
418.000 50.000
341.000 81.000
316.000 88.000
306.000 96.000
283.000 106.000
265.000 117.000
251.000 128.000
192.000 165.000
161.000 188.000
134.000 204.000
124.000 208.000
92.000 233.000
74.000 240.000
52.000 253.000
38.000 255.000
36.000 259.000
39.000 261.000
32.000 270.000
25.000 287.000
