ply
format ascii 1.0
comment Dominant contour extracted from bimodal image.
comment scale factor = 0.696864
comment kernel width = 3
comment decimate eps = 1.000000
comment orig shape   = (574, 1296)
comment threshold    = 227.000000
comment Written with hapPLY (https://github.com/nmwsharp/happly)
element flags 0
property uchar closed
element vertex 92
property double x
property double y
end_header
848.000 221.000
848.000 207.000
841.000 189.000
820.000 170.000
801.000 158.000
783.000 149.000
770.000 145.000
729.000 127.000
674.000 108.000
609.000 96.000
598.000 96.000
581.000 90.000
533.000 85.000
526.000 83.000
496.000 83.000
482.000 85.000
426.000 85.000
419.000 87.000
393.000 89.000
380.000 94.000
374.000 94.000
371.000 96.000
342.000 101.000
273.000 124.000
249.000 138.000
241.000 140.000
226.000 147.000
216.000 154.000
204.000 157.000
193.000 163.000
168.000 172.000
152.000 180.000
144.000 186.000
116.000 200.000
82.000 212.000
62.000 215.000
49.000 213.000
46.000 214.000
41.000 212.000
30.000 211.000
26.000 208.000
24.000 209.000
25.000 215.000
34.000 223.000
50.000 227.000
69.000 228.000
92.000 233.000
114.000 240.000
147.000 254.000
172.000 268.000
207.000 284.000
218.000 291.000
264.000 311.000
268.000 317.000
274.000 321.000
286.000 321.000
298.000 327.000
313.000 332.000
317.000 332.000
359.000 351.000
364.000 351.000
366.000 353.000
367.000 352.000
381.000 354.000
391.000 358.000
419.000 362.000
448.000 361.000
461.000 364.000
497.000 364.000
503.000 362.000
514.000 362.000
535.000 358.000
544.000 354.000
568.000 355.000
581.000 351.000
597.000 349.000
612.000 344.000
617.000 344.000
639.000 337.000
655.000 330.000
659.000 330.000
670.000 325.000
679.000 323.000
726.000 302.000
744.000 297.000
758.000 291.000
765.000 286.000
773.000 284.000
788.000 277.000
802.000 266.000
820.000 256.000
843.000 232.000
