ply
format ascii 1.0
comment Dominant contour extracted from bimodal image.
comment scale factor = 0.628931
comment kernel width = 3
comment decimate eps = 1.000000
comment orig shape   = (636, 1748)
comment threshold    = 246.000000
comment Written with hapPLY (https://github.com/nmwsharp/happly)
element flags 0
property uchar closed
element vertex 319
property double x
property double y
end_header
1079.000 205.000
1067.000 188.000
1054.000 176.000
1036.000 167.000
1035.000 164.000
1034.000 165.000
1018.000 156.000
1018.000 154.000
1016.000 155.000
1007.000 150.000
1002.000 149.000
997.000 143.000
995.000 144.000
996.000 145.000
991.000 142.000
980.000 139.000
968.000 133.000
961.000 132.000
955.000 128.000
953.000 129.000
943.000 123.000
938.000 123.000
934.000 120.000
929.000 120.000
928.000 118.000
927.000 119.000
923.000 116.000
922.000 117.000
916.000 114.000
906.000 113.000
903.000 111.000
902.000 112.000
897.000 108.000
896.000 109.000
888.000 105.000
886.000 106.000
885.000 104.000
881.000 105.000
870.000 100.000
869.000 98.000
867.000 99.000
868.000 100.000
865.000 98.000
864.000 95.000
863.000 98.000
862.000 96.000
858.000 96.000
841.000 88.000
836.000 88.000
820.000 82.000
816.000 78.000
812.000 79.000
798.000 74.000
780.000 71.000
758.000 63.000
745.000 63.000
735.000 58.000
733.000 59.000
728.000 57.000
718.000 57.000
713.000 55.000
708.000 56.000
705.000 54.000
687.000 50.000
670.000 50.000
668.000 48.000
665.000 49.000
661.000 47.000
630.000 46.000
605.000 48.000
604.000 47.000
594.000 49.000
593.000 47.000
575.000 49.000
561.000 49.000
560.000 47.000
559.000 49.000
545.000 49.000
527.000 55.000
509.000 53.000
505.000 54.000
502.000 52.000
496.000 52.000
488.000 55.000
468.000 55.000
468.000 57.000
463.000 57.000
459.000 59.000
446.000 59.000
423.000 63.000
422.000 62.000
421.000 64.000
415.000 64.000
408.000 67.000
392.000 66.000
380.000 67.000
375.000 69.000
372.000 68.000
370.000 71.000
365.000 71.000
350.000 78.000
347.000 78.000
345.000 80.000
344.000 79.000
343.000 81.000
316.000 93.000
312.000 97.000
306.000 98.000
295.000 106.000
292.000 110.000
291.000 109.000
288.000 113.000
284.000 115.000
283.000 114.000
282.000 117.000
275.000 121.000
262.000 125.000
254.000 130.000
250.000 135.000
249.000 134.000
248.000 137.000
245.000 139.000
241.000 139.000
233.000 145.000
230.000 145.000
225.000 149.000
221.000 149.000
215.000 155.000
214.000 154.000
212.000 156.000
213.000 157.000
210.000 159.000
202.000 161.000
198.000 164.000
197.000 163.000
195.000 166.000
194.000 165.000
193.000 167.000
184.000 171.000
184.000 168.000
182.000 172.000
175.000 176.000
171.000 176.000
170.000 179.000
168.000 178.000
166.000 181.000
157.000 184.000
147.000 191.000
120.000 204.000
119.000 203.000
116.000 206.000
101.000 210.000
82.000 211.000
79.000 213.000
77.000 212.000
60.000 215.000
49.000 220.000
45.000 220.000
44.000 222.000
36.000 223.000
33.000 225.000
25.000 225.000
23.000 229.000
25.000 232.000
29.000 232.000
31.000 230.000
60.000 232.000
61.000 230.000
62.000 231.000
65.000 229.000
86.000 225.000
107.000 225.000
111.000 227.000
130.000 229.000
138.000 232.000
139.000 234.000
140.000 233.000
142.000 236.000
144.000 235.000
149.000 237.000
150.000 239.000
155.000 239.000
170.000 245.000
186.000 256.000
199.000 261.000
203.000 264.000
213.000 268.000
214.000 267.000
220.000 269.000
222.000 272.000
223.000 271.000
230.000 276.000
239.000 278.000
245.000 282.000
244.000 281.000
243.000 283.000
246.000 285.000
247.000 283.000
261.000 287.000
262.000 289.000
266.000 288.000
293.000 301.000
296.000 301.000
299.000 304.000
307.000 303.000
308.000 305.000
318.000 305.000
340.000 314.000
341.000 313.000
346.000 315.000
354.000 315.000
359.000 318.000
361.000 317.000
378.000 322.000
392.000 322.000
406.000 327.000
414.000 327.000
416.000 330.000
418.000 328.000
425.000 328.000
427.000 330.000
428.000 329.000
443.000 334.000
456.000 335.000
464.000 340.000
466.000 339.000
471.000 341.000
483.000 342.000
488.000 345.000
496.000 347.000
506.000 347.000
525.000 352.000
543.000 352.000
555.000 356.000
572.000 357.000
573.000 359.000
583.000 358.000
592.000 360.000
597.000 359.000
602.000 361.000
629.000 362.000
632.000 364.000
685.000 366.000
692.000 364.000
701.000 365.000
706.000 362.000
713.000 363.000
714.000 361.000
718.000 362.000
736.000 357.000
740.000 357.000
741.000 359.000
742.000 356.000
748.000 356.000
756.000 352.000
758.000 353.000
763.000 349.000
776.000 347.000
779.000 345.000
786.000 345.000
792.000 340.000
804.000 335.000
810.000 335.000
812.000 332.000
818.000 329.000
819.000 330.000
822.000 327.000
824.000 330.000
825.000 325.000
828.000 325.000
830.000 323.000
832.000 325.000
833.000 322.000
836.000 320.000
837.000 321.000
840.000 318.000
843.000 318.000
846.000 315.000
849.000 316.000
852.000 313.000
854.000 315.000
854.000 312.000
863.000 308.000
875.000 305.000
877.000 303.000
878.000 304.000
880.000 301.000
882.000 302.000
887.000 299.000
890.000 300.000
891.000 299.000
889.000 298.000
916.000 285.000
922.000 284.000
939.000 277.000
949.000 276.000
965.000 271.000
991.000 268.000
997.000 266.000
999.000 267.000
1000.000 265.000
1006.000 262.000
1008.000 263.000
1009.000 261.000
1015.000 260.000
1019.000 257.000
1021.000 259.000
1022.000 256.000
1035.000 249.000
1043.000 242.000
1045.000 242.000
1055.000 232.000
1059.000 230.000
1060.000 231.000
1067.000 224.000
1070.000 224.000
1073.000 218.000
1075.000 218.000
1078.000 213.000
