ply
format ascii 1.0
comment Dominant contour extracted from bimodal image.
comment scale factor = 0.689655
comment kernel width = 3
comment decimate eps = 1.000000
comment orig shape   = (580, 1360)
comment threshold    = 241.500000
comment Written with hapPLY (https://github.com/nmwsharp/happly)
element flags 0
property uchar closed
element vertex 117
property double x
property double y
end_header
897.000 163.000
890.000 158.000
883.000 147.000
882.000 148.000
875.000 141.000
867.000 137.000
860.000 131.000
846.000 124.000
797.000 112.000
768.000 109.000
763.000 106.000
757.000 106.000
739.000 100.000
734.000 100.000
728.000 97.000
720.000 97.000
709.000 92.000
707.000 93.000
677.000 84.000
670.000 84.000
654.000 80.000
647.000 76.000
613.000 67.000
607.000 64.000
575.000 62.000
569.000 60.000
539.000 59.000
495.000 60.000
491.000 62.000
456.000 62.000
397.000 67.000
371.000 71.000
359.000 75.000
341.000 77.000
328.000 81.000
317.000 82.000
301.000 86.000
297.000 89.000
294.000 89.000
288.000 93.000
285.000 93.000
277.000 97.000
273.000 97.000
261.000 102.000
259.000 101.000
255.000 104.000
233.000 111.000
231.000 113.000
220.000 115.000
188.000 129.000
183.000 133.000
176.000 135.000
159.000 144.000
133.000 153.000
99.000 162.000
43.000 163.000
32.000 172.000
36.000 175.000
38.000 175.000
40.000 172.000
61.000 174.000
59.000 176.000
60.000 180.000
68.000 179.000
75.000 176.000
85.000 177.000
120.000 188.000
183.000 219.000
227.000 248.000
236.000 252.000
247.000 261.000
262.000 270.000
284.000 281.000
300.000 292.000
350.000 317.000
361.000 319.000
379.000 326.000
392.000 328.000
403.000 332.000
413.000 331.000
424.000 339.000
440.000 343.000
443.000 346.000
444.000 345.000
447.000 347.000
456.000 348.000
460.000 350.000
479.000 352.000
484.000 354.000
493.000 354.000
501.000 357.000
517.000 359.000
531.000 358.000
553.000 361.000
581.000 361.000
591.000 357.000
603.000 357.000
644.000 343.000
661.000 332.000
689.000 310.000
715.000 294.000
724.000 286.000
739.000 279.000
772.000 268.000
787.000 259.000
792.000 258.000
796.000 252.000
805.000 250.000
819.000 244.000
829.000 237.000
838.000 228.000
844.000 225.000
869.000 198.000
871.000 193.000
880.000 184.000
883.000 170.000
892.000 164.000
