ply
format ascii 1.0
comment Dominant contour extracted from bimodal image.
comment scale factor = 0.553250
comment kernel width = 3
comment decimate eps = 1.000000
comment orig shape   = (723, 1858)
comment threshold    = 229.000000
comment Written with hapPLY (https://github.com/nmwsharp/happly)
element flags 0
property uchar closed
element vertex 137
property double x
property double y
end_header
1012.000 319.000
1012.000 313.000
1009.000 304.000
1010.000 302.000
1002.000 286.000
986.000 267.000
983.000 266.000
963.000 247.000
956.000 243.000
946.000 231.000
937.000 228.000
919.000 216.000
892.000 202.000
880.000 191.000
839.000 167.000
804.000 140.000
787.000 132.000
775.000 122.000
751.000 111.000
742.000 109.000
721.000 100.000
696.000 95.000
681.000 89.000
667.000 89.000
657.000 84.000
649.000 83.000
639.000 79.000
634.000 79.000
628.000 75.000
619.000 72.000
607.000 70.000
590.000 64.000
581.000 63.000
576.000 60.000
551.000 57.000
541.000 54.000
526.000 54.000
518.000 57.000
508.000 54.000
497.000 53.000
478.000 54.000
471.000 56.000
460.000 54.000
439.000 54.000
424.000 57.000
379.000 58.000
366.000 62.000
344.000 63.000
331.000 68.000
308.000 73.000
288.000 74.000
264.000 88.000
256.000 89.000
232.000 97.000
227.000 102.000
224.000 114.000
220.000 118.000
197.000 129.000
163.000 139.000
147.000 140.000
143.000 142.000
129.000 157.000
103.000 168.000
89.000 171.000
71.000 171.000
66.000 169.000
48.000 168.000
46.000 171.000
42.000 171.000
41.000 167.000
39.000 169.000
40.000 173.000
34.000 175.000
34.000 181.000
31.000 182.000
31.000 185.000
29.000 186.000
30.000 189.000
45.000 188.000
48.000 191.000
57.000 194.000
63.000 191.000
68.000 192.000
69.000 190.000
91.000 192.000
102.000 196.000
119.000 199.000
150.000 215.000
158.000 222.000
164.000 224.000
176.000 233.000
191.000 240.000
209.000 255.000
227.000 264.000
239.000 274.000
245.000 277.000
278.000 305.000
289.000 310.000
301.000 318.000
312.000 321.000
345.000 336.000
367.000 342.000
382.000 348.000
394.000 349.000
420.000 357.000
436.000 358.000
450.000 363.000
486.000 368.000
500.000 374.000
512.000 377.000
529.000 377.000
552.000 385.000
570.000 389.000
592.000 390.000
613.000 389.000
621.000 386.000
638.000 386.000
665.000 375.000
672.000 375.000
691.000 370.000
730.000 369.000
744.000 365.000
781.000 365.000
820.000 359.000
830.000 354.000
843.000 353.000
852.000 350.000
873.000 349.000
886.000 345.000
895.000 345.000
902.000 343.000
916.000 343.000
936.000 338.000
963.000 338.000
981.000 334.000
989.000 334.000
1006.000 328.000
