ply
format ascii 1.0
comment Dominant contour extracted from bimodal image.
comment scale factor = 0.390625
comment kernel width = 3
comment decimate eps = 1.000000
comment orig shape   = (1024, 2888)
comment threshold    = 237.500000
comment Written with hapPLY (https://github.com/nmwsharp/happly)
element flags 0
property uchar closed
element vertex 127
property double x
property double y
end_header
1115.000 217.000
1112.000 214.000
1102.000 211.000
1098.000 206.000
1084.000 197.000
1076.000 194.000
1063.000 186.000
1058.000 185.000
1050.000 180.000
1045.000 179.000
1020.000 167.000
990.000 159.000
985.000 159.000
976.000 155.000
968.000 154.000
953.000 148.000
939.000 145.000
925.000 138.000
912.000 134.000
906.000 130.000
892.000 126.000
888.000 123.000
844.000 110.000
792.000 89.000
785.000 89.000
769.000 84.000
750.000 82.000
723.000 76.000
701.000 74.000
689.000 69.000
679.000 68.000
651.000 60.000
612.000 57.000
514.000 58.000
504.000 61.000
480.000 63.000
456.000 70.000
443.000 72.000
442.000 71.000
434.000 74.000
427.000 74.000
413.000 78.000
388.000 81.000
367.000 87.000
351.000 89.000
323.000 97.000
312.000 102.000
284.000 107.000
273.000 111.000
265.000 111.000
247.000 115.000
197.000 140.000
186.000 143.000
160.000 157.000
121.000 172.000
86.000 192.000
76.000 195.000
70.000 194.000
38.000 200.000
17.000 200.000
15.000 204.000
17.000 206.000
16.000 208.000
19.000 209.000
16.000 210.000
17.000 214.000
21.000 215.000
22.000 217.000
44.000 216.000
67.000 219.000
88.000 219.000
106.000 228.000
123.000 234.000
130.000 239.000
134.000 239.000
142.000 245.000
160.000 254.000
190.000 265.000
207.000 274.000
218.000 282.000
222.000 283.000
226.000 288.000
234.000 291.000
250.000 301.000
264.000 305.000
287.000 315.000
308.000 319.000
336.000 332.000
376.000 340.000
430.000 342.000
438.000 347.000
457.000 352.000
503.000 355.000
508.000 357.000
531.000 358.000
546.000 363.000
578.000 365.000
613.000 365.000
634.000 360.000
667.000 358.000
708.000 349.000
725.000 342.000
740.000 340.000
754.000 335.000
767.000 333.000
776.000 329.000
802.000 324.000
834.000 312.000
845.000 310.000
854.000 305.000
887.000 296.000
894.000 292.000
906.000 289.000
914.000 285.000
931.000 282.000
940.000 278.000
978.000 270.000
1004.000 262.000
1015.000 261.000
1030.000 257.000
1045.000 249.000
1058.000 246.000
1071.000 238.000
1094.000 227.000
1100.000 220.000
1108.000 216.000
1113.000 218.000
