ply
format ascii 1.0
comment Dominant contour extracted from bimodal image.
comment scale factor = 0.404858
comment kernel width = 3
comment decimate eps = 1.000000
comment orig shape   = (988, 2505)
comment threshold    = 246.500000
comment Written with hapPLY (https://github.com/nmwsharp/happly)
element flags 0
property uchar closed
element vertex 165
property double x
property double y
end_header
979.000 228.000
979.000 220.000
976.000 216.000
975.000 210.000
963.000 192.000
949.000 178.000
947.000 178.000
936.000 166.000
934.000 166.000
931.000 161.000
913.000 145.000
912.000 146.000
906.000 138.000
905.000 140.000
899.000 134.000
894.000 132.000
887.000 126.000
836.000 98.000
812.000 89.000
802.000 87.000
790.000 81.000
789.000 82.000
762.000 74.000
752.000 74.000
734.000 70.000
678.000 71.000
660.000 70.000
655.000 68.000
653.000 69.000
625.000 65.000
605.000 66.000
599.000 64.000
597.000 66.000
585.000 67.000
582.000 65.000
559.000 65.000
547.000 67.000
518.000 68.000
499.000 71.000
497.000 70.000
471.000 74.000
450.000 80.000
440.000 80.000
425.000 85.000
413.000 85.000
397.000 89.000
375.000 91.000
350.000 98.000
338.000 103.000
329.000 104.000
321.000 108.000
303.000 112.000
291.000 117.000
290.000 116.000
286.000 119.000
270.000 123.000
234.000 140.000
221.000 142.000
209.000 146.000
206.000 145.000
202.000 149.000
192.000 152.000
191.000 151.000
190.000 153.000
180.000 158.000
168.000 162.000
167.000 161.000
161.000 165.000
160.000 164.000
156.000 168.000
147.000 168.000
144.000 171.000
128.000 176.000
115.000 177.000
104.000 181.000
102.000 180.000
93.000 185.000
92.000 184.000
90.000 187.000
79.000 192.000
71.000 193.000
61.000 197.000
56.000 195.000
53.000 198.000
22.000 197.000
18.000 200.000
21.000 201.000
19.000 203.000
19.000 208.000
21.000 210.000
45.000 208.000
51.000 210.000
77.000 212.000
87.000 216.000
92.000 216.000
119.000 227.000
148.000 235.000
171.000 244.000
203.000 252.000
219.000 259.000
243.000 263.000
254.000 268.000
255.000 267.000
277.000 274.000
289.000 280.000
308.000 284.000
315.000 287.000
316.000 286.000
339.000 291.000
352.000 297.000
370.000 301.000
387.000 307.000
415.000 312.000
432.000 320.000
444.000 321.000
446.000 323.000
447.000 322.000
467.000 329.000
485.000 331.000
530.000 343.000
535.000 342.000
542.000 345.000
554.000 345.000
574.000 350.000
582.000 350.000
589.000 354.000
601.000 356.000
613.000 362.000
616.000 361.000
626.000 365.000
632.000 365.000
640.000 368.000
641.000 367.000
659.000 369.000
667.000 372.000
682.000 374.000
713.000 374.000
719.000 372.000
732.000 371.000
735.000 369.000
745.000 369.000
748.000 367.000
753.000 367.000
761.000 364.000
769.000 364.000
789.000 359.000
796.000 359.000
818.000 352.000
832.000 345.000
838.000 344.000
868.000 329.000
876.000 322.000
882.000 320.000
888.000 315.000
894.000 314.000
922.000 300.000
946.000 282.000
953.000 273.000
960.000 267.000
960.000 263.000
963.000 261.000
962.000 260.000
965.000 254.000
974.000 244.000
975.000 237.000
