ply
format ascii 1.0
comment Dominant contour extracted from bimodal image.
comment scale factor = 0.554785
comment kernel width = 3
comment decimate eps = 1.000000
comment orig shape   = (721, 1762)
comment threshold    = 246.000000
comment Written with hapPLY (https://github.com/nmwsharp/happly)
element flags 0
property uchar closed
element vertex 259
property double x
property double y
end_header
59.000 202.000
66.000 211.000
67.000 209.000
74.000 206.000
88.000 206.000
90.000 208.000
95.000 206.000
110.000 206.000
116.000 208.000
135.000 209.000
143.000 220.000
152.000 224.000
157.000 234.000
160.000 235.000
165.000 241.000
166.000 240.000
171.000 246.000
175.000 247.000
189.000 259.000
187.000 259.000
187.000 261.000
191.000 261.000
193.000 264.000
202.000 268.000
203.000 270.000
204.000 269.000
208.000 274.000
212.000 274.000
215.000 279.000
217.000 278.000
221.000 282.000
226.000 284.000
229.000 288.000
231.000 287.000
238.000 290.000
241.000 293.000
248.000 296.000
250.000 299.000
253.000 299.000
264.000 308.000
273.000 311.000
274.000 314.000
275.000 312.000
281.000 315.000
287.000 315.000
289.000 318.000
290.000 317.000
298.000 323.000
310.000 329.000
316.000 330.000
317.000 332.000
318.000 331.000
330.000 333.000
332.000 336.000
334.000 335.000
338.000 338.000
348.000 340.000
354.000 343.000
355.000 345.000
356.000 343.000
363.000 348.000
365.000 347.000
370.000 350.000
371.000 349.000
381.000 351.000
382.000 354.000
383.000 352.000
399.000 359.000
400.000 361.000
402.000 360.000
422.000 366.000
443.000 365.000
444.000 367.000
451.000 369.000
462.000 370.000
462.000 372.000
465.000 371.000
474.000 374.000
490.000 376.000
533.000 373.000
591.000 373.000
603.000 371.000
605.000 372.000
606.000 370.000
620.000 370.000
629.000 368.000
636.000 370.000
639.000 367.000
644.000 367.000
648.000 369.000
667.000 366.000
671.000 367.000
674.000 365.000
684.000 364.000
696.000 360.000
707.000 360.000
715.000 357.000
722.000 357.000
741.000 350.000
746.000 350.000
749.000 348.000
750.000 349.000
751.000 347.000
753.000 348.000
755.000 345.000
769.000 343.000
775.000 340.000
778.000 341.000
778.000 339.000
784.000 335.000
793.000 333.000
824.000 315.000
827.000 315.000
841.000 304.000
847.000 302.000
857.000 295.000
861.000 295.000
862.000 293.000
868.000 291.000
875.000 286.000
877.000 287.000
878.000 284.000
894.000 273.000
917.000 249.000
922.000 239.000
925.000 237.000
928.000 230.000
928.000 226.000
933.000 221.000
934.000 214.000
938.000 205.000
936.000 183.000
927.000 165.000
899.000 137.000
893.000 134.000
889.000 127.000
883.000 124.000
873.000 113.000
869.000 112.000
868.000 109.000
866.000 109.000
864.000 106.000
862.000 107.000
848.000 97.000
833.000 91.000
831.000 88.000
829.000 89.000
825.000 87.000
824.000 83.000
818.000 83.000
816.000 80.000
815.000 81.000
811.000 78.000
791.000 74.000
790.000 71.000
786.000 68.000
772.000 65.000
769.000 62.000
763.000 61.000
761.000 59.000
760.000 60.000
760.000 58.000
739.000 52.000
724.000 45.000
723.000 43.000
722.000 44.000
708.000 40.000
700.000 40.000
699.000 38.000
697.000 39.000
676.000 34.000
667.000 34.000
664.000 32.000
649.000 32.000
646.000 30.000
645.000 32.000
618.000 31.000
612.000 33.000
608.000 33.000
605.000 31.000
582.000 36.000
572.000 36.000
570.000 38.000
562.000 38.000
553.000 43.000
543.000 44.000
539.000 46.000
537.000 44.000
537.000 47.000
523.000 47.000
522.000 49.000
516.000 51.000
501.000 53.000
479.000 61.000
466.000 61.000
465.000 63.000
461.000 63.000
455.000 66.000
446.000 66.000
445.000 68.000
440.000 68.000
401.000 82.000
392.000 83.000
377.000 88.000
369.000 93.000
364.000 89.000
363.000 91.000
333.000 99.000
321.000 105.000
315.000 105.000
307.000 110.000
304.000 110.000
304.000 112.000
302.000 110.000
300.000 114.000
296.000 114.000
288.000 119.000
280.000 120.000
274.000 124.000
273.000 123.000
270.000 127.000
268.000 127.000
265.000 130.000
263.000 129.000
259.000 133.000
253.000 134.000
248.000 137.000
245.000 136.000
245.000 138.000
244.000 137.000
242.000 139.000
234.000 142.000
233.000 141.000
219.000 147.000
214.000 147.000
203.000 154.000
200.000 154.000
191.000 161.000
185.000 164.000
182.000 163.000
181.000 166.000
178.000 163.000
164.000 165.000
159.000 168.000
150.000 168.000
140.000 172.000
135.000 172.000
127.000 177.000
117.000 179.000
112.000 182.000
111.000 181.000
110.000 183.000
99.000 189.000
79.000 191.000
74.000 190.000
67.000 193.000
62.000 193.000
61.000 195.000
63.000 198.000
