ply
format ascii 1.0
comment Dominant contour extracted from bimodal image.
comment scale factor = 0.405268
comment kernel width = 3
comment decimate eps = 1.000000
comment orig shape   = (987, 3242)
comment threshold    = 245.000000
comment Written with hapPLY (https://github.com/nmwsharp/happly)
element flags 0
property uchar closed
element vertex 123
property double x
property double y
end_header
35.000 251.000
39.000 253.000
50.000 251.000
63.000 251.000
59.000 252.000
59.000 254.000
93.000 254.000
115.000 258.000
154.000 272.000
218.000 300.000
288.000 322.000
309.000 330.000
323.000 333.000
333.000 337.000
353.000 339.000
392.000 346.000
444.000 361.000
478.000 368.000
512.000 372.000
537.000 373.000
599.000 382.000
635.000 385.000
645.000 384.000
651.000 386.000
735.000 386.000
760.000 384.000
834.000 385.000
859.000 384.000
865.000 382.000
889.000 380.000
926.000 372.000
936.000 367.000
940.000 367.000
957.000 360.000
958.000 361.000
984.000 348.000
994.000 346.000
1010.000 338.000
1016.000 337.000
1028.000 331.000
1048.000 324.000
1050.000 322.000
1053.000 322.000
1074.000 310.000
1091.000 303.000
1097.000 302.000
1123.000 289.000
1157.000 279.000
1172.000 271.000
1227.000 249.000
1246.000 238.000
1255.000 228.000
1270.000 217.000
1278.000 209.000
1279.000 206.000
1281.000 206.000
1282.000 204.000
1283.000 205.000
1286.000 202.000
1281.000 199.000
1272.000 186.000
1257.000 172.000
1231.000 158.000
1213.000 151.000
1211.000 149.000
1205.000 148.000
1188.000 139.000
1159.000 130.000
1151.000 126.000
1139.000 124.000
1106.000 111.000
1067.000 100.000
1038.000 89.000
1019.000 85.000
992.000 76.000
919.000 62.000
871.000 59.000
865.000 57.000
851.000 56.000
754.000 59.000
737.000 58.000
712.000 60.000
702.000 59.000
640.000 64.000
619.000 69.000
604.000 69.000
590.000 74.000
555.000 79.000
544.000 79.000
540.000 81.000
512.000 85.000
460.000 98.000
447.000 99.000
435.000 102.000
423.000 102.000
410.000 109.000
386.000 113.000
374.000 119.000
357.000 122.000
348.000 126.000
338.000 128.000
280.000 152.000
278.000 154.000
250.000 164.000
237.000 167.000
214.000 176.000
160.000 203.000
142.000 214.000
113.000 227.000
83.000 235.000
71.000 235.000
69.000 229.000
69.000 235.000
55.000 237.000
50.000 234.000
38.000 231.000
37.000 232.000
39.000 234.000
50.000 237.000
36.000 240.000
35.000 246.000
37.000 247.000
37.000 249.000
