ply
format ascii 1.0
comment Dominant contour extracted from bimodal image.
comment scale factor = 0.563380
comment kernel width = 3
comment decimate eps = 1.000000
comment orig shape   = (710, 1839)
comment threshold    = 243.000000
comment Written with hapPLY (https://github.com/nmwsharp/happly)
element flags 0
property uchar closed
element vertex 152
property double x
property double y
end_header
997.000 231.000
993.000 225.000
984.000 221.000
980.000 217.000
980.000 215.000
978.000 215.000
946.000 188.000
921.000 171.000
908.000 165.000
886.000 147.000
877.000 143.000
875.000 140.000
871.000 140.000
866.000 136.000
860.000 134.000
825.000 111.000
809.000 103.000
804.000 102.000
769.000 80.000
762.000 77.000
752.000 76.000
724.000 60.000
708.000 58.000
701.000 55.000
688.000 54.000
682.000 51.000
675.000 50.000
673.000 48.000
643.000 49.000
626.000 52.000
582.000 51.000
543.000 47.000
501.000 48.000
493.000 46.000
483.000 46.000
461.000 51.000
440.000 53.000
439.000 52.000
423.000 55.000
417.000 58.000
407.000 58.000
401.000 61.000
398.000 60.000
382.000 66.000
366.000 68.000
357.000 73.000
323.000 78.000
309.000 84.000
298.000 85.000
288.000 89.000
272.000 91.000
266.000 94.000
237.000 100.000
235.000 102.000
219.000 108.000
210.000 109.000
202.000 113.000
180.000 118.000
171.000 122.000
170.000 121.000
169.000 123.000
137.000 138.000
94.000 152.000
82.000 154.000
60.000 154.000
45.000 149.000
44.000 145.000
37.000 145.000
23.000 141.000
19.000 141.000
13.000 151.000
16.000 155.000
26.000 162.000
25.000 163.000
27.000 165.000
35.000 165.000
43.000 167.000
45.000 169.000
51.000 169.000
73.000 179.000
84.000 186.000
99.000 192.000
116.000 202.000
122.000 207.000
123.000 210.000
125.000 209.000
130.000 214.000
132.000 214.000
147.000 231.000
152.000 231.000
157.000 236.000
179.000 250.000
182.000 254.000
183.000 253.000
190.000 257.000
194.000 261.000
199.000 261.000
225.000 281.000
247.000 292.000
254.000 298.000
289.000 318.000
301.000 321.000
338.000 337.000
359.000 341.000
382.000 350.000
391.000 351.000
399.000 354.000
416.000 356.000
428.000 360.000
447.000 363.000
486.000 363.000
497.000 366.000
506.000 366.000
525.000 370.000
561.000 370.000
569.000 367.000
580.000 367.000
585.000 365.000
595.000 365.000
598.000 367.000
623.000 364.000
649.000 364.000
658.000 366.000
692.000 365.000
697.000 363.000
705.000 363.000
712.000 360.000
745.000 357.000
752.000 354.000
758.000 354.000
795.000 346.000
811.000 338.000
826.000 334.000
834.000 329.000
842.000 328.000
849.000 325.000
854.000 321.000
867.000 316.000
879.000 308.000
897.000 301.000
903.000 294.000
910.000 293.000
923.000 285.000
930.000 282.000
931.000 283.000
933.000 280.000
942.000 275.000
959.000 262.000
961.000 262.000
973.000 252.000
981.000 249.000
993.000 240.000
