ply
format ascii 1.0
comment Dominant contour extracted from bimodal image.
comment scale factor = 0.706714
comment kernel width = 3
comment decimate eps = 1.000000
comment orig shape   = (566, 1480)
comment threshold    = 243.000000
comment Written with hapPLY (https://github.com/nmwsharp/happly)
element flags 0
property uchar closed
element vertex 183
property double x
property double y
end_header
31.000 337.000
34.000 340.000
35.000 346.000
39.000 348.000
58.000 337.000
72.000 336.000
80.000 329.000
90.000 324.000
103.000 320.000
119.000 318.000
142.000 319.000
160.000 322.000
174.000 327.000
211.000 332.000
226.000 338.000
235.000 339.000
246.000 345.000
247.000 344.000
252.000 346.000
258.000 346.000
275.000 353.000
288.000 354.000
307.000 360.000
316.000 360.000
324.000 363.000
325.000 362.000
337.000 365.000
346.000 365.000
356.000 368.000
406.000 368.000
426.000 363.000
452.000 363.000
457.000 360.000
463.000 360.000
476.000 356.000
480.000 357.000
482.000 355.000
484.000 356.000
495.000 353.000
505.000 353.000
523.000 349.000
556.000 348.000
579.000 344.000
597.000 343.000
638.000 332.000
643.000 329.000
659.000 324.000
672.000 317.000
689.000 312.000
695.000 312.000
696.000 310.000
713.000 304.000
715.000 305.000
716.000 303.000
726.000 299.000
727.000 300.000
731.000 297.000
738.000 296.000
761.000 288.000
771.000 286.000
774.000 287.000
779.000 283.000
783.000 283.000
798.000 278.000
800.000 276.000
804.000 276.000
819.000 269.000
823.000 269.000
838.000 262.000
854.000 257.000
858.000 254.000
870.000 252.000
876.000 249.000
877.000 250.000
878.000 248.000
884.000 245.000
896.000 242.000
925.000 230.000
936.000 223.000
938.000 224.000
940.000 221.000
962.000 211.000
965.000 208.000
966.000 209.000
967.000 207.000
987.000 197.000
1000.000 187.000
1003.000 187.000
1003.000 185.000
1013.000 180.000
1019.000 174.000
1020.000 169.000
1008.000 154.000
1000.000 151.000
989.000 141.000
965.000 127.000
944.000 121.000
933.000 115.000
913.000 108.000
909.000 108.000
907.000 106.000
896.000 103.000
892.000 100.000
890.000 101.000
883.000 98.000
859.000 93.000
850.000 90.000
850.000 88.000
846.000 89.000
844.000 86.000
843.000 87.000
834.000 82.000
829.000 82.000
824.000 79.000
795.000 75.000
789.000 72.000
781.000 72.000
767.000 69.000
766.000 70.000
764.000 68.000
763.000 69.000
752.000 65.000
675.000 65.000
670.000 63.000
646.000 62.000
632.000 65.000
630.000 64.000
622.000 67.000
594.000 67.000
579.000 69.000
570.000 72.000
535.000 74.000
526.000 77.000
460.000 84.000
446.000 88.000
432.000 89.000
414.000 95.000
413.000 94.000
412.000 96.000
382.000 106.000
370.000 114.000
361.000 115.000
332.000 130.000
330.000 128.000
327.000 132.000
313.000 135.000
295.000 145.000
294.000 144.000
292.000 147.000
281.000 154.000
272.000 157.000
263.000 163.000
261.000 166.000
239.000 178.000
227.000 190.000
224.000 190.000
218.000 196.000
219.000 194.000
217.000 193.000
216.000 197.000
213.000 200.000
212.000 199.000
210.000 202.000
202.000 206.000
164.000 233.000
155.000 248.000
149.000 253.000
148.000 256.000
137.000 267.000
134.000 272.000
125.000 281.000
123.000 281.000
119.000 286.000
111.000 291.000
100.000 301.000
97.000 301.000
93.000 305.000
79.000 312.000
72.000 313.000
71.000 315.000
67.000 316.000
59.000 322.000
37.000 332.000
