ply
format ascii 1.0
comment Dominant contour extracted from bimodal image.
comment scale factor = 0.785855
comment kernel width = 3
comment decimate eps = 1.000000
comment orig shape   = (509, 1210)
comment threshold    = 230.500000
comment Written with hapPLY (https://github.com/nmwsharp/happly)
element flags 0
property uchar closed
element vertex 132
property double x
property double y
end_header
891.000 167.000
887.000 153.000
881.000 145.000
880.000 141.000
874.000 133.000
858.000 119.000
826.000 103.000
814.000 103.000
807.000 100.000
796.000 102.000
787.000 93.000
778.000 90.000
773.000 90.000
771.000 88.000
756.000 87.000
738.000 83.000
723.000 85.000
717.000 81.000
694.000 78.000
659.000 79.000
630.000 77.000
618.000 80.000
602.000 81.000
593.000 84.000
583.000 82.000
563.000 82.000
558.000 84.000
546.000 84.000
532.000 89.000
518.000 88.000
510.000 91.000
493.000 92.000
486.000 95.000
474.000 96.000
465.000 99.000
456.000 99.000
409.000 106.000
398.000 110.000
394.000 110.000
369.000 120.000
351.000 123.000
341.000 127.000
326.000 128.000
302.000 136.000
293.000 141.000
285.000 143.000
279.000 147.000
276.000 147.000
260.000 154.000
225.000 172.000
207.000 184.000
198.000 192.000
159.000 216.000
138.000 231.000
119.000 240.000
87.000 260.000
65.000 268.000
56.000 269.000
53.000 272.000
37.000 280.000
34.000 280.000
32.000 285.000
35.000 287.000
36.000 290.000
41.000 286.000
60.000 279.000
58.000 283.000
47.000 294.000
46.000 301.000
49.000 305.000
52.000 305.000
53.000 307.000
58.000 309.000
62.000 306.000
64.000 296.000
69.000 290.000
69.000 286.000
72.000 279.000
92.000 277.000
131.000 277.000
150.000 280.000
176.000 287.000
200.000 295.000
212.000 301.000
227.000 306.000
228.000 305.000
239.000 309.000
258.000 313.000
268.000 317.000
272.000 317.000
287.000 324.000
293.000 324.000
298.000 327.000
316.000 330.000
320.000 332.000
322.000 331.000
335.000 335.000
344.000 335.000
366.000 342.000
378.000 342.000
389.000 344.000
392.000 346.000
443.000 353.000
484.000 353.000
506.000 356.000
560.000 355.000
569.000 352.000
586.000 352.000
612.000 346.000
621.000 342.000
632.000 342.000
639.000 339.000
649.000 338.000
701.000 317.000
714.000 315.000
729.000 306.000
735.000 304.000
747.000 294.000
762.000 286.000
767.000 280.000
773.000 279.000
786.000 270.000
802.000 263.000
808.000 258.000
817.000 254.000
831.000 239.000
842.000 235.000
851.000 225.000
864.000 217.000
877.000 204.000
886.000 190.000
891.000 178.000
