ply
format ascii 1.0
comment Dominant contour extracted from bimodal image.
comment scale factor = 0.490798
comment kernel width = 3
comment decimate eps = 1.000000
comment orig shape   = (815, 4128)
comment threshold    = 235.000000
comment Written with hapPLY (https://github.com/nmwsharp/happly)
element flags 0
property uchar closed
element vertex 510
property double x
property double y
end_header
18.000 214.000
22.000 218.000
27.000 218.000
48.000 224.000
88.000 227.000
146.000 240.000
161.000 241.000
180.000 245.000
214.000 245.000
216.000 247.000
258.000 244.000
304.000 238.000
315.000 238.000
319.000 241.000
325.000 241.000
331.000 264.000
337.000 278.000
343.000 285.000
344.000 289.000
354.000 298.000
357.000 305.000
373.000 320.000
388.000 328.000
400.000 331.000
409.000 337.000
415.000 337.000
427.000 344.000
436.000 346.000
452.000 346.000
457.000 350.000
458.000 365.000
460.000 363.000
459.000 349.000
455.000 343.000
467.000 343.000
498.000 351.000
513.000 357.000
518.000 357.000
522.000 359.000
534.000 359.000
541.000 366.000
540.000 384.000
542.000 386.000
544.000 381.000
544.000 366.000
538.000 358.000
539.000 355.000
549.000 355.000
573.000 361.000
585.000 361.000
608.000 365.000
623.000 363.000
629.000 368.000
635.000 388.000
637.000 389.000
638.000 386.000
635.000 380.000
633.000 369.000
628.000 363.000
629.000 360.000
669.000 359.000
693.000 363.000
713.000 363.000
721.000 361.000
732.000 365.000
733.000 379.000
736.000 375.000
735.000 365.000
733.000 362.000
725.000 358.000
766.000 354.000
787.000 357.000
813.000 356.000
819.000 363.000
827.000 380.000
828.000 376.000
816.000 353.000
823.000 351.000
844.000 351.000
852.000 353.000
865.000 353.000
869.000 355.000
889.000 355.000
899.000 358.000
909.000 358.000
923.000 367.000
925.000 366.000
915.000 358.000
927.000 356.000
940.000 359.000
969.000 359.000
979.000 360.000
983.000 362.000
1004.000 363.000
1014.000 372.000
1022.000 386.000
1023.000 382.000
1020.000 376.000
1009.000 362.000
1063.000 364.000
1075.000 367.000
1098.000 367.000
1116.000 384.000
1124.000 388.000
1125.000 386.000
1114.000 379.000
1101.000 365.000
1105.000 364.000
1147.000 366.000
1181.000 365.000
1185.000 367.000
1201.000 383.000
1202.000 382.000
1186.000 364.000
1187.000 363.000
1201.000 360.000
1217.000 359.000
1222.000 357.000
1260.000 356.000
1266.000 360.000
1280.000 375.000
1282.000 375.000
1283.000 373.000
1275.000 367.000
1264.000 354.000
1283.000 351.000
1287.000 349.000
1333.000 350.000
1335.000 348.000
1333.000 350.000
1335.000 352.000
1344.000 355.000
1358.000 369.000
1359.000 368.000
1344.000 350.000
1340.000 346.000
1335.000 344.000
1332.000 340.000
1332.000 337.000
1329.000 337.000
1327.000 335.000
1331.000 334.000
1335.000 336.000
1333.000 338.000
1338.000 341.000
1338.000 344.000
1343.000 344.000
1345.000 342.000
1349.000 342.000
1364.000 337.000
1401.000 337.000
1418.000 334.000
1419.000 336.000
1435.000 345.000
1445.000 349.000
1446.000 348.000
1444.000 346.000
1437.000 343.000
1420.000 331.000
1434.000 327.000
1442.000 327.000
1452.000 324.000
1459.000 324.000
1465.000 322.000
1470.000 323.000
1486.000 320.000
1512.000 335.000
1513.000 334.000
1490.000 318.000
1499.000 314.000
1504.000 314.000
1516.000 310.000
1529.000 309.000
1543.000 304.000
1548.000 304.000
1561.000 312.000
1568.000 312.000
1570.000 310.000
1569.000 309.000
1562.000 309.000
1549.000 301.000
1559.000 296.000
1579.000 292.000
1594.000 287.000
1602.000 288.000
1618.000 296.000
1618.000 293.000
1602.000 285.000
1611.000 281.000
1634.000 277.000
1642.000 277.000
1648.000 275.000
1666.000 281.000
1667.000 280.000
1665.000 278.000
1652.000 272.000
1667.000 266.000
1689.000 264.000
1698.000 261.000
1705.000 261.000
1715.000 265.000
1728.000 267.000
1728.000 265.000
1718.000 263.000
1707.000 258.000
1718.000 253.000
1733.000 252.000
1755.000 246.000
1778.000 247.000
1781.000 245.000
1780.000 244.000
1762.000 243.000
1763.000 241.000
1778.000 233.000
1807.000 223.000
1816.000 223.000
1825.000 226.000
1836.000 226.000
1841.000 224.000
1841.000 222.000
1826.000 223.000
1814.000 219.000
1822.000 213.000
1830.000 211.000
1841.000 205.000
1847.000 206.000
1862.000 201.000
1875.000 201.000
1884.000 198.000
1882.000 196.000
1877.000 198.000
1863.000 198.000
1873.000 190.000
1892.000 183.000
1900.000 177.000
1928.000 175.000
1928.000 173.000
1912.000 173.000
1920.000 166.000
1933.000 160.000
1941.000 158.000
1964.000 159.000
1965.000 158.000
1962.000 156.000
1946.000 156.000
1948.000 154.000
1967.000 146.000
1973.000 142.000
1986.000 142.000
1995.000 139.000
1992.000 137.000
1996.000 134.000
1995.000 133.000
1998.000 128.000
1995.000 126.000
1996.000 123.000
1992.000 117.000
1985.000 117.000
1995.000 111.000
1993.000 110.000
1981.000 116.000
1975.000 123.000
1974.000 122.000
1970.000 124.000
1958.000 124.000
1952.000 126.000
1950.000 125.000
1961.000 117.000
1958.000 116.000
1941.000 128.000
1922.000 132.000
1918.000 131.000
1927.000 121.000
1925.000 120.000
1914.000 131.000
1910.000 133.000
1905.000 133.000
1879.000 140.000
1872.000 139.000
1887.000 131.000
1884.000 130.000
1865.000 139.000
1828.000 146.000
1818.000 146.000
1830.000 137.000
1838.000 137.000
1840.000 135.000
1839.000 134.000
1832.000 134.000
1813.000 144.000
1781.000 154.000
1775.000 152.000
1792.000 143.000
1792.000 141.000
1771.000 151.000
1733.000 151.000
1719.000 145.000
1733.000 138.000
1738.000 137.000
1738.000 135.000
1734.000 135.000
1710.000 144.000
1685.000 144.000
1681.000 141.000
1677.000 143.000
1671.000 140.000
1670.000 136.000
1679.000 131.000
1687.000 124.000
1689.000 124.000
1689.000 121.000
1687.000 121.000
1678.000 128.000
1665.000 135.000
1652.000 132.000
1635.000 132.000
1632.000 130.000
1630.000 134.000
1628.000 134.000
1619.000 128.000
1615.000 127.000
1620.000 127.000
1630.000 123.000
1637.000 116.000
1636.000 115.000
1626.000 122.000
1614.000 124.000
1602.000 120.000
1575.000 120.000
1571.000 117.000
1561.000 116.000
1546.000 110.000
1549.000 110.000
1559.000 105.000
1562.000 102.000
1561.000 101.000
1543.000 108.000
1521.000 106.000
1504.000 107.000
1497.000 105.000
1486.000 105.000
1483.000 102.000
1481.000 103.000
1474.000 100.000
1482.000 96.000
1494.000 83.000
1493.000 82.000
1483.000 92.000
1472.000 97.000
1465.000 97.000
1438.000 93.000
1413.000 93.000
1402.000 90.000
1424.000 82.000
1427.000 80.000
1426.000 78.000
1397.000 88.000
1381.000 88.000
1375.000 90.000
1362.000 90.000
1355.000 88.000
1352.000 90.000
1344.000 85.000
1340.000 85.000
1333.000 82.000
1347.000 78.000
1351.000 75.000
1350.000 74.000
1337.000 78.000
1323.000 78.000
1320.000 76.000
1268.000 76.000
1254.000 74.000
1242.000 70.000
1257.000 54.000
1256.000 52.000
1248.000 61.000
1239.000 67.000
1235.000 67.000
1225.000 63.000
1203.000 63.000
1202.000 60.000
1201.000 62.000
1193.000 63.000
1160.000 62.000
1154.000 60.000
1153.000 57.000
1158.000 48.000
1163.000 33.000
1162.000 31.000
1158.000 36.000
1153.000 52.000
1149.000 56.000
1094.000 56.000
1069.000 53.000
1074.000 35.000
1073.000 25.000
1071.000 28.000
1072.000 32.000
1069.000 44.000
1065.000 51.000
1018.000 51.000
1006.000 48.000
993.000 47.000
989.000 45.000
989.000 43.000
993.000 35.000
997.000 21.000
1000.000 18.000
998.000 16.000
993.000 24.000
988.000 38.000
985.000 41.000
962.000 41.000
951.000 44.000
903.000 45.000
893.000 43.000
893.000 41.000
906.000 16.000
905.000 13.000
893.000 35.000
887.000 39.000
891.000 39.000
889.000 41.000
875.000 40.000
849.000 43.000
843.000 45.000
817.000 46.000
808.000 44.000
810.000 27.000
813.000 18.000
811.000 16.000
808.000 23.000
805.000 41.000
788.000 40.000
765.000 45.000
764.000 44.000
737.000 46.000
732.000 45.000
730.000 43.000
737.000 22.000
737.000 18.000
735.000 17.000
730.000 35.000
726.000 41.000
707.000 41.000
697.000 43.000
693.000 42.000
685.000 44.000
672.000 43.000
659.000 46.000
647.000 42.000
660.000 24.000
659.000 21.000
649.000 35.000
642.000 41.000
621.000 39.000
609.000 41.000
595.000 40.000
582.000 43.000
566.000 43.000
574.000 23.000
575.000 17.000
573.000 16.000
568.000 33.000
563.000 41.000
550.000 39.000
543.000 42.000
539.000 41.000
527.000 44.000
524.000 46.000
515.000 46.000
508.000 49.000
494.000 50.000
501.000 41.000
500.000 39.000
489.000 48.000
477.000 48.000
473.000 50.000
461.000 51.000
454.000 55.000
437.000 58.000
427.000 63.000
422.000 63.000
425.000 55.000
423.000 47.000
421.000 53.000
421.000 61.000
391.000 73.000
372.000 88.000
366.000 91.000
347.000 113.000
347.000 116.000
338.000 123.000
328.000 142.000
317.000 180.000
314.000 202.000
315.000 210.000
312.000 217.000
307.000 222.000
259.000 228.000
239.000 228.000
228.000 230.000
183.000 230.000
129.000 222.000
93.000 213.000
69.000 212.000
47.000 208.000
20.000 206.000
18.000 209.000
