ply
format ascii 1.0
comment Dominant contour extracted from bimodal image.
comment scale factor = 0.504414
comment kernel width = 3
comment decimate eps = 1.000000
comment orig shape   = (793, 3072)
comment threshold    = 242.000000
comment Written with hapPLY (https://github.com/nmwsharp/happly)
element flags 0
property uchar closed
element vertex 417
property double x
property double y
end_header
1512.000 83.000
1508.000 83.000
1495.000 76.000
1488.000 74.000
1483.000 69.000
1487.000 67.000
1492.000 67.000
1496.000 71.000
1497.000 67.000
1495.000 65.000
1484.000 64.000
1478.000 61.000
1449.000 55.000
1446.000 51.000
1455.000 51.000
1463.000 49.000
1468.000 50.000
1469.000 49.000
1467.000 47.000
1412.000 50.000
1403.000 45.000
1424.000 41.000
1424.000 38.000
1418.000 38.000
1398.000 43.000
1369.000 43.000
1361.000 40.000
1367.000 36.000
1383.000 29.000
1383.000 26.000
1367.000 32.000
1357.000 38.000
1350.000 37.000
1343.000 39.000
1328.000 40.000
1315.000 39.000
1310.000 36.000
1323.000 26.000
1331.000 18.000
1330.000 16.000
1317.000 27.000
1316.000 26.000
1313.000 30.000
1308.000 33.000
1277.000 35.000
1266.000 38.000
1260.000 38.000
1258.000 36.000
1270.000 21.000
1268.000 20.000
1254.000 36.000
1249.000 39.000
1235.000 39.000
1217.000 43.000
1213.000 43.000
1213.000 41.000
1233.000 33.000
1235.000 31.000
1234.000 30.000
1230.000 30.000
1209.000 39.000
1189.000 38.000
1173.000 43.000
1167.000 43.000
1163.000 41.000
1173.000 32.000
1180.000 28.000
1180.000 25.000
1178.000 25.000
1158.000 40.000
1139.000 39.000
1117.000 42.000
1114.000 41.000
1130.000 27.000
1128.000 25.000
1124.000 30.000
1109.000 40.000
1097.000 40.000
1079.000 43.000
1077.000 42.000
1061.000 46.000
1055.000 46.000
1055.000 44.000
1072.000 29.000
1070.000 27.000
1058.000 38.000
1050.000 43.000
1043.000 42.000
1041.000 44.000
1022.000 45.000
1001.000 50.000
994.000 49.000
1005.000 39.000
1006.000 36.000
1004.000 35.000
997.000 44.000
988.000 48.000
971.000 46.000
915.000 47.000
910.000 49.000
900.000 48.000
877.000 53.000
870.000 53.000
869.000 52.000
889.000 35.000
888.000 33.000
865.000 50.000
826.000 53.000
819.000 55.000
805.000 55.000
800.000 52.000
819.000 35.000
821.000 32.000
819.000 30.000
809.000 42.000
794.000 50.000
751.000 48.000
727.000 52.000
738.000 46.000
743.000 41.000
742.000 39.000
738.000 43.000
727.000 48.000
721.000 49.000
719.000 51.000
709.000 51.000
677.000 59.000
656.000 60.000
673.000 42.000
670.000 40.000
654.000 57.000
649.000 60.000
640.000 60.000
623.000 64.000
605.000 65.000
583.000 69.000
576.000 69.000
571.000 66.000
571.000 63.000
581.000 44.000
580.000 39.000
572.000 57.000
563.000 65.000
524.000 64.000
504.000 67.000
490.000 67.000
487.000 65.000
486.000 62.000
497.000 48.000
499.000 44.000
498.000 40.000
492.000 50.000
484.000 59.000
440.000 59.000
421.000 62.000
412.000 61.000
412.000 58.000
429.000 43.000
427.000 42.000
422.000 44.000
408.000 57.000
388.000 57.000
376.000 61.000
367.000 66.000
356.000 66.000
346.000 69.000
339.000 68.000
356.000 52.000
355.000 50.000
342.000 62.000
336.000 65.000
321.000 65.000
284.000 72.000
277.000 75.000
267.000 74.000
278.000 74.000
280.000 71.000
279.000 70.000
277.000 72.000
241.000 72.000
229.000 74.000
224.000 77.000
206.000 81.000
184.000 92.000
178.000 99.000
171.000 102.000
162.000 111.000
156.000 114.000
143.000 129.000
137.000 142.000
135.000 167.000
128.000 178.000
124.000 180.000
96.000 181.000
86.000 183.000
60.000 183.000
56.000 181.000
53.000 182.000
51.000 178.000
48.000 176.000
44.000 179.000
44.000 184.000
19.000 184.000
17.000 187.000
17.000 194.000
19.000 196.000
50.000 196.000
63.000 201.000
70.000 201.000
73.000 198.000
80.000 198.000
83.000 196.000
137.000 196.000
142.000 209.000
136.000 214.000
135.000 217.000
135.000 227.000
140.000 249.000
157.000 280.000
168.000 297.000
177.000 307.000
203.000 327.000
219.000 331.000
231.000 342.000
233.000 341.000
227.000 334.000
230.000 332.000
238.000 332.000
250.000 342.000
267.000 351.000
298.000 357.000
313.000 370.000
316.000 369.000
304.000 358.000
305.000 354.000
339.000 365.000
380.000 363.000
397.000 377.000
399.000 375.000
390.000 368.000
385.000 362.000
386.000 360.000
412.000 363.000
440.000 364.000
460.000 362.000
464.000 366.000
477.000 372.000
480.000 372.000
481.000 371.000
479.000 369.000
467.000 365.000
464.000 361.000
478.000 360.000
490.000 363.000
512.000 364.000
534.000 358.000
545.000 358.000
553.000 360.000
571.000 377.000
572.000 374.000
561.000 363.000
569.000 364.000
579.000 369.000
593.000 373.000
606.000 372.000
612.000 374.000
629.000 374.000
636.000 372.000
643.000 376.000
654.000 386.000
656.000 385.000
649.000 377.000
641.000 371.000
642.000 370.000
660.000 370.000
696.000 376.000
707.000 376.000
718.000 373.000
729.000 381.000
731.000 380.000
733.000 374.000
732.000 371.000
741.000 370.000
793.000 376.000
808.000 375.000
820.000 385.000
830.000 389.000
831.000 388.000
829.000 386.000
820.000 382.000
811.000 373.000
816.000 370.000
854.000 365.000
869.000 365.000
883.000 361.000
905.000 363.000
907.000 361.000
906.000 360.000
890.000 357.000
896.000 354.000
932.000 350.000
940.000 351.000
956.000 347.000
973.000 356.000
980.000 358.000
980.000 356.000
966.000 349.000
959.000 343.000
967.000 340.000
990.000 336.000
997.000 333.000
1010.000 332.000
1020.000 327.000
1024.000 327.000
1039.000 334.000
1048.000 336.000
1048.000 334.000
1027.000 325.000
1024.000 322.000
1029.000 318.000
1057.000 311.000
1075.000 301.000
1094.000 302.000
1095.000 301.000
1092.000 299.000
1078.000 297.000
1080.000 295.000
1092.000 289.000
1110.000 286.000
1122.000 280.000
1145.000 285.000
1146.000 284.000
1144.000 282.000
1130.000 279.000
1126.000 276.000
1126.000 274.000
1137.000 267.000
1157.000 260.000
1173.000 251.000
1190.000 250.000
1197.000 252.000
1197.000 249.000
1177.000 247.000
1178.000 244.000
1191.000 237.000
1195.000 237.000
1217.000 226.000
1221.000 226.000
1232.000 230.000
1237.000 235.000
1238.000 233.000
1236.000 230.000
1221.000 223.000
1220.000 221.000
1223.000 215.000
1229.000 210.000
1238.000 209.000
1263.000 201.000
1273.000 204.000
1284.000 211.000
1287.000 211.000
1288.000 210.000
1282.000 206.000
1265.000 198.000
1265.000 194.000
1267.000 192.000
1300.000 178.000
1315.000 179.000
1315.000 177.000
1302.000 174.000
1308.000 169.000
1320.000 163.000
1332.000 161.000
1339.000 157.000
1352.000 159.000
1360.000 162.000
1361.000 161.000
1357.000 158.000
1344.000 155.000
1341.000 153.000
1348.000 145.000
1369.000 137.000
1371.000 135.000
1389.000 134.000
1401.000 138.000
1402.000 137.000
1396.000 133.000
1377.000 130.000
1376.000 128.000
1382.000 122.000
1386.000 120.000
1399.000 118.000
1407.000 114.000
1433.000 115.000
1433.000 113.000
1426.000 111.000
1411.000 110.000
1416.000 104.000
1426.000 100.000
1452.000 99.000
1454.000 97.000
1470.000 96.000
1473.000 94.000
1472.000 93.000
1454.000 93.000
1456.000 90.000
1462.000 87.000
1477.000 87.000
1489.000 91.000
1494.000 91.000
1494.000 88.000
1489.000 88.000
1484.000 86.000
1485.000 85.000
1495.000 85.000
1498.000 83.000
1510.000 86.000
