ply
format ascii 1.0
comment Dominant contour extracted from bimodal image.
comment scale factor = 0.540541
comment kernel width = 3
comment decimate eps = 1.000000
comment orig shape   = (740, 3034)
comment threshold    = 246.500000
comment Written with hapPLY (https://github.com/nmwsharp/happly)
element flags 0
property uchar closed
element vertex 703
property double x
property double y
end_header
42.000 128.000
44.000 130.000
49.000 131.000
50.000 133.000
48.000 134.000
50.000 136.000
53.000 136.000
58.000 139.000
66.000 139.000
72.000 134.000
71.000 132.000
81.000 134.000
84.000 133.000
87.000 136.000
89.000 135.000
104.000 141.000
112.000 142.000
117.000 144.000
118.000 146.000
120.000 145.000
136.000 150.000
158.000 159.000
163.000 159.000
165.000 161.000
185.000 167.000
206.000 171.000
208.000 173.000
210.000 172.000
222.000 177.000
240.000 179.000
259.000 185.000
280.000 187.000
305.000 193.000
315.000 204.000
320.000 224.000
319.000 232.000
322.000 233.000
326.000 250.000
334.000 262.000
335.000 267.000
340.000 275.000
360.000 295.000
366.000 299.000
368.000 303.000
369.000 302.000
379.000 306.000
386.000 312.000
391.000 312.000
400.000 319.000
406.000 319.000
427.000 326.000
432.000 332.000
438.000 344.000
439.000 340.000
435.000 330.000
427.000 322.000
436.000 321.000
441.000 325.000
442.000 323.000
458.000 330.000
463.000 330.000
465.000 332.000
466.000 331.000
484.000 337.000
489.000 336.000
490.000 338.000
494.000 338.000
493.000 340.000
495.000 340.000
501.000 358.000
501.000 365.000
503.000 364.000
503.000 355.000
498.000 340.000
500.000 339.000
497.000 337.000
497.000 334.000
507.000 333.000
532.000 340.000
541.000 341.000
548.000 344.000
560.000 345.000
566.000 348.000
581.000 367.000
580.000 368.000
582.000 370.000
582.000 374.000
584.000 373.000
584.000 367.000
578.000 359.000
579.000 355.000
576.000 355.000
575.000 351.000
573.000 350.000
573.000 346.000
583.000 346.000
631.000 356.000
645.000 356.000
646.000 358.000
647.000 357.000
653.000 361.000
666.000 382.000
667.000 378.000
661.000 368.000
662.000 367.000
651.000 355.000
652.000 353.000
672.000 354.000
683.000 358.000
693.000 358.000
717.000 362.000
720.000 364.000
730.000 364.000
735.000 368.000
734.000 369.000
736.000 370.000
738.000 375.000
748.000 388.000
750.000 387.000
747.000 383.000
748.000 381.000
745.000 380.000
746.000 379.000
740.000 372.000
738.000 368.000
739.000 367.000
737.000 366.000
739.000 365.000
735.000 363.000
735.000 359.000
737.000 358.000
757.000 358.000
763.000 360.000
787.000 361.000
791.000 362.000
792.000 364.000
818.000 363.000
835.000 381.000
834.000 382.000
841.000 388.000
842.000 385.000
839.000 384.000
838.000 380.000
834.000 377.000
833.000 373.000
825.000 366.000
823.000 360.000
887.000 360.000
892.000 366.000
892.000 369.000
898.000 375.000
897.000 376.000
899.000 377.000
899.000 369.000
896.000 368.000
895.000 360.000
892.000 360.000
892.000 357.000
901.000 354.000
915.000 353.000
957.000 353.000
971.000 360.000
977.000 365.000
978.000 368.000
979.000 366.000
986.000 368.000
987.000 367.000
985.000 365.000
980.000 364.000
976.000 359.000
975.000 360.000
971.000 355.000
970.000 356.000
964.000 351.000
968.000 348.000
988.000 346.000
994.000 344.000
1011.000 344.000
1017.000 341.000
1021.000 342.000
1022.000 340.000
1025.000 343.000
1034.000 346.000
1036.000 344.000
1027.000 336.000
1026.000 338.000
1028.000 335.000
1038.000 331.000
1046.000 331.000
1051.000 329.000
1068.000 327.000
1072.000 325.000
1079.000 325.000
1085.000 330.000
1094.000 334.000
1095.000 336.000
1098.000 336.000
1099.000 334.000
1097.000 331.000
1089.000 329.000
1080.000 321.000
1084.000 319.000
1085.000 320.000
1087.000 318.000
1096.000 318.000
1103.000 316.000
1127.000 316.000
1133.000 314.000
1134.000 316.000
1135.000 313.000
1140.000 313.000
1145.000 317.000
1150.000 317.000
1154.000 314.000
1156.000 316.000
1156.000 313.000
1163.000 307.000
1162.000 306.000
1156.000 310.000
1155.000 309.000
1149.000 315.000
1146.000 314.000
1142.000 309.000
1146.000 306.000
1148.000 307.000
1149.000 305.000
1159.000 303.000
1188.000 303.000
1201.000 299.000
1206.000 301.000
1207.000 303.000
1208.000 302.000
1213.000 304.000
1219.000 304.000
1222.000 302.000
1221.000 301.000
1212.000 301.000
1209.000 298.000
1203.000 296.000
1208.000 293.000
1210.000 295.000
1210.000 293.000
1219.000 290.000
1239.000 288.000
1253.000 282.000
1262.000 285.000
1269.000 291.000
1276.000 292.000
1276.000 289.000
1271.000 289.000
1268.000 286.000
1267.000 287.000
1266.000 283.000
1263.000 283.000
1262.000 281.000
1257.000 279.000
1262.000 274.000
1273.000 274.000
1279.000 272.000
1289.000 273.000
1290.000 271.000
1296.000 271.000
1297.000 269.000
1301.000 269.000
1301.000 267.000
1303.000 268.000
1304.000 266.000
1306.000 268.000
1308.000 267.000
1331.000 273.000
1332.000 272.000
1330.000 269.000
1328.000 270.000
1325.000 268.000
1316.000 267.000
1313.000 264.000
1311.000 265.000
1307.000 263.000
1309.000 263.000
1309.000 261.000
1318.000 258.000
1320.000 259.000
1321.000 257.000
1322.000 258.000
1332.000 254.000
1339.000 255.000
1353.000 249.000
1371.000 251.000
1382.000 250.000
1377.000 248.000
1362.000 247.000
1354.000 244.000
1357.000 243.000
1355.000 242.000
1358.000 237.000
1365.000 236.000
1373.000 232.000
1385.000 232.000
1399.000 227.000
1400.000 228.000
1404.000 226.000
1414.000 226.000
1421.000 224.000
1423.000 222.000
1425.000 223.000
1427.000 221.000
1424.000 219.000
1413.000 223.000
1408.000 223.000
1408.000 221.000
1428.000 214.000
1443.000 206.000
1464.000 206.000
1464.000 203.000
1445.000 203.000
1448.000 199.000
1458.000 198.000
1462.000 194.000
1464.000 195.000
1471.000 191.000
1484.000 189.000
1491.000 185.000
1507.000 185.000
1507.000 182.000
1491.000 182.000
1494.000 178.000
1500.000 174.000
1509.000 173.000
1524.000 166.000
1536.000 164.000
1537.000 165.000
1543.000 163.000
1543.000 159.000
1534.000 162.000
1529.000 161.000
1536.000 158.000
1540.000 154.000
1549.000 150.000
1550.000 151.000
1554.000 148.000
1566.000 145.000
1586.000 143.000
1586.000 140.000
1578.000 142.000
1569.000 142.000
1575.000 139.000
1581.000 139.000
1593.000 135.000
1594.000 137.000
1601.000 140.000
1604.000 143.000
1612.000 145.000
1614.000 143.000
1612.000 140.000
1608.000 139.000
1603.000 134.000
1598.000 133.000
1604.000 132.000
1605.000 130.000
1598.000 130.000
1599.000 127.000
1596.000 126.000
1593.000 122.000
1591.000 123.000
1591.000 120.000
1596.000 119.000
1593.000 116.000
1581.000 120.000
1579.000 119.000
1576.000 121.000
1563.000 120.000
1565.000 118.000
1567.000 119.000
1578.000 114.000
1578.000 112.000
1569.000 114.000
1567.000 113.000
1566.000 115.000
1564.000 114.000
1563.000 116.000
1562.000 115.000
1554.000 120.000
1541.000 124.000
1526.000 125.000
1510.000 123.000
1503.000 120.000
1519.000 116.000
1527.000 117.000
1528.000 116.000
1526.000 114.000
1513.000 114.000
1501.000 117.000
1493.000 117.000
1482.000 114.000
1472.000 116.000
1467.000 113.000
1465.000 114.000
1459.000 111.000
1460.000 112.000
1461.000 110.000
1470.000 107.000
1477.000 109.000
1478.000 108.000
1473.000 104.000
1464.000 106.000
1463.000 105.000
1462.000 107.000
1454.000 109.000
1446.000 108.000
1441.000 105.000
1435.000 106.000
1430.000 104.000
1425.000 105.000
1419.000 103.000
1417.000 101.000
1438.000 92.000
1440.000 90.000
1439.000 89.000
1433.000 90.000
1412.000 100.000
1379.000 100.000
1373.000 95.000
1375.000 95.000
1376.000 93.000
1377.000 94.000
1388.000 85.000
1390.000 79.000
1392.000 78.000
1390.000 74.000
1388.000 75.000
1389.000 76.000
1387.000 77.000
1388.000 78.000
1382.000 87.000
1381.000 86.000
1380.000 88.000
1366.000 94.000
1357.000 91.000
1352.000 92.000
1345.000 90.000
1331.000 90.000
1327.000 87.000
1324.000 87.000
1326.000 83.000
1333.000 79.000
1346.000 80.000
1346.000 77.000
1331.000 77.000
1326.000 80.000
1323.000 80.000
1320.000 83.000
1284.000 82.000
1283.000 80.000
1279.000 81.000
1266.000 77.000
1270.000 77.000
1274.000 73.000
1284.000 70.000
1289.000 65.000
1288.000 64.000
1280.000 69.000
1273.000 70.000
1260.000 76.000
1214.000 73.000
1213.000 72.000
1218.000 65.000
1224.000 60.000
1223.000 59.000
1220.000 59.000
1211.000 69.000
1207.000 71.000
1157.000 71.000
1156.000 68.000
1162.000 64.000
1163.000 65.000
1165.000 62.000
1173.000 59.000
1173.000 56.000
1160.000 61.000
1156.000 64.000
1155.000 63.000
1153.000 66.000
1149.000 68.000
1135.000 66.000
1126.000 67.000
1117.000 65.000
1104.000 65.000
1100.000 62.000
1108.000 54.000
1110.000 54.000
1110.000 52.000
1117.000 46.000
1115.000 44.000
1100.000 56.000
1096.000 61.000
1082.000 59.000
1069.000 60.000
1067.000 57.000
1066.000 58.000
1063.000 56.000
1043.000 55.000
1038.000 53.000
1042.000 48.000
1045.000 48.000
1046.000 45.000
1051.000 41.000
1049.000 39.000
1031.000 52.000
999.000 52.000
997.000 54.000
974.000 56.000
966.000 58.000
964.000 60.000
954.000 60.000
964.000 48.000
966.000 48.000
969.000 42.000
974.000 38.000
973.000 36.000
962.000 47.000
961.000 46.000
958.000 50.000
956.000 49.000
954.000 52.000
955.000 53.000
948.000 59.000
925.000 59.000
912.000 62.000
898.000 63.000
893.000 65.000
885.000 65.000
885.000 63.000
890.000 58.000
892.000 52.000
895.000 49.000
894.000 48.000
899.000 39.000
896.000 36.000
889.000 53.000
882.000 60.000
881.000 63.000
880.000 62.000
877.000 65.000
856.000 66.000
829.000 70.000
821.000 70.000
820.000 67.000
823.000 61.000
825.000 61.000
825.000 59.000
835.000 51.000
835.000 47.000
823.000 57.000
815.000 67.000
813.000 66.000
812.000 68.000
792.000 67.000
784.000 69.000
757.000 70.000
752.000 69.000
751.000 67.000
756.000 61.000
758.000 53.000
760.000 52.000
759.000 47.000
749.000 64.000
704.000 65.000
697.000 67.000
692.000 65.000
691.000 63.000
689.000 64.000
688.000 62.000
691.000 60.000
700.000 47.000
703.000 46.000
705.000 42.000
704.000 40.000
700.000 44.000
698.000 44.000
696.000 49.000
683.000 61.000
645.000 62.000
625.000 65.000
619.000 63.000
619.000 60.000
626.000 49.000
624.000 45.000
622.000 47.000
623.000 49.000
621.000 52.000
620.000 51.000
618.000 53.000
619.000 55.000
614.000 60.000
615.000 61.000
614.000 60.000
610.000 63.000
600.000 61.000
585.000 61.000
577.000 64.000
557.000 64.000
560.000 57.000
570.000 46.000
570.000 44.000
568.000 43.000
562.000 46.000
563.000 48.000
551.000 64.000
537.000 63.000
520.000 67.000
498.000 69.000
497.000 66.000
499.000 67.000
500.000 65.000
506.000 62.000
498.000 61.000
497.000 63.000
496.000 62.000
491.000 65.000
472.000 68.000
467.000 71.000
447.000 76.000
435.000 83.000
433.000 82.000
427.000 89.000
415.000 93.000
414.000 96.000
407.000 103.000
402.000 105.000
398.000 104.000
397.000 107.000
393.000 111.000
391.000 111.000
391.000 113.000
382.000 120.000
383.000 121.000
377.000 131.000
374.000 132.000
368.000 138.000
369.000 139.000
367.000 143.000
363.000 145.000
364.000 146.000
358.000 153.000
358.000 155.000
354.000 158.000
355.000 160.000
352.000 166.000
350.000 167.000
351.000 168.000
349.000 170.000
347.000 179.000
339.000 180.000
336.000 182.000
304.000 180.000
301.000 178.000
281.000 176.000
262.000 171.000
247.000 170.000
234.000 167.000
228.000 162.000
227.000 163.000
226.000 160.000
222.000 162.000
220.000 160.000
216.000 161.000
211.000 160.000
207.000 157.000
201.000 157.000
197.000 154.000
195.000 155.000
180.000 151.000
179.000 149.000
174.000 149.000
164.000 144.000
160.000 144.000
143.000 138.000
132.000 132.000
123.000 130.000
121.000 127.000
119.000 128.000
118.000 126.000
109.000 123.000
106.000 120.000
105.000 121.000
94.000 114.000
93.000 115.000
89.000 110.000
85.000 110.000
77.000 104.000
67.000 105.000
63.000 102.000
63.000 99.000
60.000 97.000
58.000 99.000
55.000 99.000
54.000 101.000
53.000 100.000
47.000 103.000
47.000 112.000
51.000 115.000
50.000 124.000
45.000 125.000
