ply
format ascii 1.0
comment Dominant contour extracted from bimodal image.
comment scale factor = 0.597907
comment kernel width = 3
comment decimate eps = 1.000000
comment orig shape   = (669, 1973)
comment threshold    = 239.000000
comment Written with hapPLY (https://github.com/nmwsharp/happly)
element flags 0
property uchar closed
element vertex 344
property double x
property double y
end_header
46.000 300.000
51.000 307.000
54.000 307.000
56.000 311.000
60.000 311.000
75.000 303.000
84.000 300.000
99.000 291.000
132.000 279.000
141.000 278.000
178.000 268.000
183.000 268.000
186.000 266.000
221.000 262.000
228.000 268.000
235.000 278.000
243.000 282.000
243.000 286.000
247.000 291.000
250.000 292.000
257.000 300.000
261.000 301.000
266.000 307.000
279.000 317.000
287.000 321.000
306.000 323.000
311.000 321.000
312.000 318.000
302.000 318.000
306.000 315.000
314.000 315.000
332.000 323.000
341.000 323.000
346.000 330.000
358.000 335.000
365.000 336.000
371.000 340.000
371.000 335.000
370.000 336.000
362.000 332.000
365.000 329.000
383.000 337.000
390.000 336.000
397.000 339.000
424.000 338.000
437.000 342.000
450.000 342.000
456.000 345.000
469.000 344.000
469.000 342.000
457.000 341.000
469.000 337.000
478.000 342.000
501.000 346.000
511.000 352.000
519.000 354.000
521.000 353.000
520.000 351.000
509.000 348.000
505.000 345.000
506.000 343.000
515.000 343.000
528.000 348.000
540.000 349.000
561.000 364.000
563.000 364.000
564.000 362.000
554.000 354.000
557.000 351.000
570.000 352.000
582.000 357.000
602.000 362.000
614.000 361.000
617.000 358.000
616.000 356.000
612.000 359.000
602.000 358.000
601.000 357.000
603.000 355.000
611.000 352.000
627.000 354.000
642.000 360.000
653.000 359.000
658.000 355.000
665.000 355.000
670.000 358.000
695.000 358.000
705.000 361.000
715.000 359.000
725.000 354.000
725.000 352.000
721.000 352.000
714.000 355.000
714.000 353.000
716.000 352.000
725.000 352.000
727.000 354.000
732.000 354.000
760.000 346.000
781.000 346.000
791.000 351.000
797.000 352.000
797.000 350.000
787.000 345.000
784.000 345.000
780.000 342.000
782.000 340.000
792.000 338.000
813.000 339.000
821.000 337.000
861.000 337.000
870.000 346.000
870.000 341.000
860.000 333.000
863.000 330.000
870.000 328.000
886.000 328.000
895.000 332.000
904.000 331.000
907.000 333.000
932.000 336.000
943.000 339.000
944.000 338.000
942.000 336.000
933.000 333.000
928.000 333.000
925.000 330.000
932.000 324.000
938.000 322.000
947.000 324.000
963.000 324.000
977.000 319.000
992.000 319.000
1002.000 315.000
1013.000 315.000
1034.000 322.000
1037.000 320.000
1036.000 318.000
1030.000 318.000
1022.000 314.000
1016.000 313.000
1013.000 310.000
1014.000 303.000
1025.000 293.000
1029.000 287.000
1033.000 285.000
1048.000 288.000
1056.000 295.000
1062.000 303.000
1068.000 307.000
1069.000 305.000
1060.000 297.000
1055.000 289.000
1064.000 287.000
1078.000 287.000
1092.000 294.000
1101.000 294.000
1101.000 292.000
1093.000 290.000
1098.000 287.000
1104.000 286.000
1119.000 291.000
1133.000 291.000
1133.000 289.000
1120.000 287.000
1120.000 285.000
1127.000 281.000
1130.000 281.000
1131.000 283.000
1138.000 276.000
1143.000 268.000
1141.000 265.000
1137.000 272.000
1135.000 272.000
1134.000 270.000
1130.000 272.000
1126.000 270.000
1116.000 252.000
1105.000 238.000
1105.000 235.000
1107.000 235.000
1122.000 245.000
1126.000 243.000
1120.000 241.000
1110.000 233.000
1101.000 229.000
1078.000 212.000
1074.000 201.000
1075.000 198.000
1084.000 198.000
1094.000 202.000
1096.000 201.000
1095.000 199.000
1089.000 196.000
1075.000 194.000
1055.000 184.000
1049.000 183.000
1040.000 178.000
1033.000 177.000
1029.000 173.000
1028.000 175.000
1024.000 174.000
1020.000 170.000
1017.000 162.000
1025.000 167.000
1028.000 174.000
1028.000 167.000
1021.000 160.000
1008.000 155.000
999.000 147.000
987.000 141.000
982.000 132.000
984.000 130.000
993.000 135.000
1003.000 138.000
1009.000 136.000
997.000 134.000
988.000 129.000
974.000 117.000
967.000 113.000
957.000 110.000
949.000 103.000
945.000 95.000
950.000 95.000
958.000 99.000
964.000 105.000
965.000 103.000
961.000 98.000
950.000 92.000
929.000 85.000
922.000 86.000
909.000 85.000
907.000 82.000
901.000 83.000
891.000 76.000
897.000 77.000
903.000 81.000
905.000 80.000
902.000 77.000
891.000 72.000
882.000 73.000
862.000 68.000
840.000 68.000
824.000 61.000
826.000 59.000
834.000 59.000
840.000 62.000
844.000 62.000
844.000 60.000
834.000 56.000
822.000 56.000
817.000 54.000
805.000 55.000
801.000 53.000
786.000 53.000
781.000 55.000
772.000 55.000
756.000 49.000
747.000 43.000
743.000 45.000
728.000 42.000
719.000 44.000
705.000 44.000
690.000 37.000
678.000 36.000
669.000 38.000
662.000 42.000
653.000 41.000
649.000 43.000
643.000 43.000
636.000 39.000
617.000 41.000
609.000 44.000
596.000 52.000
584.000 53.000
581.000 55.000
571.000 55.000
563.000 52.000
567.000 44.000
568.000 45.000
573.000 42.000
571.000 40.000
566.000 41.000
559.000 52.000
549.000 53.000
535.000 61.000
520.000 62.000
512.000 67.000
505.000 67.000
497.000 64.000
497.000 62.000
500.000 62.000
509.000 52.000
508.000 49.000
501.000 58.000
495.000 61.000
489.000 62.000
487.000 64.000
475.000 65.000
446.000 79.000
435.000 80.000
431.000 78.000
441.000 74.000
442.000 71.000
440.000 70.000
439.000 72.000
428.000 74.000
422.000 80.000
413.000 80.000
407.000 82.000
383.000 99.000
378.000 96.000
369.000 96.000
356.000 108.000
352.000 110.000
346.000 110.000
342.000 114.000
330.000 134.000
320.000 133.000
318.000 135.000
317.000 140.000
309.000 145.000
298.000 159.000
293.000 161.000
289.000 168.000
281.000 174.000
276.000 183.000
271.000 185.000
250.000 204.000
245.000 211.000
243.000 217.000
234.000 227.000
231.000 235.000
222.000 241.000
205.000 245.000
192.000 253.000
182.000 257.000
131.000 270.000
118.000 272.000
102.000 278.000
96.000 278.000
83.000 282.000
55.000 294.000
52.000 294.000
