ply
format ascii 1.0
comment Dominant contour extracted from bimodal image.
comment scale factor = 0.413223
comment kernel width = 3
comment decimate eps = 1.000000
comment orig shape   = (968, 4385)
comment threshold    = 217.000000
comment Written with hapPLY (https://github.com/nmwsharp/happly)
element flags 0
property uchar closed
element vertex 505
property double x
property double y
end_header
12.000 273.000
13.000 280.000
15.000 282.000
21.000 283.000
63.000 279.000
158.000 282.000
220.000 277.000
242.000 274.000
258.000 270.000
267.000 274.000
276.000 282.000
279.000 292.000
283.000 299.000
306.000 319.000
312.000 323.000
315.000 323.000
320.000 329.000
332.000 334.000
341.000 341.000
362.000 349.000
396.000 350.000
396.000 348.000
376.000 348.000
374.000 344.000
382.000 344.000
389.000 347.000
401.000 348.000
404.000 350.000
415.000 352.000
429.000 351.000
434.000 353.000
459.000 356.000
459.000 354.000
455.000 354.000
444.000 350.000
442.000 348.000
443.000 345.000
459.000 342.000
476.000 341.000
492.000 336.000
498.000 336.000
507.000 341.000
508.000 339.000
497.000 332.000
495.000 325.000
517.000 326.000
523.000 329.000
537.000 342.000
538.000 340.000
526.000 328.000
526.000 326.000
536.000 327.000
571.000 336.000
579.000 335.000
587.000 342.000
593.000 359.000
594.000 354.000
592.000 347.000
588.000 339.000
583.000 334.000
595.000 332.000
603.000 336.000
606.000 335.000
643.000 339.000
651.000 344.000
653.000 343.000
643.000 334.000
657.000 332.000
666.000 335.000
686.000 334.000
695.000 336.000
714.000 334.000
715.000 333.000
711.000 331.000
702.000 332.000
701.000 331.000
709.000 329.000
722.000 334.000
731.000 332.000
734.000 334.000
746.000 336.000
763.000 336.000
768.000 338.000
772.000 337.000
763.000 332.000
776.000 332.000
786.000 335.000
794.000 333.000
799.000 336.000
817.000 338.000
826.000 341.000
837.000 341.000
845.000 346.000
847.000 345.000
835.000 336.000
859.000 337.000
879.000 342.000
895.000 342.000
907.000 350.000
909.000 349.000
894.000 339.000
898.000 338.000
911.000 339.000
915.000 337.000
918.000 340.000
936.000 340.000
963.000 346.000
969.000 349.000
972.000 348.000
968.000 345.000
961.000 343.000
961.000 341.000
984.000 342.000
988.000 339.000
996.000 344.000
1012.000 346.000
1018.000 345.000
1032.000 348.000
1041.000 347.000
1052.000 352.000
1053.000 351.000
1050.000 348.000
1044.000 345.000
1036.000 344.000
1036.000 342.000
1045.000 341.000
1053.000 337.000
1057.000 339.000
1075.000 336.000
1092.000 338.000
1115.000 330.000
1140.000 333.000
1158.000 332.000
1161.000 330.000
1160.000 329.000
1147.000 328.000
1180.000 328.000
1201.000 332.000
1221.000 329.000
1233.000 337.000
1234.000 336.000
1225.000 328.000
1217.000 327.000
1220.000 325.000
1220.000 322.000
1229.000 323.000
1236.000 321.000
1240.000 323.000
1253.000 323.000
1259.000 326.000
1278.000 327.000
1282.000 324.000
1282.000 320.000
1290.000 319.000
1293.000 317.000
1299.000 319.000
1312.000 317.000
1315.000 319.000
1326.000 319.000
1329.000 314.000
1335.000 311.000
1352.000 311.000
1363.000 309.000
1373.000 302.000
1372.000 300.000
1370.000 301.000
1371.000 300.000
1384.000 301.000
1412.000 297.000
1438.000 303.000
1438.000 301.000
1415.000 294.000
1419.000 293.000
1424.000 289.000
1428.000 291.000
1447.000 289.000
1454.000 292.000
1480.000 289.000
1480.000 287.000
1469.000 287.000
1460.000 289.000
1468.000 284.000
1470.000 286.000
1496.000 289.000
1507.000 284.000
1513.000 284.000
1516.000 286.000
1530.000 288.000
1549.000 298.000
1550.000 297.000
1533.000 286.000
1536.000 283.000
1561.000 283.000
1593.000 290.000
1593.000 288.000
1579.000 284.000
1586.000 282.000
1593.000 283.000
1610.000 290.000
1616.000 291.000
1634.000 301.000
1636.000 300.000
1634.000 298.000
1622.000 292.000
1622.000 290.000
1624.000 289.000
1631.000 289.000
1648.000 293.000
1655.000 298.000
1665.000 300.000
1670.000 303.000
1672.000 302.000
1666.000 297.000
1682.000 296.000
1689.000 299.000
1700.000 308.000
1700.000 304.000
1698.000 304.000
1696.000 301.000
1698.000 304.000
1699.000 300.000
1706.000 298.000
1713.000 298.000
1717.000 301.000
1725.000 303.000
1725.000 301.000
1719.000 299.000
1725.000 296.000
1738.000 297.000
1739.000 296.000
1737.000 295.000
1743.000 295.000
1751.000 298.000
1756.000 297.000
1759.000 295.000
1758.000 294.000
1752.000 295.000
1751.000 293.000
1764.000 278.000
1764.000 276.000
1762.000 275.000
1761.000 278.000
1752.000 281.000
1747.000 287.000
1732.000 285.000
1723.000 288.000
1702.000 287.000
1690.000 284.000
1680.000 279.000
1675.000 279.000
1669.000 274.000
1662.000 263.000
1668.000 263.000
1668.000 261.000
1656.000 258.000
1649.000 254.000
1642.000 254.000
1632.000 250.000
1623.000 249.000
1616.000 239.000
1623.000 239.000
1623.000 237.000
1600.000 231.000
1589.000 230.000
1584.000 224.000
1584.000 222.000
1588.000 221.000
1586.000 219.000
1571.000 216.000
1568.000 221.000
1560.000 218.000
1547.000 206.000
1563.000 205.000
1563.000 203.000
1549.000 204.000
1533.000 200.000
1524.000 196.000
1515.000 196.000
1510.000 191.000
1510.000 189.000
1521.000 190.000
1521.000 188.000
1517.000 188.000
1500.000 181.000
1493.000 181.000
1472.000 175.000
1470.000 171.000
1479.000 168.000
1486.000 163.000
1485.000 162.000
1468.000 169.000
1454.000 167.000
1450.000 165.000
1442.000 165.000
1434.000 162.000
1431.000 163.000
1429.000 157.000
1446.000 154.000
1446.000 152.000
1428.000 154.000
1419.000 151.000
1407.000 151.000
1401.000 147.000
1394.000 146.000
1385.000 142.000
1383.000 140.000
1393.000 141.000
1394.000 140.000
1391.000 138.000
1376.000 136.000
1369.000 133.000
1348.000 131.000
1336.000 125.000
1340.000 122.000
1354.000 122.000
1355.000 121.000
1352.000 119.000
1337.000 120.000
1329.000 117.000
1320.000 117.000
1304.000 111.000
1289.000 110.000
1286.000 106.000
1303.000 98.000
1313.000 96.000
1313.000 94.000
1308.000 94.000
1287.000 102.000
1253.000 103.000
1250.000 101.000
1249.000 98.000
1240.000 98.000
1237.000 96.000
1233.000 97.000
1225.000 93.000
1243.000 88.000
1243.000 86.000
1222.000 90.000
1195.000 88.000
1188.000 89.000
1186.000 87.000
1184.000 88.000
1184.000 86.000
1174.000 87.000
1164.000 84.000
1153.000 87.000
1131.000 87.000
1127.000 84.000
1114.000 84.000
1110.000 81.000
1116.000 84.000
1130.000 83.000
1118.000 82.000
1105.000 75.000
1087.000 75.000
1082.000 73.000
1078.000 74.000
1070.000 71.000
1065.000 71.000
1060.000 68.000
1053.000 69.000
1046.000 64.000
1047.000 61.000
1063.000 60.000
1069.000 58.000
1069.000 56.000
1061.000 58.000
1041.000 58.000
1036.000 56.000
1013.000 58.000
1008.000 55.000
1005.000 56.000
988.000 50.000
993.000 48.000
1009.000 50.000
1010.000 49.000
1007.000 47.000
986.000 47.000
971.000 44.000
955.000 45.000
944.000 40.000
932.000 40.000
931.000 39.000
949.000 38.000
949.000 35.000
920.000 35.000
913.000 36.000
910.000 38.000
901.000 34.000
877.000 31.000
877.000 29.000
888.000 31.000
895.000 30.000
873.000 25.000
856.000 25.000
847.000 23.000
842.000 25.000
829.000 23.000
823.000 24.000
818.000 22.000
819.000 18.000
835.000 11.000
835.000 9.000
829.000 10.000
817.000 16.000
793.000 22.000
784.000 27.000
782.000 27.000
779.000 23.000
765.000 23.000
760.000 25.000
747.000 23.000
750.000 20.000
768.000 13.000
765.000 12.000
754.000 17.000
738.000 19.000
735.000 21.000
719.000 22.000
717.000 24.000
701.000 24.000
697.000 26.000
685.000 26.000
679.000 28.000
687.000 24.000
699.000 22.000
699.000 20.000
694.000 20.000
679.000 24.000
670.000 24.000
659.000 28.000
648.000 28.000
636.000 32.000
623.000 33.000
629.000 31.000
638.000 31.000
638.000 29.000
627.000 29.000
617.000 33.000
608.000 33.000
598.000 36.000
588.000 36.000
579.000 39.000
576.000 38.000
592.000 34.000
592.000 32.000
577.000 35.000
563.000 34.000
558.000 36.000
533.000 37.000
527.000 35.000
527.000 28.000
540.000 14.000
538.000 13.000
528.000 24.000
497.000 41.000
495.000 40.000
484.000 47.000
479.000 47.000
472.000 51.000
462.000 53.000
451.000 58.000
444.000 58.000
442.000 53.000
443.000 46.000
451.000 33.000
450.000 31.000
437.000 49.000
423.000 56.000
400.000 74.000
397.000 74.000
395.000 77.000
392.000 77.000
389.000 80.000
382.000 83.000
377.000 88.000
365.000 94.000
362.000 94.000
361.000 92.000
361.000 86.000
366.000 65.000
364.000 65.000
361.000 79.000
357.000 87.000
346.000 96.000
338.000 106.000
329.000 122.000
321.000 127.000
309.000 141.000
295.000 164.000
295.000 170.000
291.000 179.000
291.000 184.000
288.000 187.000
285.000 196.000
285.000 242.000
279.000 255.000
263.000 261.000
237.000 267.000
178.000 274.000
112.000 274.000
79.000 270.000
30.000 267.000
15.000 263.000
14.000 272.000
