ply
format ascii 1.0
comment Dominant contour extracted from bimodal image.
comment scale factor = 0.443951
comment kernel width = 3
comment decimate eps = 1.000000
comment orig shape   = (901, 3936)
comment threshold    = 244.000000
comment Written with hapPLY (https://github.com/nmwsharp/happly)
element flags 0
property uchar closed
element vertex 472
property double x
property double y
end_header
32.000 289.000
36.000 295.000
41.000 293.000
43.000 294.000
50.000 290.000
70.000 269.000
83.000 258.000
84.000 259.000
93.000 250.000
148.000 216.000
163.000 211.000
167.000 211.000
187.000 202.000
200.000 199.000
209.000 199.000
214.000 227.000
217.000 230.000
217.000 233.000
221.000 239.000
226.000 252.000
248.000 286.000
255.000 292.000
256.000 295.000
257.000 294.000
266.000 303.000
270.000 304.000
275.000 310.000
283.000 314.000
291.000 321.000
304.000 327.000
324.000 341.000
328.000 347.000
331.000 360.000
333.000 359.000
332.000 349.000
328.000 340.000
332.000 336.000
337.000 336.000
342.000 338.000
352.000 338.000
359.000 341.000
381.000 346.000
404.000 347.000
409.000 355.000
410.000 364.000
412.000 367.000
412.000 356.000
408.000 348.000
408.000 344.000
411.000 342.000
422.000 346.000
432.000 347.000
454.000 353.000
478.000 353.000
481.000 356.000
484.000 366.000
488.000 372.000
490.000 371.000
487.000 367.000
482.000 352.000
485.000 349.000
501.000 350.000
513.000 354.000
547.000 355.000
549.000 356.000
553.000 365.000
553.000 355.000
555.000 353.000
576.000 354.000
606.000 361.000
623.000 362.000
628.000 366.000
632.000 373.000
633.000 369.000
629.000 363.000
631.000 359.000
656.000 360.000
686.000 366.000
707.000 365.000
712.000 373.000
712.000 378.000
716.000 389.000
717.000 384.000
711.000 363.000
713.000 361.000
721.000 359.000
727.000 361.000
751.000 363.000
765.000 366.000
780.000 366.000
785.000 372.000
788.000 384.000
790.000 386.000
792.000 385.000
790.000 382.000
788.000 371.000
785.000 366.000
788.000 364.000
823.000 363.000
828.000 365.000
839.000 366.000
856.000 364.000
869.000 374.000
870.000 373.000
859.000 362.000
866.000 360.000
882.000 362.000
903.000 361.000
927.000 364.000
943.000 364.000
955.000 362.000
972.000 377.000
973.000 375.000
961.000 362.000
961.000 360.000
1012.000 351.000
1032.000 346.000
1052.000 362.000
1053.000 360.000
1034.000 343.000
1045.000 338.000
1074.000 334.000
1083.000 331.000
1096.000 331.000
1106.000 329.000
1125.000 339.000
1126.000 337.000
1122.000 333.000
1109.000 326.000
1157.000 318.000
1164.000 318.000
1173.000 314.000
1177.000 314.000
1184.000 319.000
1185.000 318.000
1190.000 321.000
1191.000 319.000
1188.000 316.000
1187.000 317.000
1181.000 312.000
1179.000 312.000
1179.000 310.000
1203.000 306.000
1217.000 301.000
1232.000 298.000
1235.000 296.000
1244.000 297.000
1249.000 299.000
1250.000 301.000
1251.000 300.000
1260.000 304.000
1261.000 303.000
1256.000 299.000
1241.000 293.000
1262.000 287.000
1274.000 286.000
1296.000 277.000
1299.000 277.000
1316.000 287.000
1317.000 286.000
1301.000 274.000
1302.000 275.000
1307.000 270.000
1321.000 266.000
1322.000 267.000
1329.000 263.000
1341.000 262.000
1346.000 259.000
1354.000 262.000
1363.000 269.000
1364.000 267.000
1361.000 265.000
1362.000 264.000
1350.000 257.000
1350.000 255.000
1365.000 250.000
1367.000 248.000
1375.000 247.000
1389.000 241.000
1395.000 236.000
1412.000 242.000
1416.000 241.000
1397.000 233.000
1400.000 229.000
1432.000 223.000
1439.000 220.000
1442.000 224.000
1443.000 223.000
1455.000 233.000
1456.000 231.000
1441.000 217.000
1453.000 210.000
1475.000 204.000
1479.000 204.000
1492.000 211.000
1493.000 210.000
1481.000 202.000
1483.000 200.000
1495.000 196.000
1505.000 195.000
1513.000 191.000
1534.000 203.000
1534.000 200.000
1519.000 190.000
1531.000 184.000
1557.000 183.000
1575.000 194.000
1576.000 193.000
1563.000 183.000
1562.000 181.000
1581.000 175.000
1595.000 174.000
1608.000 183.000
1614.000 185.000
1615.000 184.000
1601.000 172.000
1608.000 171.000
1616.000 167.000
1635.000 167.000
1643.000 162.000
1646.000 164.000
1667.000 164.000
1676.000 168.000
1684.000 174.000
1685.000 172.000
1676.000 165.000
1680.000 163.000
1696.000 165.000
1700.000 174.000
1701.000 166.000
1707.000 166.000
1727.000 173.000
1735.000 172.000
1732.000 170.000
1731.000 171.000
1725.000 169.000
1710.000 154.000
1714.000 153.000
1714.000 151.000
1698.000 150.000
1691.000 145.000
1683.000 143.000
1681.000 141.000
1690.000 136.000
1690.000 134.000
1687.000 134.000
1680.000 138.000
1674.000 138.000
1668.000 136.000
1651.000 135.000
1645.000 131.000
1640.000 130.000
1641.000 128.000
1651.000 124.000
1653.000 122.000
1652.000 121.000
1641.000 124.000
1637.000 127.000
1614.000 123.000
1603.000 123.000
1614.000 113.000
1612.000 112.000
1600.000 121.000
1587.000 121.000
1582.000 123.000
1572.000 122.000
1563.000 118.000
1580.000 111.000
1580.000 108.000
1576.000 110.000
1572.000 109.000
1570.000 112.000
1560.000 116.000
1532.000 115.000
1528.000 113.000
1526.000 114.000
1519.000 110.000
1531.000 107.000
1537.000 104.000
1537.000 102.000
1519.000 107.000
1505.000 105.000
1481.000 105.000
1474.000 100.000
1481.000 95.000
1489.000 92.000
1489.000 90.000
1483.000 91.000
1470.000 98.000
1443.000 96.000
1449.000 96.000
1452.000 94.000
1451.000 93.000
1437.000 93.000
1423.000 90.000
1387.000 90.000
1385.000 86.000
1390.000 82.000
1389.000 80.000
1393.000 75.000
1393.000 72.000
1386.000 80.000
1384.000 80.000
1382.000 84.000
1373.000 83.000
1372.000 81.000
1367.000 83.000
1359.000 82.000
1346.000 76.000
1358.000 67.000
1358.000 65.000
1352.000 68.000
1351.000 67.000
1347.000 71.000
1340.000 74.000
1334.000 72.000
1292.000 68.000
1291.000 67.000
1293.000 65.000
1308.000 57.000
1310.000 55.000
1309.000 54.000
1289.000 64.000
1252.000 62.000
1250.000 63.000
1236.000 60.000
1232.000 57.000
1246.000 43.000
1245.000 41.000
1235.000 51.000
1228.000 54.000
1217.000 51.000
1173.000 49.000
1172.000 48.000
1186.000 36.000
1185.000 33.000
1181.000 38.000
1176.000 40.000
1174.000 43.000
1167.000 47.000
1132.000 46.000
1107.000 40.000
1119.000 22.000
1119.000 18.000
1111.000 26.000
1112.000 27.000
1103.000 38.000
1064.000 37.000
1048.000 35.000
1044.000 33.000
1059.000 16.000
1058.000 14.000
1044.000 28.000
1039.000 31.000
991.000 33.000
972.000 31.000
970.000 28.000
967.000 28.000
977.000 16.000
976.000 14.000
964.000 26.000
960.000 27.000
958.000 26.000
930.000 29.000
892.000 28.000
887.000 26.000
887.000 23.000
894.000 6.000
893.000 2.000
886.000 19.000
881.000 24.000
863.000 23.000
841.000 26.000
806.000 26.000
805.000 23.000
809.000 15.000
813.000 11.000
812.000 10.000
816.000 6.000
814.000 4.000
801.000 21.000
790.000 21.000
785.000 23.000
749.000 26.000
734.000 30.000
732.000 28.000
732.000 22.000
726.000 21.000
712.000 27.000
694.000 27.000
678.000 32.000
667.000 32.000
647.000 37.000
636.000 37.000
634.000 36.000
634.000 33.000
637.000 28.000
640.000 16.000
638.000 14.000
636.000 24.000
628.000 35.000
619.000 35.000
598.000 39.000
570.000 40.000
560.000 38.000
558.000 36.000
558.000 28.000
555.000 35.000
521.000 34.000
497.000 39.000
482.000 40.000
480.000 39.000
482.000 24.000
481.000 17.000
479.000 20.000
478.000 33.000
476.000 37.000
455.000 37.000
441.000 39.000
433.000 42.000
423.000 41.000
422.000 43.000
427.000 46.000
426.000 48.000
422.000 49.000
419.000 54.000
417.000 54.000
416.000 49.000
414.000 49.000
411.000 45.000
408.000 45.000
412.000 32.000
411.000 29.000
408.000 38.000
404.000 43.000
395.000 41.000
381.000 41.000
338.000 51.000
332.000 51.000
335.000 44.000
335.000 39.000
332.000 35.000
331.000 37.000
333.000 43.000
329.000 49.000
320.000 49.000
308.000 52.000
302.000 56.000
291.000 59.000
281.000 65.000
278.000 64.000
261.000 72.000
258.000 75.000
258.000 77.000
251.000 80.000
217.000 121.000
208.000 145.000
208.000 156.000
205.000 166.000
205.000 177.000
200.000 187.000
188.000 193.000
178.000 194.000
153.000 203.000
129.000 214.000
108.000 226.000
83.000 243.000
66.000 252.000
59.000 260.000
49.000 268.000
39.000 280.000
34.000 283.000
