ply
format ascii 1.0
comment Dominant contour extracted from bimodal image.
comment scale factor = 0.416233
comment kernel width = 3
comment decimate eps = 1.000000
comment orig shape   = (961, 3193)
comment threshold    = 207.000000
comment Written with hapPLY (https://github.com/nmwsharp/happly)
element flags 0
property uchar closed
element vertex 391
property double x
property double y
end_header
1309.000 370.000
1307.000 367.000
1296.000 362.000
1299.000 362.000
1299.000 360.000
1288.000 360.000
1276.000 354.000
1287.000 355.000
1287.000 353.000
1279.000 351.000
1265.000 352.000
1257.000 344.000
1255.000 337.000
1259.000 339.000
1260.000 338.000
1258.000 336.000
1250.000 334.000
1235.000 323.000
1234.000 320.000
1243.000 325.000
1244.000 324.000
1241.000 321.000
1230.000 316.000
1222.000 315.000
1219.000 313.000
1218.000 314.000
1208.000 301.000
1170.000 275.000
1169.000 271.000
1176.000 273.000
1176.000 271.000
1163.000 266.000
1153.000 260.000
1135.000 254.000
1131.000 248.000
1130.000 249.000
1126.000 246.000
1127.000 245.000
1130.000 249.000
1131.000 248.000
1127.000 241.000
1119.000 238.000
1106.000 230.000
1093.000 220.000
1098.000 220.000
1100.000 218.000
1099.000 217.000
1083.000 216.000
1081.000 214.000
1059.000 209.000
1056.000 206.000
1050.000 205.000
1045.000 201.000
1040.000 200.000
1015.000 184.000
1011.000 184.000
1008.000 181.000
995.000 175.000
992.000 176.000
988.000 170.000
978.000 161.000
966.000 156.000
963.000 150.000
966.000 153.000
968.000 152.000
962.000 145.000
956.000 144.000
947.000 135.000
920.000 121.000
914.000 120.000
909.000 117.000
909.000 115.000
920.000 111.000
920.000 109.000
904.000 114.000
895.000 107.000
871.000 95.000
859.000 93.000
851.000 86.000
857.000 84.000
857.000 82.000
844.000 83.000
832.000 77.000
802.000 70.000
789.000 64.000
804.000 59.000
804.000 57.000
784.000 61.000
771.000 56.000
731.000 46.000
751.000 46.000
751.000 44.000
739.000 42.000
725.000 43.000
721.000 41.000
700.000 41.000
695.000 39.000
668.000 37.000
663.000 35.000
682.000 30.000
682.000 28.000
668.000 30.000
661.000 33.000
647.000 31.000
593.000 31.000
601.000 21.000
612.000 13.000
611.000 12.000
601.000 18.000
586.000 32.000
565.000 29.000
549.000 30.000
524.000 25.000
524.000 21.000
540.000 14.000
540.000 11.000
520.000 20.000
477.000 19.000
454.000 23.000
449.000 22.000
463.000 14.000
460.000 13.000
446.000 20.000
406.000 20.000
398.000 22.000
394.000 26.000
374.000 26.000
364.000 28.000
362.000 26.000
362.000 15.000
369.000 5.000
368.000 2.000
360.000 14.000
359.000 25.000
343.000 33.000
337.000 32.000
335.000 34.000
319.000 34.000
302.000 40.000
301.000 38.000
297.000 37.000
287.000 18.000
286.000 21.000
293.000 35.000
293.000 38.000
275.000 41.000
266.000 45.000
263.000 48.000
259.000 46.000
252.000 47.000
252.000 43.000
265.000 31.000
263.000 30.000
252.000 39.000
244.000 48.000
234.000 48.000
218.000 52.000
200.000 63.000
195.000 65.000
197.000 63.000
195.000 62.000
187.000 69.000
179.000 70.000
171.000 74.000
151.000 88.000
146.000 88.000
147.000 73.000
145.000 70.000
145.000 82.000
142.000 88.000
135.000 95.000
131.000 95.000
124.000 100.000
102.000 121.000
96.000 131.000
96.000 135.000
94.000 135.000
91.000 138.000
91.000 141.000
80.000 164.000
79.000 186.000
85.000 216.000
85.000 224.000
81.000 224.000
81.000 229.000
78.000 233.000
64.000 239.000
57.000 238.000
56.000 239.000
59.000 241.000
46.000 245.000
42.000 249.000
35.000 250.000
39.000 251.000
38.000 252.000
40.000 254.000
38.000 261.000
42.000 261.000
39.000 263.000
42.000 264.000
70.000 252.000
76.000 248.000
82.000 247.000
85.000 254.000
85.000 263.000
92.000 279.000
97.000 286.000
106.000 293.000
108.000 298.000
124.000 312.000
130.000 312.000
134.000 317.000
141.000 320.000
144.000 323.000
152.000 327.000
157.000 327.000
177.000 333.000
181.000 336.000
185.000 347.000
186.000 340.000
182.000 332.000
183.000 324.000
186.000 322.000
190.000 322.000
195.000 325.000
207.000 324.000
213.000 328.000
222.000 329.000
225.000 331.000
240.000 330.000
248.000 336.000
249.000 340.000
250.000 335.000
246.000 330.000
250.000 328.000
271.000 328.000
278.000 330.000
289.000 329.000
297.000 326.000
305.000 328.000
306.000 326.000
302.000 323.000
309.000 321.000
322.000 321.000
327.000 323.000
350.000 322.000
354.000 323.000
357.000 333.000
358.000 325.000
355.000 318.000
365.000 316.000
378.000 318.000
388.000 317.000
397.000 320.000
410.000 320.000
418.000 324.000
420.000 323.000
415.000 320.000
415.000 318.000
420.000 318.000
429.000 321.000
431.000 320.000
438.000 323.000
450.000 325.000
464.000 324.000
476.000 332.000
477.000 331.000
467.000 322.000
478.000 322.000
487.000 325.000
501.000 323.000
506.000 325.000
514.000 325.000
520.000 323.000
511.000 322.000
521.000 321.000
524.000 319.000
527.000 321.000
532.000 320.000
540.000 322.000
553.000 319.000
562.000 323.000
563.000 322.000
560.000 320.000
574.000 316.000
580.000 316.000
587.000 319.000
596.000 319.000
601.000 321.000
613.000 320.000
622.000 328.000
623.000 326.000
617.000 319.000
620.000 317.000
633.000 315.000
656.000 318.000
661.000 316.000
680.000 317.000
681.000 316.000
677.000 314.000
683.000 312.000
701.000 311.000
703.000 313.000
714.000 311.000
731.000 319.000
731.000 317.000
726.000 315.000
722.000 311.000
725.000 309.000
728.000 310.000
737.000 308.000
743.000 311.000
763.000 312.000
774.000 310.000
777.000 312.000
778.000 310.000
776.000 308.000
786.000 306.000
792.000 308.000
804.000 308.000
808.000 310.000
822.000 308.000
828.000 312.000
829.000 311.000
825.000 305.000
836.000 302.000
839.000 304.000
845.000 304.000
861.000 308.000
869.000 307.000
874.000 311.000
876.000 310.000
871.000 305.000
872.000 304.000
885.000 304.000
900.000 309.000
914.000 308.000
922.000 313.000
923.000 312.000
917.000 307.000
922.000 304.000
933.000 305.000
938.000 307.000
953.000 305.000
957.000 306.000
962.000 310.000
963.000 308.000
958.000 304.000
963.000 302.000
994.000 302.000
999.000 304.000
1020.000 304.000
1020.000 302.000
1010.000 301.000
1024.000 301.000
1031.000 303.000
1040.000 303.000
1046.000 306.000
1047.000 305.000
1044.000 303.000
1049.000 301.000
1051.000 303.000
1071.000 303.000
1086.000 309.000
1096.000 308.000
1104.000 312.000
1107.000 312.000
1120.000 320.000
1125.000 319.000
1118.000 316.000
1127.000 314.000
1160.000 327.000
1174.000 326.000
1177.000 329.000
1183.000 329.000
1187.000 334.000
1190.000 335.000
1208.000 334.000
1217.000 336.000
1232.000 343.000
1239.000 349.000
1252.000 355.000
1256.000 355.000
1264.000 359.000
1267.000 359.000
1279.000 365.000
1285.000 372.000
1287.000 371.000
1286.000 369.000
1297.000 369.000
1306.000 372.000
