ply
format ascii 1.0
comment Dominant contour extracted from bimodal image.
comment scale factor = 0.586510
comment kernel width = 3
comment decimate eps = 1.000000
comment orig shape   = (682, 3191)
comment threshold    = 242.000000
comment Written with hapPLY (https://github.com/nmwsharp/happly)
element flags 0
property uchar closed
element vertex 608
property double x
property double y
end_header
24.000 279.000
26.000 284.000
25.000 286.000
29.000 289.000
30.000 292.000
35.000 291.000
41.000 286.000
48.000 284.000
72.000 272.000
84.000 271.000
94.000 289.000
105.000 299.000
107.000 304.000
118.000 316.000
132.000 325.000
136.000 325.000
142.000 329.000
147.000 330.000
162.000 339.000
179.000 344.000
198.000 356.000
205.000 358.000
213.000 368.000
214.000 365.000
210.000 359.000
204.000 354.000
206.000 352.000
224.000 355.000
232.000 355.000
240.000 359.000
252.000 361.000
266.000 366.000
278.000 366.000
288.000 374.000
293.000 374.000
295.000 371.000
293.000 370.000
289.000 372.000
281.000 362.000
286.000 361.000
297.000 362.000
296.000 364.000
298.000 366.000
299.000 363.000
313.000 363.000
320.000 365.000
324.000 364.000
333.000 367.000
343.000 367.000
352.000 365.000
367.000 377.000
369.000 376.000
359.000 366.000
359.000 363.000
401.000 362.000
414.000 357.000
426.000 366.000
427.000 364.000
418.000 355.000
424.000 353.000
437.000 356.000
449.000 355.000
467.000 358.000
482.000 357.000
486.000 355.000
496.000 362.000
501.000 362.000
508.000 360.000
511.000 357.000
510.000 356.000
504.000 359.000
497.000 359.000
490.000 352.000
503.000 346.000
526.000 347.000
531.000 345.000
558.000 345.000
573.000 360.000
576.000 369.000
578.000 367.000
575.000 358.000
568.000 352.000
562.000 343.000
562.000 340.000
574.000 340.000
581.000 338.000
605.000 338.000
608.000 340.000
622.000 343.000
632.000 342.000
640.000 348.000
652.000 366.000
654.000 364.000
644.000 348.000
639.000 343.000
638.000 340.000
640.000 339.000
667.000 339.000
677.000 342.000
681.000 345.000
692.000 346.000
701.000 349.000
718.000 349.000
735.000 361.000
736.000 359.000
724.000 348.000
725.000 346.000
741.000 344.000
761.000 345.000
768.000 343.000
777.000 343.000
784.000 340.000
790.000 340.000
796.000 344.000
810.000 359.000
813.000 358.000
809.000 355.000
806.000 350.000
793.000 338.000
794.000 336.000
805.000 334.000
840.000 337.000
851.000 336.000
863.000 340.000
873.000 347.000
874.000 346.000
870.000 342.000
858.000 335.000
885.000 331.000
895.000 335.000
902.000 335.000
911.000 339.000
917.000 338.000
921.000 340.000
922.000 338.000
930.000 343.000
934.000 348.000
937.000 346.000
928.000 337.000
934.000 335.000
948.000 336.000
951.000 338.000
979.000 338.000
984.000 340.000
1006.000 340.000
1025.000 351.000
1031.000 350.000
1021.000 346.000
1010.000 338.000
1015.000 336.000
1026.000 338.000
1041.000 337.000
1049.000 339.000
1067.000 338.000
1080.000 353.000
1085.000 349.000
1094.000 348.000
1091.000 346.000
1079.000 348.000
1070.000 336.000
1070.000 334.000
1100.000 332.000
1110.000 335.000
1132.000 335.000
1141.000 347.000
1148.000 350.000
1149.000 349.000
1140.000 341.000
1136.000 333.000
1146.000 328.000
1153.000 328.000
1157.000 330.000
1199.000 333.000
1206.000 337.000
1223.000 352.000
1224.000 350.000
1201.000 330.000
1211.000 326.000
1217.000 326.000
1221.000 328.000
1260.000 325.000
1281.000 343.000
1288.000 345.000
1289.000 344.000
1275.000 334.000
1266.000 325.000
1266.000 323.000
1271.000 321.000
1284.000 319.000
1305.000 319.000
1310.000 321.000
1316.000 321.000
1328.000 329.000
1336.000 337.000
1341.000 338.000
1342.000 337.000
1331.000 329.000
1321.000 319.000
1322.000 316.000
1329.000 313.000
1358.000 313.000
1369.000 316.000
1385.000 325.000
1388.000 325.000
1388.000 323.000
1379.000 319.000
1374.000 314.000
1373.000 315.000
1369.000 312.000
1380.000 308.000
1408.000 308.000
1423.000 315.000
1429.000 315.000
1435.000 312.000
1435.000 310.000
1422.000 311.000
1412.000 305.000
1435.000 298.000
1454.000 297.000
1466.000 302.000
1476.000 311.000
1483.000 312.000
1486.000 310.000
1485.000 309.000
1478.000 308.000
1468.000 299.000
1464.000 298.000
1462.000 295.000
1468.000 292.000
1485.000 291.000
1494.000 293.000
1504.000 293.000
1520.000 300.000
1530.000 302.000
1530.000 299.000
1526.000 299.000
1512.000 292.000
1518.000 289.000
1535.000 287.000
1551.000 288.000
1556.000 293.000
1557.000 290.000
1555.000 286.000
1558.000 284.000
1588.000 285.000
1598.000 289.000
1616.000 290.000
1624.000 292.000
1631.000 296.000
1633.000 296.000
1633.000 294.000
1618.000 287.000
1621.000 283.000
1626.000 284.000
1636.000 289.000
1644.000 291.000
1661.000 307.000
1663.000 304.000
1658.000 301.000
1651.000 292.000
1667.000 292.000
1672.000 294.000
1679.000 294.000
1694.000 301.000
1709.000 303.000
1709.000 301.000
1698.000 299.000
1692.000 296.000
1719.000 297.000
1724.000 299.000
1732.000 308.000
1742.000 307.000
1740.000 305.000
1732.000 305.000
1728.000 298.000
1741.000 298.000
1747.000 296.000
1751.000 297.000
1754.000 295.000
1762.000 295.000
1772.000 299.000
1780.000 308.000
1786.000 312.000
1792.000 312.000
1795.000 316.000
1794.000 320.000
1796.000 322.000
1804.000 324.000
1806.000 323.000
1806.000 320.000
1800.000 317.000
1799.000 311.000
1792.000 305.000
1792.000 303.000
1786.000 295.000
1782.000 292.000
1777.000 282.000
1775.000 282.000
1773.000 279.000
1760.000 279.000
1751.000 276.000
1761.000 271.000
1765.000 273.000
1766.000 272.000
1763.000 269.000
1756.000 269.000
1742.000 275.000
1736.000 275.000
1730.000 272.000
1723.000 271.000
1714.000 265.000
1722.000 263.000
1733.000 264.000
1735.000 262.000
1734.000 261.000
1726.000 260.000
1702.000 262.000
1686.000 258.000
1677.000 250.000
1689.000 248.000
1690.000 247.000
1688.000 245.000
1666.000 248.000
1660.000 245.000
1653.000 244.000
1641.000 236.000
1667.000 237.000
1667.000 235.000
1644.000 234.000
1629.000 231.000
1622.000 227.000
1616.000 227.000
1605.000 224.000
1595.000 216.000
1603.000 214.000
1606.000 212.000
1605.000 211.000
1582.000 212.000
1578.000 210.000
1554.000 207.000
1541.000 198.000
1548.000 194.000
1558.000 191.000
1571.000 194.000
1572.000 192.000
1570.000 190.000
1554.000 189.000
1541.000 194.000
1534.000 194.000
1524.000 190.000
1502.000 187.000
1498.000 182.000
1510.000 179.000
1516.000 188.000
1518.000 189.000
1520.000 187.000
1517.000 186.000
1514.000 179.000
1511.000 176.000
1492.000 180.000
1487.000 177.000
1479.000 175.000
1465.000 175.000
1460.000 173.000
1459.000 171.000
1468.000 169.000
1479.000 163.000
1484.000 162.000
1486.000 160.000
1485.000 159.000
1482.000 159.000
1467.000 167.000
1457.000 168.000
1421.000 164.000
1404.000 155.000
1410.000 150.000
1415.000 149.000
1424.000 143.000
1429.000 143.000
1430.000 141.000
1428.000 140.000
1431.000 137.000
1430.000 136.000
1418.000 145.000
1412.000 146.000
1400.000 152.000
1390.000 149.000
1373.000 147.000
1368.000 136.000
1349.000 138.000
1341.000 134.000
1325.000 132.000
1313.000 126.000
1331.000 117.000
1335.000 112.000
1334.000 110.000
1329.000 115.000
1309.000 124.000
1297.000 120.000
1287.000 120.000
1279.000 118.000
1274.000 115.000
1283.000 111.000
1288.000 106.000
1287.000 104.000
1284.000 107.000
1273.000 112.000
1268.000 112.000
1259.000 109.000
1229.000 106.000
1217.000 102.000
1215.000 99.000
1219.000 96.000
1223.000 88.000
1238.000 88.000
1239.000 87.000
1236.000 85.000
1222.000 85.000
1219.000 91.000
1214.000 96.000
1206.000 96.000
1199.000 92.000
1194.000 92.000
1188.000 89.000
1182.000 89.000
1173.000 85.000
1150.000 79.000
1161.000 72.000
1166.000 72.000
1177.000 77.000
1178.000 74.000
1171.000 71.000
1160.000 70.000
1149.000 75.000
1142.000 75.000
1134.000 71.000
1117.000 70.000
1112.000 68.000
1097.000 68.000
1085.000 65.000
1080.000 62.000
1092.000 55.000
1101.000 56.000
1104.000 58.000
1105.000 61.000
1107.000 59.000
1105.000 55.000
1097.000 52.000
1093.000 52.000
1073.000 61.000
1046.000 57.000
1036.000 58.000
1030.000 56.000
1011.000 56.000
999.000 53.000
986.000 52.000
984.000 51.000
986.000 48.000
994.000 43.000
1004.000 40.000
1013.000 33.000
1011.000 31.000
1004.000 37.000
991.000 41.000
979.000 47.000
969.000 44.000
937.000 44.000
917.000 46.000
901.000 45.000
896.000 43.000
908.000 29.000
913.000 19.000
912.000 18.000
909.000 20.000
905.000 29.000
898.000 37.000
893.000 40.000
866.000 39.000
861.000 41.000
848.000 40.000
844.000 42.000
838.000 42.000
824.000 39.000
830.000 31.000
843.000 22.000
840.000 21.000
834.000 24.000
823.000 34.000
816.000 38.000
805.000 36.000
782.000 40.000
757.000 41.000
749.000 38.000
753.000 30.000
771.000 30.000
770.000 28.000
759.000 26.000
753.000 27.000
745.000 36.000
740.000 38.000
693.000 38.000
680.000 35.000
684.000 26.000
685.000 16.000
687.000 15.000
690.000 18.000
687.000 24.000
688.000 26.000
693.000 20.000
690.000 14.000
685.000 13.000
681.000 17.000
681.000 23.000
677.000 32.000
672.000 35.000
653.000 34.000
626.000 39.000
597.000 38.000
607.000 28.000
610.000 28.000
617.000 22.000
616.000 19.000
614.000 22.000
607.000 25.000
590.000 38.000
563.000 39.000
547.000 44.000
522.000 46.000
511.000 50.000
497.000 49.000
523.000 37.000
525.000 35.000
524.000 32.000
509.000 42.000
498.000 44.000
492.000 47.000
477.000 45.000
461.000 46.000
447.000 51.000
429.000 52.000
415.000 58.000
406.000 58.000
406.000 45.000
399.000 39.000
398.000 36.000
396.000 36.000
396.000 40.000
400.000 42.000
404.000 48.000
400.000 56.000
377.000 55.000
363.000 59.000
361.000 61.000
348.000 63.000
343.000 66.000
337.000 65.000
326.000 69.000
321.000 68.000
326.000 63.000
325.000 61.000
317.000 67.000
306.000 72.000
292.000 71.000
286.000 73.000
277.000 73.000
266.000 78.000
258.000 79.000
249.000 84.000
241.000 85.000
235.000 88.000
246.000 81.000
249.000 77.000
248.000 71.000
246.000 77.000
243.000 80.000
233.000 85.000
226.000 86.000
218.000 90.000
214.000 90.000
192.000 102.000
185.000 103.000
176.000 110.000
161.000 117.000
155.000 123.000
154.000 126.000
148.000 130.000
143.000 131.000
134.000 139.000
135.000 140.000
132.000 143.000
122.000 143.000
119.000 146.000
112.000 168.000
109.000 171.000
104.000 182.000
99.000 199.000
99.000 205.000
96.000 209.000
96.000 220.000
98.000 225.000
95.000 245.000
82.000 248.000
74.000 246.000
72.000 250.000
72.000 255.000
57.000 261.000
52.000 265.000
35.000 272.000
