ply
format ascii 1.0
comment Dominant contour extracted from bimodal image.
comment scale factor = 0.534045
comment kernel width = 3
comment decimate eps = 1.000000
comment orig shape   = (749, 4031)
comment threshold    = 214.000000
comment Written with hapPLY (https://github.com/nmwsharp/happly)
element flags 0
property uchar closed
element vertex 546
property double x
property double y
end_header
46.000 78.000
48.000 80.000
46.000 81.000
48.000 83.000
47.000 86.000
51.000 90.000
56.000 90.000
65.000 95.000
76.000 97.000
81.000 100.000
130.000 115.000
149.000 124.000
182.000 136.000
242.000 151.000
288.000 166.000
342.000 179.000
348.000 182.000
350.000 185.000
352.000 217.000
357.000 237.000
362.000 250.000
370.000 264.000
371.000 269.000
379.000 281.000
381.000 288.000
386.000 295.000
411.000 318.000
421.000 322.000
426.000 327.000
442.000 335.000
447.000 340.000
448.000 364.000
450.000 354.000
450.000 340.000
446.000 334.000
444.000 326.000
454.000 326.000
470.000 332.000
479.000 332.000
485.000 338.000
492.000 342.000
517.000 351.000
527.000 360.000
527.000 370.000
530.000 363.000
528.000 357.000
521.000 349.000
521.000 345.000
523.000 343.000
526.000 343.000
534.000 348.000
544.000 350.000
560.000 356.000
583.000 357.000
593.000 363.000
595.000 362.000
583.000 353.000
588.000 353.000
611.000 361.000
625.000 362.000
640.000 365.000
647.000 368.000
659.000 369.000
672.000 378.000
680.000 394.000
685.000 400.000
687.000 399.000
672.000 374.000
672.000 367.000
695.000 367.000
703.000 364.000
710.000 367.000
717.000 367.000
722.000 369.000
737.000 369.000
744.000 371.000
746.000 373.000
769.000 377.000
769.000 375.000
763.000 374.000
755.000 370.000
754.000 366.000
764.000 365.000
773.000 362.000
782.000 364.000
787.000 367.000
803.000 366.000
814.000 370.000
833.000 370.000
839.000 374.000
854.000 377.000
855.000 376.000
852.000 374.000
841.000 371.000
841.000 368.000
863.000 367.000
876.000 364.000
889.000 366.000
895.000 363.000
905.000 363.000
930.000 371.000
942.000 379.000
950.000 382.000
950.000 380.000
937.000 371.000
935.000 365.000
953.000 359.000
966.000 358.000
968.000 360.000
982.000 360.000
987.000 357.000
990.000 357.000
998.000 361.000
1008.000 363.000
1021.000 363.000
1038.000 368.000
1039.000 367.000
1036.000 364.000
1028.000 361.000
1027.000 358.000
1033.000 355.000
1055.000 349.000
1061.000 352.000
1099.000 352.000
1119.000 360.000
1119.000 358.000
1099.000 349.000
1098.000 346.000
1116.000 340.000
1136.000 342.000
1139.000 339.000
1142.000 339.000
1152.000 344.000
1161.000 344.000
1178.000 347.000
1191.000 353.000
1202.000 361.000
1214.000 366.000
1214.000 364.000
1207.000 361.000
1186.000 347.000
1183.000 342.000
1187.000 340.000
1205.000 338.000
1216.000 334.000
1226.000 334.000
1228.000 336.000
1232.000 336.000
1244.000 341.000
1278.000 345.000
1278.000 343.000
1265.000 339.000
1280.000 334.000
1290.000 334.000
1311.000 330.000
1346.000 331.000
1346.000 329.000
1337.000 326.000
1346.000 322.000
1353.000 322.000
1358.000 320.000
1377.000 319.000
1383.000 317.000
1406.000 317.000
1411.000 320.000
1426.000 324.000
1426.000 322.000
1419.000 320.000
1408.000 313.000
1410.000 311.000
1413.000 311.000
1424.000 306.000
1495.000 306.000
1495.000 304.000
1483.000 304.000
1489.000 301.000
1507.000 301.000
1515.000 297.000
1527.000 297.000
1550.000 291.000
1570.000 293.000
1570.000 291.000
1546.000 288.000
1552.000 281.000
1556.000 281.000
1558.000 283.000
1598.000 281.000
1611.000 282.000
1611.000 280.000
1605.000 278.000
1620.000 274.000
1627.000 270.000
1631.000 272.000
1640.000 270.000
1645.000 271.000
1651.000 269.000
1656.000 270.000
1679.000 266.000
1688.000 266.000
1699.000 269.000
1699.000 267.000
1690.000 264.000
1670.000 264.000
1673.000 261.000
1685.000 257.000
1699.000 256.000
1715.000 252.000
1732.000 251.000
1743.000 244.000
1753.000 243.000
1753.000 241.000
1744.000 241.000
1749.000 239.000
1764.000 238.000
1774.000 233.000
1778.000 233.000
1786.000 238.000
1803.000 235.000
1813.000 237.000
1817.000 235.000
1829.000 235.000
1830.000 234.000
1826.000 232.000
1815.000 233.000
1802.000 230.000
1807.000 227.000
1806.000 226.000
1810.000 227.000
1813.000 225.000
1815.000 225.000
1812.000 228.000
1816.000 230.000
1817.000 229.000
1815.000 227.000
1816.000 228.000
1826.000 216.000
1832.000 222.000
1901.000 222.000
1901.000 220.000
1871.000 218.000
1874.000 214.000
1882.000 209.000
1884.000 202.000
1891.000 204.000
1938.000 202.000
1948.000 197.000
1966.000 196.000
1971.000 194.000
1973.000 192.000
1971.000 191.000
1963.000 194.000
1958.000 193.000
1938.000 198.000
1948.000 187.000
1972.000 191.000
2001.000 189.000
2014.000 195.000
2022.000 203.000
2027.000 204.000
2030.000 208.000
2034.000 210.000
2034.000 212.000
2039.000 217.000
2059.000 227.000
2073.000 237.000
2075.000 237.000
2075.000 235.000
2059.000 224.000
2062.000 221.000
2069.000 218.000
2076.000 219.000
2091.000 213.000
2107.000 216.000
2123.000 216.000
2125.000 214.000
2124.000 213.000
2117.000 214.000
2109.000 212.000
2114.000 208.000
2127.000 204.000
2125.000 202.000
2117.000 203.000
2115.000 201.000
2117.000 200.000
2116.000 199.000
2108.000 199.000
2105.000 202.000
2093.000 201.000
2088.000 198.000
2099.000 198.000
2093.000 195.000
2076.000 196.000
2070.000 193.000
2065.000 195.000
2058.000 195.000
2047.000 190.000
2051.000 190.000
2062.000 194.000
2063.000 193.000
2057.000 189.000
2040.000 185.000
2037.000 186.000
2032.000 165.000
2040.000 159.000
2044.000 159.000
2050.000 162.000
2052.000 161.000
2050.000 159.000
2043.000 156.000
2034.000 159.000
2022.000 159.000
2006.000 155.000
2002.000 151.000
1994.000 148.000
1992.000 145.000
1984.000 142.000
1973.000 131.000
1972.000 127.000
1989.000 125.000
1993.000 129.000
1994.000 127.000
1991.000 123.000
1988.000 122.000
1964.000 124.000
1959.000 122.000
1961.000 118.000
1960.000 116.000
1963.000 117.000
1965.000 115.000
1964.000 114.000
1954.000 114.000
1943.000 118.000
1936.000 118.000
1927.000 123.000
1911.000 124.000
1908.000 126.000
1903.000 124.000
1897.000 124.000
1891.000 120.000
1897.000 118.000
1912.000 117.000
1912.000 115.000
1878.000 117.000
1869.000 120.000
1856.000 121.000
1853.000 123.000
1850.000 120.000
1845.000 121.000
1840.000 119.000
1839.000 116.000
1845.000 114.000
1845.000 112.000
1825.000 112.000
1803.000 117.000
1799.000 121.000
1787.000 118.000
1780.000 111.000
1794.000 109.000
1800.000 107.000
1800.000 105.000
1788.000 108.000
1760.000 107.000
1752.000 109.000
1737.000 106.000
1730.000 100.000
1728.000 101.000
1733.000 106.000
1727.000 106.000
1722.000 103.000
1729.000 100.000
1726.000 98.000
1714.000 102.000
1701.000 102.000
1679.000 96.000
1672.000 92.000
1677.000 90.000
1680.000 92.000
1683.000 88.000
1691.000 86.000
1691.000 84.000
1672.000 89.000
1627.000 90.000
1620.000 92.000
1610.000 87.000
1608.000 88.000
1609.000 89.000
1608.000 86.000
1595.000 79.000
1559.000 79.000
1550.000 78.000
1546.000 76.000
1534.000 78.000
1527.000 73.000
1535.000 72.000
1527.000 69.000
1495.000 71.000
1484.000 67.000
1464.000 66.000
1462.000 65.000
1470.000 62.000
1485.000 53.000
1484.000 52.000
1471.000 59.000
1432.000 64.000
1426.000 62.000
1388.000 57.000
1397.000 57.000
1388.000 53.000
1353.000 54.000
1344.000 52.000
1330.000 52.000
1323.000 50.000
1323.000 48.000
1326.000 46.000
1333.000 46.000
1334.000 45.000
1332.000 43.000
1325.000 43.000
1318.000 47.000
1308.000 50.000
1282.000 51.000
1271.000 50.000
1270.000 48.000
1265.000 48.000
1247.000 43.000
1216.000 45.000
1208.000 43.000
1198.000 44.000
1192.000 42.000
1181.000 44.000
1175.000 41.000
1180.000 40.000
1180.000 38.000
1172.000 38.000
1166.000 41.000
1159.000 42.000
1153.000 41.000
1144.000 44.000
1127.000 42.000
1119.000 39.000
1119.000 41.000
1102.000 41.000
1103.000 38.000
1112.000 37.000
1113.000 36.000
1109.000 34.000
1073.000 36.000
1060.000 38.000
1052.000 41.000
1047.000 41.000
1040.000 38.000
1030.000 38.000
1019.000 40.000
1016.000 42.000
1014.000 42.000
1012.000 40.000
1013.000 39.000
1028.000 37.000
1015.000 35.000
1005.000 35.000
999.000 38.000
966.000 37.000
958.000 40.000
947.000 40.000
940.000 42.000
923.000 38.000
869.000 39.000
873.000 38.000
873.000 35.000
863.000 38.000
842.000 38.000
834.000 36.000
811.000 38.000
801.000 35.000
786.000 35.000
780.000 38.000
769.000 38.000
767.000 36.000
771.000 33.000
763.000 31.000
753.000 34.000
719.000 34.000
716.000 31.000
709.000 31.000
706.000 33.000
715.000 33.000
716.000 34.000
713.000 35.000
704.000 33.000
693.000 34.000
688.000 32.000
674.000 33.000
671.000 35.000
659.000 33.000
629.000 33.000
624.000 35.000
615.000 34.000
617.000 21.000
612.000 13.000
611.000 16.000
614.000 22.000
609.000 31.000
600.000 32.000
595.000 35.000
573.000 37.000
562.000 41.000
549.000 42.000
534.000 46.000
532.000 45.000
543.000 34.000
541.000 33.000
539.000 36.000
523.000 42.000
515.000 48.000
509.000 48.000
504.000 50.000
500.000 54.000
491.000 57.000
482.000 65.000
467.000 72.000
455.000 84.000
449.000 86.000
441.000 94.000
438.000 100.000
426.000 112.000
418.000 126.000
396.000 150.000
386.000 167.000
379.000 165.000
368.000 169.000
361.000 169.000
342.000 165.000
325.000 159.000
298.000 155.000
284.000 150.000
268.000 147.000
205.000 129.000
195.000 123.000
187.000 122.000
173.000 116.000
159.000 106.000
129.000 101.000
104.000 92.000
85.000 82.000
76.000 79.000
52.000 76.000
