ply
format ascii 1.0
comment Dominant contour extracted from bimodal image.
comment scale factor = 0.564175
comment kernel width = 3
comment decimate eps = 1.000000
comment orig shape   = (709, 3454)
comment threshold    = 238.000000
comment Written with hapPLY (https://github.com/nmwsharp/happly)
element flags 0
property uchar closed
element vertex 662
property double x
property double y
end_header
1915.000 247.000
1908.000 238.000
1908.000 233.000
1900.000 227.000
1903.000 225.000
1910.000 225.000
1912.000 223.000
1911.000 221.000
1900.000 222.000
1893.000 225.000
1883.000 218.000
1879.000 217.000
1872.000 210.000
1863.000 208.000
1863.000 204.000
1880.000 202.000
1880.000 200.000
1850.000 200.000
1827.000 190.000
1825.000 188.000
1834.000 184.000
1843.000 182.000
1844.000 183.000
1846.000 181.000
1845.000 180.000
1837.000 180.000
1823.000 185.000
1813.000 185.000
1798.000 180.000
1794.000 176.000
1815.000 172.000
1816.000 171.000
1814.000 169.000
1795.000 173.000
1775.000 173.000
1768.000 170.000
1756.000 169.000
1749.000 163.000
1753.000 163.000
1762.000 159.000
1770.000 159.000
1773.000 157.000
1772.000 155.000
1762.000 156.000
1755.000 159.000
1742.000 159.000
1738.000 157.000
1723.000 158.000
1708.000 155.000
1708.000 151.000
1702.000 145.000
1700.000 146.000
1703.000 143.000
1712.000 140.000
1715.000 137.000
1714.000 136.000
1706.000 138.000
1693.000 145.000
1688.000 140.000
1687.000 142.000
1681.000 142.000
1676.000 138.000
1684.000 138.000
1687.000 141.000
1688.000 138.000
1683.000 133.000
1678.000 133.000
1674.000 130.000
1664.000 128.000
1652.000 128.000
1648.000 131.000
1634.000 132.000
1625.000 129.000
1629.000 127.000
1628.000 125.000
1623.000 127.000
1620.000 126.000
1619.000 127.000
1623.000 129.000
1621.000 130.000
1614.000 129.000
1602.000 123.000
1611.000 115.000
1627.000 111.000
1627.000 109.000
1621.000 109.000
1610.000 112.000
1601.000 119.000
1593.000 119.000
1587.000 117.000
1561.000 116.000
1552.000 111.000
1569.000 102.000
1572.000 99.000
1571.000 98.000
1548.000 109.000
1545.000 109.000
1539.000 106.000
1536.000 107.000
1508.000 105.000
1500.000 101.000
1508.000 96.000
1524.000 98.000
1524.000 96.000
1515.000 93.000
1508.000 93.000
1497.000 98.000
1486.000 98.000
1477.000 96.000
1458.000 97.000
1451.000 93.000
1442.000 92.000
1441.000 90.000
1449.000 85.000
1467.000 83.000
1468.000 82.000
1465.000 81.000
1465.000 79.000
1457.000 82.000
1455.000 81.000
1443.000 84.000
1436.000 89.000
1431.000 87.000
1416.000 86.000
1412.000 84.000
1408.000 85.000
1407.000 83.000
1401.000 85.000
1400.000 84.000
1395.000 87.000
1389.000 85.000
1374.000 85.000
1372.000 84.000
1374.000 79.000
1386.000 73.000
1388.000 74.000
1388.000 72.000
1391.000 72.000
1396.000 69.000
1396.000 66.000
1377.000 75.000
1371.000 75.000
1365.000 78.000
1346.000 75.000
1336.000 78.000
1330.000 77.000
1321.000 80.000
1310.000 76.000
1303.000 77.000
1299.000 75.000
1316.000 65.000
1323.000 59.000
1322.000 58.000
1297.000 72.000
1285.000 70.000
1247.000 70.000
1232.000 67.000
1240.000 60.000
1255.000 55.000
1258.000 53.000
1257.000 52.000
1244.000 55.000
1229.000 64.000
1215.000 62.000
1199.000 63.000
1195.000 61.000
1180.000 64.000
1165.000 58.000
1169.000 56.000
1176.000 48.000
1181.000 38.000
1183.000 37.000
1182.000 35.000
1179.000 37.000
1173.000 48.000
1161.000 57.000
1112.000 59.000
1105.000 62.000
1097.000 60.000
1093.000 57.000
1108.000 42.000
1107.000 40.000
1087.000 59.000
1067.000 59.000
1063.000 61.000
1058.000 61.000
1057.000 58.000
1056.000 61.000
1042.000 59.000
1030.000 60.000
1028.000 57.000
1034.000 51.000
1035.000 48.000
1043.000 41.000
1041.000 38.000
1023.000 58.000
1013.000 58.000
1004.000 55.000
1002.000 56.000
997.000 53.000
995.000 53.000
995.000 55.000
984.000 53.000
981.000 50.000
984.000 48.000
983.000 43.000
979.000 40.000
976.000 40.000
968.000 45.000
961.000 52.000
959.000 51.000
958.000 54.000
955.000 56.000
951.000 56.000
954.000 55.000
950.000 53.000
948.000 55.000
941.000 55.000
924.000 60.000
913.000 61.000
909.000 59.000
895.000 57.000
912.000 38.000
912.000 33.000
910.000 34.000
909.000 38.000
892.000 55.000
884.000 57.000
859.000 59.000
850.000 62.000
816.000 61.000
821.000 49.000
833.000 38.000
831.000 36.000
818.000 48.000
816.000 54.000
811.000 61.000
804.000 59.000
791.000 59.000
777.000 61.000
765.000 66.000
738.000 65.000
737.000 63.000
734.000 64.000
732.000 60.000
724.000 59.000
712.000 67.000
697.000 62.000
696.000 53.000
694.000 54.000
694.000 61.000
689.000 63.000
667.000 63.000
660.000 57.000
659.000 61.000
657.000 62.000
660.000 63.000
648.000 63.000
645.000 59.000
655.000 47.000
654.000 43.000
645.000 55.000
637.000 62.000
603.000 62.000
595.000 66.000
565.000 66.000
563.000 64.000
565.000 62.000
567.000 53.000
565.000 47.000
566.000 40.000
564.000 38.000
562.000 44.000
563.000 58.000
559.000 63.000
548.000 61.000
533.000 61.000
527.000 63.000
513.000 64.000
503.000 68.000
494.000 69.000
484.000 67.000
491.000 39.000
490.000 36.000
487.000 40.000
484.000 57.000
481.000 63.000
467.000 62.000
452.000 63.000
450.000 65.000
438.000 65.000
424.000 70.000
417.000 75.000
420.000 72.000
421.000 67.000
424.000 63.000
422.000 61.000
418.000 69.000
412.000 74.000
410.000 73.000
409.000 75.000
398.000 75.000
394.000 73.000
388.000 73.000
379.000 78.000
378.000 77.000
372.000 79.000
368.000 82.000
357.000 81.000
349.000 83.000
344.000 86.000
339.000 92.000
334.000 92.000
330.000 94.000
323.000 102.000
323.000 107.000
316.000 111.000
305.000 125.000
298.000 143.000
294.000 163.000
289.000 178.000
282.000 193.000
282.000 196.000
276.000 202.000
258.000 204.000
221.000 204.000
215.000 202.000
211.000 203.000
213.000 202.000
209.000 200.000
207.000 202.000
194.000 202.000
189.000 200.000
175.000 200.000
167.000 202.000
161.000 200.000
124.000 200.000
108.000 198.000
101.000 199.000
95.000 197.000
87.000 198.000
84.000 196.000
78.000 199.000
50.000 198.000
39.000 201.000
32.000 205.000
30.000 208.000
20.000 210.000
16.000 214.000
18.000 216.000
14.000 221.000
14.000 223.000
18.000 226.000
28.000 226.000
32.000 224.000
37.000 224.000
45.000 219.000
59.000 217.000
85.000 217.000
102.000 221.000
154.000 221.000
169.000 219.000
200.000 220.000
203.000 218.000
213.000 219.000
252.000 216.000
273.000 216.000
278.000 220.000
278.000 223.000
274.000 231.000
274.000 241.000
276.000 244.000
278.000 257.000
269.000 258.000
265.000 260.000
263.000 259.000
260.000 261.000
262.000 263.000
284.000 262.000
295.000 277.000
305.000 285.000
307.000 285.000
315.000 294.000
330.000 302.000
331.000 301.000
342.000 304.000
348.000 304.000
360.000 311.000
373.000 315.000
382.000 320.000
383.000 322.000
388.000 321.000
411.000 328.000
422.000 327.000
423.000 328.000
421.000 329.000
412.000 329.000
409.000 331.000
410.000 332.000
426.000 332.000
427.000 330.000
430.000 331.000
431.000 329.000
433.000 330.000
437.000 328.000
438.000 330.000
440.000 328.000
443.000 328.000
450.000 333.000
449.000 334.000
451.000 336.000
456.000 337.000
454.000 339.000
455.000 341.000
504.000 341.000
507.000 343.000
512.000 343.000
513.000 341.000
518.000 339.000
523.000 340.000
527.000 344.000
534.000 346.000
553.000 347.000
556.000 345.000
562.000 345.000
567.000 343.000
572.000 338.000
576.000 338.000
590.000 343.000
589.000 344.000
591.000 346.000
595.000 344.000
601.000 345.000
601.000 348.000
611.000 351.000
614.000 357.000
616.000 353.000
615.000 350.000
609.000 347.000
618.000 351.000
657.000 352.000
662.000 356.000
664.000 361.000
664.000 368.000
666.000 370.000
668.000 369.000
664.000 352.000
670.000 351.000
691.000 357.000
707.000 357.000
712.000 360.000
731.000 360.000
739.000 367.000
739.000 382.000
742.000 380.000
743.000 377.000
741.000 365.000
737.000 361.000
739.000 359.000
758.000 361.000
772.000 365.000
791.000 364.000
796.000 360.000
806.000 360.000
826.000 368.000
834.000 368.000
835.000 371.000
837.000 369.000
836.000 366.000
863.000 366.000
873.000 364.000
879.000 360.000
882.000 360.000
890.000 364.000
895.000 369.000
900.000 378.000
901.000 375.000
897.000 367.000
898.000 365.000
894.000 363.000
897.000 360.000
907.000 362.000
928.000 361.000
931.000 363.000
941.000 365.000
964.000 363.000
970.000 368.000
975.000 375.000
976.000 372.000
972.000 367.000
972.000 361.000
980.000 360.000
994.000 364.000
1026.000 365.000
1029.000 362.000
1032.000 362.000
1038.000 365.000
1054.000 385.000
1052.000 387.000
1053.000 388.000
1056.000 387.000
1056.000 384.000
1043.000 365.000
1090.000 368.000
1108.000 363.000
1117.000 364.000
1138.000 375.000
1139.000 374.000
1135.000 370.000
1125.000 365.000
1123.000 361.000
1142.000 360.000
1145.000 358.000
1159.000 360.000
1170.000 359.000
1174.000 357.000
1185.000 358.000
1195.000 356.000
1212.000 369.000
1218.000 380.000
1219.000 378.000
1216.000 370.000
1212.000 365.000
1198.000 354.000
1198.000 352.000
1204.000 350.000
1213.000 351.000
1221.000 348.000
1236.000 347.000
1255.000 342.000
1260.000 342.000
1262.000 345.000
1267.000 361.000
1272.000 369.000
1273.000 364.000
1270.000 361.000
1267.000 350.000
1260.000 336.000
1281.000 331.000
1311.000 329.000
1320.000 325.000
1328.000 326.000
1341.000 337.000
1342.000 335.000
1329.000 321.000
1345.000 317.000
1353.000 313.000
1368.000 312.000
1373.000 309.000
1374.000 310.000
1388.000 308.000
1395.000 316.000
1404.000 320.000
1405.000 318.000
1397.000 313.000
1390.000 305.000
1394.000 300.000
1399.000 297.000
1412.000 295.000
1420.000 291.000
1436.000 289.000
1442.000 286.000
1448.000 286.000
1459.000 292.000
1460.000 291.000
1450.000 282.000
1456.000 278.000
1470.000 277.000
1486.000 272.000
1494.000 273.000
1502.000 271.000
1511.000 276.000
1515.000 280.000
1522.000 282.000
1523.000 281.000
1521.000 279.000
1515.000 277.000
1505.000 268.000
1511.000 264.000
1522.000 260.000
1545.000 257.000
1548.000 255.000
1554.000 255.000
1565.000 268.000
1568.000 269.000
1569.000 268.000
1563.000 262.000
1558.000 254.000
1558.000 251.000
1567.000 247.000
1581.000 245.000
1596.000 245.000
1602.000 242.000
1610.000 242.000
1636.000 258.000
1637.000 256.000
1633.000 252.000
1621.000 247.000
1613.000 239.000
1619.000 234.000
1631.000 234.000
1635.000 232.000
1652.000 239.000
1652.000 237.000
1644.000 232.000
1652.000 228.000
1682.000 229.000
1682.000 227.000
1677.000 226.000
1681.000 224.000
1703.000 223.000
1716.000 228.000
1729.000 229.000
1730.000 228.000
1727.000 226.000
1720.000 226.000
1711.000 222.000
1717.000 221.000
1721.000 223.000
1730.000 224.000
1742.000 232.000
1753.000 237.000
1753.000 234.000
1744.000 230.000
1736.000 224.000
1743.000 221.000
1757.000 219.000
1770.000 220.000
1788.000 226.000
1799.000 227.000
1801.000 225.000
1800.000 224.000
1788.000 223.000
1782.000 219.000
1802.000 219.000
1812.000 225.000
1815.000 229.000
1818.000 229.000
1826.000 233.000
1827.000 232.000
1816.000 225.000
1812.000 221.000
1816.000 220.000
1836.000 225.000
1855.000 237.000
1860.000 236.000
1850.000 231.000
1846.000 226.000
1860.000 227.000
1880.000 232.000
1895.000 244.000
1898.000 244.000
1899.000 242.000
1894.000 240.000
1890.000 236.000
1899.000 239.000
1903.000 245.000
1907.000 244.000
1904.000 243.000
1903.000 241.000
1905.000 241.000
1911.000 247.000
