ply
format ascii 1.0
comment Dominant contour extracted from bimodal image.
comment scale factor = 0.475059
comment kernel width = 3
comment decimate eps = 1.000000
comment orig shape   = (842, 4213)
comment threshold    = 216.000000
comment Written with hapPLY (https://github.com/nmwsharp/happly)
element flags 0
property uchar closed
element vertex 490
property double x
property double y
end_header
10.000 85.000
16.000 95.000
18.000 104.000
17.000 105.000
20.000 111.000
27.000 118.000
50.000 135.000
91.000 156.000
127.000 172.000
175.000 189.000
226.000 198.000
256.000 200.000
262.000 203.000
266.000 208.000
271.000 237.000
275.000 243.000
279.000 254.000
290.000 263.000
293.000 275.000
303.000 287.000
313.000 296.000
313.000 299.000
323.000 313.000
331.000 319.000
334.000 325.000
336.000 325.000
344.000 332.000
358.000 338.000
372.000 348.000
402.000 359.000
416.000 359.000
421.000 362.000
428.000 371.000
428.000 367.000
420.000 358.000
421.000 355.000
425.000 354.000
438.000 356.000
441.000 360.000
446.000 362.000
454.000 362.000
468.000 367.000
479.000 368.000
482.000 370.000
488.000 370.000
498.000 367.000
508.000 377.000
512.000 384.000
513.000 381.000
509.000 374.000
509.000 370.000
516.000 366.000
568.000 371.000
578.000 374.000
591.000 373.000
602.000 386.000
603.000 384.000
599.000 380.000
594.000 371.000
595.000 367.000
597.000 366.000
646.000 365.000
656.000 363.000
665.000 359.000
683.000 361.000
711.000 374.000
725.000 377.000
728.000 379.000
729.000 385.000
734.000 393.000
735.000 391.000
731.000 381.000
731.000 374.000
736.000 372.000
748.000 372.000
767.000 376.000
778.000 375.000
784.000 377.000
810.000 376.000
826.000 391.000
827.000 389.000
812.000 373.000
820.000 372.000
855.000 376.000
875.000 376.000
878.000 374.000
882.000 374.000
887.000 390.000
890.000 395.000
891.000 392.000
884.000 371.000
904.000 370.000
940.000 378.000
952.000 377.000
960.000 384.000
961.000 383.000
954.000 374.000
970.000 375.000
966.000 380.000
967.000 381.000
976.000 375.000
989.000 374.000
1008.000 377.000
1018.000 376.000
1022.000 379.000
1023.000 378.000
1020.000 373.000
1025.000 374.000
1052.000 370.000
1057.000 371.000
1064.000 369.000
1066.000 366.000
1074.000 368.000
1078.000 371.000
1091.000 374.000
1103.000 381.000
1105.000 381.000
1105.000 379.000
1090.000 370.000
1095.000 369.000
1119.000 369.000
1132.000 371.000
1137.000 370.000
1146.000 372.000
1159.000 371.000
1169.000 376.000
1184.000 390.000
1186.000 389.000
1165.000 369.000
1173.000 368.000
1181.000 370.000
1215.000 370.000
1229.000 368.000
1240.000 376.000
1246.000 384.000
1247.000 382.000
1244.000 377.000
1231.000 364.000
1240.000 361.000
1251.000 360.000
1255.000 357.000
1259.000 359.000
1290.000 359.000
1308.000 374.000
1309.000 372.000
1291.000 355.000
1295.000 351.000
1295.000 347.000
1322.000 351.000
1346.000 350.000
1367.000 359.000
1375.000 360.000
1375.000 358.000
1368.000 357.000
1351.000 349.000
1350.000 347.000
1352.000 343.000
1406.000 343.000
1416.000 349.000
1422.000 355.000
1423.000 353.000
1409.000 341.000
1413.000 337.000
1426.000 338.000
1441.000 335.000
1447.000 337.000
1460.000 336.000
1475.000 349.000
1476.000 348.000
1462.000 333.000
1470.000 331.000
1475.000 327.000
1484.000 328.000
1491.000 324.000
1494.000 326.000
1499.000 326.000
1505.000 324.000
1516.000 324.000
1521.000 322.000
1528.000 322.000
1534.000 324.000
1534.000 322.000
1526.000 319.000
1529.000 316.000
1546.000 312.000
1569.000 312.000
1576.000 309.000
1579.000 309.000
1581.000 311.000
1583.000 324.000
1585.000 326.000
1585.000 316.000
1581.000 307.000
1586.000 303.000
1600.000 301.000
1617.000 303.000
1637.000 303.000
1649.000 308.000
1650.000 307.000
1648.000 305.000
1638.000 300.000
1641.000 297.000
1653.000 292.000
1676.000 287.000
1688.000 293.000
1689.000 292.000
1682.000 285.000
1692.000 280.000
1719.000 279.000
1738.000 288.000
1739.000 287.000
1726.000 278.000
1739.000 273.000
1774.000 271.000
1779.000 274.000
1780.000 272.000
1777.000 269.000
1779.000 267.000
1790.000 264.000
1817.000 263.000
1835.000 267.000
1842.000 267.000
1842.000 265.000
1833.000 264.000
1825.000 261.000
1826.000 259.000
1837.000 256.000
1866.000 256.000
1887.000 259.000
1887.000 257.000
1875.000 254.000
1891.000 246.000
1900.000 245.000
1914.000 251.000
1915.000 250.000
1908.000 246.000
1908.000 244.000
1918.000 239.000
1923.000 239.000
1932.000 236.000
1935.000 237.000
1942.000 244.000
1945.000 243.000
1941.000 240.000
1941.000 238.000
1944.000 235.000
1944.000 227.000
1937.000 231.000
1922.000 228.000
1912.000 228.000
1911.000 227.000
1914.000 225.000
1913.000 224.000
1905.000 228.000
1892.000 228.000
1889.000 227.000
1901.000 222.000
1897.000 221.000
1881.000 229.000
1865.000 230.000
1852.000 226.000
1849.000 222.000
1863.000 217.000
1863.000 215.000
1832.000 224.000
1810.000 223.000
1807.000 220.000
1809.000 218.000
1821.000 215.000
1821.000 213.000
1813.000 214.000
1803.000 218.000
1775.000 218.000
1766.000 215.000
1761.000 211.000
1762.000 209.000
1771.000 206.000
1771.000 204.000
1767.000 204.000
1752.000 209.000
1735.000 209.000
1725.000 207.000
1711.000 201.000
1710.000 199.000
1722.000 192.000
1722.000 190.000
1706.000 198.000
1696.000 198.000
1678.000 201.000
1664.000 193.000
1664.000 190.000
1669.000 186.000
1675.000 184.000
1675.000 182.000
1670.000 183.000
1656.000 191.000
1630.000 190.000
1617.000 185.000
1623.000 182.000
1633.000 181.000
1633.000 179.000
1624.000 179.000
1614.000 182.000
1604.000 178.000
1587.000 178.000
1576.000 172.000
1590.000 172.000
1591.000 171.000
1589.000 169.000
1575.000 169.000
1557.000 165.000
1541.000 165.000
1524.000 161.000
1520.000 158.000
1520.000 156.000
1526.000 151.000
1525.000 149.000
1518.000 154.000
1510.000 152.000
1497.000 152.000
1487.000 148.000
1480.000 147.000
1472.000 143.000
1471.000 141.000
1478.000 138.000
1478.000 136.000
1462.000 139.000
1445.000 136.000
1442.000 137.000
1424.000 132.000
1417.000 129.000
1421.000 124.000
1429.000 119.000
1428.000 118.000
1424.000 119.000
1415.000 126.000
1412.000 126.000
1399.000 121.000
1375.000 117.000
1370.000 115.000
1369.000 112.000
1381.000 107.000
1381.000 105.000
1370.000 109.000
1363.000 109.000
1354.000 106.000
1311.000 103.000
1309.000 102.000
1324.000 90.000
1323.000 89.000
1317.000 92.000
1309.000 99.000
1302.000 101.000
1295.000 98.000
1282.000 98.000
1249.000 92.000
1258.000 81.000
1257.000 79.000
1245.000 91.000
1189.000 91.000
1186.000 89.000
1195.000 85.000
1197.000 83.000
1196.000 82.000
1180.000 89.000
1171.000 87.000
1139.000 88.000
1121.000 85.000
1120.000 83.000
1127.000 71.000
1134.000 64.000
1133.000 63.000
1125.000 70.000
1115.000 83.000
1083.000 83.000
1076.000 80.000
1058.000 78.000
1069.000 75.000
1069.000 73.000
1059.000 75.000
997.000 75.000
982.000 72.000
982.000 70.000
989.000 60.000
988.000 58.000
984.000 64.000
977.000 70.000
951.000 70.000
942.000 73.000
934.000 73.000
914.000 77.000
906.000 76.000
910.000 69.000
910.000 55.000
907.000 71.000
902.000 75.000
887.000 76.000
865.000 72.000
840.000 72.000
837.000 70.000
837.000 68.000
843.000 59.000
843.000 53.000
840.000 60.000
833.000 68.000
827.000 72.000
814.000 76.000
802.000 72.000
785.000 72.000
779.000 70.000
765.000 70.000
758.000 68.000
756.000 66.000
763.000 53.000
762.000 50.000
753.000 65.000
744.000 66.000
733.000 65.000
720.000 68.000
691.000 69.000
680.000 66.000
685.000 60.000
684.000 58.000
677.000 64.000
653.000 64.000
646.000 66.000
631.000 66.000
615.000 69.000
604.000 69.000
609.000 59.000
608.000 55.000
604.000 63.000
600.000 66.000
592.000 65.000
573.000 69.000
549.000 69.000
543.000 68.000
541.000 66.000
544.000 56.000
543.000 47.000
541.000 49.000
541.000 57.000
536.000 64.000
520.000 66.000
504.000 72.000
500.000 72.000
471.000 84.000
465.000 84.000
461.000 82.000
463.000 72.000
460.000 62.000
460.000 75.000
457.000 79.000
434.000 81.000
417.000 87.000
403.000 89.000
403.000 80.000
397.000 78.000
396.000 79.000
400.000 83.000
393.000 85.000
377.000 84.000
359.000 91.000
353.000 91.000
344.000 97.000
339.000 98.000
325.000 105.000
321.000 109.000
315.000 111.000
303.000 119.000
299.000 125.000
289.000 133.000
269.000 161.000
266.000 169.000
259.000 178.000
249.000 186.000
242.000 189.000
221.000 188.000
202.000 185.000
196.000 182.000
192.000 183.000
135.000 163.000
101.000 147.000
36.000 107.000
26.000 99.000
23.000 94.000
21.000 85.000
18.000 84.000
16.000 87.000
14.000 84.000
