ply
format ascii 1.0
comment Dominant contour extracted from bimodal image.
comment scale factor = 0.539811
comment kernel width = 3
comment decimate eps = 1.000000
comment orig shape   = (741, 3041)
comment threshold    = 244.000000
comment Written with hapPLY (https://github.com/nmwsharp/happly)
element flags 0
property uchar closed
element vertex 470
property double x
property double y
end_header
1608.000 160.000
1596.000 154.000
1595.000 152.000
1598.000 152.000
1602.000 155.000
1605.000 155.000
1606.000 154.000
1603.000 151.000
1594.000 148.000
1581.000 148.000
1579.000 146.000
1579.000 135.000
1577.000 133.000
1571.000 136.000
1567.000 135.000
1563.000 140.000
1533.000 140.000
1528.000 138.000
1527.000 136.000
1526.000 137.000
1526.000 135.000
1548.000 136.000
1549.000 135.000
1544.000 132.000
1513.000 132.000
1506.000 135.000
1501.000 132.000
1488.000 129.000
1490.000 127.000
1508.000 125.000
1511.000 123.000
1510.000 122.000
1491.000 123.000
1487.000 125.000
1469.000 127.000
1464.000 125.000
1452.000 125.000
1446.000 123.000
1444.000 117.000
1435.000 112.000
1424.000 115.000
1408.000 114.000
1405.000 116.000
1394.000 116.000
1390.000 114.000
1376.000 113.000
1363.000 110.000
1336.000 109.000
1333.000 108.000
1331.000 104.000
1316.000 102.000
1312.000 100.000
1292.000 100.000
1283.000 97.000
1271.000 97.000
1266.000 92.000
1264.000 92.000
1273.000 89.000
1289.000 90.000
1289.000 88.000
1274.000 86.000
1266.000 89.000
1247.000 90.000
1235.000 86.000
1215.000 84.000
1209.000 81.000
1219.000 80.000
1219.000 77.000
1209.000 77.000
1201.000 75.000
1198.000 76.000
1176.000 71.000
1153.000 69.000
1147.000 65.000
1144.000 65.000
1159.000 65.000
1160.000 64.000
1156.000 62.000
1143.000 62.000
1137.000 60.000
1113.000 59.000
1111.000 57.000
1091.000 56.000
1080.000 52.000
1083.000 53.000
1095.000 51.000
1099.000 54.000
1110.000 53.000
1101.000 52.000
1093.000 48.000
1058.000 48.000
1054.000 46.000
1036.000 46.000
1033.000 44.000
1024.000 45.000
1009.000 43.000
1009.000 41.000
1010.000 42.000
1023.000 37.000
1029.000 37.000
1034.000 45.000
1035.000 42.000
1030.000 35.000
1020.000 35.000
1002.000 40.000
978.000 39.000
973.000 41.000
959.000 41.000
953.000 39.000
935.000 37.000
940.000 34.000
948.000 33.000
958.000 22.000
957.000 20.000
946.000 31.000
938.000 31.000
934.000 33.000
918.000 32.000
906.000 35.000
893.000 35.000
890.000 33.000
865.000 33.000
866.000 34.000
875.000 31.000
879.000 27.000
884.000 17.000
883.000 16.000
880.000 18.000
874.000 29.000
858.000 29.000
847.000 31.000
811.000 31.000
803.000 23.000
797.000 20.000
791.000 20.000
781.000 25.000
739.000 32.000
702.000 31.000
712.000 22.000
719.000 20.000
713.000 19.000
698.000 28.000
666.000 35.000
647.000 41.000
646.000 38.000
644.000 40.000
645.000 41.000
642.000 42.000
634.000 42.000
628.000 45.000
620.000 46.000
634.000 40.000
640.000 40.000
640.000 38.000
631.000 38.000
618.000 42.000
611.000 46.000
571.000 50.000
560.000 55.000
558.000 55.000
558.000 50.000
561.000 42.000
567.000 35.000
565.000 34.000
558.000 42.000
554.000 51.000
549.000 56.000
543.000 59.000
525.000 61.000
505.000 68.000
491.000 70.000
487.000 69.000
494.000 62.000
501.000 60.000
502.000 58.000
500.000 57.000
493.000 59.000
483.000 68.000
476.000 70.000
462.000 70.000
442.000 76.000
423.000 78.000
422.000 76.000
421.000 78.000
429.000 63.000
433.000 59.000
433.000 57.000
431.000 56.000
423.000 69.000
416.000 76.000
398.000 82.000
383.000 83.000
373.000 89.000
365.000 91.000
356.000 90.000
356.000 88.000
365.000 76.000
365.000 65.000
361.000 78.000
353.000 86.000
351.000 86.000
340.000 96.000
338.000 96.000
323.000 106.000
321.000 109.000
319.000 109.000
307.000 123.000
306.000 122.000
295.000 133.000
292.000 139.000
289.000 140.000
290.000 142.000
278.000 154.000
275.000 159.000
263.000 192.000
258.000 198.000
259.000 199.000
252.000 206.000
221.000 209.000
199.000 207.000
86.000 207.000
60.000 201.000
52.000 194.000
48.000 193.000
43.000 188.000
41.000 188.000
39.000 191.000
36.000 191.000
29.000 213.000
31.000 216.000
36.000 216.000
58.000 222.000
98.000 220.000
103.000 218.000
114.000 217.000
196.000 218.000
250.000 215.000
267.000 216.000
271.000 219.000
275.000 234.000
283.000 244.000
282.000 245.000
284.000 246.000
285.000 251.000
290.000 255.000
292.000 260.000
319.000 284.000
325.000 284.000
326.000 288.000
330.000 292.000
336.000 295.000
339.000 299.000
345.000 301.000
346.000 303.000
349.000 303.000
359.000 309.000
367.000 310.000
384.000 319.000
399.000 322.000
399.000 324.000
406.000 329.000
409.000 329.000
409.000 326.000
405.000 326.000
399.000 319.000
392.000 317.000
392.000 313.000
399.000 313.000
420.000 320.000
432.000 320.000
442.000 323.000
448.000 322.000
459.000 325.000
461.000 324.000
473.000 333.000
475.000 332.000
468.000 326.000
466.000 322.000
476.000 321.000
489.000 324.000
502.000 324.000
516.000 327.000
518.000 326.000
523.000 329.000
534.000 330.000
539.000 333.000
549.000 335.000
555.000 334.000
544.000 330.000
552.000 330.000
569.000 334.000
585.000 335.000
598.000 339.000
612.000 339.000
629.000 345.000
638.000 351.000
645.000 349.000
652.000 339.000
651.000 338.000
643.000 347.000
638.000 348.000
632.000 342.000
636.000 338.000
668.000 338.000
684.000 342.000
708.000 343.000
711.000 345.000
718.000 346.000
725.000 350.000
733.000 358.000
733.000 363.000
727.000 362.000
725.000 360.000
723.000 361.000
725.000 364.000
734.000 366.000
736.000 364.000
736.000 357.000
726.000 346.000
726.000 343.000
729.000 341.000
740.000 341.000
748.000 339.000
785.000 339.000
790.000 342.000
795.000 342.000
812.000 348.000
818.000 355.000
820.000 353.000
817.000 350.000
817.000 344.000
819.000 342.000
872.000 343.000
876.000 345.000
892.000 347.000
894.000 349.000
900.000 349.000
909.000 358.000
911.000 355.000
894.000 342.000
944.000 339.000
966.000 344.000
977.000 350.000
984.000 356.000
990.000 366.000
992.000 367.000
993.000 365.000
988.000 356.000
982.000 350.000
975.000 346.000
972.000 342.000
974.000 338.000
988.000 336.000
1006.000 336.000
1012.000 334.000
1032.000 335.000
1037.000 337.000
1047.000 337.000
1052.000 335.000
1057.000 339.000
1062.000 348.000
1063.000 346.000
1061.000 341.000
1056.000 334.000
1039.000 333.000
1037.000 331.000
1078.000 327.000
1105.000 330.000
1121.000 329.000
1127.000 331.000
1134.000 336.000
1139.000 337.000
1140.000 336.000
1129.000 329.000
1118.000 327.000
1117.000 325.000
1110.000 325.000
1118.000 319.000
1126.000 319.000
1149.000 313.000
1168.000 313.000
1187.000 319.000
1188.000 318.000
1183.000 314.000
1173.000 310.000
1185.000 303.000
1193.000 303.000
1210.000 299.000
1224.000 299.000
1235.000 295.000
1257.000 293.000
1257.000 291.000
1252.000 290.000
1240.000 291.000
1240.000 289.000
1243.000 289.000
1246.000 286.000
1247.000 287.000
1259.000 283.000
1261.000 281.000
1268.000 281.000
1276.000 277.000
1284.000 275.000
1286.000 276.000
1309.000 266.000
1325.000 263.000
1327.000 261.000
1322.000 260.000
1297.000 267.000
1304.000 263.000
1307.000 259.000
1308.000 260.000
1318.000 257.000
1324.000 257.000
1337.000 252.000
1353.000 252.000
1356.000 254.000
1362.000 254.000
1362.000 252.000
1357.000 250.000
1336.000 248.000
1347.000 241.000
1350.000 237.000
1361.000 237.000
1385.000 229.000
1400.000 229.000
1403.000 227.000
1406.000 228.000
1406.000 225.000
1381.000 227.000
1393.000 222.000
1399.000 217.000
1435.000 217.000
1450.000 223.000
1451.000 222.000
1449.000 220.000
1439.000 215.000
1427.000 213.000
1433.000 206.000
1433.000 204.000
1437.000 205.000
1445.000 202.000
1455.000 202.000
1461.000 199.000
1471.000 200.000
1495.000 195.000
1507.000 194.000
1507.000 192.000
1495.000 192.000
1487.000 194.000
1484.000 193.000
1489.000 189.000
1514.000 184.000
1526.000 183.000
1531.000 186.000
1535.000 184.000
1552.000 184.000
1555.000 186.000
1562.000 181.000
1561.000 180.000
1555.000 182.000
1537.000 181.000
1537.000 179.000
1543.000 174.000
1567.000 167.000
1603.000 168.000
1603.000 165.000
1585.000 164.000
1599.000 161.000
1605.000 162.000
