ply
format ascii 1.0
comment Dominant contour extracted from bimodal image.
comment scale factor = 0.456100
comment kernel width = 3
comment decimate eps = 1.000000
comment orig shape   = (877, 3612)
comment threshold    = 234.500000
comment Written with hapPLY (https://github.com/nmwsharp/happly)
element flags 0
property uchar closed
element vertex 420
property double x
property double y
end_header
7.000 278.000
9.000 281.000
16.000 284.000
35.000 282.000
43.000 286.000
82.000 288.000
102.000 285.000
141.000 283.000
165.000 279.000
169.000 280.000
213.000 271.000
245.000 268.000
251.000 272.000
257.000 285.000
262.000 302.000
270.000 316.000
276.000 322.000
276.000 324.000
282.000 330.000
289.000 334.000
302.000 347.000
324.000 358.000
330.000 363.000
348.000 369.000
356.000 369.000
364.000 373.000
391.000 374.000
405.000 386.000
411.000 389.000
412.000 388.000
395.000 373.000
395.000 368.000
398.000 364.000
412.000 362.000
448.000 366.000
468.000 365.000
473.000 369.000
477.000 375.000
478.000 384.000
480.000 386.000
481.000 384.000
479.000 374.000
476.000 368.000
471.000 363.000
471.000 359.000
479.000 358.000
480.000 361.000
484.000 358.000
510.000 358.000
525.000 361.000
538.000 361.000
542.000 363.000
546.000 367.000
554.000 382.000
555.000 379.000
549.000 367.000
542.000 359.000
543.000 356.000
549.000 354.000
588.000 354.000
600.000 352.000
611.000 363.000
619.000 368.000
620.000 367.000
600.000 347.000
607.000 344.000
656.000 345.000
667.000 343.000
675.000 349.000
686.000 353.000
686.000 351.000
676.000 346.000
670.000 340.000
684.000 337.000
725.000 337.000
735.000 351.000
736.000 349.000
729.000 336.000
751.000 335.000
765.000 337.000
783.000 337.000
799.000 349.000
802.000 355.000
802.000 349.000
788.000 336.000
796.000 334.000
851.000 337.000
863.000 347.000
864.000 346.000
854.000 335.000
859.000 334.000
863.000 335.000
885.000 333.000
912.000 333.000
922.000 340.000
923.000 339.000
914.000 331.000
914.000 329.000
918.000 328.000
982.000 328.000
990.000 326.000
1002.000 331.000
1003.000 330.000
1000.000 327.000
993.000 323.000
1005.000 320.000
1052.000 319.000
1067.000 317.000
1090.000 329.000
1091.000 328.000
1087.000 324.000
1071.000 315.000
1073.000 313.000
1103.000 308.000
1126.000 307.000
1137.000 304.000
1151.000 313.000
1152.000 312.000
1140.000 302.000
1146.000 298.000
1174.000 295.000
1187.000 292.000
1190.000 290.000
1196.000 290.000
1210.000 297.000
1211.000 296.000
1196.000 286.000
1214.000 279.000
1230.000 276.000
1233.000 277.000
1245.000 274.000
1261.000 281.000
1262.000 280.000
1247.000 271.000
1251.000 271.000
1262.000 267.000
1275.000 265.000
1276.000 266.000
1292.000 262.000
1293.000 263.000
1300.000 260.000
1315.000 266.000
1324.000 266.000
1324.000 264.000
1316.000 264.000
1303.000 257.000
1311.000 253.000
1336.000 250.000
1340.000 248.000
1362.000 249.000
1363.000 248.000
1361.000 246.000
1358.000 246.000
1358.000 243.000
1363.000 240.000
1384.000 237.000
1393.000 234.000
1409.000 240.000
1412.000 236.000
1410.000 232.000
1408.000 237.000
1397.000 231.000
1402.000 228.000
1410.000 226.000
1411.000 227.000
1414.000 224.000
1427.000 221.000
1441.000 215.000
1458.000 213.000
1466.000 208.000
1465.000 207.000
1457.000 210.000
1447.000 211.000
1454.000 206.000
1455.000 207.000
1456.000 204.000
1457.000 206.000
1461.000 203.000
1472.000 202.000
1482.000 199.000
1485.000 201.000
1485.000 204.000
1488.000 207.000
1489.000 204.000
1486.000 195.000
1495.000 188.000
1502.000 185.000
1513.000 183.000
1521.000 178.000
1533.000 177.000
1549.000 172.000
1549.000 169.000
1535.000 173.000
1531.000 173.000
1542.000 167.000
1562.000 162.000
1568.000 158.000
1591.000 158.000
1592.000 157.000
1588.000 155.000
1574.000 154.000
1576.000 151.000
1595.000 142.000
1595.000 140.000
1593.000 139.000
1593.000 129.000
1595.000 125.000
1590.000 122.000
1585.000 114.000
1572.000 116.000
1554.000 115.000
1571.000 114.000
1571.000 111.000
1511.000 114.000
1505.000 111.000
1505.000 109.000
1509.000 106.000
1522.000 102.000
1524.000 100.000
1523.000 99.000
1510.000 102.000
1500.000 108.000
1486.000 110.000
1475.000 114.000
1466.000 111.000
1464.000 112.000
1461.000 110.000
1477.000 102.000
1477.000 100.000
1455.000 109.000
1431.000 111.000
1421.000 108.000
1427.000 107.000
1435.000 103.000
1435.000 100.000
1424.000 105.000
1412.000 105.000
1402.000 108.000
1401.000 107.000
1391.000 109.000
1382.000 107.000
1378.000 104.000
1386.000 101.000
1396.000 93.000
1395.000 92.000
1384.000 99.000
1379.000 100.000
1339.000 95.000
1337.000 96.000
1327.000 92.000
1342.000 79.000
1341.000 78.000
1336.000 80.000
1325.000 89.000
1301.000 87.000
1281.000 88.000
1272.000 84.000
1283.000 70.000
1285.000 66.000
1283.000 63.000
1280.000 65.000
1282.000 66.000
1273.000 78.000
1269.000 81.000
1266.000 81.000
1263.000 79.000
1235.000 76.000
1221.000 72.000
1226.000 59.000
1231.000 51.000
1230.000 50.000
1227.000 52.000
1220.000 66.000
1217.000 68.000
1210.000 66.000
1177.000 63.000
1171.000 60.000
1172.000 58.000
1190.000 46.000
1190.000 42.000
1174.000 54.000
1168.000 56.000
1159.000 56.000
1156.000 54.000
1122.000 54.000
1115.000 52.000
1113.000 49.000
1125.000 38.000
1124.000 37.000
1111.000 46.000
1075.000 46.000
1068.000 44.000
1068.000 42.000
1065.000 39.000
1059.000 41.000
1065.000 42.000
1065.000 45.000
1049.000 43.000
1059.000 43.000
1059.000 41.000
1055.000 40.000
1023.000 41.000
988.000 39.000
987.000 37.000
995.000 30.000
994.000 28.000
983.000 36.000
914.000 35.000
912.000 34.000
914.000 26.000
911.000 17.000
918.000 11.000
915.000 10.000
908.000 16.000
911.000 28.000
908.000 31.000
890.000 30.000
841.000 32.000
837.000 28.000
841.000 13.000
840.000 1.000
837.000 17.000
832.000 27.000
810.000 28.000
806.000 30.000
794.000 31.000
784.000 34.000
774.000 34.000
765.000 36.000
747.000 34.000
746.000 33.000
750.000 24.000
750.000 19.000
753.000 19.000
753.000 17.000
749.000 14.000
746.000 27.000
742.000 32.000
733.000 31.000
717.000 33.000
709.000 36.000
693.000 37.000
683.000 40.000
656.000 41.000
662.000 33.000
662.000 29.000
655.000 37.000
650.000 39.000
626.000 40.000
599.000 47.000
582.000 48.000
590.000 34.000
594.000 30.000
593.000 28.000
584.000 40.000
575.000 48.000
561.000 48.000
555.000 50.000
548.000 50.000
546.000 52.000
503.000 62.000
502.000 59.000
508.000 45.000
514.000 38.000
513.000 36.000
504.000 46.000
499.000 59.000
485.000 59.000
477.000 62.000
472.000 60.000
447.000 63.000
443.000 65.000
431.000 64.000
431.000 60.000
438.000 52.000
440.000 46.000
439.000 42.000
435.000 52.000
425.000 61.000
411.000 62.000
401.000 66.000
373.000 73.000
361.000 81.000
345.000 87.000
341.000 87.000
345.000 82.000
353.000 65.000
351.000 64.000
343.000 80.000
335.000 88.000
327.000 90.000
315.000 96.000
289.000 114.000
271.000 133.000
268.000 139.000
254.000 156.000
253.000 166.000
249.000 172.000
246.000 181.000
246.000 191.000
242.000 198.000
244.000 216.000
243.000 226.000
249.000 249.000
248.000 254.000
219.000 262.000
181.000 267.000
170.000 266.000
144.000 268.000
136.000 266.000
132.000 269.000
133.000 273.000
81.000 274.000
65.000 273.000
58.000 271.000
39.000 271.000
28.000 274.000
22.000 274.000
19.000 276.000
11.000 275.000
