ply
format ascii 1.0
comment Dominant contour extracted from bimodal image.
comment scale factor = 0.474496
comment kernel width = 3
comment decimate eps = 1.000000
comment orig shape   = (843, 3400)
comment threshold    = 207.500000
comment Written with hapPLY (https://github.com/nmwsharp/happly)
element flags 0
property uchar closed
element vertex 393
property double x
property double y
end_header
1579.000 134.000
1575.000 132.000
1557.000 130.000
1554.000 127.000
1559.000 126.000
1559.000 124.000
1555.000 124.000
1548.000 127.000
1540.000 126.000
1531.000 121.000
1539.000 120.000
1539.000 118.000
1524.000 119.000
1505.000 116.000
1501.000 114.000
1511.000 113.000
1511.000 111.000
1502.000 111.000
1495.000 113.000
1471.000 113.000
1462.000 111.000
1459.000 108.000
1464.000 105.000
1464.000 103.000
1457.000 106.000
1446.000 105.000
1439.000 107.000
1427.000 107.000
1419.000 103.000
1427.000 94.000
1426.000 93.000
1418.000 100.000
1402.000 100.000
1393.000 103.000
1381.000 103.000
1376.000 105.000
1371.000 102.000
1377.000 101.000
1377.000 99.000
1331.000 99.000
1330.000 98.000
1338.000 96.000
1338.000 90.000
1336.000 95.000
1319.000 96.000
1311.000 93.000
1286.000 93.000
1282.000 92.000
1287.000 85.000
1286.000 83.000
1278.000 90.000
1264.000 86.000
1248.000 86.000
1239.000 88.000
1236.000 84.000
1234.000 84.000
1242.000 78.000
1242.000 76.000
1240.000 76.000
1230.000 83.000
1218.000 78.000
1187.000 75.000
1186.000 74.000
1189.000 73.000
1189.000 71.000
1181.000 72.000
1173.000 69.000
1150.000 69.000
1140.000 67.000
1130.000 63.000
1138.000 60.000
1138.000 58.000
1122.000 59.000
1111.000 57.000
1108.000 63.000
1074.000 59.000
1070.000 57.000
1074.000 54.000
1082.000 52.000
1082.000 50.000
1075.000 51.000
1066.000 55.000
1056.000 53.000
1034.000 53.000
1026.000 57.000
1012.000 55.000
1000.000 56.000
999.000 54.000
997.000 56.000
1000.000 53.000
1009.000 49.000
1006.000 48.000
995.000 53.000
991.000 57.000
986.000 57.000
977.000 54.000
934.000 60.000
923.000 60.000
922.000 58.000
913.000 60.000
902.000 56.000
874.000 56.000
867.000 59.000
862.000 59.000
857.000 56.000
843.000 56.000
842.000 54.000
849.000 49.000
848.000 48.000
839.000 52.000
819.000 50.000
807.000 51.000
802.000 53.000
782.000 53.000
761.000 56.000
766.000 48.000
765.000 45.000
761.000 52.000
755.000 57.000
740.000 52.000
728.000 54.000
725.000 56.000
701.000 56.000
696.000 58.000
676.000 60.000
674.000 59.000
679.000 57.000
681.000 55.000
680.000 54.000
675.000 56.000
664.000 56.000
658.000 53.000
643.000 52.000
628.000 54.000
619.000 58.000
616.000 57.000
607.000 60.000
591.000 59.000
596.000 50.000
595.000 48.000
589.000 57.000
586.000 59.000
582.000 57.000
575.000 59.000
563.000 58.000
559.000 61.000
547.000 61.000
537.000 64.000
528.000 64.000
532.000 60.000
531.000 53.000
530.000 58.000
524.000 63.000
505.000 59.000
496.000 59.000
488.000 61.000
480.000 60.000
467.000 63.000
463.000 61.000
458.000 61.000
458.000 55.000
451.000 62.000
445.000 61.000
441.000 56.000
432.000 56.000
428.000 58.000
422.000 55.000
393.000 57.000
394.000 55.000
389.000 49.000
387.000 50.000
389.000 54.000
387.000 54.000
384.000 51.000
360.000 48.000
346.000 49.000
334.000 54.000
326.000 52.000
321.000 48.000
304.000 49.000
299.000 51.000
296.000 51.000
295.000 49.000
290.000 49.000
282.000 53.000
275.000 53.000
269.000 58.000
261.000 59.000
236.000 75.000
230.000 81.000
231.000 84.000
220.000 92.000
208.000 116.000
207.000 127.000
202.000 129.000
191.000 129.000
149.000 115.000
112.000 112.000
91.000 108.000
70.000 107.000
46.000 110.000
33.000 114.000
27.000 113.000
23.000 108.000
18.000 108.000
13.000 112.000
12.000 117.000
7.000 120.000
9.000 122.000
19.000 122.000
26.000 127.000
37.000 127.000
45.000 124.000
57.000 123.000
67.000 120.000
104.000 120.000
129.000 122.000
146.000 126.000
158.000 127.000
202.000 141.000
214.000 152.000
211.000 162.000
211.000 174.000
217.000 192.000
218.000 204.000
235.000 230.000
265.000 258.000
292.000 273.000
301.000 281.000
314.000 282.000
323.000 293.000
324.000 291.000
316.000 281.000
317.000 279.000
320.000 279.000
369.000 303.000
387.000 303.000
395.000 311.000
396.000 309.000
390.000 303.000
390.000 301.000
392.000 301.000
407.000 310.000
420.000 312.000
444.000 322.000
458.000 323.000
462.000 332.000
469.000 339.000
472.000 338.000
465.000 332.000
463.000 326.000
464.000 323.000
470.000 323.000
478.000 327.000
495.000 332.000
504.000 333.000
507.000 335.000
519.000 337.000
540.000 337.000
548.000 344.000
550.000 343.000
545.000 338.000
543.000 334.000
544.000 333.000
577.000 344.000
613.000 346.000
621.000 343.000
639.000 360.000
640.000 358.000
627.000 344.000
635.000 341.000
644.000 341.000
656.000 348.000
664.000 350.000
675.000 349.000
687.000 353.000
707.000 352.000
723.000 363.000
726.000 362.000
714.000 355.000
710.000 350.000
713.000 348.000
729.000 348.000
748.000 355.000
786.000 355.000
798.000 364.000
799.000 362.000
790.000 354.000
792.000 352.000
810.000 353.000
817.000 355.000
863.000 354.000
870.000 358.000
884.000 359.000
884.000 357.000
868.000 355.000
865.000 352.000
869.000 350.000
882.000 350.000
887.000 352.000
906.000 351.000
913.000 353.000
938.000 351.000
948.000 358.000
952.000 359.000
952.000 357.000
942.000 350.000
942.000 345.000
974.000 346.000
987.000 342.000
992.000 344.000
1013.000 340.000
1026.000 344.000
1026.000 342.000
1017.000 338.000
1023.000 336.000
1074.000 331.000
1077.000 329.000
1087.000 329.000
1099.000 332.000
1099.000 330.000
1089.000 327.000
1088.000 325.000
1109.000 323.000
1119.000 320.000
1124.000 316.000
1136.000 317.000
1151.000 314.000
1157.000 311.000
1168.000 315.000
1169.000 314.000
1164.000 311.000
1161.000 307.000
1169.000 303.000
1186.000 300.000
1209.000 291.000
1213.000 291.000
1218.000 295.000
1219.000 294.000
1213.000 287.000
1222.000 281.000
1227.000 281.000
1235.000 277.000
1252.000 274.000
1264.000 268.000
1280.000 270.000
1280.000 268.000
1269.000 265.000
1285.000 256.000
1303.000 252.000
1316.000 245.000
1331.000 245.000
1341.000 243.000
1341.000 241.000
1323.000 243.000
1320.000 242.000
1322.000 238.000
1332.000 232.000
1335.000 232.000
1353.000 224.000
1375.000 224.000
1376.000 223.000
1372.000 221.000
1361.000 221.000
1360.000 220.000
1369.000 213.000
1393.000 202.000
1396.000 199.000
1413.000 200.000
1413.000 198.000
1401.000 196.000
1402.000 193.000
1415.000 185.000
1430.000 179.000
1436.000 174.000
1443.000 172.000
1443.000 170.000
1440.000 170.000
1442.000 166.000
1462.000 161.000
1480.000 152.000
1486.000 152.000
1491.000 149.000
1502.000 149.000
1518.000 144.000
1518.000 142.000
1520.000 143.000
1521.000 141.000
1545.000 141.000
1548.000 139.000
1543.000 138.000
1554.000 135.000
1576.000 136.000
