ply
format ascii 1.0
comment Dominant contour extracted from bimodal image.
comment scale factor = 0.458190
comment kernel width = 3
comment decimate eps = 1.000000
comment orig shape   = (873, 4175)
comment threshold    = 202.500000
comment Written with hapPLY (https://github.com/nmwsharp/happly)
element flags 0
property uchar closed
element vertex 504
property double x
property double y
end_header
0.000 277.000
1.000 285.000
24.000 286.000
74.000 279.000
76.000 285.000
77.000 279.000
106.000 276.000
117.000 277.000
125.000 274.000
189.000 266.000
195.000 264.000
204.000 264.000
241.000 256.000
259.000 254.000
271.000 255.000
286.000 262.000
287.000 265.000
284.000 272.000
289.000 285.000
297.000 296.000
303.000 301.000
306.000 307.000
325.000 328.000
340.000 338.000
351.000 340.000
358.000 344.000
371.000 346.000
371.000 348.000
369.000 348.000
370.000 350.000
381.000 348.000
385.000 349.000
391.000 354.000
391.000 348.000
405.000 348.000
411.000 346.000
416.000 348.000
430.000 347.000
441.000 351.000
446.000 350.000
453.000 354.000
463.000 355.000
475.000 362.000
476.000 361.000
468.000 354.000
473.000 352.000
485.000 351.000
499.000 352.000
503.000 354.000
518.000 354.000
521.000 352.000
528.000 351.000
538.000 355.000
538.000 353.000
532.000 350.000
535.000 348.000
561.000 348.000
565.000 351.000
570.000 359.000
572.000 366.000
574.000 368.000
579.000 369.000
582.000 372.000
587.000 389.000
588.000 383.000
584.000 368.000
599.000 369.000
629.000 377.000
640.000 377.000
646.000 379.000
658.000 378.000
662.000 381.000
669.000 394.000
670.000 391.000
662.000 377.000
692.000 377.000
697.000 379.000
709.000 379.000
714.000 381.000
739.000 383.000
747.000 385.000
761.000 395.000
764.000 394.000
751.000 384.000
749.000 381.000
752.000 380.000
748.000 376.000
748.000 372.000
750.000 372.000
752.000 375.000
754.000 373.000
755.000 375.000
756.000 371.000
760.000 369.000
757.000 365.000
759.000 362.000
761.000 363.000
760.000 366.000
766.000 373.000
768.000 372.000
771.000 376.000
775.000 374.000
777.000 378.000
780.000 376.000
790.000 375.000
802.000 380.000
816.000 383.000
831.000 382.000
836.000 384.000
841.000 381.000
837.000 378.000
831.000 379.000
833.000 379.000
834.000 376.000
840.000 379.000
849.000 388.000
856.000 392.000
857.000 391.000
843.000 378.000
843.000 376.000
852.000 376.000
858.000 374.000
865.000 375.000
866.000 374.000
864.000 369.000
867.000 370.000
870.000 368.000
874.000 368.000
878.000 373.000
878.000 369.000
884.000 363.000
882.000 362.000
885.000 361.000
886.000 357.000
889.000 355.000
888.000 352.000
885.000 355.000
882.000 355.000
882.000 352.000
886.000 349.000
889.000 349.000
888.000 352.000
890.000 352.000
891.000 355.000
888.000 356.000
889.000 358.000
887.000 365.000
891.000 369.000
895.000 363.000
898.000 364.000
904.000 361.000
909.000 366.000
908.000 371.000
912.000 371.000
932.000 391.000
932.000 388.000
915.000 370.000
915.000 365.000
922.000 362.000
944.000 361.000
963.000 357.000
984.000 356.000
999.000 373.000
1000.000 371.000
991.000 361.000
987.000 352.000
1013.000 347.000
1040.000 349.000
1054.000 348.000
1066.000 360.000
1067.000 358.000
1057.000 346.000
1070.000 343.000
1088.000 343.000
1105.000 345.000
1117.000 344.000
1130.000 359.000
1131.000 357.000
1119.000 342.000
1119.000 339.000
1131.000 334.000
1177.000 327.000
1185.000 343.000
1186.000 339.000
1178.000 323.000
1187.000 319.000
1205.000 316.000
1224.000 310.000
1234.000 310.000
1239.000 312.000
1246.000 311.000
1248.000 313.000
1266.000 313.000
1270.000 316.000
1276.000 329.000
1277.000 326.000
1271.000 312.000
1284.000 309.000
1290.000 310.000
1300.000 307.000
1327.000 308.000
1341.000 319.000
1342.000 317.000
1332.000 309.000
1331.000 305.000
1345.000 301.000
1364.000 301.000
1367.000 303.000
1387.000 301.000
1403.000 308.000
1404.000 307.000
1402.000 305.000
1390.000 299.000
1406.000 296.000
1429.000 300.000
1437.000 299.000
1443.000 306.000
1451.000 310.000
1452.000 309.000
1441.000 300.000
1441.000 297.000
1447.000 295.000
1468.000 294.000
1481.000 298.000
1498.000 299.000
1512.000 309.000
1513.000 308.000
1502.000 298.000
1509.000 295.000
1515.000 297.000
1530.000 297.000
1538.000 300.000
1549.000 300.000
1562.000 306.000
1564.000 306.000
1564.000 304.000
1553.000 299.000
1556.000 299.000
1561.000 296.000
1573.000 296.000
1599.000 302.000
1606.000 302.000
1613.000 304.000
1622.000 310.000
1624.000 309.000
1617.000 303.000
1623.000 301.000
1662.000 304.000
1677.000 313.000
1682.000 318.000
1684.000 317.000
1668.000 304.000
1672.000 303.000
1690.000 304.000
1706.000 309.000
1718.000 310.000
1736.000 318.000
1738.000 318.000
1738.000 316.000
1726.000 311.000
1724.000 308.000
1744.000 308.000
1773.000 315.000
1787.000 322.000
1788.000 321.000
1779.000 314.000
1780.000 313.000
1794.000 311.000
1819.000 312.000
1819.000 310.000
1815.000 309.000
1829.000 304.000
1853.000 308.000
1853.000 306.000
1848.000 305.000
1850.000 303.000
1867.000 301.000
1868.000 298.000
1884.000 290.000
1882.000 287.000
1873.000 287.000
1876.000 284.000
1875.000 283.000
1862.000 292.000
1854.000 293.000
1843.000 292.000
1837.000 289.000
1843.000 283.000
1842.000 282.000
1831.000 289.000
1816.000 292.000
1791.000 288.000
1789.000 285.000
1802.000 284.000
1805.000 282.000
1804.000 281.000
1789.000 282.000
1780.000 285.000
1765.000 285.000
1762.000 283.000
1757.000 283.000
1749.000 276.000
1756.000 277.000
1756.000 275.000
1743.000 271.000
1738.000 271.000
1727.000 264.000
1720.000 262.000
1713.000 255.000
1731.000 253.000
1731.000 251.000
1704.000 252.000
1699.000 249.000
1694.000 249.000
1691.000 247.000
1678.000 244.000
1673.000 238.000
1686.000 239.000
1686.000 237.000
1671.000 235.000
1663.000 232.000
1654.000 226.000
1642.000 222.000
1631.000 214.000
1629.000 209.000
1634.000 204.000
1633.000 203.000
1627.000 206.000
1603.000 194.000
1589.000 192.000
1586.000 189.000
1586.000 187.000
1583.000 186.000
1591.000 186.000
1591.000 183.000
1578.000 183.000
1563.000 174.000
1542.000 166.000
1531.000 157.000
1549.000 154.000
1549.000 152.000
1527.000 154.000
1520.000 149.000
1506.000 146.000
1487.000 137.000
1481.000 132.000
1491.000 129.000
1501.000 129.000
1501.000 127.000
1490.000 127.000
1476.000 130.000
1468.000 126.000
1462.000 126.000
1447.000 121.000
1437.000 112.000
1450.000 107.000
1450.000 105.000
1432.000 110.000
1419.000 102.000
1412.000 102.000
1399.000 97.000
1392.000 92.000
1402.000 87.000
1402.000 85.000
1390.000 90.000
1386.000 90.000
1367.000 84.000
1355.000 83.000
1336.000 74.000
1349.000 68.000
1349.000 66.000
1332.000 72.000
1319.000 67.000
1305.000 66.000
1296.000 62.000
1286.000 62.000
1275.000 58.000
1281.000 51.000
1280.000 50.000
1271.000 57.000
1252.000 54.000
1225.000 54.000
1212.000 52.000
1211.000 51.000
1223.000 46.000
1225.000 44.000
1224.000 43.000
1208.000 50.000
1155.000 48.000
1147.000 46.000
1154.000 37.000
1153.000 35.000
1143.000 45.000
1138.000 45.000
1134.000 43.000
1113.000 45.000
1088.000 45.000
1077.000 43.000
1084.000 35.000
1083.000 33.000
1074.000 40.000
1045.000 40.000
1035.000 41.000
1027.000 44.000
999.000 42.000
999.000 39.000
1002.000 35.000
1001.000 33.000
995.000 38.000
981.000 37.000
960.000 41.000
943.000 42.000
934.000 45.000
920.000 46.000
911.000 45.000
915.000 37.000
913.000 33.000
912.000 38.000
908.000 43.000
894.000 43.000
889.000 45.000
877.000 46.000
871.000 50.000
866.000 50.000
862.000 52.000
859.000 51.000
848.000 56.000
838.000 56.000
834.000 58.000
840.000 45.000
839.000 42.000
831.000 57.000
812.000 59.000
788.000 71.000
781.000 73.000
773.000 73.000
764.000 69.000
764.000 67.000
768.000 63.000
767.000 61.000
760.000 67.000
752.000 64.000
734.000 64.000
721.000 67.000
693.000 68.000
699.000 60.000
699.000 56.000
691.000 66.000
674.000 66.000
671.000 68.000
660.000 69.000
655.000 72.000
646.000 71.000
629.000 67.000
636.000 55.000
635.000 52.000
630.000 61.000
626.000 64.000
618.000 62.000
593.000 63.000
589.000 65.000
580.000 65.000
576.000 67.000
558.000 68.000
549.000 67.000
541.000 64.000
549.000 51.000
548.000 49.000
538.000 61.000
521.000 61.000
496.000 68.000
491.000 68.000
465.000 78.000
445.000 80.000
440.000 78.000
442.000 57.000
441.000 55.000
439.000 57.000
439.000 72.000
436.000 76.000
421.000 79.000
407.000 85.000
396.000 93.000
390.000 95.000
370.000 112.000
368.000 112.000
353.000 126.000
335.000 156.000
324.000 194.000
321.000 217.000
317.000 226.000
312.000 231.000
280.000 240.000
235.000 249.000
227.000 249.000
208.000 253.000
162.000 259.000
82.000 266.000
64.000 266.000
55.000 269.000
39.000 271.000
28.000 271.000
9.000 268.000
4.000 269.000
