ply
format ascii 1.0
comment Dominant contour extracted from bimodal image.
comment scale factor = 0.456100
comment kernel width = 3
comment decimate eps = 1.000000
comment orig shape   = (877, 3789)
comment threshold    = 212.500000
comment Written with hapPLY (https://github.com/nmwsharp/happly)
element flags 0
property uchar closed
element vertex 472
property double x
property double y
end_header
24.000 218.000
25.000 220.000
31.000 218.000
31.000 224.000
33.000 227.000
36.000 227.000
38.000 229.000
37.000 233.000
40.000 237.000
115.000 235.000
188.000 242.000
195.000 244.000
256.000 247.000
288.000 247.000
290.000 248.000
295.000 264.000
300.000 272.000
304.000 284.000
308.000 290.000
313.000 294.000
315.000 299.000
331.000 315.000
337.000 319.000
350.000 324.000
357.000 329.000
370.000 333.000
380.000 338.000
385.000 344.000
378.000 350.000
379.000 351.000
387.000 346.000
386.000 339.000
388.000 336.000
391.000 336.000
395.000 338.000
411.000 339.000
441.000 350.000
449.000 350.000
455.000 353.000
456.000 351.000
453.000 349.000
453.000 347.000
458.000 346.000
460.000 344.000
466.000 344.000
489.000 352.000
520.000 354.000
530.000 365.000
531.000 363.000
524.000 354.000
531.000 348.000
567.000 354.000
596.000 352.000
607.000 356.000
623.000 357.000
634.000 360.000
651.000 359.000
659.000 365.000
660.000 363.000
655.000 357.000
662.000 353.000
674.000 356.000
685.000 355.000
712.000 359.000
719.000 364.000
720.000 362.000
717.000 359.000
717.000 357.000
728.000 353.000
737.000 358.000
751.000 361.000
760.000 361.000
768.000 358.000
772.000 359.000
775.000 365.000
776.000 372.000
778.000 374.000
779.000 372.000
775.000 357.000
800.000 356.000
812.000 359.000
820.000 358.000
834.000 360.000
839.000 365.000
843.000 381.000
843.000 371.000
839.000 359.000
858.000 359.000
872.000 362.000
897.000 361.000
906.000 364.000
914.000 375.000
915.000 373.000
912.000 368.000
904.000 360.000
905.000 355.000
911.000 357.000
967.000 358.000
978.000 363.000
984.000 363.000
988.000 359.000
988.000 354.000
986.000 354.000
986.000 358.000
983.000 361.000
976.000 360.000
970.000 355.000
973.000 356.000
980.000 353.000
990.000 352.000
991.000 355.000
993.000 353.000
1038.000 355.000
1046.000 359.000
1047.000 358.000
1042.000 354.000
1042.000 352.000
1046.000 350.000
1060.000 350.000
1073.000 348.000
1092.000 349.000
1106.000 344.000
1120.000 346.000
1127.000 350.000
1128.000 349.000
1124.000 346.000
1122.000 342.000
1133.000 342.000
1138.000 344.000
1139.000 343.000
1149.000 345.000
1161.000 344.000
1170.000 349.000
1171.000 348.000
1166.000 342.000
1173.000 337.000
1185.000 333.000
1215.000 333.000
1223.000 336.000
1231.000 343.000
1237.000 346.000
1238.000 345.000
1223.000 333.000
1225.000 328.000
1236.000 323.000
1277.000 320.000
1291.000 328.000
1292.000 327.000
1279.000 317.000
1287.000 310.000
1322.000 304.000
1324.000 312.000
1325.000 305.000
1329.000 300.000
1339.000 299.000
1369.000 301.000
1385.000 307.000
1385.000 305.000
1369.000 298.000
1368.000 296.000
1375.000 293.000
1401.000 290.000
1406.000 288.000
1424.000 296.000
1435.000 299.000
1436.000 298.000
1432.000 295.000
1428.000 295.000
1412.000 287.000
1413.000 285.000
1423.000 280.000
1429.000 282.000
1431.000 287.000
1433.000 283.000
1439.000 281.000
1464.000 283.000
1471.000 286.000
1479.000 293.000
1484.000 295.000
1485.000 294.000
1471.000 283.000
1471.000 280.000
1474.000 276.000
1489.000 274.000
1492.000 272.000
1501.000 277.000
1509.000 276.000
1527.000 285.000
1532.000 285.000
1532.000 283.000
1523.000 281.000
1515.000 275.000
1521.000 271.000
1540.000 271.000
1554.000 276.000
1566.000 277.000
1569.000 276.000
1569.000 274.000
1564.000 275.000
1556.000 273.000
1571.000 267.000
1577.000 271.000
1581.000 271.000
1592.000 276.000
1597.000 275.000
1603.000 270.000
1608.000 270.000
1616.000 275.000
1629.000 279.000
1634.000 284.000
1643.000 283.000
1646.000 280.000
1651.000 280.000
1671.000 292.000
1676.000 299.000
1682.000 302.000
1687.000 301.000
1679.000 298.000
1685.000 299.000
1686.000 297.000
1697.000 297.000
1696.000 295.000
1682.000 291.000
1680.000 287.000
1683.000 286.000
1680.000 284.000
1674.000 286.000
1662.000 269.000
1657.000 265.000
1658.000 264.000
1664.000 266.000
1664.000 264.000
1655.000 261.000
1649.000 262.000
1631.000 256.000
1629.000 252.000
1642.000 253.000
1645.000 255.000
1647.000 254.000
1645.000 252.000
1635.000 251.000
1612.000 244.000
1597.000 233.000
1595.000 233.000
1601.000 231.000
1599.000 229.000
1585.000 230.000
1576.000 226.000
1565.000 225.000
1556.000 220.000
1553.000 217.000
1563.000 213.000
1570.000 213.000
1570.000 211.000
1560.000 211.000
1548.000 215.000
1540.000 214.000
1524.000 208.000
1516.000 199.000
1524.000 198.000
1526.000 201.000
1527.000 199.000
1535.000 198.000
1535.000 196.000
1511.000 196.000
1496.000 193.000
1497.000 191.000
1498.000 193.000
1499.000 192.000
1497.000 188.000
1491.000 188.000
1490.000 190.000
1492.000 192.000
1486.000 190.000
1486.000 186.000
1494.000 186.000
1499.000 190.000
1500.000 187.000
1497.000 183.000
1478.000 183.000
1468.000 178.000
1452.000 175.000
1448.000 170.000
1463.000 165.000
1470.000 166.000
1470.000 163.000
1459.000 163.000
1449.000 167.000
1441.000 168.000
1434.000 165.000
1413.000 162.000
1429.000 163.000
1430.000 162.000
1427.000 160.000
1412.000 159.000
1405.000 155.000
1387.000 151.000
1382.000 148.000
1374.000 146.000
1366.000 141.000
1377.000 135.000
1387.000 133.000
1387.000 131.000
1381.000 131.000
1367.000 137.000
1338.000 134.000
1336.000 132.000
1331.000 132.000
1320.000 128.000
1321.000 126.000
1333.000 122.000
1333.000 120.000
1314.000 125.000
1293.000 117.000
1283.000 116.000
1271.000 112.000
1277.000 106.000
1276.000 105.000
1272.000 108.000
1261.000 110.000
1251.000 106.000
1242.000 106.000
1229.000 103.000
1224.000 104.000
1212.000 98.000
1220.000 93.000
1220.000 91.000
1210.000 95.000
1204.000 95.000
1195.000 93.000
1185.000 94.000
1174.000 91.000
1157.000 89.000
1147.000 86.000
1159.000 80.000
1161.000 78.000
1160.000 77.000
1144.000 84.000
1129.000 80.000
1105.000 78.000
1099.000 75.000
1111.000 70.000
1111.000 68.000
1094.000 74.000
1085.000 72.000
1059.000 71.000
1050.000 68.000
1051.000 63.000
1055.000 59.000
1054.000 58.000
1047.000 63.000
1035.000 67.000
1004.000 67.000
998.000 71.000
993.000 67.000
999.000 66.000
1002.000 64.000
1001.000 63.000
990.000 64.000
986.000 66.000
973.000 64.000
964.000 65.000
954.000 68.000
946.000 68.000
940.000 71.000
920.000 71.000
919.000 69.000
930.000 56.000
930.000 52.000
916.000 68.000
898.000 65.000
878.000 65.000
864.000 68.000
854.000 67.000
853.000 65.000
861.000 58.000
860.000 56.000
857.000 59.000
846.000 63.000
839.000 61.000
814.000 63.000
808.000 62.000
796.000 64.000
784.000 63.000
778.000 60.000
784.000 53.000
783.000 51.000
773.000 59.000
765.000 58.000
757.000 60.000
730.000 61.000
723.000 64.000
711.000 64.000
707.000 62.000
719.000 50.000
717.000 49.000
701.000 62.000
675.000 62.000
669.000 64.000
649.000 65.000
644.000 68.000
637.000 68.000
635.000 67.000
645.000 64.000
647.000 62.000
645.000 61.000
633.000 64.000
629.000 67.000
608.000 66.000
595.000 70.000
582.000 77.000
580.000 73.000
586.000 64.000
585.000 61.000
580.000 70.000
574.000 75.000
551.000 75.000
526.000 83.000
514.000 83.000
519.000 77.000
518.000 75.000
508.000 83.000
505.000 82.000
490.000 87.000
481.000 87.000
475.000 89.000
470.000 93.000
446.000 101.000
446.000 98.000
450.000 92.000
449.000 90.000
441.000 100.000
433.000 100.000
418.000 103.000
403.000 111.000
391.000 115.000
391.000 104.000
389.000 113.000
385.000 117.000
374.000 120.000
367.000 126.000
360.000 128.000
352.000 137.000
344.000 142.000
338.000 148.000
332.000 157.000
331.000 162.000
325.000 170.000
321.000 181.000
319.000 199.000
321.000 207.000
322.000 228.000
318.000 232.000
299.000 232.000
293.000 230.000
290.000 235.000
278.000 235.000
263.000 233.000
236.000 233.000
193.000 230.000
187.000 228.000
140.000 225.000
111.000 218.000
95.000 212.000
80.000 214.000
57.000 214.000
51.000 211.000
44.000 211.000
39.000 208.000
31.000 213.000
32.000 214.000
29.000 214.000
