ply
format ascii 1.0
comment Dominant contour extracted from bimodal image.
comment scale factor = 0.591716
comment kernel width = 3
comment decimate eps = 1.000000
comment orig shape   = (676, 2998)
comment threshold    = 242.500000
comment Written with hapPLY (https://github.com/nmwsharp/happly)
element flags 0
property uchar closed
element vertex 505
property double x
property double y
end_header
13.000 208.000
14.000 211.000
16.000 210.000
22.000 213.000
23.000 217.000
26.000 219.000
28.000 217.000
27.000 216.000
43.000 217.000
44.000 215.000
54.000 217.000
56.000 219.000
74.000 220.000
80.000 222.000
137.000 223.000
139.000 226.000
145.000 224.000
156.000 225.000
170.000 223.000
183.000 223.000
183.000 225.000
185.000 226.000
192.000 222.000
214.000 223.000
219.000 221.000
228.000 223.000
272.000 223.000
276.000 225.000
280.000 231.000
281.000 237.000
289.000 249.000
300.000 271.000
302.000 272.000
308.000 283.000
313.000 287.000
314.000 291.000
333.000 308.000
338.000 310.000
342.000 316.000
351.000 320.000
373.000 335.000
378.000 336.000
384.000 340.000
398.000 343.000
415.000 349.000
422.000 362.000
423.000 359.000
419.000 350.000
415.000 346.000
405.000 341.000
407.000 338.000
412.000 338.000
433.000 343.000
435.000 345.000
443.000 346.000
446.000 348.000
476.000 353.000
482.000 356.000
486.000 356.000
496.000 362.000
499.000 361.000
489.000 353.000
505.000 353.000
525.000 357.000
528.000 356.000
536.000 358.000
550.000 358.000
555.000 360.000
561.000 360.000
573.000 367.000
575.000 366.000
571.000 362.000
558.000 356.000
551.000 355.000
550.000 354.000
554.000 353.000
592.000 354.000
593.000 352.000
610.000 352.000
618.000 355.000
630.000 355.000
630.000 352.000
619.000 352.000
616.000 350.000
609.000 349.000
612.000 347.000
633.000 349.000
687.000 349.000
694.000 348.000
700.000 345.000
682.000 345.000
681.000 344.000
686.000 342.000
709.000 343.000
749.000 341.000
763.000 345.000
771.000 345.000
774.000 344.000
774.000 342.000
764.000 342.000
757.000 340.000
783.000 337.000
796.000 338.000
809.000 335.000
823.000 336.000
831.000 333.000
847.000 332.000
859.000 333.000
862.000 330.000
869.000 328.000
883.000 328.000
907.000 325.000
938.000 330.000
938.000 328.000
918.000 323.000
917.000 320.000
916.000 322.000
914.000 321.000
929.000 316.000
951.000 317.000
955.000 319.000
989.000 316.000
1001.000 322.000
1018.000 324.000
1022.000 322.000
1021.000 320.000
1014.000 322.000
1002.000 319.000
995.000 314.000
999.000 312.000
1021.000 312.000
1026.000 309.000
1040.000 310.000
1055.000 309.000
1060.000 307.000
1098.000 309.000
1098.000 307.000
1074.000 304.000
1082.000 303.000
1093.000 299.000
1101.000 300.000
1121.000 298.000
1130.000 295.000
1131.000 296.000
1133.000 293.000
1133.000 289.000
1140.000 291.000
1142.000 287.000
1145.000 289.000
1150.000 288.000
1151.000 289.000
1148.000 291.000
1149.000 293.000
1191.000 293.000
1199.000 290.000
1231.000 291.000
1241.000 288.000
1217.000 287.000
1216.000 286.000
1225.000 282.000
1245.000 282.000
1256.000 279.000
1275.000 285.000
1294.000 285.000
1294.000 283.000
1273.000 281.000
1271.000 279.000
1274.000 277.000
1287.000 277.000
1294.000 275.000
1310.000 275.000
1320.000 277.000
1334.000 274.000
1339.000 271.000
1343.000 271.000
1346.000 268.000
1386.000 267.000
1402.000 272.000
1402.000 269.000
1384.000 263.000
1378.000 263.000
1382.000 260.000
1390.000 261.000
1401.000 257.000
1415.000 257.000
1422.000 259.000
1439.000 258.000
1442.000 256.000
1441.000 255.000
1425.000 255.000
1432.000 251.000
1486.000 253.000
1487.000 252.000
1485.000 250.000
1467.000 249.000
1466.000 248.000
1469.000 245.000
1483.000 245.000
1496.000 248.000
1512.000 255.000
1517.000 259.000
1519.000 258.000
1516.000 255.000
1502.000 247.000
1507.000 243.000
1515.000 243.000
1527.000 246.000
1534.000 250.000
1536.000 253.000
1538.000 252.000
1553.000 259.000
1555.000 258.000
1554.000 256.000
1548.000 255.000
1543.000 252.000
1541.000 249.000
1539.000 249.000
1541.000 248.000
1565.000 247.000
1587.000 254.000
1607.000 256.000
1607.000 254.000
1601.000 252.000
1593.000 252.000
1586.000 250.000
1586.000 248.000
1593.000 246.000
1598.000 248.000
1609.000 249.000
1611.000 252.000
1612.000 251.000
1619.000 253.000
1634.000 261.000
1636.000 260.000
1632.000 256.000
1618.000 250.000
1629.000 249.000
1640.000 252.000
1651.000 258.000
1661.000 258.000
1661.000 256.000
1652.000 255.000
1650.000 253.000
1660.000 252.000
1672.000 255.000
1676.000 259.000
1677.000 258.000
1681.000 261.000
1689.000 262.000
1689.000 260.000
1684.000 259.000
1683.000 257.000
1692.000 255.000
1694.000 253.000
1693.000 249.000
1695.000 246.000
1704.000 247.000
1705.000 239.000
1719.000 239.000
1683.000 229.000
1677.000 225.000
1684.000 227.000
1686.000 229.000
1695.000 231.000
1697.000 230.000
1694.000 227.000
1686.000 226.000
1681.000 222.000
1665.000 222.000
1647.000 216.000
1642.000 211.000
1662.000 211.000
1662.000 209.000
1635.000 207.000
1629.000 208.000
1615.000 204.000
1610.000 197.000
1629.000 197.000
1629.000 195.000
1598.000 195.000
1582.000 189.000
1578.000 184.000
1596.000 184.000
1596.000 181.000
1586.000 182.000
1555.000 180.000
1550.000 175.000
1544.000 173.000
1541.000 169.000
1556.000 169.000
1559.000 167.000
1558.000 166.000
1524.000 165.000
1514.000 162.000
1500.000 162.000
1495.000 157.000
1514.000 157.000
1514.000 155.000
1501.000 155.000
1495.000 153.000
1492.000 154.000
1482.000 151.000
1461.000 148.000
1453.000 140.000
1455.000 140.000
1456.000 138.000
1457.000 140.000
1459.000 136.000
1470.000 128.000
1469.000 126.000
1466.000 129.000
1465.000 128.000
1464.000 130.000
1447.000 139.000
1434.000 139.000
1430.000 137.000
1418.000 136.000
1411.000 130.000
1430.000 130.000
1433.000 128.000
1432.000 126.000
1408.000 127.000
1397.000 125.000
1395.000 123.000
1381.000 118.000
1369.000 118.000
1364.000 116.000
1358.000 116.000
1352.000 111.000
1353.000 110.000
1361.000 109.000
1364.000 107.000
1372.000 107.000
1372.000 104.000
1365.000 104.000
1349.000 108.000
1334.000 107.000
1320.000 103.000
1312.000 104.000
1310.000 102.000
1301.000 101.000
1297.000 99.000
1312.000 97.000
1312.000 95.000
1292.000 96.000
1286.000 94.000
1258.000 91.000
1240.000 84.000
1250.000 82.000
1257.000 87.000
1264.000 89.000
1266.000 88.000
1250.000 79.000
1236.000 81.000
1192.000 77.000
1183.000 79.000
1166.000 72.000
1188.000 70.000
1188.000 68.000
1162.000 69.000
1152.000 71.000
1113.000 71.000
1094.000 67.000
1096.000 68.000
1098.000 66.000
1112.000 63.000
1115.000 64.000
1117.000 62.000
1116.000 61.000
1075.000 66.000
1058.000 64.000
1034.000 65.000
1023.000 63.000
1031.000 62.000
1038.000 58.000
1039.000 59.000
1042.000 56.000
1041.000 55.000
1032.000 59.000
1023.000 59.000
1019.000 61.000
1003.000 61.000
994.000 58.000
978.000 58.000
969.000 55.000
961.000 55.000
953.000 52.000
941.000 54.000
911.000 54.000
907.000 56.000
897.000 56.000
892.000 58.000
883.000 58.000
883.000 56.000
878.000 56.000
872.000 52.000
837.000 56.000
811.000 56.000
806.000 58.000
786.000 57.000
791.000 55.000
801.000 56.000
804.000 54.000
803.000 53.000
781.000 53.000
768.000 56.000
752.000 56.000
730.000 60.000
715.000 60.000
708.000 63.000
698.000 62.000
698.000 60.000
714.000 58.000
714.000 55.000
706.000 55.000
680.000 59.000
644.000 61.000
640.000 63.000
631.000 60.000
579.000 63.000
571.000 66.000
568.000 65.000
566.000 67.000
545.000 69.000
561.000 62.000
569.000 61.000
571.000 59.000
569.000 58.000
561.000 59.000
547.000 64.000
537.000 63.000
526.000 66.000
523.000 65.000
508.000 71.000
489.000 72.000
480.000 74.000
478.000 72.000
478.000 69.000
486.000 58.000
488.000 64.000
490.000 64.000
490.000 52.000
486.000 50.000
480.000 62.000
473.000 67.000
448.000 74.000
434.000 81.000
404.000 91.000
394.000 90.000
392.000 88.000
406.000 78.000
413.000 76.000
411.000 74.000
408.000 74.000
390.000 84.000
386.000 88.000
377.000 91.000
366.000 98.000
360.000 100.000
347.000 110.000
340.000 113.000
338.000 116.000
314.000 133.000
293.000 154.000
290.000 161.000
284.000 169.000
279.000 181.000
277.000 205.000
274.000 209.000
262.000 209.000
254.000 211.000
215.000 211.000
209.000 208.000
200.000 208.000
193.000 210.000
122.000 210.000
121.000 208.000
115.000 207.000
100.000 207.000
94.000 203.000
90.000 203.000
83.000 199.000
82.000 200.000
80.000 198.000
80.000 195.000
73.000 189.000
69.000 183.000
59.000 178.000
56.000 180.000
45.000 180.000
44.000 178.000
42.000 178.000
37.000 181.000
38.000 183.000
33.000 181.000
25.000 182.000
25.000 185.000
30.000 186.000
20.000 187.000
19.000 189.000
22.000 192.000
17.000 197.000
17.000 203.000
14.000 204.000
16.000 207.000
