ply
format ascii 1.0
comment Dominant contour extracted from bimodal image.
comment scale factor = 0.456100
comment kernel width = 3
comment decimate eps = 1.000000
comment orig shape   = (877, 3631)
comment threshold    = 227.500000
comment Written with hapPLY (https://github.com/nmwsharp/happly)
element flags 0
property uchar closed
element vertex 462
property double x
property double y
end_header
1629.000 118.000
1628.000 116.000
1621.000 116.000
1619.000 114.000
1625.000 108.000
1624.000 107.000
1614.000 113.000
1604.000 113.000
1603.000 111.000
1613.000 107.000
1613.000 104.000
1596.000 111.000
1583.000 111.000
1570.000 107.000
1572.000 104.000
1581.000 99.000
1581.000 97.000
1563.000 106.000
1559.000 105.000
1545.000 107.000
1535.000 104.000
1536.000 101.000
1545.000 94.000
1548.000 90.000
1547.000 88.000
1530.000 102.000
1510.000 104.000
1495.000 109.000
1489.000 109.000
1484.000 107.000
1483.000 105.000
1496.000 98.000
1493.000 97.000
1479.000 103.000
1468.000 103.000
1456.000 108.000
1450.000 108.000
1446.000 110.000
1437.000 105.000
1443.000 98.000
1452.000 93.000
1452.000 90.000
1443.000 95.000
1434.000 103.000
1408.000 105.000
1400.000 102.000
1407.000 96.000
1415.000 93.000
1415.000 91.000
1408.000 93.000
1395.000 101.000
1374.000 103.000
1369.000 100.000
1376.000 95.000
1387.000 91.000
1387.000 89.000
1384.000 89.000
1374.000 93.000
1363.000 100.000
1356.000 100.000
1342.000 104.000
1337.000 99.000
1351.000 85.000
1350.000 83.000
1333.000 98.000
1319.000 98.000
1305.000 103.000
1298.000 98.000
1303.000 93.000
1310.000 90.000
1310.000 88.000
1303.000 90.000
1295.000 96.000
1286.000 95.000
1269.000 97.000
1256.000 93.000
1271.000 87.000
1273.000 85.000
1272.000 84.000
1252.000 91.000
1242.000 90.000
1231.000 93.000
1228.000 92.000
1224.000 94.000
1217.000 92.000
1225.000 89.000
1225.000 87.000
1213.000 90.000
1176.000 89.000
1182.000 83.000
1189.000 79.000
1192.000 76.000
1191.000 75.000
1174.000 86.000
1140.000 86.000
1135.000 83.000
1145.000 77.000
1144.000 76.000
1128.000 82.000
1081.000 84.000
1077.000 83.000
1077.000 81.000
1086.000 71.000
1085.000 70.000
1073.000 80.000
1067.000 80.000
1063.000 78.000
1026.000 77.000
1030.000 71.000
1040.000 62.000
1039.000 61.000
1036.000 62.000
1023.000 74.000
1009.000 73.000
992.000 74.000
982.000 77.000
970.000 77.000
978.000 68.000
976.000 67.000
967.000 74.000
947.000 74.000
923.000 79.000
914.000 78.000
927.000 62.000
925.000 61.000
911.000 76.000
901.000 76.000
885.000 81.000
871.000 83.000
857.000 79.000
874.000 62.000
873.000 61.000
870.000 62.000
855.000 77.000
843.000 75.000
829.000 75.000
819.000 77.000
805.000 77.000
799.000 79.000
787.000 79.000
800.000 63.000
799.000 61.000
794.000 66.000
791.000 72.000
783.000 78.000
775.000 78.000
761.000 75.000
728.000 78.000
732.000 76.000
737.000 76.000
739.000 74.000
737.000 73.000
718.000 76.000
693.000 76.000
688.000 78.000
675.000 79.000
667.000 77.000
670.000 75.000
669.000 74.000
623.000 74.000
628.000 65.000
627.000 60.000
623.000 70.000
619.000 73.000
608.000 70.000
573.000 70.000
580.000 64.000
579.000 63.000
569.000 69.000
555.000 68.000
547.000 71.000
532.000 72.000
524.000 70.000
531.000 62.000
530.000 60.000
521.000 68.000
501.000 65.000
488.000 68.000
485.000 67.000
478.000 71.000
472.000 66.000
464.000 64.000
449.000 64.000
446.000 62.000
450.000 56.000
450.000 49.000
446.000 58.000
443.000 61.000
429.000 57.000
405.000 58.000
393.000 62.000
399.000 55.000
401.000 51.000
400.000 48.000
394.000 57.000
374.000 50.000
354.000 49.000
332.000 54.000
320.000 63.000
314.000 61.000
312.000 65.000
308.000 69.000
303.000 71.000
281.000 94.000
277.000 103.000
266.000 112.000
257.000 112.000
215.000 105.000
153.000 104.000
126.000 102.000
120.000 100.000
100.000 100.000
91.000 97.000
76.000 98.000
41.000 88.000
30.000 80.000
27.000 82.000
22.000 82.000
22.000 86.000
21.000 85.000
19.000 87.000
19.000 93.000
16.000 95.000
18.000 102.000
25.000 108.000
26.000 107.000
31.000 109.000
53.000 112.000
77.000 112.000
86.000 114.000
112.000 114.000
133.000 116.000
198.000 114.000
220.000 116.000
277.000 126.000
278.000 133.000
275.000 144.000
275.000 152.000
277.000 158.000
276.000 165.000
279.000 172.000
282.000 188.000
286.000 191.000
287.000 195.000
292.000 201.000
295.000 213.000
301.000 219.000
302.000 223.000
309.000 228.000
308.000 230.000
310.000 234.000
319.000 244.000
336.000 256.000
344.000 258.000
348.000 263.000
354.000 266.000
363.000 267.000
369.000 273.000
368.000 283.000
366.000 287.000
367.000 290.000
370.000 285.000
371.000 272.000
369.000 268.000
372.000 267.000
393.000 282.000
401.000 286.000
405.000 286.000
413.000 291.000
427.000 291.000
432.000 294.000
439.000 294.000
441.000 292.000
444.000 293.000
454.000 301.000
444.000 304.000
444.000 306.000
454.000 304.000
456.000 300.000
452.000 294.000
458.000 294.000
466.000 300.000
476.000 303.000
489.000 304.000
496.000 307.000
516.000 307.000
519.000 309.000
520.000 312.000
517.000 320.000
518.000 322.000
523.000 314.000
522.000 308.000
530.000 307.000
539.000 313.000
564.000 320.000
579.000 320.000
586.000 324.000
590.000 333.000
591.000 328.000
585.000 320.000
614.000 330.000
631.000 332.000
643.000 340.000
645.000 339.000
635.000 332.000
647.000 334.000
655.000 338.000
665.000 340.000
686.000 340.000
693.000 343.000
697.000 347.000
699.000 353.000
699.000 346.000
694.000 341.000
698.000 341.000
727.000 351.000
740.000 353.000
757.000 353.000
767.000 361.000
768.000 359.000
766.000 355.000
781.000 359.000
785.000 362.000
800.000 365.000
826.000 365.000
834.000 368.000
837.000 374.000
838.000 371.000
834.000 365.000
854.000 369.000
892.000 369.000
901.000 377.000
907.000 387.000
908.000 383.000
897.000 369.000
898.000 368.000
926.000 368.000
929.000 366.000
938.000 366.000
951.000 363.000
966.000 377.000
970.000 379.000
971.000 378.000
954.000 361.000
964.000 360.000
966.000 362.000
980.000 361.000
985.000 359.000
1001.000 357.000
1004.000 355.000
1014.000 354.000
1029.000 366.000
1030.000 365.000
1016.000 352.000
1034.000 352.000
1050.000 350.000
1070.000 345.000
1092.000 352.000
1092.000 350.000
1075.000 343.000
1088.000 339.000
1095.000 340.000
1113.000 335.000
1134.000 335.000
1143.000 333.000
1160.000 339.000
1160.000 337.000
1146.000 331.000
1147.000 328.000
1153.000 325.000
1167.000 323.000
1175.000 319.000
1184.000 318.000
1193.000 314.000
1210.000 326.000
1211.000 325.000
1197.000 313.000
1198.000 308.000
1217.000 300.000
1237.000 295.000
1241.000 292.000
1261.000 297.000
1262.000 296.000
1259.000 294.000
1246.000 290.000
1262.000 281.000
1279.000 278.000
1286.000 275.000
1292.000 270.000
1313.000 271.000
1315.000 269.000
1314.000 268.000
1309.000 269.000
1297.000 266.000
1309.000 261.000
1335.000 254.000
1340.000 251.000
1345.000 251.000
1357.000 257.000
1364.000 258.000
1364.000 256.000
1359.000 255.000
1345.000 247.000
1357.000 239.000
1363.000 238.000
1379.000 231.000
1395.000 238.000
1395.000 236.000
1390.000 234.000
1383.000 228.000
1390.000 223.000
1400.000 220.000
1413.000 219.000
1421.000 215.000
1425.000 215.000
1445.000 223.000
1445.000 220.000
1435.000 217.000
1424.000 211.000
1432.000 205.000
1452.000 200.000
1461.000 195.000
1483.000 198.000
1483.000 196.000
1474.000 195.000
1463.000 190.000
1472.000 184.000
1485.000 180.000
1502.000 186.000
1503.000 185.000
1501.000 183.000
1498.000 183.000
1488.000 177.000
1492.000 170.000
1496.000 167.000
1516.000 160.000
1539.000 160.000
1539.000 157.000
1522.000 157.000
1524.000 153.000
1540.000 145.000
1559.000 141.000
1582.000 141.000
1585.000 139.000
1584.000 138.000
1565.000 138.000
1569.000 134.000
1574.000 132.000
1583.000 132.000
1589.000 135.000
1600.000 135.000
1600.000 133.000
1588.000 131.000
1601.000 125.000
1614.000 131.000
1617.000 131.000
1618.000 130.000
1616.000 128.000
1609.000 125.000
1616.000 121.000
1620.000 121.000
1623.000 123.000
