ply
format ascii 1.0
comment Dominant contour extracted from bimodal image.
comment scale factor = 0.290909
comment kernel width = 3
comment decimate eps = 1.000000
comment orig shape   = (1375, 1785)
comment threshold    = 151.000000
comment Written with hapPLY (https://github.com/nmwsharp/happly)
element flags 0
property uchar closed
element vertex 136
property double x
property double y
end_header
18.000 234.000
23.000 235.000
64.000 231.000
75.000 235.000
96.000 239.000
120.000 250.000
135.000 261.000
138.000 261.000
148.000 268.000
154.000 270.000
168.000 280.000
171.000 285.000
172.000 293.000
182.000 315.000
184.000 325.000
190.000 334.000
191.000 342.000
194.000 333.000
202.000 332.000
222.000 343.000
239.000 355.000
242.000 354.000
240.000 352.000
238.000 343.000
235.000 301.000
237.000 286.000
240.000 284.000
244.000 284.000
260.000 291.000
277.000 303.000
296.000 323.000
312.000 348.000
326.000 364.000
342.000 365.000
353.000 362.000
384.000 365.000
387.000 361.000
393.000 359.000
416.000 359.000
410.000 352.000
407.000 346.000
406.000 339.000
411.000 325.000
419.000 322.000
415.000 320.000
408.000 309.000
371.000 275.000
361.000 263.000
359.000 257.000
362.000 256.000
371.000 259.000
396.000 259.000
408.000 263.000
424.000 264.000
432.000 268.000
433.000 266.000
430.000 257.000
432.000 247.000
449.000 241.000
463.000 241.000
465.000 239.000
462.000 236.000
462.000 233.000
464.000 231.000
493.000 218.000
483.000 217.000
467.000 208.000
455.000 205.000
451.000 199.000
451.000 192.000
454.000 188.000
453.000 187.000
440.000 188.000
436.000 191.000
390.000 191.000
379.000 189.000
376.000 187.000
376.000 178.000
366.000 178.000
360.000 181.000
343.000 180.000
334.000 177.000
323.000 170.000
321.000 161.000
322.000 156.000
333.000 129.000
376.000 88.000
368.000 85.000
363.000 81.000
360.000 71.000
368.000 40.000
374.000 30.000
380.000 25.000
378.000 24.000
351.000 33.000
344.000 33.000
334.000 29.000
332.000 21.000
313.000 40.000
299.000 49.000
291.000 49.000
275.000 34.000
271.000 28.000
261.000 46.000
255.000 50.000
251.000 50.000
249.000 56.000
248.000 80.000
243.000 98.000
239.000 126.000
231.000 146.000
219.000 163.000
211.000 171.000
195.000 180.000
187.000 180.000
181.000 175.000
173.000 154.000
172.000 122.000
166.000 110.000
163.000 98.000
161.000 104.000
149.000 114.000
138.000 128.000
134.000 129.000
131.000 126.000
131.000 124.000
129.000 124.000
123.000 138.000
121.000 151.000
114.000 165.000
114.000 170.000
102.000 198.000
96.000 204.000
60.000 224.000
20.000 229.000
17.000 231.000
