ply
format ascii 1.0
comment Dominant contour extracted from bimodal image.
comment scale factor = 0.495050
comment kernel width = 3
comment decimate eps = 1.000000
comment orig shape   = (808, 1592)
comment threshold    = 160.000000
comment Written with hapPLY (https://github.com/nmwsharp/happly)
element flags 0
property uchar closed
element vertex 171
property double x
property double y
end_header
771.000 163.000
758.000 162.000
745.000 157.000
741.000 154.000
743.000 151.000
742.000 150.000
723.000 152.000
703.000 152.000
695.000 149.000
693.000 146.000
693.000 136.000
695.000 132.000
702.000 126.000
701.000 125.000
690.000 125.000
680.000 127.000
674.000 127.000
673.000 125.000
648.000 134.000
610.000 141.000
581.000 139.000
565.000 135.000
560.000 132.000
555.000 125.000
555.000 112.000
562.000 100.000
564.000 92.000
569.000 85.000
579.000 63.000
587.000 50.000
590.000 40.000
596.000 31.000
608.000 21.000
606.000 20.000
601.000 23.000
589.000 23.000
570.000 26.000
565.000 29.000
549.000 33.000
540.000 39.000
528.000 38.000
526.000 36.000
525.000 31.000
523.000 33.000
518.000 34.000
504.000 49.000
496.000 54.000
487.000 68.000
474.000 80.000
471.000 85.000
458.000 98.000
446.000 107.000
438.000 111.000
420.000 126.000
403.000 135.000
392.000 138.000
385.000 137.000
377.000 133.000
370.000 126.000
366.000 118.000
366.000 105.000
364.000 98.000
364.000 88.000
362.000 84.000
361.000 58.000
360.000 57.000
353.000 64.000
338.000 66.000
337.000 63.000
330.000 70.000
327.000 77.000
318.000 86.000
313.000 103.000
306.000 109.000
301.000 120.000
289.000 132.000
286.000 138.000
279.000 144.000
275.000 154.000
256.000 173.000
246.000 178.000
236.000 186.000
217.000 194.000
158.000 195.000
103.000 192.000
59.000 186.000
46.000 183.000
34.000 178.000
32.000 179.000
32.000 184.000
36.000 189.000
49.000 189.000
79.000 195.000
150.000 200.000
233.000 201.000
250.000 204.000
279.000 229.000
283.000 230.000
296.000 239.000
302.000 247.000
319.000 263.000
333.000 282.000
364.000 310.000
368.000 318.000
383.000 333.000
384.000 330.000
387.000 329.000
398.000 339.000
403.000 341.000
405.000 343.000
406.000 348.000
410.000 331.000
416.000 322.000
416.000 318.000
421.000 307.000
432.000 298.000
445.000 296.000
468.000 302.000
474.000 302.000
490.000 309.000
498.000 310.000
506.000 315.000
518.000 319.000
539.000 337.000
552.000 344.000
562.000 353.000
578.000 361.000
584.000 366.000
594.000 371.000
600.000 372.000
606.000 378.000
607.000 376.000
602.000 369.000
603.000 357.000
605.000 353.000
609.000 350.000
622.000 349.000
643.000 352.000
645.000 348.000
654.000 345.000
665.000 344.000
674.000 339.000
688.000 338.000
676.000 337.000
668.000 334.000
640.000 308.000
626.000 286.000
614.000 275.000
607.000 264.000
606.000 257.000
610.000 246.000
630.000 231.000
638.000 228.000
653.000 219.000
676.000 213.000
705.000 213.000
714.000 209.000
726.000 207.000
726.000 205.000
720.000 205.000
717.000 201.000
717.000 196.000
720.000 191.000
729.000 185.000
741.000 183.000
748.000 180.000
755.000 180.000
755.000 178.000
751.000 177.000
752.000 174.000
759.000 168.000
