ply
format ascii 1.0
comment Dominant contour extracted from bimodal image.
comment scale factor = 0.176445
comment kernel width = 3
comment decimate eps = 1.000000
comment orig shape   = (2267, 2772)
comment threshold    = 166.000000
comment Written with hapPLY (https://github.com/nmwsharp/happly)
element flags 0
property uchar closed
element vertex 182
property double x
property double y
end_header
14.000 229.000
21.000 230.000
43.000 226.000
65.000 225.000
75.000 236.000
88.000 257.000
95.000 263.000
99.000 269.000
108.000 290.000
121.000 300.000
124.000 299.000
123.000 292.000
125.000 284.000
124.000 279.000
126.000 261.000
132.000 256.000
139.000 260.000
145.000 268.000
154.000 290.000
154.000 311.000
156.000 314.000
154.000 336.000
157.000 340.000
160.000 356.000
162.000 357.000
168.000 353.000
177.000 353.000
184.000 355.000
191.000 359.000
206.000 374.000
212.000 378.000
213.000 375.000
208.000 364.000
207.000 348.000
211.000 342.000
215.000 341.000
214.000 330.000
211.000 324.000
209.000 314.000
208.000 290.000
212.000 269.000
220.000 258.000
227.000 255.000
236.000 257.000
246.000 264.000
253.000 272.000
266.000 300.000
270.000 318.000
270.000 345.000
272.000 345.000
276.000 349.000
294.000 375.000
298.000 366.000
306.000 355.000
316.000 347.000
323.000 347.000
332.000 350.000
347.000 360.000
348.000 358.000
353.000 357.000
375.000 365.000
377.000 364.000
365.000 341.000
365.000 336.000
368.000 333.000
360.000 320.000
357.000 309.000
357.000 301.000
361.000 291.000
369.000 286.000
362.000 275.000
354.000 267.000
352.000 262.000
348.000 259.000
348.000 255.000
351.000 252.000
367.000 249.000
390.000 257.000
400.000 258.000
401.000 256.000
399.000 253.000
399.000 247.000
403.000 242.000
412.000 236.000
424.000 237.000
430.000 240.000
438.000 241.000
439.000 237.000
446.000 233.000
472.000 231.000
464.000 226.000
460.000 221.000
452.000 219.000
432.000 208.000
426.000 201.000
425.000 196.000
407.000 195.000
398.000 192.000
376.000 178.000
371.000 172.000
371.000 162.000
374.000 153.000
383.000 136.000
399.000 121.000
412.000 113.000
407.000 109.000
407.000 106.000
410.000 100.000
422.000 85.000
430.000 70.000
417.000 70.000
411.000 74.000
396.000 77.000
391.000 74.000
390.000 68.000
364.000 82.000
358.000 87.000
351.000 89.000
348.000 85.000
344.000 68.000
344.000 62.000
337.000 45.000
337.000 38.000
327.000 49.000
320.000 54.000
315.000 62.000
309.000 64.000
308.000 62.000
303.000 75.000
301.000 93.000
297.000 105.000
285.000 133.000
276.000 148.000
262.000 162.000
245.000 170.000
238.000 167.000
233.000 151.000
233.000 143.000
236.000 128.000
239.000 119.000
254.000 98.000
260.000 83.000
255.000 81.000
248.000 65.000
250.000 49.000
256.000 34.000
252.000 31.000
253.000 19.000
259.000 9.000
258.000 7.000
235.000 21.000
228.000 22.000
226.000 20.000
218.000 35.000
213.000 40.000
201.000 46.000
190.000 47.000
185.000 42.000
183.000 44.000
180.000 57.000
176.000 61.000
177.000 89.000
172.000 98.000
169.000 113.000
162.000 134.000
154.000 145.000
143.000 154.000
137.000 153.000
133.000 150.000
120.000 133.000
118.000 135.000
113.000 147.000
112.000 168.000
106.000 177.000
99.000 193.000
84.000 211.000
85.000 213.000
84.000 211.000
76.000 219.000
39.000 222.000
34.000 224.000
15.000 226.000
