ply
format ascii 1.0
comment Dominant contour extracted from bimodal image.
comment scale factor = 0.188324
comment kernel width = 3
comment decimate eps = 1.000000
comment orig shape   = (2124, 2905)
comment threshold    = 158.000000
comment Written with hapPLY (https://github.com/nmwsharp/happly)
element flags 0
property uchar closed
element vertex 176
property double x
property double y
end_header
7.000 209.000
10.000 211.000
32.000 206.000
52.000 204.000
75.000 204.000
88.000 206.000
99.000 215.000
112.000 231.000
128.000 246.000
127.000 249.000
131.000 258.000
142.000 275.000
152.000 295.000
160.000 327.000
160.000 339.000
162.000 349.000
167.000 360.000
170.000 357.000
175.000 357.000
183.000 362.000
191.000 371.000
193.000 376.000
200.000 382.000
206.000 390.000
207.000 357.000
211.000 354.000
208.000 337.000
206.000 333.000
207.000 316.000
200.000 289.000
200.000 275.000
202.000 264.000
208.000 255.000
213.000 251.000
220.000 249.000
239.000 253.000
251.000 260.000
265.000 271.000
273.000 284.000
283.000 317.000
286.000 364.000
289.000 364.000
305.000 383.000
308.000 391.000
317.000 372.000
323.000 367.000
332.000 363.000
362.000 360.000
373.000 366.000
382.000 374.000
384.000 372.000
391.000 372.000
406.000 375.000
408.000 377.000
409.000 376.000
408.000 369.000
403.000 359.000
401.000 350.000
403.000 341.000
405.000 339.000
408.000 339.000
409.000 337.000
386.000 307.000
380.000 289.000
372.000 276.000
368.000 266.000
368.000 261.000
370.000 257.000
381.000 246.000
390.000 243.000
402.000 244.000
415.000 248.000
425.000 254.000
454.000 257.000
455.000 255.000
445.000 235.000
447.000 228.000
465.000 224.000
477.000 227.000
489.000 226.000
490.000 225.000
487.000 221.000
493.000 215.000
507.000 212.000
531.000 212.000
539.000 209.000
502.000 197.000
499.000 194.000
499.000 191.000
484.000 189.000
465.000 182.000
464.000 180.000
466.000 170.000
471.000 161.000
476.000 156.000
475.000 155.000
467.000 156.000
463.000 154.000
455.000 154.000
433.000 160.000
417.000 160.000
394.000 155.000
383.000 147.000
382.000 132.000
395.000 97.000
396.000 83.000
406.000 59.000
403.000 57.000
403.000 49.000
405.000 39.000
408.000 34.000
409.000 26.000
413.000 17.000
413.000 6.000
407.000 15.000
405.000 15.000
400.000 20.000
394.000 21.000
386.000 28.000
377.000 30.000
374.000 28.000
373.000 25.000
355.000 36.000
346.000 35.000
338.000 31.000
329.000 22.000
326.000 16.000
326.000 12.000
312.000 24.000
306.000 32.000
298.000 48.000
296.000 50.000
293.000 48.000
292.000 49.000
292.000 73.000
289.000 79.000
287.000 95.000
281.000 112.000
279.000 123.000
271.000 139.000
241.000 161.000
230.000 165.000
227.000 165.000
225.000 163.000
214.000 140.000
215.000 105.000
222.000 88.000
226.000 73.000
225.000 71.000
223.000 71.000
221.000 64.000
221.000 52.000
224.000 45.000
223.000 37.000
226.000 32.000
224.000 31.000
210.000 42.000
207.000 42.000
193.000 61.000
188.000 64.000
184.000 64.000
180.000 60.000
179.000 61.000
179.000 66.000
175.000 75.000
174.000 90.000
162.000 124.000
156.000 132.000
151.000 143.000
135.000 161.000
122.000 171.000
108.000 179.000
99.000 187.000
81.000 197.000
33.000 201.000
8.000 206.000
