ply
format ascii 1.0
comment Dominant contour extracted from bimodal image.
comment scale factor = 0.258732
comment kernel width = 3
comment decimate eps = 1.000000
comment orig shape   = (1546, 2750)
comment threshold    = 172.500000
comment Written with hapPLY (https://github.com/nmwsharp/happly)
element flags 0
property uchar closed
element vertex 154
property double x
property double y
end_header
16.000 276.000
18.000 281.000
71.000 276.000
116.000 279.000
126.000 283.000
136.000 284.000
148.000 289.000
154.000 289.000
155.000 291.000
158.000 291.000
171.000 297.000
179.000 303.000
183.000 304.000
188.000 309.000
192.000 310.000
207.000 330.000
211.000 333.000
230.000 369.000
236.000 373.000
239.000 373.000
241.000 376.000
249.000 356.000
249.000 348.000
254.000 340.000
256.000 331.000
265.000 316.000
265.000 312.000
270.000 310.000
275.000 305.000
285.000 301.000
302.000 302.000
313.000 310.000
314.000 314.000
324.000 325.000
329.000 336.000
334.000 336.000
340.000 339.000
349.000 349.000
350.000 354.000
352.000 349.000
362.000 350.000
371.000 348.000
386.000 342.000
396.000 335.000
405.000 331.000
421.000 328.000
429.000 329.000
433.000 327.000
449.000 328.000
476.000 336.000
482.000 340.000
492.000 343.000
498.000 349.000
519.000 361.000
532.000 364.000
539.000 368.000
547.000 369.000
550.000 372.000
553.000 359.000
570.000 339.000
608.000 339.000
626.000 337.000
629.000 329.000
638.000 319.000
659.000 307.000
680.000 303.000
693.000 306.000
697.000 305.000
692.000 303.000
684.000 295.000
667.000 285.000
664.000 281.000
663.000 276.000
635.000 262.000
632.000 256.000
627.000 251.000
622.000 235.000
623.000 228.000
621.000 224.000
621.000 208.000
629.000 196.000
628.000 195.000
625.000 197.000
614.000 195.000
607.000 196.000
599.000 193.000
565.000 190.000
550.000 192.000
526.000 200.000
502.000 202.000
493.000 201.000
485.000 198.000
476.000 192.000
465.000 181.000
459.000 172.000
452.000 155.000
451.000 138.000
457.000 116.000
470.000 94.000
476.000 88.000
469.000 82.000
465.000 68.000
465.000 53.000
468.000 31.000
467.000 28.000
469.000 23.000
472.000 21.000
471.000 19.000
464.000 21.000
455.000 21.000
441.000 27.000
415.000 29.000
408.000 28.000
404.000 22.000
373.000 53.000
358.000 59.000
342.000 61.000
330.000 56.000
328.000 52.000
326.000 67.000
323.000 74.000
321.000 86.000
321.000 111.000
312.000 152.000
311.000 163.000
294.000 191.000
277.000 209.000
267.000 212.000
259.000 210.000
251.000 204.000
240.000 184.000
235.000 165.000
228.000 149.000
216.000 130.000
214.000 123.000
211.000 130.000
200.000 143.000
197.000 149.000
193.000 152.000
189.000 150.000
185.000 160.000
185.000 171.000
183.000 178.000
184.000 182.000
180.000 189.000
178.000 198.000
168.000 211.000
161.000 224.000
154.000 232.000
122.000 252.000
108.000 259.000
80.000 269.000
38.000 274.000
20.000 274.000
