ply
format ascii 1.0
comment Dominant contour extracted from bimodal image.
comment scale factor = 0.321543
comment kernel width = 3
comment decimate eps = 1.000000
comment orig shape   = (1244, 2501)
comment threshold    = 165.500000
comment Written with hapPLY (https://github.com/nmwsharp/happly)
element flags 0
property uchar closed
element vertex 122
property double x
property double y
end_header
773.000 218.000
755.000 212.000
742.000 204.000
734.000 197.000
718.000 174.000
713.000 162.000
713.000 151.000
716.000 140.000
720.000 135.000
719.000 134.000
715.000 135.000
689.000 127.000
674.000 125.000
627.000 128.000
609.000 123.000
598.000 112.000
588.000 91.000
583.000 76.000
583.000 67.000
581.000 60.000
583.000 38.000
585.000 36.000
589.000 36.000
589.000 34.000
575.000 34.000
552.000 37.000
529.000 43.000
499.000 60.000
478.000 76.000
457.000 84.000
450.000 84.000
433.000 77.000
423.000 66.000
421.000 58.000
420.000 67.000
394.000 92.000
372.000 121.000
363.000 129.000
347.000 135.000
338.000 134.000
332.000 130.000
325.000 116.000
324.000 108.000
321.000 101.000
321.000 93.000
304.000 103.000
297.000 110.000
294.000 116.000
283.000 129.000
268.000 141.000
255.000 147.000
232.000 161.000
217.000 164.000
188.000 175.000
162.000 180.000
140.000 180.000
71.000 172.000
50.000 168.000
36.000 163.000
31.000 163.000
30.000 164.000
33.000 165.000
22.000 167.000
20.000 172.000
21.000 176.000
30.000 173.000
47.000 174.000
77.000 179.000
125.000 184.000
144.000 191.000
157.000 194.000
195.000 209.000
218.000 215.000
245.000 228.000
263.000 244.000
282.000 274.000
289.000 290.000
324.000 316.000
329.000 322.000
332.000 310.000
337.000 301.000
339.000 279.000
346.000 262.000
353.000 254.000
360.000 250.000
373.000 251.000
386.000 257.000
396.000 264.000
410.000 279.000
420.000 298.000
429.000 321.000
430.000 327.000
439.000 343.000
440.000 349.000
442.000 344.000
446.000 341.000
474.000 343.000
484.000 347.000
508.000 364.000
529.000 370.000
538.000 371.000
551.000 376.000
570.000 375.000
563.000 368.000
560.000 358.000
560.000 331.000
566.000 311.000
570.000 303.000
578.000 295.000
582.000 293.000
602.000 293.000
614.000 300.000
617.000 300.000
628.000 305.000
664.000 307.000
672.000 310.000
672.000 283.000
679.000 271.000
689.000 260.000
715.000 243.000
723.000 236.000
755.000 223.000
