ply
format ascii 1.0
comment Dominant contour extracted from bimodal image.
comment scale factor = 0.457666
comment kernel width = 3
comment decimate eps = 1.000000
comment orig shape   = (874, 1336)
comment threshold    = 167.500000
comment Written with hapPLY (https://github.com/nmwsharp/happly)
element flags 0
property uchar closed
element vertex 170
property double x
property double y
end_header
563.000 128.000
561.000 127.000
556.000 130.000
541.000 131.000
537.000 133.000
526.000 133.000
523.000 130.000
522.000 123.000
496.000 140.000
486.000 141.000
481.000 134.000
478.000 120.000
480.000 105.000
482.000 101.000
481.000 99.000
475.000 105.000
455.000 114.000
449.000 119.000
442.000 122.000
433.000 130.000
419.000 138.000
410.000 141.000
401.000 141.000
393.000 139.000
386.000 135.000
386.000 126.000
379.000 108.000
380.000 86.000
382.000 75.000
387.000 64.000
386.000 62.000
384.000 65.000
375.000 71.000
345.000 85.000
338.000 84.000
335.000 80.000
334.000 74.000
324.000 84.000
322.000 91.000
317.000 95.000
309.000 112.000
305.000 116.000
301.000 128.000
298.000 132.000
300.000 134.000
300.000 137.000
287.000 149.000
278.000 150.000
278.000 148.000
274.000 146.000
271.000 141.000
266.000 124.000
266.000 119.000
262.000 109.000
260.000 93.000
259.000 92.000
257.000 96.000
248.000 105.000
242.000 108.000
239.000 101.000
237.000 105.000
227.000 115.000
221.000 132.000
217.000 135.000
211.000 145.000
205.000 151.000
203.000 157.000
199.000 161.000
199.000 165.000
195.000 170.000
195.000 175.000
189.000 180.000
181.000 183.000
168.000 194.000
170.000 195.000
161.000 195.000
151.000 200.000
135.000 205.000
114.000 205.000
70.000 201.000
37.000 200.000
23.000 196.000
14.000 196.000
21.000 203.000
44.000 206.000
82.000 206.000
122.000 210.000
135.000 213.000
150.000 221.000
164.000 235.000
167.000 249.000
176.000 262.000
188.000 290.000
195.000 298.000
197.000 304.000
201.000 308.000
207.000 319.000
215.000 327.000
217.000 322.000
225.000 322.000
239.000 332.000
240.000 331.000
237.000 326.000
236.000 319.000
244.000 303.000
247.000 301.000
246.000 283.000
248.000 277.000
257.000 268.000
266.000 267.000
273.000 269.000
292.000 289.000
296.000 297.000
310.000 311.000
315.000 320.000
326.000 331.000
328.000 338.000
334.000 348.000
351.000 364.000
353.000 368.000
356.000 353.000
360.000 348.000
371.000 348.000
378.000 351.000
390.000 353.000
404.000 352.000
420.000 353.000
425.000 356.000
427.000 355.000
419.000 350.000
401.000 329.000
400.000 324.000
390.000 305.000
388.000 297.000
388.000 274.000
386.000 268.000
387.000 258.000
390.000 251.000
401.000 241.000
410.000 236.000
421.000 236.000
435.000 241.000
440.000 245.000
451.000 250.000
468.000 252.000
478.000 256.000
479.000 255.000
475.000 249.000
476.000 246.000
488.000 238.000
514.000 234.000
519.000 231.000
532.000 231.000
532.000 229.000
521.000 228.000
504.000 218.000
496.000 209.000
495.000 201.000
498.000 195.000
511.000 184.000
521.000 180.000
528.000 179.000
537.000 173.000
545.000 171.000
538.000 170.000
536.000 168.000
537.000 160.000
541.000 154.000
555.000 140.000
559.000 132.000
