ply
format ascii 1.0
comment Dominant contour extracted from bimodal image.
comment scale factor = 0.201918
comment kernel width = 3
comment decimate eps = 1.000000
comment orig shape   = (1981, 3057)
comment threshold    = 152.500000
comment Written with hapPLY (https://github.com/nmwsharp/happly)
element flags 0
property uchar closed
element vertex 185
property double x
property double y
end_header
611.000 184.000
597.000 178.000
592.000 178.000
589.000 174.000
553.000 174.000
551.000 172.000
551.000 167.000
555.000 150.000
554.000 146.000
558.000 135.000
557.000 133.000
550.000 136.000
533.000 136.000
529.000 131.000
524.000 133.000
513.000 143.000
500.000 149.000
493.000 150.000
474.000 147.000
466.000 142.000
457.000 139.000
451.000 133.000
449.000 129.000
449.000 114.000
454.000 94.000
458.000 87.000
478.000 63.000
473.000 61.000
470.000 57.000
469.000 46.000
473.000 32.000
478.000 22.000
483.000 16.000
482.000 15.000
467.000 20.000
463.000 20.000
459.000 17.000
448.000 27.000
437.000 27.000
435.000 26.000
435.000 22.000
433.000 21.000
416.000 35.000
408.000 37.000
392.000 32.000
385.000 26.000
381.000 17.000
378.000 25.000
366.000 39.000
361.000 40.000
361.000 83.000
357.000 106.000
350.000 124.000
344.000 132.000
332.000 143.000
318.000 149.000
305.000 148.000
298.000 141.000
291.000 116.000
292.000 99.000
301.000 68.000
301.000 58.000
295.000 57.000
291.000 51.000
290.000 36.000
292.000 29.000
289.000 26.000
291.000 17.000
290.000 14.000
275.000 26.000
273.000 26.000
272.000 24.000
268.000 30.000
265.000 39.000
257.000 47.000
251.000 49.000
244.000 44.000
243.000 45.000
239.000 67.000
240.000 81.000
237.000 96.000
237.000 119.000
232.000 135.000
225.000 142.000
220.000 143.000
216.000 141.000
211.000 132.000
205.000 138.000
193.000 155.000
182.000 165.000
163.000 177.000
147.000 184.000
117.000 186.000
42.000 185.000
25.000 182.000
15.000 182.000
13.000 184.000
15.000 186.000
27.000 190.000
82.000 191.000
171.000 188.000
195.000 203.000
204.000 212.000
211.000 222.000
214.000 230.000
230.000 254.000
235.000 259.000
246.000 235.000
251.000 230.000
260.000 231.000
268.000 240.000
278.000 262.000
280.000 270.000
280.000 281.000
283.000 293.000
282.000 316.000
289.000 323.000
291.000 339.000
294.000 345.000
295.000 352.000
296.000 353.000
300.000 349.000
304.000 348.000
314.000 350.000
319.000 355.000
329.000 370.000
333.000 369.000
347.000 383.000
347.000 348.000
349.000 344.000
354.000 343.000
352.000 340.000
343.000 307.000
341.000 296.000
341.000 281.000
343.000 274.000
351.000 259.000
356.000 256.000
365.000 256.000
374.000 261.000
383.000 270.000
400.000 297.000
407.000 312.000
410.000 329.000
415.000 342.000
416.000 358.000
419.000 368.000
421.000 370.000
425.000 370.000
440.000 382.000
448.000 392.000
452.000 379.000
464.000 360.000
469.000 345.000
472.000 343.000
484.000 350.000
507.000 356.000
514.000 360.000
519.000 361.000
521.000 357.000
525.000 357.000
535.000 361.000
540.000 361.000
542.000 363.000
544.000 362.000
537.000 351.000
537.000 345.000
524.000 333.000
512.000 315.000
509.000 300.000
509.000 280.000
497.000 253.000
497.000 242.000
501.000 240.000
546.000 238.000
547.000 237.000
544.000 233.000
543.000 228.000
549.000 219.000
569.000 213.000
569.000 205.000
574.000 200.000
582.000 196.000
593.000 195.000
597.000 189.000
