ply
format ascii 1.0
comment Dominant contour extracted from bimodal image.
comment scale factor = 0.331400
comment kernel width = 3
comment decimate eps = 1.000000
comment orig shape   = (1207, 1706)
comment threshold    = 165.500000
comment Written with hapPLY (https://github.com/nmwsharp/happly)
element flags 0
property uchar closed
element vertex 137
property double x
property double y
end_header
545.000 172.000
517.000 170.000
504.000 166.000
500.000 163.000
500.000 153.000
470.000 158.000
449.000 159.000
435.000 154.000
435.000 151.000
426.000 151.000
420.000 154.000
408.000 156.000
399.000 155.000
392.000 151.000
390.000 146.000
390.000 134.000
393.000 127.000
395.000 109.000
384.000 62.000
383.000 35.000
386.000 16.000
385.000 15.000
381.000 20.000
358.000 31.000
355.000 34.000
344.000 38.000
338.000 38.000
333.000 36.000
322.000 25.000
320.000 19.000
319.000 24.000
312.000 34.000
301.000 57.000
297.000 57.000
297.000 69.000
295.000 77.000
285.000 102.000
283.000 104.000
284.000 106.000
282.000 107.000
272.000 129.000
264.000 140.000
258.000 155.000
246.000 172.000
244.000 178.000
238.000 181.000
230.000 189.000
226.000 191.000
222.000 197.000
218.000 197.000
211.000 201.000
208.000 206.000
201.000 206.000
153.000 226.000
138.000 229.000
83.000 229.000
63.000 227.000
55.000 224.000
42.000 222.000
34.000 222.000
28.000 219.000
15.000 217.000
14.000 219.000
18.000 224.000
25.000 227.000
24.000 228.000
28.000 230.000
58.000 231.000
99.000 235.000
140.000 235.000
161.000 240.000
180.000 249.000
183.000 248.000
186.000 250.000
187.000 248.000
187.000 250.000
182.000 248.000
181.000 249.000
183.000 251.000
205.000 262.000
216.000 274.000
245.000 299.000
268.000 322.000
282.000 340.000
296.000 354.000
301.000 357.000
303.000 362.000
306.000 354.000
314.000 354.000
328.000 362.000
333.000 363.000
338.000 367.000
339.000 364.000
337.000 355.000
341.000 345.000
342.000 334.000
348.000 323.000
356.000 318.000
370.000 320.000
391.000 329.000
402.000 331.000
423.000 343.000
427.000 343.000
430.000 346.000
437.000 347.000
442.000 350.000
450.000 351.000
453.000 353.000
454.000 344.000
465.000 339.000
493.000 335.000
509.000 337.000
510.000 336.000
492.000 309.000
492.000 298.000
498.000 294.000
492.000 292.000
488.000 288.000
464.000 273.000
449.000 257.000
429.000 242.000
424.000 236.000
423.000 232.000
425.000 227.000
429.000 224.000
443.000 220.000
445.000 218.000
459.000 215.000
465.000 211.000
497.000 210.000
502.000 208.000
505.000 209.000
506.000 208.000
504.000 205.000
504.000 201.000
509.000 195.000
524.000 187.000
