ply
format ascii 1.0
comment Dominant contour extracted from bimodal image.
comment scale factor = 0.166389
comment kernel width = 3
comment decimate eps = 1.000000
comment orig shape   = (2404, 3062)
comment threshold    = 163.500000
comment Written with hapPLY (https://github.com/nmwsharp/happly)
element flags 0
property uchar closed
element vertex 177
property double x
property double y
end_header
336.000 397.000
337.000 393.000
334.000 381.000
325.000 363.000
323.000 355.000
323.000 346.000
326.000 344.000
323.000 342.000
319.000 334.000
316.000 332.000
310.000 319.000
304.000 286.000
301.000 278.000
301.000 266.000
307.000 255.000
313.000 249.000
321.000 244.000
334.000 241.000
353.000 246.000
356.000 249.000
376.000 258.000
376.000 255.000
379.000 253.000
389.000 254.000
398.000 257.000
399.000 256.000
393.000 245.000
393.000 239.000
390.000 229.000
391.000 218.000
398.000 209.000
406.000 205.000
425.000 202.000
429.000 199.000
428.000 198.000
431.000 194.000
438.000 191.000
451.000 190.000
451.000 186.000
454.000 182.000
463.000 178.000
475.000 176.000
476.000 175.000
474.000 174.000
476.000 172.000
485.000 168.000
498.000 159.000
483.000 159.000
475.000 162.000
468.000 162.000
463.000 159.000
455.000 161.000
438.000 160.000
433.000 157.000
429.000 149.000
432.000 140.000
431.000 137.000
422.000 141.000
416.000 140.000
412.000 144.000
401.000 149.000
394.000 155.000
373.000 160.000
361.000 160.000
358.000 162.000
337.000 160.000
321.000 154.000
314.000 154.000
292.000 145.000
286.000 134.000
285.000 107.000
288.000 95.000
289.000 82.000
296.000 64.000
293.000 58.000
293.000 50.000
295.000 47.000
295.000 39.000
300.000 27.000
301.000 18.000
304.000 10.000
303.000 7.000
294.000 20.000
286.000 27.000
283.000 33.000
278.000 37.000
275.000 36.000
271.000 45.000
253.000 60.000
240.000 58.000
224.000 42.000
223.000 43.000
223.000 60.000
220.000 64.000
218.000 72.000
216.000 74.000
212.000 74.000
214.000 86.000
214.000 102.000
208.000 131.000
198.000 146.000
179.000 163.000
167.000 168.000
158.000 158.000
156.000 148.000
154.000 145.000
157.000 114.000
152.000 114.000
142.000 76.000
138.000 81.000
137.000 88.000
134.000 91.000
130.000 100.000
127.000 104.000
124.000 103.000
122.000 106.000
120.000 118.000
121.000 124.000
118.000 132.000
119.000 135.000
114.000 143.000
109.000 158.000
88.000 185.000
76.000 194.000
55.000 202.000
41.000 203.000
8.000 200.000
7.000 204.000
19.000 206.000
51.000 207.000
66.000 210.000
70.000 212.000
90.000 234.000
93.000 235.000
100.000 250.000
105.000 256.000
105.000 260.000
111.000 270.000
114.000 283.000
116.000 285.000
116.000 303.000
114.000 314.000
115.000 323.000
117.000 325.000
122.000 324.000
128.000 330.000
130.000 334.000
131.000 348.000
133.000 349.000
133.000 354.000
136.000 360.000
140.000 348.000
146.000 341.000
149.000 331.000
155.000 322.000
159.000 301.000
163.000 294.000
170.000 274.000
184.000 266.000
202.000 265.000
218.000 290.000
224.000 305.000
225.000 313.000
231.000 330.000
231.000 355.000
235.000 355.000
246.000 373.000
248.000 366.000
255.000 355.000
266.000 350.000
274.000 351.000
297.000 361.000
311.000 375.000
313.000 373.000
322.000 382.000
325.000 383.000
332.000 390.000
