ply
format ascii 1.0
comment Dominant contour extracted from bimodal image.
comment scale factor = 0.404449
comment kernel width = 3
comment decimate eps = 1.000000
comment orig shape   = (989, 1715)
comment threshold    = 164.500000
comment Written with hapPLY (https://github.com/nmwsharp/happly)
element flags 0
property uchar closed
element vertex 212
property double x
property double y
end_header
670.000 144.000
647.000 143.000
642.000 139.000
641.000 133.000
631.000 134.000
617.000 141.000
606.000 141.000
601.000 136.000
599.000 130.000
600.000 119.000
603.000 113.000
602.000 111.000
594.000 118.000
587.000 120.000
581.000 124.000
571.000 126.000
558.000 135.000
549.000 136.000
540.000 139.000
534.000 143.000
530.000 143.000
520.000 147.000
508.000 147.000
505.000 144.000
502.000 136.000
502.000 116.000
504.000 112.000
506.000 99.000
515.000 82.000
517.000 74.000
521.000 71.000
515.000 69.000
512.000 66.000
511.000 50.000
514.000 44.000
512.000 33.000
515.000 23.000
518.000 19.000
517.000 17.000
497.000 27.000
486.000 27.000
483.000 23.000
467.000 39.000
456.000 45.000
449.000 44.000
440.000 40.000
434.000 34.000
430.000 26.000
428.000 33.000
423.000 39.000
418.000 50.000
409.000 57.000
406.000 57.000
404.000 55.000
403.000 56.000
401.000 68.000
404.000 75.000
403.000 83.000
406.000 90.000
406.000 106.000
408.000 110.000
408.000 115.000
404.000 122.000
401.000 134.000
385.000 151.000
380.000 153.000
368.000 152.000
363.000 147.000
363.000 142.000
359.000 131.000
359.000 120.000
367.000 101.000
370.000 89.000
369.000 79.000
371.000 77.000
366.000 77.000
362.000 73.000
360.000 65.000
360.000 41.000
350.000 52.000
347.000 51.000
339.000 58.000
330.000 63.000
322.000 63.000
319.000 60.000
317.000 53.000
316.000 57.000
310.000 63.000
308.000 68.000
305.000 70.000
298.000 81.000
295.000 92.000
284.000 108.000
284.000 113.000
279.000 118.000
278.000 125.000
271.000 135.000
268.000 146.000
245.000 165.000
234.000 169.000
216.000 179.000
177.000 190.000
159.000 190.000
131.000 187.000
125.000 185.000
114.000 185.000
102.000 182.000
91.000 182.000
48.000 175.000
39.000 171.000
28.000 171.000
25.000 169.000
22.000 170.000
30.000 180.000
40.000 184.000
108.000 190.000
154.000 198.000
169.000 199.000
186.000 205.000
199.000 213.000
213.000 219.000
219.000 219.000
230.000 224.000
239.000 225.000
251.000 229.000
259.000 234.000
266.000 241.000
271.000 250.000
278.000 257.000
288.000 276.000
293.000 281.000
295.000 287.000
298.000 290.000
304.000 306.000
308.000 311.000
309.000 316.000
318.000 327.000
320.000 332.000
322.000 332.000
322.000 326.000
324.000 323.000
329.000 322.000
342.000 329.000
358.000 343.000
368.000 349.000
370.000 352.000
371.000 350.000
369.000 347.000
367.000 336.000
368.000 322.000
366.000 318.000
365.000 306.000
366.000 282.000
371.000 271.000
379.000 260.000
385.000 257.000
399.000 258.000
414.000 268.000
418.000 275.000
428.000 285.000
434.000 294.000
437.000 302.000
447.000 318.000
448.000 323.000
455.000 334.000
456.000 339.000
463.000 353.000
466.000 366.000
471.000 374.000
472.000 372.000
479.000 372.000
485.000 375.000
498.000 389.000
503.000 400.000
504.000 394.000
515.000 375.000
522.000 369.000
529.000 366.000
548.000 367.000
558.000 370.000
576.000 372.000
579.000 374.000
581.000 367.000
591.000 363.000
622.000 361.000
617.000 359.000
597.000 340.000
594.000 334.000
594.000 331.000
596.000 329.000
575.000 314.000
552.000 290.000
546.000 281.000
540.000 266.000
540.000 247.000
545.000 238.000
550.000 233.000
567.000 223.000
586.000 217.000
593.000 217.000
624.000 211.000
625.000 210.000
621.000 207.000
618.000 199.000
621.000 190.000
626.000 185.000
637.000 179.000
645.000 179.000
659.000 172.000
656.000 171.000
652.000 166.000
653.000 162.000
