ply
format ascii 1.0
comment Dominant contour extracted from bimodal image.
comment scale factor = 0.467836
comment kernel width = 3
comment decimate eps = 1.000000
comment orig shape   = (855, 1914)
comment threshold    = 148.500000
comment Written with hapPLY (https://github.com/nmwsharp/happly)
element flags 0
property uchar closed
element vertex 191
property double x
property double y
end_header
854.000 221.000
853.000 219.000
847.000 223.000
835.000 217.000
821.000 216.000
797.000 202.000
792.000 197.000
792.000 183.000
797.000 175.000
796.000 167.000
786.000 171.000
780.000 171.000
777.000 168.000
761.000 164.000
751.000 165.000
737.000 158.000
724.000 157.000
721.000 154.000
703.000 145.000
699.000 131.000
705.000 101.000
703.000 96.000
704.000 87.000
702.000 81.000
702.000 75.000
706.000 71.000
705.000 69.000
702.000 72.000
697.000 72.000
692.000 69.000
669.000 69.000
663.000 70.000
654.000 75.000
646.000 75.000
641.000 73.000
629.000 75.000
626.000 72.000
617.000 68.000
612.000 68.000
609.000 65.000
608.000 60.000
598.000 72.000
598.000 77.000
592.000 81.000
586.000 88.000
583.000 97.000
578.000 104.000
565.000 113.000
554.000 124.000
539.000 133.000
518.000 139.000
505.000 139.000
495.000 135.000
488.000 127.000
482.000 109.000
479.000 88.000
482.000 83.000
483.000 68.000
481.000 64.000
481.000 59.000
477.000 52.000
478.000 48.000
474.000 38.000
475.000 36.000
473.000 30.000
472.000 34.000
467.000 39.000
459.000 43.000
449.000 55.000
443.000 54.000
443.000 51.000
441.000 51.000
436.000 63.000
436.000 74.000
418.000 104.000
398.000 113.000
388.000 113.000
384.000 110.000
382.000 104.000
379.000 101.000
374.000 111.000
363.000 117.000
344.000 134.000
329.000 141.000
312.000 142.000
302.000 138.000
297.000 133.000
293.000 125.000
287.000 107.000
281.000 113.000
274.000 125.000
267.000 131.000
254.000 138.000
240.000 142.000
242.000 138.000
234.000 136.000
227.000 140.000
231.000 145.000
195.000 152.000
177.000 152.000
153.000 149.000
124.000 142.000
111.000 137.000
107.000 137.000
62.000 120.000
50.000 111.000
45.000 109.000
37.000 102.000
36.000 103.000
35.000 101.000
32.000 103.000
34.000 105.000
28.000 110.000
41.000 124.000
116.000 149.000
181.000 166.000
216.000 182.000
240.000 196.000
268.000 208.000
281.000 216.000
301.000 222.000
320.000 239.000
336.000 249.000
349.000 262.000
354.000 273.000
361.000 281.000
362.000 289.000
367.000 298.000
379.000 308.000
389.000 311.000
392.000 316.000
396.000 305.000
401.000 300.000
401.000 293.000
405.000 287.000
404.000 279.000
408.000 273.000
411.000 259.000
414.000 254.000
420.000 248.000
425.000 246.000
436.000 246.000
449.000 250.000
458.000 255.000
472.000 266.000
490.000 287.000
502.000 322.000
509.000 334.000
524.000 352.000
524.000 346.000
531.000 341.000
547.000 345.000
561.000 346.000
566.000 350.000
583.000 357.000
586.000 361.000
588.000 359.000
594.000 363.000
601.000 365.000
601.000 367.000
609.000 377.000
609.000 364.000
617.000 355.000
622.000 341.000
622.000 298.000
628.000 286.000
636.000 278.000
646.000 276.000
669.000 278.000
693.000 288.000
705.000 295.000
711.000 295.000
722.000 298.000
729.000 297.000
736.000 292.000
744.000 296.000
750.000 304.000
750.000 294.000
754.000 290.000
757.000 279.000
766.000 260.000
766.000 255.000
770.000 251.000
774.000 250.000
786.000 242.000
799.000 242.000
806.000 240.000
809.000 241.000
829.000 232.000
843.000 230.000
849.000 227.000
