ply
format ascii 1.0
comment Dominant contour extracted from bimodal image.
comment scale factor = 0.166875
comment kernel width = 3
comment decimate eps = 1.000000
comment orig shape   = (2397, 2905)
comment threshold    = 158.500000
comment Written with hapPLY (https://github.com/nmwsharp/happly)
element flags 0
property uchar closed
element vertex 178
property double x
property double y
end_header
334.000 396.000
335.000 392.000
332.000 380.000
333.000 370.000
325.000 357.000
326.000 346.000
330.000 343.000
321.000 330.000
317.000 320.000
314.000 302.000
317.000 281.000
329.000 267.000
341.000 259.000
351.000 255.000
370.000 253.000
384.000 255.000
387.000 258.000
389.000 258.000
392.000 262.000
398.000 264.000
401.000 267.000
418.000 276.000
420.000 275.000
418.000 270.000
419.000 264.000
422.000 260.000
427.000 258.000
432.000 258.000
442.000 262.000
448.000 261.000
452.000 264.000
461.000 266.000
466.000 269.000
468.000 268.000
460.000 259.000
443.000 245.000
441.000 242.000
442.000 240.000
439.000 237.000
423.000 231.000
412.000 223.000
408.000 217.000
408.000 211.000
413.000 203.000
412.000 202.000
384.000 198.000
357.000 198.000
342.000 186.000
330.000 164.000
330.000 154.000
334.000 147.000
338.000 143.000
348.000 139.000
366.000 126.000
353.000 118.000
342.000 105.000
338.000 95.000
338.000 87.000
341.000 79.000
346.000 72.000
356.000 64.000
354.000 63.000
354.000 56.000
367.000 37.000
374.000 22.000
372.000 21.000
364.000 28.000
357.000 31.000
352.000 37.000
347.000 40.000
341.000 41.000
333.000 45.000
324.000 45.000
322.000 42.000
313.000 51.000
304.000 56.000
291.000 57.000
281.000 52.000
268.000 37.000
259.000 18.000
254.000 30.000
251.000 33.000
250.000 42.000
246.000 53.000
240.000 59.000
235.000 59.000
235.000 97.000
229.000 116.000
219.000 138.000
210.000 149.000
190.000 162.000
179.000 166.000
169.000 166.000
158.000 161.000
158.000 159.000
151.000 149.000
148.000 139.000
146.000 117.000
148.000 104.000
152.000 93.000
152.000 83.000
147.000 79.000
145.000 64.000
148.000 48.000
145.000 47.000
143.000 42.000
141.000 16.000
135.000 25.000
131.000 39.000
124.000 52.000
118.000 58.000
111.000 60.000
108.000 66.000
104.000 69.000
104.000 89.000
101.000 114.000
96.000 129.000
79.000 161.000
58.000 187.000
53.000 189.000
36.000 189.000
36.000 194.000
58.000 194.000
73.000 198.000
81.000 204.000
87.000 206.000
109.000 219.000
120.000 230.000
129.000 242.000
136.000 255.000
140.000 267.000
140.000 272.000
142.000 276.000
142.000 292.000
140.000 303.000
141.000 317.000
149.000 318.000
158.000 326.000
165.000 342.000
172.000 364.000
174.000 356.000
175.000 337.000
178.000 334.000
177.000 323.000
178.000 318.000
180.000 316.000
180.000 290.000
178.000 285.000
180.000 283.000
182.000 265.000
185.000 254.000
197.000 239.000
202.000 236.000
205.000 236.000
213.000 241.000
221.000 249.000
236.000 276.000
237.000 285.000
242.000 296.000
241.000 298.000
243.000 302.000
243.000 310.000
246.000 319.000
244.000 325.000
245.000 342.000
242.000 350.000
244.000 350.000
249.000 355.000
253.000 373.000
254.000 374.000
257.000 369.000
270.000 356.000
285.000 355.000
293.000 360.000
296.000 360.000
304.000 364.000
313.000 377.000
320.000 379.000
