ply
format ascii 1.0
comment Dominant contour extracted from bimodal image.
comment scale factor = 0.159553
comment kernel width = 3
comment decimate eps = 1.000000
comment orig shape   = (2507, 3075)
comment threshold    = 162.000000
comment Written with hapPLY (https://github.com/nmwsharp/happly)
element flags 0
property uchar closed
element vertex 220
property double x
property double y
end_header
117.000 352.000
119.000 346.000
126.000 341.000
133.000 340.000
143.000 346.000
150.000 357.000
153.000 367.000
157.000 372.000
158.000 379.000
160.000 379.000
159.000 371.000
161.000 366.000
161.000 347.000
167.000 338.000
169.000 338.000
174.000 333.000
181.000 333.000
179.000 317.000
177.000 314.000
178.000 310.000
176.000 306.000
176.000 300.000
171.000 286.000
172.000 270.000
177.000 256.000
185.000 245.000
187.000 238.000
190.000 238.000
199.000 241.000
208.000 252.000
212.000 254.000
212.000 260.000
217.000 274.000
218.000 303.000
215.000 307.000
213.000 318.000
219.000 330.000
225.000 338.000
225.000 341.000
230.000 352.000
232.000 368.000
238.000 372.000
237.000 374.000
241.000 383.000
241.000 387.000
254.000 363.000
261.000 356.000
273.000 352.000
275.000 350.000
290.000 350.000
304.000 356.000
307.000 359.000
315.000 358.000
330.000 365.000
345.000 376.000
348.000 375.000
354.000 379.000
363.000 381.000
365.000 380.000
343.000 358.000
343.000 352.000
336.000 345.000
329.000 316.000
329.000 304.000
326.000 298.000
326.000 284.000
338.000 278.000
346.000 286.000
348.000 290.000
357.000 291.000
365.000 296.000
367.000 295.000
364.000 290.000
364.000 284.000
361.000 273.000
357.000 264.000
353.000 260.000
352.000 248.000
359.000 238.000
373.000 230.000
384.000 226.000
393.000 226.000
408.000 229.000
413.000 224.000
419.000 223.000
431.000 224.000
434.000 221.000
456.000 221.000
476.000 218.000
462.000 212.000
458.000 212.000
440.000 203.000
437.000 198.000
424.000 196.000
418.000 193.000
416.000 190.000
417.000 189.000
413.000 186.000
399.000 183.000
395.000 179.000
393.000 173.000
394.000 165.000
406.000 141.000
405.000 140.000
381.000 143.000
369.000 148.000
364.000 148.000
348.000 153.000
335.000 152.000
322.000 145.000
322.000 141.000
320.000 138.000
320.000 130.000
327.000 96.000
335.000 83.000
346.000 74.000
353.000 65.000
350.000 60.000
351.000 54.000
368.000 30.000
374.000 19.000
373.000 17.000
351.000 31.000
330.000 38.000
325.000 37.000
323.000 33.000
300.000 50.000
285.000 53.000
274.000 48.000
262.000 46.000
255.000 43.000
246.000 32.000
239.000 12.000
236.000 16.000
231.000 29.000
226.000 50.000
223.000 56.000
218.000 59.000
218.000 68.000
223.000 91.000
217.000 122.000
212.000 132.000
201.000 141.000
192.000 143.000
184.000 143.000
173.000 137.000
166.000 130.000
160.000 119.000
158.000 100.000
160.000 82.000
163.000 71.000
158.000 70.000
155.000 67.000
151.000 56.000
151.000 41.000
154.000 35.000
154.000 30.000
152.000 26.000
154.000 11.000
153.000 10.000
147.000 17.000
138.000 31.000
134.000 33.000
130.000 45.000
120.000 55.000
112.000 54.000
104.000 50.000
100.000 44.000
98.000 44.000
99.000 69.000
103.000 71.000
104.000 68.000
105.000 72.000
103.000 77.000
105.000 79.000
103.000 81.000
106.000 83.000
104.000 85.000
107.000 86.000
107.000 89.000
111.000 91.000
106.000 91.000
103.000 86.000
101.000 87.000
102.000 96.000
97.000 125.000
95.000 128.000
92.000 141.000
85.000 154.000
85.000 157.000
76.000 167.000
61.000 176.000
39.000 195.000
31.000 198.000
16.000 197.000
13.000 201.000
27.000 204.000
32.000 210.000
38.000 214.000
62.000 264.000
62.000 268.000
65.000 272.000
66.000 279.000
69.000 285.000
73.000 288.000
76.000 295.000
81.000 284.000
84.000 270.000
83.000 264.000
86.000 254.000
93.000 248.000
97.000 248.000
104.000 254.000
110.000 266.000
113.000 277.000
113.000 290.000
115.000 294.000
115.000 330.000
113.000 334.000
116.000 339.000
