ply
format ascii 1.0
comment Dominant contour extracted from bimodal image.
comment scale factor = 0.170867
comment kernel width = 3
comment decimate eps = 1.000000
comment orig shape   = (2341, 3254)
comment threshold    = 177.000000
comment Written with hapPLY (https://github.com/nmwsharp/happly)
element flags 0
property uchar closed
element vertex 117
property double x
property double y
end_header
190.000 399.000
197.000 392.000
198.000 389.000
203.000 388.000
216.000 380.000
238.000 363.000
244.000 364.000
245.000 366.000
259.000 350.000
278.000 314.000
299.000 286.000
317.000 268.000
344.000 251.000
360.000 239.000
381.000 229.000
410.000 223.000
414.000 221.000
424.000 220.000
440.000 215.000
463.000 212.000
467.000 210.000
494.000 209.000
502.000 207.000
501.000 203.000
462.000 204.000
457.000 202.000
439.000 200.000
419.000 192.000
382.000 183.000
373.000 177.000
356.000 170.000
350.000 160.000
343.000 154.000
337.000 142.000
332.000 137.000
329.000 131.000
318.000 120.000
316.000 113.000
304.000 94.000
293.000 82.000
290.000 76.000
272.000 54.000
262.000 32.000
255.000 31.000
239.000 19.000
231.000 16.000
220.000 8.000
213.000 29.000
202.000 37.000
189.000 42.000
163.000 34.000
149.000 26.000
146.000 20.000
145.000 23.000
141.000 26.000
123.000 31.000
114.000 32.000
101.000 29.000
98.000 27.000
96.000 28.000
98.000 30.000
105.000 48.000
106.000 55.000
109.000 64.000
113.000 70.000
116.000 81.000
118.000 99.000
114.000 103.000
130.000 110.000
149.000 122.000
166.000 128.000
170.000 128.000
184.000 134.000
198.000 145.000
224.000 160.000
233.000 171.000
238.000 180.000
228.000 185.000
217.000 184.000
206.000 186.000
176.000 186.000
168.000 188.000
163.000 187.000
149.000 189.000
142.000 192.000
132.000 191.000
131.000 192.000
134.000 195.000
134.000 204.000
132.000 209.000
125.000 217.000
112.000 224.000
92.000 228.000
85.000 232.000
65.000 239.000
70.000 248.000
68.000 261.000
56.000 277.000
52.000 277.000
46.000 282.000
42.000 291.000
32.000 303.000
28.000 304.000
54.000 317.000
69.000 320.000
79.000 325.000
81.000 327.000
82.000 333.000
100.000 326.000
120.000 323.000
137.000 318.000
159.000 317.000
166.000 319.000
173.000 327.000
179.000 341.000
182.000 355.000
182.000 365.000
