ply
format ascii 1.0
comment Dominant contour extracted from bimodal image.
comment scale factor = 0.261952
comment kernel width = 3
comment decimate eps = 1.000000
comment orig shape   = (1527, 2943)
comment threshold    = 173.500000
comment Written with hapPLY (https://github.com/nmwsharp/happly)
element flags 0
property uchar closed
element vertex 167
property double x
property double y
end_header
737.000 253.000
729.000 246.000
720.000 242.000
706.000 231.000
706.000 221.000
698.000 220.000
672.000 210.000
657.000 209.000
653.000 206.000
646.000 205.000
618.000 186.000
610.000 176.000
611.000 163.000
615.000 152.000
622.000 139.000
638.000 119.000
638.000 116.000
639.000 117.000
641.000 115.000
640.000 108.000
644.000 91.000
648.000 82.000
654.000 75.000
658.000 73.000
657.000 72.000
637.000 70.000
612.000 70.000
605.000 67.000
596.000 56.000
574.000 70.000
559.000 83.000
535.000 109.000
514.000 124.000
495.000 134.000
480.000 139.000
462.000 142.000
449.000 141.000
437.000 132.000
431.000 123.000
429.000 113.000
429.000 90.000
426.000 60.000
423.000 46.000
416.000 30.000
414.000 19.000
407.000 25.000
405.000 29.000
388.000 47.000
381.000 50.000
378.000 50.000
377.000 48.000
376.000 49.000
376.000 53.000
370.000 64.000
363.000 93.000
358.000 102.000
354.000 117.000
336.000 152.000
324.000 163.000
310.000 173.000
297.000 180.000
268.000 188.000
248.000 187.000
239.000 183.000
231.000 174.000
225.000 160.000
220.000 159.000
211.000 164.000
200.000 176.000
176.000 195.000
153.000 205.000
97.000 204.000
79.000 200.000
54.000 198.000
28.000 189.000
21.000 195.000
22.000 196.000
20.000 199.000
23.000 200.000
21.000 200.000
20.000 203.000
27.000 206.000
61.000 205.000
79.000 208.000
96.000 208.000
115.000 211.000
132.000 210.000
152.000 213.000
175.000 224.000
192.000 236.000
197.000 245.000
207.000 257.000
209.000 270.000
219.000 284.000
229.000 267.000
229.000 263.000
233.000 255.000
242.000 244.000
246.000 242.000
259.000 242.000
275.000 248.000
291.000 261.000
301.000 272.000
318.000 304.000
323.000 319.000
325.000 332.000
329.000 338.000
329.000 343.000
330.000 344.000
332.000 341.000
337.000 341.000
356.000 355.000
367.000 368.000
373.000 379.000
375.000 363.000
377.000 360.000
381.000 342.000
380.000 324.000
374.000 306.000
373.000 290.000
375.000 284.000
383.000 275.000
399.000 265.000
418.000 264.000
430.000 268.000
456.000 284.000
482.000 311.000
487.000 314.000
488.000 317.000
496.000 325.000
497.000 329.000
507.000 345.000
512.000 350.000
515.000 362.000
521.000 371.000
523.000 378.000
526.000 378.000
535.000 383.000
546.000 393.000
547.000 399.000
548.000 394.000
550.000 392.000
560.000 388.000
577.000 387.000
602.000 389.000
607.000 387.000
603.000 383.000
597.000 371.000
592.000 356.000
584.000 342.000
584.000 337.000
582.000 333.000
581.000 313.000
577.000 296.000
579.000 285.000
582.000 282.000
587.000 280.000
606.000 279.000
624.000 273.000
654.000 271.000
663.000 273.000
676.000 272.000
681.000 274.000
690.000 274.000
691.000 265.000
697.000 257.000
715.000 253.000
