ply
format ascii 1.0
comment Dominant contour extracted from bimodal image.
comment scale factor = 0.183318
comment kernel width = 3
comment decimate eps = 1.000000
comment orig shape   = (2182, 2858)
comment threshold    = 160.000000
comment Written with hapPLY (https://github.com/nmwsharp/happly)
element flags 0
property uchar closed
element vertex 152
property double x
property double y
end_header
103.000 328.000
109.000 324.000
121.000 323.000
127.000 326.000
139.000 339.000
147.000 342.000
167.000 359.000
168.000 356.000
165.000 346.000
161.000 339.000
161.000 327.000
158.000 306.000
159.000 289.000
168.000 259.000
172.000 251.000
179.000 244.000
180.000 241.000
193.000 240.000
204.000 245.000
215.000 256.000
226.000 274.000
230.000 287.000
231.000 311.000
221.000 341.000
227.000 342.000
235.000 350.000
241.000 359.000
244.000 368.000
252.000 379.000
261.000 352.000
266.000 347.000
278.000 341.000
288.000 338.000
300.000 340.000
315.000 348.000
319.000 352.000
326.000 355.000
331.000 355.000
343.000 361.000
350.000 367.000
357.000 369.000
372.000 378.000
372.000 373.000
369.000 367.000
359.000 356.000
355.000 346.000
346.000 333.000
342.000 324.000
337.000 299.000
340.000 260.000
346.000 255.000
352.000 253.000
372.000 252.000
408.000 264.000
413.000 264.000
418.000 267.000
430.000 270.000
435.000 268.000
419.000 241.000
419.000 228.000
425.000 222.000
445.000 210.000
472.000 201.000
476.000 195.000
481.000 191.000
482.000 187.000
489.000 186.000
492.000 184.000
486.000 183.000
483.000 185.000
482.000 183.000
475.000 180.000
464.000 178.000
459.000 174.000
457.000 170.000
443.000 173.000
428.000 172.000
417.000 169.000
406.000 163.000
400.000 155.000
399.000 145.000
405.000 132.000
413.000 121.000
410.000 118.000
391.000 122.000
375.000 130.000
368.000 136.000
360.000 140.000
343.000 141.000
339.000 138.000
332.000 136.000
329.000 133.000
329.000 112.000
335.000 82.000
337.000 79.000
340.000 66.000
348.000 54.000
349.000 47.000
358.000 32.000
358.000 27.000
333.000 43.000
304.000 50.000
295.000 47.000
289.000 42.000
280.000 19.000
278.000 18.000
272.000 35.000
261.000 52.000
254.000 81.000
244.000 98.000
243.000 103.000
237.000 110.000
235.000 115.000
223.000 128.000
215.000 134.000
208.000 137.000
199.000 136.000
190.000 126.000
186.000 113.000
183.000 50.000
189.000 32.000
188.000 30.000
161.000 57.000
156.000 57.000
153.000 54.000
152.000 55.000
140.000 103.000
126.000 121.000
108.000 139.000
100.000 143.000
99.000 145.000
95.000 145.000
89.000 149.000
79.000 152.000
60.000 161.000
29.000 156.000
21.000 157.000
24.000 161.000
59.000 166.000
64.000 171.000
66.000 184.000
73.000 198.000
75.000 208.000
82.000 219.000
81.000 223.000
83.000 225.000
85.000 235.000
90.000 244.000
97.000 265.000
101.000 284.000
100.000 312.000
102.000 316.000
