ply
format ascii 1.0
comment Dominant contour extracted from bimodal image.
comment scale factor = 0.234055
comment kernel width = 3
comment decimate eps = 1.000000
comment orig shape   = (1709, 2943)
comment threshold    = 158.500000
comment Written with hapPLY (https://github.com/nmwsharp/happly)
element flags 0
property uchar closed
element vertex 176
property double x
property double y
end_header
661.000 201.000
655.000 196.000
634.000 191.000
627.000 187.000
599.000 185.000
594.000 183.000
590.000 179.000
588.000 173.000
591.000 164.000
590.000 163.000
569.000 164.000
558.000 168.000
541.000 170.000
531.000 167.000
494.000 147.000
487.000 140.000
489.000 123.000
497.000 104.000
509.000 88.000
509.000 77.000
512.000 70.000
532.000 49.000
537.000 41.000
535.000 40.000
524.000 44.000
509.000 46.000
501.000 49.000
494.000 48.000
492.000 44.000
488.000 47.000
481.000 48.000
469.000 53.000
463.000 53.000
457.000 50.000
446.000 38.000
443.000 26.000
433.000 39.000
424.000 44.000
416.000 52.000
411.000 53.000
406.000 63.000
405.000 72.000
394.000 98.000
373.000 129.000
365.000 137.000
354.000 143.000
347.000 149.000
336.000 154.000
325.000 153.000
318.000 146.000
315.000 138.000
310.000 69.000
312.000 63.000
312.000 43.000
308.000 42.000
305.000 38.000
304.000 1.000
294.000 18.000
289.000 23.000
284.000 35.000
272.000 43.000
265.000 40.000
264.000 37.000
258.000 47.000
256.000 53.000
257.000 86.000
255.000 98.000
250.000 114.000
241.000 131.000
225.000 150.000
224.000 154.000
210.000 168.000
202.000 173.000
194.000 181.000
182.000 199.000
177.000 204.000
142.000 213.000
135.000 213.000
105.000 219.000
92.000 219.000
84.000 221.000
72.000 221.000
71.000 219.000
64.000 219.000
60.000 221.000
28.000 222.000
23.000 224.000
17.000 224.000
21.000 228.000
23.000 228.000
23.000 230.000
26.000 231.000
25.000 233.000
29.000 234.000
29.000 236.000
32.000 235.000
34.000 237.000
50.000 236.000
89.000 227.000
125.000 223.000
186.000 210.000
195.000 210.000
202.000 212.000
208.000 218.000
225.000 229.000
230.000 235.000
233.000 236.000
253.000 259.000
264.000 278.000
269.000 291.000
270.000 298.000
277.000 312.000
288.000 343.000
290.000 339.000
299.000 340.000
305.000 348.000
311.000 360.000
320.000 339.000
321.000 334.000
324.000 334.000
322.000 316.000
323.000 300.000
321.000 295.000
322.000 274.000
324.000 268.000
331.000 255.000
336.000 251.000
343.000 250.000
354.000 254.000
360.000 254.000
376.000 274.000
383.000 280.000
393.000 297.000
392.000 300.000
394.000 301.000
393.000 303.000
399.000 320.000
399.000 331.000
394.000 356.000
398.000 356.000
410.000 376.000
411.000 383.000
412.000 375.000
420.000 365.000
427.000 360.000
446.000 352.000
469.000 352.000
487.000 357.000
503.000 366.000
505.000 364.000
512.000 364.000
515.000 366.000
527.000 368.000
528.000 367.000
521.000 357.000
510.000 346.000
500.000 331.000
498.000 322.000
495.000 317.000
488.000 280.000
490.000 268.000
503.000 262.000
529.000 259.000
559.000 264.000
571.000 270.000
597.000 272.000
598.000 271.000
580.000 250.000
573.000 239.000
567.000 233.000
565.000 228.000
571.000 225.000
602.000 221.000
604.000 215.000
618.000 207.000
647.000 201.000
