ply
format ascii 1.0
comment Dominant contour extracted from bimodal image.
comment scale factor = 0.415369
comment kernel width = 3
comment decimate eps = 1.000000
comment orig shape   = (963, 1727)
comment threshold    = 212.000000
comment Written with hapPLY (https://github.com/nmwsharp/happly)
element flags 0
property uchar closed
element vertex 151
property double x
property double y
end_header
690.000 243.000
680.000 236.000
671.000 227.000
627.000 202.000
631.000 201.000
631.000 199.000
588.000 190.000
569.000 180.000
558.000 176.000
553.000 172.000
550.000 164.000
554.000 151.000
565.000 133.000
576.000 111.000
582.000 95.000
591.000 86.000
590.000 85.000
580.000 94.000
570.000 99.000
550.000 113.000
540.000 123.000
523.000 131.000
518.000 130.000
516.000 128.000
505.000 135.000
499.000 141.000
485.000 148.000
440.000 162.000
414.000 163.000
407.000 160.000
401.000 154.000
398.000 148.000
397.000 129.000
408.000 96.000
409.000 36.000
412.000 28.000
411.000 24.000
406.000 40.000
390.000 65.000
379.000 76.000
373.000 79.000
368.000 79.000
366.000 77.000
368.000 68.000
366.000 68.000
363.000 76.000
357.000 84.000
352.000 102.000
347.000 113.000
332.000 134.000
318.000 146.000
283.000 163.000
259.000 169.000
248.000 168.000
240.000 163.000
238.000 158.000
241.000 127.000
241.000 102.000
239.000 96.000
239.000 88.000
241.000 84.000
240.000 82.000
235.000 92.000
218.000 113.000
216.000 114.000
216.000 111.000
214.000 111.000
209.000 122.000
194.000 140.000
193.000 143.000
156.000 177.000
131.000 195.000
113.000 203.000
95.000 203.000
56.000 197.000
34.000 190.000
23.000 193.000
16.000 201.000
16.000 203.000
19.000 205.000
22.000 201.000
31.000 199.000
65.000 206.000
106.000 211.000
121.000 216.000
146.000 229.000
162.000 241.000
187.000 256.000
206.000 272.000
234.000 301.000
235.000 299.000
238.000 300.000
253.000 312.000
257.000 317.000
258.000 315.000
255.000 310.000
255.000 301.000
260.000 290.000
258.000 276.000
260.000 267.000
264.000 261.000
270.000 259.000
282.000 259.000
304.000 263.000
317.000 268.000
321.000 268.000
330.000 272.000
350.000 285.000
370.000 303.000
378.000 308.000
399.000 334.000
400.000 338.000
408.000 349.000
410.000 349.000
411.000 344.000
415.000 344.000
426.000 350.000
450.000 374.000
457.000 387.000
459.000 385.000
457.000 384.000
452.000 372.000
453.000 365.000
451.000 361.000
449.000 344.000
445.000 337.000
446.000 336.000
443.000 321.000
439.000 314.000
439.000 306.000
435.000 298.000
434.000 290.000
430.000 279.000
431.000 266.000
442.000 256.000
479.000 243.000
496.000 240.000
506.000 236.000
525.000 234.000
531.000 232.000
562.000 232.000
583.000 234.000
608.000 242.000
609.000 238.000
615.000 236.000
630.000 236.000
637.000 239.000
659.000 238.000
677.000 241.000
681.000 240.000
688.000 244.000
