ply
format ascii 1.0
comment Dominant contour extracted from bimodal image.
comment scale factor = 0.242718
comment kernel width = 3
comment decimate eps = 1.000000
comment orig shape   = (1648, 3381)
comment threshold    = 195.500000
comment Written with hapPLY (https://github.com/nmwsharp/happly)
element flags 0
property uchar closed
element vertex 177
property double x
property double y
end_header
788.000 245.000
766.000 243.000
749.000 237.000
743.000 231.000
745.000 230.000
740.000 226.000
725.000 222.000
716.000 217.000
705.000 214.000
693.000 196.000
695.000 184.000
709.000 164.000
724.000 150.000
736.000 142.000
757.000 133.000
757.000 131.000
752.000 131.000
746.000 128.000
741.000 128.000
738.000 126.000
724.000 123.000
711.000 123.000
703.000 121.000
700.000 119.000
700.000 113.000
702.000 111.000
701.000 110.000
683.000 113.000
665.000 119.000
632.000 124.000
616.000 122.000
606.000 114.000
606.000 103.000
615.000 80.000
646.000 30.000
652.000 24.000
651.000 23.000
647.000 26.000
637.000 29.000
618.000 38.000
597.000 41.000
591.000 44.000
581.000 44.000
577.000 40.000
574.000 31.000
555.000 49.000
553.000 53.000
537.000 70.000
528.000 83.000
499.000 104.000
471.000 121.000
450.000 131.000
447.000 136.000
436.000 136.000
419.000 139.000
414.000 138.000
403.000 132.000
393.000 121.000
391.000 88.000
392.000 78.000
387.000 50.000
389.000 38.000
388.000 28.000
373.000 45.000
368.000 53.000
364.000 57.000
362.000 57.000
361.000 55.000
355.000 68.000
353.000 78.000
346.000 94.000
341.000 102.000
321.000 125.000
310.000 134.000
291.000 146.000
274.000 153.000
222.000 181.000
205.000 183.000
192.000 182.000
180.000 185.000
167.000 185.000
139.000 189.000
116.000 190.000
83.000 195.000
64.000 195.000
60.000 194.000
51.000 187.000
46.000 187.000
46.000 189.000
43.000 191.000
47.000 194.000
48.000 193.000
53.000 195.000
56.000 201.000
67.000 205.000
104.000 198.000
117.000 198.000
129.000 195.000
176.000 191.000
204.000 191.000
224.000 197.000
247.000 209.000
249.000 207.000
249.000 210.000
290.000 228.000
308.000 244.000
317.000 263.000
320.000 278.000
323.000 283.000
325.000 282.000
334.000 295.000
336.000 304.000
341.000 315.000
341.000 308.000
346.000 294.000
346.000 288.000
348.000 283.000
348.000 274.000
351.000 257.000
351.000 243.000
353.000 234.000
363.000 226.000
374.000 224.000
382.000 225.000
393.000 229.000
405.000 235.000
422.000 247.000
437.000 261.000
445.000 271.000
456.000 293.000
460.000 317.000
467.000 332.000
472.000 354.000
473.000 355.000
479.000 349.000
487.000 351.000
507.000 373.000
522.000 393.000
522.000 325.000
525.000 304.000
530.000 292.000
534.000 287.000
541.000 284.000
554.000 284.000
568.000 292.000
574.000 298.000
578.000 306.000
592.000 321.000
607.000 344.000
615.000 349.000
618.000 353.000
621.000 344.000
625.000 341.000
629.000 341.000
664.000 360.000
672.000 367.000
672.000 359.000
665.000 340.000
660.000 332.000
658.000 310.000
655.000 295.000
656.000 278.000
659.000 273.000
665.000 268.000
672.000 266.000
676.000 263.000
681.000 263.000
684.000 265.000
689.000 264.000
714.000 269.000
726.000 273.000
731.000 273.000
731.000 265.000
735.000 261.000
762.000 258.000
772.000 255.000
784.000 249.000
