ply
format ascii 1.0
comment Dominant contour extracted from bimodal image.
comment scale factor = 0.277585
comment kernel width = 3
comment decimate eps = 1.000000
comment orig shape   = (1441, 2839)
comment threshold    = 242.500000
comment Written with hapPLY (https://github.com/nmwsharp/happly)
element flags 0
property uchar closed
element vertex 239
property double x
property double y
end_header
782.000 225.000
781.000 223.000
773.000 225.000
763.000 225.000
758.000 222.000
738.000 219.000
725.000 214.000
706.000 211.000
693.000 207.000
679.000 199.000
679.000 194.000
682.000 190.000
692.000 188.000
692.000 186.000
681.000 187.000
676.000 185.000
616.000 182.000
589.000 174.000
580.000 169.000
576.000 165.000
569.000 152.000
569.000 141.000
573.000 127.000
581.000 112.000
592.000 100.000
596.000 92.000
600.000 90.000
597.000 89.000
603.000 77.000
613.000 65.000
624.000 45.000
631.000 39.000
630.000 38.000
599.000 57.000
595.000 58.000
594.000 53.000
588.000 60.000
566.000 73.000
558.000 73.000
553.000 71.000
545.000 62.000
544.000 59.000
548.000 49.000
547.000 46.000
542.000 57.000
532.000 69.000
525.000 83.000
518.000 93.000
499.000 114.000
497.000 118.000
484.000 131.000
459.000 147.000
428.000 158.000
414.000 158.000
396.000 152.000
387.000 144.000
384.000 139.000
382.000 121.000
382.000 98.000
384.000 92.000
383.000 84.000
385.000 74.000
385.000 60.000
390.000 54.000
389.000 53.000
383.000 59.000
381.000 55.000
381.000 48.000
377.000 32.000
370.000 17.000
370.000 8.000
372.000 3.000
371.000 2.000
369.000 3.000
368.000 7.000
368.000 19.000
363.000 41.000
355.000 59.000
348.000 66.000
344.000 66.000
343.000 60.000
341.000 60.000
340.000 85.000
334.000 109.000
328.000 124.000
323.000 132.000
307.000 149.000
291.000 159.000
272.000 164.000
260.000 164.000
252.000 160.000
250.000 155.000
249.000 129.000
241.000 111.000
241.000 105.000
243.000 101.000
242.000 99.000
239.000 104.000
239.000 112.000
228.000 135.000
225.000 138.000
222.000 146.000
213.000 159.000
188.000 183.000
169.000 194.000
122.000 192.000
84.000 186.000
67.000 177.000
60.000 176.000
58.000 172.000
50.000 169.000
49.000 171.000
46.000 167.000
43.000 167.000
39.000 163.000
35.000 166.000
37.000 175.000
36.000 177.000
41.000 178.000
38.000 179.000
40.000 181.000
37.000 184.000
41.000 189.000
55.000 196.000
65.000 196.000
70.000 194.000
86.000 194.000
94.000 196.000
144.000 201.000
184.000 202.000
194.000 207.000
225.000 229.000
233.000 237.000
243.000 251.000
252.000 259.000
256.000 267.000
258.000 267.000
259.000 264.000
256.000 264.000
257.000 265.000
254.000 256.000
262.000 235.000
267.000 233.000
279.000 233.000
287.000 235.000
299.000 241.000
309.000 249.000
328.000 269.000
328.000 274.000
330.000 275.000
337.000 287.000
337.000 291.000
344.000 309.000
346.000 322.000
352.000 338.000
357.000 343.000
358.000 342.000
353.000 335.000
353.000 332.000
355.000 331.000
363.000 337.000
365.000 342.000
369.000 346.000
379.000 368.000
391.000 382.000
393.000 381.000
385.000 371.000
387.000 367.000
389.000 352.000
389.000 336.000
390.000 332.000
393.000 335.000
394.000 334.000
392.000 330.000
392.000 321.000
388.000 304.000
389.000 302.000
387.000 296.000
389.000 267.000
391.000 263.000
400.000 255.000
415.000 251.000
429.000 252.000
450.000 258.000
478.000 274.000
493.000 289.000
500.000 301.000
513.000 316.000
521.000 328.000
522.000 334.000
527.000 345.000
526.000 353.000
528.000 353.000
530.000 347.000
539.000 360.000
543.000 371.000
551.000 378.000
553.000 377.000
546.000 371.000
545.000 364.000
553.000 352.000
558.000 349.000
563.000 349.000
587.000 360.000
604.000 372.000
605.000 370.000
602.000 367.000
608.000 368.000
658.000 393.000
658.000 391.000
651.000 388.000
648.000 385.000
641.000 371.000
619.000 342.000
618.000 338.000
621.000 338.000
616.000 334.000
611.000 326.000
603.000 318.000
590.000 299.000
584.000 286.000
581.000 274.000
581.000 264.000
584.000 259.000
596.000 250.000
602.000 250.000
617.000 245.000
629.000 244.000
652.000 247.000
673.000 247.000
685.000 251.000
693.000 259.000
694.000 258.000
685.000 247.000
685.000 243.000
689.000 240.000
737.000 237.000
753.000 234.000
770.000 227.000
