ply
format ascii 1.0
comment Dominant contour extracted from bimodal image.
comment scale factor = 0.255265
comment kernel width = 3
comment decimate eps = 1.000000
comment orig shape   = (1567, 2629)
comment threshold    = 199.500000
comment Written with hapPLY (https://github.com/nmwsharp/happly)
element flags 0
property uchar closed
element vertex 192
property double x
property double y
end_header
656.000 206.000
649.000 204.000
636.000 197.000
630.000 197.000
613.000 191.000
601.000 189.000
592.000 185.000
586.000 178.000
588.000 166.000
591.000 165.000
590.000 164.000
571.000 163.000
556.000 165.000
522.000 165.000
513.000 162.000
503.000 150.000
497.000 138.000
495.000 126.000
498.000 109.000
501.000 101.000
513.000 82.000
512.000 78.000
516.000 66.000
529.000 49.000
541.000 37.000
542.000 34.000
548.000 30.000
543.000 29.000
536.000 31.000
528.000 31.000
523.000 34.000
516.000 35.000
510.000 39.000
504.000 39.000
481.000 46.000
460.000 46.000
453.000 44.000
449.000 38.000
444.000 17.000
442.000 23.000
433.000 34.000
427.000 45.000
420.000 51.000
415.000 49.000
411.000 57.000
410.000 65.000
405.000 76.000
400.000 82.000
388.000 107.000
381.000 117.000
367.000 131.000
343.000 146.000
328.000 151.000
320.000 151.000
307.000 147.000
304.000 144.000
303.000 140.000
306.000 135.000
304.000 129.000
304.000 122.000
306.000 118.000
306.000 106.000
308.000 103.000
308.000 96.000
313.000 79.000
311.000 79.000
311.000 71.000
315.000 57.000
314.000 54.000
317.000 49.000
320.000 34.000
319.000 32.000
299.000 50.000
295.000 58.000
287.000 65.000
280.000 67.000
277.000 63.000
267.000 79.000
264.000 91.000
249.000 111.000
233.000 137.000
220.000 150.000
206.000 160.000
186.000 169.000
178.000 170.000
167.000 167.000
163.000 160.000
163.000 149.000
165.000 141.000
162.000 129.000
147.000 143.000
146.000 147.000
142.000 150.000
140.000 156.000
131.000 168.000
123.000 174.000
100.000 198.000
96.000 200.000
37.000 201.000
12.000 198.000
8.000 202.000
12.000 205.000
23.000 206.000
99.000 206.000
107.000 208.000
145.000 233.000
154.000 246.000
166.000 257.000
168.000 263.000
168.000 258.000
172.000 248.000
172.000 240.000
176.000 235.000
181.000 233.000
192.000 233.000
207.000 239.000
229.000 253.000
243.000 276.000
246.000 287.000
249.000 292.000
249.000 303.000
253.000 311.000
253.000 315.000
255.000 315.000
255.000 311.000
257.000 310.000
261.000 313.000
266.000 321.000
274.000 328.000
279.000 337.000
286.000 344.000
287.000 341.000
284.000 331.000
285.000 311.000
283.000 306.000
286.000 260.000
290.000 252.000
297.000 245.000
304.000 241.000
315.000 241.000
325.000 244.000
342.000 254.000
360.000 272.000
370.000 285.000
384.000 316.000
384.000 320.000
389.000 333.000
391.000 347.000
397.000 347.000
400.000 350.000
403.000 360.000
407.000 366.000
411.000 385.000
412.000 372.000
419.000 361.000
424.000 356.000
434.000 356.000
445.000 363.000
451.000 365.000
454.000 368.000
472.000 376.000
479.000 382.000
490.000 386.000
493.000 389.000
494.000 387.000
489.000 375.000
485.000 371.000
483.000 365.000
472.000 349.000
468.000 337.000
470.000 333.000
461.000 314.000
460.000 289.000
462.000 275.000
466.000 265.000
471.000 258.000
480.000 249.000
492.000 241.000
512.000 234.000
522.000 233.000
545.000 235.000
563.000 239.000
585.000 239.000
586.000 238.000
584.000 236.000
582.000 227.000
585.000 223.000
596.000 218.000
621.000 215.000
624.000 213.000
636.000 212.000
648.000 207.000
