ply
format ascii 1.0
comment Dominant contour extracted from bimodal image.
comment scale factor = 0.263331
comment kernel width = 3
comment decimate eps = 1.000000
comment orig shape   = (1519, 2435)
comment threshold    = 246.000000
comment Written with hapPLY (https://github.com/nmwsharp/happly)
element flags 0
property uchar closed
element vertex 200
property double x
property double y
end_header
633.000 222.000
632.000 220.000
620.000 221.000
613.000 217.000
592.000 212.000
568.000 202.000
566.000 196.000
569.000 192.000
582.000 191.000
586.000 193.000
587.000 192.000
584.000 189.000
570.000 189.000
562.000 186.000
518.000 184.000
508.000 180.000
494.000 179.000
485.000 175.000
473.000 174.000
466.000 169.000
451.000 162.000
446.000 140.000
447.000 130.000
454.000 116.000
465.000 102.000
471.000 98.000
472.000 95.000
478.000 90.000
484.000 82.000
501.000 65.000
507.000 62.000
512.000 57.000
511.000 55.000
534.000 38.000
536.000 34.000
547.000 27.000
545.000 26.000
534.000 32.000
525.000 31.000
506.000 34.000
504.000 33.000
510.000 28.000
508.000 26.000
498.000 34.000
493.000 34.000
468.000 44.000
451.000 47.000
445.000 45.000
441.000 37.000
441.000 32.000
448.000 21.000
447.000 19.000
442.000 25.000
439.000 32.000
429.000 39.000
414.000 54.000
411.000 60.000
405.000 65.000
402.000 70.000
373.000 91.000
365.000 95.000
357.000 103.000
320.000 121.000
271.000 131.000
261.000 127.000
254.000 120.000
249.000 107.000
247.000 84.000
245.000 77.000
245.000 65.000
242.000 56.000
239.000 37.000
236.000 31.000
240.000 19.000
239.000 16.000
236.000 20.000
234.000 28.000
228.000 37.000
228.000 41.000
221.000 55.000
219.000 56.000
217.000 54.000
217.000 47.000
215.000 47.000
215.000 57.000
210.000 66.000
199.000 106.000
192.000 120.000
181.000 133.000
177.000 141.000
174.000 143.000
175.000 147.000
170.000 149.000
165.000 155.000
146.000 169.000
141.000 175.000
134.000 179.000
128.000 180.000
17.000 180.000
16.000 182.000
12.000 181.000
10.000 183.000
12.000 186.000
18.000 188.000
63.000 186.000
113.000 186.000
134.000 195.000
157.000 216.000
177.000 228.000
187.000 238.000
190.000 239.000
204.000 265.000
204.000 271.000
208.000 286.000
214.000 299.000
214.000 303.000
217.000 305.000
221.000 313.000
221.000 317.000
224.000 324.000
226.000 326.000
227.000 325.000
224.000 318.000
224.000 314.000
227.000 314.000
235.000 323.000
241.000 335.000
252.000 348.000
251.000 352.000
253.000 354.000
254.000 350.000
256.000 356.000
257.000 350.000
252.000 343.000
251.000 332.000
253.000 323.000
255.000 330.000
257.000 330.000
252.000 302.000
252.000 257.000
254.000 253.000
255.000 243.000
259.000 239.000
276.000 236.000
293.000 242.000
303.000 248.000
312.000 251.000
342.000 281.000
349.000 290.000
358.000 309.000
366.000 318.000
379.000 342.000
386.000 337.000
390.000 338.000
397.000 343.000
400.000 348.000
406.000 347.000
417.000 350.000
436.000 367.000
451.000 378.000
452.000 375.000
456.000 379.000
468.000 386.000
482.000 400.000
483.000 398.000
474.000 390.000
470.000 378.000
462.000 366.000
461.000 362.000
465.000 365.000
466.000 363.000
454.000 351.000
444.000 334.000
429.000 295.000
426.000 277.000
427.000 260.000
430.000 252.000
436.000 244.000
435.000 243.000
442.000 236.000
453.000 231.000
473.000 227.000
501.000 226.000
512.000 228.000
524.000 228.000
540.000 234.000
547.000 235.000
555.000 239.000
562.000 239.000
573.000 246.000
578.000 247.000
578.000 245.000
564.000 237.000
563.000 232.000
566.000 228.000
573.000 226.000
599.000 228.000
614.000 226.000
617.000 224.000
630.000 224.000
