ply
format ascii 1.0
comment Dominant contour extracted from bimodal image.
comment scale factor = 0.326797
comment kernel width = 3
comment decimate eps = 1.000000
comment orig shape   = (1224, 2238)
comment threshold    = 245.000000
comment Written with hapPLY (https://github.com/nmwsharp/happly)
element flags 0
property uchar closed
element vertex 196
property double x
property double y
end_header
41.000 223.000
45.000 224.000
45.000 227.000
48.000 229.000
55.000 229.000
58.000 227.000
63.000 228.000
73.000 224.000
80.000 223.000
118.000 223.000
175.000 220.000
196.000 223.000
215.000 230.000
237.000 234.000
249.000 243.000
263.000 246.000
265.000 250.000
270.000 255.000
273.000 255.000
282.000 265.000
290.000 271.000
297.000 273.000
299.000 275.000
300.000 280.000
303.000 283.000
305.000 283.000
321.000 300.000
328.000 313.000
332.000 317.000
343.000 345.000
356.000 367.000
358.000 366.000
353.000 357.000
353.000 354.000
356.000 351.000
361.000 354.000
385.000 378.000
406.000 387.000
406.000 384.000
394.000 379.000
392.000 371.000
392.000 309.000
394.000 296.000
400.000 285.000
418.000 268.000
444.000 267.000
463.000 273.000
476.000 280.000
484.000 281.000
495.000 293.000
508.000 299.000
544.000 324.000
553.000 327.000
559.000 333.000
561.000 332.000
556.000 327.000
555.000 321.000
557.000 318.000
561.000 316.000
566.000 316.000
570.000 314.000
590.000 314.000
611.000 319.000
639.000 323.000
665.000 322.000
665.000 320.000
655.000 321.000
646.000 320.000
642.000 318.000
630.000 305.000
625.000 303.000
601.000 285.000
595.000 279.000
593.000 274.000
595.000 271.000
604.000 270.000
605.000 268.000
593.000 268.000
589.000 264.000
584.000 262.000
570.000 249.000
562.000 235.000
561.000 223.000
564.000 215.000
569.000 210.000
581.000 202.000
588.000 200.000
594.000 196.000
609.000 190.000
620.000 188.000
634.000 188.000
659.000 179.000
661.000 177.000
660.000 176.000
651.000 179.000
646.000 179.000
645.000 173.000
648.000 170.000
667.000 161.000
681.000 157.000
692.000 149.000
696.000 149.000
706.000 154.000
710.000 159.000
710.000 165.000
712.000 164.000
713.000 160.000
711.000 155.000
703.000 149.000
698.000 143.000
686.000 142.000
680.000 139.000
648.000 143.000
629.000 143.000
621.000 141.000
615.000 137.000
614.000 132.000
623.000 120.000
622.000 118.000
619.000 120.000
613.000 129.000
586.000 135.000
559.000 144.000
550.000 149.000
547.000 149.000
545.000 147.000
544.000 143.000
539.000 140.000
532.000 132.000
532.000 124.000
530.000 120.000
532.000 101.000
536.000 85.000
542.000 74.000
549.000 51.000
552.000 47.000
552.000 43.000
556.000 36.000
557.000 27.000
561.000 20.000
573.000 10.000
572.000 9.000
563.000 15.000
553.000 25.000
544.000 30.000
527.000 45.000
515.000 52.000
509.000 52.000
506.000 49.000
506.000 44.000
511.000 34.000
510.000 32.000
506.000 37.000
502.000 49.000
494.000 55.000
459.000 95.000
436.000 117.000
418.000 125.000
390.000 134.000
364.000 133.000
347.000 124.000
342.000 113.000
333.000 74.000
334.000 73.000
329.000 43.000
323.000 26.000
326.000 17.000
323.000 16.000
320.000 30.000
315.000 37.000
306.000 57.000
298.000 69.000
295.000 71.000
292.000 71.000
290.000 69.000
292.000 55.000
291.000 54.000
289.000 56.000
284.000 87.000
284.000 104.000
279.000 118.000
238.000 159.000
210.000 179.000
199.000 189.000
174.000 203.000
150.000 212.000
123.000 215.000
91.000 215.000
77.000 213.000
74.000 211.000
55.000 209.000
54.000 211.000
41.000 212.000
40.000 213.000
43.000 218.000
41.000 219.000
