ply
format ascii 1.0
comment Dominant contour extracted from bimodal image.
comment scale factor = 0.293902
comment kernel width = 3
comment decimate eps = 1.000000
comment orig shape   = (1361, 2593)
comment threshold    = 243.000000
comment Written with hapPLY (https://github.com/nmwsharp/happly)
element flags 0
property uchar closed
element vertex 213
property double x
property double y
end_header
748.000 168.000
745.000 167.000
740.000 172.000
736.000 173.000
726.000 173.000
718.000 170.000
703.000 169.000
702.000 168.000
705.000 166.000
704.000 165.000
697.000 168.000
685.000 168.000
668.000 165.000
659.000 159.000
659.000 155.000
673.000 139.000
673.000 135.000
659.000 150.000
649.000 151.000
636.000 156.000
624.000 157.000
613.000 161.000
604.000 161.000
593.000 164.000
575.000 164.000
572.000 162.000
566.000 162.000
564.000 160.000
558.000 159.000
541.000 147.000
535.000 141.000
530.000 133.000
528.000 126.000
528.000 114.000
531.000 102.000
549.000 67.000
552.000 58.000
555.000 54.000
563.000 49.000
559.000 48.000
555.000 52.000
552.000 51.000
561.000 24.000
571.000 14.000
569.000 13.000
551.000 28.000
547.000 29.000
538.000 35.000
536.000 35.000
536.000 30.000
534.000 35.000
522.000 45.000
515.000 49.000
507.000 51.000
500.000 51.000
497.000 48.000
494.000 42.000
494.000 26.000
491.000 31.000
491.000 42.000
488.000 45.000
477.000 65.000
473.000 79.000
468.000 90.000
464.000 95.000
461.000 106.000
439.000 138.000
422.000 156.000
397.000 171.000
384.000 175.000
375.000 174.000
364.000 166.000
358.000 157.000
353.000 137.000
353.000 87.000
352.000 86.000
350.000 88.000
348.000 84.000
347.000 70.000
348.000 58.000
355.000 48.000
353.000 47.000
348.000 53.000
342.000 66.000
327.000 85.000
327.000 88.000
323.000 95.000
319.000 96.000
317.000 94.000
317.000 90.000
315.000 92.000
316.000 100.000
314.000 106.000
314.000 125.000
304.000 166.000
289.000 186.000
278.000 196.000
265.000 203.000
247.000 209.000
223.000 209.000
216.000 206.000
214.000 203.000
214.000 178.000
212.000 180.000
210.000 192.000
197.000 205.000
162.000 225.000
126.000 228.000
87.000 228.000
79.000 230.000
44.000 228.000
41.000 231.000
34.000 232.000
32.000 235.000
35.000 239.000
46.000 239.000
49.000 241.000
73.000 237.000
91.000 237.000
118.000 234.000
205.000 233.000
221.000 238.000
238.000 240.000
264.000 250.000
284.000 262.000
295.000 271.000
309.000 286.000
332.000 337.000
333.000 346.000
335.000 346.000
334.000 336.000
336.000 334.000
342.000 336.000
368.000 363.000
374.000 367.000
383.000 383.000
384.000 380.000
379.000 370.000
371.000 359.000
368.000 338.000
366.000 334.000
366.000 323.000
359.000 304.000
358.000 291.000
355.000 281.000
355.000 273.000
359.000 264.000
375.000 252.000
395.000 251.000
415.000 255.000
434.000 265.000
445.000 274.000
456.000 280.000
463.000 287.000
484.000 313.000
488.000 323.000
491.000 325.000
499.000 339.000
502.000 352.000
504.000 354.000
505.000 353.000
502.000 341.000
507.000 341.000
513.000 348.000
519.000 359.000
528.000 368.000
538.000 385.000
539.000 383.000
534.000 374.000
533.000 365.000
535.000 359.000
541.000 355.000
556.000 356.000
582.000 368.000
585.000 367.000
581.000 365.000
600.000 369.000
611.000 369.000
616.000 371.000
624.000 370.000
623.000 368.000
620.000 369.000
611.000 367.000
603.000 360.000
584.000 334.000
585.000 328.000
593.000 332.000
595.000 331.000
585.000 324.000
551.000 283.000
544.000 268.000
544.000 259.000
548.000 244.000
564.000 227.000
568.000 227.000
575.000 223.000
595.000 216.000
607.000 214.000
618.000 210.000
658.000 205.000
670.000 201.000
680.000 202.000
681.000 201.000
678.000 199.000
669.000 198.000
668.000 196.000
671.000 192.000
680.000 188.000
700.000 184.000
708.000 184.000
712.000 181.000
724.000 177.000
738.000 175.000
