ply
format ascii 1.0
comment Dominant contour extracted from bimodal image.
comment scale factor = 0.232153
comment kernel width = 3
comment decimate eps = 1.000000
comment orig shape   = (1723, 3218)
comment threshold    = 226.500000
comment Written with hapPLY (https://github.com/nmwsharp/happly)
element flags 0
property uchar closed
element vertex 222
property double x
property double y
end_header
7.000 227.000
21.000 235.000
46.000 231.000
137.000 231.000
161.000 235.000
191.000 250.000
200.000 253.000
214.000 262.000
223.000 270.000
238.000 293.000
244.000 293.000
259.000 309.000
260.000 307.000
253.000 299.000
254.000 281.000
252.000 276.000
252.000 254.000
256.000 249.000
266.000 245.000
289.000 245.000
297.000 247.000
305.000 251.000
325.000 267.000
338.000 286.000
349.000 324.000
352.000 348.000
356.000 357.000
357.000 373.000
359.000 373.000
359.000 359.000
363.000 356.000
370.000 358.000
375.000 362.000
389.000 387.000
395.000 393.000
395.000 399.000
397.000 400.000
397.000 350.000
398.000 347.000
402.000 353.000
403.000 350.000
400.000 345.000
400.000 326.000
397.000 309.000
396.000 276.000
399.000 263.000
407.000 256.000
415.000 253.000
429.000 258.000
441.000 268.000
462.000 290.000
467.000 299.000
485.000 323.000
499.000 355.000
499.000 360.000
500.000 361.000
501.000 357.000
503.000 357.000
510.000 364.000
519.000 377.000
522.000 388.000
523.000 383.000
521.000 377.000
523.000 368.000
528.000 358.000
537.000 348.000
546.000 347.000
562.000 350.000
569.000 355.000
580.000 359.000
582.000 358.000
580.000 356.000
587.000 356.000
590.000 358.000
597.000 358.000
602.000 360.000
605.000 359.000
612.000 362.000
623.000 362.000
592.000 333.000
590.000 328.000
594.000 327.000
577.000 310.000
565.000 292.000
558.000 272.000
558.000 254.000
563.000 244.000
575.000 232.000
581.000 230.000
586.000 226.000
613.000 223.000
635.000 225.000
642.000 228.000
651.000 228.000
654.000 230.000
662.000 231.000
663.000 219.000
673.000 213.000
680.000 211.000
699.000 211.000
702.000 209.000
712.000 208.000
715.000 209.000
732.000 204.000
725.000 203.000
709.000 195.000
704.000 195.000
697.000 192.000
682.000 189.000
676.000 184.000
676.000 179.000
680.000 178.000
680.000 176.000
675.000 177.000
670.000 175.000
655.000 175.000
650.000 176.000
650.000 178.000
662.000 177.000
649.000 179.000
649.000 177.000
625.000 178.000
606.000 173.000
587.000 163.000
577.000 151.000
574.000 142.000
574.000 123.000
578.000 108.000
588.000 93.000
600.000 79.000
598.000 77.000
598.000 74.000
613.000 52.000
612.000 50.000
613.000 51.000
620.000 43.000
625.000 34.000
624.000 32.000
618.000 36.000
609.000 37.000
593.000 45.000
586.000 45.000
587.000 43.000
585.000 42.000
582.000 45.000
565.000 52.000
548.000 53.000
543.000 51.000
534.000 39.000
534.000 27.000
530.000 37.000
524.000 46.000
519.000 50.000
517.000 49.000
517.000 46.000
515.000 46.000
514.000 55.000
509.000 62.000
505.000 75.000
487.000 96.000
481.000 105.000
474.000 121.000
460.000 137.000
442.000 146.000
425.000 150.000
418.000 150.000
405.000 145.000
393.000 135.000
390.000 127.000
390.000 98.000
392.000 93.000
392.000 82.000
395.000 69.000
395.000 57.000
397.000 55.000
393.000 55.000
395.000 40.000
392.000 26.000
396.000 15.000
395.000 12.000
390.000 25.000
384.000 31.000
383.000 35.000
376.000 42.000
365.000 58.000
360.000 62.000
356.000 63.000
353.000 61.000
353.000 52.000
351.000 52.000
351.000 62.000
347.000 69.000
347.000 74.000
344.000 81.000
342.000 93.000
338.000 101.000
338.000 107.000
332.000 118.000
328.000 134.000
316.000 155.000
308.000 164.000
290.000 179.000
259.000 191.000
250.000 191.000
241.000 188.000
239.000 185.000
237.000 173.000
238.000 168.000
236.000 144.000
223.000 157.000
220.000 164.000
206.000 184.000
170.000 222.000
145.000 225.000
103.000 226.000
54.000 223.000
38.000 221.000
24.000 217.000
16.000 217.000
12.000 219.000
11.000 222.000
7.000 225.000
