ply
format ascii 1.0
comment Dominant contour extracted from bimodal image.
comment scale factor = 0.300075
comment kernel width = 3
comment decimate eps = 1.000000
comment orig shape   = (1333, 2574)
comment threshold    = 245.000000
comment Written with hapPLY (https://github.com/nmwsharp/happly)
element flags 0
property uchar closed
element vertex 205
property double x
property double y
end_header
729.000 209.000
719.000 206.000
710.000 199.000
699.000 196.000
697.000 193.000
702.000 196.000
703.000 194.000
694.000 188.000
681.000 187.000
672.000 182.000
678.000 180.000
680.000 178.000
679.000 177.000
674.000 179.000
670.000 179.000
667.000 177.000
652.000 176.000
641.000 177.000
627.000 174.000
622.000 175.000
614.000 172.000
598.000 170.000
593.000 168.000
583.000 155.000
580.000 147.000
579.000 135.000
581.000 121.000
586.000 103.000
596.000 81.000
604.000 70.000
606.000 64.000
617.000 46.000
621.000 44.000
630.000 46.000
630.000 43.000
623.000 41.000
619.000 42.000
615.000 39.000
603.000 39.000
598.000 41.000
588.000 41.000
575.000 47.000
564.000 49.000
561.000 47.000
556.000 38.000
556.000 32.000
561.000 24.000
559.000 23.000
553.000 33.000
548.000 34.000
525.000 54.000
523.000 58.000
494.000 88.000
494.000 90.000
481.000 108.000
465.000 124.000
453.000 131.000
433.000 138.000
418.000 138.000
409.000 133.000
401.000 126.000
401.000 115.000
398.000 110.000
394.000 83.000
384.000 54.000
384.000 50.000
379.000 40.000
379.000 27.000
382.000 16.000
380.000 12.000
376.000 34.000
364.000 52.000
363.000 57.000
359.000 61.000
356.000 56.000
356.000 51.000
353.000 51.000
355.000 64.000
352.000 69.000
349.000 83.000
340.000 102.000
339.000 111.000
336.000 117.000
335.000 124.000
323.000 142.000
282.000 179.000
265.000 189.000
252.000 200.000
218.000 218.000
196.000 222.000
188.000 225.000
159.000 230.000
154.000 229.000
152.000 231.000
141.000 232.000
121.000 237.000
79.000 243.000
62.000 247.000
36.000 246.000
24.000 248.000
21.000 251.000
21.000 259.000
23.000 261.000
26.000 260.000
27.000 262.000
31.000 262.000
53.000 256.000
72.000 254.000
118.000 243.000
151.000 239.000
173.000 233.000
197.000 231.000
213.000 235.000
244.000 254.000
254.000 264.000
261.000 267.000
262.000 275.000
260.000 277.000
262.000 278.000
264.000 276.000
263.000 261.000
265.000 257.000
269.000 253.000
275.000 253.000
299.000 263.000
312.000 272.000
318.000 280.000
334.000 316.000
339.000 338.000
338.000 353.000
339.000 354.000
341.000 351.000
343.000 341.000
347.000 339.000
352.000 339.000
359.000 345.000
370.000 359.000
371.000 358.000
386.000 369.000
391.000 370.000
398.000 376.000
399.000 374.000
391.000 367.000
388.000 359.000
388.000 353.000
390.000 356.000
391.000 355.000
388.000 346.000
388.000 313.000
390.000 296.000
394.000 287.000
412.000 279.000
421.000 279.000
452.000 291.000
461.000 298.000
476.000 306.000
487.000 315.000
495.000 317.000
499.000 321.000
499.000 327.000
502.000 331.000
515.000 339.000
525.000 343.000
550.000 366.000
560.000 369.000
565.000 378.000
566.000 375.000
563.000 367.000
563.000 359.000
566.000 354.000
571.000 352.000
578.000 351.000
583.000 353.000
594.000 353.000
602.000 356.000
616.000 358.000
638.000 358.000
637.000 356.000
632.000 354.000
626.000 348.000
623.000 347.000
616.000 340.000
610.000 330.000
582.000 306.000
571.000 292.000
566.000 281.000
565.000 271.000
567.000 262.000
575.000 243.000
574.000 241.000
591.000 232.000
595.000 226.000
603.000 226.000
608.000 224.000
648.000 228.000
665.000 232.000
689.000 230.000
689.000 228.000
681.000 228.000
677.000 225.000
678.000 216.000
682.000 214.000
706.000 211.000
715.000 208.000
722.000 210.000
