ply
format ascii 1.0
comment Dominant contour extracted from bimodal image.
comment scale factor = 0.371747
comment kernel width = 3
comment decimate eps = 1.000000
comment orig shape   = (1076, 1740)
comment threshold    = 204.000000
comment Written with hapPLY (https://github.com/nmwsharp/happly)
element flags 0
property uchar closed
element vertex 163
property double x
property double y
end_header
612.000 231.000
607.000 228.000
596.000 216.000
569.000 201.000
552.000 194.000
548.000 191.000
552.000 190.000
552.000 188.000
530.000 188.000
514.000 186.000
497.000 180.000
488.000 172.000
486.000 165.000
487.000 160.000
492.000 152.000
491.000 150.000
492.000 151.000
498.000 145.000
505.000 134.000
511.000 128.000
509.000 127.000
509.000 125.000
518.000 114.000
522.000 101.000
526.000 97.000
525.000 95.000
521.000 99.000
502.000 107.000
500.000 111.000
498.000 110.000
493.000 114.000
474.000 122.000
469.000 122.000
467.000 118.000
449.000 137.000
421.000 151.000
396.000 158.000
379.000 161.000
357.000 161.000
346.000 157.000
339.000 150.000
336.000 141.000
340.000 100.000
346.000 81.000
345.000 77.000
346.000 78.000
348.000 75.000
344.000 72.000
342.000 39.000
343.000 12.000
341.000 9.000
340.000 26.000
335.000 36.000
331.000 49.000
318.000 73.000
311.000 79.000
308.000 79.000
305.000 76.000
305.000 67.000
303.000 67.000
302.000 75.000
297.000 87.000
295.000 102.000
282.000 130.000
271.000 145.000
257.000 158.000
244.000 165.000
223.000 173.000
214.000 175.000
200.000 174.000
196.000 170.000
195.000 160.000
197.000 122.000
192.000 104.000
192.000 93.000
189.000 102.000
175.000 126.000
175.000 124.000
173.000 124.000
164.000 151.000
158.000 163.000
131.000 200.000
133.000 202.000
131.000 203.000
130.000 201.000
121.000 213.000
116.000 213.000
112.000 216.000
113.000 219.000
104.000 222.000
86.000 225.000
26.000 230.000
21.000 234.000
22.000 237.000
26.000 235.000
40.000 234.000
59.000 235.000
73.000 231.000
88.000 231.000
92.000 229.000
108.000 227.000
124.000 228.000
146.000 238.000
166.000 244.000
183.000 254.000
205.000 271.000
226.000 296.000
227.000 294.000
231.000 295.000
244.000 309.000
247.000 315.000
248.000 313.000
246.000 309.000
247.000 300.000
245.000 281.000
240.000 256.000
241.000 251.000
249.000 247.000
255.000 247.000
283.000 253.000
306.000 265.000
317.000 273.000
331.000 287.000
348.000 312.000
354.000 329.000
363.000 345.000
365.000 355.000
365.000 342.000
367.000 339.000
374.000 338.000
378.000 340.000
392.000 354.000
400.000 366.000
402.000 366.000
416.000 379.000
420.000 387.000
422.000 388.000
423.000 387.000
418.000 377.000
416.000 360.000
412.000 348.000
413.000 340.000
409.000 333.000
403.000 307.000
388.000 261.000
388.000 254.000
395.000 246.000
410.000 239.000
418.000 237.000
454.000 238.000
469.000 241.000
488.000 250.000
512.000 255.000
513.000 254.000
505.000 239.000
505.000 231.000
510.000 227.000
517.000 225.000
549.000 227.000
552.000 223.000
566.000 222.000
601.000 227.000
610.000 232.000
