ply
format ascii 1.0
comment Dominant contour extracted from bimodal image.
comment scale factor = 0.235988
comment kernel width = 3
comment decimate eps = 1.000000
comment orig shape   = (1695, 2918)
comment threshold    = 209.500000
comment Written with hapPLY (https://github.com/nmwsharp/happly)
element flags 0
property uchar closed
element vertex 141
property double x
property double y
end_header
663.000 222.000
644.000 209.000
631.000 205.000
627.000 202.000
609.000 195.000
599.000 194.000
582.000 187.000
577.000 182.000
577.000 178.000
586.000 169.000
585.000 168.000
562.000 166.000
556.000 167.000
524.000 160.000
508.000 152.000
494.000 137.000
490.000 127.000
489.000 113.000
495.000 85.000
506.000 66.000
515.000 54.000
514.000 52.000
527.000 35.000
528.000 30.000
532.000 24.000
531.000 22.000
524.000 27.000
477.000 49.000
472.000 49.000
468.000 46.000
465.000 39.000
464.000 29.000
446.000 48.000
435.000 65.000
397.000 101.000
379.000 111.000
366.000 115.000
355.000 115.000
346.000 113.000
336.000 108.000
330.000 101.000
326.000 91.000
322.000 53.000
323.000 20.000
325.000 17.000
324.000 14.000
309.000 32.000
303.000 43.000
298.000 47.000
294.000 45.000
282.000 81.000
273.000 92.000
261.000 114.000
242.000 133.000
237.000 141.000
210.000 157.000
202.000 159.000
187.000 159.000
181.000 152.000
176.000 139.000
175.000 143.000
162.000 163.000
158.000 172.000
127.000 210.000
120.000 214.000
95.000 221.000
74.000 229.000
36.000 248.000
2.000 269.000
3.000 273.000
0.000 279.000
3.000 279.000
7.000 271.000
9.000 271.000
36.000 253.000
77.000 233.000
99.000 225.000
122.000 219.000
137.000 219.000
152.000 222.000
188.000 232.000
213.000 236.000
222.000 239.000
249.000 254.000
270.000 275.000
282.000 300.000
285.000 311.000
288.000 315.000
289.000 313.000
293.000 317.000
298.000 335.000
296.000 344.000
297.000 346.000
303.000 339.000
307.000 331.000
309.000 320.000
315.000 309.000
319.000 291.000
326.000 274.000
332.000 268.000
345.000 267.000
352.000 269.000
382.000 287.000
389.000 294.000
397.000 306.000
401.000 309.000
414.000 326.000
421.000 342.000
429.000 355.000
430.000 348.000
434.000 342.000
441.000 341.000
449.000 344.000
474.000 363.000
485.000 369.000
496.000 379.000
501.000 387.000
502.000 385.000
498.000 379.000
494.000 361.000
477.000 332.000
468.000 303.000
466.000 257.000
470.000 248.000
477.000 239.000
486.000 233.000
490.000 233.000
494.000 230.000
512.000 229.000
525.000 231.000
530.000 234.000
546.000 238.000
564.000 240.000
565.000 239.000
561.000 234.000
562.000 228.000
575.000 223.000
581.000 224.000
628.000 220.000
656.000 220.000
661.000 223.000
