ply
format ascii 1.0
comment Dominant contour extracted from bimodal image.
comment scale factor = 0.205128
comment kernel width = 3
comment decimate eps = 1.000000
comment orig shape   = (1950, 3109)
comment threshold    = 209.500000
comment Written with hapPLY (https://github.com/nmwsharp/happly)
element flags 0
property uchar closed
element vertex 184
property double x
property double y
end_header
620.000 215.000
619.000 213.000
614.000 214.000
605.000 207.000
572.000 201.000
565.000 195.000
563.000 197.000
565.000 199.000
563.000 197.000
564.000 195.000
557.000 189.000
555.000 185.000
555.000 180.000
569.000 163.000
568.000 162.000
566.000 163.000
549.000 161.000
510.000 160.000
494.000 156.000
485.000 151.000
480.000 143.000
479.000 137.000
482.000 111.000
487.000 94.000
496.000 78.000
497.000 70.000
511.000 47.000
513.000 33.000
512.000 32.000
500.000 42.000
490.000 46.000
485.000 45.000
478.000 49.000
464.000 49.000
457.000 44.000
450.000 26.000
450.000 20.000
447.000 28.000
441.000 33.000
433.000 44.000
426.000 51.000
420.000 53.000
418.000 61.000
402.000 86.000
391.000 99.000
377.000 111.000
375.000 115.000
372.000 115.000
370.000 118.000
358.000 125.000
348.000 127.000
341.000 131.000
328.000 129.000
323.000 126.000
314.000 113.000
311.000 95.000
313.000 85.000
312.000 84.000
311.000 86.000
312.000 82.000
308.000 47.000
310.000 26.000
309.000 23.000
299.000 33.000
297.000 39.000
292.000 43.000
290.000 49.000
284.000 55.000
280.000 56.000
275.000 52.000
274.000 49.000
273.000 50.000
273.000 55.000
267.000 75.000
267.000 83.000
262.000 100.000
263.000 106.000
256.000 114.000
255.000 121.000
247.000 133.000
225.000 154.000
216.000 157.000
204.000 165.000
193.000 168.000
185.000 168.000
183.000 166.000
185.000 152.000
183.000 133.000
169.000 152.000
157.000 162.000
147.000 178.000
139.000 186.000
134.000 196.000
129.000 200.000
99.000 204.000
79.000 204.000
28.000 208.000
25.000 211.000
26.000 213.000
30.000 212.000
31.000 214.000
72.000 210.000
120.000 210.000
161.000 237.000
200.000 274.000
201.000 266.000
199.000 251.000
195.000 238.000
196.000 232.000
203.000 227.000
217.000 227.000
230.000 232.000
248.000 250.000
255.000 263.000
268.000 302.000
274.000 342.000
275.000 343.000
277.000 338.000
284.000 337.000
289.000 341.000
296.000 351.000
301.000 363.000
309.000 372.000
311.000 371.000
311.000 360.000
309.000 353.000
310.000 335.000
312.000 332.000
311.000 317.000
314.000 310.000
313.000 287.000
315.000 284.000
314.000 278.000
316.000 268.000
321.000 255.000
327.000 249.000
335.000 248.000
343.000 253.000
354.000 263.000
373.000 287.000
386.000 310.000
403.000 334.000
413.000 358.000
414.000 355.000
422.000 358.000
431.000 366.000
442.000 380.000
444.000 361.000
447.000 352.000
452.000 347.000
467.000 343.000
481.000 343.000
486.000 341.000
489.000 342.000
499.000 340.000
507.000 341.000
526.000 335.000
520.000 334.000
514.000 330.000
497.000 323.000
488.000 314.000
486.000 314.000
483.000 308.000
476.000 302.000
476.000 298.000
469.000 281.000
465.000 266.000
466.000 247.000
476.000 235.000
484.000 229.000
487.000 231.000
493.000 231.000
497.000 233.000
509.000 233.000
521.000 236.000
531.000 243.000
540.000 247.000
553.000 248.000
554.000 247.000
551.000 242.000
551.000 236.000
558.000 229.000
587.000 223.000
604.000 216.000
