ply
format ascii 1.0
comment Dominant contour extracted from bimodal image.
comment scale factor = 0.166113
comment kernel width = 3
comment decimate eps = 1.000000
comment orig shape   = (2408, 3337)
comment threshold    = 233.000000
comment Written with hapPLY (https://github.com/nmwsharp/happly)
element flags 0
property uchar closed
element vertex 185
property double x
property double y
end_header
268.000 397.000
270.000 382.000
267.000 353.000
268.000 350.000
272.000 347.000
265.000 320.000
262.000 300.000
262.000 273.000
264.000 270.000
277.000 266.000
289.000 267.000
308.000 278.000
327.000 297.000
339.000 313.000
354.000 336.000
358.000 344.000
363.000 360.000
364.000 358.000
366.000 358.000
381.000 373.000
382.000 376.000
385.000 364.000
393.000 357.000
423.000 360.000
433.000 364.000
448.000 366.000
452.000 368.000
453.000 367.000
448.000 362.000
443.000 353.000
438.000 349.000
435.000 343.000
436.000 341.000
428.000 331.000
420.000 315.000
413.000 285.000
413.000 275.000
417.000 267.000
426.000 258.000
435.000 253.000
442.000 252.000
445.000 250.000
481.000 247.000
489.000 250.000
504.000 248.000
505.000 247.000
502.000 246.000
504.000 243.000
519.000 236.000
529.000 234.000
536.000 230.000
544.000 230.000
536.000 222.000
528.000 219.000
513.000 218.000
509.000 214.000
503.000 213.000
490.000 214.000
472.000 210.000
452.000 198.000
440.000 185.000
437.000 175.000
440.000 167.000
450.000 152.000
464.000 137.000
470.000 134.000
468.000 132.000
471.000 126.000
483.000 113.000
490.000 109.000
499.000 100.000
505.000 97.000
511.000 97.000
498.000 89.000
492.000 89.000
487.000 86.000
459.000 87.000
451.000 84.000
442.000 71.000
440.000 60.000
436.000 65.000
429.000 69.000
417.000 73.000
412.000 73.000
404.000 82.000
401.000 89.000
361.000 133.000
349.000 141.000
332.000 149.000
324.000 151.000
306.000 150.000
293.000 140.000
290.000 125.000
291.000 88.000
297.000 72.000
307.000 52.000
306.000 42.000
312.000 21.000
311.000 8.000
307.000 15.000
304.000 16.000
291.000 29.000
282.000 35.000
265.000 43.000
258.000 43.000
250.000 40.000
246.000 36.000
246.000 31.000
244.000 31.000
244.000 36.000
239.000 44.000
232.000 61.000
229.000 60.000
226.000 65.000
225.000 76.000
221.000 88.000
211.000 110.000
207.000 125.000
201.000 136.000
200.000 141.000
193.000 151.000
184.000 158.000
171.000 164.000
166.000 168.000
162.000 167.000
156.000 161.000
153.000 144.000
150.000 103.000
147.000 87.000
145.000 93.000
138.000 99.000
132.000 108.000
126.000 113.000
126.000 111.000
124.000 111.000
120.000 129.000
109.000 151.000
97.000 165.000
88.000 172.000
73.000 188.000
64.000 195.000
57.000 197.000
36.000 195.000
28.000 196.000
30.000 200.000
47.000 201.000
56.000 204.000
81.000 224.000
97.000 245.000
102.000 257.000
108.000 277.000
110.000 274.000
114.000 277.000
124.000 299.000
128.000 288.000
128.000 278.000
130.000 278.000
128.000 251.000
128.000 234.000
130.000 229.000
133.000 226.000
141.000 223.000
153.000 223.000
164.000 228.000
174.000 239.000
184.000 255.000
192.000 282.000
192.000 291.000
195.000 308.000
199.000 318.000
198.000 324.000
199.000 325.000
200.000 323.000
203.000 329.000
210.000 364.000
211.000 365.000
216.000 358.000
221.000 356.000
230.000 356.000
238.000 361.000
245.000 368.000
253.000 381.000
255.000 381.000
260.000 386.000
261.000 390.000
