ply
format ascii 1.0
comment Dominant contour extracted from bimodal image.
comment scale factor = 0.265076
comment kernel width = 3
comment decimate eps = 1.000000
comment orig shape   = (1509, 2745)
comment threshold    = 239.500000
comment Written with hapPLY (https://github.com/nmwsharp/happly)
element flags 0
property uchar closed
element vertex 172
property double x
property double y
end_header
22.000 241.000
32.000 250.000
41.000 253.000
45.000 251.000
79.000 251.000
100.000 253.000
166.000 254.000
186.000 260.000
233.000 279.000
247.000 286.000
270.000 301.000
284.000 315.000
294.000 333.000
299.000 356.000
301.000 356.000
301.000 350.000
307.000 350.000
316.000 357.000
316.000 359.000
326.000 370.000
333.000 386.000
333.000 392.000
335.000 395.000
338.000 373.000
337.000 363.000
339.000 360.000
336.000 351.000
335.000 339.000
335.000 285.000
345.000 269.000
355.000 264.000
368.000 260.000
385.000 260.000
390.000 262.000
416.000 265.000
439.000 275.000
451.000 283.000
464.000 295.000
472.000 311.000
476.000 313.000
487.000 328.000
493.000 341.000
493.000 349.000
497.000 326.000
501.000 316.000
505.000 313.000
522.000 315.000
535.000 319.000
549.000 328.000
575.000 339.000
581.000 343.000
582.000 342.000
572.000 333.000
563.000 321.000
556.000 307.000
555.000 301.000
529.000 267.000
514.000 239.000
513.000 224.000
517.000 214.000
533.000 199.000
573.000 184.000
585.000 182.000
610.000 182.000
629.000 184.000
639.000 187.000
647.000 187.000
647.000 185.000
636.000 184.000
632.000 182.000
625.000 171.000
625.000 166.000
630.000 161.000
658.000 147.000
672.000 144.000
704.000 131.000
688.000 128.000
637.000 127.000
633.000 125.000
635.000 121.000
634.000 120.000
629.000 123.000
615.000 127.000
591.000 127.000
578.000 125.000
565.000 119.000
556.000 110.000
556.000 95.000
563.000 74.000
573.000 57.000
579.000 43.000
580.000 35.000
583.000 29.000
582.000 27.000
577.000 36.000
570.000 41.000
564.000 43.000
548.000 58.000
538.000 65.000
523.000 71.000
520.000 69.000
520.000 58.000
517.000 66.000
502.000 81.000
501.000 84.000
476.000 102.000
462.000 108.000
447.000 107.000
442.000 104.000
439.000 100.000
441.000 99.000
438.000 98.000
427.000 71.000
425.000 61.000
418.000 47.000
412.000 30.000
408.000 13.000
406.000 27.000
407.000 28.000
405.000 28.000
405.000 32.000
408.000 34.000
406.000 34.000
405.000 32.000
396.000 61.000
392.000 66.000
389.000 66.000
384.000 59.000
383.000 60.000
385.000 64.000
383.000 74.000
384.000 91.000
378.000 106.000
378.000 110.000
372.000 117.000
369.000 126.000
364.000 133.000
339.000 155.000
332.000 158.000
317.000 160.000
310.000 159.000
306.000 155.000
299.000 136.000
290.000 119.000
289.000 110.000
288.000 109.000
286.000 111.000
279.000 100.000
281.000 98.000
278.000 97.000
274.000 92.000
267.000 78.000
266.000 80.000
271.000 90.000
270.000 97.000
236.000 96.000
230.000 98.000
269.000 99.000
269.000 105.000
262.000 123.000
257.000 124.000
254.000 157.000
245.000 181.000
229.000 203.000
212.000 216.000
170.000 242.000
150.000 246.000
93.000 247.000
61.000 244.000
33.000 243.000
25.000 237.000
22.000 239.000
