ply
format ascii 1.0
comment Dominant contour extracted from bimodal image.
comment scale factor = 0.450450
comment kernel width = 3
comment decimate eps = 1.000000
comment orig shape   = (888, 1378)
comment threshold    = 235.000000
comment Written with hapPLY (https://github.com/nmwsharp/happly)
element flags 0
property uchar closed
element vertex 161
property double x
property double y
end_header
24.000 349.000
26.000 352.000
35.000 352.000
38.000 349.000
44.000 348.000
54.000 342.000
66.000 340.000
79.000 346.000
94.000 348.000
98.000 350.000
105.000 350.000
111.000 354.000
118.000 354.000
130.000 358.000
141.000 358.000
146.000 355.000
148.000 358.000
166.000 364.000
167.000 363.000
178.000 368.000
206.000 372.000
216.000 369.000
222.000 369.000
224.000 367.000
226.000 368.000
228.000 366.000
227.000 364.000
229.000 361.000
237.000 357.000
242.000 357.000
251.000 363.000
264.000 368.000
272.000 373.000
295.000 380.000
317.000 382.000
323.000 379.000
325.000 380.000
331.000 378.000
335.000 371.000
336.000 355.000
334.000 350.000
334.000 340.000
328.000 324.000
329.000 315.000
334.000 309.000
340.000 306.000
349.000 304.000
357.000 305.000
368.000 303.000
389.000 306.000
402.000 312.000
411.000 314.000
419.000 320.000
446.000 332.000
468.000 345.000
478.000 347.000
486.000 346.000
487.000 342.000
495.000 334.000
514.000 333.000
523.000 331.000
537.000 325.000
542.000 318.000
540.000 309.000
536.000 300.000
516.000 275.000
513.000 269.000
514.000 260.000
526.000 246.000
542.000 233.000
568.000 221.000
576.000 215.000
583.000 212.000
595.000 200.000
595.000 197.000
589.000 185.000
589.000 181.000
595.000 169.000
601.000 161.000
609.000 144.000
608.000 129.000
602.000 123.000
582.000 115.000
548.000 114.000
540.000 116.000
532.000 115.000
515.000 118.000
513.000 116.000
508.000 116.000
505.000 118.000
500.000 115.000
495.000 116.000
488.000 114.000
477.000 114.000
449.000 109.000
441.000 103.000
438.000 97.000
432.000 71.000
432.000 65.000
422.000 45.000
414.000 37.000
399.000 37.000
385.000 43.000
372.000 52.000
355.000 67.000
348.000 70.000
339.000 80.000
328.000 100.000
327.000 105.000
322.000 112.000
319.000 122.000
320.000 129.000
318.000 136.000
316.000 139.000
311.000 140.000
306.000 145.000
301.000 156.000
301.000 161.000
291.000 162.000
279.000 171.000
271.000 175.000
265.000 176.000
260.000 174.000
253.000 167.000
247.000 157.000
234.000 144.000
225.000 139.000
213.000 129.000
212.000 131.000
207.000 133.000
203.000 139.000
194.000 147.000
190.000 157.000
186.000 162.000
182.000 173.000
184.000 176.000
184.000 182.000
172.000 198.000
171.000 204.000
168.000 207.000
167.000 211.000
164.000 214.000
162.000 214.000
157.000 220.000
142.000 230.000
128.000 246.000
94.000 278.000
80.000 297.000
71.000 314.000
62.000 327.000
48.000 335.000
36.000 336.000
32.000 334.000
31.000 335.000
33.000 337.000
38.000 338.000
29.000 341.000
26.000 340.000
25.000 345.000
23.000 346.000
26.000 347.000
