ply
format ascii 1.0
comment Dominant contour extracted from bimodal image.
comment scale factor = 0.387973
comment kernel width = 3
comment decimate eps = 1.000000
comment orig shape   = (1031, 1977)
comment threshold    = 194.500000
comment Written with hapPLY (https://github.com/nmwsharp/happly)
element flags 0
property uchar closed
element vertex 159
property double x
property double y
end_header
752.000 208.000
750.000 205.000
748.000 190.000
737.000 178.000
733.000 177.000
712.000 161.000
708.000 160.000
692.000 148.000
672.000 138.000
636.000 126.000
598.000 111.000
592.000 111.000
589.000 109.000
577.000 106.000
570.000 106.000
566.000 104.000
556.000 106.000
545.000 106.000
545.000 104.000
548.000 101.000
547.000 73.000
553.000 64.000
553.000 58.000
551.000 53.000
536.000 56.000
532.000 60.000
521.000 62.000
515.000 66.000
504.000 69.000
500.000 73.000
492.000 74.000
481.000 79.000
478.000 83.000
469.000 88.000
450.000 104.000
422.000 118.000
412.000 119.000
403.000 124.000
394.000 126.000
376.000 127.000
356.000 120.000
336.000 67.000
329.000 60.000
324.000 51.000
315.000 42.000
303.000 48.000
299.000 48.000
288.000 53.000
279.000 63.000
269.000 68.000
255.000 82.000
250.000 91.000
223.000 120.000
218.000 129.000
214.000 133.000
207.000 136.000
200.000 135.000
195.000 125.000
186.000 117.000
185.000 114.000
179.000 115.000
164.000 124.000
155.000 133.000
153.000 138.000
149.000 141.000
139.000 154.000
137.000 163.000
131.000 170.000
130.000 178.000
126.000 179.000
121.000 184.000
114.000 187.000
108.000 194.000
104.000 195.000
101.000 198.000
101.000 202.000
94.000 205.000
90.000 211.000
85.000 215.000
80.000 225.000
73.000 234.000
69.000 244.000
70.000 248.000
68.000 248.000
60.000 258.000
57.000 260.000
47.000 260.000
46.000 262.000
33.000 262.000
24.000 260.000
23.000 258.000
20.000 259.000
23.000 262.000
22.000 264.000
28.000 275.000
64.000 272.000
102.000 288.000
137.000 297.000
179.000 305.000
215.000 317.000
235.000 318.000
237.000 304.000
240.000 302.000
250.000 304.000
264.000 318.000
268.000 320.000
271.000 325.000
288.000 341.000
307.000 352.000
326.000 356.000
332.000 356.000
341.000 341.000
346.000 325.000
346.000 316.000
350.000 310.000
354.000 292.000
358.000 287.000
369.000 283.000
378.000 282.000
408.000 285.000
423.000 293.000
441.000 299.000
457.000 309.000
475.000 326.000
494.000 348.000
516.000 370.000
527.000 377.000
529.000 376.000
530.000 379.000
534.000 376.000
539.000 376.000
546.000 373.000
560.000 374.000
580.000 378.000
585.000 376.000
593.000 376.000
605.000 372.000
604.000 370.000
606.000 366.000
607.000 356.000
605.000 317.000
607.000 312.000
607.000 306.000
615.000 298.000
632.000 289.000
659.000 280.000
670.000 274.000
684.000 270.000
699.000 262.000
703.000 258.000
706.000 258.000
714.000 254.000
720.000 248.000
726.000 246.000
730.000 241.000
739.000 237.000
752.000 226.000
750.000 221.000
752.000 215.000
