ply
format ascii 1.0
comment Dominant contour extracted from bimodal image.
comment scale factor = 0.840336
comment kernel width = 3
comment decimate eps = 1.000000
comment orig shape   = (476, 1037)
comment threshold    = 242.500000
comment Written with hapPLY (https://github.com/nmwsharp/happly)
element flags 0
property uchar closed
element vertex 283
property double x
property double y
end_header
856.000 183.000
852.000 181.000
854.000 180.000
845.000 177.000
831.000 160.000
831.000 158.000
825.000 156.000
815.000 147.000
813.000 147.000
807.000 142.000
805.000 142.000
802.000 138.000
789.000 131.000
790.000 120.000
795.000 114.000
794.000 111.000
781.000 110.000
775.000 106.000
747.000 106.000
741.000 110.000
719.000 110.000
705.000 104.000
703.000 100.000
703.000 95.000
706.000 91.000
706.000 86.000
710.000 83.000
714.000 71.000
721.000 63.000
729.000 47.000
729.000 44.000
732.000 41.000
732.000 37.000
736.000 33.000
737.000 28.000
741.000 23.000
739.000 19.000
732.000 21.000
723.000 21.000
716.000 18.000
705.000 19.000
701.000 17.000
691.000 21.000
683.000 21.000
675.000 26.000
669.000 27.000
660.000 34.000
648.000 36.000
647.000 35.000
645.000 38.000
635.000 42.000
630.000 48.000
617.000 53.000
610.000 59.000
601.000 58.000
596.000 55.000
592.000 48.000
592.000 41.000
589.000 39.000
580.000 47.000
574.000 50.000
569.000 55.000
557.000 78.000
555.000 91.000
551.000 97.000
551.000 110.000
549.000 115.000
549.000 126.000
546.000 133.000
546.000 137.000
541.000 146.000
538.000 146.000
531.000 152.000
514.000 156.000
495.000 156.000
479.000 151.000
470.000 150.000
448.000 139.000
442.000 133.000
443.000 131.000
441.000 131.000
437.000 122.000
438.000 86.000
437.000 73.000
435.000 67.000
437.000 56.000
435.000 54.000
432.000 54.000
427.000 57.000
415.000 56.000
413.000 58.000
405.000 60.000
403.000 63.000
398.000 63.000
393.000 67.000
387.000 68.000
369.000 79.000
366.000 79.000
351.000 91.000
346.000 92.000
333.000 106.000
321.000 112.000
310.000 123.000
289.000 132.000
283.000 137.000
279.000 137.000
270.000 141.000
259.000 140.000
253.000 137.000
249.000 131.000
248.000 121.000
243.000 121.000
236.000 126.000
220.000 131.000
217.000 130.000
211.000 135.000
202.000 139.000
201.000 141.000
200.000 140.000
199.000 142.000
190.000 146.000
177.000 157.000
172.000 157.000
169.000 159.000
168.000 158.000
152.000 168.000
146.000 168.000
145.000 170.000
130.000 179.000
128.000 178.000
108.000 186.000
105.000 189.000
79.000 197.000
77.000 200.000
72.000 202.000
67.000 207.000
64.000 206.000
57.000 213.000
61.000 215.000
62.000 212.000
66.000 209.000
62.000 213.000
61.000 217.000
59.000 215.000
56.000 216.000
56.000 222.000
49.000 222.000
49.000 224.000
47.000 225.000
38.000 224.000
34.000 227.000
29.000 227.000
18.000 236.000
18.000 243.000
28.000 243.000
28.000 246.000
44.000 245.000
52.000 241.000
62.000 240.000
74.000 244.000
94.000 247.000
112.000 257.000
122.000 259.000
136.000 265.000
141.000 265.000
156.000 270.000
157.000 272.000
158.000 270.000
162.000 270.000
173.000 273.000
189.000 273.000
199.000 275.000
205.000 279.000
206.000 277.000
218.000 280.000
227.000 280.000
230.000 282.000
241.000 284.000
262.000 283.000
271.000 280.000
305.000 281.000
336.000 295.000
337.000 297.000
338.000 296.000
350.000 306.000
356.000 308.000
362.000 313.000
365.000 312.000
373.000 317.000
384.000 318.000
390.000 322.000
400.000 324.000
414.000 330.000
416.000 329.000
416.000 278.000
421.000 270.000
424.000 270.000
428.000 265.000
442.000 259.000
446.000 260.000
459.000 257.000
466.000 257.000
468.000 259.000
469.000 257.000
473.000 258.000
481.000 256.000
519.000 257.000
523.000 259.000
528.000 259.000
540.000 266.000
545.000 274.000
555.000 284.000
561.000 287.000
566.000 294.000
566.000 302.000
568.000 302.000
571.000 306.000
570.000 307.000
575.000 316.000
577.000 317.000
578.000 322.000
585.000 335.000
592.000 342.000
599.000 344.000
605.000 351.000
608.000 350.000
611.000 343.000
616.000 338.000
622.000 336.000
627.000 340.000
640.000 343.000
644.000 347.000
644.000 349.000
651.000 349.000
658.000 354.000
674.000 356.000
679.000 359.000
699.000 360.000
707.000 358.000
714.000 354.000
722.000 354.000
723.000 350.000
716.000 342.000
710.000 321.000
707.000 316.000
707.000 311.000
705.000 310.000
705.000 307.000
690.000 285.000
688.000 280.000
689.000 279.000
685.000 272.000
685.000 254.000
688.000 245.000
693.000 249.000
698.000 249.000
723.000 262.000
740.000 264.000
745.000 268.000
753.000 267.000
756.000 265.000
763.000 265.000
777.000 270.000
779.000 267.000
776.000 262.000
773.000 243.000
773.000 236.000
775.000 232.000
786.000 222.000
788.000 223.000
792.000 218.000
793.000 219.000
794.000 217.000
806.000 214.000
816.000 206.000
819.000 207.000
826.000 201.000
838.000 196.000
842.000 192.000
850.000 190.000
852.000 187.000
851.000 185.000
855.000 185.000
