ply
format ascii 1.0
comment Dominant contour extracted from bimodal image.
comment scale factor = 0.423280
comment kernel width = 3
comment decimate eps = 1.000000
comment orig shape   = (945, 1512)
comment threshold    = 217.500000
comment Written with hapPLY (https://github.com/nmwsharp/happly)
element flags 0
property uchar closed
element vertex 157
property double x
property double y
end_header
628.000 191.000
615.000 180.000
609.000 179.000
608.000 181.000
606.000 181.000
604.000 176.000
604.000 160.000
592.000 158.000
582.000 159.000
575.000 154.000
569.000 136.000
566.000 100.000
568.000 96.000
566.000 94.000
563.000 97.000
545.000 97.000
539.000 99.000
529.000 105.000
512.000 119.000
503.000 122.000
504.000 105.000
509.000 91.000
516.000 79.000
532.000 58.000
537.000 49.000
537.000 45.000
541.000 37.000
540.000 33.000
536.000 29.000
518.000 23.000
485.000 26.000
468.000 33.000
458.000 31.000
457.000 29.000
455.000 29.000
447.000 41.000
445.000 47.000
443.000 68.000
439.000 84.000
431.000 95.000
422.000 103.000
419.000 109.000
414.000 113.000
395.000 112.000
388.000 114.000
377.000 125.000
375.000 130.000
375.000 137.000
369.000 149.000
359.000 154.000
352.000 155.000
325.000 151.000
295.000 149.000
280.000 145.000
275.000 142.000
270.000 135.000
269.000 126.000
274.000 98.000
268.000 80.000
266.000 79.000
253.000 80.000
243.000 85.000
209.000 113.000
180.000 124.000
144.000 124.000
128.000 128.000
121.000 128.000
102.000 135.000
86.000 138.000
80.000 142.000
54.000 153.000
42.000 152.000
41.000 150.000
39.000 152.000
24.000 150.000
14.000 157.000
16.000 162.000
23.000 160.000
51.000 164.000
75.000 180.000
89.000 185.000
99.000 191.000
131.000 201.000
153.000 202.000
167.000 205.000
183.000 214.000
223.000 258.000
236.000 265.000
250.000 265.000
250.000 260.000
254.000 252.000
254.000 222.000
257.000 216.000
266.000 209.000
290.000 203.000
329.000 199.000
344.000 199.000
359.000 204.000
372.000 217.000
386.000 243.000
386.000 257.000
383.000 267.000
381.000 270.000
377.000 271.000
369.000 280.000
358.000 302.000
357.000 309.000
353.000 318.000
355.000 336.000
357.000 338.000
359.000 336.000
380.000 336.000
386.000 339.000
417.000 370.000
451.000 389.000
455.000 388.000
458.000 370.000
460.000 366.000
460.000 339.000
462.000 335.000
460.000 315.000
461.000 308.000
463.000 305.000
461.000 284.000
453.000 270.000
451.000 263.000
453.000 243.000
457.000 242.000
475.000 253.000
475.000 258.000
480.000 268.000
485.000 273.000
492.000 289.000
503.000 300.000
520.000 308.000
534.000 307.000
539.000 309.000
540.000 306.000
538.000 302.000
543.000 287.000
543.000 274.000
549.000 255.000
556.000 249.000
562.000 247.000
574.000 249.000
579.000 252.000
589.000 252.000
592.000 249.000
595.000 250.000
596.000 247.000
594.000 245.000
593.000 235.000
595.000 229.000
609.000 218.000
612.000 210.000
620.000 202.000
623.000 195.000
