ply
format ascii 1.0
comment Dominant contour extracted from bimodal image.
comment scale factor = 0.229753
comment kernel width = 3
comment decimate eps = 1.000000
comment orig shape   = (1741, 2865)
comment threshold    = 232.500000
comment Written with hapPLY (https://github.com/nmwsharp/happly)
element flags 0
property uchar closed
element vertex 170
property double x
property double y
end_header
645.000 183.000
639.000 174.000
626.000 166.000
618.000 159.000
614.000 158.000
612.000 154.000
604.000 147.000
600.000 138.000
597.000 135.000
571.000 134.000
560.000 125.000
553.000 111.000
548.000 90.000
548.000 83.000
546.000 81.000
535.000 81.000
522.000 84.000
505.000 95.000
503.000 95.000
491.000 105.000
479.000 112.000
472.000 102.000
472.000 64.000
461.000 42.000
457.000 42.000
455.000 44.000
452.000 44.000
441.000 49.000
429.000 58.000
425.000 65.000
411.000 79.000
402.000 84.000
394.000 85.000
391.000 82.000
388.000 73.000
385.000 48.000
382.000 42.000
380.000 28.000
374.000 17.000
370.000 13.000
363.000 12.000
350.000 19.000
335.000 35.000
334.000 39.000
329.000 44.000
320.000 64.000
301.000 85.000
300.000 95.000
302.000 104.000
312.000 124.000
310.000 127.000
310.000 133.000
299.000 153.000
277.000 172.000
267.000 176.000
227.000 179.000
215.000 178.000
200.000 174.000
188.000 167.000
180.000 159.000
174.000 147.000
164.000 134.000
161.000 133.000
150.000 139.000
128.000 161.000
111.000 171.000
59.000 191.000
49.000 193.000
31.000 204.000
16.000 204.000
15.000 206.000
9.000 207.000
7.000 211.000
9.000 215.000
14.000 219.000
18.000 216.000
30.000 215.000
44.000 222.000
72.000 230.000
77.000 230.000
82.000 234.000
98.000 241.000
123.000 242.000
133.000 248.000
149.000 264.000
158.000 277.000
166.000 283.000
182.000 287.000
184.000 286.000
190.000 271.000
192.000 249.000
195.000 243.000
202.000 236.000
210.000 232.000
234.000 232.000
244.000 236.000
261.000 250.000
271.000 265.000
276.000 278.000
276.000 291.000
271.000 316.000
272.000 331.000
282.000 340.000
305.000 366.000
325.000 381.000
340.000 387.000
348.000 387.000
354.000 375.000
356.000 360.000
356.000 340.000
354.000 333.000
353.000 313.000
356.000 283.000
358.000 280.000
361.000 279.000
369.000 280.000
376.000 284.000
383.000 294.000
383.000 297.000
390.000 309.000
390.000 313.000
400.000 338.000
419.000 358.000
433.000 369.000
443.000 374.000
446.000 374.000
447.000 376.000
453.000 378.000
455.000 377.000
461.000 381.000
465.000 380.000
467.000 384.000
471.000 383.000
478.000 385.000
482.000 382.000
486.000 364.000
486.000 357.000
484.000 355.000
486.000 354.000
484.000 349.000
484.000 338.000
482.000 335.000
480.000 335.000
482.000 332.000
482.000 327.000
477.000 314.000
475.000 302.000
476.000 295.000
491.000 299.000
513.000 312.000
527.000 316.000
539.000 316.000
542.000 312.000
543.000 294.000
541.000 288.000
543.000 286.000
541.000 280.000
542.000 272.000
545.000 268.000
553.000 263.000
579.000 261.000
594.000 255.000
597.000 252.000
597.000 244.000
606.000 225.000
624.000 206.000
628.000 205.000
637.000 199.000
643.000 193.000
645.000 189.000
