ply
format ascii 1.0
comment Dominant contour extracted from bimodal image.
comment scale factor = 0.475059
comment kernel width = 3
comment decimate eps = 1.000000
comment orig shape   = (842, 1622)
comment threshold    = 222.000000
comment Written with hapPLY (https://github.com/nmwsharp/happly)
element flags 0
property uchar closed
element vertex 182
property double x
property double y
end_header
736.000 221.000
730.000 215.000
720.000 199.000
695.000 175.000
687.000 162.000
686.000 152.000
671.000 148.000
656.000 152.000
635.000 152.000
632.000 149.000
629.000 138.000
629.000 127.000
631.000 120.000
630.000 106.000
633.000 102.000
632.000 100.000
600.000 100.000
589.000 102.000
563.000 116.000
554.000 128.000
548.000 132.000
548.000 136.000
544.000 143.000
539.000 142.000
533.000 136.000
528.000 134.000
524.000 127.000
524.000 119.000
527.000 111.000
531.000 106.000
531.000 99.000
545.000 79.000
547.000 69.000
554.000 60.000
559.000 44.000
564.000 37.000
562.000 34.000
561.000 35.000
553.000 31.000
550.000 32.000
540.000 29.000
535.000 29.000
527.000 32.000
516.000 32.000
510.000 35.000
498.000 37.000
479.000 50.000
476.000 56.000
464.000 67.000
450.000 91.000
435.000 106.000
433.000 114.000
409.000 138.000
394.000 147.000
387.000 147.000
382.000 150.000
372.000 150.000
363.000 145.000
343.000 145.000
323.000 140.000
318.000 136.000
314.000 128.000
314.000 115.000
311.000 108.000
311.000 98.000
309.000 97.000
306.000 99.000
296.000 99.000
288.000 101.000
284.000 105.000
272.000 110.000
255.000 125.000
246.000 129.000
236.000 137.000
224.000 138.000
214.000 143.000
188.000 146.000
180.000 151.000
172.000 154.000
161.000 155.000
148.000 161.000
139.000 163.000
120.000 164.000
112.000 169.000
86.000 180.000
79.000 185.000
67.000 185.000
57.000 182.000
45.000 182.000
40.000 180.000
38.000 182.000
37.000 180.000
31.000 178.000
31.000 186.000
29.000 187.000
35.000 189.000
38.000 192.000
47.000 193.000
50.000 196.000
71.000 196.000
77.000 198.000
99.000 210.000
103.000 214.000
110.000 216.000
116.000 221.000
147.000 230.000
157.000 235.000
180.000 239.000
186.000 242.000
202.000 245.000
210.000 249.000
230.000 251.000
237.000 255.000
249.000 258.000
269.000 278.000
279.000 284.000
284.000 291.000
291.000 294.000
303.000 304.000
305.000 303.000
308.000 294.000
311.000 290.000
317.000 268.000
326.000 256.000
337.000 249.000
347.000 247.000
365.000 247.000
369.000 249.000
379.000 259.000
385.000 259.000
391.000 262.000
406.000 263.000
416.000 268.000
429.000 270.000
434.000 273.000
435.000 275.000
441.000 278.000
446.000 284.000
454.000 302.000
460.000 308.000
464.000 317.000
474.000 326.000
480.000 338.000
484.000 342.000
492.000 345.000
513.000 360.000
520.000 360.000
537.000 368.000
541.000 366.000
539.000 339.000
540.000 333.000
536.000 314.000
532.000 308.000
531.000 297.000
533.000 293.000
533.000 286.000
539.000 275.000
541.000 266.000
550.000 267.000
559.000 271.000
563.000 275.000
566.000 275.000
577.000 280.000
578.000 283.000
586.000 291.000
599.000 301.000
610.000 307.000
623.000 311.000
646.000 315.000
648.000 292.000
650.000 287.000
650.000 281.000
654.000 271.000
662.000 265.000
682.000 256.000
692.000 255.000
699.000 249.000
699.000 247.000
704.000 246.000
707.000 241.000
713.000 237.000
719.000 230.000
