ply
format ascii 1.0
comment Dominant contour extracted from bimodal image.
comment scale factor = 0.551724
comment kernel width = 3
comment decimate eps = 1.000000
comment orig shape   = (725, 1104)
comment threshold    = 239.500000
comment Written with hapPLY (https://github.com/nmwsharp/happly)
element flags 0
property uchar closed
element vertex 167
property double x
property double y
end_header
603.000 204.000
602.000 200.000
593.000 194.000
587.000 185.000
585.000 177.000
585.000 166.000
587.000 159.000
572.000 153.000
568.000 153.000
560.000 149.000
556.000 144.000
554.000 139.000
555.000 121.000
558.000 117.000
557.000 114.000
551.000 113.000
546.000 110.000
534.000 110.000
532.000 112.000
518.000 114.000
509.000 118.000
499.000 127.000
490.000 131.000
490.000 125.000
487.000 119.000
487.000 109.000
490.000 92.000
496.000 75.000
501.000 66.000
501.000 63.000
506.000 56.000
512.000 37.000
516.000 30.000
515.000 26.000
500.000 21.000
464.000 22.000
445.000 29.000
443.000 28.000
439.000 30.000
434.000 30.000
421.000 41.000
418.000 48.000
410.000 56.000
404.000 58.000
396.000 56.000
389.000 51.000
382.000 49.000
380.000 46.000
378.000 47.000
372.000 57.000
367.000 70.000
366.000 93.000
368.000 97.000
367.000 104.000
369.000 107.000
369.000 111.000
375.000 126.000
380.000 130.000
383.000 135.000
383.000 144.000
378.000 157.000
372.000 166.000
363.000 175.000
349.000 181.000
326.000 181.000
322.000 179.000
292.000 173.000
276.000 165.000
267.000 155.000
266.000 117.000
261.000 102.000
261.000 98.000
256.000 97.000
253.000 99.000
241.000 101.000
217.000 112.000
183.000 146.000
175.000 150.000
162.000 154.000
136.000 153.000
132.000 155.000
113.000 156.000
100.000 161.000
91.000 162.000
81.000 166.000
75.000 171.000
68.000 173.000
58.000 179.000
40.000 197.000
17.000 197.000
8.000 195.000
3.000 199.000
3.000 201.000
8.000 206.000
14.000 209.000
23.000 209.000
25.000 213.000
27.000 211.000
31.000 211.000
36.000 214.000
43.000 222.000
73.000 234.000
108.000 241.000
147.000 239.000
168.000 242.000
180.000 250.000
186.000 259.000
216.000 289.000
233.000 299.000
248.000 302.000
254.000 305.000
259.000 286.000
259.000 272.000
256.000 251.000
259.000 242.000
263.000 238.000
277.000 231.000
290.000 228.000
327.000 227.000
336.000 229.000
348.000 235.000
356.000 241.000
372.000 262.000
372.000 265.000
370.000 266.000
371.000 272.000
368.000 279.000
366.000 290.000
366.000 315.000
368.000 323.000
374.000 334.000
382.000 342.000
386.000 340.000
391.000 340.000
402.000 334.000
436.000 351.000
453.000 357.000
472.000 361.000
499.000 357.000
504.000 358.000
506.000 356.000
501.000 348.000
501.000 344.000
490.000 318.000
475.000 289.000
472.000 280.000
472.000 270.000
475.000 265.000
485.000 268.000
492.000 273.000
500.000 276.000
506.000 281.000
516.000 285.000
533.000 287.000
538.000 284.000
548.000 284.000
549.000 280.000
540.000 252.000
540.000 243.000
548.000 239.000
561.000 240.000
570.000 238.000
585.000 232.000
587.000 230.000
584.000 227.000
580.000 215.000
590.000 204.000
