ply
format ascii 1.0
comment Dominant contour extracted from bimodal image.
comment scale factor = 0.342759
comment kernel width = 3
comment decimate eps = 1.000000
comment orig shape   = (1167, 2019)
comment threshold    = 207.500000
comment Written with hapPLY (https://github.com/nmwsharp/happly)
element flags 0
property uchar closed
element vertex 114
property double x
property double y
end_header
653.000 218.000
651.000 215.000
648.000 194.000
645.000 186.000
644.000 161.000
633.000 149.000
628.000 136.000
630.000 125.000
629.000 109.000
622.000 102.000
595.000 94.000
571.000 94.000
532.000 99.000
516.000 99.000
488.000 94.000
475.000 88.000
471.000 85.000
467.000 78.000
457.000 14.000
452.000 7.000
441.000 4.000
438.000 6.000
418.000 10.000
399.000 21.000
384.000 19.000
378.000 21.000
367.000 33.000
354.000 63.000
348.000 70.000
342.000 82.000
337.000 88.000
325.000 112.000
315.000 122.000
300.000 127.000
288.000 128.000
276.000 122.000
270.000 111.000
266.000 94.000
249.000 66.000
225.000 73.000
197.000 96.000
183.000 113.000
168.000 127.000
148.000 138.000
143.000 139.000
140.000 142.000
123.000 151.000
110.000 163.000
99.000 169.000
80.000 183.000
59.000 203.000
58.000 206.000
55.000 207.000
55.000 210.000
50.000 216.000
45.000 226.000
43.000 235.000
21.000 235.000
21.000 237.000
27.000 238.000
17.000 237.000
8.000 245.000
11.000 246.000
9.000 249.000
12.000 251.000
25.000 251.000
37.000 249.000
44.000 246.000
49.000 246.000
54.000 250.000
78.000 260.000
90.000 262.000
108.000 269.000
135.000 274.000
185.000 291.000
206.000 295.000
217.000 301.000
232.000 316.000
262.000 338.000
276.000 344.000
282.000 344.000
285.000 346.000
297.000 321.000
302.000 306.000
303.000 293.000
307.000 283.000
311.000 279.000
322.000 275.000
340.000 277.000
354.000 283.000
393.000 315.000
399.000 318.000
410.000 329.000
414.000 330.000
434.000 351.000
437.000 352.000
444.000 360.000
456.000 368.000
462.000 368.000
477.000 363.000
490.000 364.000
503.000 369.000
517.000 369.000
528.000 360.000
530.000 353.000
531.000 297.000
533.000 287.000
536.000 281.000
555.000 266.000
576.000 255.000
615.000 240.000
623.000 235.000
641.000 229.000
653.000 220.000
