ply
format ascii 1.0
comment Dominant contour extracted from bimodal image.
comment scale factor = 0.242866
comment kernel width = 3
comment decimate eps = 1.000000
comment orig shape   = (1647, 3116)
comment threshold    = 243.000000
comment Written with hapPLY (https://github.com/nmwsharp/happly)
element flags 0
property uchar closed
element vertex 160
property double x
property double y
end_header
736.000 218.000
736.000 209.000
733.000 204.000
716.000 187.000
678.000 161.000
646.000 149.000
633.000 139.000
631.000 134.000
631.000 125.000
635.000 109.000
635.000 103.000
633.000 96.000
630.000 93.000
621.000 90.000
601.000 90.000
594.000 91.000
581.000 97.000
561.000 103.000
542.000 103.000
537.000 97.000
537.000 83.000
543.000 60.000
546.000 41.000
546.000 30.000
540.000 22.000
532.000 20.000
509.000 20.000
490.000 26.000
485.000 26.000
470.000 21.000
463.000 22.000
444.000 40.000
439.000 51.000
432.000 59.000
432.000 61.000
426.000 68.000
423.000 75.000
414.000 86.000
408.000 97.000
391.000 111.000
386.000 112.000
383.000 115.000
372.000 117.000
354.000 126.000
346.000 125.000
340.000 121.000
332.000 110.000
331.000 79.000
329.000 71.000
327.000 69.000
325.000 60.000
321.000 52.000
316.000 47.000
304.000 51.000
289.000 59.000
264.000 83.000
258.000 85.000
250.000 93.000
244.000 96.000
234.000 105.000
224.000 109.000
217.000 109.000
213.000 107.000
211.000 103.000
209.000 90.000
202.000 79.000
199.000 79.000
182.000 87.000
178.000 91.000
169.000 95.000
161.000 101.000
154.000 103.000
152.000 105.000
145.000 106.000
137.000 111.000
126.000 114.000
121.000 118.000
105.000 124.000
102.000 127.000
96.000 129.000
84.000 139.000
77.000 140.000
66.000 148.000
56.000 146.000
52.000 143.000
50.000 144.000
46.000 140.000
41.000 140.000
37.000 134.000
34.000 136.000
32.000 140.000
36.000 152.000
44.000 153.000
60.000 159.000
75.000 173.000
98.000 189.000
101.000 193.000
105.000 194.000
115.000 202.000
151.000 220.000
160.000 226.000
181.000 247.000
197.000 258.000
202.000 258.000
202.000 255.000
211.000 243.000
215.000 231.000
219.000 230.000
229.000 236.000
236.000 247.000
244.000 270.000
251.000 282.000
263.000 297.000
274.000 308.000
282.000 313.000
289.000 314.000
291.000 309.000
303.000 293.000
314.000 266.000
310.000 259.000
315.000 264.000
320.000 255.000
325.000 251.000
333.000 248.000
349.000 248.000
372.000 256.000
393.000 266.000
444.000 311.000
457.000 330.000
473.000 363.000
484.000 374.000
491.000 375.000
492.000 377.000
500.000 374.000
511.000 366.000
516.000 366.000
540.000 375.000
569.000 375.000
582.000 370.000
587.000 364.000
588.000 354.000
583.000 331.000
577.000 316.000
573.000 312.000
570.000 297.000
568.000 295.000
567.000 283.000
571.000 277.000
578.000 273.000
586.000 271.000
609.000 269.000
621.000 264.000
625.000 264.000
655.000 255.000
663.000 251.000
693.000 243.000
703.000 237.000
706.000 237.000
721.000 230.000
729.000 225.000
