ply
format ascii 1.0
comment Dominant contour extracted from bimodal image.
comment scale factor = 0.402820
comment kernel width = 3
comment decimate eps = 1.000000
comment orig shape   = (993, 1824)
comment threshold    = 207.500000
comment Written with hapPLY (https://github.com/nmwsharp/happly)
element flags 0
property uchar closed
element vertex 181
property double x
property double y
end_header
727.000 230.000
724.000 224.000
710.000 207.000
690.000 187.000
689.000 182.000
692.000 179.000
688.000 175.000
678.000 172.000
668.000 172.000
661.000 168.000
658.000 164.000
658.000 122.000
657.000 121.000
641.000 123.000
635.000 125.000
618.000 135.000
612.000 137.000
605.000 137.000
599.000 131.000
594.000 102.000
589.000 89.000
586.000 86.000
566.000 102.000
543.000 144.000
535.000 150.000
525.000 149.000
520.000 141.000
516.000 130.000
517.000 118.000
514.000 105.000
514.000 94.000
512.000 90.000
512.000 55.000
492.000 14.000
475.000 23.000
463.000 34.000
453.000 46.000
449.000 55.000
440.000 67.000
433.000 71.000
420.000 71.000
408.000 73.000
408.000 87.000
413.000 98.000
420.000 108.000
432.000 120.000
440.000 125.000
443.000 130.000
445.000 139.000
445.000 149.000
435.000 175.000
421.000 191.000
409.000 198.000
399.000 201.000
374.000 202.000
345.000 196.000
302.000 195.000
296.000 192.000
291.000 186.000
289.000 171.000
285.000 158.000
278.000 146.000
278.000 143.000
276.000 142.000
256.000 152.000
237.000 172.000
227.000 186.000
213.000 192.000
187.000 194.000
177.000 190.000
175.000 187.000
175.000 183.000
173.000 182.000
157.000 188.000
148.000 195.000
116.000 202.000
96.000 213.000
91.000 213.000
83.000 219.000
72.000 223.000
55.000 224.000
34.000 222.000
31.000 226.000
32.000 231.000
34.000 233.000
38.000 232.000
41.000 234.000
64.000 234.000
76.000 242.000
85.000 244.000
97.000 250.000
112.000 253.000
123.000 257.000
153.000 262.000
174.000 272.000
190.000 274.000
194.000 277.000
197.000 275.000
196.000 273.000
198.000 270.000
203.000 267.000
211.000 265.000
221.000 265.000
240.000 270.000
255.000 280.000
281.000 308.000
304.000 319.000
311.000 310.000
311.000 305.000
313.000 302.000
313.000 282.000
317.000 271.000
325.000 265.000
350.000 256.000
370.000 253.000
404.000 245.000
428.000 245.000
441.000 250.000
450.000 256.000
461.000 266.000
467.000 275.000
470.000 282.000
470.000 295.000
467.000 298.000
462.000 311.000
462.000 320.000
466.000 333.000
469.000 330.000
482.000 330.000
491.000 334.000
495.000 338.000
497.000 343.000
495.000 352.000
495.000 368.000
503.000 382.000
519.000 376.000
532.000 378.000
540.000 382.000
555.000 382.000
572.000 380.000
575.000 378.000
583.000 377.000
585.000 375.000
582.000 372.000
583.000 361.000
579.000 345.000
573.000 333.000
568.000 329.000
568.000 325.000
564.000 318.000
557.000 311.000
551.000 294.000
551.000 286.000
560.000 292.000
562.000 297.000
578.000 318.000
582.000 320.000
587.000 326.000
598.000 332.000
608.000 334.000
615.000 338.000
617.000 335.000
617.000 326.000
620.000 315.000
619.000 313.000
621.000 309.000
621.000 302.000
619.000 297.000
619.000 282.000
621.000 275.000
627.000 269.000
628.000 264.000
643.000 263.000
651.000 271.000
666.000 274.000
672.000 273.000
675.000 258.000
695.000 238.000
698.000 239.000
706.000 234.000
719.000 230.000
