ply
format ascii 1.0
comment Dominant contour extracted from bimodal image.
comment scale factor = 0.260417
comment kernel width = 3
comment decimate eps = 1.000000
comment orig shape   = (1536, 2804)
comment threshold    = 242.000000
comment Written with hapPLY (https://github.com/nmwsharp/happly)
element flags 0
property uchar closed
element vertex 156
property double x
property double y
end_header
709.000 180.000
701.000 173.000
695.000 170.000
682.000 167.000
669.000 155.000
662.000 153.000
657.000 149.000
653.000 148.000
649.000 144.000
633.000 138.000
628.000 133.000
596.000 122.000
592.000 119.000
588.000 119.000
583.000 115.000
579.000 115.000
569.000 105.000
552.000 95.000
546.000 89.000
544.000 89.000
543.000 91.000
542.000 89.000
540.000 90.000
532.000 88.000
536.000 88.000
543.000 83.000
536.000 48.000
538.000 40.000
536.000 33.000
535.000 17.000
533.000 13.000
526.000 10.000
512.000 10.000
496.000 13.000
483.000 22.000
468.000 22.000
455.000 28.000
442.000 29.000
437.000 31.000
432.000 36.000
431.000 41.000
423.000 48.000
421.000 52.000
419.000 63.000
420.000 64.000
418.000 67.000
418.000 71.000
421.000 72.000
422.000 75.000
420.000 79.000
403.000 93.000
396.000 104.000
377.000 124.000
365.000 133.000
356.000 137.000
355.000 139.000
352.000 138.000
344.000 142.000
338.000 143.000
328.000 150.000
326.000 146.000
314.000 147.000
307.000 144.000
299.000 136.000
286.000 105.000
271.000 90.000
269.000 90.000
243.000 102.000
228.000 118.000
224.000 126.000
218.000 132.000
216.000 137.000
217.000 144.000
207.000 153.000
202.000 153.000
192.000 139.000
178.000 140.000
161.000 150.000
150.000 161.000
134.000 173.000
129.000 175.000
117.000 184.000
82.000 203.000
70.000 215.000
67.000 222.000
56.000 223.000
48.000 221.000
44.000 223.000
19.000 223.000
18.000 225.000
47.000 236.000
55.000 236.000
56.000 238.000
58.000 236.000
64.000 236.000
71.000 233.000
79.000 233.000
84.000 235.000
98.000 246.000
118.000 254.000
130.000 262.000
155.000 271.000
167.000 271.000
178.000 279.000
199.000 288.000
202.000 291.000
209.000 294.000
233.000 298.000
248.000 304.000
263.000 319.000
270.000 324.000
280.000 329.000
287.000 335.000
298.000 340.000
320.000 342.000
326.000 336.000
333.000 323.000
337.000 295.000
340.000 289.000
343.000 286.000
354.000 281.000
372.000 279.000
382.000 283.000
411.000 304.000
432.000 328.000
448.000 343.000
465.000 367.000
475.000 378.000
478.000 377.000
496.000 380.000
510.000 388.000
520.000 391.000
533.000 390.000
543.000 393.000
565.000 393.000
569.000 385.000
569.000 366.000
571.000 358.000
564.000 318.000
564.000 310.000
567.000 304.000
571.000 300.000
589.000 291.000
594.000 287.000
624.000 273.000
634.000 264.000
640.000 261.000
656.000 246.000
664.000 236.000
667.000 228.000
675.000 221.000
675.000 218.000
678.000 217.000
690.000 202.000
702.000 192.000
707.000 186.000
