ply
format ascii 1.0
comment Dominant contour extracted from bimodal image.
comment scale factor = 0.301205
comment kernel width = 3
comment decimate eps = 1.000000
comment orig shape   = (1328, 2388)
comment threshold    = 244.000000
comment Written with hapPLY (https://github.com/nmwsharp/happly)
element flags 0
property uchar closed
element vertex 147
property double x
property double y
end_header
686.000 197.000
685.000 189.000
663.000 167.000
658.000 165.000
637.000 148.000
597.000 128.000
597.000 109.000
591.000 101.000
584.000 98.000
573.000 96.000
554.000 95.000
541.000 97.000
519.000 97.000
506.000 94.000
500.000 91.000
495.000 85.000
492.000 71.000
493.000 49.000
491.000 39.000
491.000 25.000
487.000 12.000
481.000 6.000
468.000 5.000
455.000 7.000
441.000 12.000
416.000 28.000
397.000 28.000
390.000 36.000
378.000 58.000
376.000 68.000
368.000 90.000
361.000 101.000
359.000 114.000
352.000 121.000
350.000 126.000
343.000 134.000
331.000 140.000
319.000 144.000
314.000 143.000
312.000 145.000
301.000 145.000
282.000 137.000
278.000 132.000
276.000 120.000
270.000 104.000
262.000 94.000
260.000 89.000
255.000 88.000
245.000 90.000
228.000 99.000
216.000 109.000
211.000 116.000
195.000 131.000
190.000 122.000
183.000 122.000
170.000 125.000
158.000 131.000
147.000 139.000
129.000 146.000
117.000 153.000
113.000 153.000
109.000 156.000
100.000 157.000
85.000 163.000
80.000 167.000
61.000 176.000
47.000 189.000
45.000 189.000
43.000 193.000
36.000 191.000
32.000 191.000
31.000 193.000
22.000 193.000
20.000 191.000
17.000 191.000
12.000 194.000
14.000 201.000
12.000 202.000
14.000 206.000
18.000 209.000
32.000 208.000
33.000 210.000
38.000 210.000
46.000 208.000
48.000 212.000
65.000 223.000
71.000 224.000
101.000 236.000
111.000 238.000
116.000 241.000
127.000 244.000
129.000 246.000
147.000 251.000
176.000 264.000
184.000 272.000
191.000 275.000
202.000 286.000
205.000 291.000
221.000 305.000
238.000 312.000
253.000 294.000
258.000 283.000
259.000 277.000
265.000 268.000
274.000 264.000
286.000 262.000
296.000 263.000
312.000 268.000
326.000 276.000
329.000 276.000
337.000 280.000
352.000 296.000
351.000 298.000
355.000 300.000
372.000 326.000
384.000 355.000
394.000 369.000
401.000 376.000
403.000 374.000
419.000 371.000
433.000 377.000
454.000 383.000
475.000 383.000
480.000 380.000
485.000 366.000
485.000 359.000
487.000 353.000
487.000 338.000
485.000 330.000
487.000 292.000
490.000 285.000
495.000 280.000
511.000 275.000
544.000 273.000
550.000 271.000
580.000 273.000
603.000 271.000
607.000 268.000
609.000 264.000
610.000 248.000
616.000 241.000
638.000 226.000
641.000 226.000
661.000 216.000
668.000 210.000
672.000 209.000
681.000 203.000
