ply
format ascii 1.0
comment Dominant contour extracted from bimodal image.
comment scale factor = 0.530504
comment kernel width = 3
comment decimate eps = 1.000000
comment orig shape   = (754, 1462)
comment threshold    = 219.500000
comment Written with hapPLY (https://github.com/nmwsharp/happly)
element flags 0
property uchar closed
element vertex 216
property double x
property double y
end_header
744.000 127.000
738.000 127.000
721.000 120.000
710.000 119.000
706.000 116.000
700.000 116.000
693.000 109.000
681.000 108.000
672.000 105.000
669.000 106.000
652.000 97.000
648.000 97.000
642.000 92.000
636.000 91.000
629.000 83.000
624.000 61.000
618.000 49.000
618.000 45.000
616.000 44.000
610.000 48.000
605.000 47.000
593.000 53.000
578.000 66.000
575.000 71.000
575.000 74.000
567.000 85.000
567.000 94.000
565.000 96.000
565.000 99.000
558.000 110.000
555.000 112.000
554.000 117.000
546.000 124.000
542.000 124.000
538.000 129.000
534.000 130.000
527.000 121.000
524.000 114.000
524.000 88.000
526.000 77.000
525.000 70.000
528.000 61.000
528.000 38.000
527.000 34.000
520.000 30.000
509.000 16.000
500.000 18.000
483.000 27.000
477.000 28.000
473.000 31.000
468.000 31.000
459.000 26.000
457.000 29.000
454.000 43.000
454.000 50.000
456.000 55.000
456.000 70.000
453.000 77.000
441.000 85.000
437.000 85.000
427.000 78.000
425.000 79.000
427.000 101.000
437.000 132.000
437.000 148.000
434.000 155.000
431.000 158.000
418.000 165.000
394.000 172.000
371.000 172.000
356.000 167.000
342.000 166.000
318.000 161.000
304.000 155.000
296.000 147.000
295.000 115.000
290.000 104.000
291.000 99.000
289.000 98.000
284.000 101.000
275.000 100.000
268.000 103.000
266.000 107.000
250.000 120.000
245.000 128.000
235.000 137.000
233.000 142.000
223.000 150.000
212.000 153.000
210.000 155.000
203.000 155.000
182.000 148.000
178.000 142.000
179.000 135.000
172.000 134.000
143.000 148.000
113.000 157.000
100.000 158.000
69.000 169.000
57.000 176.000
39.000 177.000
22.000 174.000
14.000 170.000
6.000 178.000
17.000 183.000
43.000 187.000
52.000 190.000
59.000 199.000
67.000 203.000
89.000 223.000
95.000 227.000
102.000 228.000
130.000 238.000
143.000 251.000
147.000 252.000
154.000 259.000
161.000 263.000
166.000 263.000
179.000 267.000
180.000 255.000
183.000 251.000
196.000 247.000
211.000 251.000
219.000 258.000
231.000 261.000
236.000 271.000
250.000 287.000
257.000 290.000
267.000 302.000
281.000 311.000
300.000 319.000
313.000 319.000
315.000 317.000
314.000 314.000
317.000 308.000
319.000 292.000
315.000 272.000
315.000 261.000
319.000 253.000
327.000 246.000
339.000 242.000
381.000 237.000
413.000 229.000
430.000 229.000
452.000 239.000
459.000 246.000
469.000 262.000
470.000 270.000
468.000 284.000
459.000 301.000
456.000 314.000
456.000 326.000
460.000 350.000
470.000 371.000
475.000 366.000
482.000 362.000
483.000 363.000
495.000 349.000
499.000 347.000
529.000 363.000
540.000 367.000
553.000 376.000
560.000 377.000
572.000 384.000
586.000 386.000
589.000 388.000
595.000 388.000
600.000 386.000
621.000 384.000
628.000 381.000
619.000 367.000
616.000 355.000
612.000 347.000
607.000 342.000
605.000 333.000
596.000 315.000
583.000 297.000
581.000 287.000
572.000 262.000
573.000 252.000
577.000 247.000
579.000 249.000
583.000 247.000
588.000 250.000
594.000 258.000
599.000 259.000
612.000 269.000
620.000 272.000
622.000 275.000
635.000 280.000
654.000 281.000
661.000 280.000
667.000 276.000
675.000 275.000
677.000 271.000
672.000 266.000
671.000 257.000
663.000 239.000
663.000 226.000
665.000 223.000
678.000 219.000
704.000 216.000
721.000 208.000
721.000 206.000
718.000 204.000
715.000 195.000
714.000 182.000
718.000 178.000
721.000 171.000
726.000 166.000
728.000 160.000
731.000 158.000
736.000 150.000
740.000 140.000
740.000 132.000
744.000 129.000
