ply
format ascii 1.0
comment Dominant contour extracted from bimodal image.
comment scale factor = 0.224845
comment kernel width = 3
comment decimate eps = 1.000000
comment orig shape   = (1779, 2819)
comment threshold    = 239.500000
comment Written with hapPLY (https://github.com/nmwsharp/happly)
element flags 0
property uchar closed
element vertex 130
property double x
property double y
end_header
610.000 176.000
607.000 172.000
606.000 162.000
603.000 159.000
578.000 146.000
566.000 137.000
561.000 128.000
561.000 124.000
555.000 106.000
540.000 99.000
531.000 97.000
517.000 97.000
498.000 101.000
486.000 101.000
482.000 99.000
478.000 91.000
478.000 56.000
472.000 24.000
467.000 20.000
446.000 19.000
429.000 22.000
415.000 27.000
404.000 33.000
394.000 32.000
388.000 36.000
382.000 45.000
378.000 57.000
377.000 72.000
373.000 94.000
363.000 112.000
349.000 127.000
329.000 138.000
322.000 140.000
308.000 140.000
294.000 134.000
287.000 127.000
283.000 116.000
270.000 98.000
262.000 90.000
257.000 89.000
249.000 91.000
236.000 99.000
219.000 115.000
211.000 126.000
202.000 135.000
195.000 139.000
183.000 141.000
175.000 138.000
173.000 142.000
171.000 140.000
172.000 138.000
168.000 134.000
164.000 134.000
163.000 138.000
162.000 131.000
155.000 132.000
146.000 137.000
123.000 162.000
120.000 162.000
110.000 170.000
100.000 173.000
97.000 176.000
91.000 176.000
81.000 182.000
78.000 182.000
65.000 188.000
60.000 192.000
46.000 193.000
38.000 196.000
12.000 195.000
8.000 200.000
8.000 203.000
12.000 208.000
42.000 208.000
83.000 224.000
93.000 226.000
117.000 236.000
127.000 238.000
141.000 245.000
158.000 250.000
169.000 256.000
181.000 258.000
198.000 268.000
212.000 279.000
228.000 285.000
234.000 284.000
236.000 286.000
244.000 278.000
251.000 266.000
252.000 256.000
254.000 252.000
263.000 248.000
277.000 249.000
284.000 252.000
289.000 252.000
291.000 256.000
309.000 265.000
323.000 275.000
337.000 292.000
348.000 318.000
351.000 339.000
355.000 353.000
363.000 364.000
366.000 371.000
365.000 372.000
367.000 374.000
369.000 371.000
370.000 374.000
376.000 375.000
396.000 385.000
411.000 390.000
436.000 392.000
439.000 390.000
438.000 387.000
442.000 382.000
450.000 351.000
449.000 333.000
451.000 317.000
459.000 297.000
466.000 292.000
487.000 284.000
522.000 266.000
541.000 260.000
559.000 252.000
573.000 243.000
598.000 231.000
602.000 227.000
603.000 215.000
606.000 204.000
606.000 196.000
