ply
format ascii 1.0
comment Dominant contour extracted from bimodal image.
comment scale factor = 0.410678
comment kernel width = 3
comment decimate eps = 1.000000
comment orig shape   = (974, 1616)
comment threshold    = 204.000000
comment Written with hapPLY (https://github.com/nmwsharp/happly)
element flags 0
property uchar closed
element vertex 144
property double x
property double y
end_header
10.000 234.000
14.000 238.000
25.000 238.000
24.000 242.000
27.000 244.000
28.000 251.000
40.000 263.000
47.000 266.000
50.000 270.000
64.000 278.000
74.000 287.000
77.000 287.000
87.000 295.000
99.000 299.000
103.000 303.000
115.000 306.000
124.000 305.000
129.000 312.000
144.000 320.000
146.000 325.000
158.000 337.000
168.000 342.000
179.000 351.000
199.000 352.000
204.000 350.000
214.000 334.000
213.000 327.000
219.000 317.000
221.000 310.000
233.000 302.000
242.000 299.000
248.000 299.000
253.000 303.000
255.000 311.000
267.000 331.000
270.000 340.000
279.000 349.000
283.000 356.000
297.000 370.000
317.000 382.000
336.000 384.000
339.000 383.000
346.000 376.000
351.000 369.000
359.000 350.000
359.000 340.000
362.000 333.000
363.000 323.000
369.000 314.000
378.000 311.000
390.000 313.000
397.000 317.000
407.000 325.000
412.000 333.000
431.000 354.000
449.000 367.000
482.000 377.000
513.000 377.000
516.000 375.000
517.000 376.000
518.000 373.000
521.000 371.000
525.000 356.000
524.000 346.000
526.000 343.000
526.000 327.000
524.000 312.000
528.000 287.000
571.000 255.000
588.000 248.000
600.000 238.000
621.000 207.000
625.000 204.000
632.000 194.000
632.000 190.000
637.000 184.000
640.000 175.000
641.000 160.000
636.000 153.000
612.000 131.000
589.000 115.000
576.000 108.000
552.000 100.000
516.000 98.000
506.000 96.000
499.000 89.000
487.000 65.000
475.000 53.000
471.000 51.000
463.000 51.000
447.000 60.000
434.000 71.000
404.000 101.000
398.000 109.000
392.000 112.000
388.000 111.000
380.000 104.000
376.000 96.000
354.000 71.000
345.000 65.000
338.000 64.000
328.000 71.000
312.000 87.000
299.000 121.000
299.000 132.000
289.000 148.000
286.000 160.000
279.000 166.000
275.000 173.000
263.000 172.000
255.000 167.000
252.000 161.000
251.000 150.000
247.000 140.000
247.000 136.000
242.000 127.000
236.000 121.000
221.000 121.000
207.000 128.000
198.000 135.000
180.000 153.000
176.000 161.000
163.000 170.000
162.000 173.000
155.000 173.000
148.000 170.000
142.000 163.000
138.000 153.000
122.000 156.000
97.000 171.000
95.000 174.000
87.000 177.000
85.000 181.000
75.000 184.000
73.000 187.000
46.000 201.000
34.000 212.000
31.000 223.000
28.000 227.000
17.000 228.000
14.000 230.000
16.000 231.000
12.000 231.000
12.000 233.000
