ply
format ascii 1.0
comment Dominant contour extracted from bimodal image.
comment scale factor = 0.232019
comment kernel width = 3
comment decimate eps = 1.000000
comment orig shape   = (1724, 3299)
comment threshold    = 246.500000
comment Written with hapPLY (https://github.com/nmwsharp/happly)
element flags 0
property uchar closed
element vertex 171
property double x
property double y
end_header
754.000 162.000
745.000 155.000
734.000 153.000
724.000 148.000
721.000 148.000
698.000 136.000
692.000 131.000
687.000 123.000
685.000 109.000
682.000 102.000
668.000 101.000
653.000 106.000
639.000 115.000
631.000 115.000
624.000 112.000
620.000 102.000
616.000 67.000
611.000 52.000
599.000 52.000
588.000 56.000
580.000 62.000
578.000 62.000
568.000 72.000
560.000 84.000
536.000 105.000
519.000 105.000
518.000 101.000
515.000 98.000
515.000 88.000
518.000 80.000
519.000 68.000
523.000 55.000
524.000 29.000
522.000 21.000
518.000 19.000
496.000 23.000
482.000 30.000
470.000 40.000
453.000 49.000
439.000 53.000
440.000 55.000
436.000 58.000
433.000 65.000
433.000 87.000
430.000 100.000
421.000 118.000
410.000 135.000
399.000 146.000
385.000 154.000
369.000 156.000
352.000 150.000
341.000 140.000
336.000 130.000
326.000 121.000
307.000 129.000
295.000 139.000
275.000 152.000
264.000 155.000
244.000 154.000
236.000 146.000
232.000 134.000
227.000 125.000
222.000 119.000
216.000 119.000
205.000 123.000
173.000 153.000
157.000 161.000
137.000 161.000
128.000 157.000
126.000 152.000
124.000 151.000
121.000 153.000
117.000 153.000
105.000 161.000
94.000 166.000
76.000 169.000
64.000 174.000
51.000 177.000
34.000 187.000
31.000 186.000
12.000 188.000
11.000 193.000
13.000 199.000
30.000 195.000
38.000 195.000
45.000 200.000
57.000 205.000
64.000 206.000
71.000 210.000
95.000 213.000
98.000 215.000
117.000 215.000
137.000 225.000
153.000 237.000
157.000 231.000
170.000 223.000
179.000 225.000
188.000 230.000
194.000 236.000
204.000 255.000
210.000 264.000
217.000 271.000
227.000 278.000
241.000 282.000
242.000 279.000
251.000 270.000
258.000 252.000
266.000 240.000
277.000 233.000
309.000 228.000
343.000 227.000
351.000 229.000
369.000 240.000
384.000 254.000
384.000 256.000
388.000 258.000
405.000 280.000
412.000 292.000
413.000 309.000
411.000 329.000
411.000 357.000
413.000 366.000
419.000 369.000
427.000 368.000
436.000 371.000
458.000 383.000
461.000 386.000
467.000 386.000
474.000 390.000
486.000 392.000
489.000 394.000
510.000 397.000
514.000 395.000
513.000 394.000
515.000 371.000
510.000 343.000
503.000 324.000
501.000 313.000
501.000 302.000
503.000 298.000
516.000 290.000
532.000 289.000
551.000 296.000
555.000 299.000
563.000 301.000
584.000 300.000
591.000 297.000
599.000 291.000
609.000 278.000
610.000 274.000
616.000 265.000
622.000 262.000
639.000 265.000
652.000 272.000
668.000 275.000
671.000 273.000
678.000 274.000
682.000 272.000
685.000 259.000
684.000 254.000
688.000 230.000
690.000 228.000
690.000 225.000
693.000 221.000
696.000 212.000
700.000 211.000
707.000 204.000
715.000 200.000
725.000 189.000
738.000 178.000
752.000 169.000
