ply
format ascii 1.0
comment Dominant contour extracted from bimodal image.
comment scale factor = 0.410678
comment kernel width = 3
comment decimate eps = 1.000000
comment orig shape   = (974, 1596)
comment threshold    = 245.500000
comment Written with hapPLY (https://github.com/nmwsharp/happly)
element flags 0
property uchar closed
element vertex 162
property double x
property double y
end_header
632.000 205.000
623.000 189.000
608.000 175.000
607.000 172.000
597.000 162.000
586.000 156.000
582.000 151.000
574.000 147.000
567.000 141.000
558.000 138.000
542.000 130.000
541.000 128.000
540.000 129.000
506.000 113.000
504.000 110.000
492.000 107.000
491.000 105.000
490.000 106.000
479.000 104.000
478.000 102.000
474.000 103.000
465.000 99.000
458.000 98.000
444.000 91.000
438.000 84.000
435.000 77.000
434.000 63.000
431.000 54.000
432.000 53.000
430.000 52.000
428.000 47.000
427.000 37.000
425.000 33.000
406.000 33.000
405.000 35.000
397.000 36.000
391.000 39.000
374.000 43.000
357.000 55.000
342.000 63.000
341.000 62.000
338.000 66.000
336.000 65.000
336.000 67.000
332.000 70.000
331.000 69.000
318.000 84.000
308.000 92.000
306.000 92.000
303.000 96.000
302.000 95.000
299.000 98.000
295.000 98.000
293.000 101.000
269.000 115.000
253.000 117.000
249.000 119.000
242.000 119.000
236.000 122.000
230.000 122.000
210.000 129.000
194.000 131.000
187.000 135.000
179.000 136.000
158.000 145.000
157.000 144.000
156.000 146.000
151.000 147.000
149.000 150.000
130.000 152.000
122.000 156.000
118.000 156.000
109.000 161.000
105.000 161.000
98.000 167.000
89.000 171.000
84.000 171.000
68.000 177.000
65.000 180.000
58.000 183.000
55.000 187.000
45.000 194.000
31.000 193.000
26.000 196.000
27.000 201.000
30.000 203.000
45.000 204.000
57.000 213.000
67.000 217.000
74.000 222.000
83.000 224.000
93.000 229.000
103.000 231.000
110.000 235.000
116.000 235.000
125.000 238.000
130.000 238.000
133.000 240.000
139.000 240.000
171.000 253.000
201.000 259.000
214.000 267.000
221.000 269.000
234.000 280.000
243.000 284.000
244.000 286.000
245.000 285.000
248.000 288.000
258.000 290.000
264.000 283.000
277.000 278.000
288.000 278.000
304.000 286.000
313.000 295.000
315.000 295.000
342.000 325.000
344.000 331.000
351.000 335.000
357.000 342.000
358.000 341.000
361.000 344.000
378.000 351.000
384.000 355.000
409.000 362.000
438.000 360.000
439.000 348.000
444.000 327.000
444.000 301.000
447.000 295.000
462.000 289.000
466.000 289.000
471.000 286.000
478.000 286.000
480.000 284.000
487.000 284.000
496.000 281.000
497.000 282.000
498.000 280.000
501.000 280.000
502.000 278.000
515.000 272.000
517.000 273.000
518.000 271.000
523.000 269.000
542.000 265.000
551.000 261.000
553.000 262.000
555.000 259.000
560.000 259.000
562.000 256.000
569.000 256.000
574.000 252.000
576.000 253.000
577.000 251.000
582.000 250.000
585.000 247.000
595.000 243.000
598.000 239.000
605.000 235.000
613.000 228.000
615.000 224.000
628.000 213.000
