ply
format ascii 1.0
comment Dominant contour extracted from bimodal image.
comment scale factor = 0.225734
comment kernel width = 3
comment decimate eps = 1.000000
comment orig shape   = (1772, 3154)
comment threshold    = 246.000000
comment Written with hapPLY (https://github.com/nmwsharp/happly)
element flags 0
property uchar closed
element vertex 160
property double x
property double y
end_header
693.000 203.000
689.000 193.000
687.000 184.000
688.000 181.000
685.000 177.000
678.000 172.000
673.000 172.000
664.000 167.000
630.000 134.000
623.000 123.000
621.000 112.000
619.000 109.000
618.000 97.000
615.000 92.000
589.000 93.000
567.000 105.000
555.000 107.000
550.000 91.000
546.000 65.000
544.000 60.000
540.000 56.000
533.000 56.000
529.000 58.000
520.000 59.000
504.000 72.000
502.000 72.000
499.000 77.000
493.000 80.000
487.000 86.000
476.000 90.000
468.000 89.000
465.000 80.000
466.000 59.000
470.000 48.000
438.000 14.000
413.000 27.000
406.000 35.000
402.000 43.000
388.000 53.000
380.000 55.000
377.000 54.000
368.000 57.000
368.000 75.000
376.000 106.000
376.000 125.000
371.000 138.000
362.000 150.000
356.000 153.000
333.000 157.000
324.000 157.000
300.000 152.000
293.000 152.000
283.000 143.000
280.000 138.000
270.000 105.000
262.000 91.000
259.000 88.000
248.000 91.000
235.000 101.000
223.000 114.000
207.000 143.000
189.000 154.000
175.000 158.000
161.000 158.000
152.000 150.000
138.000 131.000
123.000 141.000
116.000 149.000
113.000 156.000
105.000 163.000
98.000 167.000
82.000 169.000
70.000 173.000
59.000 179.000
55.000 183.000
47.000 186.000
34.000 197.000
25.000 200.000
22.000 199.000
20.000 207.000
23.000 211.000
43.000 210.000
60.000 215.000
74.000 215.000
81.000 217.000
87.000 216.000
90.000 218.000
100.000 219.000
103.000 222.000
104.000 221.000
112.000 223.000
118.000 226.000
121.000 226.000
125.000 221.000
130.000 218.000
149.000 215.000
160.000 219.000
176.000 231.000
182.000 239.000
205.000 262.000
221.000 269.000
230.000 251.000
235.000 224.000
242.000 215.000
250.000 212.000
263.000 210.000
275.000 210.000
294.000 215.000
299.000 218.000
314.000 235.000
321.000 253.000
323.000 278.000
321.000 288.000
315.000 301.000
314.000 311.000
318.000 315.000
325.000 318.000
335.000 328.000
343.000 341.000
367.000 370.000
381.000 377.000
394.000 350.000
400.000 341.000
400.000 298.000
402.000 280.000
401.000 268.000
404.000 257.000
404.000 249.000
407.000 241.000
411.000 239.000
418.000 240.000
424.000 243.000
439.000 261.000
447.000 282.000
452.000 306.000
450.000 330.000
456.000 349.000
459.000 352.000
477.000 356.000
488.000 363.000
506.000 378.000
520.000 385.000
530.000 387.000
537.000 375.000
540.000 359.000
540.000 341.000
537.000 317.000
537.000 306.000
539.000 299.000
546.000 299.000
557.000 303.000
578.000 315.000
589.000 319.000
602.000 319.000
613.000 299.000
619.000 274.000
628.000 258.000
635.000 251.000
660.000 235.000
681.000 213.000
