ply
format ascii 1.0
comment Dominant contour extracted from bimodal image.
comment scale factor = 0.227015
comment kernel width = 3
comment decimate eps = 1.000000
comment orig shape   = (1762, 3309)
comment threshold    = 247.000000
comment Written with hapPLY (https://github.com/nmwsharp/happly)
element flags 0
property uchar closed
element vertex 162
property double x
property double y
end_header
721.000 194.000
720.000 187.000
710.000 177.000
691.000 163.000
683.000 155.000
682.000 152.000
672.000 144.000
631.000 137.000
601.000 126.000
592.000 119.000
582.000 115.000
581.000 113.000
565.000 110.000
557.000 99.000
557.000 71.000
555.000 54.000
550.000 43.000
547.000 40.000
530.000 42.000
505.000 53.000
488.000 65.000
478.000 75.000
460.000 102.000
452.000 107.000
444.000 107.000
438.000 104.000
432.000 98.000
430.000 92.000
433.000 66.000
433.000 51.000
430.000 40.000
425.000 30.000
421.000 26.000
395.000 33.000
381.000 40.000
353.000 63.000
347.000 66.000
339.000 66.000
334.000 78.000
329.000 103.000
321.000 123.000
307.000 140.000
297.000 145.000
289.000 145.000
257.000 135.000
250.000 125.000
244.000 107.000
244.000 103.000
223.000 99.000
214.000 95.000
211.000 85.000
203.000 69.000
201.000 67.000
179.000 72.000
169.000 77.000
159.000 84.000
130.000 112.000
120.000 119.000
117.000 120.000
117.000 116.000
110.000 102.000
99.000 104.000
72.000 120.000
68.000 125.000
63.000 124.000
53.000 132.000
52.000 131.000
51.000 133.000
45.000 136.000
41.000 135.000
28.000 143.000
20.000 142.000
17.000 140.000
11.000 148.000
11.000 155.000
9.000 156.000
15.000 159.000
19.000 158.000
26.000 160.000
33.000 172.000
48.000 183.000
63.000 190.000
71.000 199.000
90.000 212.000
97.000 205.000
106.000 200.000
114.000 199.000
119.000 201.000
126.000 206.000
129.000 211.000
132.000 211.000
136.000 215.000
144.000 229.000
158.000 248.000
173.000 263.000
194.000 272.000
198.000 272.000
209.000 259.000
214.000 251.000
217.000 241.000
223.000 229.000
233.000 220.000
244.000 214.000
264.000 211.000
285.000 212.000
290.000 214.000
296.000 214.000
314.000 221.000
325.000 230.000
337.000 246.000
342.000 256.000
345.000 266.000
344.000 268.000
350.000 285.000
351.000 306.000
343.000 356.000
344.000 368.000
363.000 375.000
397.000 397.000
414.000 386.000
420.000 380.000
431.000 374.000
443.000 364.000
450.000 361.000
461.000 352.000
462.000 347.000
457.000 324.000
457.000 314.000
459.000 306.000
464.000 300.000
472.000 301.000
473.000 303.000
478.000 304.000
481.000 307.000
481.000 309.000
490.000 317.000
508.000 338.000
524.000 352.000
541.000 359.000
542.000 361.000
543.000 360.000
551.000 363.000
575.000 363.000
579.000 358.000
582.000 344.000
581.000 326.000
578.000 315.000
578.000 300.000
586.000 292.000
595.000 290.000
610.000 290.000
616.000 288.000
618.000 286.000
618.000 278.000
623.000 264.000
626.000 259.000
636.000 249.000
663.000 231.000
680.000 224.000
695.000 214.000
704.000 205.000
711.000 202.000
