ply
format ascii 1.0
comment Dominant contour extracted from bimodal image.
comment scale factor = 0.347826
comment kernel width = 3
comment decimate eps = 1.000000
comment orig shape   = (1150, 2397)
comment threshold    = 196.000000
comment Written with hapPLY (https://github.com/nmwsharp/happly)
element flags 0
property uchar closed
element vertex 173
property double x
property double y
end_header
821.000 174.000
820.000 167.000
816.000 162.000
800.000 157.000
718.000 157.000
709.000 160.000
703.000 155.000
687.000 151.000
672.000 151.000
661.000 153.000
651.000 153.000
641.000 150.000
638.000 152.000
630.000 151.000
620.000 133.000
621.000 115.000
632.000 91.000
646.000 69.000
657.000 46.000
656.000 31.000
654.000 29.000
652.000 31.000
651.000 27.000
636.000 24.000
621.000 26.000
609.000 31.000
599.000 33.000
578.000 43.000
572.000 44.000
563.000 43.000
550.000 35.000
548.000 32.000
539.000 36.000
531.000 42.000
508.000 79.000
479.000 115.000
456.000 135.000
440.000 142.000
438.000 142.000
430.000 136.000
422.000 126.000
418.000 85.000
413.000 75.000
406.000 67.000
403.000 67.000
390.000 72.000
380.000 83.000
372.000 89.000
371.000 92.000
367.000 94.000
360.000 102.000
342.000 117.000
332.000 122.000
325.000 128.000
301.000 140.000
297.000 140.000
295.000 142.000
280.000 146.000
265.000 154.000
262.000 153.000
252.000 157.000
222.000 160.000
215.000 163.000
201.000 164.000
192.000 167.000
190.000 169.000
178.000 172.000
162.000 180.000
140.000 196.000
124.000 202.000
106.000 202.000
76.000 198.000
55.000 198.000
33.000 194.000
17.000 188.000
11.000 189.000
10.000 196.000
8.000 196.000
7.000 198.000
12.000 198.000
12.000 205.000
14.000 207.000
39.000 209.000
41.000 211.000
57.000 211.000
61.000 213.000
62.000 211.000
117.000 213.000
128.000 215.000
141.000 221.000
153.000 229.000
157.000 230.000
157.000 233.000
195.000 272.000
199.000 273.000
207.000 281.000
211.000 282.000
217.000 289.000
230.000 294.000
234.000 298.000
236.000 298.000
243.000 306.000
254.000 311.000
256.000 315.000
264.000 322.000
266.000 327.000
278.000 340.000
280.000 340.000
284.000 345.000
293.000 348.000
303.000 339.000
315.000 325.000
319.000 323.000
331.000 324.000
361.000 341.000
372.000 345.000
377.000 351.000
390.000 359.000
398.000 368.000
404.000 371.000
408.000 376.000
412.000 377.000
425.000 373.000
433.000 381.000
443.000 384.000
450.000 388.000
456.000 377.000
457.000 365.000
447.000 323.000
451.000 315.000
456.000 310.000
464.000 305.000
474.000 303.000
499.000 310.000
515.000 318.000
538.000 323.000
547.000 327.000
561.000 339.000
562.000 343.000
573.000 358.000
576.000 365.000
589.000 376.000
596.000 376.000
609.000 368.000
628.000 369.000
633.000 372.000
665.000 380.000
683.000 382.000
716.000 382.000
723.000 379.000
727.000 375.000
729.000 370.000
729.000 361.000
726.000 350.000
721.000 343.000
718.000 335.000
712.000 328.000
703.000 312.000
694.000 300.000
691.000 293.000
695.000 281.000
709.000 270.000
719.000 259.000
721.000 254.000
720.000 242.000
722.000 240.000
734.000 239.000
759.000 230.000
774.000 218.000
784.000 213.000
794.000 201.000
803.000 196.000
818.000 182.000
