ply
format ascii 1.0
comment Dominant contour extracted from bimodal image.
comment scale factor = 0.270088
comment kernel width = 3
comment decimate eps = 1.000000
comment orig shape   = (1481, 2736)
comment threshold    = 179.500000
comment Written with hapPLY (https://github.com/nmwsharp/happly)
element flags 0
property uchar closed
element vertex 145
property double x
property double y
end_header
729.000 214.000
728.000 209.000
718.000 202.000
702.000 199.000
672.000 189.000
637.000 182.000
617.000 176.000
606.000 170.000
592.000 167.000
589.000 164.000
572.000 156.000
561.000 147.000
544.000 140.000
543.000 128.000
549.000 112.000
557.000 96.000
561.000 92.000
579.000 61.000
587.000 43.000
590.000 32.000
582.000 26.000
564.000 29.000
547.000 36.000
541.000 40.000
535.000 41.000
523.000 49.000
489.000 66.000
475.000 67.000
465.000 61.000
464.000 59.000
459.000 60.000
450.000 68.000
444.000 77.000
442.000 85.000
439.000 90.000
427.000 103.000
400.000 120.000
373.000 130.000
353.000 132.000
344.000 129.000
339.000 124.000
340.000 106.000
344.000 94.000
346.000 79.000
339.000 75.000
328.000 75.000
319.000 78.000
307.000 85.000
302.000 86.000
279.000 99.000
260.000 105.000
228.000 119.000
220.000 124.000
207.000 127.000
196.000 132.000
184.000 141.000
176.000 144.000
163.000 153.000
150.000 165.000
148.000 170.000
138.000 181.000
132.000 185.000
53.000 192.000
43.000 192.000
34.000 189.000
21.000 189.000
14.000 187.000
10.000 191.000
10.000 194.000
12.000 195.000
10.000 197.000
11.000 198.000
8.000 200.000
11.000 205.000
13.000 204.000
11.000 206.000
12.000 212.000
17.000 214.000
20.000 213.000
22.000 209.000
50.000 200.000
95.000 194.000
113.000 195.000
121.000 199.000
135.000 214.000
159.000 232.000
173.000 238.000
178.000 238.000
192.000 243.000
199.000 243.000
206.000 246.000
221.000 249.000
238.000 260.000
253.000 273.000
257.000 274.000
263.000 280.000
267.000 281.000
273.000 289.000
287.000 296.000
295.000 295.000
295.000 292.000
299.000 287.000
301.000 261.000
305.000 246.000
309.000 242.000
317.000 239.000
333.000 243.000
346.000 249.000
358.000 261.000
369.000 269.000
405.000 301.000
420.000 321.000
442.000 361.000
449.000 368.000
456.000 373.000
468.000 367.000
476.000 367.000
492.000 376.000
513.000 382.000
516.000 382.000
521.000 378.000
519.000 366.000
513.000 353.000
507.000 346.000
486.000 304.000
478.000 278.000
477.000 266.000
479.000 259.000
483.000 255.000
491.000 252.000
512.000 251.000
544.000 254.000
558.000 257.000
565.000 256.000
593.000 263.000
600.000 267.000
642.000 281.000
669.000 284.000
673.000 278.000
673.000 273.000
669.000 257.000
666.000 251.000
667.000 244.000
686.000 234.000
711.000 225.000
