ply
format ascii 1.0
comment Dominant contour extracted from bimodal image.
comment scale factor = 0.300300
comment kernel width = 3
comment decimate eps = 1.000000
comment orig shape   = (1332, 3023)
comment threshold    = 192.000000
comment Written with hapPLY (https://github.com/nmwsharp/happly)
element flags 0
property uchar closed
element vertex 160
property double x
property double y
end_header
889.000 257.000
887.000 254.000
888.000 251.000
882.000 244.000
870.000 238.000
834.000 214.000
818.000 208.000
801.000 197.000
792.000 189.000
790.000 189.000
788.000 184.000
778.000 174.000
769.000 168.000
759.000 164.000
750.000 158.000
729.000 152.000
716.000 146.000
707.000 145.000
696.000 140.000
684.000 138.000
677.000 134.000
670.000 124.000
667.000 112.000
678.000 62.000
678.000 48.000
674.000 26.000
671.000 22.000
648.000 19.000
638.000 22.000
626.000 28.000
591.000 54.000
576.000 61.000
561.000 71.000
545.000 84.000
485.000 114.000
474.000 117.000
454.000 126.000
440.000 129.000
428.000 129.000
418.000 125.000
410.000 117.000
402.000 98.000
397.000 90.000
397.000 87.000
389.000 87.000
356.000 106.000
340.000 118.000
332.000 126.000
321.000 131.000
305.000 142.000
277.000 152.000
267.000 153.000
265.000 155.000
257.000 157.000
245.000 164.000
239.000 170.000
234.000 171.000
222.000 179.000
212.000 182.000
199.000 190.000
189.000 194.000
178.000 203.000
167.000 209.000
162.000 214.000
163.000 215.000
162.000 214.000
155.000 219.000
149.000 221.000
120.000 241.000
74.000 247.000
45.000 245.000
44.000 247.000
35.000 249.000
33.000 251.000
34.000 254.000
29.000 262.000
30.000 266.000
33.000 269.000
37.000 269.000
38.000 271.000
39.000 270.000
39.000 273.000
42.000 275.000
50.000 272.000
48.000 269.000
45.000 268.000
48.000 268.000
52.000 265.000
55.000 266.000
58.000 262.000
83.000 256.000
94.000 256.000
102.000 253.000
127.000 253.000
159.000 266.000
168.000 267.000
175.000 270.000
186.000 270.000
209.000 279.000
221.000 281.000
227.000 284.000
232.000 284.000
249.000 290.000
277.000 295.000
288.000 299.000
295.000 299.000
304.000 304.000
327.000 306.000
342.000 314.000
383.000 331.000
387.000 334.000
414.000 341.000
425.000 339.000
427.000 340.000
436.000 328.000
438.000 323.000
454.000 307.000
464.000 304.000
472.000 308.000
488.000 312.000
503.000 321.000
516.000 325.000
528.000 331.000
570.000 362.000
584.000 368.000
592.000 374.000
604.000 379.000
613.000 385.000
616.000 385.000
626.000 390.000
642.000 391.000
651.000 389.000
654.000 386.000
653.000 382.000
655.000 369.000
653.000 362.000
654.000 345.000
651.000 325.000
651.000 309.000
657.000 301.000
665.000 298.000
672.000 298.000
679.000 295.000
700.000 292.000
706.000 289.000
717.000 289.000
726.000 285.000
744.000 282.000
758.000 282.000
763.000 280.000
792.000 279.000
797.000 281.000
809.000 282.000
809.000 279.000
810.000 281.000
825.000 283.000
839.000 282.000
866.000 275.000
882.000 267.000
888.000 261.000
