ply
format ascii 1.0
comment Dominant contour extracted from bimodal image.
comment scale factor = 0.353045
comment kernel width = 3
comment decimate eps = 1.000000
comment orig shape   = (1133, 2689)
comment threshold    = 158.500000
comment Written with hapPLY (https://github.com/nmwsharp/happly)
element flags 0
property uchar closed
element vertex 143
property double x
property double y
end_header
922.000 239.000
920.000 238.000
921.000 234.000
919.000 230.000
913.000 224.000
892.000 210.000
889.000 206.000
876.000 196.000
868.000 192.000
863.000 187.000
853.000 182.000
840.000 172.000
836.000 164.000
836.000 145.000
839.000 133.000
838.000 121.000
833.000 116.000
817.000 115.000
810.000 117.000
801.000 117.000
769.000 128.000
755.000 130.000
742.000 136.000
724.000 141.000
720.000 144.000
708.000 143.000
703.000 145.000
673.000 145.000
661.000 141.000
642.000 140.000
625.000 130.000
619.000 124.000
616.000 118.000
613.000 94.000
613.000 56.000
611.000 46.000
606.000 37.000
592.000 39.000
570.000 51.000
551.000 69.000
523.000 100.000
481.000 126.000
444.000 141.000
423.000 144.000
411.000 142.000
401.000 134.000
392.000 118.000
386.000 119.000
372.000 130.000
370.000 135.000
361.000 147.000
346.000 162.000
326.000 169.000
320.000 173.000
305.000 177.000
291.000 185.000
283.000 187.000
263.000 197.000
252.000 199.000
242.000 204.000
230.000 206.000
204.000 217.000
191.000 219.000
177.000 225.000
153.000 232.000
105.000 232.000
72.000 235.000
52.000 235.000
42.000 233.000
36.000 230.000
35.000 228.000
33.000 230.000
27.000 227.000
24.000 230.000
21.000 229.000
14.000 236.000
12.000 241.000
12.000 249.000
16.000 255.000
22.000 257.000
26.000 255.000
31.000 261.000
35.000 259.000
40.000 253.000
53.000 247.000
65.000 244.000
78.000 244.000
82.000 242.000
114.000 240.000
140.000 241.000
186.000 256.000
191.000 256.000
194.000 258.000
205.000 258.000
243.000 267.000
261.000 269.000
300.000 280.000
318.000 279.000
331.000 282.000
343.000 282.000
349.000 284.000
355.000 283.000
357.000 285.000
369.000 289.000
375.000 289.000
383.000 293.000
409.000 295.000
447.000 317.000
473.000 329.000
480.000 329.000
481.000 325.000
485.000 320.000
490.000 290.000
498.000 278.000
509.000 271.000
523.000 267.000
553.000 268.000
572.000 275.000
612.000 301.000
642.000 324.000
656.000 330.000
674.000 346.000
687.000 352.000
693.000 357.000
703.000 362.000
735.000 370.000
744.000 366.000
746.000 349.000
748.000 345.000
746.000 302.000
751.000 291.000
759.000 283.000
776.000 276.000
791.000 274.000
809.000 274.000
825.000 276.000
833.000 280.000
850.000 283.000
869.000 282.000
873.000 280.000
874.000 273.000
882.000 260.000
913.000 247.000
