ply
format ascii 1.0
comment Dominant contour extracted from bimodal image.
comment scale factor = 0.460829
comment kernel width = 3
comment decimate eps = 1.000000
comment orig shape   = (868, 1996)
comment threshold    = 241.000000
comment Written with hapPLY (https://github.com/nmwsharp/happly)
element flags 0
property uchar closed
element vertex 174
property double x
property double y
end_header
897.000 139.000
887.000 128.000
881.000 126.000
878.000 123.000
872.000 121.000
864.000 121.000
857.000 118.000
841.000 118.000
832.000 116.000
811.000 115.000
809.000 116.000
800.000 114.000
788.000 115.000
778.000 114.000
776.000 111.000
774.000 112.000
774.000 114.000
765.000 113.000
760.000 115.000
754.000 115.000
743.000 112.000
718.000 109.000
704.000 104.000
700.000 104.000
684.000 93.000
679.000 83.000
678.000 62.000
676.000 52.000
676.000 31.000
674.000 29.000
661.000 28.000
649.000 31.000
639.000 37.000
621.000 52.000
608.000 58.000
585.000 77.000
581.000 78.000
573.000 84.000
555.000 93.000
550.000 94.000
544.000 99.000
513.000 115.000
501.000 119.000
475.000 122.000
460.000 121.000
442.000 116.000
431.000 110.000
424.000 102.000
418.000 89.000
412.000 81.000
412.000 73.000
395.000 73.000
375.000 83.000
353.000 101.000
343.000 112.000
328.000 123.000
316.000 129.000
307.000 130.000
294.000 135.000
271.000 147.000
261.000 150.000
238.000 165.000
223.000 171.000
219.000 171.000
195.000 179.000
174.000 190.000
165.000 192.000
160.000 199.000
161.000 200.000
158.000 209.000
153.000 213.000
146.000 213.000
151.000 217.000
144.000 217.000
142.000 221.000
135.000 226.000
135.000 230.000
133.000 233.000
134.000 236.000
131.000 240.000
123.000 241.000
125.000 237.000
122.000 233.000
122.000 228.000
120.000 226.000
122.000 223.000
120.000 220.000
116.000 222.000
108.000 221.000
117.000 212.000
120.000 213.000
124.000 209.000
124.000 205.000
121.000 204.000
113.000 209.000
107.000 210.000
100.000 215.000
94.000 217.000
90.000 222.000
80.000 229.000
72.000 230.000
60.000 244.000
57.000 253.000
35.000 263.000
24.000 266.000
22.000 270.000
26.000 275.000
29.000 275.000
59.000 266.000
68.000 265.000
75.000 262.000
81.000 263.000
84.000 261.000
91.000 267.000
101.000 272.000
125.000 277.000
141.000 284.000
151.000 285.000
169.000 292.000
184.000 293.000
205.000 290.000
250.000 292.000
260.000 291.000
272.000 293.000
347.000 292.000
364.000 294.000
373.000 297.000
380.000 297.000
407.000 306.000
436.000 307.000
440.000 309.000
450.000 309.000
452.000 305.000
456.000 302.000
468.000 298.000
483.000 297.000
490.000 295.000
517.000 297.000
538.000 302.000
558.000 310.000
575.000 322.000
583.000 325.000
620.000 360.000
645.000 378.000
665.000 386.000
679.000 386.000
686.000 383.000
688.000 379.000
688.000 369.000
685.000 360.000
687.000 354.000
687.000 345.000
683.000 326.000
684.000 298.000
691.000 291.000
706.000 280.000
708.000 280.000
723.000 267.000
733.000 263.000
736.000 260.000
742.000 258.000
752.000 251.000
766.000 244.000
770.000 244.000
786.000 236.000
801.000 231.000
838.000 224.000
840.000 222.000
839.000 220.000
842.000 211.000
848.000 199.000
870.000 182.000
889.000 163.000
894.000 144.000
