ply
format ascii 1.0
comment Dominant contour extracted from bimodal image.
comment scale factor = 0.404449
comment kernel width = 3
comment decimate eps = 1.000000
comment orig shape   = (989, 2425)
comment threshold    = 216.500000
comment Written with hapPLY (https://github.com/nmwsharp/happly)
element flags 0
property uchar closed
element vertex 183
property double x
property double y
end_header
966.000 236.000
966.000 232.000
955.000 221.000
947.000 218.000
934.000 209.000
930.000 208.000
918.000 195.000
895.000 177.000
887.000 174.000
853.000 172.000
845.000 169.000
839.000 163.000
835.000 153.000
832.000 123.000
833.000 119.000
823.000 113.000
796.000 114.000
759.000 130.000
745.000 132.000
737.000 135.000
718.000 134.000
706.000 129.000
700.000 120.000
698.000 113.000
698.000 98.000
692.000 79.000
688.000 76.000
672.000 74.000
662.000 76.000
655.000 81.000
625.000 95.000
618.000 102.000
594.000 111.000
588.000 111.000
563.000 117.000
554.000 116.000
544.000 110.000
539.000 101.000
538.000 78.000
536.000 73.000
537.000 68.000
535.000 60.000
533.000 57.000
533.000 53.000
527.000 43.000
527.000 40.000
521.000 37.000
505.000 43.000
491.000 57.000
490.000 60.000
482.000 68.000
479.000 75.000
471.000 81.000
459.000 98.000
443.000 112.000
432.000 117.000
425.000 123.000
412.000 129.000
403.000 131.000
391.000 129.000
381.000 124.000
375.000 118.000
365.000 122.000
362.000 126.000
359.000 126.000
336.000 138.000
314.000 145.000
293.000 145.000
263.000 155.000
235.000 157.000
232.000 159.000
219.000 162.000
215.000 165.000
206.000 166.000
197.000 170.000
190.000 168.000
181.000 170.000
175.000 174.000
160.000 174.000
142.000 180.000
119.000 180.000
85.000 173.000
85.000 170.000
77.000 172.000
63.000 170.000
60.000 173.000
35.000 170.000
27.000 175.000
28.000 179.000
24.000 182.000
25.000 188.000
23.000 189.000
25.000 191.000
23.000 190.000
20.000 192.000
20.000 194.000
23.000 196.000
39.000 201.000
48.000 201.000
52.000 199.000
57.000 200.000
57.000 198.000
60.000 199.000
62.000 196.000
67.000 197.000
68.000 195.000
64.000 193.000
67.000 191.000
77.000 192.000
81.000 194.000
103.000 193.000
147.000 197.000
173.000 209.000
207.000 220.000
232.000 221.000
235.000 223.000
243.000 224.000
249.000 227.000
254.000 227.000
274.000 233.000
287.000 233.000
310.000 241.000
348.000 243.000
363.000 248.000
377.000 250.000
386.000 254.000
396.000 255.000
399.000 257.000
409.000 257.000
416.000 260.000
427.000 262.000
439.000 262.000
449.000 265.000
463.000 274.000
468.000 275.000
479.000 285.000
495.000 296.000
513.000 302.000
523.000 302.000
524.000 296.000
529.000 290.000
541.000 280.000
549.000 277.000
584.000 279.000
600.000 286.000
612.000 286.000
621.000 289.000
626.000 289.000
633.000 291.000
643.000 298.000
648.000 298.000
659.000 306.000
669.000 310.000
684.000 325.000
689.000 327.000
705.000 344.000
715.000 352.000
724.000 356.000
731.000 362.000
742.000 368.000
757.000 373.000
773.000 372.000
781.000 369.000
784.000 366.000
782.000 361.000
787.000 313.000
791.000 301.000
797.000 291.000
802.000 287.000
815.000 281.000
822.000 281.000
833.000 283.000
856.000 282.000
871.000 287.000
892.000 287.000
900.000 289.000
911.000 288.000
915.000 285.000
914.000 270.000
916.000 264.000
921.000 258.000
927.000 254.000
951.000 248.000
