ply
format ascii 1.0
comment Dominant contour extracted from bimodal image.
comment scale factor = 0.328677
comment kernel width = 3
comment decimate eps = 1.000000
comment orig shape   = (1217, 2505)
comment threshold    = 162.500000
comment Written with hapPLY (https://github.com/nmwsharp/happly)
element flags 0
property uchar closed
element vertex 150
property double x
property double y
end_header
819.000 210.000
812.000 210.000
806.000 203.000
801.000 201.000
796.000 195.000
782.000 190.000
766.000 175.000
760.000 157.000
759.000 145.000
757.000 143.000
738.000 139.000
733.000 141.000
726.000 141.000
723.000 143.000
681.000 144.000
675.000 141.000
668.000 140.000
659.000 135.000
651.000 122.000
646.000 102.000
645.000 57.000
641.000 33.000
642.000 26.000
636.000 22.000
630.000 22.000
617.000 25.000
605.000 31.000
585.000 47.000
575.000 57.000
562.000 64.000
545.000 65.000
541.000 62.000
539.000 64.000
540.000 66.000
534.000 79.000
534.000 88.000
528.000 106.000
517.000 121.000
509.000 126.000
495.000 127.000
488.000 133.000
483.000 134.000
474.000 139.000
466.000 146.000
450.000 154.000
446.000 154.000
434.000 160.000
409.000 167.000
403.000 170.000
394.000 172.000
371.000 172.000
356.000 166.000
337.000 138.000
326.000 139.000
313.000 145.000
289.000 165.000
270.000 175.000
241.000 182.000
221.000 192.000
190.000 201.000
182.000 202.000
168.000 209.000
145.000 215.000
136.000 219.000
120.000 230.000
112.000 233.000
78.000 238.000
44.000 246.000
17.000 246.000
15.000 249.000
12.000 250.000
12.000 254.000
14.000 255.000
13.000 256.000
15.000 259.000
13.000 258.000
12.000 261.000
17.000 266.000
17.000 269.000
19.000 269.000
22.000 273.000
39.000 259.000
43.000 257.000
46.000 258.000
52.000 254.000
85.000 246.000
98.000 244.000
107.000 245.000
122.000 250.000
128.000 254.000
149.000 261.000
157.000 266.000
166.000 269.000
236.000 273.000
258.000 279.000
278.000 282.000
292.000 287.000
317.000 300.000
322.000 301.000
337.000 313.000
359.000 326.000
372.000 327.000
382.000 308.000
385.000 296.000
392.000 288.000
402.000 283.000
414.000 280.000
455.000 280.000
468.000 283.000
480.000 289.000
490.000 292.000
497.000 298.000
532.000 316.000
546.000 328.000
558.000 342.000
561.000 348.000
570.000 356.000
572.000 356.000
582.000 364.000
594.000 369.000
609.000 371.000
616.000 367.000
613.000 330.000
610.000 321.000
611.000 310.000
609.000 304.000
609.000 289.000
612.000 281.000
615.000 278.000
631.000 278.000
635.000 281.000
644.000 283.000
665.000 292.000
683.000 293.000
694.000 291.000
695.000 289.000
693.000 287.000
696.000 283.000
701.000 268.000
707.000 259.000
721.000 253.000
726.000 248.000
738.000 243.000
747.000 244.000
762.000 239.000
775.000 232.000
787.000 231.000
795.000 225.000
803.000 227.000
819.000 215.000
