ply
format ascii 1.0
comment Dominant contour extracted from bimodal image.
comment scale factor = 0.413650
comment kernel width = 3
comment decimate eps = 1.000000
comment orig shape   = (967, 2503)
comment threshold    = 203.500000
comment Written with hapPLY (https://github.com/nmwsharp/happly)
element flags 0
property uchar closed
element vertex 171
property double x
property double y
end_header
989.000 184.000
976.000 169.000
968.000 165.000
953.000 161.000
952.000 162.000
947.000 160.000
939.000 160.000
918.000 150.000
914.000 146.000
905.000 141.000
894.000 130.000
893.000 127.000
888.000 129.000
885.000 128.000
864.000 131.000
859.000 134.000
847.000 137.000
831.000 136.000
818.000 138.000
801.000 135.000
790.000 135.000
775.000 130.000
771.000 130.000
757.000 121.000
743.000 107.000
741.000 96.000
741.000 83.000
738.000 65.000
735.000 59.000
735.000 54.000
727.000 47.000
711.000 45.000
695.000 47.000
680.000 52.000
673.000 57.000
664.000 60.000
654.000 68.000
643.000 73.000
638.000 79.000
630.000 82.000
626.000 86.000
621.000 85.000
618.000 88.000
606.000 94.000
598.000 96.000
584.000 103.000
567.000 108.000
553.000 115.000
538.000 118.000
526.000 124.000
505.000 130.000
488.000 133.000
474.000 132.000
464.000 128.000
452.000 115.000
451.000 110.000
440.000 110.000
433.000 112.000
425.000 118.000
407.000 127.000
377.000 151.000
366.000 158.000
360.000 159.000
354.000 165.000
316.000 174.000
276.000 195.000
230.000 209.000
220.000 215.000
209.000 225.000
193.000 236.000
176.000 245.000
163.000 247.000
145.000 247.000
142.000 249.000
102.000 251.000
84.000 247.000
79.000 242.000
77.000 242.000
74.000 248.000
59.000 250.000
50.000 254.000
47.000 253.000
46.000 257.000
48.000 259.000
51.000 259.000
50.000 265.000
54.000 268.000
69.000 261.000
90.000 264.000
108.000 264.000
132.000 260.000
156.000 261.000
164.000 258.000
197.000 256.000
226.000 263.000
254.000 273.000
264.000 274.000
272.000 277.000
281.000 277.000
291.000 282.000
298.000 282.000
305.000 288.000
321.000 292.000
327.000 296.000
337.000 298.000
345.000 302.000
354.000 304.000
359.000 303.000
364.000 306.000
383.000 308.000
394.000 313.000
407.000 316.000
412.000 320.000
420.000 321.000
425.000 324.000
427.000 323.000
432.000 327.000
442.000 332.000
448.000 333.000
452.000 336.000
464.000 337.000
468.000 339.000
480.000 338.000
482.000 336.000
483.000 331.000
493.000 320.000
508.000 311.000
517.000 309.000
534.000 309.000
543.000 312.000
579.000 314.000
587.000 317.000
610.000 321.000
613.000 323.000
630.000 325.000
651.000 333.000
660.000 334.000
667.000 339.000
676.000 342.000
687.000 350.000
701.000 357.000
706.000 358.000
715.000 364.000
736.000 365.000
752.000 368.000
760.000 366.000
770.000 359.000
769.000 356.000
772.000 352.000
773.000 346.000
768.000 319.000
768.000 300.000
772.000 293.000
788.000 278.000
807.000 270.000
820.000 267.000
828.000 262.000
858.000 262.000
876.000 264.000
886.000 262.000
899.000 262.000
907.000 258.000
910.000 258.000
910.000 254.000
914.000 250.000
915.000 246.000
926.000 234.000
943.000 224.000
949.000 223.000
979.000 205.000
987.000 195.000
