ply
format ascii 1.0
comment Dominant contour extracted from bimodal image.
comment scale factor = 0.227531
comment kernel width = 3
comment decimate eps = 1.000000
comment orig shape   = (1758, 3119)
comment threshold    = 179.000000
comment Written with hapPLY (https://github.com/nmwsharp/happly)
element flags 0
property uchar closed
element vertex 182
property double x
property double y
end_header
700.000 160.000
696.000 155.000
692.000 154.000
674.000 155.000
668.000 153.000
655.000 154.000
619.000 151.000
601.000 146.000
590.000 145.000
575.000 140.000
570.000 133.000
572.000 124.000
571.000 121.000
575.000 116.000
581.000 103.000
586.000 88.000
586.000 81.000
588.000 79.000
581.000 74.000
562.000 74.000
549.000 78.000
541.000 82.000
530.000 91.000
526.000 92.000
511.000 102.000
495.000 110.000
489.000 115.000
469.000 121.000
441.000 120.000
427.000 114.000
421.000 108.000
418.000 102.000
414.000 81.000
419.000 61.000
420.000 50.000
436.000 15.000
436.000 13.000
433.000 12.000
430.000 15.000
421.000 18.000
382.000 19.000
380.000 14.000
376.000 14.000
371.000 19.000
368.000 19.000
361.000 25.000
357.000 26.000
349.000 34.000
342.000 55.000
343.000 57.000
336.000 66.000
327.000 82.000
323.000 84.000
311.000 97.000
291.000 113.000
278.000 121.000
263.000 127.000
249.000 129.000
238.000 123.000
235.000 114.000
233.000 97.000
234.000 84.000
232.000 70.000
227.000 64.000
221.000 64.000
205.000 78.000
202.000 83.000
202.000 86.000
196.000 90.000
188.000 101.000
168.000 116.000
154.000 119.000
146.000 116.000
141.000 110.000
134.000 110.000
126.000 114.000
120.000 120.000
108.000 126.000
105.000 129.000
90.000 132.000
32.000 161.000
25.000 163.000
12.000 163.000
10.000 167.000
12.000 170.000
27.000 170.000
38.000 176.000
43.000 181.000
46.000 180.000
54.000 185.000
63.000 193.000
73.000 198.000
75.000 202.000
91.000 217.000
99.000 222.000
119.000 241.000
124.000 242.000
124.000 244.000
133.000 251.000
136.000 251.000
138.000 249.000
138.000 244.000
143.000 240.000
143.000 235.000
151.000 224.000
159.000 223.000
172.000 228.000
190.000 245.000
195.000 247.000
198.000 254.000
207.000 265.000
213.000 269.000
215.000 274.000
223.000 282.000
231.000 287.000
238.000 286.000
243.000 274.000
245.000 266.000
244.000 257.000
246.000 254.000
248.000 242.000
251.000 237.000
256.000 232.000
263.000 230.000
277.000 235.000
282.000 235.000
295.000 246.000
310.000 255.000
321.000 265.000
328.000 268.000
332.000 274.000
345.000 286.000
366.000 316.000
366.000 320.000
371.000 328.000
371.000 332.000
375.000 343.000
382.000 353.000
396.000 349.000
405.000 351.000
412.000 354.000
439.000 372.000
459.000 382.000
471.000 386.000
479.000 386.000
484.000 383.000
486.000 379.000
486.000 372.000
483.000 362.000
475.000 347.000
475.000 344.000
466.000 329.000
463.000 321.000
459.000 317.000
452.000 298.000
446.000 288.000
443.000 269.000
448.000 256.000
458.000 247.000
474.000 241.000
510.000 240.000
520.000 242.000
527.000 229.000
534.000 223.000
542.000 220.000
551.000 220.000
578.000 226.000
589.000 226.000
595.000 229.000
605.000 229.000
613.000 232.000
624.000 231.000
626.000 225.000
625.000 210.000
632.000 197.000
642.000 191.000
658.000 186.000
675.000 176.000
685.000 173.000
696.000 164.000
694.000 161.000
699.000 162.000
