ply
format ascii 1.0
comment Dominant contour extracted from bimodal image.
comment scale factor = 0.366636
comment kernel width = 3
comment decimate eps = 1.000000
comment orig shape   = (1091, 1919)
comment threshold    = 229.000000
comment Written with hapPLY (https://github.com/nmwsharp/happly)
element flags 0
property uchar closed
element vertex 170
property double x
property double y
end_header
669.000 201.000
668.000 191.000
661.000 186.000
652.000 183.000
641.000 175.000
635.000 174.000
621.000 162.000
596.000 148.000
588.000 146.000
571.000 137.000
562.000 135.000
553.000 129.000
554.000 118.000
564.000 100.000
569.000 98.000
586.000 81.000
596.000 64.000
596.000 61.000
600.000 58.000
599.000 56.000
595.000 59.000
597.000 57.000
595.000 56.000
596.000 53.000
585.000 44.000
576.000 43.000
570.000 39.000
556.000 37.000
523.000 38.000
512.000 41.000
505.000 41.000
489.000 30.000
487.000 30.000
485.000 27.000
482.000 27.000
468.000 40.000
456.000 59.000
455.000 66.000
445.000 77.000
443.000 82.000
429.000 95.000
416.000 102.000
410.000 107.000
365.000 125.000
342.000 125.000
331.000 120.000
325.000 107.000
326.000 98.000
324.000 87.000
320.000 80.000
321.000 76.000
319.000 74.000
312.000 74.000
308.000 76.000
299.000 77.000
290.000 82.000
284.000 88.000
277.000 91.000
268.000 100.000
220.000 120.000
211.000 120.000
201.000 124.000
176.000 127.000
154.000 133.000
137.000 132.000
130.000 135.000
114.000 137.000
101.000 141.000
92.000 147.000
86.000 148.000
82.000 152.000
70.000 157.000
65.000 162.000
59.000 164.000
53.000 164.000
50.000 166.000
25.000 165.000
22.000 167.000
24.000 169.000
24.000 173.000
27.000 176.000
50.000 178.000
57.000 182.000
60.000 182.000
70.000 200.000
76.000 206.000
83.000 217.000
89.000 221.000
94.000 227.000
102.000 231.000
107.000 238.000
118.000 246.000
153.000 265.000
158.000 261.000
154.000 265.000
155.000 267.000
165.000 270.000
188.000 285.000
210.000 294.000
218.000 284.000
225.000 281.000
233.000 281.000
247.000 284.000
254.000 289.000
257.000 289.000
270.000 303.000
272.000 307.000
287.000 320.000
300.000 334.000
303.000 334.000
311.000 339.000
326.000 342.000
334.000 341.000
338.000 337.000
337.000 294.000
339.000 284.000
346.000 274.000
354.000 271.000
360.000 272.000
367.000 270.000
373.000 272.000
393.000 272.000
399.000 275.000
403.000 275.000
412.000 280.000
428.000 282.000
447.000 291.000
458.000 294.000
472.000 303.000
485.000 309.000
495.000 318.000
504.000 337.000
505.000 347.000
509.000 359.000
518.000 368.000
521.000 368.000
528.000 362.000
552.000 355.000
560.000 355.000
583.000 360.000
594.000 360.000
600.000 363.000
606.000 363.000
613.000 360.000
617.000 360.000
622.000 356.000
626.000 356.000
628.000 354.000
626.000 347.000
616.000 330.000
604.000 319.000
603.000 316.000
590.000 303.000
585.000 300.000
584.000 295.000
567.000 275.000
565.000 270.000
566.000 254.000
573.000 245.000
594.000 236.000
602.000 231.000
605.000 227.000
617.000 226.000
629.000 219.000
637.000 218.000
644.000 214.000
649.000 214.000
658.000 209.000
662.000 205.000
665.000 205.000
