ply
format ascii 1.0
comment Dominant contour extracted from bimodal image.
comment scale factor = 0.650407
comment kernel width = 3
comment decimate eps = 1.000000
comment orig shape   = (615, 1538)
comment threshold    = 231.000000
comment Written with hapPLY (https://github.com/nmwsharp/happly)
element flags 0
property uchar closed
element vertex 230
property double x
property double y
end_header
960.000 180.000
947.000 163.000
936.000 153.000
925.000 145.000
921.000 145.000
917.000 141.000
899.000 132.000
887.000 128.000
881.000 124.000
870.000 123.000
865.000 119.000
857.000 119.000
848.000 113.000
813.000 104.000
810.000 102.000
798.000 102.000
787.000 95.000
786.000 89.000
795.000 74.000
800.000 50.000
797.000 46.000
793.000 45.000
792.000 43.000
784.000 39.000
751.000 39.000
740.000 41.000
734.000 44.000
729.000 44.000
726.000 46.000
707.000 48.000
693.000 52.000
691.000 54.000
661.000 57.000
649.000 56.000
644.000 54.000
634.000 54.000
631.000 56.000
614.000 56.000
609.000 58.000
597.000 58.000
587.000 61.000
568.000 60.000
552.000 63.000
540.000 63.000
536.000 65.000
510.000 63.000
501.000 58.000
494.000 51.000
490.000 54.000
465.000 61.000
447.000 72.000
429.000 78.000
421.000 83.000
412.000 84.000
395.000 91.000
387.000 91.000
383.000 94.000
368.000 95.000
361.000 99.000
351.000 100.000
333.000 106.000
329.000 105.000
319.000 107.000
311.000 110.000
310.000 112.000
299.000 113.000
286.000 119.000
283.000 118.000
273.000 126.000
268.000 126.000
264.000 129.000
252.000 133.000
249.000 132.000
245.000 136.000
230.000 143.000
212.000 156.000
198.000 171.000
194.000 179.000
187.000 186.000
187.000 188.000
180.000 193.000
169.000 206.000
165.000 206.000
156.000 210.000
127.000 210.000
117.000 208.000
75.000 209.000
71.000 208.000
79.000 203.000
78.000 201.000
75.000 200.000
62.000 202.000
57.000 197.000
54.000 198.000
56.000 197.000
50.000 195.000
48.000 199.000
53.000 202.000
49.000 202.000
45.000 198.000
47.000 198.000
50.000 195.000
46.000 194.000
44.000 196.000
40.000 192.000
33.000 195.000
22.000 204.000
23.000 206.000
21.000 208.000
23.000 210.000
22.000 212.000
25.000 219.000
23.000 220.000
23.000 217.000
15.000 215.000
9.000 224.000
8.000 230.000
13.000 235.000
15.000 234.000
14.000 232.000
19.000 235.000
21.000 239.000
25.000 239.000
24.000 240.000
28.000 242.000
29.000 241.000
27.000 237.000
31.000 240.000
32.000 239.000
49.000 241.000
52.000 237.000
56.000 236.000
59.000 238.000
60.000 237.000
62.000 240.000
64.000 237.000
59.000 232.000
61.000 232.000
65.000 237.000
67.000 236.000
65.000 234.000
67.000 232.000
62.000 228.000
68.000 228.000
70.000 230.000
74.000 228.000
75.000 229.000
72.000 231.000
73.000 236.000
84.000 222.000
111.000 222.000
113.000 224.000
152.000 224.000
172.000 236.000
180.000 245.000
193.000 254.000
205.000 265.000
217.000 271.000
218.000 273.000
228.000 277.000
239.000 285.000
247.000 286.000
260.000 292.000
273.000 295.000
293.000 303.000
332.000 306.000
378.000 306.000
389.000 310.000
410.000 314.000
419.000 317.000
423.000 320.000
426.000 320.000
430.000 323.000
433.000 323.000
445.000 330.000
450.000 331.000
455.000 336.000
462.000 338.000
479.000 349.000
484.000 349.000
498.000 358.000
507.000 360.000
519.000 360.000
521.000 357.000
521.000 351.000
525.000 335.000
534.000 311.000
548.000 301.000
564.000 297.000
598.000 297.000
611.000 301.000
621.000 301.000
639.000 304.000
649.000 308.000
654.000 306.000
662.000 307.000
692.000 318.000
704.000 319.000
722.000 328.000
732.000 328.000
752.000 338.000
770.000 342.000
783.000 342.000
800.000 336.000
810.000 325.000
813.000 324.000
813.000 317.000
810.000 315.000
810.000 310.000
808.000 308.000
804.000 295.000
793.000 278.000
785.000 261.000
784.000 253.000
789.000 246.000
801.000 243.000
815.000 237.000
861.000 230.000
863.000 228.000
867.000 228.000
880.000 222.000
888.000 221.000
891.000 219.000
901.000 219.000
924.000 211.000
933.000 210.000
944.000 202.000
951.000 200.000
956.000 195.000
957.000 185.000
