ply
format ascii 1.0
comment Dominant contour extracted from bimodal image.
comment scale factor = 0.268097
comment kernel width = 3
comment decimate eps = 1.000000
comment orig shape   = (1492, 3087)
comment threshold    = 173.500000
comment Written with hapPLY (https://github.com/nmwsharp/happly)
element flags 0
property uchar closed
element vertex 144
property double x
property double y
end_header
820.000 182.000
811.000 171.000
794.000 164.000
784.000 163.000
765.000 158.000
752.000 157.000
747.000 154.000
723.000 150.000
719.000 148.000
701.000 146.000
695.000 147.000
680.000 144.000
654.000 132.000
635.000 121.000
625.000 106.000
624.000 85.000
626.000 72.000
626.000 51.000
623.000 43.000
624.000 28.000
622.000 21.000
617.000 16.000
617.000 13.000
610.000 8.000
596.000 8.000
583.000 14.000
564.000 30.000
545.000 58.000
520.000 88.000
504.000 98.000
495.000 106.000
479.000 112.000
472.000 112.000
459.000 116.000
453.000 120.000
447.000 121.000
444.000 124.000
431.000 129.000
425.000 135.000
423.000 133.000
409.000 133.000
401.000 131.000
389.000 122.000
387.000 118.000
388.000 81.000
384.000 68.000
381.000 62.000
373.000 59.000
366.000 59.000
350.000 67.000
338.000 79.000
329.000 83.000
322.000 90.000
315.000 93.000
308.000 99.000
272.000 114.000
253.000 129.000
244.000 133.000
237.000 140.000
228.000 144.000
221.000 151.000
198.000 164.000
192.000 165.000
179.000 174.000
165.000 180.000
160.000 185.000
144.000 195.000
47.000 195.000
45.000 193.000
29.000 194.000
28.000 192.000
16.000 196.000
14.000 195.000
12.000 197.000
12.000 206.000
16.000 214.000
41.000 207.000
50.000 206.000
116.000 206.000
124.000 210.000
164.000 240.000
188.000 249.000
196.000 254.000
199.000 254.000
209.000 261.000
225.000 269.000
258.000 292.000
273.000 300.000
303.000 326.000
323.000 349.000
343.000 369.000
358.000 380.000
370.000 385.000
380.000 385.000
387.000 382.000
392.000 373.000
392.000 369.000
394.000 366.000
394.000 353.000
392.000 348.000
393.000 342.000
391.000 334.000
391.000 306.000
388.000 298.000
388.000 293.000
394.000 276.000
399.000 271.000
406.000 269.000
429.000 280.000
469.000 309.000
495.000 341.000
505.000 359.000
518.000 378.000
532.000 392.000
557.000 378.000
566.000 378.000
592.000 388.000
616.000 392.000
628.000 388.000
632.000 382.000
633.000 372.000
624.000 354.000
615.000 344.000
601.000 321.000
594.000 300.000
594.000 272.000
602.000 256.000
606.000 253.000
636.000 250.000
647.000 247.000
678.000 247.000
715.000 252.000
719.000 254.000
752.000 256.000
760.000 251.000
760.000 226.000
762.000 221.000
765.000 218.000
774.000 215.000
780.000 210.000
785.000 209.000
798.000 201.000
804.000 200.000
819.000 188.000
