ply
format ascii 1.0
comment Dominant contour extracted from bimodal image.
comment scale factor = 0.188590
comment kernel width = 3
comment decimate eps = 1.000000
comment orig shape   = (2121, 3335)
comment threshold    = 206.500000
comment Written with hapPLY (https://github.com/nmwsharp/happly)
element flags 0
property uchar closed
element vertex 162
property double x
property double y
end_header
615.000 205.000
612.000 204.000
603.000 195.000
594.000 191.000
582.000 189.000
575.000 184.000
573.000 177.000
573.000 166.000
575.000 160.000
581.000 151.000
580.000 150.000
556.000 154.000
510.000 155.000
503.000 153.000
496.000 146.000
494.000 133.000
490.000 122.000
492.000 120.000
492.000 97.000
494.000 93.000
495.000 84.000
500.000 74.000
499.000 72.000
494.000 75.000
489.000 75.000
462.000 87.000
456.000 85.000
453.000 75.000
442.000 92.000
437.000 96.000
425.000 111.000
426.000 116.000
414.000 126.000
381.000 143.000
362.000 146.000
354.000 142.000
348.000 136.000
342.000 126.000
337.000 107.000
336.000 95.000
342.000 68.000
349.000 60.000
342.000 59.000
339.000 54.000
333.000 23.000
333.000 16.000
335.000 10.000
334.000 8.000
325.000 12.000
306.000 29.000
302.000 31.000
289.000 32.000
283.000 27.000
283.000 22.000
281.000 22.000
281.000 36.000
278.000 45.000
276.000 59.000
266.000 87.000
244.000 125.000
235.000 135.000
224.000 143.000
216.000 147.000
204.000 150.000
196.000 147.000
191.000 140.000
193.000 88.000
190.000 86.000
188.000 82.000
181.000 53.000
176.000 65.000
165.000 77.000
161.000 84.000
155.000 89.000
149.000 98.000
98.000 149.000
80.000 162.000
70.000 167.000
58.000 177.000
44.000 181.000
28.000 181.000
26.000 185.000
27.000 187.000
56.000 188.000
86.000 205.000
103.000 218.000
118.000 236.000
125.000 242.000
126.000 245.000
127.000 229.000
131.000 219.000
133.000 217.000
136.000 217.000
146.000 221.000
154.000 229.000
165.000 245.000
179.000 270.000
181.000 278.000
192.000 300.000
207.000 320.000
213.000 295.000
219.000 283.000
227.000 259.000
234.000 245.000
240.000 239.000
254.000 233.000
267.000 238.000
271.000 238.000
279.000 242.000
289.000 251.000
298.000 262.000
311.000 284.000
316.000 289.000
315.000 295.000
321.000 317.000
325.000 324.000
326.000 335.000
329.000 345.000
330.000 369.000
333.000 362.000
344.000 354.000
352.000 351.000
362.000 351.000
376.000 357.000
393.000 373.000
395.000 379.000
396.000 372.000
399.000 370.000
403.000 370.000
421.000 378.000
429.000 380.000
433.000 383.000
435.000 382.000
425.000 364.000
420.000 348.000
421.000 341.000
429.000 338.000
424.000 332.000
417.000 319.000
413.000 304.000
413.000 296.000
416.000 282.000
420.000 273.000
425.000 267.000
443.000 260.000
481.000 258.000
491.000 259.000
498.000 264.000
536.000 278.000
537.000 277.000
534.000 275.000
530.000 265.000
529.000 241.000
531.000 239.000
549.000 233.000
585.000 227.000
586.000 226.000
584.000 224.000
583.000 218.000
589.000 211.000
596.000 211.000
606.000 206.000
