ply
format ascii 1.0
comment Dominant contour extracted from bimodal image.
comment scale factor = 0.298285
comment kernel width = 3
comment decimate eps = 1.000000
comment orig shape   = (1341, 2041)
comment threshold    = 244.000000
comment Written with hapPLY (https://github.com/nmwsharp/happly)
element flags 0
property uchar closed
element vertex 184
property double x
property double y
end_header
594.000 183.000
592.000 181.000
582.000 181.000
577.000 179.000
550.000 178.000
540.000 176.000
532.000 172.000
525.000 165.000
521.000 154.000
521.000 145.000
524.000 138.000
524.000 130.000
527.000 124.000
526.000 122.000
519.000 129.000
504.000 138.000
485.000 147.000
478.000 148.000
473.000 152.000
460.000 154.000
454.000 158.000
442.000 162.000
441.000 165.000
425.000 163.000
416.000 156.000
410.000 144.000
414.000 139.000
414.000 134.000
420.000 125.000
422.000 116.000
424.000 116.000
435.000 102.000
439.000 93.000
450.000 81.000
460.000 67.000
470.000 61.000
481.000 61.000
482.000 60.000
479.000 58.000
452.000 58.000
432.000 64.000
424.000 68.000
417.000 74.000
402.000 80.000
383.000 78.000
378.000 72.000
377.000 66.000
379.000 62.000
377.000 61.000
372.000 71.000
352.000 96.000
318.000 130.000
306.000 134.000
286.000 144.000
272.000 147.000
259.000 146.000
247.000 138.000
241.000 132.000
237.000 118.000
238.000 103.000
240.000 100.000
240.000 89.000
236.000 79.000
236.000 75.000
238.000 72.000
238.000 58.000
236.000 52.000
236.000 45.000
232.000 33.000
236.000 22.000
234.000 20.000
222.000 32.000
217.000 40.000
211.000 45.000
203.000 47.000
202.000 41.000
200.000 41.000
200.000 49.000
195.000 59.000
193.000 69.000
194.000 76.000
189.000 79.000
182.000 91.000
178.000 101.000
178.000 106.000
175.000 109.000
174.000 114.000
164.000 123.000
162.000 127.000
152.000 137.000
154.000 139.000
139.000 144.000
129.000 145.000
128.000 140.000
125.000 136.000
125.000 115.000
128.000 108.000
127.000 105.000
128.000 93.000
130.000 90.000
129.000 88.000
120.000 94.000
118.000 98.000
105.000 106.000
97.000 117.000
97.000 120.000
56.000 167.000
52.000 175.000
44.000 184.000
41.000 195.000
33.000 200.000
19.000 202.000
16.000 204.000
16.000 207.000
21.000 208.000
39.000 205.000
50.000 208.000
60.000 215.000
72.000 220.000
92.000 246.000
100.000 253.000
120.000 278.000
137.000 296.000
147.000 303.000
150.000 311.000
150.000 295.000
155.000 281.000
160.000 254.000
165.000 249.000
175.000 245.000
191.000 244.000
218.000 261.000
224.000 269.000
263.000 308.000
283.000 322.000
298.000 338.000
311.000 347.000
319.000 357.000
321.000 356.000
321.000 348.000
324.000 346.000
333.000 347.000
353.000 358.000
370.000 363.000
379.000 368.000
380.000 367.000
366.000 356.000
362.000 348.000
357.000 343.000
352.000 332.000
349.000 314.000
345.000 305.000
345.000 298.000
343.000 293.000
345.000 272.000
349.000 263.000
358.000 253.000
374.000 247.000
393.000 245.000
397.000 249.000
408.000 249.000
418.000 252.000
442.000 263.000
454.000 267.000
461.000 267.000
466.000 271.000
479.000 276.000
515.000 285.000
522.000 285.000
527.000 288.000
528.000 286.000
519.000 278.000
502.000 251.000
495.000 245.000
495.000 234.000
504.000 223.000
514.000 216.000
536.000 211.000
539.000 208.000
539.000 206.000
545.000 207.000
564.000 201.000
576.000 194.000
587.000 185.000
