ply
format ascii 1.0
comment Dominant contour extracted from bimodal image.
comment scale factor = 0.213904
comment kernel width = 3
comment decimate eps = 1.000000
comment orig shape   = (1870, 3199)
comment threshold    = 249.000000
comment Written with hapPLY (https://github.com/nmwsharp/happly)
element flags 0
property uchar closed
element vertex 419
property double x
property double y
end_header
32.000 191.000
48.000 199.000
52.000 199.000
65.000 204.000
81.000 206.000
84.000 208.000
85.000 207.000
92.000 209.000
100.000 209.000
105.000 212.000
107.000 211.000
108.000 213.000
110.000 212.000
115.000 215.000
116.000 214.000
118.000 216.000
122.000 216.000
124.000 218.000
127.000 218.000
128.000 220.000
130.000 219.000
133.000 222.000
144.000 227.000
145.000 226.000
149.000 230.000
152.000 230.000
158.000 233.000
159.000 235.000
162.000 235.000
163.000 237.000
176.000 242.000
184.000 243.000
203.000 257.000
203.000 260.000
205.000 261.000
206.000 265.000
209.000 267.000
210.000 270.000
213.000 272.000
213.000 275.000
215.000 276.000
214.000 277.000
216.000 278.000
218.000 284.000
221.000 286.000
225.000 296.000
230.000 302.000
230.000 305.000
234.000 309.000
235.000 322.000
237.000 324.000
237.000 330.000
239.000 331.000
242.000 344.000
253.000 367.000
251.000 373.000
252.000 378.000
255.000 373.000
255.000 370.000
259.000 366.000
268.000 367.000
277.000 370.000
281.000 374.000
285.000 374.000
289.000 379.000
294.000 382.000
296.000 386.000
306.000 391.000
310.000 398.000
312.000 396.000
311.000 391.000
313.000 389.000
327.000 389.000
334.000 392.000
352.000 394.000
362.000 400.000
363.000 397.000
351.000 390.000
349.000 384.000
347.000 383.000
348.000 382.000
345.000 380.000
343.000 376.000
343.000 372.000
338.000 362.000
338.000 355.000
340.000 356.000
341.000 353.000
339.000 352.000
339.000 347.000
337.000 344.000
338.000 343.000
334.000 340.000
334.000 336.000
332.000 335.000
329.000 329.000
329.000 322.000
327.000 321.000
329.000 303.000
332.000 294.000
340.000 282.000
341.000 278.000
344.000 280.000
356.000 281.000
358.000 283.000
364.000 283.000
370.000 288.000
372.000 288.000
379.000 299.000
382.000 300.000
389.000 307.000
391.000 311.000
399.000 319.000
400.000 323.000
407.000 329.000
409.000 335.000
408.000 336.000
412.000 343.000
412.000 347.000
415.000 349.000
415.000 353.000
417.000 355.000
418.000 353.000
422.000 355.000
423.000 357.000
427.000 358.000
433.000 365.000
435.000 365.000
436.000 369.000
443.000 374.000
443.000 376.000
448.000 380.000
447.000 381.000
449.000 382.000
450.000 389.000
452.000 388.000
452.000 381.000
458.000 372.000
460.000 372.000
469.000 365.000
472.000 365.000
473.000 363.000
490.000 363.000
504.000 370.000
506.000 374.000
510.000 376.000
511.000 374.000
506.000 369.000
507.000 365.000
514.000 360.000
520.000 360.000
525.000 358.000
536.000 360.000
538.000 358.000
544.000 358.000
545.000 357.000
543.000 355.000
553.000 352.000
560.000 346.000
566.000 345.000
572.000 340.000
571.000 338.000
566.000 342.000
561.000 343.000
550.000 338.000
546.000 338.000
533.000 330.000
526.000 324.000
525.000 321.000
523.000 321.000
524.000 320.000
520.000 316.000
519.000 310.000
517.000 309.000
515.000 303.000
512.000 301.000
506.000 284.000
506.000 274.000
509.000 269.000
514.000 265.000
517.000 259.000
526.000 256.000
529.000 253.000
529.000 251.000
536.000 252.000
549.000 249.000
550.000 251.000
567.000 251.000
577.000 249.000
581.000 250.000
582.000 252.000
585.000 252.000
588.000 255.000
589.000 252.000
578.000 245.000
578.000 236.000
584.000 227.000
608.000 223.000
615.000 220.000
624.000 223.000
624.000 220.000
616.000 217.000
615.000 215.000
618.000 209.000
629.000 202.000
645.000 196.000
646.000 194.000
650.000 194.000
655.000 190.000
660.000 192.000
661.000 194.000
664.000 193.000
661.000 189.000
648.000 186.000
646.000 184.000
634.000 184.000
625.000 181.000
619.000 181.000
615.000 178.000
614.000 175.000
616.000 174.000
620.000 176.000
621.000 174.000
615.000 171.000
611.000 171.000
608.000 174.000
607.000 173.000
606.000 176.000
603.000 173.000
599.000 174.000
598.000 176.000
591.000 177.000
587.000 175.000
586.000 176.000
577.000 174.000
572.000 169.000
572.000 166.000
570.000 165.000
569.000 161.000
570.000 150.000
572.000 147.000
571.000 145.000
566.000 152.000
538.000 152.000
533.000 154.000
522.000 154.000
516.000 149.000
511.000 138.000
511.000 125.000
517.000 110.000
519.000 109.000
522.000 103.000
529.000 98.000
528.000 96.000
524.000 99.000
520.000 98.000
520.000 91.000
522.000 86.000
533.000 74.000
534.000 71.000
547.000 60.000
552.000 60.000
555.000 64.000
557.000 62.000
552.000 57.000
544.000 56.000
541.000 54.000
528.000 54.000
529.000 52.000
526.000 49.000
517.000 49.000
514.000 51.000
507.000 51.000
504.000 53.000
505.000 52.000
503.000 51.000
499.000 54.000
494.000 52.000
492.000 53.000
482.000 46.000
483.000 45.000
480.000 43.000
478.000 37.000
473.000 32.000
463.000 34.000
463.000 37.000
456.000 42.000
439.000 61.000
435.000 63.000
426.000 65.000
423.000 63.000
421.000 54.000
419.000 54.000
420.000 63.000
417.000 66.000
417.000 68.000
413.000 71.000
412.000 76.000
408.000 82.000
397.000 115.000
389.000 124.000
388.000 128.000
382.000 136.000
378.000 138.000
374.000 143.000
365.000 143.000
360.000 138.000
354.000 128.000
355.000 127.000
352.000 125.000
346.000 113.000
343.000 100.000
343.000 87.000
345.000 82.000
342.000 74.000
343.000 73.000
341.000 71.000
344.000 65.000
342.000 64.000
339.000 68.000
335.000 60.000
334.000 38.000
332.000 34.000
333.000 32.000
331.000 23.000
331.000 10.000
329.000 11.000
328.000 20.000
319.000 28.000
316.000 34.000
313.000 35.000
302.000 47.000
301.000 50.000
291.000 54.000
290.000 56.000
286.000 56.000
282.000 53.000
283.000 52.000
279.000 47.000
275.000 47.000
280.000 53.000
280.000 64.000
278.000 65.000
278.000 69.000
276.000 72.000
277.000 82.000
273.000 89.000
274.000 90.000
271.000 93.000
273.000 99.000
268.000 105.000
265.000 120.000
266.000 121.000
263.000 124.000
264.000 126.000
262.000 127.000
263.000 129.000
261.000 129.000
261.000 133.000
258.000 138.000
251.000 144.000
251.000 147.000
248.000 149.000
247.000 152.000
246.000 151.000
245.000 153.000
240.000 155.000
237.000 150.000
235.000 150.000
232.000 146.000
231.000 147.000
230.000 145.000
228.000 145.000
228.000 143.000
223.000 138.000
221.000 130.000
218.000 127.000
218.000 125.000
214.000 122.000
213.000 118.000
209.000 116.000
208.000 112.000
197.000 104.000
196.000 99.000
194.000 97.000
194.000 93.000
190.000 90.000
189.000 93.000
193.000 100.000
193.000 106.000
183.000 127.000
184.000 140.000
181.000 144.000
183.000 153.000
181.000 157.000
176.000 159.000
175.000 163.000
173.000 164.000
174.000 166.000
172.000 168.000
171.000 173.000
168.000 174.000
152.000 189.000
145.000 191.000
141.000 195.000
126.000 203.000
98.000 203.000
75.000 200.000
73.000 198.000
72.000 199.000
67.000 196.000
66.000 197.000
60.000 195.000
58.000 193.000
55.000 193.000
54.000 191.000
50.000 191.000
35.000 184.000
32.000 188.000
