ply
format ascii 1.0
comment Dominant contour extracted from bimodal image.
comment scale factor = 0.422386
comment kernel width = 3
comment decimate eps = 1.000000
comment orig shape   = (947, 1938)
comment threshold    = 243.500000
comment Written with hapPLY (https://github.com/nmwsharp/happly)
element flags 0
property uchar closed
element vertex 200
property double x
property double y
end_header
27.000 247.000
31.000 248.000
32.000 252.000
35.000 255.000
39.000 256.000
46.000 253.000
53.000 246.000
65.000 243.000
87.000 242.000
102.000 244.000
111.000 249.000
129.000 263.000
140.000 268.000
161.000 283.000
168.000 286.000
170.000 289.000
189.000 301.000
193.000 306.000
206.000 314.000
211.000 319.000
217.000 321.000
227.000 330.000
233.000 342.000
234.000 338.000
229.000 328.000
230.000 316.000
232.000 311.000
232.000 301.000
235.000 296.000
235.000 290.000
242.000 283.000
252.000 279.000
274.000 279.000
299.000 291.000
307.000 297.000
311.000 303.000
331.000 320.000
332.000 323.000
342.000 332.000
352.000 345.000
367.000 360.000
379.000 369.000
389.000 372.000
404.000 381.000
416.000 394.000
420.000 396.000
421.000 395.000
408.000 380.000
408.000 355.000
405.000 341.000
403.000 308.000
406.000 290.000
411.000 285.000
411.000 283.000
421.000 269.000
446.000 272.000
473.000 284.000
500.000 306.000
502.000 306.000
507.000 311.000
518.000 317.000
530.000 336.000
531.000 333.000
526.000 327.000
522.000 317.000
528.000 314.000
539.000 314.000
545.000 317.000
552.000 317.000
565.000 322.000
569.000 322.000
585.000 329.000
597.000 331.000
598.000 333.000
601.000 333.000
614.000 343.000
615.000 342.000
599.000 326.000
596.000 315.000
580.000 280.000
576.000 259.000
578.000 250.000
581.000 245.000
587.000 239.000
594.000 235.000
626.000 227.000
632.000 229.000
652.000 228.000
658.000 230.000
673.000 231.000
698.000 230.000
711.000 240.000
712.000 238.000
701.000 227.000
694.000 213.000
693.000 204.000
697.000 192.000
705.000 185.000
722.000 178.000
731.000 172.000
741.000 170.000
754.000 163.000
755.000 164.000
763.000 157.000
769.000 156.000
778.000 149.000
790.000 150.000
791.000 148.000
785.000 146.000
776.000 146.000
766.000 138.000
741.000 128.000
725.000 125.000
707.000 126.000
684.000 120.000
675.000 109.000
673.000 96.000
678.000 72.000
690.000 60.000
689.000 58.000
675.000 71.000
671.000 71.000
655.000 79.000
633.000 87.000
604.000 111.000
595.000 113.000
595.000 115.000
592.000 118.000
575.000 128.000
539.000 137.000
520.000 137.000
507.000 135.000
501.000 133.000
499.000 130.000
496.000 130.000
489.000 124.000
482.000 112.000
479.000 102.000
479.000 73.000
482.000 63.000
487.000 31.000
490.000 25.000
493.000 23.000
494.000 19.000
492.000 18.000
485.000 27.000
482.000 27.000
469.000 33.000
462.000 38.000
456.000 39.000
445.000 45.000
433.000 49.000
427.000 49.000
419.000 43.000
417.000 26.000
415.000 28.000
415.000 41.000
408.000 53.000
406.000 54.000
407.000 55.000
404.000 61.000
391.000 79.000
391.000 82.000
388.000 87.000
356.000 124.000
352.000 132.000
335.000 147.000
332.000 148.000
318.000 163.000
310.000 168.000
312.000 169.000
306.000 174.000
282.000 185.000
269.000 186.000
259.000 182.000
253.000 175.000
245.000 155.000
244.000 133.000
241.000 147.000
230.000 158.000
223.000 162.000
201.000 184.000
200.000 187.000
193.000 193.000
188.000 195.000
181.000 202.000
164.000 212.000
163.000 211.000
156.000 217.000
150.000 220.000
149.000 219.000
148.000 221.000
118.000 235.000
87.000 233.000
52.000 233.000
46.000 235.000
37.000 235.000
32.000 237.000
28.000 241.000
30.000 244.000
