ply
format ascii 1.0
comment Dominant contour extracted from bimodal image.
comment scale factor = 0.186654
comment kernel width = 3
comment decimate eps = 1.000000
comment orig shape   = (2143, 3335)
comment threshold    = 243.500000
comment Written with hapPLY (https://github.com/nmwsharp/happly)
element flags 0
property uchar closed
element vertex 227
property double x
property double y
end_header
606.000 228.000
588.000 212.000
588.000 210.000
590.000 209.000
581.000 204.000
575.000 203.000
563.000 193.000
561.000 189.000
561.000 183.000
565.000 182.000
564.000 179.000
558.000 181.000
553.000 179.000
532.000 179.000
518.000 176.000
508.000 171.000
502.000 165.000
497.000 156.000
494.000 142.000
498.000 131.000
508.000 115.000
515.000 112.000
510.000 111.000
506.000 103.000
506.000 98.000
509.000 89.000
523.000 70.000
528.000 65.000
533.000 64.000
530.000 62.000
520.000 63.000
493.000 75.000
481.000 76.000
472.000 79.000
462.000 79.000
451.000 77.000
446.000 71.000
446.000 57.000
444.000 69.000
439.000 73.000
429.000 88.000
414.000 120.000
410.000 126.000
385.000 152.000
377.000 157.000
360.000 161.000
350.000 160.000
339.000 154.000
327.000 139.000
321.000 121.000
320.000 90.000
329.000 72.000
333.000 68.000
327.000 68.000
322.000 59.000
332.000 14.000
334.000 11.000
342.000 10.000
342.000 8.000
333.000 9.000
327.000 16.000
319.000 22.000
316.000 27.000
306.000 34.000
297.000 33.000
295.000 31.000
295.000 22.000
293.000 25.000
292.000 35.000
287.000 46.000
286.000 52.000
278.000 65.000
273.000 70.000
252.000 76.000
249.000 73.000
246.000 64.000
244.000 64.000
247.000 74.000
244.000 89.000
246.000 96.000
246.000 104.000
248.000 108.000
244.000 139.000
229.000 163.000
223.000 169.000
203.000 183.000
191.000 189.000
174.000 192.000
169.000 190.000
155.000 177.000
148.000 163.000
148.000 155.000
145.000 147.000
146.000 137.000
140.000 119.000
135.000 113.000
133.000 94.000
132.000 105.000
127.000 115.000
122.000 118.000
122.000 114.000
117.000 123.000
112.000 160.000
102.000 180.000
102.000 186.000
88.000 201.000
72.000 211.000
69.000 215.000
61.000 216.000
56.000 219.000
26.000 220.000
12.000 217.000
7.000 218.000
7.000 222.000
11.000 224.000
42.000 226.000
52.000 230.000
71.000 232.000
93.000 238.000
115.000 236.000
143.000 252.000
143.000 255.000
148.000 262.000
148.000 267.000
152.000 274.000
152.000 285.000
148.000 298.000
147.000 314.000
148.000 315.000
152.000 312.000
156.000 312.000
165.000 317.000
174.000 328.000
180.000 344.000
184.000 340.000
192.000 342.000
206.000 353.000
209.000 362.000
211.000 361.000
202.000 334.000
202.000 328.000
204.000 325.000
209.000 324.000
203.000 303.000
203.000 291.000
206.000 273.000
210.000 264.000
229.000 245.000
242.000 247.000
261.000 258.000
270.000 268.000
282.000 286.000
283.000 291.000
290.000 304.000
294.000 317.000
294.000 322.000
296.000 325.000
296.000 353.000
297.000 358.000
301.000 364.000
301.000 367.000
302.000 368.000
308.000 361.000
311.000 360.000
320.000 360.000
328.000 362.000
336.000 367.000
350.000 381.000
352.000 379.000
357.000 379.000
365.000 384.000
367.000 387.000
372.000 389.000
380.000 398.000
381.000 396.000
373.000 387.000
369.000 380.000
369.000 376.000
366.000 370.000
366.000 363.000
368.000 365.000
370.000 364.000
366.000 360.000
364.000 353.000
363.000 339.000
366.000 331.000
377.000 321.000
381.000 320.000
379.000 319.000
378.000 315.000
379.000 305.000
383.000 297.000
391.000 289.000
401.000 282.000
404.000 282.000
411.000 286.000
435.000 307.000
447.000 323.000
460.000 334.000
463.000 340.000
464.000 338.000
462.000 335.000
465.000 330.000
476.000 325.000
500.000 326.000
525.000 332.000
526.000 331.000
520.000 328.000
505.000 311.000
495.000 292.000
493.000 282.000
493.000 268.000
499.000 253.000
506.000 246.000
514.000 242.000
528.000 239.000
550.000 239.000
563.000 237.000
564.000 235.000
561.000 234.000
559.000 231.000
559.000 220.000
563.000 217.000
581.000 227.000
582.000 224.000
586.000 223.000
600.000 228.000
