ply
format ascii 1.0
comment Dominant contour extracted from bimodal image.
comment scale factor = 0.331950
comment kernel width = 3
comment decimate eps = 1.000000
comment orig shape   = (1205, 1905)
comment threshold    = 245.000000
comment Written with hapPLY (https://github.com/nmwsharp/happly)
element flags 0
property uchar closed
element vertex 166
property double x
property double y
end_header
16.000 224.000
18.000 226.000
19.000 225.000
17.000 228.000
23.000 233.000
25.000 233.000
25.000 235.000
27.000 236.000
30.000 233.000
34.000 233.000
43.000 227.000
45.000 228.000
45.000 225.000
92.000 214.000
109.000 212.000
124.000 213.000
130.000 222.000
147.000 238.000
153.000 241.000
162.000 253.000
185.000 276.000
202.000 290.000
213.000 303.000
235.000 324.000
237.000 329.000
261.000 355.000
268.000 368.000
278.000 380.000
283.000 391.000
288.000 396.000
292.000 397.000
293.000 396.000
285.000 390.000
279.000 376.000
278.000 340.000
279.000 288.000
281.000 280.000
291.000 270.000
309.000 270.000
325.000 274.000
332.000 274.000
341.000 277.000
349.000 283.000
355.000 284.000
366.000 290.000
377.000 299.000
382.000 301.000
388.000 307.000
391.000 306.000
388.000 304.000
388.000 302.000
399.000 303.000
418.000 312.000
424.000 318.000
425.000 317.000
431.000 321.000
440.000 323.000
454.000 331.000
456.000 334.000
461.000 335.000
461.000 333.000
442.000 320.000
417.000 280.000
412.000 263.000
412.000 251.000
414.000 243.000
420.000 233.000
429.000 224.000
439.000 220.000
518.000 220.000
531.000 226.000
531.000 223.000
521.000 219.000
520.000 217.000
517.000 217.000
512.000 209.000
513.000 204.000
518.000 199.000
542.000 191.000
555.000 190.000
569.000 185.000
586.000 183.000
610.000 175.000
619.000 170.000
617.000 169.000
605.000 174.000
599.000 174.000
589.000 171.000
555.000 166.000
542.000 163.000
539.000 161.000
502.000 161.000
490.000 157.000
485.000 151.000
485.000 137.000
490.000 123.000
495.000 116.000
500.000 112.000
514.000 106.000
516.000 104.000
515.000 103.000
499.000 110.000
486.000 119.000
476.000 122.000
442.000 138.000
411.000 143.000
386.000 143.000
376.000 140.000
365.000 134.000
360.000 129.000
355.000 116.000
353.000 105.000
354.000 61.000
359.000 40.000
360.000 26.000
367.000 17.000
377.000 17.000
379.000 15.000
377.000 13.000
365.000 15.000
347.000 33.000
337.000 46.000
331.000 52.000
323.000 57.000
312.000 57.000
311.000 50.000
315.000 43.000
314.000 41.000
309.000 49.000
308.000 58.000
302.000 65.000
299.000 73.000
297.000 74.000
285.000 93.000
244.000 133.000
232.000 142.000
220.000 147.000
210.000 149.000
205.000 143.000
204.000 130.000
201.000 120.000
201.000 112.000
198.000 106.000
190.000 75.000
192.000 61.000
190.000 59.000
188.000 74.000
175.000 89.000
167.000 107.000
149.000 138.000
137.000 169.000
127.000 187.000
125.000 195.000
117.000 205.000
80.000 211.000
67.000 211.000
60.000 214.000
48.000 215.000
43.000 217.000
37.000 215.000
27.000 215.000
25.000 213.000
23.000 216.000
18.000 217.000
19.000 218.000
17.000 219.000
