ply
format ascii 1.0
comment Dominant contour extracted from bimodal image.
comment scale factor = 0.251889
comment kernel width = 3
comment decimate eps = 1.000000
comment orig shape   = (1588, 2840)
comment threshold    = 249.000000
comment Written with hapPLY (https://github.com/nmwsharp/happly)
element flags 0
property uchar closed
element vertex 381
property double x
property double y
end_header
683.000 256.000
680.000 254.000
679.000 256.000
677.000 256.000
670.000 252.000
661.000 242.000
658.000 242.000
652.000 236.000
640.000 228.000
635.000 223.000
635.000 221.000
629.000 216.000
629.000 213.000
627.000 212.000
628.000 211.000
625.000 206.000
624.000 193.000
627.000 185.000
633.000 180.000
632.000 179.000
639.000 171.000
645.000 170.000
645.000 168.000
643.000 167.000
653.000 160.000
651.000 157.000
648.000 160.000
644.000 161.000
638.000 158.000
636.000 159.000
629.000 157.000
614.000 157.000
614.000 155.000
579.000 155.000
568.000 158.000
565.000 157.000
554.000 161.000
544.000 160.000
541.000 162.000
540.000 161.000
525.000 166.000
513.000 168.000
510.000 167.000
510.000 169.000
508.000 170.000
496.000 170.000
493.000 168.000
487.000 170.000
479.000 167.000
476.000 167.000
475.000 169.000
469.000 169.000
460.000 167.000
459.000 165.000
455.000 166.000
444.000 162.000
442.000 159.000
442.000 152.000
440.000 151.000
443.000 136.000
446.000 132.000
452.000 114.000
456.000 111.000
455.000 110.000
458.000 104.000
460.000 103.000
460.000 100.000
462.000 99.000
466.000 88.000
468.000 87.000
468.000 83.000
472.000 76.000
472.000 71.000
474.000 70.000
473.000 68.000
474.000 63.000
476.000 62.000
475.000 59.000
478.000 53.000
478.000 48.000
480.000 46.000
479.000 44.000
486.000 34.000
490.000 23.000
495.000 23.000
497.000 21.000
495.000 19.000
489.000 18.000
485.000 20.000
469.000 20.000
461.000 25.000
459.000 24.000
449.000 29.000
428.000 35.000
428.000 33.000
424.000 30.000
423.000 27.000
425.000 22.000
428.000 20.000
427.000 17.000
424.000 18.000
419.000 27.000
417.000 27.000
402.000 42.000
398.000 51.000
382.000 67.000
381.000 66.000
379.000 69.000
377.000 69.000
374.000 72.000
375.000 73.000
370.000 76.000
369.000 79.000
363.000 81.000
362.000 83.000
351.000 89.000
348.000 94.000
347.000 93.000
346.000 95.000
341.000 97.000
338.000 101.000
331.000 103.000
326.000 109.000
312.000 117.000
310.000 121.000
305.000 125.000
301.000 125.000
299.000 128.000
291.000 131.000
287.000 138.000
279.000 142.000
278.000 141.000
277.000 143.000
276.000 142.000
273.000 146.000
268.000 148.000
256.000 158.000
254.000 158.000
247.000 164.000
246.000 163.000
245.000 166.000
240.000 168.000
217.000 168.000
211.000 160.000
209.000 133.000
210.000 117.000
208.000 114.000
209.000 110.000
207.000 108.000
208.000 98.000
210.000 97.000
208.000 96.000
212.000 91.000
213.000 87.000
210.000 85.000
207.000 92.000
206.000 91.000
204.000 95.000
198.000 97.000
191.000 104.000
189.000 109.000
182.000 115.000
183.000 116.000
179.000 120.000
173.000 131.000
165.000 138.000
163.000 144.000
161.000 144.000
157.000 152.000
150.000 159.000
151.000 160.000
150.000 159.000
148.000 161.000
149.000 162.000
148.000 161.000
140.000 171.000
136.000 173.000
116.000 194.000
113.000 195.000
109.000 200.000
107.000 200.000
100.000 209.000
79.000 224.000
77.000 223.000
73.000 226.000
44.000 229.000
42.000 228.000
41.000 230.000
37.000 230.000
30.000 238.000
30.000 242.000
26.000 249.000
26.000 251.000
30.000 255.000
29.000 258.000
32.000 264.000
34.000 261.000
33.000 254.000
35.000 252.000
36.000 246.000
43.000 239.000
49.000 239.000
51.000 237.000
53.000 238.000
64.000 234.000
70.000 235.000
82.000 232.000
96.000 233.000
104.000 239.000
107.000 239.000
113.000 243.000
117.000 243.000
119.000 245.000
122.000 245.000
123.000 247.000
126.000 247.000
130.000 251.000
136.000 253.000
141.000 258.000
142.000 257.000
146.000 261.000
158.000 267.000
177.000 273.000
188.000 282.000
189.000 281.000
192.000 284.000
193.000 283.000
195.000 286.000
198.000 286.000
206.000 294.000
207.000 293.000
207.000 295.000
216.000 304.000
228.000 310.000
237.000 318.000
239.000 318.000
241.000 324.000
245.000 328.000
246.000 325.000
244.000 322.000
244.000 312.000
246.000 305.000
246.000 264.000
250.000 257.000
256.000 251.000
257.000 252.000
258.000 250.000
261.000 250.000
263.000 247.000
271.000 245.000
273.000 243.000
277.000 243.000
280.000 249.000
289.000 249.000
295.000 254.000
296.000 253.000
300.000 259.000
304.000 259.000
311.000 265.000
314.000 265.000
313.000 266.000
315.000 268.000
317.000 267.000
320.000 269.000
320.000 271.000
322.000 271.000
323.000 274.000
326.000 273.000
331.000 279.000
332.000 278.000
338.000 284.000
344.000 286.000
346.000 288.000
346.000 292.000
348.000 293.000
348.000 295.000
354.000 300.000
354.000 302.000
358.000 306.000
362.000 308.000
370.000 321.000
372.000 322.000
372.000 324.000
374.000 325.000
374.000 328.000
378.000 330.000
386.000 343.000
388.000 343.000
388.000 345.000
396.000 353.000
397.000 357.000
404.000 367.000
407.000 368.000
408.000 371.000
415.000 378.000
422.000 382.000
423.000 387.000
425.000 389.000
428.000 387.000
425.000 384.000
425.000 381.000
428.000 378.000
428.000 376.000
431.000 373.000
436.000 373.000
440.000 375.000
441.000 374.000
446.000 378.000
449.000 378.000
456.000 382.000
465.000 384.000
467.000 388.000
469.000 388.000
470.000 390.000
472.000 389.000
472.000 387.000
466.000 381.000
463.000 369.000
464.000 368.000
462.000 367.000
461.000 363.000
462.000 360.000
460.000 359.000
460.000 347.000
458.000 343.000
459.000 340.000
457.000 334.000
457.000 311.000
459.000 304.000
457.000 301.000
458.000 296.000
456.000 292.000
456.000 285.000
458.000 282.000
458.000 278.000
465.000 269.000
467.000 270.000
469.000 268.000
485.000 268.000
486.000 270.000
488.000 269.000
490.000 271.000
491.000 270.000
506.000 275.000
513.000 274.000
525.000 284.000
530.000 285.000
532.000 288.000
535.000 288.000
541.000 294.000
545.000 294.000
557.000 303.000
558.000 302.000
564.000 306.000
565.000 305.000
566.000 307.000
577.000 311.000
583.000 316.000
588.000 316.000
597.000 320.000
604.000 320.000
605.000 322.000
606.000 321.000
611.000 323.000
612.000 321.000
603.000 314.000
599.000 307.000
597.000 298.000
599.000 283.000
605.000 277.000
610.000 274.000
613.000 270.000
646.000 270.000
649.000 267.000
654.000 267.000
655.000 265.000
657.000 266.000
662.000 263.000
663.000 264.000
666.000 261.000
681.000 258.000
