ply
format ascii 1.0
comment Dominant contour extracted from bimodal image.
comment scale factor = 0.275672
comment kernel width = 3
comment decimate eps = 1.000000
comment orig shape   = (1451, 2687)
comment threshold    = 243.000000
comment Written with hapPLY (https://github.com/nmwsharp/happly)
element flags 0
property uchar closed
element vertex 179
property double x
property double y
end_header
732.000 140.000
729.000 138.000
723.000 138.000
718.000 140.000
678.000 137.000
670.000 138.000
660.000 133.000
666.000 131.000
666.000 129.000
658.000 131.000
620.000 133.000
604.000 132.000
600.000 130.000
579.000 130.000
570.000 128.000
542.000 126.000
533.000 121.000
516.000 115.000
512.000 110.000
513.000 90.000
518.000 84.000
519.000 77.000
522.000 74.000
521.000 72.000
517.000 76.000
514.000 76.000
487.000 89.000
481.000 89.000
471.000 93.000
467.000 93.000
463.000 96.000
449.000 99.000
443.000 103.000
426.000 103.000
403.000 97.000
396.000 91.000
392.000 72.000
388.000 66.000
386.000 59.000
386.000 35.000
388.000 29.000
391.000 26.000
391.000 23.000
401.000 12.000
400.000 10.000
392.000 18.000
387.000 19.000
376.000 26.000
365.000 38.000
359.000 40.000
350.000 38.000
347.000 46.000
336.000 56.000
335.000 59.000
326.000 69.000
322.000 77.000
315.000 82.000
301.000 97.000
280.000 113.000
258.000 122.000
248.000 122.000
243.000 120.000
238.000 115.000
235.000 109.000
229.000 77.000
223.000 62.000
217.000 55.000
218.000 50.000
216.000 43.000
219.000 39.000
223.000 37.000
221.000 35.000
206.000 47.000
193.000 74.000
190.000 94.000
188.000 98.000
181.000 103.000
172.000 121.000
170.000 128.000
171.000 133.000
160.000 146.000
152.000 162.000
147.000 168.000
137.000 189.000
133.000 193.000
122.000 196.000
100.000 196.000
88.000 194.000
44.000 193.000
32.000 190.000
25.000 190.000
19.000 188.000
17.000 192.000
22.000 197.000
31.000 198.000
67.000 198.000
99.000 200.000
107.000 202.000
133.000 201.000
139.000 203.000
144.000 211.000
161.000 230.000
182.000 249.000
184.000 254.000
212.000 283.000
217.000 291.000
227.000 298.000
227.000 303.000
233.000 316.000
240.000 326.000
250.000 336.000
254.000 337.000
262.000 346.000
267.000 357.000
273.000 363.000
275.000 371.000
279.000 377.000
281.000 376.000
278.000 372.000
275.000 360.000
274.000 343.000
278.000 333.000
280.000 322.000
280.000 305.000
284.000 298.000
285.000 290.000
288.000 284.000
296.000 278.000
313.000 277.000
334.000 283.000
371.000 306.000
386.000 321.000
428.000 351.000
431.000 356.000
433.000 356.000
436.000 353.000
438.000 348.000
444.000 348.000
451.000 351.000
453.000 350.000
465.000 355.000
469.000 355.000
491.000 368.000
494.000 368.000
506.000 375.000
516.000 378.000
518.000 382.000
522.000 383.000
523.000 382.000
503.000 362.000
499.000 353.000
491.000 346.000
478.000 323.000
478.000 319.000
470.000 299.000
467.000 278.000
465.000 274.000
467.000 260.000
471.000 253.000
486.000 245.000
511.000 239.000
529.000 239.000
536.000 237.000
544.000 237.000
562.000 232.000
568.000 232.000
574.000 235.000
574.000 232.000
566.000 229.000
564.000 222.000
568.000 216.000
582.000 202.000
612.000 186.000
620.000 184.000
624.000 181.000
646.000 173.000
648.000 171.000
708.000 149.000
721.000 141.000
