ply
format ascii 1.0
comment Dominant contour extracted from bimodal image.
comment scale factor = 0.364631
comment kernel width = 3
comment decimate eps = 1.000000
comment orig shape   = (1097, 2070)
comment threshold    = 245.500000
comment Written with hapPLY (https://github.com/nmwsharp/happly)
element flags 0
property uchar closed
element vertex 178
property double x
property double y
end_header
727.000 191.000
725.000 187.000
724.000 189.000
719.000 189.000
702.000 181.000
679.000 175.000
659.000 172.000
648.000 163.000
647.000 154.000
655.000 136.000
661.000 130.000
668.000 126.000
665.000 123.000
652.000 133.000
634.000 134.000
631.000 136.000
619.000 137.000
612.000 140.000
595.000 142.000
590.000 144.000
562.000 143.000
545.000 138.000
535.000 131.000
527.000 121.000
523.000 112.000
520.000 99.000
521.000 88.000
524.000 77.000
535.000 60.000
540.000 46.000
543.000 42.000
553.000 35.000
552.000 33.000
546.000 36.000
538.000 43.000
512.000 51.000
505.000 55.000
491.000 57.000
468.000 63.000
450.000 62.000
442.000 52.000
440.000 36.000
439.000 53.000
431.000 65.000
409.000 79.000
401.000 87.000
370.000 110.000
358.000 117.000
355.000 117.000
343.000 123.000
334.000 129.000
310.000 136.000
292.000 136.000
278.000 132.000
268.000 125.000
262.000 115.000
258.000 99.000
258.000 71.000
260.000 57.000
268.000 46.000
266.000 44.000
258.000 54.000
244.000 63.000
243.000 62.000
234.000 67.000
227.000 73.000
206.000 100.000
189.000 117.000
189.000 119.000
182.000 126.000
170.000 135.000
170.000 137.000
165.000 140.000
148.000 144.000
142.000 144.000
129.000 140.000
126.000 135.000
126.000 126.000
132.000 117.000
130.000 115.000
123.000 127.000
106.000 135.000
102.000 139.000
96.000 141.000
90.000 146.000
72.000 153.000
67.000 157.000
46.000 164.000
39.000 169.000
37.000 174.000
39.000 179.000
41.000 179.000
45.000 183.000
47.000 183.000
79.000 203.000
91.000 215.000
112.000 230.000
120.000 245.000
121.000 242.000
117.000 231.000
120.000 223.000
127.000 216.000
145.000 215.000
154.000 220.000
155.000 222.000
157.000 222.000
159.000 225.000
160.000 224.000
162.000 227.000
163.000 226.000
171.000 234.000
171.000 236.000
186.000 257.000
193.000 270.000
205.000 285.000
222.000 295.000
230.000 303.000
236.000 306.000
246.000 321.000
247.000 319.000
237.000 301.000
246.000 261.000
254.000 247.000
262.000 240.000
273.000 236.000
286.000 237.000
298.000 241.000
299.000 243.000
300.000 242.000
322.000 254.000
321.000 255.000
324.000 256.000
338.000 270.000
346.000 281.000
401.000 336.000
402.000 335.000
408.000 343.000
422.000 353.000
428.000 369.000
429.000 366.000
425.000 354.000
426.000 347.000
432.000 341.000
442.000 341.000
454.000 346.000
467.000 356.000
487.000 365.000
495.000 377.000
501.000 382.000
502.000 380.000
497.000 375.000
495.000 369.000
491.000 364.000
488.000 353.000
488.000 345.000
482.000 327.000
482.000 308.000
485.000 284.000
491.000 270.000
500.000 260.000
521.000 252.000
538.000 250.000
591.000 253.000
627.000 266.000
640.000 275.000
643.000 275.000
643.000 272.000
640.000 272.000
630.000 263.000
625.000 248.000
625.000 237.000
628.000 230.000
653.000 218.000
667.000 213.000
679.000 211.000
685.000 207.000
701.000 202.000
714.000 195.000
