ply
format ascii 1.0
comment Dominant contour extracted from bimodal image.
comment scale factor = 0.254939
comment kernel width = 3
comment decimate eps = 1.000000
comment orig shape   = (1569, 3025)
comment threshold    = 241.000000
comment Written with hapPLY (https://github.com/nmwsharp/happly)
element flags 0
property uchar closed
element vertex 216
property double x
property double y
end_header
749.000 159.000
746.000 157.000
740.000 157.000
718.000 151.000
700.000 150.000
693.000 147.000
689.000 142.000
689.000 136.000
694.000 130.000
696.000 130.000
695.000 127.000
684.000 134.000
661.000 140.000
657.000 139.000
654.000 141.000
625.000 140.000
612.000 135.000
599.000 125.000
596.000 120.000
594.000 110.000
597.000 102.000
605.000 90.000
615.000 82.000
614.000 80.000
584.000 92.000
574.000 91.000
572.000 89.000
574.000 84.000
573.000 81.000
568.000 89.000
551.000 99.000
535.000 113.000
513.000 127.000
491.000 137.000
466.000 137.000
456.000 129.000
449.000 116.000
447.000 108.000
447.000 84.000
439.000 61.000
440.000 41.000
449.000 15.000
453.000 10.000
459.000 7.000
455.000 6.000
421.000 33.000
413.000 33.000
410.000 29.000
410.000 23.000
408.000 27.000
408.000 35.000
405.000 44.000
399.000 51.000
388.000 55.000
380.000 54.000
372.000 46.000
369.000 38.000
367.000 40.000
368.000 49.000
365.000 57.000
364.000 98.000
362.000 105.000
346.000 138.000
335.000 155.000
325.000 166.000
316.000 171.000
299.000 176.000
289.000 172.000
275.000 157.000
265.000 133.000
264.000 117.000
266.000 113.000
265.000 112.000
261.000 116.000
257.000 111.000
253.000 101.000
253.000 95.000
255.000 91.000
254.000 85.000
252.000 92.000
245.000 105.000
232.000 117.000
227.000 140.000
218.000 163.000
201.000 182.000
192.000 187.000
175.000 193.000
161.000 193.000
162.000 190.000
156.000 182.000
153.000 168.000
147.000 180.000
139.000 189.000
133.000 193.000
119.000 199.000
109.000 208.000
103.000 209.000
95.000 215.000
73.000 218.000
45.000 217.000
41.000 215.000
38.000 216.000
24.000 203.000
19.000 191.000
17.000 190.000
16.000 193.000
24.000 209.000
24.000 211.000
22.000 212.000
22.000 219.000
25.000 222.000
28.000 222.000
33.000 225.000
42.000 225.000
43.000 227.000
45.000 226.000
44.000 225.000
99.000 222.000
111.000 225.000
125.000 235.000
143.000 244.000
157.000 259.000
172.000 271.000
173.000 269.000
166.000 260.000
166.000 255.000
169.000 243.000
174.000 238.000
184.000 235.000
196.000 235.000
221.000 240.000
225.000 244.000
235.000 248.000
252.000 260.000
269.000 279.000
278.000 295.000
278.000 298.000
287.000 318.000
286.000 331.000
289.000 331.000
288.000 328.000
290.000 320.000
292.000 318.000
297.000 319.000
310.000 331.000
310.000 333.000
325.000 348.000
326.000 346.000
322.000 331.000
321.000 304.000
322.000 270.000
326.000 257.000
330.000 250.000
340.000 243.000
348.000 241.000
360.000 241.000
373.000 244.000
394.000 252.000
408.000 264.000
422.000 288.000
442.000 330.000
452.000 343.000
457.000 354.000
458.000 352.000
456.000 342.000
461.000 327.000
467.000 323.000
474.000 323.000
492.000 331.000
524.000 357.000
529.000 364.000
534.000 368.000
536.000 367.000
530.000 361.000
530.000 359.000
534.000 356.000
540.000 356.000
551.000 362.000
572.000 367.000
572.000 364.000
567.000 362.000
560.000 356.000
551.000 342.000
545.000 328.000
544.000 315.000
547.000 312.000
551.000 312.000
554.000 314.000
557.000 313.000
548.000 309.000
531.000 286.000
522.000 268.000
520.000 261.000
520.000 251.000
522.000 241.000
526.000 234.000
542.000 223.000
548.000 223.000
563.000 219.000
584.000 219.000
588.000 217.000
641.000 223.000
684.000 221.000
687.000 218.000
686.000 216.000
683.000 219.000
676.000 219.000
672.000 217.000
664.000 209.000
661.000 203.000
662.000 195.000
671.000 185.000
685.000 177.000
713.000 168.000
728.000 165.000
739.000 160.000
