ply
format ascii 1.0
comment Dominant contour extracted from bimodal image.
comment scale factor = 0.364631
comment kernel width = 3
comment decimate eps = 1.000000
comment orig shape   = (1097, 1954)
comment threshold    = 250.000000
comment Written with hapPLY (https://github.com/nmwsharp/happly)
element flags 0
property uchar closed
element vertex 762
property double x
property double y
end_header
19.000 167.000
19.000 175.000
22.000 175.000
21.000 174.000
21.000 176.000
24.000 180.000
27.000 179.000
29.000 180.000
29.000 182.000
32.000 183.000
36.000 181.000
39.000 183.000
43.000 182.000
42.000 183.000
45.000 185.000
47.000 183.000
50.000 183.000
50.000 185.000
55.000 184.000
64.000 187.000
65.000 186.000
65.000 188.000
71.000 188.000
76.000 195.000
78.000 195.000
78.000 197.000
82.000 197.000
83.000 200.000
86.000 203.000
89.000 203.000
89.000 205.000
93.000 209.000
95.000 209.000
96.000 212.000
98.000 211.000
99.000 214.000
103.000 214.000
103.000 216.000
107.000 218.000
106.000 220.000
108.000 220.000
107.000 221.000
110.000 223.000
110.000 225.000
113.000 223.000
112.000 224.000
114.000 226.000
118.000 226.000
118.000 228.000
121.000 229.000
123.000 232.000
126.000 232.000
128.000 235.000
131.000 234.000
133.000 241.000
136.000 240.000
139.000 242.000
139.000 244.000
141.000 243.000
144.000 247.000
147.000 247.000
147.000 249.000
149.000 249.000
157.000 258.000
159.000 257.000
160.000 259.000
162.000 259.000
162.000 261.000
166.000 261.000
169.000 266.000
171.000 264.000
170.000 266.000
173.000 267.000
174.000 270.000
177.000 269.000
180.000 273.000
186.000 276.000
186.000 278.000
191.000 279.000
192.000 282.000
193.000 281.000
198.000 285.000
201.000 285.000
199.000 286.000
203.000 288.000
204.000 291.000
208.000 290.000
209.000 293.000
214.000 293.000
214.000 295.000
217.000 296.000
219.000 299.000
223.000 299.000
225.000 302.000
229.000 302.000
230.000 305.000
234.000 305.000
234.000 307.000
236.000 309.000
238.000 308.000
238.000 310.000
247.000 311.000
246.000 313.000
248.000 313.000
250.000 316.000
252.000 315.000
251.000 316.000
255.000 317.000
255.000 319.000
258.000 319.000
258.000 322.000
261.000 323.000
261.000 325.000
265.000 325.000
266.000 328.000
267.000 326.000
270.000 329.000
270.000 331.000
273.000 331.000
273.000 336.000
274.000 337.000
275.000 334.000
277.000 337.000
279.000 337.000
281.000 342.000
284.000 342.000
284.000 344.000
287.000 346.000
288.000 349.000
290.000 349.000
291.000 352.000
294.000 351.000
293.000 353.000
296.000 354.000
297.000 358.000
299.000 356.000
300.000 360.000
302.000 359.000
301.000 358.000
304.000 361.000
306.000 361.000
305.000 362.000
309.000 366.000
311.000 366.000
310.000 368.000
313.000 370.000
314.000 369.000
314.000 373.000
315.000 374.000
316.000 372.000
317.000 375.000
320.000 375.000
319.000 376.000
328.000 384.000
329.000 387.000
333.000 385.000
333.000 380.000
331.000 377.000
332.000 374.000
329.000 370.000
330.000 364.000
328.000 364.000
328.000 361.000
330.000 359.000
330.000 344.000
327.000 342.000
326.000 337.000
326.000 322.000
327.000 323.000
329.000 320.000
326.000 317.000
327.000 314.000
323.000 311.000
324.000 303.000
322.000 303.000
322.000 300.000
324.000 299.000
324.000 294.000
321.000 294.000
320.000 281.000
321.000 279.000
322.000 281.000
324.000 274.000
327.000 271.000
328.000 267.000
332.000 267.000
332.000 265.000
335.000 264.000
336.000 261.000
343.000 261.000
344.000 258.000
346.000 259.000
356.000 257.000
360.000 258.000
362.000 261.000
369.000 261.000
368.000 262.000
372.000 265.000
377.000 264.000
378.000 265.000
375.000 265.000
376.000 267.000
387.000 267.000
386.000 268.000
388.000 270.000
392.000 270.000
392.000 272.000
395.000 273.000
396.000 276.000
400.000 275.000
402.000 279.000
407.000 279.000
411.000 284.000
416.000 285.000
417.000 288.000
418.000 287.000
419.000 289.000
421.000 288.000
421.000 290.000
424.000 290.000
427.000 293.000
427.000 295.000
430.000 296.000
431.000 299.000
436.000 299.000
436.000 301.000
439.000 302.000
439.000 304.000
442.000 305.000
443.000 308.000
449.000 308.000
449.000 311.000
451.000 310.000
455.000 314.000
456.000 313.000
460.000 320.000
462.000 319.000
466.000 321.000
466.000 326.000
470.000 325.000
472.000 328.000
474.000 328.000
473.000 330.000
477.000 331.000
477.000 333.000
480.000 334.000
479.000 335.000
483.000 337.000
482.000 338.000
487.000 343.000
488.000 342.000
490.000 344.000
491.000 342.000
493.000 346.000
498.000 346.000
497.000 347.000
500.000 349.000
501.000 352.000
505.000 352.000
504.000 353.000
508.000 356.000
509.000 355.000
509.000 357.000
511.000 359.000
512.000 358.000
511.000 359.000
513.000 361.000
514.000 360.000
519.000 366.000
523.000 366.000
523.000 369.000
527.000 369.000
527.000 371.000
530.000 375.000
532.000 375.000
533.000 378.000
539.000 378.000
543.000 376.000
539.000 373.000
535.000 374.000
537.000 373.000
534.000 371.000
534.000 366.000
537.000 366.000
534.000 368.000
535.000 369.000
544.000 369.000
545.000 372.000
550.000 372.000
550.000 374.000
554.000 377.000
563.000 378.000
564.000 377.000
561.000 373.000
564.000 373.000
562.000 371.000
557.000 370.000
557.000 365.000
554.000 362.000
554.000 357.000
551.000 355.000
551.000 346.000
548.000 344.000
549.000 340.000
545.000 335.000
545.000 330.000
543.000 330.000
542.000 327.000
543.000 322.000
540.000 321.000
540.000 315.000
537.000 315.000
539.000 313.000
536.000 313.000
537.000 310.000
535.000 308.000
534.000 309.000
534.000 302.000
531.000 302.000
531.000 297.000
529.000 296.000
531.000 294.000
528.000 292.000
528.000 288.000
525.000 286.000
525.000 278.000
522.000 277.000
522.000 272.000
519.000 272.000
520.000 264.000
516.000 260.000
515.000 254.000
517.000 249.000
519.000 250.000
519.000 247.000
524.000 246.000
525.000 243.000
529.000 244.000
529.000 241.000
535.000 241.000
538.000 237.000
544.000 238.000
546.000 236.000
544.000 235.000
564.000 235.000
566.000 233.000
566.000 235.000
572.000 235.000
574.000 233.000
574.000 235.000
588.000 234.000
590.000 236.000
591.000 235.000
592.000 238.000
593.000 236.000
594.000 238.000
600.000 238.000
603.000 241.000
611.000 240.000
615.000 243.000
619.000 242.000
619.000 244.000
622.000 243.000
628.000 247.000
631.000 245.000
632.000 247.000
633.000 242.000
632.000 241.000
631.000 243.000
629.000 236.000
627.000 237.000
626.000 235.000
625.000 237.000
626.000 235.000
621.000 227.000
621.000 223.000
623.000 223.000
623.000 221.000
626.000 220.000
625.000 218.000
644.000 218.000
647.000 215.000
648.000 217.000
650.000 217.000
653.000 215.000
652.000 214.000
671.000 215.000
674.000 212.000
677.000 212.000
679.000 210.000
681.000 211.000
684.000 208.000
690.000 209.000
692.000 207.000
691.000 206.000
698.000 206.000
700.000 203.000
705.000 203.000
706.000 200.000
708.000 200.000
711.000 196.000
710.000 187.000
700.000 187.000
699.000 184.000
694.000 184.000
694.000 181.000
687.000 182.000
688.000 181.000
684.000 178.000
674.000 178.000
672.000 175.000
664.000 175.000
664.000 172.000
655.000 172.000
655.000 169.000
649.000 170.000
646.000 166.000
643.000 166.000
641.000 168.000
641.000 166.000
636.000 167.000
631.000 163.000
627.000 163.000
626.000 160.000
624.000 161.000
624.000 159.000
621.000 158.000
621.000 154.000
619.000 152.000
621.000 148.000
619.000 145.000
621.000 145.000
624.000 139.000
624.000 133.000
625.000 135.000
627.000 132.000
625.000 131.000
627.000 130.000
627.000 127.000
630.000 126.000
630.000 121.000
626.000 117.000
621.000 117.000
621.000 119.000
619.000 120.000
609.000 120.000
608.000 122.000
601.000 120.000
601.000 122.000
595.000 124.000
592.000 122.000
591.000 126.000
587.000 125.000
584.000 127.000
584.000 129.000
579.000 128.000
574.000 133.000
572.000 131.000
568.000 135.000
565.000 134.000
562.000 137.000
558.000 138.000
558.000 140.000
553.000 140.000
551.000 142.000
553.000 143.000
541.000 143.000
540.000 145.000
542.000 146.000
525.000 146.000
524.000 147.000
528.000 149.000
513.000 149.000
511.000 151.000
508.000 151.000
507.000 149.000
492.000 149.000
493.000 147.000
490.000 146.000
489.000 143.000
487.000 143.000
487.000 141.000
485.000 140.000
487.000 138.000
484.000 137.000
484.000 121.000
487.000 120.000
487.000 108.000
489.000 106.000
488.000 105.000
490.000 105.000
490.000 98.000
495.000 96.000
492.000 92.000
494.000 91.000
492.000 90.000
494.000 88.000
493.000 86.000
496.000 85.000
496.000 57.000
494.000 55.000
496.000 55.000
496.000 44.000
494.000 43.000
496.000 42.000
496.000 36.000
490.000 32.000
483.000 32.000
484.000 31.000
482.000 29.000
474.000 29.000
475.000 28.000
472.000 26.000
469.000 26.000
469.000 28.000
466.000 26.000
466.000 23.000
463.000 24.000
464.000 19.000
467.000 18.000
467.000 14.000
465.000 12.000
459.000 13.000
461.000 14.000
459.000 15.000
460.000 20.000
458.000 18.000
447.000 19.000
450.000 20.000
447.000 21.000
449.000 25.000
452.000 22.000
454.000 22.000
455.000 25.000
456.000 22.000
456.000 27.000
455.000 26.000
453.000 28.000
453.000 31.000
448.000 32.000
448.000 38.000
446.000 38.000
445.000 41.000
443.000 41.000
442.000 44.000
440.000 44.000
438.000 46.000
439.000 47.000
436.000 48.000
435.000 53.000
431.000 53.000
428.000 57.000
430.000 58.000
424.000 63.000
425.000 64.000
422.000 65.000
415.000 73.000
414.000 72.000
411.000 75.000
413.000 77.000
412.000 76.000
407.000 80.000
407.000 85.000
403.000 86.000
404.000 88.000
403.000 87.000
398.000 92.000
399.000 94.000
397.000 93.000
395.000 95.000
396.000 97.000
395.000 96.000
392.000 98.000
392.000 101.000
390.000 99.000
389.000 100.000
389.000 105.000
385.000 105.000
384.000 108.000
382.000 108.000
377.000 114.000
369.000 120.000
367.000 120.000
366.000 123.000
362.000 125.000
363.000 126.000
359.000 126.000
351.000 134.000
352.000 136.000
350.000 135.000
344.000 141.000
341.000 140.000
339.000 142.000
340.000 143.000
339.000 142.000
337.000 144.000
337.000 146.000
332.000 146.000
331.000 149.000
326.000 149.000
325.000 152.000
321.000 152.000
319.000 155.000
311.000 155.000
309.000 158.000
300.000 157.000
298.000 159.000
302.000 160.000
299.000 160.000
297.000 158.000
295.000 160.000
292.000 160.000
291.000 158.000
286.000 159.000
285.000 156.000
283.000 156.000
283.000 158.000
282.000 155.000
277.000 155.000
277.000 153.000
274.000 152.000
273.000 144.000
276.000 140.000
275.000 139.000
277.000 137.000
277.000 133.000
280.000 132.000
280.000 128.000
281.000 129.000
283.000 127.000
283.000 124.000
286.000 123.000
286.000 118.000
288.000 118.000
289.000 115.000
290.000 116.000
292.000 114.000
291.000 113.000
293.000 112.000
294.000 107.000
296.000 107.000
298.000 103.000
300.000 103.000
299.000 101.000
303.000 97.000
304.000 92.000
306.000 92.000
306.000 89.000
309.000 88.000
309.000 81.000
312.000 79.000
312.000 74.000
313.000 75.000
318.000 69.000
321.000 68.000
320.000 62.000
317.000 61.000
316.000 65.000
315.000 62.000
313.000 67.000
309.000 68.000
311.000 70.000
304.000 70.000
303.000 72.000
301.000 72.000
302.000 71.000
300.000 70.000
299.000 74.000
293.000 73.000
290.000 76.000
277.000 76.000
276.000 78.000
278.000 79.000
271.000 79.000
269.000 82.000
262.000 82.000
259.000 86.000
253.000 85.000
252.000 88.000
248.000 87.000
245.000 91.000
241.000 91.000
240.000 93.000
236.000 94.000
233.000 93.000
232.000 96.000
228.000 97.000
229.000 99.000
228.000 97.000
227.000 99.000
221.000 99.000
220.000 103.000
215.000 102.000
214.000 105.000
210.000 105.000
209.000 108.000
204.000 108.000
202.000 111.000
195.000 111.000
194.000 114.000
186.000 114.000
185.000 117.000
181.000 117.000
179.000 120.000
175.000 120.000
173.000 123.000
172.000 122.000
166.000 126.000
161.000 126.000
159.000 130.000
157.000 128.000
156.000 131.000
151.000 132.000
150.000 135.000
146.000 134.000
144.000 138.000
142.000 137.000
142.000 139.000
140.000 139.000
138.000 142.000
137.000 141.000
136.000 143.000
133.000 143.000
128.000 146.000
127.000 149.000
125.000 149.000
124.000 151.000
122.000 149.000
121.000 152.000
118.000 153.000
118.000 155.000
114.000 155.000
112.000 158.000
108.000 158.000
108.000 161.000
104.000 160.000
100.000 163.000
99.000 162.000
97.000 165.000
98.000 166.000
97.000 165.000
94.000 169.000
92.000 168.000
91.000 171.000
89.000 169.000
85.000 171.000
85.000 169.000
81.000 169.000
80.000 172.000
71.000 172.000
70.000 174.000
68.000 172.000
57.000 173.000
52.000 169.000
43.000 169.000
43.000 171.000
40.000 170.000
40.000 168.000
38.000 168.000
38.000 170.000
26.000 169.000
25.000 166.000
