ply
format ascii 1.0
comment Dominant contour extracted from bimodal image.
comment scale factor = 0.182899
comment kernel width = 3
comment decimate eps = 1.000000
comment orig shape   = (2187, 3335)
comment threshold    = 219.000000
comment Written with hapPLY (https://github.com/nmwsharp/happly)
element flags 0
property uchar closed
element vertex 162
property double x
property double y
end_header
23.000 160.000
26.000 165.000
55.000 165.000
68.000 179.000
76.000 183.000
79.000 189.000
81.000 204.000
90.000 221.000
99.000 232.000
101.000 242.000
102.000 235.000
105.000 229.000
120.000 215.000
123.000 209.000
121.000 203.000
130.000 203.000
151.000 209.000
159.000 221.000
158.000 224.000
177.000 251.000
187.000 271.000
191.000 287.000
193.000 314.000
198.000 329.000
196.000 342.000
197.000 343.000
202.000 334.000
208.000 330.000
212.000 330.000
218.000 335.000
223.000 342.000
231.000 361.000
237.000 379.000
237.000 387.000
244.000 365.000
248.000 359.000
253.000 341.000
259.000 329.000
263.000 304.000
263.000 282.000
261.000 274.000
265.000 257.000
270.000 248.000
279.000 239.000
283.000 232.000
288.000 231.000
294.000 227.000
308.000 229.000
335.000 240.000
353.000 255.000
372.000 284.000
393.000 331.000
400.000 320.000
412.000 320.000
420.000 325.000
433.000 329.000
440.000 335.000
444.000 336.000
456.000 344.000
457.000 343.000
454.000 340.000
451.000 333.000
444.000 307.000
446.000 283.000
449.000 277.000
455.000 273.000
453.000 272.000
448.000 261.000
445.000 247.000
446.000 232.000
449.000 225.000
459.000 213.000
474.000 207.000
476.000 209.000
494.000 212.000
510.000 219.000
518.000 220.000
544.000 229.000
545.000 228.000
536.000 218.000
531.000 209.000
529.000 201.000
530.000 184.000
535.000 178.000
556.000 166.000
578.000 160.000
573.000 155.000
573.000 148.000
589.000 132.000
594.000 123.000
595.000 116.000
592.000 113.000
589.000 114.000
593.000 117.000
593.000 119.000
574.000 126.000
564.000 127.000
547.000 125.000
534.000 121.000
517.000 110.000
512.000 110.000
513.000 109.000
507.000 104.000
505.000 90.000
496.000 100.000
488.000 106.000
472.000 112.000
468.000 115.000
433.000 125.000
424.000 124.000
411.000 110.000
407.000 98.000
408.000 78.000
417.000 69.000
413.000 69.000
407.000 66.000
405.000 58.000
404.000 44.000
407.000 27.000
411.000 18.000
410.000 16.000
378.000 37.000
350.000 51.000
346.000 51.000
344.000 49.000
342.000 40.000
339.000 48.000
332.000 58.000
332.000 61.000
319.000 87.000
310.000 99.000
298.000 111.000
283.000 120.000
275.000 120.000
265.000 114.000
253.000 97.000
241.000 67.000
238.000 36.000
211.000 63.000
203.000 67.000
200.000 64.000
200.000 61.000
198.000 61.000
190.000 75.000
186.000 95.000
174.000 128.000
164.000 139.000
158.000 143.000
143.000 144.000
138.000 140.000
136.000 132.000
128.000 116.000
121.000 106.000
119.000 95.000
118.000 100.000
105.000 112.000
102.000 113.000
81.000 137.000
66.000 145.000
55.000 156.000
28.000 157.000
24.000 158.000
