ply
format ascii 1.0
comment Dominant contour extracted from bimodal image.
comment scale factor = 0.898876
comment kernel width = 3
comment decimate eps = 1.000000
comment orig shape   = (445, 913)
comment threshold    = 238.000000
comment Written with hapPLY (https://github.com/nmwsharp/happly)
element flags 0
property uchar closed
element vertex 128
property double x
property double y
end_header
748.000 178.000
746.000 177.000
745.000 171.000
736.000 161.000
727.000 144.000
716.000 135.000
711.000 133.000
710.000 130.000
697.000 119.000
688.000 114.000
676.000 100.000
663.000 88.000
662.000 85.000
646.000 69.000
640.000 65.000
634.000 58.000
628.000 47.000
624.000 45.000
620.000 40.000
611.000 36.000
606.000 36.000
599.000 31.000
577.000 25.000
567.000 25.000
563.000 23.000
548.000 23.000
530.000 27.000
518.000 32.000
511.000 32.000
502.000 36.000
498.000 36.000
473.000 44.000
457.000 45.000
451.000 43.000
439.000 43.000
424.000 47.000
408.000 45.000
397.000 48.000
389.000 53.000
383.000 54.000
374.000 62.000
369.000 64.000
362.000 71.000
348.000 81.000
346.000 81.000
332.000 93.000
314.000 102.000
300.000 117.000
297.000 118.000
281.000 133.000
271.000 137.000
266.000 141.000
244.000 152.000
230.000 163.000
192.000 187.000
184.000 195.000
171.000 201.000
158.000 212.000
148.000 216.000
141.000 221.000
131.000 223.000
120.000 228.000
112.000 234.000
100.000 239.000
87.000 241.000
85.000 240.000
78.000 242.000
57.000 241.000
32.000 244.000
29.000 248.000
29.000 254.000
32.000 256.000
33.000 259.000
37.000 259.000
48.000 255.000
71.000 252.000
87.000 255.000
100.000 255.000
112.000 258.000
133.000 259.000
146.000 263.000
163.000 265.000
178.000 270.000
207.000 269.000
240.000 279.000
250.000 285.000
253.000 285.000
271.000 293.000
311.000 295.000
315.000 298.000
324.000 301.000
342.000 303.000
366.000 312.000
374.000 312.000
391.000 317.000
393.000 319.000
399.000 319.000
402.000 321.000
409.000 321.000
431.000 326.000
446.000 327.000
485.000 340.000
503.000 342.000
517.000 348.000
545.000 348.000
550.000 350.000
562.000 350.000
591.000 340.000
601.000 332.000
611.000 327.000
626.000 315.000
629.000 304.000
639.000 296.000
638.000 295.000
644.000 289.000
650.000 277.000
658.000 270.000
664.000 267.000
668.000 262.000
677.000 256.000
681.000 255.000
693.000 245.000
702.000 241.000
709.000 235.000
718.000 232.000
728.000 224.000
744.000 207.000
747.000 201.000
