ply
format ascii 1.0
comment Dominant contour extracted from bimodal image.
comment scale factor = 0.787402
comment kernel width = 3
comment decimate eps = 1.000000
comment orig shape   = (508, 1093)
comment threshold    = 240.000000
comment Written with hapPLY (https://github.com/nmwsharp/happly)
element flags 0
property uchar closed
element vertex 151
property double x
property double y
end_header
813.000 197.000
807.000 186.000
805.000 185.000
804.000 180.000
787.000 163.000
784.000 157.000
774.000 147.000
775.000 146.000
771.000 144.000
764.000 136.000
763.000 137.000
755.000 132.000
753.000 129.000
728.000 111.000
723.000 110.000
717.000 104.000
713.000 103.000
705.000 96.000
696.000 91.000
693.000 91.000
686.000 86.000
680.000 86.000
671.000 81.000
663.000 81.000
659.000 78.000
653.000 77.000
642.000 71.000
637.000 70.000
612.000 53.000
602.000 44.000
587.000 37.000
575.000 33.000
571.000 30.000
548.000 28.000
526.000 30.000
521.000 33.000
505.000 37.000
493.000 44.000
481.000 47.000
469.000 55.000
465.000 55.000
442.000 66.000
415.000 74.000
407.000 79.000
399.000 81.000
393.000 85.000
376.000 92.000
366.000 94.000
352.000 100.000
343.000 101.000
313.000 118.000
300.000 122.000
269.000 137.000
263.000 138.000
262.000 140.000
249.000 144.000
240.000 145.000
239.000 147.000
233.000 148.000
225.000 154.000
212.000 160.000
206.000 165.000
172.000 181.000
157.000 186.000
150.000 192.000
142.000 196.000
139.000 196.000
120.000 211.000
110.000 215.000
110.000 217.000
105.000 221.000
91.000 229.000
71.000 236.000
66.000 234.000
64.000 235.000
61.000 233.000
48.000 235.000
43.000 241.000
41.000 241.000
36.000 246.000
26.000 244.000
25.000 246.000
28.000 248.000
19.000 248.000
18.000 252.000
21.000 253.000
22.000 259.000
25.000 258.000
21.000 264.000
23.000 267.000
28.000 261.000
30.000 263.000
37.000 262.000
40.000 265.000
44.000 262.000
61.000 258.000
66.000 252.000
77.000 248.000
95.000 246.000
134.000 246.000
147.000 249.000
161.000 250.000
170.000 253.000
193.000 253.000
200.000 255.000
224.000 257.000
272.000 268.000
282.000 268.000
307.000 277.000
309.000 279.000
312.000 279.000
315.000 282.000
327.000 286.000
337.000 293.000
352.000 297.000
363.000 304.000
391.000 312.000
397.000 316.000
400.000 316.000
406.000 320.000
428.000 327.000
443.000 329.000
472.000 342.000
477.000 342.000
486.000 346.000
515.000 353.000
526.000 359.000
542.000 364.000
553.000 364.000
560.000 367.000
574.000 369.000
588.000 369.000
599.000 364.000
608.000 364.000
618.000 357.000
631.000 353.000
642.000 342.000
654.000 337.000
666.000 327.000
690.000 316.000
695.000 312.000
699.000 312.000
709.000 307.000
716.000 301.000
728.000 297.000
744.000 283.000
764.000 274.000
774.000 265.000
784.000 260.000
808.000 228.000
814.000 211.000
