ply
format ascii 1.0
comment Dominant contour extracted from bimodal image.
comment scale factor = 0.506329
comment kernel width = 3
comment decimate eps = 1.000000
comment orig shape   = (790, 1841)
comment threshold    = 227.000000
comment Written with hapPLY (https://github.com/nmwsharp/happly)
element flags 0
property uchar closed
element vertex 126
property double x
property double y
end_header
882.000 209.000
880.000 197.000
877.000 192.000
873.000 190.000
870.000 184.000
870.000 161.000
854.000 112.000
844.000 93.000
838.000 85.000
835.000 75.000
831.000 70.000
828.000 62.000
822.000 56.000
816.000 53.000
811.000 47.000
802.000 42.000
799.000 42.000
793.000 38.000
786.000 36.000
775.000 36.000
772.000 34.000
759.000 33.000
756.000 35.000
739.000 34.000
731.000 38.000
721.000 39.000
706.000 48.000
699.000 50.000
663.000 81.000
644.000 102.000
611.000 128.000
587.000 140.000
559.000 147.000
545.000 149.000
498.000 149.000
470.000 153.000
456.000 152.000
435.000 157.000
378.000 155.000
365.000 157.000
290.000 156.000
283.000 158.000
259.000 158.000
238.000 156.000
212.000 161.000
185.000 159.000
165.000 162.000
146.000 162.000
123.000 170.000
107.000 172.000
97.000 175.000
59.000 173.000
48.000 170.000
32.000 162.000
29.000 162.000
27.000 158.000
22.000 157.000
18.000 160.000
20.000 164.000
16.000 168.000
18.000 172.000
21.000 172.000
13.000 179.000
13.000 182.000
15.000 184.000
28.000 184.000
24.000 186.000
36.000 192.000
44.000 188.000
42.000 186.000
37.000 187.000
33.000 185.000
31.000 182.000
37.000 184.000
47.000 184.000
48.000 186.000
55.000 185.000
64.000 187.000
111.000 187.000
137.000 198.000
163.000 206.000
176.000 213.000
203.000 222.000
212.000 223.000
236.000 231.000
248.000 232.000
298.000 245.000
308.000 246.000
320.000 251.000
341.000 252.000
360.000 257.000
395.000 260.000
407.000 264.000
431.000 268.000
443.000 274.000
454.000 276.000
466.000 281.000
478.000 282.000
485.000 286.000
521.000 294.000
538.000 295.000
545.000 297.000
598.000 300.000
625.000 306.000
656.000 320.000
684.000 339.000
694.000 342.000
705.000 351.000
719.000 358.000
743.000 366.000
756.000 368.000
785.000 368.000
791.000 365.000
801.000 364.000
809.000 359.000
818.000 356.000
834.000 342.000
841.000 329.000
849.000 320.000
854.000 308.000
854.000 303.000
863.000 286.000
865.000 275.000
869.000 269.000
872.000 249.000
877.000 236.000
