ply
format ascii 1.0
comment Dominant contour extracted from bimodal image.
comment scale factor = 0.454545
comment kernel width = 3
comment decimate eps = 1.000000
comment orig shape   = (880, 1725)
comment threshold    = 215.000000
comment Written with hapPLY (https://github.com/nmwsharp/happly)
element flags 0
property uchar closed
element vertex 102
property double x
property double y
end_header
744.000 164.000
737.000 150.000
721.000 129.000
704.000 114.000
690.000 98.000
684.000 87.000
673.000 74.000
671.000 69.000
658.000 55.000
640.000 46.000
613.000 45.000
601.000 42.000
586.000 44.000
579.000 48.000
569.000 51.000
547.000 66.000
519.000 81.000
504.000 92.000
483.000 103.000
455.000 115.000
442.000 117.000
422.000 124.000
401.000 128.000
394.000 131.000
360.000 139.000
338.000 147.000
327.000 153.000
304.000 161.000
284.000 165.000
272.000 170.000
223.000 182.000
212.000 183.000
133.000 202.000
125.000 202.000
107.000 206.000
90.000 206.000
77.000 209.000
66.000 209.000
58.000 205.000
55.000 205.000
50.000 208.000
45.000 200.000
43.000 202.000
38.000 203.000
37.000 206.000
40.000 209.000
35.000 209.000
37.000 213.000
30.000 210.000
25.000 210.000
24.000 212.000
23.000 211.000
22.000 213.000
17.000 214.000
16.000 222.000
18.000 224.000
29.000 225.000
36.000 227.000
40.000 230.000
52.000 233.000
62.000 234.000
77.000 232.000
92.000 237.000
104.000 237.000
116.000 243.000
126.000 244.000
136.000 248.000
145.000 248.000
170.000 253.000
200.000 255.000
211.000 258.000
222.000 257.000
240.000 260.000
265.000 260.000
274.000 263.000
298.000 266.000
323.000 266.000
330.000 268.000
361.000 269.000
371.000 272.000
416.000 271.000
428.000 274.000
437.000 274.000
453.000 280.000
485.000 296.000
502.000 306.000
539.000 332.000
568.000 347.000
584.000 353.000
597.000 355.000
611.000 355.000
641.000 349.000
652.000 342.000
674.000 322.000
694.000 297.000
700.000 286.000
708.000 276.000
712.000 267.000
719.000 258.000
735.000 225.000
739.000 220.000
743.000 207.000
