ply
format ascii 1.0
comment Dominant contour extracted from bimodal image.
comment scale factor = 0.731261
comment kernel width = 3
comment decimate eps = 1.000000
comment orig shape   = (547, 1118)
comment threshold    = 239.000000
comment Written with hapPLY (https://github.com/nmwsharp/happly)
element flags 0
property uchar closed
element vertex 128
property double x
property double y
end_header
761.000 220.000
759.000 207.000
755.000 199.000
752.000 197.000
746.000 189.000
746.000 187.000
740.000 181.000
738.000 174.000
722.000 157.000
708.000 152.000
697.000 144.000
687.000 141.000
678.000 133.000
664.000 127.000
655.000 120.000
649.000 119.000
630.000 109.000
604.000 81.000
601.000 72.000
590.000 59.000
579.000 52.000
577.000 49.000
560.000 40.000
538.000 35.000
513.000 35.000
502.000 39.000
490.000 40.000
482.000 43.000
463.000 46.000
449.000 51.000
428.000 54.000
405.000 62.000
376.000 68.000
369.000 72.000
353.000 76.000
333.000 87.000
318.000 92.000
314.000 95.000
294.000 103.000
269.000 111.000
254.000 114.000
249.000 117.000
239.000 119.000
235.000 122.000
221.000 125.000
201.000 133.000
174.000 139.000
153.000 141.000
150.000 143.000
137.000 145.000
133.000 147.000
126.000 147.000
111.000 151.000
110.000 150.000
109.000 152.000
99.000 153.000
64.000 165.000
48.000 163.000
45.000 167.000
38.000 168.000
35.000 166.000
34.000 168.000
26.000 168.000
22.000 171.000
23.000 182.000
27.000 184.000
41.000 184.000
47.000 181.000
58.000 181.000
66.000 179.000
85.000 179.000
97.000 181.000
112.000 186.000
124.000 192.000
127.000 192.000
129.000 194.000
150.000 200.000
154.000 203.000
162.000 205.000
167.000 208.000
172.000 208.000
192.000 216.000
198.000 217.000
222.000 229.000
228.000 230.000
244.000 238.000
255.000 241.000
263.000 246.000
291.000 254.000
318.000 265.000
336.000 274.000
351.000 284.000
361.000 287.000
380.000 298.000
394.000 303.000
402.000 309.000
413.000 312.000
420.000 317.000
429.000 320.000
432.000 323.000
433.000 322.000
442.000 328.000
465.000 338.000
474.000 345.000
495.000 352.000
500.000 357.000
515.000 363.000
534.000 366.000
538.000 368.000
545.000 368.000
563.000 363.000
579.000 361.000
602.000 349.000
611.000 341.000
626.000 333.000
640.000 322.000
655.000 316.000
666.000 309.000
690.000 302.000
697.000 296.000
701.000 290.000
705.000 289.000
711.000 284.000
721.000 279.000
736.000 266.000
738.000 261.000
746.000 252.000
759.000 230.000
