ply
format ascii 1.0
comment Dominant contour extracted from bimodal image.
comment scale factor = 0.557103
comment kernel width = 3
comment decimate eps = 1.000000
comment orig shape   = (718, 1750)
comment threshold    = 230.500000
comment Written with hapPLY (https://github.com/nmwsharp/happly)
element flags 0
property uchar closed
element vertex 127
property double x
property double y
end_header
953.000 165.000
945.000 148.000
931.000 134.000
929.000 130.000
912.000 120.000
901.000 117.000
892.000 112.000
881.000 111.000
865.000 107.000
839.000 94.000
836.000 90.000
826.000 84.000
818.000 76.000
803.000 53.000
784.000 37.000
775.000 34.000
769.000 30.000
755.000 27.000
732.000 27.000
723.000 30.000
717.000 30.000
710.000 34.000
706.000 34.000
703.000 37.000
684.000 46.000
681.000 49.000
674.000 51.000
607.000 84.000
582.000 90.000
554.000 100.000
545.000 101.000
542.000 103.000
524.000 107.000
487.000 110.000
476.000 113.000
433.000 119.000
427.000 122.000
410.000 123.000
405.000 125.000
401.000 124.000
393.000 127.000
385.000 127.000
366.000 132.000
358.000 132.000
349.000 135.000
340.000 135.000
324.000 140.000
314.000 146.000
308.000 147.000
291.000 157.000
285.000 158.000
275.000 164.000
268.000 166.000
239.000 185.000
222.000 193.000
215.000 200.000
192.000 215.000
190.000 218.000
183.000 221.000
175.000 230.000
168.000 234.000
138.000 263.000
123.000 273.000
95.000 285.000
63.000 295.000
48.000 303.000
31.000 303.000
23.000 309.000
26.000 312.000
26.000 318.000
30.000 325.000
38.000 327.000
48.000 319.000
53.000 318.000
59.000 314.000
105.000 294.000
124.000 287.000
148.000 283.000
177.000 283.000
195.000 286.000
211.000 285.000
234.000 288.000
291.000 285.000
336.000 285.000
353.000 283.000
390.000 283.000
478.000 275.000
522.000 275.000
584.000 288.000
602.000 295.000
621.000 299.000
636.000 305.000
646.000 306.000
654.000 309.000
661.000 309.000
676.000 316.000
693.000 321.000
700.000 326.000
711.000 329.000
732.000 341.000
757.000 347.000
764.000 351.000
805.000 349.000
807.000 347.000
816.000 345.000
824.000 341.000
828.000 337.000
836.000 334.000
845.000 325.000
853.000 311.000
854.000 304.000
861.000 287.000
869.000 275.000
873.000 273.000
885.000 261.000
886.000 258.000
894.000 251.000
898.000 245.000
903.000 243.000
914.000 232.000
924.000 226.000
931.000 216.000
936.000 214.000
943.000 204.000
946.000 195.000
950.000 189.000
953.000 180.000
