ply
format ascii 1.0
comment Dominant contour extracted from bimodal image.
comment scale factor = 0.378788
comment kernel width = 3
comment decimate eps = 1.000000
comment orig shape   = (1056, 2043)
comment threshold    = 236.000000
comment Written with hapPLY (https://github.com/nmwsharp/happly)
element flags 0
property uchar closed
element vertex 103
property double x
property double y
end_header
743.000 193.000
738.000 167.000
734.000 159.000
713.000 131.000
709.000 129.000
704.000 122.000
672.000 90.000
661.000 74.000
650.000 63.000
648.000 58.000
639.000 46.000
626.000 34.000
614.000 26.000
594.000 19.000
583.000 19.000
576.000 17.000
562.000 20.000
551.000 25.000
539.000 34.000
503.000 70.000
476.000 89.000
467.000 98.000
429.000 120.000
425.000 120.000
414.000 125.000
405.000 126.000
382.000 135.000
367.000 138.000
335.000 151.000
319.000 154.000
306.000 159.000
293.000 161.000
274.000 169.000
234.000 181.000
214.000 184.000
210.000 186.000
203.000 186.000
195.000 189.000
159.000 195.000
131.000 202.000
58.000 211.000
32.000 216.000
17.000 216.000
15.000 218.000
16.000 220.000
14.000 229.000
24.000 234.000
33.000 235.000
50.000 240.000
56.000 245.000
62.000 246.000
79.000 257.000
103.000 269.000
114.000 270.000
126.000 275.000
140.000 275.000
148.000 280.000
161.000 284.000
170.000 284.000
178.000 286.000
183.000 285.000
199.000 288.000
203.000 287.000
210.000 289.000
222.000 289.000
241.000 292.000
304.000 288.000
319.000 289.000
347.000 287.000
350.000 285.000
358.000 287.000
410.000 285.000
413.000 287.000
422.000 288.000
433.000 292.000
443.000 292.000
452.000 296.000
457.000 296.000
474.000 301.000
494.000 310.000
513.000 325.000
522.000 329.000
537.000 344.000
578.000 370.000
586.000 373.000
608.000 374.000
620.000 372.000
643.000 363.000
649.000 359.000
656.000 352.000
656.000 350.000
664.000 343.000
668.000 335.000
670.000 326.000
677.000 317.000
684.000 303.000
707.000 268.000
714.000 260.000
714.000 258.000
720.000 252.000
733.000 228.000
738.000 222.000
743.000 207.000
