ply
format ascii 1.0
comment Dominant contour extracted from bimodal image.
comment scale factor = 0.490798
comment kernel width = 3
comment decimate eps = 1.000000
comment orig shape   = (815, 1766)
comment threshold    = 235.000000
comment Written with hapPLY (https://github.com/nmwsharp/happly)
element flags 0
property uchar closed
element vertex 114
property double x
property double y
end_header
828.000 227.000
827.000 213.000
821.000 202.000
819.000 194.000
808.000 180.000
807.000 173.000
799.000 159.000
794.000 154.000
789.000 145.000
772.000 127.000
768.000 119.000
764.000 115.000
764.000 112.000
759.000 104.000
757.000 95.000
751.000 84.000
731.000 64.000
704.000 52.000
699.000 52.000
691.000 49.000
659.000 51.000
644.000 55.000
627.000 63.000
616.000 66.000
607.000 71.000
588.000 76.000
569.000 78.000
561.000 81.000
536.000 85.000
528.000 88.000
504.000 92.000
486.000 97.000
470.000 99.000
448.000 105.000
438.000 105.000
422.000 109.000
410.000 109.000
392.000 112.000
353.000 124.000
329.000 128.000
313.000 135.000
306.000 135.000
294.000 138.000
274.000 149.000
256.000 153.000
250.000 157.000
202.000 177.000
188.000 181.000
183.000 181.000
156.000 190.000
127.000 196.000
112.000 202.000
104.000 203.000
85.000 211.000
55.000 211.000
44.000 213.000
17.000 214.000
13.000 217.000
13.000 225.000
17.000 228.000
41.000 223.000
40.000 228.000
43.000 229.000
49.000 224.000
60.000 222.000
80.000 222.000
98.000 226.000
132.000 237.000
141.000 237.000
154.000 241.000
168.000 242.000
173.000 244.000
187.000 244.000
192.000 247.000
205.000 249.000
229.000 249.000
253.000 252.000
267.000 256.000
281.000 256.000
298.000 259.000
322.000 258.000
355.000 260.000
364.000 263.000
433.000 266.000
443.000 269.000
457.000 270.000
480.000 277.000
514.000 282.000
549.000 292.000
582.000 308.000
592.000 317.000
600.000 321.000
625.000 342.000
636.000 347.000
648.000 356.000
656.000 360.000
673.000 366.000
692.000 369.000
710.000 364.000
715.000 364.000
722.000 359.000
728.000 358.000
735.000 352.000
739.000 345.000
752.000 332.000
760.000 320.000
782.000 299.000
786.000 292.000
807.000 271.000
808.000 265.000
812.000 262.000
818.000 253.000
819.000 245.000
824.000 239.000
