ply
format ascii 1.0
comment Dominant contour extracted from bimodal image.
comment scale factor = 0.417101
comment kernel width = 3
comment decimate eps = 1.000000
comment orig shape   = (959, 2096)
comment threshold    = 240.000000
comment Written with hapPLY (https://github.com/nmwsharp/happly)
element flags 0
property uchar closed
element vertex 126
property double x
property double y
end_header
853.000 238.000
853.000 231.000
851.000 225.000
842.000 210.000
839.000 202.000
829.000 193.000
810.000 167.000
793.000 149.000
777.000 126.000
747.000 57.000
728.000 36.000
715.000 26.000
701.000 18.000
685.000 13.000
668.000 13.000
640.000 22.000
629.000 29.000
618.000 33.000
583.000 51.000
575.000 53.000
548.000 68.000
527.000 75.000
516.000 76.000
472.000 87.000
460.000 88.000
452.000 91.000
437.000 92.000
413.000 97.000
410.000 95.000
389.000 96.000
359.000 102.000
352.000 105.000
347.000 104.000
341.000 108.000
338.000 107.000
315.000 113.000
307.000 113.000
303.000 116.000
284.000 116.000
250.000 125.000
233.000 127.000
228.000 131.000
218.000 132.000
207.000 137.000
189.000 140.000
180.000 145.000
159.000 153.000
144.000 156.000
123.000 163.000
114.000 163.000
104.000 169.000
87.000 174.000
80.000 178.000
28.000 193.000
18.000 192.000
18.000 200.000
15.000 202.000
16.000 204.000
24.000 205.000
25.000 207.000
33.000 206.000
41.000 207.000
46.000 210.000
49.000 209.000
57.000 215.000
78.000 222.000
98.000 226.000
103.000 228.000
100.000 233.000
101.000 235.000
105.000 229.000
108.000 229.000
118.000 233.000
135.000 235.000
145.000 239.000
170.000 242.000
173.000 244.000
200.000 245.000
205.000 247.000
221.000 247.000
235.000 250.000
240.000 249.000
248.000 251.000
281.000 253.000
310.000 257.000
321.000 260.000
336.000 260.000
347.000 263.000
356.000 263.000
364.000 265.000
369.000 264.000
377.000 268.000
416.000 270.000
426.000 273.000
434.000 273.000
458.000 280.000
465.000 280.000
480.000 286.000
489.000 287.000
498.000 291.000
509.000 293.000
511.000 295.000
514.000 295.000
518.000 298.000
536.000 305.000
577.000 336.000
597.000 356.000
602.000 358.000
612.000 367.000
625.000 373.000
649.000 377.000
653.000 375.000
671.000 376.000
678.000 373.000
682.000 373.000
695.000 368.000
698.000 365.000
714.000 357.000
736.000 333.000
760.000 317.000
782.000 305.000
801.000 290.000
810.000 280.000
820.000 272.000
834.000 255.000
845.000 247.000
