ply
format ascii 1.0
comment Dominant contour extracted from bimodal image.
comment scale factor = 0.641026
comment kernel width = 3
comment decimate eps = 1.000000
comment orig shape   = (624, 1356)
comment threshold    = 232.500000
comment Written with hapPLY (https://github.com/nmwsharp/happly)
element flags 0
property uchar closed
element vertex 107
property double x
property double y
end_header
827.000 215.000
824.000 211.000
825.000 205.000
811.000 175.000
793.000 154.000
788.000 143.000
772.000 125.000
767.000 115.000
758.000 105.000
747.000 85.000
738.000 77.000
725.000 61.000
706.000 48.000
677.000 44.000
673.000 46.000
656.000 48.000
642.000 52.000
627.000 53.000
598.000 62.000
582.000 73.000
576.000 75.000
565.000 84.000
553.000 89.000
538.000 98.000
525.000 102.000
498.000 105.000
464.000 105.000
445.000 109.000
419.000 109.000
399.000 113.000
355.000 114.000
350.000 116.000
328.000 116.000
323.000 118.000
288.000 120.000
281.000 122.000
277.000 119.000
275.000 121.000
277.000 123.000
223.000 128.000
207.000 132.000
204.000 134.000
186.000 137.000
183.000 139.000
157.000 146.000
145.000 152.000
137.000 154.000
118.000 165.000
108.000 169.000
101.000 175.000
72.000 191.000
69.000 191.000
53.000 198.000
41.000 200.000
37.000 203.000
21.000 209.000
17.000 207.000
13.000 211.000
13.000 213.000
8.000 215.000
7.000 221.000
9.000 223.000
10.000 230.000
20.000 232.000
29.000 231.000
39.000 220.000
43.000 219.000
48.000 215.000
59.000 212.000
203.000 212.000
228.000 216.000
246.000 217.000
251.000 219.000
272.000 221.000
296.000 226.000
320.000 228.000
336.000 232.000
346.000 232.000
396.000 242.000
411.000 242.000
417.000 244.000
444.000 247.000
454.000 251.000
474.000 255.000
499.000 263.000
512.000 270.000
541.000 280.000
573.000 295.000
578.000 299.000
585.000 301.000
592.000 307.000
610.000 329.000
643.000 360.000
672.000 374.000
687.000 374.000
693.000 372.000
705.000 373.000
711.000 371.000
723.000 361.000
738.000 342.000
750.000 319.000
768.000 299.000
784.000 288.000
802.000 271.000
804.000 265.000
807.000 262.000
818.000 241.000
