ply
format ascii 1.0
comment Dominant contour extracted from bimodal image.
comment scale factor = 0.446429
comment kernel width = 3
comment decimate eps = 1.000000
comment orig shape   = (896, 1872)
comment threshold    = 232.000000
comment Written with hapPLY (https://github.com/nmwsharp/happly)
element flags 0
property uchar closed
element vertex 112
property double x
property double y
end_header
792.000 206.000
791.000 177.000
789.000 173.000
785.000 152.000
777.000 137.000
769.000 127.000
760.000 109.000
755.000 87.000
750.000 75.000
749.000 66.000
733.000 49.000
723.000 43.000
696.000 36.000
689.000 37.000
682.000 35.000
672.000 35.000
662.000 40.000
648.000 44.000
635.000 55.000
631.000 56.000
618.000 65.000
578.000 104.000
534.000 137.000
512.000 149.000
469.000 167.000
445.000 172.000
422.000 180.000
398.000 186.000
346.000 194.000
279.000 200.000
255.000 205.000
246.000 205.000
223.000 209.000
212.000 209.000
197.000 212.000
163.000 214.000
131.000 221.000
111.000 222.000
82.000 215.000
81.000 216.000
76.000 214.000
62.000 214.000
50.000 212.000
48.000 214.000
47.000 220.000
49.000 224.000
52.000 226.000
50.000 227.000
52.000 229.000
68.000 227.000
73.000 231.000
76.000 230.000
78.000 232.000
82.000 231.000
90.000 234.000
123.000 238.000
125.000 240.000
132.000 242.000
147.000 254.000
168.000 266.000
177.000 267.000
195.000 274.000
206.000 275.000
215.000 279.000
236.000 283.000
248.000 287.000
276.000 289.000
291.000 293.000
297.000 292.000
307.000 295.000
317.000 295.000
328.000 298.000
338.000 298.000
343.000 300.000
367.000 300.000
375.000 298.000
382.000 300.000
393.000 299.000
398.000 301.000
446.000 303.000
460.000 306.000
490.000 306.000
500.000 309.000
511.000 309.000
520.000 313.000
533.000 313.000
549.000 320.000
557.000 321.000
562.000 324.000
583.000 330.000
600.000 340.000
622.000 357.000
641.000 366.000
665.000 374.000
671.000 373.000
674.000 375.000
691.000 374.000
718.000 364.000
730.000 356.000
741.000 343.000
741.000 338.000
746.000 330.000
746.000 326.000
748.000 323.000
752.000 301.000
757.000 292.000
759.000 278.000
762.000 271.000
774.000 253.000
776.000 247.000
787.000 231.000
790.000 223.000
