ply
format ascii 1.0
comment Dominant contour extracted from bimodal image.
comment scale factor = 0.553250
comment kernel width = 3
comment decimate eps = 1.000000
comment orig shape   = (723, 1799)
comment threshold    = 213.500000
comment Written with hapPLY (https://github.com/nmwsharp/happly)
element flags 0
property uchar closed
element vertex 95
property double x
property double y
end_header
962.000 255.000
961.000 239.000
957.000 227.000
948.000 211.000
937.000 201.000
933.000 195.000
914.000 183.000
904.000 174.000
876.000 143.000
868.000 126.000
860.000 90.000
846.000 75.000
832.000 66.000
823.000 62.000
798.000 57.000
770.000 59.000
765.000 62.000
750.000 64.000
741.000 68.000
714.000 72.000
684.000 83.000
678.000 83.000
667.000 87.000
661.000 87.000
650.000 90.000
626.000 90.000
602.000 84.000
562.000 58.000
552.000 53.000
541.000 50.000
518.000 51.000
503.000 55.000
479.000 68.000
474.000 69.000
467.000 74.000
413.000 93.000
404.000 98.000
371.000 108.000
367.000 108.000
339.000 119.000
321.000 123.000
280.000 136.000
231.000 155.000
197.000 163.000
175.000 171.000
149.000 174.000
112.000 174.000
84.000 171.000
79.000 176.000
77.000 175.000
68.000 177.000
58.000 177.000
55.000 180.000
55.000 185.000
58.000 189.000
86.000 186.000
89.000 190.000
91.000 186.000
93.000 187.000
99.000 185.000
148.000 185.000
172.000 187.000
194.000 193.000
236.000 208.000
254.000 212.000
265.000 217.000
314.000 233.000
384.000 244.000
424.000 247.000
500.000 261.000
545.000 277.000
565.000 287.000
578.000 296.000
586.000 299.000
597.000 306.000
623.000 329.000
648.000 354.000
661.000 364.000
683.000 374.000
709.000 382.000
729.000 381.000
741.000 377.000
750.000 371.000
760.000 361.000
775.000 341.000
784.000 334.000
803.000 324.000
829.000 317.000
866.000 313.000
893.000 305.000
910.000 296.000
920.000 293.000
928.000 287.000
937.000 284.000
957.000 268.000
