ply
format ascii 1.0
comment Dominant contour extracted from bimodal image.
comment scale factor = 0.675676
comment kernel width = 3
comment decimate eps = 1.000000
comment orig shape   = (592, 1228)
comment threshold    = 241.000000
comment Written with hapPLY (https://github.com/nmwsharp/happly)
element flags 0
property uchar closed
element vertex 117
property double x
property double y
end_header
771.000 216.000
771.000 210.000
767.000 201.000
743.000 177.000
735.000 173.000
727.000 166.000
715.000 161.000
706.000 154.000
697.000 144.000
696.000 145.000
687.000 137.000
681.000 135.000
676.000 131.000
666.000 128.000
660.000 122.000
657.000 121.000
652.000 114.000
644.000 108.000
640.000 95.000
635.000 89.000
634.000 85.000
627.000 77.000
623.000 68.000
615.000 60.000
603.000 53.000
592.000 50.000
587.000 46.000
575.000 47.000
565.000 45.000
531.000 54.000
517.000 62.000
507.000 64.000
492.000 73.000
484.000 73.000
481.000 75.000
477.000 75.000
475.000 77.000
461.000 79.000
444.000 86.000
423.000 87.000
411.000 91.000
396.000 91.000
384.000 95.000
377.000 95.000
341.000 106.000
336.000 106.000
326.000 110.000
319.000 110.000
304.000 116.000
284.000 120.000
277.000 123.000
245.000 129.000
224.000 137.000
218.000 137.000
197.000 144.000
189.000 145.000
164.000 154.000
158.000 154.000
138.000 162.000
127.000 164.000
125.000 166.000
110.000 168.000
95.000 175.000
77.000 177.000
72.000 179.000
55.000 178.000
37.000 181.000
20.000 181.000
14.000 183.000
15.000 190.000
19.000 192.000
33.000 192.000
56.000 189.000
99.000 189.000
107.000 192.000
121.000 193.000
149.000 201.000
197.000 222.000
202.000 226.000
224.000 237.000
231.000 239.000
274.000 262.000
298.000 270.000
337.000 289.000
338.000 291.000
341.000 291.000
357.000 301.000
375.000 315.000
393.000 324.000
414.000 339.000
428.000 347.000
440.000 349.000
450.000 354.000
468.000 356.000
477.000 359.000
493.000 359.000
503.000 361.000
511.000 361.000
516.000 359.000
537.000 362.000
577.000 360.000
607.000 349.000
625.000 334.000
627.000 330.000
638.000 319.000
642.000 312.000
649.000 307.000
660.000 294.000
675.000 285.000
683.000 283.000
694.000 274.000
710.000 267.000
728.000 255.000
739.000 251.000
764.000 231.000
769.000 223.000
769.000 219.000
