ply
format ascii 1.0
comment Dominant contour extracted from bimodal image.
comment scale factor = 0.529801
comment kernel width = 3
comment decimate eps = 1.000000
comment orig shape   = (755, 1893)
comment threshold    = 237.000000
comment Written with hapPLY (https://github.com/nmwsharp/happly)
element flags 0
property uchar closed
element vertex 105
property double x
property double y
end_header
958.000 188.000
952.000 162.000
947.000 154.000
935.000 143.000
917.000 130.000
898.000 121.000
852.000 93.000
810.000 60.000
795.000 44.000
773.000 25.000
757.000 20.000
742.000 19.000
704.000 29.000
686.000 40.000
682.000 44.000
672.000 49.000
665.000 55.000
637.000 92.000
594.000 133.000
570.000 149.000
547.000 158.000
546.000 157.000
542.000 160.000
517.000 165.000
505.000 169.000
464.000 176.000
406.000 178.000
386.000 182.000
354.000 182.000
292.000 189.000
253.000 189.000
247.000 191.000
208.000 193.000
204.000 195.000
181.000 197.000
152.000 204.000
128.000 206.000
119.000 210.000
89.000 218.000
80.000 218.000
64.000 214.000
56.000 215.000
25.000 208.000
19.000 210.000
18.000 212.000
20.000 213.000
9.000 213.000
6.000 216.000
6.000 220.000
12.000 229.000
16.000 229.000
18.000 226.000
33.000 226.000
35.000 229.000
61.000 228.000
95.000 232.000
138.000 250.000
150.000 257.000
158.000 258.000
174.000 265.000
179.000 265.000
192.000 270.000
216.000 274.000
234.000 282.000
263.000 287.000
275.000 291.000
294.000 293.000
303.000 297.000
336.000 305.000
344.000 304.000
369.000 311.000
387.000 312.000
407.000 316.000
420.000 316.000
428.000 318.000
428.000 321.000
433.000 319.000
440.000 322.000
456.000 323.000
465.000 326.000
523.000 329.000
536.000 332.000
556.000 331.000
572.000 334.000
592.000 333.000
627.000 337.000
651.000 335.000
675.000 339.000
706.000 341.000
724.000 346.000
757.000 362.000
792.000 366.000
824.000 361.000
842.000 351.000
876.000 318.000
884.000 308.000
887.000 301.000
896.000 290.000
899.000 282.000
909.000 270.000
920.000 252.000
931.000 240.000
938.000 236.000
950.000 223.000
958.000 201.000
