ply
format ascii 1.0
comment Dominant contour extracted from bimodal image.
comment scale factor = 0.500626
comment kernel width = 3
comment decimate eps = 1.000000
comment orig shape   = (799, 1856)
comment threshold    = 231.500000
comment Written with hapPLY (https://github.com/nmwsharp/happly)
element flags 0
property uchar closed
element vertex 109
property double x
property double y
end_header
885.000 188.000
881.000 173.000
868.000 151.000
854.000 139.000
843.000 124.000
827.000 108.000
817.000 101.000
815.000 96.000
803.000 83.000
785.000 58.000
772.000 47.000
767.000 47.000
759.000 43.000
743.000 40.000
728.000 41.000
719.000 45.000
713.000 45.000
701.000 51.000
691.000 54.000
663.000 68.000
632.000 77.000
614.000 80.000
590.000 89.000
569.000 93.000
532.000 106.000
508.000 112.000
449.000 123.000
433.000 124.000
425.000 127.000
405.000 130.000
385.000 137.000
340.000 146.000
310.000 149.000
247.000 161.000
239.000 165.000
225.000 169.000
167.000 180.000
134.000 191.000
128.000 195.000
127.000 199.000
121.000 192.000
117.000 197.000
96.000 204.000
60.000 206.000
56.000 203.000
53.000 207.000
48.000 208.000
44.000 204.000
42.000 204.000
40.000 208.000
18.000 208.000
16.000 212.000
14.000 210.000
11.000 212.000
11.000 214.000
15.000 221.000
19.000 222.000
18.000 226.000
21.000 228.000
23.000 226.000
32.000 224.000
34.000 225.000
37.000 223.000
43.000 223.000
58.000 219.000
87.000 218.000
165.000 237.000
183.000 238.000
205.000 242.000
216.000 242.000
244.000 247.000
273.000 248.000
301.000 253.000
348.000 253.000
371.000 257.000
397.000 258.000
415.000 261.000
426.000 265.000
456.000 266.000
506.000 273.000
526.000 280.000
551.000 285.000
590.000 299.000
609.000 309.000
637.000 328.000
662.000 339.000
676.000 348.000
699.000 357.000
704.000 361.000
716.000 364.000
722.000 362.000
739.000 362.000
745.000 358.000
759.000 353.000
772.000 340.000
782.000 324.000
784.000 318.000
794.000 306.000
795.000 302.000
799.000 297.000
818.000 280.000
827.000 269.000
837.000 262.000
845.000 253.000
864.000 239.000
866.000 234.000
874.000 226.000
881.000 214.000
884.000 204.000
