ply
format ascii 1.0
comment Dominant contour extracted from bimodal image.
comment scale factor = 0.506329
comment kernel width = 3
comment decimate eps = 1.000000
comment orig shape   = (790, 1750)
comment threshold    = 242.000000
comment Written with hapPLY (https://github.com/nmwsharp/happly)
element flags 0
property uchar closed
element vertex 144
property double x
property double y
end_header
840.000 161.000
839.000 159.000
836.000 159.000
825.000 147.000
817.000 143.000
809.000 135.000
800.000 130.000
792.000 128.000
785.000 122.000
777.000 120.000
769.000 115.000
766.000 115.000
756.000 109.000
750.000 108.000
739.000 102.000
726.000 100.000
698.000 87.000
693.000 82.000
691.000 82.000
682.000 71.000
676.000 68.000
667.000 58.000
647.000 52.000
628.000 52.000
598.000 57.000
584.000 65.000
573.000 69.000
563.000 70.000
541.000 79.000
528.000 82.000
527.000 81.000
524.000 83.000
514.000 83.000
504.000 87.000
492.000 87.000
478.000 91.000
459.000 92.000
404.000 92.000
372.000 95.000
357.000 94.000
335.000 103.000
320.000 105.000
300.000 112.000
287.000 113.000
271.000 118.000
265.000 117.000
241.000 122.000
214.000 133.000
207.000 134.000
185.000 142.000
173.000 144.000
160.000 151.000
157.000 150.000
141.000 155.000
111.000 159.000
99.000 165.000
74.000 164.000
64.000 159.000
61.000 159.000
61.000 162.000
57.000 162.000
54.000 160.000
53.000 161.000
44.000 155.000
43.000 152.000
45.000 150.000
40.000 148.000
37.000 150.000
37.000 153.000
39.000 156.000
42.000 156.000
42.000 158.000
40.000 159.000
39.000 163.000
35.000 163.000
36.000 164.000
32.000 171.000
31.000 179.000
33.000 182.000
35.000 180.000
39.000 180.000
40.000 182.000
50.000 180.000
52.000 183.000
52.000 187.000
58.000 189.000
63.000 189.000
81.000 183.000
94.000 183.000
115.000 186.000
159.000 208.000
173.000 218.000
179.000 218.000
192.000 224.000
201.000 225.000
213.000 234.000
227.000 238.000
233.000 243.000
241.000 245.000
248.000 251.000
259.000 252.000
270.000 259.000
283.000 263.000
295.000 271.000
309.000 274.000
324.000 285.000
339.000 287.000
367.000 299.000
382.000 301.000
399.000 311.000
422.000 313.000
429.000 318.000
443.000 322.000
465.000 324.000
480.000 332.000
500.000 335.000
541.000 352.000
554.000 354.000
570.000 360.000
598.000 362.000
603.000 360.000
624.000 360.000
658.000 344.000
669.000 333.000
673.000 326.000
682.000 318.000
695.000 301.000
708.000 296.000
713.000 292.000
712.000 291.000
723.000 285.000
726.000 281.000
740.000 276.000
745.000 271.000
755.000 266.000
765.000 255.000
776.000 250.000
809.000 219.000
813.000 212.000
819.000 206.000
831.000 186.000
832.000 180.000
839.000 167.000
838.000 162.000
