ply
format ascii 1.0
comment Dominant contour extracted from bimodal image.
comment scale factor = 0.437637
comment kernel width = 3
comment decimate eps = 1.000000
comment orig shape   = (914, 1642)
comment threshold    = 232.000000
comment Written with hapPLY (https://github.com/nmwsharp/happly)
element flags 0
property uchar closed
element vertex 109
property double x
property double y
end_header
680.000 215.000
678.000 212.000
678.000 203.000
676.000 198.000
674.000 178.000
659.000 130.000
660.000 112.000
658.000 98.000
651.000 89.000
648.000 80.000
631.000 63.000
613.000 53.000
596.000 49.000
584.000 52.000
575.000 52.000
536.000 73.000
518.000 81.000
506.000 84.000
496.000 89.000
482.000 92.000
461.000 102.000
444.000 107.000
407.000 123.000
383.000 135.000
376.000 140.000
365.000 143.000
348.000 151.000
340.000 157.000
326.000 164.000
306.000 169.000
302.000 172.000
290.000 176.000
276.000 179.000
255.000 179.000
223.000 186.000
221.000 185.000
211.000 189.000
198.000 190.000
194.000 193.000
170.000 199.000
162.000 204.000
159.000 203.000
149.000 207.000
145.000 207.000
126.000 213.000
117.000 218.000
91.000 225.000
62.000 225.000
57.000 227.000
55.000 225.000
31.000 224.000
31.000 222.000
28.000 221.000
25.000 223.000
23.000 228.000
20.000 229.000
20.000 236.000
23.000 245.000
26.000 245.000
31.000 248.000
33.000 246.000
33.000 243.000
43.000 242.000
46.000 245.000
49.000 243.000
59.000 241.000
80.000 241.000
106.000 247.000
112.000 247.000
116.000 249.000
127.000 250.000
130.000 252.000
153.000 252.000
167.000 254.000
180.000 253.000
224.000 258.000
245.000 258.000
253.000 260.000
264.000 260.000
270.000 262.000
280.000 262.000
286.000 264.000
341.000 271.000
360.000 276.000
374.000 277.000
406.000 283.000
422.000 289.000
460.000 309.000
494.000 334.000
514.000 352.000
536.000 367.000
546.000 371.000
560.000 374.000
583.000 373.000
589.000 369.000
605.000 365.000
622.000 348.000
627.000 347.000
629.000 345.000
626.000 344.000
625.000 341.000
628.000 331.000
638.000 311.000
641.000 298.000
656.000 274.000
667.000 262.000
672.000 249.000
676.000 243.000
680.000 230.000
