ply
format ascii 1.0
comment Dominant contour extracted from bimodal image.
comment scale factor = 0.486027
comment kernel width = 3
comment decimate eps = 1.000000
comment orig shape   = (823, 1874)
comment threshold    = 222.000000
comment Written with hapPLY (https://github.com/nmwsharp/happly)
element flags 0
property uchar closed
element vertex 108
property double x
property double y
end_header
880.000 240.000
849.000 197.000
837.000 188.000
837.000 186.000
825.000 174.000
813.000 156.000
804.000 136.000
802.000 127.000
799.000 122.000
799.000 118.000
790.000 100.000
789.000 95.000
785.000 87.000
779.000 81.000
772.000 70.000
767.000 65.000
734.000 46.000
721.000 41.000
699.000 39.000
683.000 41.000
664.000 50.000
643.000 63.000
619.000 84.000
607.000 90.000
593.000 95.000
573.000 98.000
560.000 102.000
488.000 105.000
457.000 111.000
431.000 111.000
408.000 107.000
380.000 107.000
366.000 105.000
313.000 105.000
305.000 108.000
285.000 111.000
269.000 121.000
250.000 123.000
223.000 132.000
218.000 135.000
208.000 137.000
205.000 140.000
192.000 143.000
187.000 147.000
179.000 150.000
172.000 156.000
163.000 159.000
144.000 173.000
133.000 178.000
113.000 195.000
95.000 205.000
76.000 210.000
56.000 218.000
35.000 223.000
29.000 221.000
21.000 222.000
11.000 216.000
7.000 218.000
9.000 229.000
13.000 236.000
17.000 234.000
19.000 230.000
35.000 235.000
51.000 236.000
72.000 229.000
92.000 226.000
109.000 226.000
125.000 224.000
155.000 225.000
174.000 221.000
202.000 221.000
209.000 219.000
227.000 219.000
250.000 222.000
280.000 221.000
340.000 228.000
359.000 232.000
400.000 236.000
422.000 242.000
479.000 264.000
498.000 274.000
508.000 277.000
527.000 288.000
535.000 295.000
555.000 305.000
569.000 310.000
585.000 321.000
603.000 329.000
617.000 339.000
634.000 348.000
652.000 354.000
676.000 359.000
696.000 359.000
709.000 355.000
731.000 334.000
738.000 331.000
748.000 322.000
757.000 318.000
765.000 311.000
773.000 308.000
779.000 303.000
792.000 297.000
799.000 289.000
805.000 287.000
814.000 280.000
827.000 274.000
841.000 263.000
865.000 252.000
