ply
format ascii 1.0
comment Dominant contour extracted from bimodal image.
comment scale factor = 0.432900
comment kernel width = 3
comment decimate eps = 1.000000
comment orig shape   = (924, 2079)
comment threshold    = 241.000000
comment Written with hapPLY (https://github.com/nmwsharp/happly)
element flags 0
property uchar closed
element vertex 137
property double x
property double y
end_header
872.000 209.000
872.000 202.000
866.000 191.000
846.000 171.000
844.000 171.000
835.000 163.000
785.000 138.000
777.000 129.000
773.000 127.000
758.000 113.000
748.000 99.000
742.000 86.000
742.000 82.000
739.000 77.000
738.000 69.000
734.000 59.000
726.000 51.000
715.000 47.000
707.000 42.000
686.000 37.000
657.000 39.000
643.000 38.000
632.000 40.000
629.000 39.000
625.000 41.000
616.000 42.000
599.000 49.000
592.000 56.000
586.000 55.000
582.000 58.000
571.000 60.000
554.000 69.000
544.000 69.000
522.000 77.000
501.000 79.000
485.000 84.000
480.000 88.000
476.000 88.000
457.000 95.000
428.000 100.000
420.000 105.000
358.000 115.000
345.000 120.000
319.000 125.000
301.000 132.000
293.000 133.000
289.000 136.000
281.000 136.000
264.000 142.000
256.000 143.000
245.000 148.000
239.000 149.000
227.000 156.000
217.000 158.000
211.000 161.000
189.000 165.000
160.000 174.000
135.000 178.000
112.000 186.000
97.000 188.000
80.000 187.000
75.000 190.000
73.000 190.000
76.000 188.000
75.000 186.000
55.000 186.000
50.000 193.000
35.000 201.000
36.000 207.000
39.000 210.000
43.000 209.000
41.000 210.000
44.000 211.000
41.000 210.000
41.000 213.000
48.000 213.000
60.000 210.000
62.000 212.000
65.000 212.000
82.000 206.000
101.000 202.000
122.000 200.000
136.000 200.000
161.000 206.000
186.000 208.000
191.000 211.000
206.000 215.000
213.000 219.000
237.000 227.000
245.000 232.000
265.000 239.000
278.000 241.000
292.000 248.000
303.000 251.000
320.000 262.000
337.000 270.000
347.000 272.000
361.000 278.000
367.000 277.000
393.000 284.000
412.000 285.000
421.000 289.000
431.000 291.000
454.000 303.000
465.000 305.000
474.000 310.000
486.000 312.000
514.000 327.000
532.000 335.000
538.000 336.000
555.000 346.000
579.000 355.000
605.000 368.000
642.000 376.000
654.000 377.000
683.000 375.000
699.000 370.000
704.000 370.000
719.000 365.000
729.000 356.000
746.000 325.000
754.000 314.000
777.000 291.000
780.000 291.000
793.000 279.000
803.000 273.000
808.000 272.000
814.000 268.000
817.000 268.000
832.000 258.000
843.000 247.000
846.000 241.000
850.000 239.000
858.000 230.000
860.000 230.000
864.000 226.000
870.000 216.000
